<svg xmlns="http://www.w3.org/2000/svg" xmlns:xlink="http://www.w3.org/1999/xlink" viewBox="0 0 300 600"><defs><style>.cls-1,.cls-2,.cls-3,.cls-4,.cls-5,.cls-6,.cls-7{fill:#2d3948;}.cls-2{clip-path:url(#clip-path);}.cls-3{clip-path:url(#clip-path-2);}.cls-4{clip-path:url(#clip-path-3);}.cls-5{clip-path:url(#clip-path-4);}.cls-6{clip-path:url(#clip-path-5);}.cls-7{clip-path:url(#clip-path-6);}.cls-8{clip-path:url(#clip-path-7);}</style><clipPath id="clip-path"><path class="cls-1" d="M182.56,559h7.19v1.23h-5.93v3.93h5.88v1.23h-5.88v4.92h5.88v1.23h-7.14Z"/></clipPath><clipPath id="clip-path-2"><path class="cls-2" d="M190.66,562.27h1.43l2.47,3.39,2.44-3.39h1.43l-3.15,4.38,3.55,4.89h-1.45l-2.82-3.89-2.81,3.89h-1.42l3.51-4.88Z"/></clipPath><clipPath id="clip-path-3"><path class="cls-3" d="M200.11,562.27h1.19V564a4.82,4.82,0,0,1,1.63-1.45,4.25,4.25,0,0,1,2-.49,4.56,4.56,0,0,1,3.38,1.42,4.7,4.7,0,0,1,1.41,3.43,4.82,4.82,0,0,1-1.39,3.47,4.69,4.69,0,0,1-5.4,1A5.13,5.13,0,0,1,201.3,570v5h-1.19Zm4.77.91a3.49,3.49,0,0,0-2.6,1.08,3.68,3.68,0,0,0-1.06,2.69,3.88,3.88,0,0,0,.47,1.9,3.55,3.55,0,0,0,1.35,1.34,3.75,3.75,0,0,0,1.86.49,3.55,3.55,0,0,0,1.81-.5,3.68,3.68,0,0,0,1.35-1.39,3.83,3.83,0,0,0,.5-1.87,3.74,3.74,0,0,0-.5-1.87,3.59,3.59,0,0,0-3.18-1.87Z"/></clipPath><clipPath id="clip-path-4"><path class="cls-4" d="M211.82,558.69H213v12.85h-1.2Z"/></clipPath><clipPath id="clip-path-5"><path class="cls-5" d="M219.89,562a4.62,4.62,0,0,1,3.55,1.55,5,5,0,0,1-.08,6.75,4.9,4.9,0,0,1-7,0,4.84,4.84,0,0,1-1.36-3.4,4.79,4.79,0,0,1,1.29-3.34A4.57,4.57,0,0,1,219.89,562Zm0,1.17a3.44,3.44,0,0,0-2.56,1.1,3.68,3.68,0,0,0-1.07,2.66,3.81,3.81,0,0,0,.49,1.87,3.47,3.47,0,0,0,1.32,1.34,3.69,3.69,0,0,0,3.64,0,3.34,3.34,0,0,0,1.32-1.34,3.71,3.71,0,0,0,.49-1.87,3.65,3.65,0,0,0-1.08-2.66A3.4,3.4,0,0,0,219.88,563.2Z"/></clipPath><clipPath id="clip-path-6"><path class="cls-6" d="M226.47,562.27h1.22v1.35a4.38,4.38,0,0,1,1.15-1.19,2.27,2.27,0,0,1,1.27-.4,2.16,2.16,0,0,1,1,.31l-.62,1a1.61,1.61,0,0,0-.63-.16,1.71,1.71,0,0,0-1.15.49,3.15,3.15,0,0,0-.85,1.52,15.16,15.16,0,0,0-.22,3.2v3.14h-1.22Z"/></clipPath><clipPath id="clip-path-7"><path class="cls-7" d="M239.92,568.46l1,.53a5.53,5.53,0,0,1-1.14,1.57,4.54,4.54,0,0,1-1.46.91,5,5,0,0,1-1.84.31,4.42,4.42,0,0,1-3.54-1.49,5.08,5.08,0,0,1-.2-6.5,4.41,4.41,0,0,1,3.68-1.76,4.55,4.55,0,0,1,3.78,1.8,4.94,4.94,0,0,1,1,3.17h-8.35a3.79,3.79,0,0,0,1,2.65,3.26,3.26,0,0,0,2.46,1,3.87,3.87,0,0,0,1.38-.25,3.51,3.51,0,0,0,1.14-.65A5.7,5.7,0,0,0,239.92,568.46Zm0-2.49a4,4,0,0,0-.7-1.53,3.24,3.24,0,0,0-1.21-.92,3.75,3.75,0,0,0-1.58-.35,3.36,3.36,0,0,0-2.34.88A4,4,0,0,0,233,566Z"/></clipPath></defs><title>explore</title><g id="Layer_2" data-name="Layer 2"><g id="Layer_1-2" data-name="Layer 1"><path class="cls-1" d="M182.56,559h7.19v1.23h-5.93v3.93h5.88v1.23h-5.88v4.92h5.88v1.23h-7.14Z"/><path class="cls-1" d="M190.66,562.27h1.43l2.47,3.39,2.44-3.39h1.43l-3.15,4.38,3.55,4.89h-1.45l-2.82-3.89-2.81,3.89h-1.42l3.51-4.88Z"/><path class="cls-1" d="M200.11,562.27h1.19V564a4.82,4.82,0,0,1,1.63-1.45,4.25,4.25,0,0,1,2-.49,4.56,4.56,0,0,1,3.38,1.42,4.7,4.7,0,0,1,1.41,3.43,4.82,4.82,0,0,1-1.39,3.47,4.69,4.69,0,0,1-5.4,1A5.13,5.13,0,0,1,201.3,570v5h-1.19Zm4.77.91a3.49,3.49,0,0,0-2.6,1.08,3.68,3.68,0,0,0-1.06,2.69,3.88,3.88,0,0,0,.47,1.9,3.55,3.55,0,0,0,1.35,1.34,3.75,3.75,0,0,0,1.86.49,3.55,3.55,0,0,0,1.81-.5,3.68,3.68,0,0,0,1.35-1.39,3.83,3.83,0,0,0,.5-1.87,3.74,3.74,0,0,0-.5-1.87,3.59,3.59,0,0,0-3.18-1.87Z"/><path class="cls-1" d="M211.82,558.69H213v12.85h-1.2Z"/><path class="cls-1" d="M219.89,562a4.62,4.62,0,0,1,3.55,1.55,5,5,0,0,1-.08,6.75,4.9,4.9,0,0,1-7,0,4.84,4.84,0,0,1-1.36-3.4,4.79,4.79,0,0,1,1.29-3.34A4.57,4.57,0,0,1,219.89,562Zm0,1.17a3.44,3.44,0,0,0-2.56,1.1,3.68,3.68,0,0,0-1.07,2.66,3.81,3.81,0,0,0,.49,1.87,3.47,3.47,0,0,0,1.32,1.34,3.69,3.69,0,0,0,3.64,0,3.34,3.34,0,0,0,1.32-1.34,3.71,3.71,0,0,0,.49-1.87,3.65,3.65,0,0,0-1.08-2.66A3.4,3.4,0,0,0,219.88,563.2Z"/><path class="cls-1" d="M226.47,562.27h1.22v1.35a4.38,4.38,0,0,1,1.15-1.19,2.27,2.27,0,0,1,1.27-.4,2.16,2.16,0,0,1,1,.31l-.62,1a1.61,1.61,0,0,0-.63-.16,1.71,1.71,0,0,0-1.15.49,3.15,3.15,0,0,0-.85,1.52,15.16,15.16,0,0,0-.22,3.2v3.14h-1.22Z"/><path class="cls-1" d="M239.92,568.46l1,.53a5.53,5.53,0,0,1-1.14,1.57,4.54,4.54,0,0,1-1.46.91,5,5,0,0,1-1.84.31,4.42,4.42,0,0,1-3.54-1.49,5.08,5.08,0,0,1-.2-6.5,4.41,4.41,0,0,1,3.68-1.76,4.55,4.55,0,0,1,3.78,1.8,4.94,4.94,0,0,1,1,3.17h-8.35a3.79,3.79,0,0,0,1,2.65,3.26,3.26,0,0,0,2.46,1,3.87,3.87,0,0,0,1.38-.25,3.51,3.51,0,0,0,1.14-.65A5.7,5.7,0,0,0,239.92,568.46Zm0-2.49a4,4,0,0,0-.7-1.53,3.24,3.24,0,0,0-1.21-.92,3.75,3.75,0,0,0-1.58-.35,3.36,3.36,0,0,0-2.34.88A4,4,0,0,0,233,566Z"/><g class="cls-8"><rect class="cls-1" width="300" height="600"/></g></g></g></svg>