<svg xmlns="http://www.w3.org/2000/svg" xmlns:xlink="http://www.w3.org/1999/xlink" viewBox="0 0 300 600.16"><defs><style>.cls-1,.cls-10,.cls-11,.cls-12,.cls-13,.cls-14,.cls-15,.cls-16,.cls-17,.cls-18,.cls-19,.cls-2,.cls-20,.cls-21,.cls-22,.cls-23,.cls-24,.cls-25,.cls-26,.cls-27,.cls-28,.cls-29,.cls-3,.cls-30,.cls-31,.cls-32,.cls-4,.cls-5,.cls-6,.cls-7,.cls-8,.cls-9{fill:#fff;}.cls-2{clip-path:url(#clip-path);}.cls-3{clip-path:url(#clip-path-2);}.cls-4{clip-path:url(#clip-path-31);}.cls-5{clip-path:url(#clip-path-3);}.cls-6{clip-path:url(#clip-path-4);}.cls-7{clip-path:url(#clip-path-5);}.cls-8{clip-path:url(#clip-path-6);}.cls-9{clip-path:url(#clip-path-7);}.cls-10{clip-path:url(#clip-path-8);}.cls-11{clip-path:url(#clip-path-9);}.cls-12{clip-path:url(#clip-path-10);}.cls-13{clip-path:url(#clip-path-11);}.cls-14{clip-path:url(#clip-path-12);}.cls-15{clip-path:url(#clip-path-13);}.cls-16{clip-path:url(#clip-path-14);}.cls-17{clip-path:url(#clip-path-15);}.cls-18{clip-path:url(#clip-path-16);}.cls-19{clip-path:url(#clip-path-17);}.cls-20{clip-path:url(#clip-path-18);}.cls-21{clip-path:url(#clip-path-19);}.cls-22{clip-path:url(#clip-path-20);}.cls-23{clip-path:url(#clip-path-21);}.cls-24{clip-path:url(#clip-path-22);}.cls-25{clip-path:url(#clip-path-23);}.cls-26{clip-path:url(#clip-path-24);}.cls-27{clip-path:url(#clip-path-25);}.cls-28{clip-path:url(#clip-path-26);}.cls-29{clip-path:url(#clip-path-27);}.cls-30{clip-path:url(#clip-path-28);}.cls-31{clip-path:url(#clip-path-29);}.cls-32{clip-path:url(#clip-path-30);}.cls-33{clip-path:url(#clip-path-32);}</style><clipPath id="clip-path"><path class="cls-1" d="M12.05,570.54v-1.12h6.3v1.12H15.79v10.37H14.62V570.54Z"/></clipPath><clipPath id="clip-path-2"><path class="cls-4" d="M108.93,571.55l-.91.7a4.93,4.93,0,0,0-1.8-1.49,5.35,5.35,0,0,0-2.31-.5,5.09,5.09,0,0,0-2.54.66,4.77,4.77,0,0,0-1.82,1.77,4.93,4.93,0,0,0-.64,2.51,4.71,4.71,0,0,0,1.44,3.51,5,5,0,0,0,3.63,1.4,5.11,5.11,0,0,0,4-1.89l.91.69a5.81,5.81,0,0,1-2.14,1.69,6.75,6.75,0,0,1-2.88.6,6,6,0,0,1-4.75-2,6,6,0,0,1-1.46-4.09,5.72,5.72,0,0,1,1.76-4.25,6.1,6.1,0,0,1,4.44-1.72,6.53,6.53,0,0,1,2.9.63A5.62,5.62,0,0,1,108.93,571.55Z"/></clipPath><clipPath id="clip-path-3"><path class="cls-3" d="M115.08,572.19a4.19,4.19,0,0,1,3.25,1.42,4.41,4.41,0,0,1,1.18,3.07,4.47,4.47,0,0,1-1.24,3.12,4.5,4.5,0,0,1-6.39,0,4.57,4.57,0,0,1-.07-6.18A4.24,4.24,0,0,1,115.08,572.19Zm0,1.07a3.17,3.17,0,0,0-2.34,1,3.37,3.37,0,0,0-1,2.44,3.48,3.48,0,0,0,.45,1.72,3.16,3.16,0,0,0,1.2,1.23,3.43,3.43,0,0,0,1.67.43,3.38,3.38,0,0,0,1.67-.43,3.18,3.18,0,0,0,1.21-1.23,3.48,3.48,0,0,0,.45-1.72,3.34,3.34,0,0,0-1-2.44A3.15,3.15,0,0,0,115.07,573.26Z"/></clipPath><clipPath id="clip-path-4"><path class="cls-5" d="M130,572.41v8.5h-1.08v-1.46a4.66,4.66,0,0,1-1.54,1.26,4.2,4.2,0,0,1-1.87.42,4.14,4.14,0,0,1-3.08-1.31,4.34,4.34,0,0,1-1.28-3.18,4.3,4.3,0,0,1,1.29-3.14,4.2,4.2,0,0,1,3.1-1.31,3.94,3.94,0,0,1,1.89.45,4.25,4.25,0,0,1,1.49,1.33v-1.56Zm-4.37.84a3.31,3.31,0,0,0-1.69.44,3.38,3.38,0,0,0-1.23,1.26,3.53,3.53,0,0,0-.45,1.72,3.44,3.44,0,0,0,.46,1.72,3.29,3.29,0,0,0,1.24,1.27,3.15,3.15,0,0,0,1.66.46,3.41,3.41,0,0,0,1.7-.45,3.12,3.12,0,0,0,1.24-1.23,3.45,3.45,0,0,0,.43-1.74,3.36,3.36,0,0,0-1-2.46A3.21,3.21,0,0,0,125.63,573.25Z"/></clipPath><clipPath id="clip-path-5"><path class="cls-6" d="M136.73,573.34l-.7.73a2.53,2.53,0,0,0-1.71-.86,1.3,1.3,0,0,0-.92.36,1.08,1.08,0,0,0-.38.82,1.23,1.23,0,0,0,.32.79,4.39,4.39,0,0,0,1.31.89,4.94,4.94,0,0,1,1.66,1.22,2.21,2.21,0,0,1,.43,1.34,2.38,2.38,0,0,1-.73,1.77,2.5,2.5,0,0,1-1.84.73,3.3,3.3,0,0,1-1.41-.32,3.18,3.18,0,0,1-1.1-.88l.68-.79a2.42,2.42,0,0,0,1.78,1,1.61,1.61,0,0,0,1.12-.42,1.29,1.29,0,0,0,.46-1,1.27,1.27,0,0,0-.3-.84,5.23,5.23,0,0,0-1.38-.91,4.32,4.32,0,0,1-1.57-1.17,2.22,2.22,0,0,1-.41-1.32,2.16,2.16,0,0,1,.66-1.61,2.29,2.29,0,0,1,1.67-.64A3.44,3.44,0,0,1,136.73,573.34Z"/></clipPath><clipPath id="clip-path-6"><path class="cls-7" d="M139.62,569.25h1.1v3.16h1.73v.94h-1.73v7.56h-1.1v-7.56h-1.49v-.94h1.49Z"/></clipPath><clipPath id="clip-path-7"><path class="cls-8" d="M145.59,573.42l-.61-.35a6,6,0,0,0,.4-.93,4.08,4.08,0,0,0,.15-.86h-.69v-2.15h1.42v1.34a7.17,7.17,0,0,1-.14,1.58A6.61,6.61,0,0,1,145.59,573.42Z"/></clipPath><clipPath id="clip-path-8"><path class="cls-9" d="M154,573.34l-.7.73a2.53,2.53,0,0,0-1.71-.86,1.3,1.3,0,0,0-.92.36,1.08,1.08,0,0,0-.38.82,1.23,1.23,0,0,0,.32.79,4.39,4.39,0,0,0,1.31.89,4.94,4.94,0,0,1,1.66,1.22,2.21,2.21,0,0,1,.43,1.34,2.38,2.38,0,0,1-.73,1.77,2.5,2.5,0,0,1-1.84.73,3.3,3.3,0,0,1-1.41-.32,3.18,3.18,0,0,1-1.1-.88l.68-.79a2.42,2.42,0,0,0,1.78,1,1.61,1.61,0,0,0,1.12-.42,1.29,1.29,0,0,0,.46-1,1.27,1.27,0,0,0-.3-.84,5.23,5.23,0,0,0-1.38-.91,4.32,4.32,0,0,1-1.57-1.17,2.22,2.22,0,0,1-.41-1.32,2.16,2.16,0,0,1,.66-1.61,2.29,2.29,0,0,1,1.67-.64A3.44,3.44,0,0,1,154,573.34Z"/></clipPath><clipPath id="clip-path-9"><path class="cls-10" d="M160.34,572.41h1.1v1.47a4.28,4.28,0,0,1,1.17-1.19,3.37,3.37,0,0,1,1.75-.5,2.92,2.92,0,0,1,1.17.24,2.55,2.55,0,0,1,.91.65,3.51,3.51,0,0,1,.6,1.15,4.07,4.07,0,0,1,1.37-1.52,3.2,3.2,0,0,1,1.76-.52,2.75,2.75,0,0,1,1.56.45,2.63,2.63,0,0,1,1,1.24,6.62,6.62,0,0,1,.32,2.39v4.64h-1.11v-4.64a6,6,0,0,0-.2-1.88,1.66,1.66,0,0,0-.66-.82,2,2,0,0,0-1.13-.32,2.46,2.46,0,0,0-1.45.47,2.66,2.66,0,0,0-1,1.25,8,8,0,0,0-.31,2.61v3.33h-1.09v-4.35a7.39,7.39,0,0,0-.19-2.09,1.73,1.73,0,0,0-.67-.88,1.87,1.87,0,0,0-1.13-.34,2.48,2.48,0,0,0-1.42.46,2.71,2.71,0,0,0-1,1.23,6.72,6.72,0,0,0-.31,2.37v3.6h-1.1Z"/></clipPath><clipPath id="clip-path-10"><path class="cls-11" d="M179.38,572.19a4.21,4.21,0,0,1,3.26,1.42,4.58,4.58,0,0,1-.07,6.19,4.49,4.49,0,0,1-6.38,0,4.57,4.57,0,0,1-.07-6.18A4.22,4.22,0,0,1,179.38,572.19Zm0,1.07a3.15,3.15,0,0,0-2.34,1,3.34,3.34,0,0,0-1,2.44,3.48,3.48,0,0,0,.45,1.72,3.18,3.18,0,0,0,1.21,1.23,3.46,3.46,0,0,0,3.34,0,3.18,3.18,0,0,0,1.21-1.23,3.58,3.58,0,0,0,.44-1.72,3.33,3.33,0,0,0-1-2.44A3.18,3.18,0,0,0,179.38,573.26Z"/></clipPath><clipPath id="clip-path-11"><path class="cls-12" d="M190.11,573.34l-.7.73a2.55,2.55,0,0,0-1.72-.86,1.28,1.28,0,0,0-.91.36,1.08,1.08,0,0,0-.38.82,1.22,1.22,0,0,0,.31.79,4.47,4.47,0,0,0,1.32.89,5.17,5.17,0,0,1,1.66,1.22,2.28,2.28,0,0,1,.43,1.34,2.39,2.39,0,0,1-.74,1.77,2.49,2.49,0,0,1-1.84.73,3.23,3.23,0,0,1-1.4-.32,3.12,3.12,0,0,1-1.11-.88l.69-.79a2.4,2.4,0,0,0,1.78,1,1.62,1.62,0,0,0,1.12-.42,1.32,1.32,0,0,0,.46-1,1.23,1.23,0,0,0-.31-.84,4.89,4.89,0,0,0-1.38-.91,4.36,4.36,0,0,1-1.56-1.17,2.17,2.17,0,0,1-.42-1.32,2.14,2.14,0,0,1,.67-1.61,2.28,2.28,0,0,1,1.67-.64A3.44,3.44,0,0,1,190.11,573.34Z"/></clipPath><clipPath id="clip-path-12"><path class="cls-2" d="M19.83,569.13h1.09v4.8a4.69,4.69,0,0,1,1.46-1.31,3.66,3.66,0,0,1,1.73-.43,3,3,0,0,1,1.69.49,2.83,2.83,0,0,1,1.09,1.3,6.93,6.93,0,0,1,.35,2.55v4.38H26.15v-4.06a10.2,10.2,0,0,0-.12-2,2.21,2.21,0,0,0-.74-1.27,2.18,2.18,0,0,0-1.4-.42,2.75,2.75,0,0,0-1.78.65,3.05,3.05,0,0,0-1,1.63,10.77,10.77,0,0,0-.16,2.31v3.12H19.83Z"/></clipPath><clipPath id="clip-path-13"><path class="cls-13" d="M193,569.25h1.09v3.16h1.74v.94h-1.74v7.56H193v-7.56h-1.49v-.94H193Z"/></clipPath><clipPath id="clip-path-14"><path class="cls-15" d="M210.38,569.13v11.78H209.3v-1.46a4.56,4.56,0,0,1-1.54,1.26,4.31,4.31,0,0,1-4.95-.89,4.38,4.38,0,0,1-1.28-3.18,4.3,4.3,0,0,1,1.29-3.14,4.2,4.2,0,0,1,3.1-1.31,4,4,0,0,1,1.9.45A4.22,4.22,0,0,1,209.3,574v-4.84ZM206,573.25a3.27,3.27,0,0,0-2.91,1.7,3.45,3.45,0,0,0,0,3.44,3.36,3.36,0,0,0,1.24,1.27,3.18,3.18,0,0,0,1.66.46,3.47,3.47,0,0,0,1.71-.45,3.16,3.16,0,0,0,1.23-1.23,3.46,3.46,0,0,0,.44-1.74,3.37,3.37,0,0,0-1-2.46A3.2,3.2,0,0,0,206,573.25Z"/></clipPath><clipPath id="clip-path-15"><path class="cls-16" d="M220,578.09l.92.48a5,5,0,0,1-1.05,1.44,4.06,4.06,0,0,1-1.34.83,4.62,4.62,0,0,1-1.68.29,4.05,4.05,0,0,1-3.25-1.37,4.66,4.66,0,0,1-.18-6,4.07,4.07,0,0,1,3.37-1.61,4.18,4.18,0,0,1,3.47,1.65,4.57,4.57,0,0,1,.94,2.91h-7.65a3.45,3.45,0,0,0,1,2.42,3,3,0,0,0,2.26,1,3.43,3.43,0,0,0,1.26-.23,3.37,3.37,0,0,0,1-.59A5.35,5.35,0,0,0,220,578.09Zm0-2.29a3.71,3.71,0,0,0-.64-1.4,3,3,0,0,0-1.11-.84,3.3,3.3,0,0,0-1.45-.32,3.15,3.15,0,0,0-2.15.8,3.6,3.6,0,0,0-1,1.76Z"/></clipPath><clipPath id="clip-path-16"><path class="cls-17" d="M227.53,573.34l-.7.73a2.55,2.55,0,0,0-1.72-.86,1.28,1.28,0,0,0-.91.36,1.08,1.08,0,0,0-.38.82,1.22,1.22,0,0,0,.31.79,4.47,4.47,0,0,0,1.32.89,5.05,5.05,0,0,1,1.66,1.22,2.21,2.21,0,0,1,.43,1.34,2.39,2.39,0,0,1-.74,1.77,2.49,2.49,0,0,1-1.84.73,3.26,3.26,0,0,1-1.4-.32,3.21,3.21,0,0,1-1.11-.88l.69-.79a2.4,2.4,0,0,0,1.78,1,1.61,1.61,0,0,0,1.12-.42,1.29,1.29,0,0,0,.46-1,1.27,1.27,0,0,0-.3-.84,5.23,5.23,0,0,0-1.38-.91,4.32,4.32,0,0,1-1.57-1.17,2.31,2.31,0,0,1,.25-2.93,2.29,2.29,0,0,1,1.67-.64A3.44,3.44,0,0,1,227.53,573.34Z"/></clipPath><clipPath id="clip-path-17"><path class="cls-18" d="M229.85,568.91a.87.87,0,0,1,.64.27.88.88,0,0,1,.26.64.89.89,0,0,1-.26.63.86.86,0,0,1-.64.26.82.82,0,0,1-.63-.26.86.86,0,0,1-.27-.63.85.85,0,0,1,.27-.64A.83.83,0,0,1,229.85,568.91Zm-.55,3.5h1.1v8.5h-1.1Z"/></clipPath><clipPath id="clip-path-18"><path class="cls-19" d="M232.26,572.41h1.12v1.24a4,4,0,0,1,1.05-1.1,2.08,2.08,0,0,1,1.16-.36,2,2,0,0,1,1,.29l-.57.92a1.51,1.51,0,0,0-.57-.15,1.58,1.58,0,0,0-1.06.45,2.8,2.8,0,0,0-.77,1.4,13.06,13.06,0,0,0-.2,2.93v2.88h-1.12Z"/></clipPath><clipPath id="clip-path-19"><path class="cls-20" d="M246,572.41v8.5h-1.07v-1.46a4.69,4.69,0,0,1-1.55,1.26,4.31,4.31,0,0,1-5-.89,4.38,4.38,0,0,1-1.28-3.18,4.3,4.3,0,0,1,1.29-3.14,4.2,4.2,0,0,1,3.1-1.31,4,4,0,0,1,1.9.45,4.34,4.34,0,0,1,1.49,1.33v-1.56Zm-4.37.84a3.27,3.27,0,0,0-2.91,1.7,3.45,3.45,0,0,0,0,3.44,3.36,3.36,0,0,0,1.24,1.27,3.18,3.18,0,0,0,1.66.46,3.47,3.47,0,0,0,1.71-.45,3.16,3.16,0,0,0,1.23-1.23,3.46,3.46,0,0,0,.44-1.74,3.37,3.37,0,0,0-1-2.46A3.2,3.2,0,0,0,241.58,573.25Z"/></clipPath><clipPath id="clip-path-20"><path class="cls-21" d="M248.48,580.91V569.13h1.1v4.74a4.66,4.66,0,0,1,1.54-1.26,4.1,4.1,0,0,1,1.86-.42,4.16,4.16,0,0,1,3.08,1.31,4.38,4.38,0,0,1,1.28,3.18,4.31,4.31,0,0,1-1.29,3.14,4.2,4.2,0,0,1-3.1,1.31,3.93,3.93,0,0,1-1.88-.45,4.34,4.34,0,0,1-1.49-1.33v1.56Zm4.38-.84a3.31,3.31,0,0,0,2.91-1.71,3.45,3.45,0,0,0,0-3.44,3.32,3.32,0,0,0-1.24-1.28,3.26,3.26,0,0,0-1.65-.46,3.48,3.48,0,0,0-1.71.46,3.12,3.12,0,0,0-1.24,1.23,3.51,3.51,0,0,0-.43,1.74,3.37,3.37,0,0,0,1,2.47A3.21,3.21,0,0,0,252.86,580.07Z"/></clipPath><clipPath id="clip-path-21"><path class="cls-22" d="M259.16,569.13h1.1v11.78h-1.1Z"/></clipPath><clipPath id="clip-path-22"><path class="cls-23" d="M269.69,578.09l.92.48a4.79,4.79,0,0,1-1.05,1.44,4,4,0,0,1-1.34.83,4.62,4.62,0,0,1-1.68.29,4.06,4.06,0,0,1-3.25-1.37,4.66,4.66,0,0,1-.18-6,4.07,4.07,0,0,1,3.37-1.61,4.18,4.18,0,0,1,3.47,1.65,4.57,4.57,0,0,1,.94,2.91h-7.65a3.45,3.45,0,0,0,.95,2.42,3,3,0,0,0,2.26,1,3.43,3.43,0,0,0,1.26-.23,3.54,3.54,0,0,0,1.05-.59A5.66,5.66,0,0,0,269.69,578.09Zm0-2.29a3.71,3.71,0,0,0-.64-1.4,3,3,0,0,0-1.11-.84,3.29,3.29,0,0,0-1.44-.32,3.16,3.16,0,0,0-2.16.8,3.76,3.76,0,0,0-1,1.76Z"/></clipPath><clipPath id="clip-path-23"><path class="cls-14" d="M36.74,578.09l.92.48a5,5,0,0,1-1,1.44,4.17,4.17,0,0,1-1.34.83,4.7,4.7,0,0,1-1.68.29,4.08,4.08,0,0,1-3.26-1.37,4.58,4.58,0,0,1-1.17-3.08,4.49,4.49,0,0,1,1-2.88,4.05,4.05,0,0,1,3.37-1.61A4.21,4.21,0,0,1,37,573.84a4.69,4.69,0,0,1,.94,2.91H30.3a3.44,3.44,0,0,0,.94,2.42,3,3,0,0,0,2.26,1,3.44,3.44,0,0,0,1.27-.23,3.49,3.49,0,0,0,1-.59A5.08,5.08,0,0,0,36.74,578.09Zm0-2.29a3.57,3.57,0,0,0-.64-1.4,2.86,2.86,0,0,0-1.1-.84,3.3,3.3,0,0,0-1.45-.32,3.15,3.15,0,0,0-2.15.8,3.6,3.6,0,0,0-1,1.76Z"/></clipPath><clipPath id="clip-path-24"><path class="cls-24" d="M274.13,579.19a.91.91,0,0,1,.68.28.94.94,0,0,1,.28.69.91.91,0,0,1-.28.68.92.92,0,0,1-.68.29.94.94,0,0,1-.68-.29,1,1,0,0,1-.28-.68,1,1,0,0,1,.28-.69A.93.93,0,0,1,274.13,579.19Z"/></clipPath><clipPath id="clip-path-25"><path class="cls-26" d="M278.56,579.19a.91.91,0,0,1,.68.28.94.94,0,0,1,.28.69.91.91,0,0,1-.28.68.92.92,0,0,1-.68.29.94.94,0,0,1-.68-.29,1,1,0,0,1-.28-.68,1,1,0,0,1,.28-.69A.93.93,0,0,1,278.56,579.19Z"/></clipPath><clipPath id="clip-path-26"><path class="cls-25" d="M49.29,569.42l5.36,11.49H53.41l-1.81-3.78h-5l-1.79,3.78H43.58L49,569.42Zm-.15,2.44-2,4.16H51.1Z"/></clipPath><clipPath id="clip-path-27"><path class="cls-28" d="M56.24,572.41h1.1v1.47a4.28,4.28,0,0,1,1.17-1.19,3.34,3.34,0,0,1,1.74-.5,2.93,2.93,0,0,1,1.18.24,2.43,2.43,0,0,1,.9.65,3.33,3.33,0,0,1,.61,1.15,4.07,4.07,0,0,1,1.37-1.52,3.18,3.18,0,0,1,1.76-.52,2.71,2.71,0,0,1,1.55.45,2.65,2.65,0,0,1,1,1.24,6.85,6.85,0,0,1,.32,2.39v4.64H67.84v-4.64a6,6,0,0,0-.2-1.88,1.66,1.66,0,0,0-.66-.82,2,2,0,0,0-1.13-.32,2.46,2.46,0,0,0-1.45.47,2.66,2.66,0,0,0-1,1.25,7.68,7.68,0,0,0-.31,2.61v3.33H62v-4.35a7.39,7.39,0,0,0-.19-2.09,1.73,1.73,0,0,0-.67-.88,1.89,1.89,0,0,0-1.13-.34,2.48,2.48,0,0,0-1.42.46,2.71,2.71,0,0,0-1,1.23,6.72,6.72,0,0,0-.31,2.37v3.6h-1.1Z"/></clipPath><clipPath id="clip-path-28"><path class="cls-29" d="M79.73,572.41v8.5H78.65v-1.46a4.66,4.66,0,0,1-1.54,1.26,4.22,4.22,0,0,1-1.88.42,4.16,4.16,0,0,1-3.08-1.31,4.38,4.38,0,0,1-1.27-3.18,4.29,4.29,0,0,1,1.28-3.14,4.22,4.22,0,0,1,3.11-1.31,4,4,0,0,1,1.89.45A4.25,4.25,0,0,1,78.65,574v-1.56Zm-4.37.84a3.27,3.27,0,0,0-2.92,1.7,3.45,3.45,0,0,0,0,3.44,3.36,3.36,0,0,0,1.24,1.27,3.18,3.18,0,0,0,1.67.46,3.43,3.43,0,0,0,1.7-.45,3.19,3.19,0,0,0,1.24-1.23,3.56,3.56,0,0,0,.43-1.74,3.36,3.36,0,0,0-1-2.46A3.23,3.23,0,0,0,75.36,573.25Z"/></clipPath><clipPath id="clip-path-29"><path class="cls-30" d="M82,569.13h1.1v11.78H82Z"/></clipPath><clipPath id="clip-path-30"><path class="cls-31" d="M88.89,569.13v1.07a2.72,2.72,0,0,0-1-.26,1,1,0,0,0-.53.13.59.59,0,0,0-.27.3,4.73,4.73,0,0,0,0,.89v1.15h1.77v.94H87v7.56H85.91v-7.56H84.79v-.94h1.12v-1.33a3.66,3.66,0,0,1,.16-1.3,1.44,1.44,0,0,1,.57-.63,1.9,1.9,0,0,1,1-.24A4.45,4.45,0,0,1,88.89,569.13Z"/></clipPath><clipPath id="clip-path-31"><path class="cls-32" d="M90.79,568.91a.87.87,0,0,1,.64.27.85.85,0,0,1,.27.64.9.9,0,0,1-.91.89.85.85,0,0,1-.63-.26.89.89,0,0,1-.26-.63.88.88,0,0,1,.26-.64A.86.86,0,0,1,90.79,568.91Zm-.54,3.5h1.09v8.5H90.25Z"/></clipPath><clipPath id="clip-path-32"><path class="cls-27" d="M283,579.19a.91.91,0,0,1,.68.28.94.94,0,0,1,.28.69.91.91,0,0,1-.28.68.92.92,0,0,1-.68.29.94.94,0,0,1-.68-.29.91.91,0,0,1-.28-.68,1,1,0,0,1,1-1Z"/></clipPath></defs><title>text1</title><g id="Layer_2" data-name="Layer 2"><g id="Layer_1-2" data-name="Layer 1"><path class="cls-1" d="M12.05,570.54v-1.12h6.3v1.12H15.79v10.37H14.62V570.54Z"/><path class="cls-1" d="M19.83,569.13h1.09v4.8a4.69,4.69,0,0,1,1.46-1.31,3.66,3.66,0,0,1,1.73-.43,3,3,0,0,1,1.69.49,2.83,2.83,0,0,1,1.09,1.3,6.93,6.93,0,0,1,.35,2.55v4.38H26.15v-4.06a10.2,10.2,0,0,0-.12-2,2.21,2.21,0,0,0-.74-1.27,2.18,2.18,0,0,0-1.4-.42,2.75,2.75,0,0,0-1.78.65,3.05,3.05,0,0,0-1,1.63,10.77,10.77,0,0,0-.16,2.31v3.12H19.83Z"/><path class="cls-1" d="M36.74,578.09l.92.48a5,5,0,0,1-1,1.44,4.17,4.17,0,0,1-1.34.83,4.7,4.7,0,0,1-1.68.29,4.08,4.08,0,0,1-3.26-1.37,4.58,4.58,0,0,1-1.17-3.08,4.49,4.49,0,0,1,1-2.88,4.05,4.05,0,0,1,3.37-1.61A4.21,4.21,0,0,1,37,573.84a4.69,4.69,0,0,1,.94,2.91H30.3a3.44,3.44,0,0,0,.94,2.42,3,3,0,0,0,2.26,1,3.44,3.44,0,0,0,1.27-.23,3.49,3.49,0,0,0,1-.59A5.08,5.08,0,0,0,36.74,578.09Zm0-2.29a3.57,3.57,0,0,0-.64-1.4,2.86,2.86,0,0,0-1.1-.84,3.3,3.3,0,0,0-1.45-.32,3.15,3.15,0,0,0-2.15.8,3.6,3.6,0,0,0-1,1.76Z"/><path class="cls-1" d="M49.29,569.42l5.36,11.49H53.41l-1.81-3.78h-5l-1.79,3.78H43.58L49,569.42Zm-.15,2.44-2,4.16H51.1Z"/><path class="cls-1" d="M56.24,572.41h1.1v1.47a4.28,4.28,0,0,1,1.17-1.19,3.34,3.34,0,0,1,1.74-.5,2.93,2.93,0,0,1,1.18.24,2.43,2.43,0,0,1,.9.65,3.33,3.33,0,0,1,.61,1.15,4.07,4.07,0,0,1,1.37-1.52,3.18,3.18,0,0,1,1.76-.52,2.71,2.71,0,0,1,1.55.45,2.65,2.65,0,0,1,1,1.24,6.85,6.85,0,0,1,.32,2.39v4.64H67.84v-4.64a6,6,0,0,0-.2-1.88,1.66,1.66,0,0,0-.66-.82,2,2,0,0,0-1.13-.32,2.46,2.46,0,0,0-1.45.47,2.66,2.66,0,0,0-1,1.25,7.68,7.68,0,0,0-.31,2.61v3.33H62v-4.35a7.39,7.39,0,0,0-.19-2.09,1.73,1.73,0,0,0-.67-.88,1.89,1.89,0,0,0-1.13-.34,2.48,2.48,0,0,0-1.42.46,2.71,2.71,0,0,0-1,1.23,6.72,6.72,0,0,0-.31,2.37v3.6h-1.1Z"/><path class="cls-1" d="M79.73,572.41v8.5H78.65v-1.46a4.66,4.66,0,0,1-1.54,1.26,4.22,4.22,0,0,1-1.88.42,4.16,4.16,0,0,1-3.08-1.31,4.38,4.38,0,0,1-1.27-3.18,4.29,4.29,0,0,1,1.28-3.14,4.22,4.22,0,0,1,3.11-1.31,4,4,0,0,1,1.89.45A4.25,4.25,0,0,1,78.65,574v-1.56Zm-4.37.84a3.27,3.27,0,0,0-2.92,1.7,3.45,3.45,0,0,0,0,3.44,3.36,3.36,0,0,0,1.24,1.27,3.18,3.18,0,0,0,1.67.46,3.43,3.43,0,0,0,1.7-.45,3.19,3.19,0,0,0,1.24-1.23,3.56,3.56,0,0,0,.43-1.74,3.36,3.36,0,0,0-1-2.46A3.23,3.23,0,0,0,75.36,573.25Z"/><path class="cls-1" d="M82,569.13h1.1v11.78H82Z"/><path class="cls-1" d="M88.89,569.13v1.07a2.72,2.72,0,0,0-1-.26,1,1,0,0,0-.53.13.59.59,0,0,0-.27.3,4.73,4.73,0,0,0,0,.89v1.15h1.77v.94H87v7.56H85.91v-7.56H84.79v-.94h1.12v-1.33a3.66,3.66,0,0,1,.16-1.3,1.44,1.44,0,0,1,.57-.63,1.9,1.9,0,0,1,1-.24A4.45,4.45,0,0,1,88.89,569.13Z"/><path class="cls-1" d="M90.79,568.91a.87.87,0,0,1,.64.27.85.85,0,0,1,.27.64.9.9,0,0,1-.91.89.85.85,0,0,1-.63-.26.89.89,0,0,1-.26-.63.88.88,0,0,1,.26-.64A.86.86,0,0,1,90.79,568.91Zm-.54,3.5h1.09v8.5H90.25Z"/><path class="cls-1" d="M108.93,571.55l-.91.7a4.93,4.93,0,0,0-1.8-1.49,5.35,5.35,0,0,0-2.31-.5,5.09,5.09,0,0,0-2.54.66,4.77,4.77,0,0,0-1.82,1.77,4.93,4.93,0,0,0-.64,2.51,4.71,4.71,0,0,0,1.44,3.51,5,5,0,0,0,3.63,1.4,5.11,5.11,0,0,0,4-1.89l.91.69a5.81,5.81,0,0,1-2.14,1.69,6.75,6.75,0,0,1-2.88.6,6,6,0,0,1-4.75-2,6,6,0,0,1-1.46-4.09,5.72,5.72,0,0,1,1.76-4.25,6.1,6.1,0,0,1,4.44-1.72,6.53,6.53,0,0,1,2.9.63A5.62,5.62,0,0,1,108.93,571.55Z"/><path class="cls-1" d="M115.08,572.19a4.19,4.19,0,0,1,3.25,1.42,4.41,4.41,0,0,1,1.18,3.07,4.47,4.47,0,0,1-1.24,3.12,4.5,4.5,0,0,1-6.39,0,4.57,4.57,0,0,1-.07-6.18A4.24,4.24,0,0,1,115.08,572.19Zm0,1.07a3.17,3.17,0,0,0-2.34,1,3.37,3.37,0,0,0-1,2.44,3.48,3.48,0,0,0,.45,1.72,3.16,3.16,0,0,0,1.2,1.23,3.43,3.43,0,0,0,1.67.43,3.38,3.38,0,0,0,1.67-.43,3.18,3.18,0,0,0,1.21-1.23,3.48,3.48,0,0,0,.45-1.72,3.34,3.34,0,0,0-1-2.44A3.15,3.15,0,0,0,115.07,573.26Z"/><path class="cls-1" d="M130,572.41v8.5h-1.08v-1.46a4.66,4.66,0,0,1-1.54,1.26,4.2,4.2,0,0,1-1.87.42,4.14,4.14,0,0,1-3.08-1.31,4.34,4.34,0,0,1-1.28-3.18,4.3,4.3,0,0,1,1.29-3.14,4.2,4.2,0,0,1,3.1-1.31,3.94,3.94,0,0,1,1.89.45,4.25,4.25,0,0,1,1.49,1.33v-1.56Zm-4.37.84a3.31,3.31,0,0,0-1.69.44,3.38,3.38,0,0,0-1.23,1.26,3.53,3.53,0,0,0-.45,1.72,3.44,3.44,0,0,0,.46,1.72,3.29,3.29,0,0,0,1.24,1.27,3.15,3.15,0,0,0,1.66.46,3.41,3.41,0,0,0,1.7-.45,3.12,3.12,0,0,0,1.24-1.23,3.45,3.45,0,0,0,.43-1.74,3.36,3.36,0,0,0-1-2.46A3.21,3.21,0,0,0,125.63,573.25Z"/><path class="cls-1" d="M136.73,573.34l-.7.73a2.53,2.53,0,0,0-1.71-.86,1.3,1.3,0,0,0-.92.36,1.08,1.08,0,0,0-.38.82,1.23,1.23,0,0,0,.32.79,4.39,4.39,0,0,0,1.31.89,4.94,4.94,0,0,1,1.66,1.22,2.21,2.21,0,0,1,.43,1.34,2.38,2.38,0,0,1-.73,1.77,2.5,2.5,0,0,1-1.84.73,3.3,3.3,0,0,1-1.41-.32,3.18,3.18,0,0,1-1.1-.88l.68-.79a2.42,2.42,0,0,0,1.78,1,1.61,1.61,0,0,0,1.12-.42,1.29,1.29,0,0,0,.46-1,1.27,1.27,0,0,0-.3-.84,5.23,5.23,0,0,0-1.38-.91,4.32,4.32,0,0,1-1.57-1.17,2.22,2.22,0,0,1-.41-1.32,2.16,2.16,0,0,1,.66-1.61,2.29,2.29,0,0,1,1.67-.64A3.44,3.44,0,0,1,136.73,573.34Z"/><path class="cls-1" d="M139.62,569.25h1.1v3.16h1.73v.94h-1.73v7.56h-1.1v-7.56h-1.49v-.94h1.49Z"/><path class="cls-1" d="M145.59,573.42l-.61-.35a6,6,0,0,0,.4-.93,4.08,4.08,0,0,0,.15-.86h-.69v-2.15h1.42v1.34a7.17,7.17,0,0,1-.14,1.58A6.61,6.61,0,0,1,145.59,573.42Z"/><path class="cls-1" d="M154,573.34l-.7.73a2.53,2.53,0,0,0-1.71-.86,1.3,1.3,0,0,0-.92.36,1.08,1.08,0,0,0-.38.82,1.23,1.23,0,0,0,.32.79,4.39,4.39,0,0,0,1.31.89,4.94,4.94,0,0,1,1.66,1.22,2.21,2.21,0,0,1,.43,1.34,2.38,2.38,0,0,1-.73,1.77,2.5,2.5,0,0,1-1.84.73,3.3,3.3,0,0,1-1.41-.32,3.18,3.18,0,0,1-1.1-.88l.68-.79a2.42,2.42,0,0,0,1.78,1,1.61,1.61,0,0,0,1.12-.42,1.29,1.29,0,0,0,.46-1,1.27,1.27,0,0,0-.3-.84,5.23,5.23,0,0,0-1.38-.91,4.32,4.32,0,0,1-1.57-1.17,2.22,2.22,0,0,1-.41-1.32,2.16,2.16,0,0,1,.66-1.61,2.29,2.29,0,0,1,1.67-.64A3.44,3.44,0,0,1,154,573.34Z"/><path class="cls-1" d="M160.34,572.41h1.1v1.47a4.28,4.28,0,0,1,1.17-1.19,3.37,3.37,0,0,1,1.75-.5,2.92,2.92,0,0,1,1.17.24,2.55,2.55,0,0,1,.91.65,3.51,3.51,0,0,1,.6,1.15,4.07,4.07,0,0,1,1.37-1.52,3.2,3.2,0,0,1,1.76-.52,2.75,2.75,0,0,1,1.56.45,2.63,2.63,0,0,1,1,1.24,6.62,6.62,0,0,1,.32,2.39v4.64h-1.11v-4.64a6,6,0,0,0-.2-1.88,1.66,1.66,0,0,0-.66-.82,2,2,0,0,0-1.13-.32,2.46,2.46,0,0,0-1.45.47,2.66,2.66,0,0,0-1,1.25,8,8,0,0,0-.31,2.61v3.33h-1.09v-4.35a7.39,7.39,0,0,0-.19-2.09,1.73,1.73,0,0,0-.67-.88,1.87,1.87,0,0,0-1.13-.34,2.48,2.48,0,0,0-1.42.46,2.71,2.71,0,0,0-1,1.23,6.72,6.72,0,0,0-.31,2.37v3.6h-1.1Z"/><path class="cls-1" d="M179.38,572.19a4.21,4.21,0,0,1,3.26,1.42,4.58,4.58,0,0,1-.07,6.19,4.49,4.49,0,0,1-6.38,0,4.57,4.57,0,0,1-.07-6.18A4.22,4.22,0,0,1,179.38,572.19Zm0,1.07a3.15,3.15,0,0,0-2.34,1,3.34,3.34,0,0,0-1,2.44,3.48,3.48,0,0,0,.45,1.72,3.18,3.18,0,0,0,1.21,1.23,3.46,3.46,0,0,0,3.34,0,3.18,3.18,0,0,0,1.21-1.23,3.58,3.58,0,0,0,.44-1.72,3.33,3.33,0,0,0-1-2.44A3.18,3.18,0,0,0,179.38,573.26Z"/><path class="cls-1" d="M190.11,573.34l-.7.73a2.55,2.55,0,0,0-1.72-.86,1.28,1.28,0,0,0-.91.36,1.08,1.08,0,0,0-.38.82,1.22,1.22,0,0,0,.31.79,4.47,4.47,0,0,0,1.32.89,5.17,5.17,0,0,1,1.66,1.22,2.28,2.28,0,0,1,.43,1.34,2.39,2.39,0,0,1-.74,1.77,2.49,2.49,0,0,1-1.84.73,3.23,3.23,0,0,1-1.4-.32,3.12,3.12,0,0,1-1.11-.88l.69-.79a2.4,2.4,0,0,0,1.78,1,1.62,1.62,0,0,0,1.12-.42,1.32,1.32,0,0,0,.46-1,1.23,1.23,0,0,0-.31-.84,4.89,4.89,0,0,0-1.38-.91,4.36,4.36,0,0,1-1.56-1.17,2.17,2.17,0,0,1-.42-1.32,2.14,2.14,0,0,1,.67-1.61,2.28,2.28,0,0,1,1.67-.64A3.44,3.44,0,0,1,190.11,573.34Z"/><path class="cls-1" d="M193,569.25h1.09v3.16h1.74v.94h-1.74v7.56H193v-7.56h-1.49v-.94H193Z"/><path class="cls-1" d="M210.38,569.13v11.78H209.3v-1.46a4.56,4.56,0,0,1-1.54,1.26,4.31,4.31,0,0,1-4.95-.89,4.38,4.38,0,0,1-1.28-3.18,4.3,4.3,0,0,1,1.29-3.14,4.2,4.2,0,0,1,3.1-1.31,4,4,0,0,1,1.9.45A4.22,4.22,0,0,1,209.3,574v-4.84ZM206,573.25a3.27,3.27,0,0,0-2.91,1.7,3.45,3.45,0,0,0,0,3.44,3.36,3.36,0,0,0,1.24,1.27,3.18,3.18,0,0,0,1.66.46,3.47,3.47,0,0,0,1.71-.45,3.16,3.16,0,0,0,1.23-1.23,3.46,3.46,0,0,0,.44-1.74,3.37,3.37,0,0,0-1-2.46A3.2,3.2,0,0,0,206,573.25Z"/><path class="cls-1" d="M220,578.09l.92.48a5,5,0,0,1-1.05,1.44,4.06,4.06,0,0,1-1.34.83,4.62,4.62,0,0,1-1.68.29,4.05,4.05,0,0,1-3.25-1.37,4.66,4.66,0,0,1-.18-6,4.07,4.07,0,0,1,3.37-1.61,4.18,4.18,0,0,1,3.47,1.65,4.57,4.57,0,0,1,.94,2.91h-7.65a3.45,3.45,0,0,0,1,2.42,3,3,0,0,0,2.26,1,3.43,3.43,0,0,0,1.26-.23,3.37,3.37,0,0,0,1-.59A5.35,5.35,0,0,0,220,578.09Zm0-2.29a3.71,3.71,0,0,0-.64-1.4,3,3,0,0,0-1.11-.84,3.3,3.3,0,0,0-1.45-.32,3.15,3.15,0,0,0-2.15.8,3.6,3.6,0,0,0-1,1.76Z"/><path class="cls-1" d="M227.53,573.34l-.7.73a2.55,2.55,0,0,0-1.72-.86,1.28,1.28,0,0,0-.91.36,1.08,1.08,0,0,0-.38.82,1.22,1.22,0,0,0,.31.79,4.47,4.47,0,0,0,1.32.89,5.05,5.05,0,0,1,1.66,1.22,2.21,2.21,0,0,1,.43,1.34,2.39,2.39,0,0,1-.74,1.77,2.49,2.49,0,0,1-1.84.73,3.26,3.26,0,0,1-1.4-.32,3.21,3.21,0,0,1-1.11-.88l.69-.79a2.4,2.4,0,0,0,1.78,1,1.61,1.61,0,0,0,1.12-.42,1.29,1.29,0,0,0,.46-1,1.27,1.27,0,0,0-.3-.84,5.23,5.23,0,0,0-1.38-.91,4.32,4.32,0,0,1-1.57-1.17,2.31,2.31,0,0,1,.25-2.93,2.29,2.29,0,0,1,1.67-.64A3.44,3.44,0,0,1,227.53,573.34Z"/><path class="cls-1" d="M229.85,568.91a.87.87,0,0,1,.64.27.88.88,0,0,1,.26.64.89.89,0,0,1-.26.63.86.86,0,0,1-.64.26.82.82,0,0,1-.63-.26.86.86,0,0,1-.27-.63.85.85,0,0,1,.27-.64A.83.83,0,0,1,229.85,568.91Zm-.55,3.5h1.1v8.5h-1.1Z"/><path class="cls-1" d="M232.26,572.41h1.12v1.24a4,4,0,0,1,1.05-1.1,2.08,2.08,0,0,1,1.16-.36,2,2,0,0,1,1,.29l-.57.92a1.51,1.51,0,0,0-.57-.15,1.58,1.58,0,0,0-1.06.45,2.8,2.8,0,0,0-.77,1.4,13.06,13.06,0,0,0-.2,2.93v2.88h-1.12Z"/><path class="cls-1" d="M246,572.41v8.5h-1.07v-1.46a4.69,4.69,0,0,1-1.55,1.26,4.31,4.31,0,0,1-5-.89,4.38,4.38,0,0,1-1.28-3.18,4.3,4.3,0,0,1,1.29-3.14,4.2,4.2,0,0,1,3.1-1.31,4,4,0,0,1,1.9.45,4.34,4.34,0,0,1,1.49,1.33v-1.56Zm-4.37.84a3.27,3.27,0,0,0-2.91,1.7,3.45,3.45,0,0,0,0,3.44,3.36,3.36,0,0,0,1.24,1.27,3.18,3.18,0,0,0,1.66.46,3.47,3.47,0,0,0,1.71-.45,3.16,3.16,0,0,0,1.23-1.23,3.46,3.46,0,0,0,.44-1.74,3.37,3.37,0,0,0-1-2.46A3.2,3.2,0,0,0,241.58,573.25Z"/><path class="cls-1" d="M248.48,580.91V569.13h1.1v4.74a4.66,4.66,0,0,1,1.54-1.26,4.1,4.1,0,0,1,1.86-.42,4.16,4.16,0,0,1,3.08,1.31,4.38,4.38,0,0,1,1.28,3.18,4.31,4.31,0,0,1-1.29,3.14,4.2,4.2,0,0,1-3.1,1.31,3.93,3.93,0,0,1-1.88-.45,4.34,4.34,0,0,1-1.49-1.33v1.56Zm4.38-.84a3.31,3.31,0,0,0,2.91-1.71,3.45,3.45,0,0,0,0-3.44,3.32,3.32,0,0,0-1.24-1.28,3.26,3.26,0,0,0-1.65-.46,3.48,3.48,0,0,0-1.71.46,3.12,3.12,0,0,0-1.24,1.23,3.51,3.51,0,0,0-.43,1.74,3.37,3.37,0,0,0,1,2.47A3.21,3.21,0,0,0,252.86,580.07Z"/><path class="cls-1" d="M259.16,569.13h1.1v11.78h-1.1Z"/><path class="cls-1" d="M269.69,578.09l.92.48a4.79,4.79,0,0,1-1.05,1.44,4,4,0,0,1-1.34.83,4.62,4.62,0,0,1-1.68.29,4.06,4.06,0,0,1-3.25-1.37,4.66,4.66,0,0,1-.18-6,4.07,4.07,0,0,1,3.37-1.61,4.18,4.18,0,0,1,3.47,1.65,4.57,4.57,0,0,1,.94,2.91h-7.65a3.45,3.45,0,0,0,.95,2.42,3,3,0,0,0,2.26,1,3.43,3.43,0,0,0,1.26-.23,3.54,3.54,0,0,0,1.05-.59A5.66,5.66,0,0,0,269.69,578.09Zm0-2.29a3.71,3.71,0,0,0-.64-1.4,3,3,0,0,0-1.11-.84,3.29,3.29,0,0,0-1.44-.32,3.16,3.16,0,0,0-2.16.8,3.76,3.76,0,0,0-1,1.76Z"/><path class="cls-1" d="M274.13,579.19a.91.91,0,0,1,.68.28.94.94,0,0,1,.28.69.91.91,0,0,1-.28.68.92.92,0,0,1-.68.29.94.94,0,0,1-.68-.29,1,1,0,0,1-.28-.68,1,1,0,0,1,.28-.69A.93.93,0,0,1,274.13,579.19Z"/><path class="cls-1" d="M278.56,579.19a.91.91,0,0,1,.68.28.94.94,0,0,1,.28.69.91.91,0,0,1-.28.68.92.92,0,0,1-.68.29.94.94,0,0,1-.68-.29,1,1,0,0,1-.28-.68,1,1,0,0,1,.28-.69A.93.93,0,0,1,278.56,579.19Z"/><path class="cls-1" d="M283,579.19a.91.91,0,0,1,.68.28.94.94,0,0,1,.28.69.91.91,0,0,1-.28.68.92.92,0,0,1-.68.29.94.94,0,0,1-.68-.29.91.91,0,0,1-.28-.68,1,1,0,0,1,1-1Z"/><g class="cls-33"><rect class="cls-1" width="300" height="600.16"/></g></g></g></svg>