<svg xmlns="http://www.w3.org/2000/svg" xmlns:xlink="http://www.w3.org/1999/xlink" viewBox="0 0 300 599.73"><defs><style>.cls-1,.cls-10,.cls-11,.cls-12,.cls-13,.cls-14,.cls-15,.cls-16,.cls-2,.cls-3,.cls-4,.cls-5,.cls-6,.cls-7,.cls-8,.cls-9{fill:#fff;}.cls-2{clip-path:url(#clip-path);}.cls-3{clip-path:url(#clip-path-2);}.cls-4{clip-path:url(#clip-path-15);}.cls-5{clip-path:url(#clip-path-3);}.cls-6{clip-path:url(#clip-path-4);}.cls-7{clip-path:url(#clip-path-5);}.cls-8{clip-path:url(#clip-path-6);}.cls-9{clip-path:url(#clip-path-7);}.cls-10{clip-path:url(#clip-path-8);}.cls-11{clip-path:url(#clip-path-9);}.cls-12{clip-path:url(#clip-path-10);}.cls-13{clip-path:url(#clip-path-11);}.cls-14{clip-path:url(#clip-path-12);}.cls-15{clip-path:url(#clip-path-13);}.cls-16{clip-path:url(#clip-path-14);}.cls-17{clip-path:url(#clip-path-16);}</style><clipPath id="clip-path"><path class="cls-1" d="M148.28,572.34v8.5H147.2v-1.47a4.66,4.66,0,0,1-1.54,1.26,4.32,4.32,0,0,1-4.95-.88,4.42,4.42,0,0,1-1.28-3.19,4.31,4.31,0,0,1,1.29-3.14,4.19,4.19,0,0,1,3.1-1.3,4,4,0,0,1,1.9.44,4.25,4.25,0,0,1,1.48,1.34v-1.56Zm-4.37.83a3.31,3.31,0,0,0-2.91,1.71,3.43,3.43,0,0,0,0,3.43,3.32,3.32,0,0,0,1.24,1.28,3.24,3.24,0,0,0,1.66.46,3.32,3.32,0,0,0,1.7-.46,3.16,3.16,0,0,0,1.24-1.22,3.51,3.51,0,0,0,.43-1.74,3.37,3.37,0,0,0-1-2.47A3.21,3.21,0,0,0,143.91,573.17Z"/></clipPath><clipPath id="clip-path-2"><path class="cls-4" d="M236.84,569.05v11.79h-1.08v-1.47a4.66,4.66,0,0,1-1.54,1.26,4.25,4.25,0,0,1-1.88.42,4.15,4.15,0,0,1-3.08-1.3,4.42,4.42,0,0,1-1.28-3.19,4.31,4.31,0,0,1,1.29-3.14,4.21,4.21,0,0,1,3.11-1.3,4,4,0,0,1,1.89.44,4.37,4.37,0,0,1,1.49,1.34v-4.85Zm-4.37,4.12a3.32,3.32,0,0,0-1.69.45,3.24,3.24,0,0,0-1.23,1.26,3.49,3.49,0,0,0-.46,1.72,3.39,3.39,0,0,0,.47,1.71,3.23,3.23,0,0,0,1.23,1.28,3.28,3.28,0,0,0,1.67.46,3.34,3.34,0,0,0,1.7-.46,3.14,3.14,0,0,0,1.23-1.22,3.51,3.51,0,0,0,.44-1.74,3.41,3.41,0,0,0-1-2.47A3.23,3.23,0,0,0,232.47,573.17Z"/></clipPath><clipPath id="clip-path-3"><path class="cls-3" d="M247.8,569.05v11.79h-1.08v-1.47a4.66,4.66,0,0,1-1.54,1.26,4.2,4.2,0,0,1-1.87.42,4.16,4.16,0,0,1-3.09-1.3,4.41,4.41,0,0,1-1.27-3.19,4.34,4.34,0,0,1,1.28-3.14,4.21,4.21,0,0,1,3.11-1.3,4,4,0,0,1,1.89.44,4.28,4.28,0,0,1,1.49,1.34v-4.85Zm-4.37,4.12a3.32,3.32,0,0,0-1.69.45,3.38,3.38,0,0,0-1.23,1.26,3.48,3.48,0,0,0-.45,1.72,3.38,3.38,0,0,0,.46,1.71,3.23,3.23,0,0,0,1.23,1.28,3.28,3.28,0,0,0,1.67.46,3.34,3.34,0,0,0,1.7-.46,3.23,3.23,0,0,0,1.24-1.22,3.62,3.62,0,0,0,.43-1.74,3.37,3.37,0,0,0-1-2.47A3.23,3.23,0,0,0,243.43,573.17Z"/></clipPath><clipPath id="clip-path-4"><path class="cls-5" d="M249.86,572.34H251v1.24a3.84,3.84,0,0,1,1.05-1.1,2.11,2.11,0,0,1,1.16-.36,2,2,0,0,1,1,.29l-.57.92a1.55,1.55,0,0,0-.58-.15,1.58,1.58,0,0,0-1.06.45,2.84,2.84,0,0,0-.77,1.39A13.23,13.23,0,0,0,251,578v2.88h-1.12Z"/></clipPath><clipPath id="clip-path-5"><path class="cls-6" d="M262.18,578l.92.49a5.06,5.06,0,0,1-1.05,1.44,4.19,4.19,0,0,1-1.33.83,4.7,4.7,0,0,1-1.68.28,4.06,4.06,0,0,1-3.26-1.36,4.61,4.61,0,0,1-1.17-3.08,4.53,4.53,0,0,1,1-2.88,4,4,0,0,1,3.37-1.61,4.2,4.2,0,0,1,3.47,1.64,4.59,4.59,0,0,1,.94,2.91h-7.65a3.5,3.5,0,0,0,1,2.43,3,3,0,0,0,2.26.95,3.7,3.7,0,0,0,1.27-.23,3.42,3.42,0,0,0,1-.6A4.88,4.88,0,0,0,262.18,578Zm0-2.28a3.64,3.64,0,0,0-.64-1.4,3.15,3.15,0,0,0-1.1-.85,3.48,3.48,0,0,0-1.45-.32,3.09,3.09,0,0,0-2.15.81,3.64,3.64,0,0,0-1,1.76Z"/></clipPath><clipPath id="clip-path-6"><path class="cls-7" d="M269.7,573.26,269,574a2.49,2.49,0,0,0-1.71-.85,1.34,1.34,0,0,0-.92.35,1.11,1.11,0,0,0-.38.82,1.21,1.21,0,0,0,.32.79,4.32,4.32,0,0,0,1.31.9,4.81,4.81,0,0,1,1.66,1.22,2.18,2.18,0,0,1,.43,1.33,2.41,2.41,0,0,1-.73,1.78,2.53,2.53,0,0,1-1.84.72,3.09,3.09,0,0,1-1.4-.32,2.92,2.92,0,0,1-1.11-.88l.69-.78a2.37,2.37,0,0,0,1.77.94,1.61,1.61,0,0,0,1.12-.42,1.29,1.29,0,0,0,.46-1,1.31,1.31,0,0,0-.3-.84,4.93,4.93,0,0,0-1.38-.9,4.41,4.41,0,0,1-1.56-1.17,2.21,2.21,0,0,1-.42-1.32,2.13,2.13,0,0,1,.66-1.61,2.29,2.29,0,0,1,1.67-.64A3.51,3.51,0,0,1,269.7,573.26Z"/></clipPath><clipPath id="clip-path-7"><path class="cls-8" d="M275.91,573.26l-.71.73a2.49,2.49,0,0,0-1.71-.85,1.29,1.29,0,0,0-.91.35,1.07,1.07,0,0,0-.38.82,1.2,1.2,0,0,0,.31.79,4.32,4.32,0,0,0,1.31.9,4.81,4.81,0,0,1,1.66,1.22,2.18,2.18,0,0,1,.43,1.33,2.41,2.41,0,0,1-.73,1.78,2.52,2.52,0,0,1-1.84.72,3.09,3.09,0,0,1-1.4-.32,2.92,2.92,0,0,1-1.11-.88l.69-.78a2.37,2.37,0,0,0,1.77.94,1.59,1.59,0,0,0,1.12-.42,1.3,1.3,0,0,0,.47-1,1.32,1.32,0,0,0-.31-.84,4.93,4.93,0,0,0-1.38-.9,4.41,4.41,0,0,1-1.56-1.17,2.21,2.21,0,0,1-.42-1.32,2.13,2.13,0,0,1,.66-1.61,2.29,2.29,0,0,1,1.67-.64A3.49,3.49,0,0,1,275.91,573.26Z"/></clipPath><clipPath id="clip-path-8"><path class="cls-2" d="M150.58,569.05h1.09v11.79h-1.09Z"/></clipPath><clipPath id="clip-path-9"><path class="cls-10" d="M153.78,569.05h1.1v11.79h-1.1Z"/></clipPath><clipPath id="clip-path-10"><path class="cls-11" d="M170.05,572.34v8.5H169v-1.47a4.66,4.66,0,0,1-1.54,1.26,4.2,4.2,0,0,1-1.87.42,4.16,4.16,0,0,1-3.09-1.3,4.41,4.41,0,0,1-1.27-3.19,4.34,4.34,0,0,1,1.28-3.14,4.21,4.21,0,0,1,3.11-1.3,4,4,0,0,1,1.89.44A4.28,4.28,0,0,1,169,573.9v-1.56Zm-4.37.83a3.32,3.32,0,0,0-1.69.45,3.38,3.38,0,0,0-1.23,1.26,3.48,3.48,0,0,0-.45,1.72,3.38,3.38,0,0,0,.46,1.71,3.23,3.23,0,0,0,1.23,1.28,3.28,3.28,0,0,0,1.67.46,3.34,3.34,0,0,0,1.7-.46,3.23,3.23,0,0,0,1.24-1.22,3.62,3.62,0,0,0,.43-1.74,3.37,3.37,0,0,0-1-2.47A3.23,3.23,0,0,0,165.68,573.17Z"/></clipPath><clipPath id="clip-path-11"><path class="cls-12" d="M173.46,569.18h1.1v3.16h1.73v.94h-1.73v7.56h-1.1v-7.56H172v-.94h1.49Z"/></clipPath><clipPath id="clip-path-12"><path class="cls-13" d="M186.38,572.12a4.21,4.21,0,0,1,3.26,1.42,4.57,4.57,0,0,1-.07,6.18,4.49,4.49,0,0,1-6.38,0,4.55,4.55,0,0,1-.07-6.17A4.18,4.18,0,0,1,186.38,572.12Zm0,1.07a3.14,3.14,0,0,0-2.34,1,3.37,3.37,0,0,0-1,2.44,3.42,3.42,0,0,0,.44,1.72,3.18,3.18,0,0,0,1.21,1.23,3.46,3.46,0,0,0,3.34,0,3.18,3.18,0,0,0,1.21-1.23,3.42,3.42,0,0,0,.44-1.72,3.37,3.37,0,0,0-1-2.44A3.17,3.17,0,0,0,186.38,573.19Z"/></clipPath><clipPath id="clip-path-13"><path class="cls-14" d="M192.84,572.34h1.09v1.52a4.66,4.66,0,0,1,1.45-1.31,3.56,3.56,0,0,1,1.74-.43,3,3,0,0,1,1.69.48,2.92,2.92,0,0,1,1.09,1.31,6.93,6.93,0,0,1,.35,2.55v4.38h-1.09v-4.06a10.12,10.12,0,0,0-.12-2,2,2,0,0,0-2.14-1.7,2.69,2.69,0,0,0-1.78.66,3.05,3.05,0,0,0-1,1.63,10.77,10.77,0,0,0-.16,2.31v3.12h-1.09Z"/></clipPath><clipPath id="clip-path-14"><path class="cls-15" d="M209.75,578l.92.49a5.06,5.06,0,0,1-1,1.44,4.19,4.19,0,0,1-1.33.83,4.7,4.7,0,0,1-1.68.28,4.08,4.08,0,0,1-3.26-1.36,4.61,4.61,0,0,1-1.17-3.08,4.53,4.53,0,0,1,1-2.88,4.05,4.05,0,0,1,3.37-1.61,4.23,4.23,0,0,1,3.48,1.64,4.65,4.65,0,0,1,.93,2.91h-7.64a3.45,3.45,0,0,0,.94,2.43,3,3,0,0,0,2.26.95,3.7,3.7,0,0,0,1.27-.23,3.42,3.42,0,0,0,1-.6A4.88,4.88,0,0,0,209.75,578Zm0-2.28a3.64,3.64,0,0,0-.64-1.4,3.06,3.06,0,0,0-1.1-.85,3.48,3.48,0,0,0-1.45-.32,3.11,3.11,0,0,0-2.15.81,3.64,3.64,0,0,0-1,1.76Z"/></clipPath><clipPath id="clip-path-15"><path class="cls-16" d="M225.89,572.34v8.5h-1.08v-1.47a4.66,4.66,0,0,1-1.54,1.26,4.32,4.32,0,0,1-5-.88,4.42,4.42,0,0,1-1.28-3.19,4.31,4.31,0,0,1,1.29-3.14,4.19,4.19,0,0,1,3.1-1.3,3.93,3.93,0,0,1,1.89.44,4.2,4.2,0,0,1,1.49,1.34v-1.56Zm-4.37.83a3.28,3.28,0,0,0-2.91,1.71,3.43,3.43,0,0,0,0,3.43,3.32,3.32,0,0,0,1.24,1.28,3.24,3.24,0,0,0,1.66.46,3.32,3.32,0,0,0,1.7-.46,3.16,3.16,0,0,0,1.24-1.22,3.51,3.51,0,0,0,.43-1.74,3.37,3.37,0,0,0-1-2.47A3.21,3.21,0,0,0,221.52,573.17Z"/></clipPath><clipPath id="clip-path-16"><path class="cls-9" d="M279.05,579.12a.93.93,0,0,1,.68.28,1,1,0,0,1,.28.69,1,1,0,0,1-.28.68.93.93,0,0,1-.68.28.91.91,0,0,1-.68-.28,1,1,0,0,1,0-1.37A.91.91,0,0,1,279.05,579.12Z"/></clipPath></defs><title>text3</title><g id="Layer_2" data-name="Layer 2"><g id="Layer_1-2" data-name="Layer 1"><path class="cls-1" d="M148.28,572.34v8.5H147.2v-1.47a4.66,4.66,0,0,1-1.54,1.26,4.32,4.32,0,0,1-4.95-.88,4.42,4.42,0,0,1-1.28-3.19,4.31,4.31,0,0,1,1.29-3.14,4.19,4.19,0,0,1,3.1-1.3,4,4,0,0,1,1.9.44,4.25,4.25,0,0,1,1.48,1.34v-1.56Zm-4.37.83a3.31,3.31,0,0,0-2.91,1.71,3.43,3.43,0,0,0,0,3.43,3.32,3.32,0,0,0,1.24,1.28,3.24,3.24,0,0,0,1.66.46,3.32,3.32,0,0,0,1.7-.46,3.16,3.16,0,0,0,1.24-1.22,3.51,3.51,0,0,0,.43-1.74,3.37,3.37,0,0,0-1-2.47A3.21,3.21,0,0,0,143.91,573.17Z"/><path class="cls-1" d="M150.58,569.05h1.09v11.79h-1.09Z"/><path class="cls-1" d="M153.78,569.05h1.1v11.79h-1.1Z"/><path class="cls-1" d="M170.05,572.34v8.5H169v-1.47a4.66,4.66,0,0,1-1.54,1.26,4.2,4.2,0,0,1-1.87.42,4.16,4.16,0,0,1-3.09-1.3,4.41,4.41,0,0,1-1.27-3.19,4.34,4.34,0,0,1,1.28-3.14,4.21,4.21,0,0,1,3.11-1.3,4,4,0,0,1,1.89.44A4.28,4.28,0,0,1,169,573.9v-1.56Zm-4.37.83a3.32,3.32,0,0,0-1.69.45,3.38,3.38,0,0,0-1.23,1.26,3.48,3.48,0,0,0-.45,1.72,3.38,3.38,0,0,0,.46,1.71,3.23,3.23,0,0,0,1.23,1.28,3.28,3.28,0,0,0,1.67.46,3.34,3.34,0,0,0,1.7-.46,3.23,3.23,0,0,0,1.24-1.22,3.62,3.62,0,0,0,.43-1.74,3.37,3.37,0,0,0-1-2.47A3.23,3.23,0,0,0,165.68,573.17Z"/><path class="cls-1" d="M173.46,569.18h1.1v3.16h1.73v.94h-1.73v7.56h-1.1v-7.56H172v-.94h1.49Z"/><path class="cls-1" d="M186.38,572.12a4.21,4.21,0,0,1,3.26,1.42,4.57,4.57,0,0,1-.07,6.18,4.49,4.49,0,0,1-6.38,0,4.55,4.55,0,0,1-.07-6.17A4.18,4.18,0,0,1,186.38,572.12Zm0,1.07a3.14,3.14,0,0,0-2.34,1,3.37,3.37,0,0,0-1,2.44,3.42,3.42,0,0,0,.44,1.72,3.18,3.18,0,0,0,1.21,1.23,3.46,3.46,0,0,0,3.34,0,3.18,3.18,0,0,0,1.21-1.23,3.42,3.42,0,0,0,.44-1.72,3.37,3.37,0,0,0-1-2.44A3.17,3.17,0,0,0,186.38,573.19Z"/><path class="cls-1" d="M192.84,572.34h1.09v1.52a4.66,4.66,0,0,1,1.45-1.31,3.56,3.56,0,0,1,1.74-.43,3,3,0,0,1,1.69.48,2.92,2.92,0,0,1,1.09,1.31,6.93,6.93,0,0,1,.35,2.55v4.38h-1.09v-4.06a10.12,10.12,0,0,0-.12-2,2,2,0,0,0-2.14-1.7,2.69,2.69,0,0,0-1.78.66,3.05,3.05,0,0,0-1,1.63,10.77,10.77,0,0,0-.16,2.31v3.12h-1.09Z"/><path class="cls-1" d="M209.75,578l.92.49a5.06,5.06,0,0,1-1,1.44,4.19,4.19,0,0,1-1.33.83,4.7,4.7,0,0,1-1.68.28,4.08,4.08,0,0,1-3.26-1.36,4.61,4.61,0,0,1-1.17-3.08,4.53,4.53,0,0,1,1-2.88,4.05,4.05,0,0,1,3.37-1.61,4.23,4.23,0,0,1,3.48,1.64,4.65,4.65,0,0,1,.93,2.91h-7.64a3.45,3.45,0,0,0,.94,2.43,3,3,0,0,0,2.26.95,3.7,3.7,0,0,0,1.27-.23,3.42,3.42,0,0,0,1-.6A4.88,4.88,0,0,0,209.75,578Zm0-2.28a3.64,3.64,0,0,0-.64-1.4,3.06,3.06,0,0,0-1.1-.85,3.48,3.48,0,0,0-1.45-.32,3.11,3.11,0,0,0-2.15.81,3.64,3.64,0,0,0-1,1.76Z"/><path class="cls-1" d="M225.89,572.34v8.5h-1.08v-1.47a4.66,4.66,0,0,1-1.54,1.26,4.32,4.32,0,0,1-5-.88,4.42,4.42,0,0,1-1.28-3.19,4.31,4.31,0,0,1,1.29-3.14,4.19,4.19,0,0,1,3.1-1.3,3.93,3.93,0,0,1,1.89.44,4.2,4.2,0,0,1,1.49,1.34v-1.56Zm-4.37.83a3.28,3.28,0,0,0-2.91,1.71,3.43,3.43,0,0,0,0,3.43,3.32,3.32,0,0,0,1.24,1.28,3.24,3.24,0,0,0,1.66.46,3.32,3.32,0,0,0,1.7-.46,3.16,3.16,0,0,0,1.24-1.22,3.51,3.51,0,0,0,.43-1.74,3.37,3.37,0,0,0-1-2.47A3.21,3.21,0,0,0,221.52,573.17Z"/><path class="cls-1" d="M236.84,569.05v11.79h-1.08v-1.47a4.66,4.66,0,0,1-1.54,1.26,4.25,4.25,0,0,1-1.88.42,4.15,4.15,0,0,1-3.08-1.3,4.42,4.42,0,0,1-1.28-3.19,4.31,4.31,0,0,1,1.29-3.14,4.21,4.21,0,0,1,3.11-1.3,4,4,0,0,1,1.89.44,4.37,4.37,0,0,1,1.49,1.34v-4.85Zm-4.37,4.12a3.32,3.32,0,0,0-1.69.45,3.24,3.24,0,0,0-1.23,1.26,3.49,3.49,0,0,0-.46,1.72,3.39,3.39,0,0,0,.47,1.71,3.23,3.23,0,0,0,1.23,1.28,3.28,3.28,0,0,0,1.67.46,3.34,3.34,0,0,0,1.7-.46,3.14,3.14,0,0,0,1.23-1.22,3.51,3.51,0,0,0,.44-1.74,3.41,3.41,0,0,0-1-2.47A3.23,3.23,0,0,0,232.47,573.17Z"/><path class="cls-1" d="M247.8,569.05v11.79h-1.08v-1.47a4.66,4.66,0,0,1-1.54,1.26,4.2,4.2,0,0,1-1.87.42,4.16,4.16,0,0,1-3.09-1.3,4.41,4.41,0,0,1-1.27-3.19,4.34,4.34,0,0,1,1.28-3.14,4.21,4.21,0,0,1,3.11-1.3,4,4,0,0,1,1.89.44,4.28,4.28,0,0,1,1.49,1.34v-4.85Zm-4.37,4.12a3.32,3.32,0,0,0-1.69.45,3.38,3.38,0,0,0-1.23,1.26,3.48,3.48,0,0,0-.45,1.72,3.38,3.38,0,0,0,.46,1.71,3.23,3.23,0,0,0,1.23,1.28,3.28,3.28,0,0,0,1.67.46,3.34,3.34,0,0,0,1.7-.46,3.23,3.23,0,0,0,1.24-1.22,3.62,3.62,0,0,0,.43-1.74,3.37,3.37,0,0,0-1-2.47A3.23,3.23,0,0,0,243.43,573.17Z"/><path class="cls-1" d="M249.86,572.34H251v1.24a3.84,3.84,0,0,1,1.05-1.1,2.11,2.11,0,0,1,1.16-.36,2,2,0,0,1,1,.29l-.57.92a1.55,1.55,0,0,0-.58-.15,1.58,1.58,0,0,0-1.06.45,2.84,2.84,0,0,0-.77,1.39A13.23,13.23,0,0,0,251,578v2.88h-1.12Z"/><path class="cls-1" d="M262.18,578l.92.49a5.06,5.06,0,0,1-1.05,1.44,4.19,4.19,0,0,1-1.33.83,4.7,4.7,0,0,1-1.68.28,4.06,4.06,0,0,1-3.26-1.36,4.61,4.61,0,0,1-1.17-3.08,4.53,4.53,0,0,1,1-2.88,4,4,0,0,1,3.37-1.61,4.2,4.2,0,0,1,3.47,1.64,4.59,4.59,0,0,1,.94,2.91h-7.65a3.5,3.5,0,0,0,1,2.43,3,3,0,0,0,2.26.95,3.7,3.7,0,0,0,1.27-.23,3.42,3.42,0,0,0,1-.6A4.88,4.88,0,0,0,262.18,578Zm0-2.28a3.64,3.64,0,0,0-.64-1.4,3.15,3.15,0,0,0-1.1-.85,3.48,3.48,0,0,0-1.45-.32,3.09,3.09,0,0,0-2.15.81,3.64,3.64,0,0,0-1,1.76Z"/><path class="cls-1" d="M269.7,573.26,269,574a2.49,2.49,0,0,0-1.71-.85,1.34,1.34,0,0,0-.92.35,1.11,1.11,0,0,0-.38.82,1.21,1.21,0,0,0,.32.79,4.32,4.32,0,0,0,1.31.9,4.81,4.81,0,0,1,1.66,1.22,2.18,2.18,0,0,1,.43,1.33,2.41,2.41,0,0,1-.73,1.78,2.53,2.53,0,0,1-1.84.72,3.09,3.09,0,0,1-1.4-.32,2.92,2.92,0,0,1-1.11-.88l.69-.78a2.37,2.37,0,0,0,1.77.94,1.61,1.61,0,0,0,1.12-.42,1.29,1.29,0,0,0,.46-1,1.31,1.31,0,0,0-.3-.84,4.93,4.93,0,0,0-1.38-.9,4.41,4.41,0,0,1-1.56-1.17,2.21,2.21,0,0,1-.42-1.32,2.13,2.13,0,0,1,.66-1.61,2.29,2.29,0,0,1,1.67-.64A3.51,3.51,0,0,1,269.7,573.26Z"/><path class="cls-1" d="M275.91,573.26l-.71.73a2.49,2.49,0,0,0-1.71-.85,1.29,1.29,0,0,0-.91.35,1.07,1.07,0,0,0-.38.82,1.2,1.2,0,0,0,.31.79,4.32,4.32,0,0,0,1.31.9,4.81,4.81,0,0,1,1.66,1.22,2.18,2.18,0,0,1,.43,1.33,2.41,2.41,0,0,1-.73,1.78,2.52,2.52,0,0,1-1.84.72,3.09,3.09,0,0,1-1.4-.32,2.92,2.92,0,0,1-1.11-.88l.69-.78a2.37,2.37,0,0,0,1.77.94,1.59,1.59,0,0,0,1.12-.42,1.3,1.3,0,0,0,.47-1,1.32,1.32,0,0,0-.31-.84,4.93,4.93,0,0,0-1.38-.9,4.41,4.41,0,0,1-1.56-1.17,2.21,2.21,0,0,1-.42-1.32,2.13,2.13,0,0,1,.66-1.61,2.29,2.29,0,0,1,1.67-.64A3.49,3.49,0,0,1,275.91,573.26Z"/><path class="cls-1" d="M279.05,579.12a.93.93,0,0,1,.68.28,1,1,0,0,1,.28.69,1,1,0,0,1-.28.68.93.93,0,0,1-.68.28.91.91,0,0,1-.68-.28,1,1,0,0,1,0-1.37A.91.91,0,0,1,279.05,579.12Z"/><g class="cls-17"><rect class="cls-1" width="300" height="599.73"/></g></g></g></svg>