<svg id="Layer_1" data-name="Layer 1" xmlns="http://www.w3.org/2000/svg" viewBox="0 0 220.79 71.39"><defs><style>.cls-1{fill:none;}.cls-2{fill:#1d1d1b;}.cls-3{fill:#ff0028;}.cls-4{fill:#fff;}</style></defs><title>tryitout_bottom</title><rect class="cls-1" x="32.74" y="13" width="8" height="18"/><rect class="cls-1" x="151.74" y="13" width="8" height="44"/><polygon class="cls-2" points="21.74 6.74 21.74 5 0.23 5 0 10.2 0.23 13 6.74 13 6.74 65.13 7.97 64.91 11.36 65.13 14.74 64.69 14.74 13 21.63 13 21.12 7 21.74 6.74"/><path class="cls-2" d="M47,39l.45-1h.25v.23l1-.44V5.65L47,6h-2.3V5h-19l-1,.86v59.2l7.66-.44.34.44V38h2.91l6.71,26.84L44,65.6l4.67-1.25,2,0L44.17,39Zm-6.3-8h-8V13h8Z"/><polygon class="cls-2" points="69.72 4.85 64.37 24.55 59.02 4.85 57.74 5.5 51.71 7.25 51.44 7.1 60.74 34.95 60.74 64.55 62.14 65.2 67.4 64.77 68.74 64.99 68.74 34.95 77.79 7.1 71.12 5.28 69.72 4.85"/><path class="cls-2" d="M165.74,6.08,166.29,5H143.15l.59,3.85V11l-.59,2h.59V65h22.92l1.08-1.32V60h0V6h-2Zm-6,50.92h-8V13h8Z"/><polygon class="cls-2" points="196.74 5.87 195.61 5 188.74 5 188.74 57 180.74 57 180.74 5.65 175.72 5.43 172.74 5.65 172.74 64.99 174.34 65.21 177.37 65 196.66 65 196.93 63.25 196.74 60.04 196.74 5.87"/><polygon class="cls-2" points="220.2 7 220.74 6.74 220.74 5 199.38 5 199.15 10.2 199.38 13 205.74 13 205.74 65.13 207.04 64.91 210.89 65.13 214.74 64.69 214.74 13 220.78 13 220.2 7"/><path class="cls-3" d="M85.74,65.38l24,6,24-6V0h-48ZM106.5,6h21.24V7.07l-.66.25.44,5.68h-6.78V61.8l-3.27.41-3.55-.2-1.18.2V13H106.5l-.22-2.37Zm-11.76.15,1.74.2,6.26-.2V62.46l-3.67-.21-2.53.21-1.8-.07Z"/><polygon class="cls-4" points="99.07 62.25 102.74 62.45 102.74 6.15 96.48 6.35 94.74 6.15 94.74 62.39 96.53 62.45 99.07 62.25"/><polygon class="cls-4" points="112.74 13 112.74 62.22 114.02 62.01 117.38 62.22 120.74 61.8 120.74 13 127.52 13 127.08 7.33 127.74 7.07 127.74 6 106.5 6 106.28 10.63 106.5 13 112.74 13"/></svg>