<?xml version="1.0" encoding="utf-8"?>
<!-- Generator: Adobe Illustrator 24.2.1, SVG Export Plug-In . SVG Version: 6.00 Build 0)  -->
<svg version="1.1" id="Layer_1" xmlns="http://www.w3.org/2000/svg" xmlns:xlink="http://www.w3.org/1999/xlink" x="0px" y="0px"
	 viewBox="0 0 198.7 42" style="enable-background:new 0 0 198.7 42;" xml:space="preserve">
<style type="text/css">
	.st0{enable-background:new    ;}
</style>
<path d="M10.1,6v35.3l-2.3,0.3l-2.4-0.2l-0.8,0.2V6H0.2L0,4.1l0.2-3.6h14.1v0.9l-0.3,0.3L14.4,6H10.1z"/>
<path d="M33.5,40.9l-1.3,0.2L29.1,42l-1-0.5l-4.5-18.3h-1.9v18.3l-0.3-0.3l-5.1,0.3V0.8l0.8-0.3h12.6v0.3h1.5l1.1-0.2v22.1L31.8,23
	v0.1h-0.3l-0.3,0.1h-1.9L33.5,40.9z M21.8,17.8h5.1V6h-5.1V17.8z"/>
<path d="M45.5,20.8v20.7l-0.9-0.2l-3.5,0.3l-1-0.5V20.8L34,1.6l0.3,0.1l4-1.2l0.9-0.4l3.5,13.5l3.5-13.5l0.9,0.3l4.4,1.2L45.5,20.8z
	"/>
<path d="M62.7,26.4l0.3,1H52.6L52.4,23l0.2-1H63l-0.2,3.4L62.7,26.4z"/>
<path d="M81.6,38.2h-0.2v2.3L81,41.5H67.8v-0.2h-1.2l-1.2,0.2V6h-0.2l0.2-1.6V2.8l-0.2-2.3h15.3L80.4,1v0.1h1.2V38.2z M71,5.7v30.5
	h5.1V5.7H71z"/>
<path d="M100.8,41.5H88.1L86,41.6l-1.2-0.2V0.6l2-0.2l3.4,0.2v35.6h5.2V0.5h4.8l0.7,0.3V38l0.2,2.2L100.8,41.5z"/>
<path d="M112.6,6v35.3l-2.3,0.3l-2.3-0.2l-0.8,0.2V6h-4.4l-0.2-1.9l0.1-3.6h14v0.9l-0.3,0.3l0.5,4.3H112.6z"/>
<g class="st0">
	<path d="M135.9,5.7v35.7l-2.4,0.3l-2.4-0.2l-0.8,0.2v-36h-4.5l-0.2-1.9l0.2-3.6h14.2v0.9l-0.3,0.3l0.5,4.3H135.9z"/>
	<path d="M158.2,38.3H158v2.4l-0.5,0.9h-13.3v-0.2h-1.2l-1.2,0.2V5.7h-0.2l0.2-1.6V2.6l-0.2-2.4h15.5L157,0.6v0.2h1.2V38.3z
		 M147.4,5.4v30.9h5.2V5.4H147.4z"/>
	<path d="M177.7,41.6h-13l-2.1,0.2l-1.2-0.2V0.3l2.1-0.2l3.4,0.2v36h5.2V0.2h4.8l0.7,0.3v37.7l0.2,2.2L177.7,41.6z"/>
	<path d="M198.5,41.1l-1.3,0.2l-3.1,0.9l-1.1-0.5l-4.5-18.5h-1.9v18.5l-0.3-0.3l-5.2,0.3V0.5l0.8-0.3h1.9h10.9v0.3h1.5l1.2-0.2v22.4
		l-0.6,0.3v0.2h-0.3l-0.3,0.2h-1.9L198.5,41.1z M186.5,17.6h5.2V5.7h-5.2V17.6z"/>
</g>
</svg>
