<svg xmlns="http://www.w3.org/2000/svg" viewBox="0 0 728 90"><defs><style>.cls-1{fill:none;}.cls-2,.cls-4{fill:#fff;}.cls-3{fill:#009982;}.cls-3,.cls-4{fill-rule:evenodd;}.cls-5,.cls-8{font-size:23.97px;font-family:HelveticaNeue, Helvetica Neue;}.cls-10,.cls-5,.cls-8{fill:#f9c200;}.cls-6{letter-spacing:0.02em;}.cls-7,.cls-8{letter-spacing:0.02em;}.cls-9{letter-spacing:0em;}</style></defs><title>logo</title><g id="Layer_2" data-name="Layer 2"><g id="Layer_1-2" data-name="Layer 1"><rect class="cls-1" width="728" height="90"/><path class="cls-2" d="M584,72.2a2.64,2.64,0,0,0,.85,1,3.45,3.45,0,0,0,1.24.57,5.92,5.92,0,0,0,1.47.18,8.77,8.77,0,0,0,1.1-.08,4.19,4.19,0,0,0,1.11-.33,2.37,2.37,0,0,0,.85-.68,1.68,1.68,0,0,0,.35-1.09,1.51,1.51,0,0,0-.46-1.15,3.46,3.46,0,0,0-1.19-.74,11.64,11.64,0,0,0-1.66-.52c-.63-.14-1.26-.31-1.89-.49a15.29,15.29,0,0,1-1.92-.6,6.28,6.28,0,0,1-1.67-.92,4.11,4.11,0,0,1-1.64-3.46,4.51,4.51,0,0,1,.58-2.34,5.21,5.21,0,0,1,1.51-1.66,6.7,6.7,0,0,1,2.11-1,9,9,0,0,1,2.35-.32,11.36,11.36,0,0,1,2.64.31,6.6,6.6,0,0,1,2.24,1,5,5,0,0,1,1.56,1.76,5.3,5.3,0,0,1,.58,2.59h-3.73a3,3,0,0,0-.33-1.3,2.1,2.1,0,0,0-.75-.81,3.07,3.07,0,0,0-1.07-.42,6.71,6.71,0,0,0-1.31-.12,4.2,4.2,0,0,0-.93.1,2.32,2.32,0,0,0-1.48,1,1.69,1.69,0,0,0-.24.93,1.49,1.49,0,0,0,.2.84,1.72,1.72,0,0,0,.77.59,9.6,9.6,0,0,0,1.59.54c.68.18,1.57.41,2.67.68.32.07.78.19,1.36.36a6.79,6.79,0,0,1,1.73.82,5.33,5.33,0,0,1,1.48,1.51,4.29,4.29,0,0,1,.63,2.42,5.37,5.37,0,0,1-.47,2.23,4.77,4.77,0,0,1-1.39,1.78,6.45,6.45,0,0,1-2.28,1.16,10.68,10.68,0,0,1-3.15.42,11.39,11.39,0,0,1-2.81-.35,7,7,0,0,1-2.4-1.12,5.48,5.48,0,0,1-1.66-1.94,5.73,5.73,0,0,1-.59-2.8h3.73a3.26,3.26,0,0,0,.32,1.5"/><path class="cls-2" d="M599.56,59v6.6h.07A4.07,4.07,0,0,1,601.32,64a4.65,4.65,0,0,1,2-.5,6,6,0,0,1,2.3.38A3.34,3.34,0,0,1,607,64.93a4.1,4.1,0,0,1,.72,1.64,10.18,10.18,0,0,1,.21,2.15v7.8h-3.48V69.35A4.53,4.53,0,0,0,604,67a1.92,1.92,0,0,0-1.75-.77,2.41,2.41,0,0,0-2.06.85,4.73,4.73,0,0,0-.63,2.78v6.65h-3.49V59Z"/><path class="cls-2" d="M614,73.48a3.15,3.15,0,0,0,2.26.76,3.09,3.09,0,0,0,1.81-.53,2.19,2.19,0,0,0,.94-1.12h3.06a5.87,5.87,0,0,1-2.25,3.27,6.69,6.69,0,0,1-3.68,1,7.22,7.22,0,0,1-2.7-.48,5.67,5.67,0,0,1-2-1.36,6,6,0,0,1-1.29-2.11,7.8,7.8,0,0,1-.45-2.7,7.42,7.42,0,0,1,.46-2.65,6.31,6.31,0,0,1,1.33-2.12,6.05,6.05,0,0,1,2-1.41,6.45,6.45,0,0,1,2.64-.52,6,6,0,0,1,2.82.63,5.44,5.44,0,0,1,2,1.68A6.79,6.79,0,0,1,622,68.2a8.79,8.79,0,0,1,.24,2.82h-9.15a3.56,3.56,0,0,0,.86,2.46m3.94-6.68a2.44,2.44,0,0,0-1.9-.68,3,3,0,0,0-1.39.28A2.62,2.62,0,0,0,613.29,68a4.23,4.23,0,0,0-.16.84h5.67a4,4,0,0,0-.87-2"/><rect class="cls-2" x="624.08" y="59" width="3.48" height="17.52"/><path class="cls-2" d="M637.46,63.83v2.33h-2.55v6.29a1.65,1.65,0,0,0,.3,1.17,1.66,1.66,0,0,0,1.17.3,5.17,5.17,0,0,0,.57,0,3.92,3.92,0,0,0,.51-.07v2.7a8.74,8.74,0,0,1-1,.1l-1.05,0a9.54,9.54,0,0,1-1.54-.11,3.6,3.6,0,0,1-1.27-.43,2.19,2.19,0,0,1-.87-.91,3.12,3.12,0,0,1-.32-1.54V66.16h-2.11V63.83h2.11V60h3.48v3.8Z"/><path class="cls-2" d="M642.68,73.48a3.15,3.15,0,0,0,2.26.76,3.09,3.09,0,0,0,1.81-.53,2.19,2.19,0,0,0,.94-1.12h3.06a5.87,5.87,0,0,1-2.25,3.27,6.69,6.69,0,0,1-3.68,1,7.22,7.22,0,0,1-2.7-.48,5.67,5.67,0,0,1-2-1.36,6.18,6.18,0,0,1-1.29-2.11,7.8,7.8,0,0,1-.45-2.7,7.21,7.21,0,0,1,.47-2.65A6.1,6.1,0,0,1,642.18,64a6.45,6.45,0,0,1,2.64-.52,6,6,0,0,1,2.82.63,5.44,5.44,0,0,1,2,1.68,6.79,6.79,0,0,1,1.12,2.4A8.79,8.79,0,0,1,651,71h-9.15a3.56,3.56,0,0,0,.86,2.46m3.94-6.68a2.44,2.44,0,0,0-1.9-.68,3,3,0,0,0-1.39.28A2.62,2.62,0,0,0,642,68a4.23,4.23,0,0,0-.16.84h5.67a4,4,0,0,0-.87-2"/><path class="cls-2" d="M656,63.83v2.36h0a4.07,4.07,0,0,1,.66-1.09,4.35,4.35,0,0,1,1-.86,4.51,4.51,0,0,1,1.15-.55,4.18,4.18,0,0,1,1.28-.2,2.77,2.77,0,0,1,.76.12v3.24c-.17,0-.36-.06-.59-.08a5.07,5.07,0,0,0-.66,0,3.74,3.74,0,0,0-1.62.32,2.71,2.71,0,0,0-1.07.87,3.62,3.62,0,0,0-.58,1.29,7.25,7.25,0,0,0-.17,1.59v5.72h-3.48V63.83Z"/><path class="cls-2" d="M670.29,59a10.79,10.79,0,0,1,2.29.22,4.91,4.91,0,0,1,1.76.73,3.36,3.36,0,0,1,1.14,1.33,4.73,4.73,0,0,1,.41,2.06,3.84,3.84,0,0,1-.6,2.21A4.43,4.43,0,0,1,673.51,67a4.17,4.17,0,0,1,2.41,1.63,5.36,5.36,0,0,1,.29,5.1,4.55,4.55,0,0,1-1.39,1.59,5.93,5.93,0,0,1-2,.9,8.78,8.78,0,0,1-2.29.3h-8.49V59Zm-.49,7.09a2.78,2.78,0,0,0,1.7-.49,1.86,1.86,0,0,0,.66-1.59,2.13,2.13,0,0,0-.22-1,1.65,1.65,0,0,0-.59-.61,2.53,2.53,0,0,0-.85-.31,5.36,5.36,0,0,0-1-.09H665.9v4.1Zm.22,7.44a5.34,5.34,0,0,0,1.08-.11,2.76,2.76,0,0,0,.91-.37,1.94,1.94,0,0,0,.63-.7,2.49,2.49,0,0,0,.23-1.13,2.27,2.27,0,0,0-.76-1.93,3.28,3.28,0,0,0-2-.57h-4.2v4.81Z"/><path class="cls-2" d="M678.31,67.43a5.91,5.91,0,0,1,1.32-2.11A6,6,0,0,1,681.7,64a7.2,7.2,0,0,1,2.69-.48,7.36,7.36,0,0,1,2.72.48,5.76,5.76,0,0,1,3.39,3.46,8.31,8.31,0,0,1,0,5.51A6,6,0,0,1,689.18,75a5.61,5.61,0,0,1-2.07,1.34,7.57,7.57,0,0,1-2.72.47,7.41,7.41,0,0,1-2.69-.47A5.7,5.7,0,0,1,679.63,75a6,6,0,0,1-1.32-2.09,8.31,8.31,0,0,1,0-5.51m3.16,4.24A3.84,3.84,0,0,0,682,73a2.67,2.67,0,0,0,.94.92,2.88,2.88,0,0,0,1.47.35,3,3,0,0,0,1.49-.35,2.65,2.65,0,0,0,1-.92,4,4,0,0,0,.5-1.3,7.21,7.21,0,0,0,.15-1.48,7.48,7.48,0,0,0-.15-1.5,4,4,0,0,0-.5-1.3,2.92,2.92,0,0,0-1-.92,2.86,2.86,0,0,0-1.49-.35,2.78,2.78,0,0,0-1.47.35,3,3,0,0,0-.94.92,3.84,3.84,0,0,0-.51,1.3,8.29,8.29,0,0,0-.14,1.5,8,8,0,0,0,.14,1.48"/><polygon class="cls-2" points="691.22 63.83 695.19 63.83 697.42 67.15 699.63 63.83 703.49 63.83 699.31 69.77 704 76.52 700.03 76.52 697.38 72.52 694.73 76.52 690.82 76.52 695.39 69.85 691.22 63.83"/><path class="cls-2" d="M584,72.2a2.64,2.64,0,0,0,.85,1,3.45,3.45,0,0,0,1.24.57,5.92,5.92,0,0,0,1.47.18,8.77,8.77,0,0,0,1.1-.08,4.19,4.19,0,0,0,1.11-.33,2.37,2.37,0,0,0,.85-.68,1.68,1.68,0,0,0,.35-1.09,1.51,1.51,0,0,0-.46-1.15,3.46,3.46,0,0,0-1.19-.74,11.64,11.64,0,0,0-1.66-.52c-.63-.14-1.26-.31-1.89-.49a15.29,15.29,0,0,1-1.92-.6,6.28,6.28,0,0,1-1.67-.92,4.11,4.11,0,0,1-1.64-3.46,4.51,4.51,0,0,1,.58-2.34,5.21,5.21,0,0,1,1.51-1.66,6.7,6.7,0,0,1,2.11-1,9,9,0,0,1,2.35-.32,11.36,11.36,0,0,1,2.64.31,6.6,6.6,0,0,1,2.24,1,5,5,0,0,1,1.56,1.76,5.3,5.3,0,0,1,.58,2.59h-3.73a3,3,0,0,0-.33-1.3,2.1,2.1,0,0,0-.75-.81,3.07,3.07,0,0,0-1.07-.42,6.71,6.71,0,0,0-1.31-.12,4.2,4.2,0,0,0-.93.1,2.32,2.32,0,0,0-1.48,1,1.69,1.69,0,0,0-.24.93,1.49,1.49,0,0,0,.2.84,1.72,1.72,0,0,0,.77.59,9.6,9.6,0,0,0,1.59.54c.68.18,1.57.41,2.67.68.32.07.78.19,1.36.36a6.79,6.79,0,0,1,1.73.82,5.33,5.33,0,0,1,1.48,1.51,4.29,4.29,0,0,1,.63,2.42,5.37,5.37,0,0,1-.47,2.23,4.77,4.77,0,0,1-1.39,1.78,6.45,6.45,0,0,1-2.28,1.16,10.68,10.68,0,0,1-3.15.42,11.39,11.39,0,0,1-2.81-.35,7,7,0,0,1-2.4-1.12,5.48,5.48,0,0,1-1.66-1.94,5.73,5.73,0,0,1-.59-2.8h3.73a3.26,3.26,0,0,0,.32,1.5"/><path class="cls-2" d="M599.56,59v6.6h.07A4.07,4.07,0,0,1,601.32,64a4.65,4.65,0,0,1,2-.5,6,6,0,0,1,2.3.38A3.34,3.34,0,0,1,607,64.93a4.1,4.1,0,0,1,.72,1.64,10.18,10.18,0,0,1,.21,2.15v7.8h-3.48V69.35A4.53,4.53,0,0,0,604,67a1.92,1.92,0,0,0-1.75-.77,2.41,2.41,0,0,0-2.06.85,4.73,4.73,0,0,0-.63,2.78v6.65h-3.49V59Z"/><path class="cls-2" d="M614,73.48a3.15,3.15,0,0,0,2.26.76,3.09,3.09,0,0,0,1.81-.53,2.19,2.19,0,0,0,.94-1.12h3.06a5.87,5.87,0,0,1-2.25,3.27,6.69,6.69,0,0,1-3.68,1,7.22,7.22,0,0,1-2.7-.48,5.67,5.67,0,0,1-2-1.36,6,6,0,0,1-1.29-2.11,7.8,7.8,0,0,1-.45-2.7,7.42,7.42,0,0,1,.46-2.65,6.31,6.31,0,0,1,1.33-2.12,6.05,6.05,0,0,1,2-1.41,6.45,6.45,0,0,1,2.64-.52,6,6,0,0,1,2.82.63,5.44,5.44,0,0,1,2,1.68A6.79,6.79,0,0,1,622,68.2a8.79,8.79,0,0,1,.24,2.82h-9.15a3.56,3.56,0,0,0,.86,2.46m3.94-6.68a2.44,2.44,0,0,0-1.9-.68,3,3,0,0,0-1.39.28A2.62,2.62,0,0,0,613.29,68a4.23,4.23,0,0,0-.16.84h5.67a4,4,0,0,0-.87-2"/><rect class="cls-2" x="624.08" y="59" width="3.48" height="17.52"/><path class="cls-2" d="M637.46,63.83v2.33h-2.55v6.29a1.65,1.65,0,0,0,.3,1.17,1.66,1.66,0,0,0,1.17.3,5.17,5.17,0,0,0,.57,0,3.92,3.92,0,0,0,.51-.07v2.7a8.74,8.74,0,0,1-1,.1l-1.05,0a9.54,9.54,0,0,1-1.54-.11,3.6,3.6,0,0,1-1.27-.43,2.19,2.19,0,0,1-.87-.91,3.12,3.12,0,0,1-.32-1.54V66.16h-2.11V63.83h2.11V60h3.48v3.8Z"/><path class="cls-2" d="M642.68,73.48a3.15,3.15,0,0,0,2.26.76,3.09,3.09,0,0,0,1.81-.53,2.19,2.19,0,0,0,.94-1.12h3.06a5.87,5.87,0,0,1-2.25,3.27,6.69,6.69,0,0,1-3.68,1,7.22,7.22,0,0,1-2.7-.48,5.67,5.67,0,0,1-2-1.36,6.18,6.18,0,0,1-1.29-2.11,7.8,7.8,0,0,1-.45-2.7,7.21,7.21,0,0,1,.47-2.65A6.1,6.1,0,0,1,642.18,64a6.45,6.45,0,0,1,2.64-.52,6,6,0,0,1,2.82.63,5.44,5.44,0,0,1,2,1.68,6.79,6.79,0,0,1,1.12,2.4A8.79,8.79,0,0,1,651,71h-9.15a3.56,3.56,0,0,0,.86,2.46m3.94-6.68a2.44,2.44,0,0,0-1.9-.68,3,3,0,0,0-1.39.28A2.62,2.62,0,0,0,642,68a4.23,4.23,0,0,0-.16.84h5.67a4,4,0,0,0-.87-2"/><path class="cls-2" d="M656,63.83v2.36h0a4.07,4.07,0,0,1,.66-1.09,4.35,4.35,0,0,1,1-.86,4.51,4.51,0,0,1,1.15-.55,4.18,4.18,0,0,1,1.28-.2,2.77,2.77,0,0,1,.76.12v3.24c-.17,0-.36-.06-.59-.08a5.07,5.07,0,0,0-.66,0,3.74,3.74,0,0,0-1.62.32,2.71,2.71,0,0,0-1.07.87,3.62,3.62,0,0,0-.58,1.29,7.25,7.25,0,0,0-.17,1.59v5.72h-3.48V63.83Z"/><path class="cls-2" d="M670.29,59a10.79,10.79,0,0,1,2.29.22,4.91,4.91,0,0,1,1.76.73,3.36,3.36,0,0,1,1.14,1.33,4.73,4.73,0,0,1,.41,2.06,3.84,3.84,0,0,1-.6,2.21A4.43,4.43,0,0,1,673.51,67a4.17,4.17,0,0,1,2.41,1.63,5.36,5.36,0,0,1,.29,5.1,4.55,4.55,0,0,1-1.39,1.59,5.93,5.93,0,0,1-2,.9,8.78,8.78,0,0,1-2.29.3h-8.49V59Zm-.49,7.09a2.78,2.78,0,0,0,1.7-.49,1.86,1.86,0,0,0,.66-1.59,2.13,2.13,0,0,0-.22-1,1.65,1.65,0,0,0-.59-.61,2.53,2.53,0,0,0-.85-.31,5.36,5.36,0,0,0-1-.09H665.9v4.1Zm.22,7.44a5.34,5.34,0,0,0,1.08-.11,2.76,2.76,0,0,0,.91-.37,1.94,1.94,0,0,0,.63-.7,2.49,2.49,0,0,0,.23-1.13,2.27,2.27,0,0,0-.76-1.93,3.28,3.28,0,0,0-2-.57h-4.2v4.81Z"/><path class="cls-2" d="M678.31,67.43a5.91,5.91,0,0,1,1.32-2.11A6,6,0,0,1,681.7,64a7.2,7.2,0,0,1,2.69-.48,7.36,7.36,0,0,1,2.72.48,5.76,5.76,0,0,1,3.39,3.46,8.31,8.31,0,0,1,0,5.51A6,6,0,0,1,689.18,75a5.61,5.61,0,0,1-2.07,1.34,7.57,7.57,0,0,1-2.72.47,7.41,7.41,0,0,1-2.69-.47A5.7,5.7,0,0,1,679.63,75a6,6,0,0,1-1.32-2.09,8.31,8.31,0,0,1,0-5.51m3.16,4.24A3.84,3.84,0,0,0,682,73a2.67,2.67,0,0,0,.94.92,2.91,2.91,0,0,0,1.47.35,3,3,0,0,0,1.49-.35,2.65,2.65,0,0,0,1-.92,4,4,0,0,0,.5-1.3,7.21,7.21,0,0,0,.15-1.48,7.48,7.48,0,0,0-.15-1.5,4,4,0,0,0-.5-1.3,2.92,2.92,0,0,0-1-.92,2.86,2.86,0,0,0-1.49-.35,2.81,2.81,0,0,0-1.47.35,3,3,0,0,0-.94.92,3.84,3.84,0,0,0-.51,1.3,8.29,8.29,0,0,0-.14,1.5,8,8,0,0,0,.14,1.48"/><polygon class="cls-2" points="691.22 63.83 695.19 63.83 697.42 67.15 699.63 63.83 703.49 63.83 699.31 69.77 704 76.52 700.03 76.52 697.38 72.52 694.73 76.52 690.82 76.52 695.39 69.85 691.22 63.83"/><path class="cls-3" d="M576.56,42a13.29,13.29,0,1,1-13.29-13.29A13.3,13.3,0,0,1,576.56,42"/><path class="cls-4" d="M570.12,38c-.15-.36-.32-.71-.48-1.07a.84.84,0,0,0-.3-.35.23.23,0,0,1-.08-.11,2.37,2.37,0,0,0-.22-.33.63.63,0,0,0-.48-.16l-.75,0,.16,1.81-.43.11-.15-1.72a.09.09,0,0,1-.07,0l-1.59,0a.12.12,0,0,1-.1,0,.34.34,0,0,0-.31-.14l-1.25,0a.4.4,0,0,0-.15,0l-1.52,0a.41.41,0,0,0-.19,0l-1.29,0a.32.32,0,0,0-.28.16.16.16,0,0,1-.09,0c-.14,0-.29.1-.43.1-.38,0-.77.11-1.15.11h0l-.09,1.66-.44-.13.11-1.91h-.88a.61.61,0,0,0-.6.4.44.44,0,0,1-.21.27.41.41,0,0,0-.18.25c-.32.93-.63,1.87-.95,2.81A.47.47,0,0,0,556,40l.48,0,2,0,9.64-.15,1.9,0,.47,0a.44.44,0,0,0,.31-.15c-.23-.55-.46-1.1-.7-1.65"/><path class="cls-4" d="M568.3,41a.06.06,0,0,1,0,.06l-1.66,0a.06.06,0,0,1-.06-.05l0-.73-6.29.1.05.73a0,0,0,0,1-.05,0h-1.66a0,0,0,0,1,0-.05l-.09-.71-2.27,0a.48.48,0,0,1,0,.18c.06.47.14.94.21,1.41,0,0,0,0,0,0l.46,1.26h0c0,.92,0,.25,0,.37l.15,1.1.3,2.16a2.7,2.7,0,0,1,0,.28.32.32,0,0,0,.26.25h.88a.24.24,0,0,0,.22-.15.1.1,0,0,1,.11-.07h.49c.33,0,8.08,0,8.25,0,0,0,.12,0,.14,0s0,0,0,.07a.17.17,0,0,0,.13.09c.31,0,.61,0,.92,0,.11,0,.17,0,.22-.07l.34-2.62h0c0-.16,0-.41.06-.59s.07-.52.1-.77h0l.46-1.47v0h0s0-.12,0-.16c.06-.47.13-1,.19-1.43a.21.21,0,0,1,0-.12l-2,0Z"/><text class="cls-5" transform="translate(593.32 55.27)"><tspan class="cls-6">S</tspan><tspan class="cls-7" x="15.94" y="0">hi</tspan><tspan x="35.45" y="0">n</tspan></text><text class="cls-5" transform="translate(642.55 55.27)">e</text><text class="cls-5" transform="translate(652.98 55.27)"> </text><text class="cls-8" transform="translate(659.35 55.27)">fo<tspan class="cls-9" x="21.72" y="0">r</tspan></text><rect class="cls-10" x="535.43" y="39.52" width="4.91" height="4.91" transform="translate(127.86 392.63) rotate(-45)"/><rect class="cls-10" x="560.81" y="14.11" width="4.91" height="4.91" transform="translate(153.27 403.15) rotate(-45)"/><rect class="cls-10" x="586.2" y="39.52" width="4.91" height="4.91" transform="translate(142.73 428.53) rotate(-45)"/><rect class="cls-10" x="581.8" y="20.61" width="3.42" height="3.42"/><rect class="cls-10" x="541.93" y="20.61" width="3.42" height="3.42"/><rect class="cls-10" x="560.81" y="64.93" width="4.91" height="4.91" transform="translate(117.23 417.9) rotate(-44.98)"/><rect class="cls-10" x="541.93" y="60.93" width="3.42" height="3.42"/><path class="cls-2" d="M562.47,26.87v-.65L550.61,14.37v14l2.48,2.48a15,15,0,0,1,9.38-3.93"/><path class="cls-2" d="M564.07,26.87a15.08,15.08,0,0,1,9.29,3.84l2.56-2.56v-14L564.07,26.05Z"/><path class="cls-2" d="M548.16,41.18a15.12,15.12,0,0,1,3.93-9.39l-2.48-2.47h-14l11.86,11.86Z"/><path class="cls-2" d="M578.37,42.77a15,15,0,0,1-3.87,9.32L577,54.63h14L579.13,42.77Z"/><path class="cls-2" d="M578.37,41.18h.82l11.86-11.86h-14l-2.56,2.57a15.05,15.05,0,0,1,3.84,9.29"/><path class="cls-2" d="M564.07,57.08v.76l11.85,11.85V55.74l-2.53-2.53a15.11,15.11,0,0,1-9.32,3.87"/><path class="cls-2" d="M562.47,57.08a15.06,15.06,0,0,1-9.29-3.85l-2.57,2.57v14L562.47,57.9Z"/><path class="cls-2" d="M548.16,42.77h-.82L535.49,54.63h14L552,52.06a15.06,15.06,0,0,1-3.85-9.29"/></g></g></svg>