<svg xmlns="http://www.w3.org/2000/svg" xmlns:xlink="http://www.w3.org/1999/xlink" viewBox="0 0 728 90"><defs><style>.cls-1{fill:none;}.cls-2{clip-path:url(#clip-path);}.cls-3{fill:#fff;}</style><clipPath id="clip-path"><path class="cls-1" d="M23.5,23.86h5.09v6.66a14.31,14.31,0,0,1-2.33.57,15,15,0,0,1-2.24.16,5.65,5.65,0,0,1-4.44-1.71,7.11,7.11,0,0,1-1.53-4.91,6.46,6.46,0,0,1,1.78-4.85A6.74,6.74,0,0,1,24.76,18a9.54,9.54,0,0,1,3.82.79L27.67,21a6.45,6.45,0,0,0-2.93-.7,3.6,3.6,0,0,0-2.83,1.19,4.63,4.63,0,0,0-1.06,3.19,5.12,5.12,0,0,0,.86,3.19A3,3,0,0,0,24.2,29a8.6,8.6,0,0,0,1.73-.17V26.13H23.5Zm18.07,7.22h-7.4V18.23h7.4v2.23H36.9v2.82h4.35v2.23H36.9v3.32h4.67Zm10.16,0H49V20.49H45.52V18.23h9.7v2.26H51.73Zm19.18-7.56,2.68-5.29h2.94l-4.26,7.84v5H69.56V26.16L65.3,18.23h3Zm21.42,1.11a7,7,0,0,1-1.58,4.91,6.87,6.87,0,0,1-9.07,0,7,7,0,0,1-1.59-4.92,6.88,6.88,0,0,1,1.59-4.9A5.93,5.93,0,0,1,86.23,18a5.85,5.85,0,0,1,4.53,1.71A7,7,0,0,1,92.33,24.63Zm-9.38,0a5.35,5.35,0,0,0,.82,3.25A2.87,2.87,0,0,0,86.21,29q3.26,0,3.26-4.34t-3.24-4.34a2.87,2.87,0,0,0-2.45,1.1A5.34,5.34,0,0,0,83,24.63Zm25-6.4v8.31a4.77,4.77,0,0,1-.64,2.5,4.15,4.15,0,0,1-1.84,1.64,6.59,6.59,0,0,1-2.85.57A5.45,5.45,0,0,1,98.79,30a4.5,4.5,0,0,1-1.37-3.47V18.23h2.72v7.86a3.28,3.28,0,0,0,.6,2.18,2.48,2.48,0,0,0,2,.7,2.44,2.44,0,0,0,1.94-.7,3.34,3.34,0,0,0,.6-2.2V18.23Zm8.39,7.91v4.94h-2.72V18.23h3.74a6.39,6.39,0,0,1,3.88.95,3.4,3.4,0,0,1,1.25,2.9,3.37,3.37,0,0,1-.62,2,4.22,4.22,0,0,1-1.77,1.39c1.94,2.89,3.2,4.75,3.78,5.6h-3l-3.07-4.94Zm0-2.21h.88a3.35,3.35,0,0,0,1.91-.43,1.54,1.54,0,0,0,.61-1.35,1.42,1.42,0,0,0-.63-1.31,3.85,3.85,0,0,0-1.94-.38h-.83Zm21.56,7.15h-2.68V18.23h7.36v2.23h-4.68v3.31h4.36V26h-4.36Zm12.44-4.94v4.94h-2.73V18.23h3.75a6.36,6.36,0,0,1,3.87.95,3.41,3.41,0,0,1,1.26,2.9,3.44,3.44,0,0,1-.62,2,4.22,4.22,0,0,1-1.77,1.39c1.93,2.89,3.19,4.75,3.78,5.6h-3l-3.07-4.94Zm0-2.21h.88a3.35,3.35,0,0,0,1.91-.43,1.54,1.54,0,0,0,.61-1.35,1.42,1.42,0,0,0-.63-1.31,3.9,3.9,0,0,0-1.94-.38h-.83Zm19.08,7.15H162V18.23h7.4v2.23h-4.68v2.82h4.35v2.23h-4.35v3.32h4.68Zm12.6,0h-7.4V18.23H182v2.23h-4.68v2.82h4.35v2.23h-4.35v3.32H182ZM21.3,50.08H18.62V37.23H26v2.23H21.3v3.31h4.36V45H21.3ZM41.48,37.23v8.31a4.87,4.87,0,0,1-.64,2.5A4.2,4.2,0,0,1,39,49.68a6.59,6.59,0,0,1-2.85.57A5.44,5.44,0,0,1,32.3,49a4.5,4.5,0,0,1-1.37-3.47V37.23h2.71v7.86a3.28,3.28,0,0,0,.6,2.18,2.5,2.5,0,0,0,2,.7,2.45,2.45,0,0,0,1.94-.7,3.34,3.34,0,0,0,.6-2.2V37.23ZM58.54,50.08H55.08l-5.59-9.73h-.08c.11,1.72.17,2.95.17,3.68v6H47.14V37.23h3.44l5.58,9.62h.06c-.09-1.67-.13-2.85-.13-3.54V37.23h2.45ZM75,43.53a6.32,6.32,0,0,1-1.81,4.86,7.37,7.37,0,0,1-5.21,1.69H64.3V37.23h4a6.79,6.79,0,0,1,4.89,1.66A6.09,6.09,0,0,1,75,43.53Zm-2.83.07q0-4.14-3.66-4.14H67v8.37h1.17C70.81,47.83,72.13,46.42,72.13,43.6Zm10.74,1.54v4.94H80.14V37.23h3.74a6.39,6.39,0,0,1,3.88,1,3.78,3.78,0,0,1,.63,4.91,4.13,4.13,0,0,1-1.76,1.39c1.93,2.89,3.19,4.75,3.78,5.6h-3l-3.06-4.94Zm0-2.21h.87a3.33,3.33,0,0,0,1.91-.43,1.54,1.54,0,0,0,.62-1.35,1.42,1.42,0,0,0-.63-1.31,3.92,3.92,0,0,0-2-.38h-.82Zm19.54,7.15L101.48,47H96.79l-.93,3.06H92.93l4.53-12.91h3.33l4.56,12.91Zm-1.58-5.35L99.37,40c-.11-.36-.18-.65-.23-.86-.19.75-.75,2.6-1.66,5.56Zm8.65,5.35V37.23h2.73V50.08Zm16.07-3.57a3.31,3.31,0,0,1-1.26,2.74,5.4,5.4,0,0,1-3.48,1,8.26,8.26,0,0,1-3.64-.77V47a14.8,14.8,0,0,0,2.2.81A6.45,6.45,0,0,0,121,48a2.34,2.34,0,0,0,1.38-.34,1.2,1.2,0,0,0,.48-1,1.12,1.12,0,0,0-.22-.67,2.17,2.17,0,0,0-.62-.57,15.81,15.81,0,0,0-1.66-.87,7.79,7.79,0,0,1-1.77-1.06,4.16,4.16,0,0,1-.94-1.19,3.44,3.44,0,0,1-.35-1.58A3.32,3.32,0,0,1,118.48,38a4.79,4.79,0,0,1,3.19-1,7.4,7.4,0,0,1,1.91.24,12.77,12.77,0,0,1,1.9.67l-.87,2.11a13.23,13.23,0,0,0-1.7-.58,5.11,5.11,0,0,0-1.33-.17,1.73,1.73,0,0,0-1.18.36,1.17,1.17,0,0,0-.42.94,1.19,1.19,0,0,0,.17.63,1.88,1.88,0,0,0,.53.52,19.24,19.24,0,0,0,1.73.9,6.84,6.84,0,0,1,2.47,1.73A3.38,3.38,0,0,1,125.55,46.51Zm4.85,3.57V37.23h2.72V50.08Zm19.87,0h-3.46l-5.59-9.73h-.08c.11,1.72.17,2.95.17,3.68v6h-2.43V37.23h3.43l5.58,9.62H148c-.08-1.67-.13-2.85-.13-3.54V37.23h2.45Zm10.64-7.22H166v6.66a14.31,14.31,0,0,1-2.33.57,15,15,0,0,1-2.24.16A5.65,5.65,0,0,1,157,48.54a7.11,7.11,0,0,1-1.53-4.91,6.46,6.46,0,0,1,1.78-4.85A6.74,6.74,0,0,1,162.17,37a9.54,9.54,0,0,1,3.82.79L165.08,40a6.45,6.45,0,0,0-2.93-.7,3.6,3.6,0,0,0-2.83,1.19,4.63,4.63,0,0,0-1.06,3.19,5.12,5.12,0,0,0,.86,3.19,3,3,0,0,0,2.49,1.1,8.6,8.6,0,0,0,1.73-.17V45.13h-2.43ZM27.5,60.23a4,4,0,0,1-1.3,3.18,5.57,5.57,0,0,1-3.69,1.1H21.34v4.57H18.62V56.23h4.1a5.47,5.47,0,0,1,3.56,1A3.67,3.67,0,0,1,27.5,60.23Zm-6.16,2h.9a3,3,0,0,0,1.88-.49,1.73,1.73,0,0,0,.62-1.45,1.76,1.76,0,0,0-.52-1.41,2.42,2.42,0,0,0-1.64-.46H21.34Zm19,6.81L39.38,66H34.69l-.93,3.06H30.82l4.54-12.91h3.33l4.55,12.91Zm-1.59-5.35q-1.29-4.15-1.45-4.7c-.11-.36-.19-.65-.23-.86q-.3,1.13-1.66,5.56Zm14.12-5.42a2.74,2.74,0,0,0-2.38,1.16,5.31,5.31,0,0,0-.85,3.22q0,4.29,3.23,4.29a10.25,10.25,0,0,0,3.28-.67v2.28a9.15,9.15,0,0,1-3.54.66,5.4,5.4,0,0,1-4.29-1.7,7.19,7.19,0,0,1-1.48-4.88,7.89,7.89,0,0,1,.73-3.51,5.17,5.17,0,0,1,2.09-2.31A6.17,6.17,0,0,1,52.84,56,8.55,8.55,0,0,1,56.6,57l-.88,2.21a13.86,13.86,0,0,0-1.45-.6A4.31,4.31,0,0,0,52.84,58.31ZM71.71,69.08h-3.1l-3.36-5.42-1.16.83v4.59H61.37V56.23h2.72v5.88l1.08-1.52,3.48-4.36h3l-4.48,5.68Zm22.73,0H91l-5.59-9.73h-.07c.11,1.72.16,2.95.16,3.68v6H83V56.23h3.43l5.59,9.62h.06C92,64.18,92,63,92,62.31V56.23h2.45Zm17.42-6.45a7,7,0,0,1-1.59,4.91,6.87,6.87,0,0,1-9.07,0,7,7,0,0,1-1.58-4.92,6.88,6.88,0,0,1,1.59-4.9,5.93,5.93,0,0,1,4.55-1.7,5.85,5.85,0,0,1,4.53,1.71A7,7,0,0,1,111.86,62.63Zm-9.38,0a5.43,5.43,0,0,0,.81,3.25A2.89,2.89,0,0,0,105.74,67Q109,67,109,62.63t-3.24-4.34a2.89,2.89,0,0,0-2.46,1.1A5.34,5.34,0,0,0,102.48,62.63Zm27.07,6.45h-3.1l-1.74-6.75c-.06-.24-.17-.74-.33-1.49s-.24-1.26-.27-1.52c0,.32-.12.82-.26,1.52s-.25,1.2-.32,1.5l-1.74,6.74H118.7l-3.28-12.85h2.68l1.65,7c.28,1.29.49,2.42.62,3.37,0-.34.12-.85.24-1.56s.25-1.24.36-1.63l1.87-7.19h2.57l1.88,7.19c.08.33.18.82.3,1.48s.22,1.23.29,1.71c.05-.46.15-1,.28-1.71s.24-1.24.35-1.66l1.63-7h2.68Z"/></clipPath></defs><title>text3</title><g id="Layer_2" data-name="Layer 2"><g id="Layer_1-2" data-name="Layer 1"><g class="cls-2"><rect class="cls-3" width="728" height="90"/></g></g></g></svg>