<svg xmlns="http://www.w3.org/2000/svg" xmlns:xlink="http://www.w3.org/1999/xlink" viewBox="0 0 728 90"><defs><style>.cls-1{fill:none;}.cls-2{clip-path:url(#clip-path);}.cls-3{fill:#fff;}</style><clipPath id="clip-path"><path class="cls-1" d="M26.48,21.58l-.93-3.06H20.87l-.93,3.06H17L21.54,8.67h3.33l4.55,12.91ZM24.9,16.23q-1.29-4.15-1.45-4.7c-.11-.36-.19-.65-.24-.86q-.29,1.13-1.66,5.56ZM45,21.58H41.49L35.9,11.85h-.08c.12,1.72.17,3,.17,3.68v6H33.56V8.73H37l5.58,9.62h.07c-.09-1.67-.14-2.85-.14-3.54V8.73H45ZM61.37,15a6.35,6.35,0,0,1-1.8,4.86,7.41,7.41,0,0,1-5.22,1.69H50.71V8.73h4a6.78,6.78,0,0,1,4.88,1.66A6.09,6.09,0,0,1,61.37,15Zm-2.83.07q0-4.14-3.65-4.14H53.44v8.37H54.6Q58.54,19.33,58.54,15.1Zm25.74,6.48H81.56V16H76.48v5.55H73.75V8.73h2.73v5h5.08v-5h2.72Zm13.16,0H90V8.73h7.4V11H92.77v2.82h4.35V16H92.77v3.32h4.67Zm5.2,0V8.73h2.73v10.6h5.21v2.25Zm21.57-8.85a3.93,3.93,0,0,1-1.3,3.18,5.54,5.54,0,0,1-3.68,1.1h-1.17v4.57h-2.73V8.73h4.11a5.44,5.44,0,0,1,3.55,1A3.67,3.67,0,0,1,124.21,12.73Zm-6.15,2h.9a3,3,0,0,0,1.88-.49,1.76,1.76,0,0,0,.62-1.45,1.76,1.76,0,0,0-.52-1.41A2.43,2.43,0,0,0,119.3,11h-1.24Zm23.17-.41h5.1V21a14.67,14.67,0,0,1-2.34.57,14.91,14.91,0,0,1-2.23.16A5.68,5.68,0,0,1,137.31,20a7.11,7.11,0,0,1-1.53-4.91,6.46,6.46,0,0,1,1.78-4.85,6.77,6.77,0,0,1,4.94-1.74,9.49,9.49,0,0,1,3.81.79l-.91,2.18a6.41,6.41,0,0,0-2.92-.7A3.59,3.59,0,0,0,139.65,12a4.59,4.59,0,0,0-1.07,3.19,5.12,5.12,0,0,0,.86,3.19,3,3,0,0,0,2.49,1.1,8.53,8.53,0,0,0,1.73-.17V16.63h-2.43Zm10.68,7.22V8.73h2.72V21.58Zm15.8-12.85h2.76L166.1,21.58h-3L158.77,8.73h2.75l2.42,7.64c.13.45.27,1,.41,1.58s.24,1,.27,1.25a24.77,24.77,0,0,1,.66-2.83ZM182,21.58h-7.4V8.73H182V11h-4.67v2.82h4.35V16h-4.35v3.32H182Zm-156,19h-7.4V27.73H26V30H21.34v2.82h4.35V35H21.34v3.32H26Zm10.64,0L33.57,30.49h-.08c.11,2.06.16,3.42.16,4.11v6H31.22V27.73h3.71l3,9.82H38l3.23-9.82H45V40.58H42.42V34.49c0-.28,0-.61,0-1s0-1.37.12-3h-.08L39.16,40.58Zm21.45,0h-7.4V27.73h7.4V30H53.44v2.82h4.35V35H53.44v3.32h4.67ZM66,35.64v4.94H63.31V27.73h3.75a6.38,6.38,0,0,1,3.87.95,3.78,3.78,0,0,1,.63,4.91A4.13,4.13,0,0,1,69.8,35c1.93,2.89,3.19,4.75,3.78,5.6h-3l-3.06-4.94Zm0-2.21h.88a3.32,3.32,0,0,0,1.9-.43,1.54,1.54,0,0,0,.62-1.35,1.42,1.42,0,0,0-.63-1.31,3.92,3.92,0,0,0-2-.38H66Zm16.55-.07h5.1V40a14.57,14.57,0,0,1-2.33.57,15,15,0,0,1-2.24.16A5.65,5.65,0,0,1,78.68,39a7.07,7.07,0,0,1-1.54-4.91,6.5,6.5,0,0,1,1.78-4.85,6.77,6.77,0,0,1,4.94-1.74,9.46,9.46,0,0,1,3.81.79l-.9,2.18a6.48,6.48,0,0,0-2.93-.7A3.59,3.59,0,0,0,81,31,4.59,4.59,0,0,0,80,34.19a5.12,5.12,0,0,0,.85,3.19,3,3,0,0,0,2.5,1.1A8.67,8.67,0,0,0,85,38.31V35.63H82.59Zm18.08,7.22h-7.4V27.73h7.4V30H96v2.82h4.35V35H96v3.32h4.68Zm16.6,0h-3.46l-5.59-9.73h-.08c.11,1.72.16,2.95.16,3.68v6h-2.43V27.73h3.44l5.58,9.62H115c-.09-1.67-.13-2.85-.13-3.54V27.73h2.45Zm11.21-10.77A2.76,2.76,0,0,0,126.1,31a5.38,5.38,0,0,0-.84,3.22q0,4.29,3.22,4.29a10.2,10.2,0,0,0,3.28-.67v2.28a9.06,9.06,0,0,1-3.53.66,5.4,5.4,0,0,1-4.29-1.7,7.19,7.19,0,0,1-1.49-4.88,8,8,0,0,1,.73-3.51,5.24,5.24,0,0,1,2.1-2.31,6.16,6.16,0,0,1,3.2-.81,8.55,8.55,0,0,1,3.76.91l-.87,2.21a15,15,0,0,0-1.46-.6A4.27,4.27,0,0,0,128.48,29.81ZM141,33l2.68-5.29h2.94l-4.26,7.84v5h-2.71V35.66l-4.26-7.93h2.95Zm17,7.56V27.73h2.73v10.6h5.21v2.25Zm12.69,0V27.73h2.73V40.58ZM184,33.36h5.1V40a14.67,14.67,0,0,1-2.34.57,14.91,14.91,0,0,1-2.23.16A5.67,5.67,0,0,1,180.09,39a7.11,7.11,0,0,1-1.53-4.91,6.46,6.46,0,0,1,1.78-4.85,6.74,6.74,0,0,1,4.93-1.74,9.54,9.54,0,0,1,3.82.79l-.91,2.18a6.41,6.41,0,0,0-2.92-.7A3.57,3.57,0,0,0,182.43,31a4.59,4.59,0,0,0-1.07,3.19,5.12,5.12,0,0,0,.86,3.19,3,3,0,0,0,2.49,1.1,8.53,8.53,0,0,0,1.73-.17V35.63H184Zm21.2,7.22H202.5V35h-5.09v5.55h-2.73V27.73h2.73v5h5.09v-5h2.71Zm10.72,0h-2.72V30h-3.49V27.73h9.7V30h-3.49Zm-192.35,19H20.85V49H17.36V46.73h9.7V49H23.58Zm19.64-6.45A7,7,0,0,1,41.64,58a5.85,5.85,0,0,1-4.53,1.71A5.89,5.89,0,0,1,32.57,58,7,7,0,0,1,31,53.12a6.88,6.88,0,0,1,1.59-4.9,5.91,5.91,0,0,1,4.54-1.7,5.86,5.86,0,0,1,4.54,1.71A7,7,0,0,1,43.22,53.13Zm-9.37,0a5.43,5.43,0,0,0,.81,3.25,2.89,2.89,0,0,0,2.45,1.09q3.26,0,3.26-4.34t-3.25-4.34a2.88,2.88,0,0,0-2.45,1.1A5.34,5.34,0,0,0,33.85,53.13Zm17.24,6.45H48.41V46.73h7.36V49H51.09v3.31h4.36V54.5H51.09Zm17.58,0-.93-3.06H63.06l-.94,3.06H59.19l4.53-12.91h3.34l4.55,12.91Zm-1.58-5.35q-1.29-4.15-1.45-4.7c-.11-.36-.19-.65-.24-.86q-.29,1.13-1.66,5.56Zm14.1,5.35-3.1-10.09H78c.11,2.06.17,3.42.17,4.11v6H75.75V46.73h3.71l3,9.82h0l3.22-9.82h3.71V59.58H86.94V53.49c0-.28,0-.61,0-1s0-1.37.12-3H87L83.68,59.58Zm14,0V46.73H98V59.58Zm8.48,0V46.73h2.72v10.6h5.21v2.25Zm12.69,0V46.73h2.72V59.58Zm15.88,0h-7.41V46.73h7.41V49h-4.68v2.82H132V54h-4.35v3.32h4.68ZM145.07,56a3.33,3.33,0,0,1-1.25,2.74,5.45,5.45,0,0,1-3.49,1A8.21,8.21,0,0,1,136.7,59V56.45a14.41,14.41,0,0,0,2.2.81,6.44,6.44,0,0,0,1.64.24,2.34,2.34,0,0,0,1.38-.34,1.18,1.18,0,0,0,.48-1,1.11,1.11,0,0,0-.21-.67,2.31,2.31,0,0,0-.62-.57A16.32,16.32,0,0,0,139.9,54,7.92,7.92,0,0,1,138.14,53a3.84,3.84,0,0,1-.94-1.19,3.67,3.67,0,0,1,.8-4.26,4.82,4.82,0,0,1,3.2-1,7.52,7.52,0,0,1,1.91.24,13.18,13.18,0,0,1,1.9.67l-.88,2.11a12.27,12.27,0,0,0-1.7-.58,5.09,5.09,0,0,0-1.32-.17,1.76,1.76,0,0,0-1.19.36,1.17,1.17,0,0,0-.41.94,1.18,1.18,0,0,0,.16.63,1.93,1.93,0,0,0,.54.52c.24.16.82.46,1.72.9a6.75,6.75,0,0,1,2.47,1.73A3.32,3.32,0,0,1,145.07,56Zm17,3.57h-2.72V49h-3.49V46.73h9.7V49h-3.49Zm18.52,0h-2.72V54h-5.09v5.55h-2.72V46.73h2.72v5h5.09v-5h2.72Zm5.76,0V46.73h2.73V59.58ZM202.42,56a3.31,3.31,0,0,1-1.26,2.74,5.4,5.4,0,0,1-3.48,1A8.26,8.26,0,0,1,194,59V56.45a14.8,14.8,0,0,0,2.2.81,6.45,6.45,0,0,0,1.65.24,2.29,2.29,0,0,0,1.37-.34,1.18,1.18,0,0,0,.48-1,1.11,1.11,0,0,0-.21-.67,2.17,2.17,0,0,0-.62-.57,15.81,15.81,0,0,0-1.66-.87A7.79,7.79,0,0,1,195.48,53a4.16,4.16,0,0,1-.94-1.19,3.44,3.44,0,0,1-.35-1.58,3.31,3.31,0,0,1,1.15-2.68,4.84,4.84,0,0,1,3.2-1,7.46,7.46,0,0,1,1.91.24,12.77,12.77,0,0,1,1.9.67l-.87,2.11a12.79,12.79,0,0,0-1.71-.58,5,5,0,0,0-1.32-.17,1.73,1.73,0,0,0-1.18.36,1.17,1.17,0,0,0-.42.94,1.19,1.19,0,0,0,.17.63,1.88,1.88,0,0,0,.53.52,19.24,19.24,0,0,0,1.73.9,6.84,6.84,0,0,1,2.47,1.73A3.38,3.38,0,0,1,202.42,56ZM31.13,78.58H28l-1.74-6.75c-.06-.24-.17-.74-.33-1.49s-.24-1.26-.27-1.52c0,.32-.12.82-.26,1.52s-.25,1.2-.33,1.5l-1.73,6.74H20.28L17,65.73h2.68l1.65,7c.28,1.29.49,2.42.62,3.37,0-.34.11-.85.24-1.56s.25-1.24.36-1.63l1.87-7.19H27l1.88,7.19c.08.33.18.82.3,1.48s.22,1.23.29,1.71c.05-.46.15-1,.28-1.71s.24-1.24.35-1.66l1.63-7H34.4Zm7.41,0V65.73h2.73V78.58Zm19.88,0H55l-5.59-9.73h-.08c.11,1.72.16,3,.16,3.68v6H47V65.73h3.44L56,75.35h.06C56,73.68,56,72.5,56,71.81V65.73h2.45Zm10.71,0H66.41V68H62.92V65.73h9.7V68H69.13Zm15.39,0h-7.4V65.73h7.4V68H79.84v2.82h4.35V73H79.84v3.32h4.68Zm7.92-4.94v4.94H89.72V65.73h3.74a6.39,6.39,0,0,1,3.88,1A3.78,3.78,0,0,1,98,71.59,4.19,4.19,0,0,1,96.21,73c1.93,2.89,3.19,4.75,3.77,5.6H97l-3.07-4.94Zm0-2.21h.88A3.35,3.35,0,0,0,95.23,71a1.54,1.54,0,0,0,.61-1.35,1.44,1.44,0,0,0-.62-1.31,3.92,3.92,0,0,0-2-.38h-.83Z"/></clipPath></defs><title>text2_1</title><g id="Layer_2" data-name="Layer 2"><g id="Layer_1-2" data-name="Layer 1"><g class="cls-2"><rect class="cls-3" width="728" height="90"/></g></g></g></svg>