<svg xmlns="http://www.w3.org/2000/svg" xmlns:xlink="http://www.w3.org/1999/xlink" viewBox="0 0 728 90"><defs><style>.cls-1,.cls-10,.cls-11,.cls-12,.cls-13,.cls-14,.cls-15,.cls-16,.cls-17,.cls-18,.cls-19,.cls-2,.cls-20,.cls-21,.cls-22,.cls-23,.cls-24,.cls-25,.cls-26,.cls-3,.cls-4,.cls-5,.cls-6,.cls-7,.cls-8,.cls-9{fill:#fff;}.cls-2{clip-path:url(#clip-path);}.cls-3{clip-path:url(#clip-path-2);}.cls-4{clip-path:url(#clip-path-25);}.cls-5{clip-path:url(#clip-path-3);}.cls-6{clip-path:url(#clip-path-4);}.cls-7{clip-path:url(#clip-path-5);}.cls-8{clip-path:url(#clip-path-6);}.cls-9{clip-path:url(#clip-path-7);}.cls-10{clip-path:url(#clip-path-8);}.cls-11{clip-path:url(#clip-path-9);}.cls-12{clip-path:url(#clip-path-10);}.cls-13{clip-path:url(#clip-path-11);}.cls-14{clip-path:url(#clip-path-12);}.cls-15{clip-path:url(#clip-path-13);}.cls-16{clip-path:url(#clip-path-14);}.cls-17{clip-path:url(#clip-path-15);}.cls-18{clip-path:url(#clip-path-16);}.cls-19{clip-path:url(#clip-path-17);}.cls-20{clip-path:url(#clip-path-18);}.cls-21{clip-path:url(#clip-path-19);}.cls-22{clip-path:url(#clip-path-20);}.cls-23{clip-path:url(#clip-path-21);}.cls-24{clip-path:url(#clip-path-22);}.cls-25{clip-path:url(#clip-path-23);}.cls-26{clip-path:url(#clip-path-24);}.cls-27{clip-path:url(#clip-path-26);}</style><clipPath id="clip-path"><path class="cls-1" d="M24.06,41.91,21,31.83h-.07c.11,2.05.16,3.42.16,4.1v6H18.62V29.06h3.71l3,9.82h.05l3.23-9.82h3.71V41.91H29.82V35.83c0-.29,0-.62,0-1s.05-1.37.12-3h-.08L26.55,41.91Z"/></clipPath><clipPath id="clip-path-2"><path class="cls-4" d="M180.2,41.91h-7.41V29.06h7.41v2.23h-4.68v2.82h4.35v2.23h-4.35v3.32h4.68Z"/></clipPath><clipPath id="clip-path-3"><path class="cls-3" d="M195.79,41.91h-3.12l-3-4.86-3,4.86h-2.92L188,35.28l-4-6.22h3l2.77,4.62,2.71-4.62h2.94l-4,6.37Z"/></clipPath><clipPath id="clip-path-4"><path class="cls-5" d="M204.88,41.91h-2.73V31.33h-3.48V29.06h9.7v2.27h-3.49Z"/></clipPath><clipPath id="clip-path-5"><path class="cls-6" d="M23.5,53.69h5.09v6.66a14.31,14.31,0,0,1-2.33.57,15,15,0,0,1-2.24.16,5.65,5.65,0,0,1-4.44-1.71,7.11,7.11,0,0,1-1.53-4.91,6.46,6.46,0,0,1,1.78-4.85,6.74,6.74,0,0,1,4.93-1.74,9.72,9.72,0,0,1,3.82.79l-.91,2.18a6.58,6.58,0,0,0-2.93-.7,3.63,3.63,0,0,0-2.83,1.19,4.63,4.63,0,0,0-1.06,3.19,5.12,5.12,0,0,0,.86,3.19,3,3,0,0,0,2.49,1.11,8.62,8.62,0,0,0,1.73-.18V56H23.5Z"/></clipPath><clipPath id="clip-path-6"><path class="cls-7" d="M41.57,60.91h-7.4V48.06h7.4v2.23H36.9v2.82h4.35v2.23H36.9v3.32h4.67Z"/></clipPath><clipPath id="clip-path-7"><path class="cls-8" d="M51.73,60.91H49V50.33H45.52V48.06h9.7v2.27H51.73Z"/></clipPath><clipPath id="clip-path-8"><path class="cls-9" d="M71.87,60.91H69.15V50.33H65.66V48.06h9.7v2.27H71.87Z"/></clipPath><clipPath id="clip-path-9"><path class="cls-10" d="M91.52,54.46a7,7,0,0,1-1.58,4.91,6.87,6.87,0,0,1-9.07,0,7,7,0,0,1-1.58-4.92,6.89,6.89,0,0,1,1.58-4.9,5.94,5.94,0,0,1,4.55-1.69A5.83,5.83,0,0,1,90,49.56,7,7,0,0,1,91.52,54.46Zm-9.38,0A5.35,5.35,0,0,0,83,57.71,2.87,2.87,0,0,0,85.4,58.8c2.18,0,3.26-1.45,3.26-4.34s-1.08-4.34-3.24-4.34A2.88,2.88,0,0,0,83,51.22,5.34,5.34,0,0,0,82.14,54.46Z"/></clipPath><clipPath id="clip-path-10"><path class="cls-11" d="M101.58,53.69h5.1v6.66a14.83,14.83,0,0,1-2.33.57,15,15,0,0,1-2.24.16,5.65,5.65,0,0,1-4.44-1.71,7.07,7.07,0,0,1-1.54-4.91,6.46,6.46,0,0,1,1.78-4.85,6.77,6.77,0,0,1,4.94-1.74,9.63,9.63,0,0,1,3.81.79l-.9,2.18a6.61,6.61,0,0,0-2.93-.7A3.62,3.62,0,0,0,100,51.33a4.59,4.59,0,0,0-1.06,3.19,5.12,5.12,0,0,0,.85,3.19,3,3,0,0,0,2.49,1.11,8.72,8.72,0,0,0,1.74-.18V56h-2.44Z"/></clipPath><clipPath id="clip-path-11"><path class="cls-12" d="M119.66,60.91h-7.4V48.06h7.4v2.23H115v2.82h4.35v2.23H115v3.32h4.68Z"/></clipPath><clipPath id="clip-path-12"><path class="cls-2" d="M46,41.91,45,38.85H40.36l-.93,3.06H36.49L41,29h3.33l4.55,12.91Zm-1.59-5.35q-1.29-4.16-1.45-4.7c-.11-.36-.19-.65-.23-.86-.2.75-.75,2.6-1.67,5.56Z"/></clipPath><clipPath id="clip-path-13"><path class="cls-13" d="M129.82,60.91h-2.73V50.33H123.6V48.06h9.7v2.27h-3.48Z"/></clipPath><clipPath id="clip-path-14"><path class="cls-15" d="M148.33,60.91h-2.71V55.36h-5.09v5.55H137.8V48.06h2.73v5h5.09v-5h2.71Z"/></clipPath><clipPath id="clip-path-15"><path class="cls-16" d="M161.5,60.91h-7.41V48.06h7.41v2.23h-4.68v2.82h4.35v2.23h-4.35v3.32h4.68Z"/></clipPath><clipPath id="clip-path-16"><path class="cls-17" d="M169.42,56v4.93H166.7V48.06h3.74a6.46,6.46,0,0,1,3.88.95,3.81,3.81,0,0,1,.63,4.91,4.22,4.22,0,0,1-1.77,1.39c1.94,2.89,3.2,4.75,3.78,5.6h-3L170.87,56Zm0-2.22h.88a3.35,3.35,0,0,0,1.91-.43,1.54,1.54,0,0,0,.61-1.35,1.39,1.39,0,0,0-.63-1.3,3.78,3.78,0,0,0-1.94-.39h-.83Z"/></clipPath><clipPath id="clip-path-17"><path class="cls-18" d="M180.51,59.65a1.48,1.48,0,0,1,.4-1.12,1.59,1.59,0,0,1,1.15-.37,1.61,1.61,0,0,1,1.13.38,1.51,1.51,0,0,1,.4,1.11,1.46,1.46,0,0,1-.41,1.09,1.51,1.51,0,0,1-1.12.4,1.59,1.59,0,0,1-1.15-.39A1.46,1.46,0,0,1,180.51,59.65Z"/></clipPath><clipPath id="clip-path-18"><path class="cls-19" d="M188.16,59.65a1.48,1.48,0,0,1,.4-1.12,1.61,1.61,0,0,1,1.15-.37,1.59,1.59,0,0,1,1.13.38,1.51,1.51,0,0,1,.4,1.11,1.46,1.46,0,0,1-.41,1.09,1.51,1.51,0,0,1-1.12.4,1.58,1.58,0,0,1-1.14-.39A1.46,1.46,0,0,1,188.16,59.65Z"/></clipPath><clipPath id="clip-path-19"><path class="cls-14" d="M63.38,41.91H60.29l-3.37-5.42-1.15.83v4.59H53.05V29.06h2.72v5.88l1.08-1.51,3.48-4.37h3l-4.48,5.68Z"/></clipPath><clipPath id="clip-path-20"><path class="cls-21" d="M74.92,41.91h-7.4V29.06h7.4v2.23H70.25v2.82H74.6v2.23H70.25v3.32h4.67Z"/></clipPath><clipPath id="clip-path-21"><path class="cls-22" d="M91.32,34.35,94,29.06h2.93l-4.26,7.85v5H90V37L85.7,29.06h3Z"/></clipPath><clipPath id="clip-path-22"><path class="cls-23" d="M112.73,35.46a7,7,0,0,1-1.58,4.91,6.87,6.87,0,0,1-9.07,0,7,7,0,0,1-1.58-4.92,6.9,6.9,0,0,1,1.59-4.9,6.93,6.93,0,0,1,9.08,0A7,7,0,0,1,112.73,35.46Zm-9.37,0a5.43,5.43,0,0,0,.81,3.25,2.89,2.89,0,0,0,2.45,1.09q3.25,0,3.26-4.34t-3.25-4.34a2.88,2.88,0,0,0-2.45,1.1A5.34,5.34,0,0,0,103.36,35.46Z"/></clipPath><clipPath id="clip-path-23"><path class="cls-24" d="M128.38,29.06v8.31a4.87,4.87,0,0,1-.64,2.5,4.2,4.2,0,0,1-1.84,1.64,6.59,6.59,0,0,1-2.85.57,5.45,5.45,0,0,1-3.85-1.27,4.5,4.5,0,0,1-1.37-3.47V29.06h2.71v7.86a3.28,3.28,0,0,0,.6,2.18,3.09,3.09,0,0,0,3.92,0,3.33,3.33,0,0,0,.6-2.19V29.06Z"/></clipPath><clipPath id="clip-path-24"><path class="cls-25" d="M136.77,37v4.93H134V29.06h3.75a6.43,6.43,0,0,1,3.87,1,3.8,3.8,0,0,1,.64,4.91,4.22,4.22,0,0,1-1.77,1.39c1.93,2.89,3.19,4.75,3.78,5.6h-3L138.22,37Zm0-2.22h.88a3.32,3.32,0,0,0,1.9-.43,1.54,1.54,0,0,0,.62-1.35,1.39,1.39,0,0,0-.63-1.3,3.8,3.8,0,0,0-1.95-.39h-.82Z"/></clipPath><clipPath id="clip-path-25"><path class="cls-26" d="M167,41.91h-3.46L158,32.19h-.08c.11,1.71.17,2.94.17,3.67v6h-2.44V29.06h3.44l5.58,9.62h.06c-.09-1.67-.13-2.85-.13-3.54V29.06H167Z"/></clipPath><clipPath id="clip-path-26"><path class="cls-20" d="M195.82,59.65a1.51,1.51,0,0,1,.39-1.12,1.61,1.61,0,0,1,1.15-.37,1.59,1.59,0,0,1,1.13.38,1.47,1.47,0,0,1,.4,1.11,1.45,1.45,0,0,1-.4,1.09,1.53,1.53,0,0,1-1.13.4,1.58,1.58,0,0,1-1.14-.39A1.46,1.46,0,0,1,195.82,59.65Z"/></clipPath></defs><title>text1_1</title><g id="Layer_2" data-name="Layer 2"><g id="Layer_1-2" data-name="Layer 1"><path class="cls-1" d="M24.06,41.91,21,31.83h-.07c.11,2.05.16,3.42.16,4.1v6H18.62V29.06h3.71l3,9.82h.05l3.23-9.82h3.71V41.91H29.82V35.83c0-.29,0-.62,0-1s.05-1.37.12-3h-.08L26.55,41.91Z"/><path class="cls-1" d="M46,41.91,45,38.85H40.36l-.93,3.06H36.49L41,29h3.33l4.55,12.91Zm-1.59-5.35q-1.29-4.16-1.45-4.7c-.11-.36-.19-.65-.23-.86-.2.75-.75,2.6-1.67,5.56Z"/><path class="cls-1" d="M63.38,41.91H60.29l-3.37-5.42-1.15.83v4.59H53.05V29.06h2.72v5.88l1.08-1.51,3.48-4.37h3l-4.48,5.68Z"/><path class="cls-1" d="M74.92,41.91h-7.4V29.06h7.4v2.23H70.25v2.82H74.6v2.23H70.25v3.32h4.67Z"/><path class="cls-1" d="M91.32,34.35,94,29.06h2.93l-4.26,7.85v5H90V37L85.7,29.06h3Z"/><path class="cls-1" d="M112.73,35.46a7,7,0,0,1-1.58,4.91,6.87,6.87,0,0,1-9.07,0,7,7,0,0,1-1.58-4.92,6.9,6.9,0,0,1,1.59-4.9,6.93,6.93,0,0,1,9.08,0A7,7,0,0,1,112.73,35.46Zm-9.37,0a5.43,5.43,0,0,0,.81,3.25,2.89,2.89,0,0,0,2.45,1.09q3.25,0,3.26-4.34t-3.25-4.34a2.88,2.88,0,0,0-2.45,1.1A5.34,5.34,0,0,0,103.36,35.46Z"/><path class="cls-1" d="M128.38,29.06v8.31a4.87,4.87,0,0,1-.64,2.5,4.2,4.2,0,0,1-1.84,1.64,6.59,6.59,0,0,1-2.85.57,5.45,5.45,0,0,1-3.85-1.27,4.5,4.5,0,0,1-1.37-3.47V29.06h2.71v7.86a3.28,3.28,0,0,0,.6,2.18,3.09,3.09,0,0,0,3.92,0,3.33,3.33,0,0,0,.6-2.19V29.06Z"/><path class="cls-1" d="M136.77,37v4.93H134V29.06h3.75a6.43,6.43,0,0,1,3.87,1,3.8,3.8,0,0,1,.64,4.91,4.22,4.22,0,0,1-1.77,1.39c1.93,2.89,3.19,4.75,3.78,5.6h-3L138.22,37Zm0-2.22h.88a3.32,3.32,0,0,0,1.9-.43,1.54,1.54,0,0,0,.62-1.35,1.39,1.39,0,0,0-.63-1.3,3.8,3.8,0,0,0-1.95-.39h-.82Z"/><path class="cls-1" d="M167,41.91h-3.46L158,32.19h-.08c.11,1.71.17,2.94.17,3.67v6h-2.44V29.06h3.44l5.58,9.62h.06c-.09-1.67-.13-2.85-.13-3.54V29.06H167Z"/><path class="cls-1" d="M180.2,41.91h-7.41V29.06h7.41v2.23h-4.68v2.82h4.35v2.23h-4.35v3.32h4.68Z"/><path class="cls-1" d="M195.79,41.91h-3.12l-3-4.86-3,4.86h-2.92L188,35.28l-4-6.22h3l2.77,4.62,2.71-4.62h2.94l-4,6.37Z"/><path class="cls-1" d="M204.88,41.91h-2.73V31.33h-3.48V29.06h9.7v2.27h-3.49Z"/><path class="cls-1" d="M23.5,53.69h5.09v6.66a14.31,14.31,0,0,1-2.33.57,15,15,0,0,1-2.24.16,5.65,5.65,0,0,1-4.44-1.71,7.11,7.11,0,0,1-1.53-4.91,6.46,6.46,0,0,1,1.78-4.85,6.74,6.74,0,0,1,4.93-1.74,9.72,9.72,0,0,1,3.82.79l-.91,2.18a6.58,6.58,0,0,0-2.93-.7,3.63,3.63,0,0,0-2.83,1.19,4.63,4.63,0,0,0-1.06,3.19,5.12,5.12,0,0,0,.86,3.19,3,3,0,0,0,2.49,1.11,8.62,8.62,0,0,0,1.73-.18V56H23.5Z"/><path class="cls-1" d="M41.57,60.91h-7.4V48.06h7.4v2.23H36.9v2.82h4.35v2.23H36.9v3.32h4.67Z"/><path class="cls-1" d="M51.73,60.91H49V50.33H45.52V48.06h9.7v2.27H51.73Z"/><path class="cls-1" d="M71.87,60.91H69.15V50.33H65.66V48.06h9.7v2.27H71.87Z"/><path class="cls-1" d="M91.52,54.46a7,7,0,0,1-1.58,4.91,6.87,6.87,0,0,1-9.07,0,7,7,0,0,1-1.58-4.92,6.89,6.89,0,0,1,1.58-4.9,5.94,5.94,0,0,1,4.55-1.69A5.83,5.83,0,0,1,90,49.56,7,7,0,0,1,91.52,54.46Zm-9.38,0A5.35,5.35,0,0,0,83,57.71,2.87,2.87,0,0,0,85.4,58.8c2.18,0,3.26-1.45,3.26-4.34s-1.08-4.34-3.24-4.34A2.88,2.88,0,0,0,83,51.22,5.34,5.34,0,0,0,82.14,54.46Z"/><path class="cls-1" d="M101.58,53.69h5.1v6.66a14.83,14.83,0,0,1-2.33.57,15,15,0,0,1-2.24.16,5.65,5.65,0,0,1-4.44-1.71,7.07,7.07,0,0,1-1.54-4.91,6.46,6.46,0,0,1,1.78-4.85,6.77,6.77,0,0,1,4.94-1.74,9.63,9.63,0,0,1,3.81.79l-.9,2.18a6.61,6.61,0,0,0-2.93-.7A3.62,3.62,0,0,0,100,51.33a4.59,4.59,0,0,0-1.06,3.19,5.12,5.12,0,0,0,.85,3.19,3,3,0,0,0,2.49,1.11,8.72,8.72,0,0,0,1.74-.18V56h-2.44Z"/><path class="cls-1" d="M119.66,60.91h-7.4V48.06h7.4v2.23H115v2.82h4.35v2.23H115v3.32h4.68Z"/><path class="cls-1" d="M129.82,60.91h-2.73V50.33H123.6V48.06h9.7v2.27h-3.48Z"/><path class="cls-1" d="M148.33,60.91h-2.71V55.36h-5.09v5.55H137.8V48.06h2.73v5h5.09v-5h2.71Z"/><path class="cls-1" d="M161.5,60.91h-7.41V48.06h7.41v2.23h-4.68v2.82h4.35v2.23h-4.35v3.32h4.68Z"/><path class="cls-1" d="M169.42,56v4.93H166.7V48.06h3.74a6.46,6.46,0,0,1,3.88.95,3.81,3.81,0,0,1,.63,4.91,4.22,4.22,0,0,1-1.77,1.39c1.94,2.89,3.2,4.75,3.78,5.6h-3L170.87,56Zm0-2.22h.88a3.35,3.35,0,0,0,1.91-.43,1.54,1.54,0,0,0,.61-1.35,1.39,1.39,0,0,0-.63-1.3,3.78,3.78,0,0,0-1.94-.39h-.83Z"/><path class="cls-1" d="M180.51,59.65a1.48,1.48,0,0,1,.4-1.12,1.59,1.59,0,0,1,1.15-.37,1.61,1.61,0,0,1,1.13.38,1.51,1.51,0,0,1,.4,1.11,1.46,1.46,0,0,1-.41,1.09,1.51,1.51,0,0,1-1.12.4,1.59,1.59,0,0,1-1.15-.39A1.46,1.46,0,0,1,180.51,59.65Z"/><path class="cls-1" d="M188.16,59.65a1.48,1.48,0,0,1,.4-1.12,1.61,1.61,0,0,1,1.15-.37,1.59,1.59,0,0,1,1.13.38,1.51,1.51,0,0,1,.4,1.11,1.46,1.46,0,0,1-.41,1.09,1.51,1.51,0,0,1-1.12.4,1.58,1.58,0,0,1-1.14-.39A1.46,1.46,0,0,1,188.16,59.65Z"/><path class="cls-1" d="M195.82,59.65a1.51,1.51,0,0,1,.39-1.12,1.61,1.61,0,0,1,1.15-.37,1.59,1.59,0,0,1,1.13.38,1.47,1.47,0,0,1,.4,1.11,1.45,1.45,0,0,1-.4,1.09,1.53,1.53,0,0,1-1.13.4,1.58,1.58,0,0,1-1.14-.39A1.46,1.46,0,0,1,195.82,59.65Z"/><g class="cls-27"><rect class="cls-1" width="728" height="90"/></g></g></g></svg>