<svg xmlns="http://www.w3.org/2000/svg" xmlns:xlink="http://www.w3.org/1999/xlink" viewBox="0 0 728 90"><defs><style>.cls-1{fill:none;}.cls-2{clip-path:url(#clip-path);}.cls-3{fill:#fff;}</style><clipPath id="clip-path"><path class="cls-1" d="M26.48,40.58l-.93-3.06H20.87l-.93,3.06H17l4.54-12.91h3.33l4.55,12.91ZM24.9,35.23q-1.29-4.15-1.45-4.7c-.11-.36-.19-.65-.24-.86q-.29,1.13-1.66,5.56ZM48.34,37a3.33,3.33,0,0,1-1.25,2.74,5.45,5.45,0,0,1-3.49,1A8.29,8.29,0,0,1,40,40V37.45a14.8,14.8,0,0,0,2.2.81,6.45,6.45,0,0,0,1.65.24,2.34,2.34,0,0,0,1.38-.34,1.18,1.18,0,0,0,.48-1,1.11,1.11,0,0,0-.21-.67,2.47,2.47,0,0,0-.62-.57A17.54,17.54,0,0,0,43.17,35,8,8,0,0,1,41.4,34a4.16,4.16,0,0,1-.94-1.19,3.44,3.44,0,0,1-.35-1.58,3.32,3.32,0,0,1,1.16-2.68,4.79,4.79,0,0,1,3.19-1,7.4,7.4,0,0,1,1.91.24,13.28,13.28,0,0,1,1.91.67l-.88,2.11A13.23,13.23,0,0,0,45.7,30a5.11,5.11,0,0,0-1.33-.17,1.73,1.73,0,0,0-1.18.36,1.17,1.17,0,0,0-.42.94,1.19,1.19,0,0,0,.17.63,1.88,1.88,0,0,0,.53.52c.25.16.82.46,1.73.9a6.84,6.84,0,0,1,2.47,1.73A3.32,3.32,0,0,1,48.34,37Zm15.38,3.57H61V35H55.91v5.55H53.19V27.73h2.72v5H61v-5h2.72Zm5.76,0V27.73H72.2V40.58Zm19.88,0H85.89L80.3,30.85h-.07c.11,1.72.16,2.95.16,3.68v6H78V27.73h3.43L87,37.35H87c-.09-1.67-.13-2.85-.13-3.54V27.73h2.45Zm13.15,0h-7.4V27.73h7.4V30H97.84v2.82h4.35V35H97.84v3.32h4.67Zm15.08,0h-2.68V27.73h7.36V30h-4.68v3.31H122V35.5h-4.36ZM139,34.13A7,7,0,0,1,137.39,39a6.87,6.87,0,0,1-9.07,0,7,7,0,0,1-1.58-4.92,6.92,6.92,0,0,1,1.58-4.9,5.94,5.94,0,0,1,4.55-1.7,5.82,5.82,0,0,1,4.53,1.71A7,7,0,0,1,139,34.13Zm-9.38,0a5.42,5.42,0,0,0,.82,3.25,2.88,2.88,0,0,0,2.44,1.09q3.27,0,3.27-4.34c0-2.89-1.09-4.34-3.25-4.34a2.88,2.88,0,0,0-2.45,1.1A5.34,5.34,0,0,0,129.59,34.13Zm17.29,1.51v4.94h-2.73V27.73h3.75a6.36,6.36,0,0,1,3.87.95,3.41,3.41,0,0,1,1.26,2.9,3.44,3.44,0,0,1-.62,2A4.22,4.22,0,0,1,150.64,35c1.93,2.89,3.19,4.75,3.78,5.6h-3l-3.07-4.94Zm0-2.21h.88a3.37,3.37,0,0,0,1.91-.43,1.54,1.54,0,0,0,.61-1.35,1.42,1.42,0,0,0-.63-1.31,3.9,3.9,0,0,0-1.94-.38h-.83ZM26.2,56A3.3,3.3,0,0,1,25,58.75a5.42,5.42,0,0,1-3.48,1A8.23,8.23,0,0,1,17.83,59V56.45a14.41,14.41,0,0,0,2.2.81,6.45,6.45,0,0,0,1.65.24,2.33,2.33,0,0,0,1.37-.34,1.18,1.18,0,0,0,.48-1,1.11,1.11,0,0,0-.21-.67,2.31,2.31,0,0,0-.62-.57A17,17,0,0,0,21,54,7.79,7.79,0,0,1,19.27,53a4,4,0,0,1-.94-1.19,3.71,3.71,0,0,1,.8-4.26,4.82,4.82,0,0,1,3.2-1,7.46,7.46,0,0,1,1.91.24,12.77,12.77,0,0,1,1.9.67l-.88,2.11a12.27,12.27,0,0,0-1.7-.58,5.09,5.09,0,0,0-1.32-.17,1.76,1.76,0,0,0-1.19.36,1.27,1.27,0,0,0-.24,1.57,1.88,1.88,0,0,0,.53.52,19.24,19.24,0,0,0,1.73.9,6.84,6.84,0,0,1,2.47,1.73A3.37,3.37,0,0,1,26.2,56Zm15.38,3.57H38.87V54H33.78v5.55H31.05V46.73h2.73v5h5.09v-5h2.71Zm13.17,0H47.34V46.73h7.41V49H50.07v2.82h4.35V54H50.07v3.32h4.68Zm5.2,0V46.73h2.72v10.6h5.21v2.25Zm17.64,0H74.87V49H71.38V46.73h9.7V49H77.59Zm15.39,0h-7.4V46.73H93V49H88.3v2.82h4.35V54H88.3v3.32H93Zm7.92-4.94v4.94H98.18V46.73h3.74a6.39,6.39,0,0,1,3.88,1,3.78,3.78,0,0,1,.63,4.91A4.13,4.13,0,0,1,104.67,54c1.93,2.89,3.19,4.75,3.78,5.6h-3l-3.07-4.94Zm0-2.21h.88a3.35,3.35,0,0,0,1.91-.43,1.54,1.54,0,0,0,.62-1.35,1.42,1.42,0,0,0-.63-1.31,3.92,3.92,0,0,0-2-.38h-.83Zm11.68-5.7h4a7.81,7.81,0,0,1,4,.77A2.73,2.73,0,0,1,121.79,50a3.11,3.11,0,0,1-.55,1.89,2.17,2.17,0,0,1-1.43.89v.08a2.82,2.82,0,0,1,1.76,1,3.33,3.33,0,0,1,.54,2,3.27,3.27,0,0,1-1.27,2.74,5.48,5.48,0,0,1-3.45,1h-4.81Zm2.73,5.08h1.58a2.86,2.86,0,0,0,1.6-.34,1.27,1.27,0,0,0,.5-1.13,1.13,1.13,0,0,0-.54-1.06,3.52,3.52,0,0,0-1.71-.32h-1.43Zm0,2.17v3.35h1.77a2.59,2.59,0,0,0,1.66-.44,1.56,1.56,0,0,0,.54-1.31c0-1.07-.76-1.6-2.29-1.6Zm23.55-.85A7,7,0,0,1,137.28,58a6.87,6.87,0,0,1-9.07,0,7,7,0,0,1-1.59-4.92,6.88,6.88,0,0,1,1.59-4.9,5.94,5.94,0,0,1,4.55-1.7,5.85,5.85,0,0,1,4.53,1.71A7,7,0,0,1,138.86,53.13Zm-9.38,0a5.35,5.35,0,0,0,.82,3.25,2.87,2.87,0,0,0,2.44,1.09c2.18,0,3.26-1.45,3.26-4.34s-1.08-4.34-3.24-4.34a2.88,2.88,0,0,0-2.45,1.1A5.34,5.34,0,0,0,129.48,53.13Zm25,6.45h-3.11l-3-4.86-3,4.86h-2.91L146.69,53l-4-6.22h3l2.77,4.62,2.72-4.62h2.93l-4,6.37Zm20.21-8.85a3.93,3.93,0,0,1-1.3,3.18,5.54,5.54,0,0,1-3.68,1.1h-1.17v4.57h-2.73V46.73h4.11a5.44,5.44,0,0,1,3.55,1A3.67,3.67,0,0,1,174.64,50.73Zm-6.15,2h.89a3,3,0,0,0,1.89-.49,1.76,1.76,0,0,0,.62-1.45,1.79,1.79,0,0,0-.52-1.41,2.43,2.43,0,0,0-1.64-.46h-1.24Zm19,6.81-.93-3.06h-4.68l-.93,3.06H178l4.53-12.91h3.34l4.55,12.91Zm-1.58-5.35c-.86-2.77-1.35-4.34-1.45-4.7s-.19-.65-.24-.86q-.28,1.13-1.66,5.56Zm11.38.41v4.94h-2.72V46.73h3.74a6.39,6.39,0,0,1,3.88,1,3.81,3.81,0,0,1,.63,4.91A4.22,4.22,0,0,1,201,54c1.94,2.89,3.2,4.75,3.78,5.6h-3l-3.07-4.94Zm0-2.21h.88A3.35,3.35,0,0,0,200,52a1.54,1.54,0,0,0,.61-1.35,1.42,1.42,0,0,0-.63-1.31,3.88,3.88,0,0,0-1.94-.38h-.83Zm16.64,7.15h-2.73V49h-3.49V46.73h9.71V49h-3.49Zm12-7.56,2.68-5.29h2.94l-4.27,7.84v5h-2.7V54.66l-4.27-7.93h3Z"/></clipPath></defs><title>text1</title><g id="Layer_2" data-name="Layer 2"><g id="Layer_1-2" data-name="Layer 1"><g class="cls-2"><rect class="cls-3" width="728" height="90"/></g></g></g></svg>