<svg id="Laag_1" data-name="Laag 1" xmlns="http://www.w3.org/2000/svg" viewBox="0 0 220.79 69.18"><defs><style>.cls-1{fill:none;}.cls-2{fill:#1d1d1b;}.cls-3{fill:#ff0028;}.cls-4{fill:#fff;}</style></defs><title>tryitout</title><rect class="cls-1" x="32.74" y="12.67" width="8" height="18"/><rect class="cls-1" x="151.74" y="12.67" width="8" height="44"/><polygon class="cls-2" points="21.74 6.41 21.74 4.67 0.23 4.67 0 9.87 0.23 12.67 6.74 12.67 6.74 64.8 7.97 64.58 11.36 64.8 14.74 64.36 14.74 12.67 21.63 12.67 21.12 6.67 21.74 6.41"/><path class="cls-2" d="M47,38.67l.45-1h.25v.22l1-.43V5.32L47,5.67h-2.3v-1h-19l-1,.86v59.2l7.66-.44.34.44V37.67h2.91l6.71,26.84,1.59.76L48.62,64l2,0L44.17,38.67Zm-6.3-8h-8v-18h8Z"/><polygon class="cls-2" points="69.72 4.52 64.37 24.22 59.02 4.52 57.74 5.17 51.71 6.92 51.44 6.77 60.74 34.62 60.74 64.22 62.14 64.87 67.4 64.44 68.74 64.66 68.74 34.62 77.79 6.77 71.12 4.95 69.72 4.52"/><path class="cls-2" d="M165.74,5.75l.55-1.08H143.15l.59,3.85V10.7l-.59,2h.59v52h22.92l1.08-1.32V59.67h0v-54h-2Zm-6,50.92h-8v-44h8Z"/><polygon class="cls-2" points="196.74 5.53 195.61 4.67 188.74 4.67 188.74 56.67 180.74 56.67 180.74 5.32 175.72 5.1 172.74 5.32 172.74 64.66 174.34 64.88 177.37 64.67 196.66 64.67 196.93 62.92 196.74 59.71 196.74 5.53"/><polygon class="cls-2" points="220.2 6.67 220.74 6.41 220.74 4.67 199.38 4.67 199.15 9.87 199.38 12.67 205.74 12.67 205.74 64.8 207.04 64.58 210.89 64.8 214.74 64.36 214.74 12.67 220.78 12.67 220.2 6.67"/><path class="cls-3" d="M129,69.18l6.79-33.86L129,0H85.32V69.16Z"/><polygon class="cls-4" points="96.71 63.35 100.43 63.55 100.43 6.54 94.09 6.75 92.33 6.54 92.33 63.48 94.14 63.55 96.71 63.35"/><polygon class="cls-4" points="110.56 13.48 110.56 63.31 111.85 63.1 115.25 63.31 118.66 62.89 118.66 13.48 125.52 13.48 125.07 7.73 125.74 7.48 125.74 6.39 104.23 6.39 104.01 11.08 104.23 13.48 110.56 13.48"/></svg>