<svg xmlns="http://www.w3.org/2000/svg" xmlns:xlink="http://www.w3.org/1999/xlink" viewBox="0 0 284 236.67"><defs><style>.cls-1,.cls-2,.cls-3,.cls-4,.cls-5,.cls-6,.cls-7{fill:#2d3948;}.cls-2{clip-path:url(#clip-path);}.cls-3{clip-path:url(#clip-path-2);}.cls-4{clip-path:url(#clip-path-3);}.cls-5{clip-path:url(#clip-path-4);}.cls-6{clip-path:url(#clip-path-5);}.cls-7{clip-path:url(#clip-path-6);}.cls-8{opacity:0.85;}.cls-9{clip-path:url(#clip-path-7);}</style><clipPath id="clip-path"><path class="cls-1" d="M203.64,206.6h4.67v.8h-3.86V210h3.83v.8h-3.83V214h3.83v.8h-4.64Z"/></clipPath><clipPath id="clip-path-2"><path class="cls-2" d="M208.91,208.73h.93l1.6,2.21,1.59-2.21H214l-2.06,2.85,2.32,3.18h-.95l-1.84-2.53-1.82,2.53h-.93l2.29-3.18Z"/></clipPath><clipPath id="clip-path-3"><path class="cls-3" d="M215.06,208.73h.77v1.11a3.16,3.16,0,0,1,1.06-1,2.85,2.85,0,0,1,1.34-.32,3,3,0,0,1,2.2.93,3.06,3.06,0,0,1,.91,2.23,3.12,3.12,0,0,1-.9,2.26,3,3,0,0,1-2.19.93,2.91,2.91,0,0,1-1.32-.3,3.4,3.4,0,0,1-1.1-.89V217h-.77Zm3.1.59a2.3,2.3,0,0,0-1.69.7,2.59,2.59,0,0,0-.38,3,2.11,2.11,0,0,0,.88.87,2.37,2.37,0,0,0,2.38,0,2.41,2.41,0,0,0,.88-.91,2.43,2.43,0,0,0,.33-1.22,2.4,2.4,0,0,0-.33-1.21,2.22,2.22,0,0,0-.87-.9A2.37,2.37,0,0,0,218.16,209.32Z"/></clipPath><clipPath id="clip-path-4"><path class="cls-4" d="M222.68,206.4h.78v8.36h-.78Z"/></clipPath><clipPath id="clip-path-5"><path class="cls-5" d="M227.93,208.57a3,3,0,0,1,2.31,1,3.17,3.17,0,0,1,.83,2.18,3.11,3.11,0,0,1-.88,2.21,3.18,3.18,0,0,1-4.53,0,3.23,3.23,0,0,1,0-4.38A3,3,0,0,1,227.93,208.57Zm0,.76a2.23,2.23,0,0,0-1.66.72,2.41,2.41,0,0,0-.7,1.73,2.47,2.47,0,0,0,.32,1.22,2.18,2.18,0,0,0,.86.87,2.42,2.42,0,0,0,2.37,0A2.18,2.18,0,0,0,230,213a2.46,2.46,0,0,0,.31-1.22,2.4,2.4,0,0,0-.69-1.73A2.25,2.25,0,0,0,227.92,209.33Z"/></clipPath><clipPath id="clip-path-6"><path class="cls-6" d="M232.21,208.73h.8v.88a2.56,2.56,0,0,1,.75-.78,1.47,1.47,0,0,1,.82-.26,1.43,1.43,0,0,1,.69.21l-.41.65a1.05,1.05,0,0,0-.41-.1,1.09,1.09,0,0,0-.75.32,2,2,0,0,0-.55,1,10,10,0,0,0-.14,2.08v2h-.8Z"/></clipPath><clipPath id="clip-path-7"><path class="cls-7" d="M241,212.76l.66.34a3.46,3.46,0,0,1-.75,1,3,3,0,0,1-1,.6,3.41,3.41,0,0,1-1.19.2,2.87,2.87,0,0,1-2.31-1,3.24,3.24,0,0,1-.83-2.19,3.2,3.2,0,0,1,.7-2,2.88,2.88,0,0,1,2.4-1.15,3,3,0,0,1,2.46,1.17,3.27,3.27,0,0,1,.67,2.07h-5.43a2.4,2.4,0,0,0,.67,1.72,2.13,2.13,0,0,0,1.6.67,2.51,2.51,0,0,0,.9-.16,2.31,2.31,0,0,0,.74-.42A3.72,3.72,0,0,0,241,212.76Zm0-1.62a2.51,2.51,0,0,0-.45-1,2.1,2.1,0,0,0-.79-.6,2.37,2.37,0,0,0-1-.22,2.2,2.2,0,0,0-1.53.57,2.55,2.55,0,0,0-.71,1.25Z"/></clipPath></defs><title>explore</title><g id="Layer_2" data-name="Layer 2"><g id="Layer_1-2" data-name="Layer 1"><g class="cls-8"><path class="cls-1" d="M203.64,206.6h4.67v.8h-3.86V210h3.83v.8h-3.83V214h3.83v.8h-4.64Z"/><path class="cls-1" d="M208.91,208.73h.93l1.6,2.21,1.59-2.21H214l-2.06,2.85,2.32,3.18h-.95l-1.84-2.53-1.82,2.53h-.93l2.29-3.18Z"/><path class="cls-1" d="M215.06,208.73h.77v1.11a3.16,3.16,0,0,1,1.06-1,2.85,2.85,0,0,1,1.34-.32,3,3,0,0,1,2.2.93,3.06,3.06,0,0,1,.91,2.23,3.12,3.12,0,0,1-.9,2.26,3,3,0,0,1-2.19.93,2.91,2.91,0,0,1-1.32-.3,3.4,3.4,0,0,1-1.1-.89V217h-.77Zm3.1.59a2.3,2.3,0,0,0-1.69.7,2.59,2.59,0,0,0-.38,3,2.11,2.11,0,0,0,.88.87,2.37,2.37,0,0,0,2.38,0,2.41,2.41,0,0,0,.88-.91,2.43,2.43,0,0,0,.33-1.22,2.4,2.4,0,0,0-.33-1.21,2.22,2.22,0,0,0-.87-.9A2.37,2.37,0,0,0,218.16,209.32Z"/><path class="cls-1" d="M222.68,206.4h.78v8.36h-.78Z"/><path class="cls-1" d="M227.93,208.57a3,3,0,0,1,2.31,1,3.17,3.17,0,0,1,.83,2.18,3.11,3.11,0,0,1-.88,2.21,3.18,3.18,0,0,1-4.53,0,3.23,3.23,0,0,1,0-4.38A3,3,0,0,1,227.93,208.57Zm0,.76a2.23,2.23,0,0,0-1.66.72,2.41,2.41,0,0,0-.7,1.73,2.47,2.47,0,0,0,.32,1.22,2.18,2.18,0,0,0,.86.87,2.42,2.42,0,0,0,2.37,0A2.18,2.18,0,0,0,230,213a2.46,2.46,0,0,0,.31-1.22,2.4,2.4,0,0,0-.69-1.73A2.25,2.25,0,0,0,227.92,209.33Z"/><path class="cls-1" d="M232.21,208.73h.8v.88a2.56,2.56,0,0,1,.75-.78,1.47,1.47,0,0,1,.82-.26,1.43,1.43,0,0,1,.69.21l-.41.65a1.05,1.05,0,0,0-.41-.1,1.09,1.09,0,0,0-.75.32,2,2,0,0,0-.55,1,10,10,0,0,0-.14,2.08v2h-.8Z"/><path class="cls-1" d="M241,212.76l.66.34a3.46,3.46,0,0,1-.75,1,3,3,0,0,1-1,.6,3.41,3.41,0,0,1-1.19.2,2.87,2.87,0,0,1-2.31-1,3.24,3.24,0,0,1-.83-2.19,3.2,3.2,0,0,1,.7-2,2.88,2.88,0,0,1,2.4-1.15,3,3,0,0,1,2.46,1.17,3.27,3.27,0,0,1,.67,2.07h-5.43a2.4,2.4,0,0,0,.67,1.72,2.13,2.13,0,0,0,1.6.67,2.51,2.51,0,0,0,.9-.16,2.31,2.31,0,0,0,.74-.42A3.72,3.72,0,0,0,241,212.76Zm0-1.62a2.51,2.51,0,0,0-.45-1,2.1,2.1,0,0,0-.79-.6,2.37,2.37,0,0,0-1-.22,2.2,2.2,0,0,0-1.53.57,2.55,2.55,0,0,0-.71,1.25Z"/><g class="cls-9"><rect class="cls-1" width="284" height="236.67"/></g></g></g></g></svg>