<svg xmlns="http://www.w3.org/2000/svg" xmlns:xlink="http://www.w3.org/1999/xlink" viewBox="0 0 300 250"><defs><style>.cls-1,.cls-10,.cls-11,.cls-2,.cls-3,.cls-4,.cls-5,.cls-6,.cls-7,.cls-8,.cls-9{fill:#ddeab9;}.cls-2{clip-path:url(#clip-path);}.cls-3{clip-path:url(#clip-path-2);}.cls-4{clip-path:url(#clip-path-10);}.cls-5{clip-path:url(#clip-path-3);}.cls-6{clip-path:url(#clip-path-4);}.cls-7{clip-path:url(#clip-path-5);}.cls-8{clip-path:url(#clip-path-6);}.cls-9{clip-path:url(#clip-path-7);}.cls-10{clip-path:url(#clip-path-8);}.cls-11{clip-path:url(#clip-path-9);}.cls-12{clip-path:url(#clip-path-11);}</style><clipPath id="clip-path"><path class="cls-1" d="M94.72,140.66a4.09,4.09,0,0,1-.4,1.85,4.2,4.2,0,0,1-1.07,1.38,4.46,4.46,0,0,1-1.58.85,6,6,0,0,1-1.89.29,7,7,0,0,1-2.78-.54A6,6,0,0,1,84.92,143l.39-.34a5.71,5.71,0,0,0,2,1.41,6.37,6.37,0,0,0,2.4.47,5.66,5.66,0,0,0,1.71-.26,4.61,4.61,0,0,0,1.42-.76,3.65,3.65,0,0,0,1-1.22,3.7,3.7,0,0,0,.35-1.67,3,3,0,0,0-.39-1.59,3.9,3.9,0,0,0-1-1.1,5.94,5.94,0,0,0-1.41-.77c-.53-.21-1.07-.39-1.6-.56S88.51,136.2,88,136a5.44,5.44,0,0,1-1.45-.88,3.52,3.52,0,0,1-1-1.24,4.22,4.22,0,0,1-.33-1.76,4,4,0,0,1,.4-1.8,4,4,0,0,1,1.1-1.34,4.94,4.94,0,0,1,1.6-.82,6,6,0,0,1,1.92-.29,5.87,5.87,0,0,1,2.35.47,4.54,4.54,0,0,1,1.83,1.34L94,130a4.35,4.35,0,0,0-1.64-1.25,5.28,5.28,0,0,0-2.18-.45,5.57,5.57,0,0,0-1.62.23,4.38,4.38,0,0,0-1.44.7,3.55,3.55,0,0,0-1,1.18,3.47,3.47,0,0,0-.39,1.68,3.41,3.41,0,0,0,.34,1.6A3.57,3.57,0,0,0,87,134.8a5.76,5.76,0,0,0,1.3.76c.49.19,1,.38,1.49.55.69.23,1.33.46,1.93.7a6.71,6.71,0,0,1,1.57.86,3.55,3.55,0,0,1,1.06,1.23A3.78,3.78,0,0,1,94.72,140.66Z"/></clipPath><clipPath id="clip-path-2"><path class="cls-4" d="M193.48,135.46a4.54,4.54,0,0,1,1-1,4,4,0,0,1,1.2-.61,4.21,4.21,0,0,1,1.33-.21,3.89,3.89,0,0,1,1.84.39,3.19,3.19,0,0,1,1.17,1,4.14,4.14,0,0,1,.62,1.44,6.94,6.94,0,0,1,.19,1.64v6.39h-.51v-6.35a6.87,6.87,0,0,0-.14-1.38,3.76,3.76,0,0,0-.51-1.33,3.28,3.28,0,0,0-1-1,3,3,0,0,0-1.63-.4,4,4,0,0,0-1.64.35,3.83,3.83,0,0,0-1.34,1,5.25,5.25,0,0,0-.9,1.62,6.6,6.6,0,0,0-.33,2.17v5.29h-.5v-7.91c0-.17,0-.38,0-.62s0-.5,0-.75,0-.49,0-.72,0-.43-.05-.58h.51c0,.15,0,.35,0,.58s0,.48,0,.74l0,.79c0,.25,0,.48,0,.67h0A4.5,4.5,0,0,1,193.48,135.46Z"/></clipPath><clipPath id="clip-path-3"><path class="cls-2" d="M102,144.78a4.38,4.38,0,0,1-.71.07,2.09,2.09,0,0,1-1.77-.7,2.81,2.81,0,0,1-.53-1.76v-8H96.7V134H99v-3.1h.5V134h3.11v.44H99.48v8a2,2,0,0,0,.53,1.55,2,2,0,0,0,1.4.47,3.22,3.22,0,0,0,1.18-.21l.07.39A3.35,3.35,0,0,1,102,144.78Z"/></clipPath><clipPath id="clip-path-4"><path class="cls-5" d="M112.84,142.18c0,.4,0,.82.06,1.28s.08.82.13,1.11h-.48a2.75,2.75,0,0,1-.07-.56q0-.33-.06-.69c0-.24,0-.47,0-.7s0-.43,0-.58h-.07a3.72,3.72,0,0,1-1.58,2.15,4.5,4.5,0,0,1-2.42.7,4.71,4.71,0,0,1-1.28-.18,3.6,3.6,0,0,1-1.13-.55,2.8,2.8,0,0,1-.82-.95,3.12,3.12,0,0,1,.27-3.17A4,4,0,0,1,106.8,139a6.36,6.36,0,0,1,1.87-.49,15.55,15.55,0,0,1,1.83-.12h1.84v-.85a3.29,3.29,0,0,0-.94-2.59,3.66,3.66,0,0,0-2.47-.81,4.52,4.52,0,0,0-1.76.34,5.38,5.38,0,0,0-1.46.92l-.27-.39a5.29,5.29,0,0,1,1.67-1,5.44,5.44,0,0,1,1.82-.33,4.16,4.16,0,0,1,2.87.93,3.72,3.72,0,0,1,1,2.93Zm-.5-3.38h-1.63a16.85,16.85,0,0,0-1.84.1,6.54,6.54,0,0,0-1.78.43,3.38,3.38,0,0,0-1.32.92,2.4,2.4,0,0,0-.52,1.61,2.43,2.43,0,0,0,.29,1.23,2.34,2.34,0,0,0,.74.79,3.16,3.16,0,0,0,1,.44,4.23,4.23,0,0,0,1,.14,4,4,0,0,0,2-.44,3.66,3.66,0,0,0,1.25-1.12,4.23,4.23,0,0,0,.65-1.49,6.91,6.91,0,0,0,.19-1.6Z"/></clipPath><clipPath id="clip-path-5"><path class="cls-6" d="M119.05,148.07a3.74,3.74,0,0,1-1,1.53,2.31,2.31,0,0,1-1.58.54,3,3,0,0,1-.48,0,2.84,2.84,0,0,1-.46-.11l.14-.44a2.7,2.7,0,0,0,.38.09,2.5,2.5,0,0,0,.47.05,1.74,1.74,0,0,0,.84-.19A2.16,2.16,0,0,0,118,149a2.9,2.9,0,0,0,.42-.65,7.76,7.76,0,0,0,.31-.74l1-2.76L115.56,134h.55l3.89,10.3,3.75-10.3h.55Z"/></clipPath><clipPath id="clip-path-6"><path class="cls-7" d="M140.21,142.18c0,.4,0,.82.06,1.28s.08.82.13,1.11h-.48a2.75,2.75,0,0,1-.07-.56l-.06-.69c0-.24,0-.47,0-.7s0-.43,0-.58h-.07a3.74,3.74,0,0,1-1.59,2.15,4.45,4.45,0,0,1-2.41.7,4.65,4.65,0,0,1-1.28-.18,3.76,3.76,0,0,1-1.14-.55,2.77,2.77,0,0,1-1.12-2.3,2.72,2.72,0,0,1,.58-1.82,3.89,3.89,0,0,1,1.47-1.07,6.36,6.36,0,0,1,1.87-.49,15.55,15.55,0,0,1,1.83-.12h1.84v-.85a3.26,3.26,0,0,0-1-2.59,3.61,3.61,0,0,0-2.46-.81,4.49,4.49,0,0,0-1.76.34,5.38,5.38,0,0,0-1.46.92l-.27-.39a5.18,5.18,0,0,1,1.67-1,5.44,5.44,0,0,1,1.82-.33,4.18,4.18,0,0,1,2.87.93,3.76,3.76,0,0,1,1,2.93Zm-.5-3.38h-1.64a17.12,17.12,0,0,0-1.84.1,6.56,6.56,0,0,0-1.77.43,3.38,3.38,0,0,0-1.32.92,2.4,2.4,0,0,0-.52,1.61,2.43,2.43,0,0,0,.29,1.23,2.34,2.34,0,0,0,.74.79,3.16,3.16,0,0,0,1,.44,4.23,4.23,0,0,0,1,.14,4,4,0,0,0,2-.44,3.6,3.6,0,0,0,1.26-1.12,4.23,4.23,0,0,0,.65-1.49,6.91,6.91,0,0,0,.19-1.6Z"/></clipPath><clipPath id="clip-path-7"><path class="cls-8" d="M152.82,136.91a4.5,4.5,0,0,1,1.56-2.4,4,4,0,0,1,2.51-.84,3.72,3.72,0,0,1,1.78.39,3.13,3.13,0,0,1,1.15,1,4.12,4.12,0,0,1,.61,1.44,7.5,7.5,0,0,1,.19,1.64v6.39h-.51v-6.35a6.92,6.92,0,0,0-.15-1.38,4,4,0,0,0-.52-1.33,3,3,0,0,0-1-1,2.78,2.78,0,0,0-1.56-.4,3.56,3.56,0,0,0-1.55.35,3.68,3.68,0,0,0-1.27,1,5,5,0,0,0-.86,1.62,6.6,6.6,0,0,0-.32,2.17v5.29h-.51v-6.35a7.63,7.63,0,0,0-.13-1.38,3.9,3.9,0,0,0-.47-1.33,3,3,0,0,0-.95-1,2.77,2.77,0,0,0-1.55-.4,3.6,3.6,0,0,0-1.56.35,3.74,3.74,0,0,0-1.26,1,4.79,4.79,0,0,0-.85,1.62,6.89,6.89,0,0,0-.31,2.17v5.29h-.51v-7.91c0-.17,0-.38,0-.62s0-.5,0-.75,0-.49,0-.72,0-.43,0-.58h.5c0,.15,0,.35,0,.58s0,.48,0,.74,0,.53,0,.79,0,.48,0,.67h0a4.7,4.7,0,0,1,.64-1.31,4.57,4.57,0,0,1,.94-1,3.6,3.6,0,0,1,1.12-.61,3.87,3.87,0,0,1,1.26-.21,3.66,3.66,0,0,1,1.43.25,3,3,0,0,1,1,.69,3.43,3.43,0,0,1,.66,1,5.07,5.07,0,0,1,.37,1.27Z"/></clipPath><clipPath id="clip-path-8"><path class="cls-9" d="M172.44,142.18c0,.4,0,.82.05,1.28s.08.82.13,1.11h-.48a3.7,3.7,0,0,1-.07-.56l-.06-.69c0-.24,0-.47,0-.7s0-.43,0-.58h-.07a3.72,3.72,0,0,1-1.58,2.15,4.48,4.48,0,0,1-2.42.7,4.58,4.58,0,0,1-1.27-.18,3.55,3.55,0,0,1-1.14-.55,2.8,2.8,0,0,1-.82-.95,3.1,3.1,0,0,1,.28-3.17,3.85,3.85,0,0,1,1.46-1.07,6.36,6.36,0,0,1,1.87-.49,15.55,15.55,0,0,1,1.83-.12h1.84v-.85a3.26,3.26,0,0,0-.94-2.59,3.65,3.65,0,0,0-2.46-.81,4.45,4.45,0,0,0-1.76.34,5.24,5.24,0,0,0-1.46.92L165,135a5.29,5.29,0,0,1,1.67-1,5.45,5.45,0,0,1,1.83-.33,4.15,4.15,0,0,1,2.86.93,3.73,3.73,0,0,1,1.05,2.93Zm-.51-3.38H170.3a16.85,16.85,0,0,0-1.84.1,6.38,6.38,0,0,0-1.77.43,3.35,3.35,0,0,0-1.33.92,2.39,2.39,0,0,0-.51,1.61,2.24,2.24,0,0,0,1,2,3.16,3.16,0,0,0,1,.44,4.23,4.23,0,0,0,1,.14,4,4,0,0,0,2-.44,3.57,3.57,0,0,0,1.25-1.12,4.25,4.25,0,0,0,.66-1.49,7.47,7.47,0,0,0,.18-1.6Z"/></clipPath><clipPath id="clip-path-9"><path class="cls-10" d="M175.73,144.57v-.48l7-9.66h-6.63V134h7.13v.51l-6.92,9.63h7.2v.44Z"/></clipPath><clipPath id="clip-path-10"><path class="cls-11" d="M187.27,130a.5.5,0,0,1-.37-.16.62.62,0,0,1-.16-.44.6.6,0,0,1,.16-.41.51.51,0,0,1,.74,0,.56.56,0,0,1,.16.41.59.59,0,0,1-.17.44A.53.53,0,0,1,187.27,130ZM187,144.57V134h.5v10.58Z"/></clipPath><clipPath id="clip-path-11"><path class="cls-3" d="M214.57,141.72h-.07a4.75,4.75,0,0,1-.8,1.37,5.54,5.54,0,0,1-1.13,1,4.86,4.86,0,0,1-1.35.61,5.62,5.62,0,0,1-1.48.2,5.36,5.36,0,0,1-2.13-.42,5.15,5.15,0,0,1-1.68-1.18,5.28,5.28,0,0,1-1.09-1.77,6.17,6.17,0,0,1-.39-2.22,6.3,6.3,0,0,1,.39-2.23,5.58,5.58,0,0,1,1.09-1.79,5,5,0,0,1,1.68-1.19,5.36,5.36,0,0,1,2.13-.42,5,5,0,0,1,4.76,3.2h.07V134h.51v10a10.56,10.56,0,0,1-.27,2.42,5.68,5.68,0,0,1-.87,2,4.27,4.27,0,0,1-1.61,1.39,5.28,5.28,0,0,1-2.47.52,6.46,6.46,0,0,1-2.67-.52,5.6,5.6,0,0,1-2-1.46l.34-.34a5.37,5.37,0,0,0,2,1.44,6.4,6.4,0,0,0,2.34.44,4.72,4.72,0,0,0,2.3-.5,4,4,0,0,0,1.45-1.34,5.45,5.45,0,0,0,.74-1.89,10.86,10.86,0,0,0,.22-2.22ZM205,139.3a6,6,0,0,0,.33,2,5,5,0,0,0,1,1.66,4.57,4.57,0,0,0,1.5,1.13,4.75,4.75,0,0,0,2,.41,4.59,4.59,0,0,0,1.94-.41,4.69,4.69,0,0,0,1.53-1.13,5.37,5.37,0,0,0,1.38-3.66,5.58,5.58,0,0,0-.36-2,5.17,5.17,0,0,0-1-1.64,4.66,4.66,0,0,0-1.53-1.12,4.44,4.44,0,0,0-1.94-.41,4.61,4.61,0,0,0-2,.42,4.74,4.74,0,0,0-1.5,1.14,5,5,0,0,0-1,1.66A5.9,5.9,0,0,0,205,139.3Z"/></clipPath></defs><title>text4_2</title><g id="Layer_2" data-name="Layer 2"><g id="Layer_1-2" data-name="Layer 1"><path class="cls-1" d="M94.72,140.66a4.09,4.09,0,0,1-.4,1.85,4.2,4.2,0,0,1-1.07,1.38,4.46,4.46,0,0,1-1.58.85,6,6,0,0,1-1.89.29,7,7,0,0,1-2.78-.54A6,6,0,0,1,84.92,143l.39-.34a5.71,5.71,0,0,0,2,1.41,6.37,6.37,0,0,0,2.4.47,5.66,5.66,0,0,0,1.71-.26,4.61,4.61,0,0,0,1.42-.76,3.65,3.65,0,0,0,1-1.22,3.7,3.7,0,0,0,.35-1.67,3,3,0,0,0-.39-1.59,3.9,3.9,0,0,0-1-1.1,5.94,5.94,0,0,0-1.41-.77c-.53-.21-1.07-.39-1.6-.56S88.51,136.2,88,136a5.44,5.44,0,0,1-1.45-.88,3.52,3.52,0,0,1-1-1.24,4.22,4.22,0,0,1-.33-1.76,4,4,0,0,1,.4-1.8,4,4,0,0,1,1.1-1.34,4.94,4.94,0,0,1,1.6-.82,6,6,0,0,1,1.92-.29,5.87,5.87,0,0,1,2.35.47,4.54,4.54,0,0,1,1.83,1.34L94,130a4.35,4.35,0,0,0-1.64-1.25,5.28,5.28,0,0,0-2.18-.45,5.57,5.57,0,0,0-1.62.23,4.38,4.38,0,0,0-1.44.7,3.55,3.55,0,0,0-1,1.18,3.47,3.47,0,0,0-.39,1.68,3.41,3.41,0,0,0,.34,1.6A3.57,3.57,0,0,0,87,134.8a5.76,5.76,0,0,0,1.3.76c.49.19,1,.38,1.49.55.69.23,1.33.46,1.93.7a6.71,6.71,0,0,1,1.57.86,3.55,3.55,0,0,1,1.06,1.23A3.78,3.78,0,0,1,94.72,140.66Z"/><path class="cls-1" d="M102,144.78a4.38,4.38,0,0,1-.71.07,2.09,2.09,0,0,1-1.77-.7,2.81,2.81,0,0,1-.53-1.76v-8H96.7V134H99v-3.1h.5V134h3.11v.44H99.48v8a2,2,0,0,0,.53,1.55,2,2,0,0,0,1.4.47,3.22,3.22,0,0,0,1.18-.21l.07.39A3.35,3.35,0,0,1,102,144.78Z"/><path class="cls-1" d="M112.84,142.18c0,.4,0,.82.06,1.28s.08.82.13,1.11h-.48a2.75,2.75,0,0,1-.07-.56q0-.33-.06-.69c0-.24,0-.47,0-.7s0-.43,0-.58h-.07a3.72,3.72,0,0,1-1.58,2.15,4.5,4.5,0,0,1-2.42.7,4.71,4.71,0,0,1-1.28-.18,3.6,3.6,0,0,1-1.13-.55,2.8,2.8,0,0,1-.82-.95,3.12,3.12,0,0,1,.27-3.17A4,4,0,0,1,106.8,139a6.36,6.36,0,0,1,1.87-.49,15.55,15.55,0,0,1,1.83-.12h1.84v-.85a3.29,3.29,0,0,0-.94-2.59,3.66,3.66,0,0,0-2.47-.81,4.52,4.52,0,0,0-1.76.34,5.38,5.38,0,0,0-1.46.92l-.27-.39a5.29,5.29,0,0,1,1.67-1,5.44,5.44,0,0,1,1.82-.33,4.16,4.16,0,0,1,2.87.93,3.72,3.72,0,0,1,1,2.93Zm-.5-3.38h-1.63a16.85,16.85,0,0,0-1.84.1,6.54,6.54,0,0,0-1.78.43,3.38,3.38,0,0,0-1.32.92,2.4,2.4,0,0,0-.52,1.61,2.43,2.43,0,0,0,.29,1.23,2.34,2.34,0,0,0,.74.79,3.16,3.16,0,0,0,1,.44,4.23,4.23,0,0,0,1,.14,4,4,0,0,0,2-.44,3.66,3.66,0,0,0,1.25-1.12,4.23,4.23,0,0,0,.65-1.49,6.91,6.91,0,0,0,.19-1.6Z"/><path class="cls-1" d="M119.05,148.07a3.74,3.74,0,0,1-1,1.53,2.31,2.31,0,0,1-1.58.54,3,3,0,0,1-.48,0,2.84,2.84,0,0,1-.46-.11l.14-.44a2.7,2.7,0,0,0,.38.09,2.5,2.5,0,0,0,.47.05,1.74,1.74,0,0,0,.84-.19A2.16,2.16,0,0,0,118,149a2.9,2.9,0,0,0,.42-.65,7.76,7.76,0,0,0,.31-.74l1-2.76L115.56,134h.55l3.89,10.3,3.75-10.3h.55Z"/><path class="cls-1" d="M140.21,142.18c0,.4,0,.82.06,1.28s.08.82.13,1.11h-.48a2.75,2.75,0,0,1-.07-.56l-.06-.69c0-.24,0-.47,0-.7s0-.43,0-.58h-.07a3.74,3.74,0,0,1-1.59,2.15,4.45,4.45,0,0,1-2.41.7,4.65,4.65,0,0,1-1.28-.18,3.76,3.76,0,0,1-1.14-.55,2.77,2.77,0,0,1-1.12-2.3,2.72,2.72,0,0,1,.58-1.82,3.89,3.89,0,0,1,1.47-1.07,6.36,6.36,0,0,1,1.87-.49,15.55,15.55,0,0,1,1.83-.12h1.84v-.85a3.26,3.26,0,0,0-1-2.59,3.61,3.61,0,0,0-2.46-.81,4.49,4.49,0,0,0-1.76.34,5.38,5.38,0,0,0-1.46.92l-.27-.39a5.18,5.18,0,0,1,1.67-1,5.44,5.44,0,0,1,1.82-.33,4.18,4.18,0,0,1,2.87.93,3.76,3.76,0,0,1,1,2.93Zm-.5-3.38h-1.64a17.12,17.12,0,0,0-1.84.1,6.56,6.56,0,0,0-1.77.43,3.38,3.38,0,0,0-1.32.92,2.4,2.4,0,0,0-.52,1.61,2.43,2.43,0,0,0,.29,1.23,2.34,2.34,0,0,0,.74.79,3.16,3.16,0,0,0,1,.44,4.23,4.23,0,0,0,1,.14,4,4,0,0,0,2-.44,3.6,3.6,0,0,0,1.26-1.12,4.23,4.23,0,0,0,.65-1.49,6.91,6.91,0,0,0,.19-1.6Z"/><path class="cls-1" d="M152.82,136.91a4.5,4.5,0,0,1,1.56-2.4,4,4,0,0,1,2.51-.84,3.72,3.72,0,0,1,1.78.39,3.13,3.13,0,0,1,1.15,1,4.12,4.12,0,0,1,.61,1.44,7.5,7.5,0,0,1,.19,1.64v6.39h-.51v-6.35a6.92,6.92,0,0,0-.15-1.38,4,4,0,0,0-.52-1.33,3,3,0,0,0-1-1,2.78,2.78,0,0,0-1.56-.4,3.56,3.56,0,0,0-1.55.35,3.68,3.68,0,0,0-1.27,1,5,5,0,0,0-.86,1.62,6.6,6.6,0,0,0-.32,2.17v5.29h-.51v-6.35a7.63,7.63,0,0,0-.13-1.38,3.9,3.9,0,0,0-.47-1.33,3,3,0,0,0-.95-1,2.77,2.77,0,0,0-1.55-.4,3.6,3.6,0,0,0-1.56.35,3.74,3.74,0,0,0-1.26,1,4.79,4.79,0,0,0-.85,1.62,6.89,6.89,0,0,0-.31,2.17v5.29h-.51v-7.91c0-.17,0-.38,0-.62s0-.5,0-.75,0-.49,0-.72,0-.43,0-.58h.5c0,.15,0,.35,0,.58s0,.48,0,.74,0,.53,0,.79,0,.48,0,.67h0a4.7,4.7,0,0,1,.64-1.31,4.57,4.57,0,0,1,.94-1,3.6,3.6,0,0,1,1.12-.61,3.87,3.87,0,0,1,1.26-.21,3.66,3.66,0,0,1,1.43.25,3,3,0,0,1,1,.69,3.43,3.43,0,0,1,.66,1,5.07,5.07,0,0,1,.37,1.27Z"/><path class="cls-1" d="M172.44,142.18c0,.4,0,.82.05,1.28s.08.82.13,1.11h-.48a3.7,3.7,0,0,1-.07-.56l-.06-.69c0-.24,0-.47,0-.7s0-.43,0-.58h-.07a3.72,3.72,0,0,1-1.58,2.15,4.48,4.48,0,0,1-2.42.7,4.58,4.58,0,0,1-1.27-.18,3.55,3.55,0,0,1-1.14-.55,2.8,2.8,0,0,1-.82-.95,3.1,3.1,0,0,1,.28-3.17,3.85,3.85,0,0,1,1.46-1.07,6.36,6.36,0,0,1,1.87-.49,15.55,15.55,0,0,1,1.83-.12h1.84v-.85a3.26,3.26,0,0,0-.94-2.59,3.65,3.65,0,0,0-2.46-.81,4.45,4.45,0,0,0-1.76.34,5.24,5.24,0,0,0-1.46.92L165,135a5.29,5.29,0,0,1,1.67-1,5.45,5.45,0,0,1,1.83-.33,4.15,4.15,0,0,1,2.86.93,3.73,3.73,0,0,1,1.05,2.93Zm-.51-3.38H170.3a16.85,16.85,0,0,0-1.84.1,6.38,6.38,0,0,0-1.77.43,3.35,3.35,0,0,0-1.33.92,2.39,2.39,0,0,0-.51,1.61,2.24,2.24,0,0,0,1,2,3.16,3.16,0,0,0,1,.44,4.23,4.23,0,0,0,1,.14,4,4,0,0,0,2-.44,3.57,3.57,0,0,0,1.25-1.12,4.25,4.25,0,0,0,.66-1.49,7.47,7.47,0,0,0,.18-1.6Z"/><path class="cls-1" d="M175.73,144.57v-.48l7-9.66h-6.63V134h7.13v.51l-6.92,9.63h7.2v.44Z"/><path class="cls-1" d="M187.27,130a.5.5,0,0,1-.37-.16.62.62,0,0,1-.16-.44.6.6,0,0,1,.16-.41.51.51,0,0,1,.74,0,.56.56,0,0,1,.16.41.59.59,0,0,1-.17.44A.53.53,0,0,1,187.27,130ZM187,144.57V134h.5v10.58Z"/><path class="cls-1" d="M193.48,135.46a4.54,4.54,0,0,1,1-1,4,4,0,0,1,1.2-.61,4.21,4.21,0,0,1,1.33-.21,3.89,3.89,0,0,1,1.84.39,3.19,3.19,0,0,1,1.17,1,4.14,4.14,0,0,1,.62,1.44,6.94,6.94,0,0,1,.19,1.64v6.39h-.51v-6.35a6.87,6.87,0,0,0-.14-1.38,3.76,3.76,0,0,0-.51-1.33,3.28,3.28,0,0,0-1-1,3,3,0,0,0-1.63-.4,4,4,0,0,0-1.64.35,3.83,3.83,0,0,0-1.34,1,5.25,5.25,0,0,0-.9,1.62,6.6,6.6,0,0,0-.33,2.17v5.29h-.5v-7.91c0-.17,0-.38,0-.62s0-.5,0-.75,0-.49,0-.72,0-.43-.05-.58h.51c0,.15,0,.35,0,.58s0,.48,0,.74l0,.79c0,.25,0,.48,0,.67h0A4.5,4.5,0,0,1,193.48,135.46Z"/><path class="cls-1" d="M214.57,141.72h-.07a4.75,4.75,0,0,1-.8,1.37,5.54,5.54,0,0,1-1.13,1,4.86,4.86,0,0,1-1.35.61,5.62,5.62,0,0,1-1.48.2,5.36,5.36,0,0,1-2.13-.42,5.15,5.15,0,0,1-1.68-1.18,5.28,5.28,0,0,1-1.09-1.77,6.17,6.17,0,0,1-.39-2.22,6.3,6.3,0,0,1,.39-2.23,5.58,5.58,0,0,1,1.09-1.79,5,5,0,0,1,1.68-1.19,5.36,5.36,0,0,1,2.13-.42,5,5,0,0,1,4.76,3.2h.07V134h.51v10a10.56,10.56,0,0,1-.27,2.42,5.68,5.68,0,0,1-.87,2,4.27,4.27,0,0,1-1.61,1.39,5.28,5.28,0,0,1-2.47.52,6.46,6.46,0,0,1-2.67-.52,5.6,5.6,0,0,1-2-1.46l.34-.34a5.37,5.37,0,0,0,2,1.44,6.4,6.4,0,0,0,2.34.44,4.72,4.72,0,0,0,2.3-.5,4,4,0,0,0,1.45-1.34,5.45,5.45,0,0,0,.74-1.89,10.86,10.86,0,0,0,.22-2.22ZM205,139.3a6,6,0,0,0,.33,2,5,5,0,0,0,1,1.66,4.57,4.57,0,0,0,1.5,1.13,4.75,4.75,0,0,0,2,.41,4.59,4.59,0,0,0,1.94-.41,4.69,4.69,0,0,0,1.53-1.13,5.37,5.37,0,0,0,1.38-3.66,5.58,5.58,0,0,0-.36-2,5.17,5.17,0,0,0-1-1.64,4.66,4.66,0,0,0-1.53-1.12,4.44,4.44,0,0,0-1.94-.41,4.61,4.61,0,0,0-2,.42,4.74,4.74,0,0,0-1.5,1.14,5,5,0,0,0-1,1.66A5.9,5.9,0,0,0,205,139.3Z"/><g class="cls-12"><rect class="cls-1" width="300" height="250"/></g></g></g></svg>