<svg xmlns="http://www.w3.org/2000/svg" xmlns:xlink="http://www.w3.org/1999/xlink" viewBox="0 0 300 250"><defs><style>.cls-1,.cls-10,.cls-11,.cls-12,.cls-13,.cls-14,.cls-15,.cls-16,.cls-2,.cls-3,.cls-4,.cls-5,.cls-6,.cls-7,.cls-8,.cls-9{fill:#fff;}.cls-2{clip-path:url(#clip-path);}.cls-3{clip-path:url(#clip-path-2);}.cls-4{clip-path:url(#clip-path-15);}.cls-5{clip-path:url(#clip-path-3);}.cls-6{clip-path:url(#clip-path-4);}.cls-7{clip-path:url(#clip-path-5);}.cls-8{clip-path:url(#clip-path-6);}.cls-9{clip-path:url(#clip-path-7);}.cls-10{clip-path:url(#clip-path-8);}.cls-11{clip-path:url(#clip-path-9);}.cls-12{clip-path:url(#clip-path-10);}.cls-13{clip-path:url(#clip-path-11);}.cls-14{clip-path:url(#clip-path-12);}.cls-15{clip-path:url(#clip-path-13);}.cls-16{clip-path:url(#clip-path-14);}.cls-17{clip-path:url(#clip-path-16);}</style><clipPath id="clip-path"><path class="cls-1" d="M144.62,232c0,.33,0,.69,0,1.06s.07.68.11.92h-.4a2.71,2.71,0,0,1-.06-.47c0-.18,0-.37-.05-.57s0-.38,0-.58,0-.34,0-.47h-.06a3.11,3.11,0,0,1-1.31,1.78,3.78,3.78,0,0,1-2,.58,3.82,3.82,0,0,1-1-.16,3,3,0,0,1-.94-.45,2.22,2.22,0,0,1-.93-1.9,2.25,2.25,0,0,1,.48-1.5,3.37,3.37,0,0,1,1.21-.89,5.62,5.62,0,0,1,1.55-.41,14,14,0,0,1,1.51-.09h1.52v-.7a2.68,2.68,0,0,0-.78-2.14,3,3,0,0,0-2-.67,3.72,3.72,0,0,0-1.46.28,4.15,4.15,0,0,0-1.2.76l-.23-.32a4,4,0,0,1,1.38-.81,4.52,4.52,0,0,1,1.51-.28,3.44,3.44,0,0,1,2.36.77,3.09,3.09,0,0,1,.87,2.43Zm-.42-2.79h-1.35a13.57,13.57,0,0,0-1.52.09,5.12,5.12,0,0,0-1.46.35,2.82,2.82,0,0,0-1.1.76,2,2,0,0,0-.42,1.33,2,2,0,0,0,.23,1,1.85,1.85,0,0,0,.61.66,2.88,2.88,0,0,0,.82.36,3.27,3.27,0,0,0,.84.12,3.18,3.18,0,0,0,1.62-.37,3,3,0,0,0,1-.92,3.6,3.6,0,0,0,.55-1.23,6.07,6.07,0,0,0,.15-1.32Z"/></clipPath><clipPath id="clip-path-2"><path class="cls-4" d="M236.75,219.64h.41V234h-.41v-2.36h-.06a4.19,4.19,0,0,1-1.63,2,4.37,4.37,0,0,1-4.06.31,4.12,4.12,0,0,1-1.39-1,4.48,4.48,0,0,1-.9-1.47,5,5,0,0,1-.32-1.83,5,5,0,0,1,.32-1.84,4.57,4.57,0,0,1,.9-1.49,4.15,4.15,0,0,1,1.39-1,4.37,4.37,0,0,1,4.06.31,4.22,4.22,0,0,1,1.63,2h.06Zm-7.95,10a4.94,4.94,0,0,0,.28,1.63,4.09,4.09,0,0,0,.79,1.36,3.69,3.69,0,0,0,1.24.92,3.84,3.84,0,0,0,1.65.35,3.71,3.71,0,0,0,1.6-.35,3.87,3.87,0,0,0,1.26-.92,4.2,4.2,0,0,0,.84-1.36,4.55,4.55,0,0,0,0-3.3,4.1,4.1,0,0,0-.84-1.36,3.94,3.94,0,0,0-4.51-.91,3.61,3.61,0,0,0-1.24.94,4.19,4.19,0,0,0-.79,1.36A5,5,0,0,0,228.8,229.65Z"/></clipPath><clipPath id="clip-path-3"><path class="cls-3" d="M248.64,219.64h.42V234h-.42v-2.36h-.06a4.2,4.2,0,0,1-3.93,2.63,4.3,4.3,0,0,1-1.76-.36,4,4,0,0,1-1.38-1,4.5,4.5,0,0,1-.91-1.47,5.17,5.17,0,0,1-.32-1.83,5.27,5.27,0,0,1,.32-1.84,4.59,4.59,0,0,1,.91-1.49,4,4,0,0,1,1.38-1,4.25,4.25,0,0,1,5.69,2.28h.06Zm-7.94,10a4.93,4.93,0,0,0,.27,1.63,4.26,4.26,0,0,0,.79,1.36,3.91,3.91,0,0,0,4.5.92,4.09,4.09,0,0,0,1.26-.92,4.59,4.59,0,0,0,.84-4.66,4.45,4.45,0,0,0-.84-1.36,3.94,3.94,0,0,0-1.26-.92,3.75,3.75,0,0,0-1.61-.34,3.76,3.76,0,0,0-2.89,1.29A4.38,4.38,0,0,0,241,228,5,5,0,0,0,240.7,229.65Z"/></clipPath><clipPath id="clip-path-4"><path class="cls-5" d="M254.64,225.59a3,3,0,0,1,1.81-.6h.17l.17,0v.36h-.25a2.59,2.59,0,0,0-1.42.37,3.07,3.07,0,0,0-1,1,4.63,4.63,0,0,0-.56,1.33,6.14,6.14,0,0,0-.18,1.46V234H253v-6.54c0-.13,0-.31,0-.51s0-.41,0-.62a5.41,5.41,0,0,0,0-.59c0-.2,0-.35,0-.48h.41a3.14,3.14,0,0,1,0,.48c0,.18,0,.39,0,.61s0,.44,0,.65,0,.39,0,.56h0A3.48,3.48,0,0,1,254.64,225.59Z"/></clipPath><clipPath id="clip-path-5"><path class="cls-6" d="M258.27,229.54a5.3,5.3,0,0,0,.24,1.57,4.33,4.33,0,0,0,.72,1.4,3.79,3.79,0,0,0,1.23,1,3.83,3.83,0,0,0,1.75.38,4,4,0,0,0,1.82-.41,4,4,0,0,0,1.39-1.19l.3.27a4.44,4.44,0,0,1-1.51,1.27,4.4,4.4,0,0,1-2,.44,4.27,4.27,0,0,1-3.15-1.33,4.44,4.44,0,0,1-.89-1.51,5.51,5.51,0,0,1-.31-1.89,5,5,0,0,1,.32-1.83,4.35,4.35,0,0,1,.88-1.44,3.88,3.88,0,0,1,1.33-.94A4.08,4.08,0,0,1,262,225a4,4,0,0,1,1.79.37,3.75,3.75,0,0,1,1.26.94,3.86,3.86,0,0,1,.75,1.34,4.76,4.76,0,0,1,.25,1.53v.37Zm7.39-.37a4.45,4.45,0,0,0-.29-1.55,3.64,3.64,0,0,0-.75-1.21,3.22,3.22,0,0,0-1.14-.78,3.9,3.9,0,0,0-1.48-.27,3.33,3.33,0,0,0-1.69.4,3.89,3.89,0,0,0-1.15,1,4.31,4.31,0,0,0-.66,1.25,3.86,3.86,0,0,0-.21,1.15Z"/></clipPath><clipPath id="clip-path-6"><path class="cls-7" d="M274.1,231.72a2.25,2.25,0,0,1-.23,1.05,2.39,2.39,0,0,1-.61.79,2.77,2.77,0,0,1-.91.5,3.57,3.57,0,0,1-1.1.17,4.2,4.2,0,0,1-1.76-.37,3.28,3.28,0,0,1-1.3-1.1l.34-.22a3.19,3.19,0,0,0,2.74,1.33,2.85,2.85,0,0,0,.85-.14,2.27,2.27,0,0,0,.77-.4,1.92,1.92,0,0,0,.79-1.57,1.66,1.66,0,0,0-.27-1,2.16,2.16,0,0,0-.7-.61,4.53,4.53,0,0,0-.92-.37l-.94-.25c-.31-.09-.61-.19-.89-.3a2.73,2.73,0,0,1-.73-.42,1.82,1.82,0,0,1-.5-.63,2.24,2.24,0,0,1-.18-.95,2,2,0,0,1,.84-1.69,2.74,2.74,0,0,1,.86-.41,3.33,3.33,0,0,1,1-.15,3.07,3.07,0,0,1,2.68,1.28l-.36.21a2.82,2.82,0,0,0-1-.85,3,3,0,0,0-1.33-.27,3.49,3.49,0,0,0-.76.09,2.37,2.37,0,0,0-.73.31,1.8,1.8,0,0,0-.55.58,1.64,1.64,0,0,0-.22.88,2,2,0,0,0,.18.91,1.47,1.47,0,0,0,.5.55,3.12,3.12,0,0,0,.78.35c.31.1.64.19,1,.28s.68.19,1,.31a3.42,3.42,0,0,1,.85.45,1.87,1.87,0,0,1,.59.66A2,2,0,0,1,274.1,231.72Z"/></clipPath><clipPath id="clip-path-7"><path class="cls-8" d="M282,231.72a2.38,2.38,0,0,1-.23,1.05,2.29,2.29,0,0,1-.62.79,2.82,2.82,0,0,1-.9.5,3.59,3.59,0,0,1-1.11.17,4.15,4.15,0,0,1-1.75-.37,3.22,3.22,0,0,1-1.3-1.1l.34-.22a3.16,3.16,0,0,0,2.73,1.33,2.85,2.85,0,0,0,.85-.14,2.31,2.31,0,0,0,.78-.4,2,2,0,0,0,.57-.66,1.94,1.94,0,0,0,.22-.91,1.59,1.59,0,0,0-.28-1,2,2,0,0,0-.69-.61,5,5,0,0,0-.92-.37l-.94-.25q-.48-.14-.9-.3a2.73,2.73,0,0,1-.73-.42,1.79,1.79,0,0,1-.49-.63,2.24,2.24,0,0,1-.18-.95,2,2,0,0,1,.23-1,2.13,2.13,0,0,1,.6-.7,2.79,2.79,0,0,1,.87-.41,3.28,3.28,0,0,1,1-.15,3,3,0,0,1,2.67,1.28l-.36.21a2.88,2.88,0,0,0-1-.85,3,3,0,0,0-1.33-.27,3.42,3.42,0,0,0-.76.09,2.42,2.42,0,0,0-.74.31,1.91,1.91,0,0,0-.55.58,1.74,1.74,0,0,0-.21.88,2,2,0,0,0,.18.91,1.39,1.39,0,0,0,.5.55,2.82,2.82,0,0,0,.78.35c.3.1.64.19,1,.28a10.37,10.37,0,0,1,1,.31,3.49,3.49,0,0,1,.86.45,2.08,2.08,0,0,1,.59.66A2.13,2.13,0,0,1,282,231.72Z"/></clipPath><clipPath id="clip-path-8"><path class="cls-2" d="M148.34,234V219.64h.42V234Z"/></clipPath><clipPath id="clip-path-9"><path class="cls-10" d="M152.63,234V219.64h.42V234Z"/></clipPath><clipPath id="clip-path-10"><path class="cls-11" d="M167.68,232c0,.33,0,.69,0,1.06s.07.68.1.92h-.4a4.53,4.53,0,0,1-.05-.47c0-.18,0-.37,0-.57s0-.38,0-.58,0-.34,0-.47h-.05a3.12,3.12,0,0,1-1.32,1.78,3.64,3.64,0,0,1-3,.42,3.08,3.08,0,0,1-1-.45,2.32,2.32,0,0,1-.67-.78,2.34,2.34,0,0,1-.26-1.12,2.26,2.26,0,0,1,.49-1.5,3.25,3.25,0,0,1,1.2-.89,5.71,5.71,0,0,1,1.55-.41,14.11,14.11,0,0,1,1.51-.09h1.52v-.7a2.68,2.68,0,0,0-.78-2.14,3,3,0,0,0-2-.67,3.67,3.67,0,0,0-1.45.28,4.34,4.34,0,0,0-1.21.76l-.23-.32a4.18,4.18,0,0,1,1.38-.81,4.57,4.57,0,0,1,1.51-.28,3.47,3.47,0,0,1,2.37.77,3.12,3.12,0,0,1,.86,2.43Zm-.42-2.79h-1.35a13.71,13.71,0,0,0-1.52.09,5.2,5.2,0,0,0-1.46.35,2.78,2.78,0,0,0-1.09.76,1.94,1.94,0,0,0-.43,1.33,2,2,0,0,0,.24,1,1.85,1.85,0,0,0,.61.66,2.82,2.82,0,0,0,.81.36,3.28,3.28,0,0,0,.85.12,3.21,3.21,0,0,0,1.62-.37,3.05,3.05,0,0,0,1-.92,3.4,3.4,0,0,0,.54-1.23,6.07,6.07,0,0,0,.15-1.32Z"/></clipPath><clipPath id="clip-path-11"><path class="cls-12" d="M174.05,234.17a3.11,3.11,0,0,1-.59.06,1.72,1.72,0,0,1-1.47-.58,2.35,2.35,0,0,1-.43-1.45v-6.58h-1.9v-.36h1.88V222.7H172v2.56h2.56v.36H172v6.58a1.65,1.65,0,0,0,.43,1.28,1.7,1.7,0,0,0,1.16.39,2.7,2.7,0,0,0,1-.17l.06.32A3.07,3.07,0,0,1,174.05,234.17Z"/></clipPath><clipPath id="clip-path-12"><path class="cls-13" d="M190.12,229.61a5.19,5.19,0,0,1-.33,1.88,4.31,4.31,0,0,1-.94,1.47,4,4,0,0,1-1.46,1,4.84,4.84,0,0,1-1.85.35,4.79,4.79,0,0,1-1.84-.35,4.09,4.09,0,0,1-1.45-1,4.47,4.47,0,0,1-.94-1.47,5.19,5.19,0,0,1-.33-1.88,5.1,5.1,0,0,1,.33-1.87,4.38,4.38,0,0,1,.94-1.45,4.2,4.2,0,0,1,1.45-.95,4.79,4.79,0,0,1,1.84-.35,4.84,4.84,0,0,1,1.85.35,4.15,4.15,0,0,1,1.46.95,4.22,4.22,0,0,1,.94,1.45A5.1,5.1,0,0,1,190.12,229.61Zm-.42,0a4.77,4.77,0,0,0-.28-1.65,4,4,0,0,0-.83-1.36,3.81,3.81,0,0,0-1.31-.91,4.73,4.73,0,0,0-3.47,0,3.86,3.86,0,0,0-1.3.91,4.18,4.18,0,0,0-.83,1.36,5.06,5.06,0,0,0,0,3.32,4.18,4.18,0,0,0,.83,1.36,4,4,0,0,0,1.3.92,4.48,4.48,0,0,0,3.47,0,4,4,0,0,0,1.31-.92,4,4,0,0,0,.83-1.36A4.8,4.8,0,0,0,189.7,229.61Z"/></clipPath><clipPath id="clip-path-13"><path class="cls-14" d="M194.28,226.48a3.7,3.7,0,0,1,.82-.81,3.3,3.3,0,0,1,1-.5,3.38,3.38,0,0,1,1.1-.18,3.17,3.17,0,0,1,1.52.33,2.67,2.67,0,0,1,1,.85,3.57,3.57,0,0,1,.51,1.2,6.07,6.07,0,0,1,.15,1.35V234h-.42v-5.24a5.78,5.78,0,0,0-.11-1.14,3.17,3.17,0,0,0-.43-1.11,2.63,2.63,0,0,0-.84-.82,2.55,2.55,0,0,0-1.35-.33,3.14,3.14,0,0,0-1.36.29,3.23,3.23,0,0,0-1.1.85,4.06,4.06,0,0,0-.74,1.33,5.31,5.31,0,0,0-.28,1.8V234h-.42v-6.54c0-.13,0-.31,0-.51s0-.41,0-.62,0-.41,0-.59,0-.35,0-.48h.42c0,.13,0,.28,0,.48s0,.39,0,.61,0,.44,0,.65,0,.39,0,.56h0A3.44,3.44,0,0,1,194.28,226.48Z"/></clipPath><clipPath id="clip-path-14"><path class="cls-15" d="M203.76,229.54a5.3,5.3,0,0,0,.24,1.57,4.33,4.33,0,0,0,.72,1.4,3.68,3.68,0,0,0,1.23,1,3.8,3.8,0,0,0,1.75.38,4,4,0,0,0,1.82-.41,4.12,4.12,0,0,0,1.39-1.19l.3.27a4.44,4.44,0,0,1-1.51,1.27,4.4,4.4,0,0,1-2,.44,4.27,4.27,0,0,1-3.15-1.33,4.29,4.29,0,0,1-.89-1.51,5.51,5.51,0,0,1-.32-1.89,5,5,0,0,1,.33-1.83,4.35,4.35,0,0,1,.88-1.44,3.88,3.88,0,0,1,1.33-.94,4,4,0,0,1,1.64-.34,4,4,0,0,1,1.78.37,3.79,3.79,0,0,1,1.27.94,3.86,3.86,0,0,1,.75,1.34,4.76,4.76,0,0,1,.25,1.53v.37Zm7.39-.37a4.45,4.45,0,0,0-.29-1.55,3.81,3.81,0,0,0-.75-1.21,3.22,3.22,0,0,0-1.14-.78,3.9,3.9,0,0,0-1.48-.27,3.37,3.37,0,0,0-1.7.4,3.85,3.85,0,0,0-1.14,1A4.31,4.31,0,0,0,204,228a3.86,3.86,0,0,0-.21,1.15Z"/></clipPath><clipPath id="clip-path-15"><path class="cls-16" d="M225.42,232c0,.33,0,.69.05,1.06s.07.68.1.92h-.39a2.71,2.71,0,0,1-.06-.47c0-.18,0-.37-.05-.57s0-.38,0-.58,0-.34,0-.47H225a3.15,3.15,0,0,1-1.31,1.78,3.66,3.66,0,0,1-3,.42,2.92,2.92,0,0,1-.94-.45,2.24,2.24,0,0,1-.68-.78,2.34,2.34,0,0,1-.26-1.12,2.26,2.26,0,0,1,.49-1.5,3.21,3.21,0,0,1,1.21-.89A5.55,5.55,0,0,1,222,229a14.26,14.26,0,0,1,1.51-.09H225v-.7a2.71,2.71,0,0,0-.77-2.14,3,3,0,0,0-2-.67,3.67,3.67,0,0,0-1.45.28,4.34,4.34,0,0,0-1.21.76l-.23-.32a4.18,4.18,0,0,1,1.38-.81,4.61,4.61,0,0,1,1.51-.28,3.47,3.47,0,0,1,2.37.77,3.12,3.12,0,0,1,.86,2.43Zm-.42-2.79h-1.34a13.75,13.75,0,0,0-1.53.09,5.2,5.2,0,0,0-1.46.35,2.86,2.86,0,0,0-1.09.76,1.94,1.94,0,0,0-.43,1.33,2,2,0,0,0,.24,1,1.85,1.85,0,0,0,.61.66,3,3,0,0,0,.81.36,3.28,3.28,0,0,0,.85.12,3.21,3.21,0,0,0,1.62-.37,3,3,0,0,0,1-.92,3.4,3.4,0,0,0,.54-1.23,6.07,6.07,0,0,0,.15-1.32Z"/></clipPath><clipPath id="clip-path-16"><path class="cls-9" d="M285.29,234.11a.41.41,0,0,1-.3-.13.49.49,0,0,1-.14-.36.46.46,0,0,1,.14-.34.4.4,0,0,1,.61,0,.52.52,0,0,1,0,.7A.44.44,0,0,1,285.29,234.11Z"/></clipPath></defs><title>text3</title><g id="Layer_2" data-name="Layer 2"><g id="Layer_1-2" data-name="Layer 1"><path class="cls-1" d="M144.62,232c0,.33,0,.69,0,1.06s.07.68.11.92h-.4a2.71,2.71,0,0,1-.06-.47c0-.18,0-.37-.05-.57s0-.38,0-.58,0-.34,0-.47h-.06a3.11,3.11,0,0,1-1.31,1.78,3.78,3.78,0,0,1-2,.58,3.82,3.82,0,0,1-1-.16,3,3,0,0,1-.94-.45,2.22,2.22,0,0,1-.93-1.9,2.25,2.25,0,0,1,.48-1.5,3.37,3.37,0,0,1,1.21-.89,5.62,5.62,0,0,1,1.55-.41,14,14,0,0,1,1.51-.09h1.52v-.7a2.68,2.68,0,0,0-.78-2.14,3,3,0,0,0-2-.67,3.72,3.72,0,0,0-1.46.28,4.15,4.15,0,0,0-1.2.76l-.23-.32a4,4,0,0,1,1.38-.81,4.52,4.52,0,0,1,1.51-.28,3.44,3.44,0,0,1,2.36.77,3.09,3.09,0,0,1,.87,2.43Zm-.42-2.79h-1.35a13.57,13.57,0,0,0-1.52.09,5.12,5.12,0,0,0-1.46.35,2.82,2.82,0,0,0-1.1.76,2,2,0,0,0-.42,1.33,2,2,0,0,0,.23,1,1.85,1.85,0,0,0,.61.66,2.88,2.88,0,0,0,.82.36,3.27,3.27,0,0,0,.84.12,3.18,3.18,0,0,0,1.62-.37,3,3,0,0,0,1-.92,3.6,3.6,0,0,0,.55-1.23,6.07,6.07,0,0,0,.15-1.32Z"/><path class="cls-1" d="M148.34,234V219.64h.42V234Z"/><path class="cls-1" d="M152.63,234V219.64h.42V234Z"/><path class="cls-1" d="M167.68,232c0,.33,0,.69,0,1.06s.07.68.1.92h-.4a4.53,4.53,0,0,1-.05-.47c0-.18,0-.37,0-.57s0-.38,0-.58,0-.34,0-.47h-.05a3.12,3.12,0,0,1-1.32,1.78,3.64,3.64,0,0,1-3,.42,3.08,3.08,0,0,1-1-.45,2.32,2.32,0,0,1-.67-.78,2.34,2.34,0,0,1-.26-1.12,2.26,2.26,0,0,1,.49-1.5,3.25,3.25,0,0,1,1.2-.89,5.71,5.71,0,0,1,1.55-.41,14.11,14.11,0,0,1,1.51-.09h1.52v-.7a2.68,2.68,0,0,0-.78-2.14,3,3,0,0,0-2-.67,3.67,3.67,0,0,0-1.45.28,4.34,4.34,0,0,0-1.21.76l-.23-.32a4.18,4.18,0,0,1,1.38-.81,4.57,4.57,0,0,1,1.51-.28,3.47,3.47,0,0,1,2.37.77,3.12,3.12,0,0,1,.86,2.43Zm-.42-2.79h-1.35a13.71,13.71,0,0,0-1.52.09,5.2,5.2,0,0,0-1.46.35,2.78,2.78,0,0,0-1.09.76,1.94,1.94,0,0,0-.43,1.33,2,2,0,0,0,.24,1,1.85,1.85,0,0,0,.61.66,2.82,2.82,0,0,0,.81.36,3.28,3.28,0,0,0,.85.12,3.21,3.21,0,0,0,1.62-.37,3.05,3.05,0,0,0,1-.92,3.4,3.4,0,0,0,.54-1.23,6.07,6.07,0,0,0,.15-1.32Z"/><path class="cls-1" d="M174.05,234.17a3.11,3.11,0,0,1-.59.06,1.72,1.72,0,0,1-1.47-.58,2.35,2.35,0,0,1-.43-1.45v-6.58h-1.9v-.36h1.88V222.7H172v2.56h2.56v.36H172v6.58a1.65,1.65,0,0,0,.43,1.28,1.7,1.7,0,0,0,1.16.39,2.7,2.7,0,0,0,1-.17l.06.32A3.07,3.07,0,0,1,174.05,234.17Z"/><path class="cls-1" d="M190.12,229.61a5.19,5.19,0,0,1-.33,1.88,4.31,4.31,0,0,1-.94,1.47,4,4,0,0,1-1.46,1,4.84,4.84,0,0,1-1.85.35,4.79,4.79,0,0,1-1.84-.35,4.09,4.09,0,0,1-1.45-1,4.47,4.47,0,0,1-.94-1.47,5.19,5.19,0,0,1-.33-1.88,5.1,5.1,0,0,1,.33-1.87,4.38,4.38,0,0,1,.94-1.45,4.2,4.2,0,0,1,1.45-.95,4.79,4.79,0,0,1,1.84-.35,4.84,4.84,0,0,1,1.85.35,4.15,4.15,0,0,1,1.46.95,4.22,4.22,0,0,1,.94,1.45A5.1,5.1,0,0,1,190.12,229.61Zm-.42,0a4.77,4.77,0,0,0-.28-1.65,4,4,0,0,0-.83-1.36,3.81,3.81,0,0,0-1.31-.91,4.73,4.73,0,0,0-3.47,0,3.86,3.86,0,0,0-1.3.91,4.18,4.18,0,0,0-.83,1.36,5.06,5.06,0,0,0,0,3.32,4.18,4.18,0,0,0,.83,1.36,4,4,0,0,0,1.3.92,4.48,4.48,0,0,0,3.47,0,4,4,0,0,0,1.31-.92,4,4,0,0,0,.83-1.36A4.8,4.8,0,0,0,189.7,229.61Z"/><path class="cls-1" d="M194.28,226.48a3.7,3.7,0,0,1,.82-.81,3.3,3.3,0,0,1,1-.5,3.38,3.38,0,0,1,1.1-.18,3.17,3.17,0,0,1,1.52.33,2.67,2.67,0,0,1,1,.85,3.57,3.57,0,0,1,.51,1.2,6.07,6.07,0,0,1,.15,1.35V234h-.42v-5.24a5.78,5.78,0,0,0-.11-1.14,3.17,3.17,0,0,0-.43-1.11,2.63,2.63,0,0,0-.84-.82,2.55,2.55,0,0,0-1.35-.33,3.14,3.14,0,0,0-1.36.29,3.23,3.23,0,0,0-1.1.85,4.06,4.06,0,0,0-.74,1.33,5.31,5.31,0,0,0-.28,1.8V234h-.42v-6.54c0-.13,0-.31,0-.51s0-.41,0-.62,0-.41,0-.59,0-.35,0-.48h.42c0,.13,0,.28,0,.48s0,.39,0,.61,0,.44,0,.65,0,.39,0,.56h0A3.44,3.44,0,0,1,194.28,226.48Z"/><path class="cls-1" d="M203.76,229.54a5.3,5.3,0,0,0,.24,1.57,4.33,4.33,0,0,0,.72,1.4,3.68,3.68,0,0,0,1.23,1,3.8,3.8,0,0,0,1.75.38,4,4,0,0,0,1.82-.41,4.12,4.12,0,0,0,1.39-1.19l.3.27a4.44,4.44,0,0,1-1.51,1.27,4.4,4.4,0,0,1-2,.44,4.27,4.27,0,0,1-3.15-1.33,4.29,4.29,0,0,1-.89-1.51,5.51,5.51,0,0,1-.32-1.89,5,5,0,0,1,.33-1.83,4.35,4.35,0,0,1,.88-1.44,3.88,3.88,0,0,1,1.33-.94,4,4,0,0,1,1.64-.34,4,4,0,0,1,1.78.37,3.79,3.79,0,0,1,1.27.94,3.86,3.86,0,0,1,.75,1.34,4.76,4.76,0,0,1,.25,1.53v.37Zm7.39-.37a4.45,4.45,0,0,0-.29-1.55,3.81,3.81,0,0,0-.75-1.21,3.22,3.22,0,0,0-1.14-.78,3.9,3.9,0,0,0-1.48-.27,3.37,3.37,0,0,0-1.7.4,3.85,3.85,0,0,0-1.14,1A4.31,4.31,0,0,0,204,228a3.86,3.86,0,0,0-.21,1.15Z"/><path class="cls-1" d="M225.42,232c0,.33,0,.69.05,1.06s.07.68.1.92h-.39a2.71,2.71,0,0,1-.06-.47c0-.18,0-.37-.05-.57s0-.38,0-.58,0-.34,0-.47H225a3.15,3.15,0,0,1-1.31,1.78,3.66,3.66,0,0,1-3,.42,2.92,2.92,0,0,1-.94-.45,2.24,2.24,0,0,1-.68-.78,2.34,2.34,0,0,1-.26-1.12,2.26,2.26,0,0,1,.49-1.5,3.21,3.21,0,0,1,1.21-.89A5.55,5.55,0,0,1,222,229a14.26,14.26,0,0,1,1.51-.09H225v-.7a2.71,2.71,0,0,0-.77-2.14,3,3,0,0,0-2-.67,3.67,3.67,0,0,0-1.45.28,4.34,4.34,0,0,0-1.21.76l-.23-.32a4.18,4.18,0,0,1,1.38-.81,4.61,4.61,0,0,1,1.51-.28,3.47,3.47,0,0,1,2.37.77,3.12,3.12,0,0,1,.86,2.43Zm-.42-2.79h-1.34a13.75,13.75,0,0,0-1.53.09,5.2,5.2,0,0,0-1.46.35,2.86,2.86,0,0,0-1.09.76,1.94,1.94,0,0,0-.43,1.33,2,2,0,0,0,.24,1,1.85,1.85,0,0,0,.61.66,3,3,0,0,0,.81.36,3.28,3.28,0,0,0,.85.12,3.21,3.21,0,0,0,1.62-.37,3,3,0,0,0,1-.92,3.4,3.4,0,0,0,.54-1.23,6.07,6.07,0,0,0,.15-1.32Z"/><path class="cls-1" d="M236.75,219.64h.41V234h-.41v-2.36h-.06a4.19,4.19,0,0,1-1.63,2,4.37,4.37,0,0,1-4.06.31,4.12,4.12,0,0,1-1.39-1,4.48,4.48,0,0,1-.9-1.47,5,5,0,0,1-.32-1.83,5,5,0,0,1,.32-1.84,4.57,4.57,0,0,1,.9-1.49,4.15,4.15,0,0,1,1.39-1,4.37,4.37,0,0,1,4.06.31,4.22,4.22,0,0,1,1.63,2h.06Zm-7.95,10a4.94,4.94,0,0,0,.28,1.63,4.09,4.09,0,0,0,.79,1.36,3.69,3.69,0,0,0,1.24.92,3.84,3.84,0,0,0,1.65.35,3.71,3.71,0,0,0,1.6-.35,3.87,3.87,0,0,0,1.26-.92,4.2,4.2,0,0,0,.84-1.36,4.55,4.55,0,0,0,0-3.3,4.1,4.1,0,0,0-.84-1.36,3.94,3.94,0,0,0-4.51-.91,3.61,3.61,0,0,0-1.24.94,4.19,4.19,0,0,0-.79,1.36A5,5,0,0,0,228.8,229.65Z"/><path class="cls-1" d="M248.64,219.64h.42V234h-.42v-2.36h-.06a4.2,4.2,0,0,1-3.93,2.63,4.3,4.3,0,0,1-1.76-.36,4,4,0,0,1-1.38-1,4.5,4.5,0,0,1-.91-1.47,5.17,5.17,0,0,1-.32-1.83,5.27,5.27,0,0,1,.32-1.84,4.59,4.59,0,0,1,.91-1.49,4,4,0,0,1,1.38-1,4.25,4.25,0,0,1,5.69,2.28h.06Zm-7.94,10a4.93,4.93,0,0,0,.27,1.63,4.26,4.26,0,0,0,.79,1.36,3.91,3.91,0,0,0,4.5.92,4.09,4.09,0,0,0,1.26-.92,4.59,4.59,0,0,0,.84-4.66,4.45,4.45,0,0,0-.84-1.36,3.94,3.94,0,0,0-1.26-.92,3.75,3.75,0,0,0-1.61-.34,3.76,3.76,0,0,0-2.89,1.29A4.38,4.38,0,0,0,241,228,5,5,0,0,0,240.7,229.65Z"/><path class="cls-1" d="M254.64,225.59a3,3,0,0,1,1.81-.6h.17l.17,0v.36h-.25a2.59,2.59,0,0,0-1.42.37,3.07,3.07,0,0,0-1,1,4.63,4.63,0,0,0-.56,1.33,6.14,6.14,0,0,0-.18,1.46V234H253v-6.54c0-.13,0-.31,0-.51s0-.41,0-.62a5.41,5.41,0,0,0,0-.59c0-.2,0-.35,0-.48h.41a3.14,3.14,0,0,1,0,.48c0,.18,0,.39,0,.61s0,.44,0,.65,0,.39,0,.56h0A3.48,3.48,0,0,1,254.64,225.59Z"/><path class="cls-1" d="M258.27,229.54a5.3,5.3,0,0,0,.24,1.57,4.33,4.33,0,0,0,.72,1.4,3.79,3.79,0,0,0,1.23,1,3.83,3.83,0,0,0,1.75.38,4,4,0,0,0,1.82-.41,4,4,0,0,0,1.39-1.19l.3.27a4.44,4.44,0,0,1-1.51,1.27,4.4,4.4,0,0,1-2,.44,4.27,4.27,0,0,1-3.15-1.33,4.44,4.44,0,0,1-.89-1.51,5.51,5.51,0,0,1-.31-1.89,5,5,0,0,1,.32-1.83,4.35,4.35,0,0,1,.88-1.44,3.88,3.88,0,0,1,1.33-.94A4.08,4.08,0,0,1,262,225a4,4,0,0,1,1.79.37,3.75,3.75,0,0,1,1.26.94,3.86,3.86,0,0,1,.75,1.34,4.76,4.76,0,0,1,.25,1.53v.37Zm7.39-.37a4.45,4.45,0,0,0-.29-1.55,3.64,3.64,0,0,0-.75-1.21,3.22,3.22,0,0,0-1.14-.78,3.9,3.9,0,0,0-1.48-.27,3.33,3.33,0,0,0-1.69.4,3.89,3.89,0,0,0-1.15,1,4.31,4.31,0,0,0-.66,1.25,3.86,3.86,0,0,0-.21,1.15Z"/><path class="cls-1" d="M274.1,231.72a2.25,2.25,0,0,1-.23,1.05,2.39,2.39,0,0,1-.61.79,2.77,2.77,0,0,1-.91.5,3.57,3.57,0,0,1-1.1.17,4.2,4.2,0,0,1-1.76-.37,3.28,3.28,0,0,1-1.3-1.1l.34-.22a3.19,3.19,0,0,0,2.74,1.33,2.85,2.85,0,0,0,.85-.14,2.27,2.27,0,0,0,.77-.4,1.92,1.92,0,0,0,.79-1.57,1.66,1.66,0,0,0-.27-1,2.16,2.16,0,0,0-.7-.61,4.53,4.53,0,0,0-.92-.37l-.94-.25c-.31-.09-.61-.19-.89-.3a2.73,2.73,0,0,1-.73-.42,1.82,1.82,0,0,1-.5-.63,2.24,2.24,0,0,1-.18-.95,2,2,0,0,1,.84-1.69,2.74,2.74,0,0,1,.86-.41,3.33,3.33,0,0,1,1-.15,3.07,3.07,0,0,1,2.68,1.28l-.36.21a2.82,2.82,0,0,0-1-.85,3,3,0,0,0-1.33-.27,3.49,3.49,0,0,0-.76.09,2.37,2.37,0,0,0-.73.31,1.8,1.8,0,0,0-.55.58,1.64,1.64,0,0,0-.22.88,2,2,0,0,0,.18.91,1.47,1.47,0,0,0,.5.55,3.12,3.12,0,0,0,.78.35c.31.1.64.19,1,.28s.68.19,1,.31a3.42,3.42,0,0,1,.85.45,1.87,1.87,0,0,1,.59.66A2,2,0,0,1,274.1,231.72Z"/><path class="cls-1" d="M282,231.72a2.38,2.38,0,0,1-.23,1.05,2.29,2.29,0,0,1-.62.79,2.82,2.82,0,0,1-.9.5,3.59,3.59,0,0,1-1.11.17,4.15,4.15,0,0,1-1.75-.37,3.22,3.22,0,0,1-1.3-1.1l.34-.22a3.16,3.16,0,0,0,2.73,1.33,2.85,2.85,0,0,0,.85-.14,2.31,2.31,0,0,0,.78-.4,2,2,0,0,0,.57-.66,1.94,1.94,0,0,0,.22-.91,1.59,1.59,0,0,0-.28-1,2,2,0,0,0-.69-.61,5,5,0,0,0-.92-.37l-.94-.25q-.48-.14-.9-.3a2.73,2.73,0,0,1-.73-.42,1.79,1.79,0,0,1-.49-.63,2.24,2.24,0,0,1-.18-.95,2,2,0,0,1,.23-1,2.13,2.13,0,0,1,.6-.7,2.79,2.79,0,0,1,.87-.41,3.28,3.28,0,0,1,1-.15,3,3,0,0,1,2.67,1.28l-.36.21a2.88,2.88,0,0,0-1-.85,3,3,0,0,0-1.33-.27,3.42,3.42,0,0,0-.76.09,2.42,2.42,0,0,0-.74.31,1.91,1.91,0,0,0-.55.58,1.74,1.74,0,0,0-.21.88,2,2,0,0,0,.18.91,1.39,1.39,0,0,0,.5.55,2.82,2.82,0,0,0,.78.35c.3.1.64.19,1,.28a10.37,10.37,0,0,1,1,.31,3.49,3.49,0,0,1,.86.45,2.08,2.08,0,0,1,.59.66A2.13,2.13,0,0,1,282,231.72Z"/><path class="cls-1" d="M285.29,234.11a.41.41,0,0,1-.3-.13.49.49,0,0,1-.14-.36.46.46,0,0,1,.14-.34.4.4,0,0,1,.61,0,.52.52,0,0,1,0,.7A.44.44,0,0,1,285.29,234.11Z"/><g class="cls-17"><rect class="cls-1" width="300" height="250"/></g></g></g></svg>