<svg xmlns="http://www.w3.org/2000/svg" xmlns:xlink="http://www.w3.org/1999/xlink" viewBox="0 0 300 250"><defs><style>.cls-1,.cls-10,.cls-11,.cls-12,.cls-13,.cls-14,.cls-15,.cls-16,.cls-17,.cls-18,.cls-19,.cls-2,.cls-20,.cls-21,.cls-22,.cls-23,.cls-24,.cls-25,.cls-26,.cls-3,.cls-4,.cls-5,.cls-6,.cls-7,.cls-8,.cls-9{fill:#fff;}.cls-2{clip-path:url(#clip-path);}.cls-3{clip-path:url(#clip-path-2);}.cls-4{clip-path:url(#clip-path-25);}.cls-5{clip-path:url(#clip-path-3);}.cls-6{clip-path:url(#clip-path-4);}.cls-7{clip-path:url(#clip-path-5);}.cls-8{clip-path:url(#clip-path-6);}.cls-9{clip-path:url(#clip-path-7);}.cls-10{clip-path:url(#clip-path-8);}.cls-11{clip-path:url(#clip-path-9);}.cls-12{clip-path:url(#clip-path-10);}.cls-13{clip-path:url(#clip-path-11);}.cls-14{clip-path:url(#clip-path-12);}.cls-15{clip-path:url(#clip-path-13);}.cls-16{clip-path:url(#clip-path-14);}.cls-17{clip-path:url(#clip-path-15);}.cls-18{clip-path:url(#clip-path-16);}.cls-19{clip-path:url(#clip-path-17);}.cls-20{clip-path:url(#clip-path-18);}.cls-21{clip-path:url(#clip-path-19);}.cls-22{clip-path:url(#clip-path-20);}.cls-23{clip-path:url(#clip-path-21);}.cls-24{clip-path:url(#clip-path-22);}.cls-25{clip-path:url(#clip-path-23);}.cls-26{clip-path:url(#clip-path-24);}.cls-27{clip-path:url(#clip-path-26);}</style><clipPath id="clip-path"><path class="cls-1" d="M46.36,226.56a3.64,3.64,0,0,1,.54-1.08,3.89,3.89,0,0,1,.81-.81,3.55,3.55,0,0,1,1-.5,3.38,3.38,0,0,1,1.1-.18,3.14,3.14,0,0,1,1.52.33,2.59,2.59,0,0,1,1,.85,3.57,3.57,0,0,1,.51,1.2,5.54,5.54,0,0,1,.16,1.35V233h-.42v-5.24a5.82,5.82,0,0,0-.12-1.14,3,3,0,0,0-.42-1.11,2.57,2.57,0,0,0-.85-.82,2.5,2.5,0,0,0-1.35-.33,3.17,3.17,0,0,0-1.36.29,3.23,3.23,0,0,0-1.1.85,4.06,4.06,0,0,0-.74,1.33,5.58,5.58,0,0,0-.27,1.8V233h-.42V218.64h.42v7.92Z"/></clipPath><clipPath id="clip-path-2"><path class="cls-4" d="M123.84,233V218.64h.42V233Z"/></clipPath><clipPath id="clip-path-3"><path class="cls-3" d="M128.14,233V218.64h.42V233Z"/></clipPath><clipPath id="clip-path-4"><path class="cls-5" d="M138.44,231c0,.33,0,.69,0,1.06s.07.68.11.92h-.4a2.71,2.71,0,0,1-.06-.47c0-.18,0-.37,0-.57s0-.38,0-.58,0-.34,0-.47H138a3.11,3.11,0,0,1-1.31,1.78,3.78,3.78,0,0,1-2,.58,3.82,3.82,0,0,1-1-.16,3,3,0,0,1-.94-.45,2.22,2.22,0,0,1-.93-1.9,2.25,2.25,0,0,1,.48-1.5,3.37,3.37,0,0,1,1.21-.89A5.62,5.62,0,0,1,135,228a14,14,0,0,1,1.51-.09H138v-.7a2.68,2.68,0,0,0-.78-2.14,3,3,0,0,0-2-.67,3.72,3.72,0,0,0-1.46.28,4.15,4.15,0,0,0-1.2.76l-.23-.32a4,4,0,0,1,1.38-.81,4.52,4.52,0,0,1,1.51-.28,3.42,3.42,0,0,1,2.36.77,3.09,3.09,0,0,1,.87,2.43Zm-.42-2.79h-1.35a13.57,13.57,0,0,0-1.52.09,5.12,5.12,0,0,0-1.46.35,2.82,2.82,0,0,0-1.1.76,2,2,0,0,0-.42,1.33,2.07,2.07,0,0,0,.23,1,1.85,1.85,0,0,0,.61.66,2.88,2.88,0,0,0,.82.36,3.27,3.27,0,0,0,.84.12,3.18,3.18,0,0,0,1.62-.37,3,3,0,0,0,1-.92,3.6,3.6,0,0,0,.55-1.23,6.07,6.07,0,0,0,.15-1.32Z"/></clipPath><clipPath id="clip-path-5"><path class="cls-6" d="M147.08,230.72a2.36,2.36,0,0,1-.84,1.84,2.77,2.77,0,0,1-.91.5,3.57,3.57,0,0,1-1.1.17,4.2,4.2,0,0,1-1.76-.37,3.28,3.28,0,0,1-1.3-1.1l.34-.22a3.19,3.19,0,0,0,2.74,1.33,2.85,2.85,0,0,0,.85-.14,2.41,2.41,0,0,0,.78-.4,2,2,0,0,0,.57-.66,1.94,1.94,0,0,0,.21-.91,1.66,1.66,0,0,0-.27-1,2.16,2.16,0,0,0-.7-.61,4.53,4.53,0,0,0-.92-.37l-.94-.25c-.31-.09-.61-.19-.89-.3a2.73,2.73,0,0,1-.73-.42,1.82,1.82,0,0,1-.5-.63,2.24,2.24,0,0,1-.18-.95,2.07,2.07,0,0,1,.23-1,2.16,2.16,0,0,1,.61-.7,2.74,2.74,0,0,1,.86-.41,3.33,3.33,0,0,1,1-.15,3.07,3.07,0,0,1,2.68,1.28l-.36.21a2.82,2.82,0,0,0-1-.85,3,3,0,0,0-1.33-.27,3.49,3.49,0,0,0-.76.09,2.37,2.37,0,0,0-.73.31,1.8,1.8,0,0,0-.55.58,1.64,1.64,0,0,0-.22.88,2,2,0,0,0,.18.91,1.47,1.47,0,0,0,.5.55,3.12,3.12,0,0,0,.78.35c.31.1.64.19,1,.28s.68.19,1,.31a3.42,3.42,0,0,1,.85.45,1.87,1.87,0,0,1,.59.66A2,2,0,0,1,147.08,230.72Z"/></clipPath><clipPath id="clip-path-6"><path class="cls-7" d="M160.8,231a9.86,9.86,0,0,0,0,1.06c0,.37.06.68.1.92h-.4a4.53,4.53,0,0,1-.05-.47c0-.18,0-.37-.05-.57s0-.38,0-.58,0-.34,0-.47h-.06a3.11,3.11,0,0,1-1.31,1.78,3.75,3.75,0,0,1-2,.58,3.84,3.84,0,0,1-1.06-.16,3,3,0,0,1-.94-.45,2.21,2.21,0,0,1-.67-.78,2.34,2.34,0,0,1-.26-1.12,2.2,2.2,0,0,1,.49-1.5,3.25,3.25,0,0,1,1.2-.89,5.62,5.62,0,0,1,1.55-.41,14,14,0,0,1,1.51-.09h1.52v-.7a2.68,2.68,0,0,0-.78-2.14,3,3,0,0,0-2-.67,3.64,3.64,0,0,0-1.45.28,4.2,4.2,0,0,0-1.21.76l-.23-.32a4.09,4.09,0,0,1,1.38-.81,4.52,4.52,0,0,1,1.51-.28,3.42,3.42,0,0,1,2.36.77,3.09,3.09,0,0,1,.87,2.43Zm-.42-2.79H159a13.57,13.57,0,0,0-1.52.09,5.12,5.12,0,0,0-1.46.35,2.78,2.78,0,0,0-1.09.76,1.94,1.94,0,0,0-.43,1.33,2,2,0,0,0,.24,1,1.77,1.77,0,0,0,.61.66,2.7,2.7,0,0,0,.81.36,3.28,3.28,0,0,0,.85.12,3.17,3.17,0,0,0,1.61-.37,3,3,0,0,0,1-.92,3.4,3.4,0,0,0,.54-1.23,6.07,6.07,0,0,0,.15-1.32Z"/></clipPath><clipPath id="clip-path-7"><path class="cls-8" d="M165.57,225.48a3.89,3.89,0,0,1,.81-.81,3.55,3.55,0,0,1,1-.5,3.43,3.43,0,0,1,1.1-.18,3.21,3.21,0,0,1,1.53.33,2.64,2.64,0,0,1,1,.85,3.4,3.4,0,0,1,.52,1.2,6.07,6.07,0,0,1,.15,1.35V233h-.42v-5.24a6.65,6.65,0,0,0-.11-1.14,3.17,3.17,0,0,0-.43-1.11,2.57,2.57,0,0,0-.85-.82,2.5,2.5,0,0,0-1.35-.33,3.09,3.09,0,0,0-1.35.29,3.17,3.17,0,0,0-1.11.85,4.26,4.26,0,0,0-.74,1.33,5.58,5.58,0,0,0-.27,1.8V233h-.42v-6.54c0-.13,0-.31,0-.51s0-.41,0-.62,0-.41,0-.59,0-.35,0-.48h.42c0,.13,0,.28,0,.48s0,.39,0,.61,0,.44,0,.65,0,.39,0,.56h0A3.24,3.24,0,0,1,165.57,225.48Z"/></clipPath><clipPath id="clip-path-8"><path class="cls-9" d="M183,218.64h.42V233H183v-2.36h-.06a4.2,4.2,0,0,1-3.93,2.63,4.3,4.3,0,0,1-1.76-.36,4.08,4.08,0,0,1-1.38-1,4.5,4.5,0,0,1-.91-1.47,5.17,5.17,0,0,1-.32-1.83,5.27,5.27,0,0,1,.32-1.84,4.59,4.59,0,0,1,.91-1.49,4.1,4.1,0,0,1,1.38-1,4.25,4.25,0,0,1,5.69,2.28H183Zm-7.94,10a4.93,4.93,0,0,0,.27,1.63,4.26,4.26,0,0,0,.79,1.36,3.83,3.83,0,0,0,1.25.92,3.95,3.95,0,0,0,3.25,0,4.09,4.09,0,0,0,1.26-.92,4.59,4.59,0,0,0,.84-4.66,4.45,4.45,0,0,0-.84-1.36,3.94,3.94,0,0,0-1.26-.92,3.75,3.75,0,0,0-1.61-.34,3.62,3.62,0,0,0-1.64.35,3.75,3.75,0,0,0-1.25.94,4.38,4.38,0,0,0-.79,1.36A5,5,0,0,0,175.05,228.65Z"/></clipPath><clipPath id="clip-path-9"><path class="cls-10" d="M198,231a9.86,9.86,0,0,0,.05,1.06c0,.37.06.68.1.92h-.4c0-.13,0-.28-.06-.47s0-.37,0-.57a5.46,5.46,0,0,1,0-.58c0-.18,0-.34,0-.47h-.06a3.11,3.11,0,0,1-1.31,1.78,3.75,3.75,0,0,1-2,.58,3.84,3.84,0,0,1-1.06-.16,3,3,0,0,1-.94-.45,2.21,2.21,0,0,1-.67-.78,2.34,2.34,0,0,1-.26-1.12,2.25,2.25,0,0,1,.48-1.5,3.37,3.37,0,0,1,1.21-.89,5.62,5.62,0,0,1,1.55-.41,14,14,0,0,1,1.51-.09h1.52v-.7a2.68,2.68,0,0,0-.78-2.14,3,3,0,0,0-2-.67,3.72,3.72,0,0,0-1.46.28,4.15,4.15,0,0,0-1.2.76l-.23-.32a4.18,4.18,0,0,1,1.38-.81,4.52,4.52,0,0,1,1.51-.28,3.42,3.42,0,0,1,2.36.77,3.09,3.09,0,0,1,.87,2.43Zm-.42-2.79h-1.35a13.57,13.57,0,0,0-1.52.09,5.12,5.12,0,0,0-1.46.35,2.71,2.71,0,0,0-1.09.76,1.94,1.94,0,0,0-.43,1.33,2,2,0,0,0,.24,1,1.83,1.83,0,0,0,.6.66,2.88,2.88,0,0,0,.82.36,3.28,3.28,0,0,0,.85.12,3.17,3.17,0,0,0,1.61-.37,3,3,0,0,0,1-.92,3.4,3.4,0,0,0,.54-1.23,6.07,6.07,0,0,0,.15-1.32Z"/></clipPath><clipPath id="clip-path-10"><path class="cls-11" d="M202.26,226.63a4.2,4.2,0,0,1,1.62-2,4.39,4.39,0,0,1,4.07-.31,4.12,4.12,0,0,1,1.39,1,4.5,4.5,0,0,1,.89,1.48,5.34,5.34,0,0,1,.31,1.86,5.17,5.17,0,0,1-.32,1.83,4.65,4.65,0,0,1-.9,1.47,4.12,4.12,0,0,1-1.39,1,4.35,4.35,0,0,1-3,.18,4,4,0,0,1-1.11-.5,4.22,4.22,0,0,1-.93-.82,3.51,3.51,0,0,1-.66-1.13h-.06v6.92h-.44v-13.3h.44v2.37Zm7.86,2a5,5,0,0,0-.27-1.64,4.38,4.38,0,0,0-.79-1.36,3.61,3.61,0,0,0-1.24-.94,4,4,0,0,0-3.24,0,3.73,3.73,0,0,0-1.26.92,4.27,4.27,0,0,0-.84,1.36,4.69,4.69,0,0,0,0,3.3,4.38,4.38,0,0,0,.84,1.36,3.87,3.87,0,0,0,1.26.92,3.68,3.68,0,0,0,1.6.35,3.79,3.79,0,0,0,1.64-.35,3.69,3.69,0,0,0,1.24-.92,4.26,4.26,0,0,0,.79-1.36A4.93,4.93,0,0,0,210.12,228.65Z"/></clipPath><clipPath id="clip-path-11"><path class="cls-12" d="M219.66,231c0,.33,0,.69.05,1.06s.06.68.1.92h-.4a4.53,4.53,0,0,1,0-.47c0-.18,0-.37-.05-.57s0-.38,0-.58,0-.34,0-.47h-.06a3.11,3.11,0,0,1-1.31,1.78,3.75,3.75,0,0,1-2,.58,3.84,3.84,0,0,1-1.06-.16,3.14,3.14,0,0,1-.94-.45,2.21,2.21,0,0,1-.67-.78,2.34,2.34,0,0,1-.26-1.12,2.2,2.2,0,0,1,.49-1.5,3.25,3.25,0,0,1,1.2-.89,5.62,5.62,0,0,1,1.55-.41,14.11,14.11,0,0,1,1.51-.09h1.52v-.7a2.68,2.68,0,0,0-.78-2.14,3,3,0,0,0-2-.67,3.67,3.67,0,0,0-1.45.28,4.2,4.2,0,0,0-1.21.76l-.23-.32a4.18,4.18,0,0,1,1.38-.81,4.57,4.57,0,0,1,1.51-.28,3.47,3.47,0,0,1,2.37.77,3.12,3.12,0,0,1,.86,2.43Zm-.42-2.79h-1.35a13.71,13.71,0,0,0-1.52.09,5.12,5.12,0,0,0-1.46.35,2.78,2.78,0,0,0-1.09.76,1.94,1.94,0,0,0-.43,1.33,2,2,0,0,0,.24,1,1.85,1.85,0,0,0,.61.66,2.7,2.7,0,0,0,.81.36,3.28,3.28,0,0,0,.85.12,3.17,3.17,0,0,0,1.61-.37,3,3,0,0,0,1-.92,3.4,3.4,0,0,0,.54-1.23,6.07,6.07,0,0,0,.15-1.32Z"/></clipPath><clipPath id="clip-path-12"><path class="cls-2" d="M65.1,228.61a5,5,0,0,1-.34,1.88,4.17,4.17,0,0,1-.94,1.47,4,4,0,0,1-1.45,1,5.06,5.06,0,0,1-3.7,0,4.14,4.14,0,0,1-1.44-1,4.31,4.31,0,0,1-.94-1.47,5.19,5.19,0,0,1-.33-1.88,5.1,5.1,0,0,1,.33-1.87,4.22,4.22,0,0,1,2.38-2.4,5.06,5.06,0,0,1,3.7,0,4.19,4.19,0,0,1,2.39,2.4A4.9,4.9,0,0,1,65.1,228.61Zm-.42,0a4.77,4.77,0,0,0-.29-1.65,4,4,0,0,0-.82-1.36,3.81,3.81,0,0,0-1.31-.91,4.42,4.42,0,0,0-1.74-.33,4.27,4.27,0,0,0-1.73.33,3.77,3.77,0,0,0-1.3.91,4,4,0,0,0-.83,1.36,5.06,5.06,0,0,0,0,3.32,4,4,0,0,0,.83,1.36,3.93,3.93,0,0,0,1.3.92,4.11,4.11,0,0,0,1.73.35,4.26,4.26,0,0,0,1.74-.35,3.86,3.86,0,0,0,2.13-2.28A4.8,4.8,0,0,0,64.68,228.61Z"/></clipPath><clipPath id="clip-path-13"><path class="cls-13" d="M225.09,224.59a3,3,0,0,1,1.81-.6h.17l.17,0v.36H227a2.59,2.59,0,0,0-1.42.37,3.07,3.07,0,0,0-1,1A4.63,4.63,0,0,0,224,227a6.14,6.14,0,0,0-.18,1.46V233h-.42v-6.54c0-.13,0-.31,0-.51s0-.41,0-.62a5.41,5.41,0,0,0,0-.59c0-.2,0-.35,0-.48h.41a3.14,3.14,0,0,1,0,.48c0,.18,0,.39,0,.61s0,.44,0,.65,0,.39,0,.56h0A3.48,3.48,0,0,1,225.09,224.59Z"/></clipPath><clipPath id="clip-path-14"><path class="cls-15" d="M232,233.17a3,3,0,0,1-.59.06,1.7,1.7,0,0,1-1.46-.58,2.36,2.36,0,0,1-.44-1.45v-6.58h-1.9v-.36h1.88V221.7h.42v2.56h2.56v.36h-2.56v6.58a1.46,1.46,0,0,0,1.6,1.67,2.69,2.69,0,0,0,1-.17l.06.32A3.07,3.07,0,0,1,232,233.17Z"/></clipPath><clipPath id="clip-path-15"><path class="cls-16" d="M241.64,226.67a3.79,3.79,0,0,1,1.29-2A3.37,3.37,0,0,1,245,224a3,3,0,0,1,1.47.33,2.61,2.61,0,0,1,1,.85,3.76,3.76,0,0,1,.5,1.2,6.07,6.07,0,0,1,.15,1.35V233h-.41v-5.24a5.86,5.86,0,0,0-.13-1.14,3.37,3.37,0,0,0-.42-1.11,2.67,2.67,0,0,0-.82-.82,2.33,2.33,0,0,0-1.29-.33,2.84,2.84,0,0,0-1.29.29,3.12,3.12,0,0,0-1,.85,4,4,0,0,0-.71,1.33,5.58,5.58,0,0,0-.27,1.8V233h-.42v-5.24a6.6,6.6,0,0,0-.1-1.14,3.33,3.33,0,0,0-.39-1.11,2.47,2.47,0,0,0-.79-.82,2.3,2.3,0,0,0-1.28-.33,2.84,2.84,0,0,0-1.29.29,3.22,3.22,0,0,0-1,.85,4,4,0,0,0-.7,1.33,5.88,5.88,0,0,0-.26,1.8V233H235v-6.54c0-.13,0-.31,0-.51s0-.41,0-.62,0-.41,0-.59,0-.35,0-.48h.41a3.14,3.14,0,0,1,0,.48c0,.18,0,.39,0,.61s0,.44,0,.65,0,.39,0,.56h0a3.63,3.63,0,0,1,.53-1.08,3.72,3.72,0,0,1,.77-.81,3.23,3.23,0,0,1,.93-.5,3.08,3.08,0,0,1,1-.18,3,3,0,0,1,1.18.21,2.44,2.44,0,0,1,.85.57,2.89,2.89,0,0,1,.55.85,4.27,4.27,0,0,1,.3,1Z"/></clipPath><clipPath id="clip-path-16"><path class="cls-17" d="M251.5,228.54a5.3,5.3,0,0,0,.24,1.57,4.33,4.33,0,0,0,.72,1.4,3.63,3.63,0,0,0,3,1.38,4,4,0,0,0,1.82-.41,4.12,4.12,0,0,0,1.39-1.19l.3.27a4.44,4.44,0,0,1-1.51,1.27,4.4,4.4,0,0,1-2,.44,4.27,4.27,0,0,1-3.15-1.33,4.44,4.44,0,0,1-.89-1.51,5.51,5.51,0,0,1-.31-1.89,5,5,0,0,1,.32-1.83,4.35,4.35,0,0,1,.88-1.44,3.88,3.88,0,0,1,1.33-.94,4.08,4.08,0,0,1,1.64-.34,4,4,0,0,1,1.79.37,3.75,3.75,0,0,1,1.26.94,3.86,3.86,0,0,1,.75,1.34,4.76,4.76,0,0,1,.25,1.53v.37Zm7.39-.37a4.45,4.45,0,0,0-.29-1.55,3.64,3.64,0,0,0-.75-1.21,3.22,3.22,0,0,0-1.14-.78,3.9,3.9,0,0,0-1.48-.27,3.3,3.3,0,0,0-1.69.4,3.77,3.77,0,0,0-1.15,1,4.31,4.31,0,0,0-.66,1.25,3.86,3.86,0,0,0-.21,1.15Z"/></clipPath><clipPath id="clip-path-17"><path class="cls-18" d="M263.45,225.48a4.18,4.18,0,0,1,.82-.81,3.42,3.42,0,0,1,1-.5,3.38,3.38,0,0,1,1.1-.18,3.14,3.14,0,0,1,1.52.33,2.59,2.59,0,0,1,1,.85,3.57,3.57,0,0,1,.51,1.2,6.08,6.08,0,0,1,.16,1.35V233h-.42v-5.24a5.82,5.82,0,0,0-.12-1.14,3.16,3.16,0,0,0-.42-1.11,2.67,2.67,0,0,0-.85-.82,2.5,2.5,0,0,0-1.35-.33,3.17,3.17,0,0,0-1.36.29,3.23,3.23,0,0,0-1.1.85,4.06,4.06,0,0,0-.74,1.33,5.57,5.57,0,0,0-.28,1.8V233h-.41v-6.54c0-.13,0-.31,0-.51s0-.41,0-.62,0-.41,0-.59,0-.35,0-.48h.42c0,.13,0,.28,0,.48s0,.39,0,.61,0,.44,0,.65,0,.39,0,.56h0A3.44,3.44,0,0,1,263.45,225.48Z"/></clipPath><clipPath id="clip-path-18"><path class="cls-19" d="M276.11,233.17a3,3,0,0,1-.59.06,1.7,1.7,0,0,1-1.46-.58,2.3,2.3,0,0,1-.44-1.45v-6.58h-1.9v-.36h1.88V221.7H274v2.56h2.56v.36H274v6.58a1.62,1.62,0,0,0,.44,1.28,1.65,1.65,0,0,0,1.15.39,2.7,2.7,0,0,0,1-.17l.06.32A3.07,3.07,0,0,1,276.11,233.17Z"/></clipPath><clipPath id="clip-path-19"><path class="cls-14" d="M68.21,233V218.64h.42V233Z"/></clipPath><clipPath id="clip-path-20"><path class="cls-21" d="M72.72,221a.42.42,0,0,1-.31-.13.48.48,0,0,1-.13-.36.45.45,0,0,1,.13-.34.4.4,0,0,1,.61,0,.52.52,0,0,1,0,.7A.41.41,0,0,1,72.72,221Zm-.21,12v-8.74h.41V233Z"/></clipPath><clipPath id="clip-path-21"><path class="cls-22" d="M84.4,218.64h.42V233H84.4v-2.36h-.06a4.2,4.2,0,0,1-3.93,2.63,4.3,4.3,0,0,1-1.76-.36,4.08,4.08,0,0,1-1.38-1,4.5,4.5,0,0,1-.91-1.47,5.17,5.17,0,0,1-.32-1.83,5.27,5.27,0,0,1,.32-1.84,4.59,4.59,0,0,1,.91-1.49,4.1,4.1,0,0,1,1.38-1,4.25,4.25,0,0,1,5.69,2.28h.06Zm-7.94,10a4.93,4.93,0,0,0,.27,1.63,4.26,4.26,0,0,0,.79,1.36,3.83,3.83,0,0,0,1.25.92,3.95,3.95,0,0,0,3.25,0,4.09,4.09,0,0,0,1.26-.92,4.59,4.59,0,0,0,.84-4.66,4.45,4.45,0,0,0-.84-1.36A3.94,3.94,0,0,0,82,224.7a3.75,3.75,0,0,0-1.61-.34,3.62,3.62,0,0,0-1.64.35,3.75,3.75,0,0,0-1.25.94,4.38,4.38,0,0,0-.79,1.36A5,5,0,0,0,76.46,228.65Z"/></clipPath><clipPath id="clip-path-22"><path class="cls-23" d="M94.7,231a9.86,9.86,0,0,0,0,1.06c0,.37.06.68.1.92h-.4c0-.13,0-.28-.06-.47s0-.37,0-.57,0-.38,0-.58,0-.34,0-.47h-.06a3.11,3.11,0,0,1-1.31,1.78,3.75,3.75,0,0,1-2,.58,3.84,3.84,0,0,1-1.06-.16,3,3,0,0,1-.94-.45,2.21,2.21,0,0,1-.67-.78,2.34,2.34,0,0,1-.26-1.12,2.2,2.2,0,0,1,.49-1.5,3.25,3.25,0,0,1,1.2-.89,5.62,5.62,0,0,1,1.55-.41,14,14,0,0,1,1.51-.09h1.52v-.7A2.68,2.68,0,0,0,93.5,225a3,3,0,0,0-2-.67,3.64,3.64,0,0,0-1.45.28,4.2,4.2,0,0,0-1.21.76l-.23-.32a4.18,4.18,0,0,1,1.38-.81,4.52,4.52,0,0,1,1.51-.28,3.42,3.42,0,0,1,2.36.77,3.09,3.09,0,0,1,.87,2.43Zm-.42-2.79H92.93a13.57,13.57,0,0,0-1.52.09,5.12,5.12,0,0,0-1.46.35,2.78,2.78,0,0,0-1.09.76,1.94,1.94,0,0,0-.43,1.33,2,2,0,0,0,.24,1,1.83,1.83,0,0,0,.6.66,2.88,2.88,0,0,0,.82.36,3.28,3.28,0,0,0,.85.12,3.17,3.17,0,0,0,1.61-.37,3,3,0,0,0,1-.92,3.4,3.4,0,0,0,.54-1.23,6.07,6.07,0,0,0,.15-1.32Z"/></clipPath><clipPath id="clip-path-23"><path class="cls-24" d="M99.83,235.89a3.16,3.16,0,0,1-.81,1.26,1.87,1.87,0,0,1-1.3.45,3.37,3.37,0,0,1-.4,0,2.28,2.28,0,0,1-.38-.1l.11-.36.32.08a1.72,1.72,0,0,0,.39,0,1.52,1.52,0,0,0,.69-.15,2.22,2.22,0,0,0,.51-.39,2.72,2.72,0,0,0,.35-.55c.09-.2.18-.4.25-.6l.84-2.28-3.46-9h.46l3.21,8.51,3.1-8.51h.45Z"/></clipPath><clipPath id="clip-path-24"><path class="cls-25" d="M113.81,233h-.55l-3.44-8.74h.46l3.25,8.32h0l3.13-8.32h.46Z"/></clipPath><clipPath id="clip-path-25"><path class="cls-26" d="M119.76,221a.39.39,0,0,1-.3-.13.49.49,0,0,1-.14-.36.46.46,0,0,1,.14-.34.41.41,0,0,1,.3-.14.42.42,0,0,1,.3.14.5.5,0,0,1,0,.7A.41.41,0,0,1,119.76,221Zm-.21,12v-8.74H120V233Z"/></clipPath><clipPath id="clip-path-26"><path class="cls-20" d="M284,230.72a2.38,2.38,0,0,1-.22,1.05,2.42,2.42,0,0,1-.62.79,2.82,2.82,0,0,1-.9.5,3.63,3.63,0,0,1-1.11.17,4.15,4.15,0,0,1-1.75-.37,3.31,3.31,0,0,1-1.31-1.1l.35-.22a3.16,3.16,0,0,0,2.73,1.33,2.85,2.85,0,0,0,.85-.14,2.41,2.41,0,0,0,.78-.4,2,2,0,0,0,.57-.66,1.94,1.94,0,0,0,.22-.91,1.66,1.66,0,0,0-.28-1,2,2,0,0,0-.69-.61,5,5,0,0,0-.92-.37l-.95-.25c-.31-.09-.61-.19-.89-.3a2.73,2.73,0,0,1-.73-.42,1.79,1.79,0,0,1-.49-.63,2.24,2.24,0,0,1-.18-.95,2.07,2.07,0,0,1,.22-1,2.29,2.29,0,0,1,.61-.7,2.79,2.79,0,0,1,.87-.41,3.28,3.28,0,0,1,1-.15,3,3,0,0,1,2.67,1.28l-.36.21a2.82,2.82,0,0,0-1-.85,3,3,0,0,0-1.32-.27,3.51,3.51,0,0,0-.77.09,2.37,2.37,0,0,0-.73.31,1.91,1.91,0,0,0-.55.58,1.74,1.74,0,0,0-.22.88,2,2,0,0,0,.18.91,1.42,1.42,0,0,0,.51.55,2.82,2.82,0,0,0,.78.35c.3.1.64.19,1,.28a9.74,9.74,0,0,1,1,.31,3.68,3.68,0,0,1,.86.45,2.08,2.08,0,0,1,.59.66A2.13,2.13,0,0,1,284,230.72Z"/></clipPath></defs><title>text2</title><g id="Layer_2" data-name="Layer 2"><g id="Layer_1-2" data-name="Layer 1"><path class="cls-1" d="M46.36,226.56a3.64,3.64,0,0,1,.54-1.08,3.89,3.89,0,0,1,.81-.81,3.55,3.55,0,0,1,1-.5,3.38,3.38,0,0,1,1.1-.18,3.14,3.14,0,0,1,1.52.33,2.59,2.59,0,0,1,1,.85,3.57,3.57,0,0,1,.51,1.2,5.54,5.54,0,0,1,.16,1.35V233h-.42v-5.24a5.82,5.82,0,0,0-.12-1.14,3,3,0,0,0-.42-1.11,2.57,2.57,0,0,0-.85-.82,2.5,2.5,0,0,0-1.35-.33,3.17,3.17,0,0,0-1.36.29,3.23,3.23,0,0,0-1.1.85,4.06,4.06,0,0,0-.74,1.33,5.58,5.58,0,0,0-.27,1.8V233h-.42V218.64h.42v7.92Z"/><path class="cls-1" d="M65.1,228.61a5,5,0,0,1-.34,1.88,4.17,4.17,0,0,1-.94,1.47,4,4,0,0,1-1.45,1,5.06,5.06,0,0,1-3.7,0,4.14,4.14,0,0,1-1.44-1,4.31,4.31,0,0,1-.94-1.47,5.19,5.19,0,0,1-.33-1.88,5.1,5.1,0,0,1,.33-1.87,4.22,4.22,0,0,1,2.38-2.4,5.06,5.06,0,0,1,3.7,0,4.19,4.19,0,0,1,2.39,2.4A4.9,4.9,0,0,1,65.1,228.61Zm-.42,0a4.77,4.77,0,0,0-.29-1.65,4,4,0,0,0-.82-1.36,3.81,3.81,0,0,0-1.31-.91,4.42,4.42,0,0,0-1.74-.33,4.27,4.27,0,0,0-1.73.33,3.77,3.77,0,0,0-1.3.91,4,4,0,0,0-.83,1.36,5.06,5.06,0,0,0,0,3.32,4,4,0,0,0,.83,1.36,3.93,3.93,0,0,0,1.3.92,4.11,4.11,0,0,0,1.73.35,4.26,4.26,0,0,0,1.74-.35,3.86,3.86,0,0,0,2.13-2.28A4.8,4.8,0,0,0,64.68,228.61Z"/><path class="cls-1" d="M68.21,233V218.64h.42V233Z"/><path class="cls-1" d="M72.72,221a.42.42,0,0,1-.31-.13.48.48,0,0,1-.13-.36.45.45,0,0,1,.13-.34.4.4,0,0,1,.61,0,.52.52,0,0,1,0,.7A.41.41,0,0,1,72.72,221Zm-.21,12v-8.74h.41V233Z"/><path class="cls-1" d="M84.4,218.64h.42V233H84.4v-2.36h-.06a4.2,4.2,0,0,1-3.93,2.63,4.3,4.3,0,0,1-1.76-.36,4.08,4.08,0,0,1-1.38-1,4.5,4.5,0,0,1-.91-1.47,5.17,5.17,0,0,1-.32-1.83,5.27,5.27,0,0,1,.32-1.84,4.59,4.59,0,0,1,.91-1.49,4.1,4.1,0,0,1,1.38-1,4.25,4.25,0,0,1,5.69,2.28h.06Zm-7.94,10a4.93,4.93,0,0,0,.27,1.63,4.26,4.26,0,0,0,.79,1.36,3.83,3.83,0,0,0,1.25.92,3.95,3.95,0,0,0,3.25,0,4.09,4.09,0,0,0,1.26-.92,4.59,4.59,0,0,0,.84-4.66,4.45,4.45,0,0,0-.84-1.36A3.94,3.94,0,0,0,82,224.7a3.75,3.75,0,0,0-1.61-.34,3.62,3.62,0,0,0-1.64.35,3.75,3.75,0,0,0-1.25.94,4.38,4.38,0,0,0-.79,1.36A5,5,0,0,0,76.46,228.65Z"/><path class="cls-1" d="M94.7,231a9.86,9.86,0,0,0,0,1.06c0,.37.06.68.1.92h-.4c0-.13,0-.28-.06-.47s0-.37,0-.57,0-.38,0-.58,0-.34,0-.47h-.06a3.11,3.11,0,0,1-1.31,1.78,3.75,3.75,0,0,1-2,.58,3.84,3.84,0,0,1-1.06-.16,3,3,0,0,1-.94-.45,2.21,2.21,0,0,1-.67-.78,2.34,2.34,0,0,1-.26-1.12,2.2,2.2,0,0,1,.49-1.5,3.25,3.25,0,0,1,1.2-.89,5.62,5.62,0,0,1,1.55-.41,14,14,0,0,1,1.51-.09h1.52v-.7A2.68,2.68,0,0,0,93.5,225a3,3,0,0,0-2-.67,3.64,3.64,0,0,0-1.45.28,4.2,4.2,0,0,0-1.21.76l-.23-.32a4.18,4.18,0,0,1,1.38-.81,4.52,4.52,0,0,1,1.51-.28,3.42,3.42,0,0,1,2.36.77,3.09,3.09,0,0,1,.87,2.43Zm-.42-2.79H92.93a13.57,13.57,0,0,0-1.52.09,5.12,5.12,0,0,0-1.46.35,2.78,2.78,0,0,0-1.09.76,1.94,1.94,0,0,0-.43,1.33,2,2,0,0,0,.24,1,1.83,1.83,0,0,0,.6.66,2.88,2.88,0,0,0,.82.36,3.28,3.28,0,0,0,.85.12,3.17,3.17,0,0,0,1.61-.37,3,3,0,0,0,1-.92,3.4,3.4,0,0,0,.54-1.23,6.07,6.07,0,0,0,.15-1.32Z"/><path class="cls-1" d="M99.83,235.89a3.16,3.16,0,0,1-.81,1.26,1.87,1.87,0,0,1-1.3.45,3.37,3.37,0,0,1-.4,0,2.28,2.28,0,0,1-.38-.1l.11-.36.32.08a1.72,1.72,0,0,0,.39,0,1.52,1.52,0,0,0,.69-.15,2.22,2.22,0,0,0,.51-.39,2.72,2.72,0,0,0,.35-.55c.09-.2.18-.4.25-.6l.84-2.28-3.46-9h.46l3.21,8.51,3.1-8.51h.45Z"/><path class="cls-1" d="M113.81,233h-.55l-3.44-8.74h.46l3.25,8.32h0l3.13-8.32h.46Z"/><path class="cls-1" d="M119.76,221a.39.39,0,0,1-.3-.13.49.49,0,0,1-.14-.36.46.46,0,0,1,.14-.34.41.41,0,0,1,.3-.14.42.42,0,0,1,.3.14.5.5,0,0,1,0,.7A.41.41,0,0,1,119.76,221Zm-.21,12v-8.74H120V233Z"/><path class="cls-1" d="M123.84,233V218.64h.42V233Z"/><path class="cls-1" d="M128.14,233V218.64h.42V233Z"/><path class="cls-1" d="M138.44,231c0,.33,0,.69,0,1.06s.07.68.11.92h-.4a2.71,2.71,0,0,1-.06-.47c0-.18,0-.37,0-.57s0-.38,0-.58,0-.34,0-.47H138a3.11,3.11,0,0,1-1.31,1.78,3.78,3.78,0,0,1-2,.58,3.82,3.82,0,0,1-1-.16,3,3,0,0,1-.94-.45,2.22,2.22,0,0,1-.93-1.9,2.25,2.25,0,0,1,.48-1.5,3.37,3.37,0,0,1,1.21-.89A5.62,5.62,0,0,1,135,228a14,14,0,0,1,1.51-.09H138v-.7a2.68,2.68,0,0,0-.78-2.14,3,3,0,0,0-2-.67,3.72,3.72,0,0,0-1.46.28,4.15,4.15,0,0,0-1.2.76l-.23-.32a4,4,0,0,1,1.38-.81,4.52,4.52,0,0,1,1.51-.28,3.42,3.42,0,0,1,2.36.77,3.09,3.09,0,0,1,.87,2.43Zm-.42-2.79h-1.35a13.57,13.57,0,0,0-1.52.09,5.12,5.12,0,0,0-1.46.35,2.82,2.82,0,0,0-1.1.76,2,2,0,0,0-.42,1.33,2.07,2.07,0,0,0,.23,1,1.85,1.85,0,0,0,.61.66,2.88,2.88,0,0,0,.82.36,3.27,3.27,0,0,0,.84.12,3.18,3.18,0,0,0,1.62-.37,3,3,0,0,0,1-.92,3.6,3.6,0,0,0,.55-1.23,6.07,6.07,0,0,0,.15-1.32Z"/><path class="cls-1" d="M147.08,230.72a2.36,2.36,0,0,1-.84,1.84,2.77,2.77,0,0,1-.91.5,3.57,3.57,0,0,1-1.1.17,4.2,4.2,0,0,1-1.76-.37,3.28,3.28,0,0,1-1.3-1.1l.34-.22a3.19,3.19,0,0,0,2.74,1.33,2.85,2.85,0,0,0,.85-.14,2.41,2.41,0,0,0,.78-.4,2,2,0,0,0,.57-.66,1.94,1.94,0,0,0,.21-.91,1.66,1.66,0,0,0-.27-1,2.16,2.16,0,0,0-.7-.61,4.53,4.53,0,0,0-.92-.37l-.94-.25c-.31-.09-.61-.19-.89-.3a2.73,2.73,0,0,1-.73-.42,1.82,1.82,0,0,1-.5-.63,2.24,2.24,0,0,1-.18-.95,2.07,2.07,0,0,1,.23-1,2.16,2.16,0,0,1,.61-.7,2.74,2.74,0,0,1,.86-.41,3.33,3.33,0,0,1,1-.15,3.07,3.07,0,0,1,2.68,1.28l-.36.21a2.82,2.82,0,0,0-1-.85,3,3,0,0,0-1.33-.27,3.49,3.49,0,0,0-.76.09,2.37,2.37,0,0,0-.73.31,1.8,1.8,0,0,0-.55.58,1.64,1.64,0,0,0-.22.88,2,2,0,0,0,.18.91,1.47,1.47,0,0,0,.5.55,3.12,3.12,0,0,0,.78.35c.31.1.64.19,1,.28s.68.19,1,.31a3.42,3.42,0,0,1,.85.45,1.87,1.87,0,0,1,.59.66A2,2,0,0,1,147.08,230.72Z"/><path class="cls-1" d="M160.8,231a9.86,9.86,0,0,0,0,1.06c0,.37.06.68.1.92h-.4a4.53,4.53,0,0,1-.05-.47c0-.18,0-.37-.05-.57s0-.38,0-.58,0-.34,0-.47h-.06a3.11,3.11,0,0,1-1.31,1.78,3.75,3.75,0,0,1-2,.58,3.84,3.84,0,0,1-1.06-.16,3,3,0,0,1-.94-.45,2.21,2.21,0,0,1-.67-.78,2.34,2.34,0,0,1-.26-1.12,2.2,2.2,0,0,1,.49-1.5,3.25,3.25,0,0,1,1.2-.89,5.62,5.62,0,0,1,1.55-.41,14,14,0,0,1,1.51-.09h1.52v-.7a2.68,2.68,0,0,0-.78-2.14,3,3,0,0,0-2-.67,3.64,3.64,0,0,0-1.45.28,4.2,4.2,0,0,0-1.21.76l-.23-.32a4.09,4.09,0,0,1,1.38-.81,4.52,4.52,0,0,1,1.51-.28,3.42,3.42,0,0,1,2.36.77,3.09,3.09,0,0,1,.87,2.43Zm-.42-2.79H159a13.57,13.57,0,0,0-1.52.09,5.12,5.12,0,0,0-1.46.35,2.78,2.78,0,0,0-1.09.76,1.94,1.94,0,0,0-.43,1.33,2,2,0,0,0,.24,1,1.77,1.77,0,0,0,.61.66,2.7,2.7,0,0,0,.81.36,3.28,3.28,0,0,0,.85.12,3.17,3.17,0,0,0,1.61-.37,3,3,0,0,0,1-.92,3.4,3.4,0,0,0,.54-1.23,6.07,6.07,0,0,0,.15-1.32Z"/><path class="cls-1" d="M165.57,225.48a3.89,3.89,0,0,1,.81-.81,3.55,3.55,0,0,1,1-.5,3.43,3.43,0,0,1,1.1-.18,3.21,3.21,0,0,1,1.53.33,2.64,2.64,0,0,1,1,.85,3.4,3.4,0,0,1,.52,1.2,6.07,6.07,0,0,1,.15,1.35V233h-.42v-5.24a6.65,6.65,0,0,0-.11-1.14,3.17,3.17,0,0,0-.43-1.11,2.57,2.57,0,0,0-.85-.82,2.5,2.5,0,0,0-1.35-.33,3.09,3.09,0,0,0-1.35.29,3.17,3.17,0,0,0-1.11.85,4.26,4.26,0,0,0-.74,1.33,5.58,5.58,0,0,0-.27,1.8V233h-.42v-6.54c0-.13,0-.31,0-.51s0-.41,0-.62,0-.41,0-.59,0-.35,0-.48h.42c0,.13,0,.28,0,.48s0,.39,0,.61,0,.44,0,.65,0,.39,0,.56h0A3.24,3.24,0,0,1,165.57,225.48Z"/><path class="cls-1" d="M183,218.64h.42V233H183v-2.36h-.06a4.2,4.2,0,0,1-3.93,2.63,4.3,4.3,0,0,1-1.76-.36,4.08,4.08,0,0,1-1.38-1,4.5,4.5,0,0,1-.91-1.47,5.17,5.17,0,0,1-.32-1.83,5.27,5.27,0,0,1,.32-1.84,4.59,4.59,0,0,1,.91-1.49,4.1,4.1,0,0,1,1.38-1,4.25,4.25,0,0,1,5.69,2.28H183Zm-7.94,10a4.93,4.93,0,0,0,.27,1.63,4.26,4.26,0,0,0,.79,1.36,3.83,3.83,0,0,0,1.25.92,3.95,3.95,0,0,0,3.25,0,4.09,4.09,0,0,0,1.26-.92,4.59,4.59,0,0,0,.84-4.66,4.45,4.45,0,0,0-.84-1.36,3.94,3.94,0,0,0-1.26-.92,3.75,3.75,0,0,0-1.61-.34,3.62,3.62,0,0,0-1.64.35,3.75,3.75,0,0,0-1.25.94,4.38,4.38,0,0,0-.79,1.36A5,5,0,0,0,175.05,228.65Z"/><path class="cls-1" d="M198,231a9.86,9.86,0,0,0,.05,1.06c0,.37.06.68.1.92h-.4c0-.13,0-.28-.06-.47s0-.37,0-.57a5.46,5.46,0,0,1,0-.58c0-.18,0-.34,0-.47h-.06a3.11,3.11,0,0,1-1.31,1.78,3.75,3.75,0,0,1-2,.58,3.84,3.84,0,0,1-1.06-.16,3,3,0,0,1-.94-.45,2.21,2.21,0,0,1-.67-.78,2.34,2.34,0,0,1-.26-1.12,2.25,2.25,0,0,1,.48-1.5,3.37,3.37,0,0,1,1.21-.89,5.62,5.62,0,0,1,1.55-.41,14,14,0,0,1,1.51-.09h1.52v-.7a2.68,2.68,0,0,0-.78-2.14,3,3,0,0,0-2-.67,3.72,3.72,0,0,0-1.46.28,4.15,4.15,0,0,0-1.2.76l-.23-.32a4.18,4.18,0,0,1,1.38-.81,4.52,4.52,0,0,1,1.51-.28,3.42,3.42,0,0,1,2.36.77,3.09,3.09,0,0,1,.87,2.43Zm-.42-2.79h-1.35a13.57,13.57,0,0,0-1.52.09,5.12,5.12,0,0,0-1.46.35,2.71,2.71,0,0,0-1.09.76,1.94,1.94,0,0,0-.43,1.33,2,2,0,0,0,.24,1,1.83,1.83,0,0,0,.6.66,2.88,2.88,0,0,0,.82.36,3.28,3.28,0,0,0,.85.12,3.17,3.17,0,0,0,1.61-.37,3,3,0,0,0,1-.92,3.4,3.4,0,0,0,.54-1.23,6.07,6.07,0,0,0,.15-1.32Z"/><path class="cls-1" d="M202.26,226.63a4.2,4.2,0,0,1,1.62-2,4.39,4.39,0,0,1,4.07-.31,4.12,4.12,0,0,1,1.39,1,4.5,4.5,0,0,1,.89,1.48,5.34,5.34,0,0,1,.31,1.86,5.17,5.17,0,0,1-.32,1.83,4.65,4.65,0,0,1-.9,1.47,4.12,4.12,0,0,1-1.39,1,4.35,4.35,0,0,1-3,.18,4,4,0,0,1-1.11-.5,4.22,4.22,0,0,1-.93-.82,3.51,3.51,0,0,1-.66-1.13h-.06v6.92h-.44v-13.3h.44v2.37Zm7.86,2a5,5,0,0,0-.27-1.64,4.38,4.38,0,0,0-.79-1.36,3.61,3.61,0,0,0-1.24-.94,4,4,0,0,0-3.24,0,3.73,3.73,0,0,0-1.26.92,4.27,4.27,0,0,0-.84,1.36,4.69,4.69,0,0,0,0,3.3,4.38,4.38,0,0,0,.84,1.36,3.87,3.87,0,0,0,1.26.92,3.68,3.68,0,0,0,1.6.35,3.79,3.79,0,0,0,1.64-.35,3.69,3.69,0,0,0,1.24-.92,4.26,4.26,0,0,0,.79-1.36A4.93,4.93,0,0,0,210.12,228.65Z"/><path class="cls-1" d="M219.66,231c0,.33,0,.69.05,1.06s.06.68.1.92h-.4a4.53,4.53,0,0,1,0-.47c0-.18,0-.37-.05-.57s0-.38,0-.58,0-.34,0-.47h-.06a3.11,3.11,0,0,1-1.31,1.78,3.75,3.75,0,0,1-2,.58,3.84,3.84,0,0,1-1.06-.16,3.14,3.14,0,0,1-.94-.45,2.21,2.21,0,0,1-.67-.78,2.34,2.34,0,0,1-.26-1.12,2.2,2.2,0,0,1,.49-1.5,3.25,3.25,0,0,1,1.2-.89,5.62,5.62,0,0,1,1.55-.41,14.11,14.11,0,0,1,1.51-.09h1.52v-.7a2.68,2.68,0,0,0-.78-2.14,3,3,0,0,0-2-.67,3.67,3.67,0,0,0-1.45.28,4.2,4.2,0,0,0-1.21.76l-.23-.32a4.18,4.18,0,0,1,1.38-.81,4.57,4.57,0,0,1,1.51-.28,3.47,3.47,0,0,1,2.37.77,3.12,3.12,0,0,1,.86,2.43Zm-.42-2.79h-1.35a13.71,13.71,0,0,0-1.52.09,5.12,5.12,0,0,0-1.46.35,2.78,2.78,0,0,0-1.09.76,1.94,1.94,0,0,0-.43,1.33,2,2,0,0,0,.24,1,1.85,1.85,0,0,0,.61.66,2.7,2.7,0,0,0,.81.36,3.28,3.28,0,0,0,.85.12,3.17,3.17,0,0,0,1.61-.37,3,3,0,0,0,1-.92,3.4,3.4,0,0,0,.54-1.23,6.07,6.07,0,0,0,.15-1.32Z"/><path class="cls-1" d="M225.09,224.59a3,3,0,0,1,1.81-.6h.17l.17,0v.36H227a2.59,2.59,0,0,0-1.42.37,3.07,3.07,0,0,0-1,1A4.63,4.63,0,0,0,224,227a6.14,6.14,0,0,0-.18,1.46V233h-.42v-6.54c0-.13,0-.31,0-.51s0-.41,0-.62a5.41,5.41,0,0,0,0-.59c0-.2,0-.35,0-.48h.41a3.14,3.14,0,0,1,0,.48c0,.18,0,.39,0,.61s0,.44,0,.65,0,.39,0,.56h0A3.48,3.48,0,0,1,225.09,224.59Z"/><path class="cls-1" d="M232,233.17a3,3,0,0,1-.59.06,1.7,1.7,0,0,1-1.46-.58,2.36,2.36,0,0,1-.44-1.45v-6.58h-1.9v-.36h1.88V221.7h.42v2.56h2.56v.36h-2.56v6.58a1.46,1.46,0,0,0,1.6,1.67,2.69,2.69,0,0,0,1-.17l.06.32A3.07,3.07,0,0,1,232,233.17Z"/><path class="cls-1" d="M241.64,226.67a3.79,3.79,0,0,1,1.29-2A3.37,3.37,0,0,1,245,224a3,3,0,0,1,1.47.33,2.61,2.61,0,0,1,1,.85,3.76,3.76,0,0,1,.5,1.2,6.07,6.07,0,0,1,.15,1.35V233h-.41v-5.24a5.86,5.86,0,0,0-.13-1.14,3.37,3.37,0,0,0-.42-1.11,2.67,2.67,0,0,0-.82-.82,2.33,2.33,0,0,0-1.29-.33,2.84,2.84,0,0,0-1.29.29,3.12,3.12,0,0,0-1,.85,4,4,0,0,0-.71,1.33,5.58,5.58,0,0,0-.27,1.8V233h-.42v-5.24a6.6,6.6,0,0,0-.1-1.14,3.33,3.33,0,0,0-.39-1.11,2.47,2.47,0,0,0-.79-.82,2.3,2.3,0,0,0-1.28-.33,2.84,2.84,0,0,0-1.29.29,3.22,3.22,0,0,0-1,.85,4,4,0,0,0-.7,1.33,5.88,5.88,0,0,0-.26,1.8V233H235v-6.54c0-.13,0-.31,0-.51s0-.41,0-.62,0-.41,0-.59,0-.35,0-.48h.41a3.14,3.14,0,0,1,0,.48c0,.18,0,.39,0,.61s0,.44,0,.65,0,.39,0,.56h0a3.63,3.63,0,0,1,.53-1.08,3.72,3.72,0,0,1,.77-.81,3.23,3.23,0,0,1,.93-.5,3.08,3.08,0,0,1,1-.18,3,3,0,0,1,1.18.21,2.44,2.44,0,0,1,.85.57,2.89,2.89,0,0,1,.55.85,4.27,4.27,0,0,1,.3,1Z"/><path class="cls-1" d="M251.5,228.54a5.3,5.3,0,0,0,.24,1.57,4.33,4.33,0,0,0,.72,1.4,3.63,3.63,0,0,0,3,1.38,4,4,0,0,0,1.82-.41,4.12,4.12,0,0,0,1.39-1.19l.3.27a4.44,4.44,0,0,1-1.51,1.27,4.4,4.4,0,0,1-2,.44,4.27,4.27,0,0,1-3.15-1.33,4.44,4.44,0,0,1-.89-1.51,5.51,5.51,0,0,1-.31-1.89,5,5,0,0,1,.32-1.83,4.35,4.35,0,0,1,.88-1.44,3.88,3.88,0,0,1,1.33-.94,4.08,4.08,0,0,1,1.64-.34,4,4,0,0,1,1.79.37,3.75,3.75,0,0,1,1.26.94,3.86,3.86,0,0,1,.75,1.34,4.76,4.76,0,0,1,.25,1.53v.37Zm7.39-.37a4.45,4.45,0,0,0-.29-1.55,3.64,3.64,0,0,0-.75-1.21,3.22,3.22,0,0,0-1.14-.78,3.9,3.9,0,0,0-1.48-.27,3.3,3.3,0,0,0-1.69.4,3.77,3.77,0,0,0-1.15,1,4.31,4.31,0,0,0-.66,1.25,3.86,3.86,0,0,0-.21,1.15Z"/><path class="cls-1" d="M263.45,225.48a4.18,4.18,0,0,1,.82-.81,3.42,3.42,0,0,1,1-.5,3.38,3.38,0,0,1,1.1-.18,3.14,3.14,0,0,1,1.52.33,2.59,2.59,0,0,1,1,.85,3.57,3.57,0,0,1,.51,1.2,6.08,6.08,0,0,1,.16,1.35V233h-.42v-5.24a5.82,5.82,0,0,0-.12-1.14,3.16,3.16,0,0,0-.42-1.11,2.67,2.67,0,0,0-.85-.82,2.5,2.5,0,0,0-1.35-.33,3.17,3.17,0,0,0-1.36.29,3.23,3.23,0,0,0-1.1.85,4.06,4.06,0,0,0-.74,1.33,5.57,5.57,0,0,0-.28,1.8V233h-.41v-6.54c0-.13,0-.31,0-.51s0-.41,0-.62,0-.41,0-.59,0-.35,0-.48h.42c0,.13,0,.28,0,.48s0,.39,0,.61,0,.44,0,.65,0,.39,0,.56h0A3.44,3.44,0,0,1,263.45,225.48Z"/><path class="cls-1" d="M276.11,233.17a3,3,0,0,1-.59.06,1.7,1.7,0,0,1-1.46-.58,2.3,2.3,0,0,1-.44-1.45v-6.58h-1.9v-.36h1.88V221.7H274v2.56h2.56v.36H274v6.58a1.62,1.62,0,0,0,.44,1.28,1.65,1.65,0,0,0,1.15.39,2.7,2.7,0,0,0,1-.17l.06.32A3.07,3.07,0,0,1,276.11,233.17Z"/><path class="cls-1" d="M284,230.72a2.38,2.38,0,0,1-.22,1.05,2.42,2.42,0,0,1-.62.79,2.82,2.82,0,0,1-.9.5,3.63,3.63,0,0,1-1.11.17,4.15,4.15,0,0,1-1.75-.37,3.31,3.31,0,0,1-1.31-1.1l.35-.22a3.16,3.16,0,0,0,2.73,1.33,2.85,2.85,0,0,0,.85-.14,2.41,2.41,0,0,0,.78-.4,2,2,0,0,0,.57-.66,1.94,1.94,0,0,0,.22-.91,1.66,1.66,0,0,0-.28-1,2,2,0,0,0-.69-.61,5,5,0,0,0-.92-.37l-.95-.25c-.31-.09-.61-.19-.89-.3a2.73,2.73,0,0,1-.73-.42,1.79,1.79,0,0,1-.49-.63,2.24,2.24,0,0,1-.18-.95,2.07,2.07,0,0,1,.22-1,2.29,2.29,0,0,1,.61-.7,2.79,2.79,0,0,1,.87-.41,3.28,3.28,0,0,1,1-.15,3,3,0,0,1,2.67,1.28l-.36.21a2.82,2.82,0,0,0-1-.85,3,3,0,0,0-1.32-.27,3.51,3.51,0,0,0-.77.09,2.37,2.37,0,0,0-.73.31,1.91,1.91,0,0,0-.55.58,1.74,1.74,0,0,0-.22.88,2,2,0,0,0,.18.91,1.42,1.42,0,0,0,.51.55,2.82,2.82,0,0,0,.78.35c.3.1.64.19,1,.28a9.74,9.74,0,0,1,1,.31,3.68,3.68,0,0,1,.86.45,2.08,2.08,0,0,1,.59.66A2.13,2.13,0,0,1,284,230.72Z"/><g class="cls-27"><rect class="cls-1" width="300" height="250"/></g></g></g></svg>