<svg xmlns="http://www.w3.org/2000/svg" xmlns:xlink="http://www.w3.org/1999/xlink" viewBox="0 0 300 250"><defs><style>.cls-1,.cls-10,.cls-11,.cls-12,.cls-13,.cls-14,.cls-15,.cls-16,.cls-17,.cls-18,.cls-19,.cls-2,.cls-20,.cls-21,.cls-22,.cls-23,.cls-24,.cls-25,.cls-27,.cls-3,.cls-4,.cls-5,.cls-6,.cls-7,.cls-8,.cls-9{fill:#fff;}.cls-2{clip-path:url(#clip-path);}.cls-3{clip-path:url(#clip-path-2);}.cls-4{clip-path:url(#clip-path-24);}.cls-5{clip-path:url(#clip-path-3);}.cls-6{clip-path:url(#clip-path-4);}.cls-7{clip-path:url(#clip-path-5);}.cls-8{clip-path:url(#clip-path-6);}.cls-9{clip-path:url(#clip-path-7);}.cls-10{clip-path:url(#clip-path-8);}.cls-11{clip-path:url(#clip-path-9);}.cls-12{clip-path:url(#clip-path-10);}.cls-13{clip-path:url(#clip-path-11);}.cls-14{clip-path:url(#clip-path-12);}.cls-15{clip-path:url(#clip-path-13);}.cls-16{clip-path:url(#clip-path-14);}.cls-17{clip-path:url(#clip-path-15);}.cls-18{clip-path:url(#clip-path-16);}.cls-19{clip-path:url(#clip-path-17);}.cls-20{clip-path:url(#clip-path-18);}.cls-21{clip-path:url(#clip-path-19);}.cls-22{clip-path:url(#clip-path-20);}.cls-23{clip-path:url(#clip-path-21);}.cls-24{clip-path:url(#clip-path-22);}.cls-25{clip-path:url(#clip-path-23);}.cls-26{clip-path:url(#clip-path-25);}.cls-27{opacity:0.85;}</style><clipPath id="clip-path"><path class="cls-1" d="M51.68,234l-1.6-3.86H42.27L40.62,234h-.46L46,220.55h.53L52.13,234Zm-5.44-13.19-3.82,9H50Z"/></clipPath><clipPath id="clip-path-2"><path class="cls-4" d="M144.93,234.17a3.11,3.11,0,0,1-.59.06,1.72,1.72,0,0,1-1.47-.58,2.35,2.35,0,0,1-.43-1.45v-6.58h-1.9v-.36h1.88V222.7h.42v2.56h2.56v.36h-2.56v6.58a1.65,1.65,0,0,0,.43,1.28,1.7,1.7,0,0,0,1.16.39,2.7,2.7,0,0,0,1-.17l.06.32A3.07,3.07,0,0,1,144.93,234.17Z"/></clipPath><clipPath id="clip-path-3"><path class="cls-3" d="M148,224.88h-.32l1.06-4.33h.46Z"/></clipPath><clipPath id="clip-path-4"><path class="cls-5" d="M156.52,231.72a2.38,2.38,0,0,1-.23,1.05,2.29,2.29,0,0,1-.62.79,2.82,2.82,0,0,1-.9.5,3.57,3.57,0,0,1-1.1.17,4.17,4.17,0,0,1-1.76-.37,3.22,3.22,0,0,1-1.3-1.1l.34-.22a3.18,3.18,0,0,0,2.74,1.33,2.79,2.79,0,0,0,.84-.14,2.22,2.22,0,0,0,.78-.4,2,2,0,0,0,.57-.66,1.83,1.83,0,0,0,.22-.91,1.59,1.59,0,0,0-.28-1,2,2,0,0,0-.69-.61,5,5,0,0,0-.92-.37l-.94-.25q-.48-.14-.9-.3a2.9,2.9,0,0,1-.73-.42,1.79,1.79,0,0,1-.49-.63,2.24,2.24,0,0,1-.18-.95,2,2,0,0,1,.23-1,2.13,2.13,0,0,1,.6-.7,2.9,2.9,0,0,1,.87-.41,3.28,3.28,0,0,1,1-.15,3.07,3.07,0,0,1,2.68,1.28l-.36.21a2.64,2.64,0,0,0-2.32-1.12,3.42,3.42,0,0,0-.76.09,2.27,2.27,0,0,0-.73.31,1.7,1.7,0,0,0-.55.58,1.64,1.64,0,0,0-.22.88,2,2,0,0,0,.18.91,1.47,1.47,0,0,0,.5.55,3.12,3.12,0,0,0,.78.35c.3.1.64.19,1,.28a10.37,10.37,0,0,1,1,.31,3.49,3.49,0,0,1,.86.45,2,2,0,0,1,.59.66A2.13,2.13,0,0,1,156.52,231.72Z"/></clipPath><clipPath id="clip-path-5"><path class="cls-6" d="M170.92,227.67a3.67,3.67,0,0,1,1.29-2,3.36,3.36,0,0,1,2.07-.7,3,3,0,0,1,1.47.33,2.53,2.53,0,0,1,.95.85,3.57,3.57,0,0,1,.51,1.2,6.07,6.07,0,0,1,.15,1.35V234h-.42v-5.24a5.82,5.82,0,0,0-.12-1.14,3.38,3.38,0,0,0-.43-1.11,2.47,2.47,0,0,0-.82-.82,2.33,2.33,0,0,0-1.29-.33,2.82,2.82,0,0,0-1.28.29,3.15,3.15,0,0,0-1.05.85,4.42,4.42,0,0,0-.71,1.33,5.59,5.59,0,0,0-.26,1.8V234h-.42v-5.24a6.65,6.65,0,0,0-.11-1.14,3.33,3.33,0,0,0-.39-1.11,2.44,2.44,0,0,0-.78-.82,2.33,2.33,0,0,0-1.29-.33,2.82,2.82,0,0,0-1.28.29,3,3,0,0,0-1,.85,4,4,0,0,0-.71,1.33,5.89,5.89,0,0,0-.25,1.8V234h-.42v-6.54c0-.13,0-.31,0-.51s0-.41,0-.62,0-.41,0-.59,0-.35,0-.48h.42c0,.13,0,.28,0,.48s0,.39,0,.61,0,.44,0,.65,0,.39,0,.56h0a3.64,3.64,0,0,1,.54-1.08,3.5,3.5,0,0,1,.77-.81,3.29,3.29,0,0,1,2-.68,3.09,3.09,0,0,1,1.19.21,2.44,2.44,0,0,1,.85.57,3.11,3.11,0,0,1,.55.85,4.27,4.27,0,0,1,.3,1Z"/></clipPath><clipPath id="clip-path-6"><path class="cls-7" d="M189.5,229.61a5.19,5.19,0,0,1-.33,1.88,4.31,4.31,0,0,1-.94,1.47,4,4,0,0,1-1.46,1,4.84,4.84,0,0,1-1.85.35,4.75,4.75,0,0,1-1.84-.35,4.09,4.09,0,0,1-1.45-1,4.47,4.47,0,0,1-.94-1.47,5.19,5.19,0,0,1-.33-1.88,5.1,5.1,0,0,1,.33-1.87,4.38,4.38,0,0,1,.94-1.45,4.2,4.2,0,0,1,1.45-.95,4.75,4.75,0,0,1,1.84-.35,4.84,4.84,0,0,1,1.85.35,4.15,4.15,0,0,1,1.46.95,4.22,4.22,0,0,1,.94,1.45A5.1,5.1,0,0,1,189.5,229.61Zm-.42,0a4.77,4.77,0,0,0-.28-1.65,4,4,0,0,0-.83-1.36,3.81,3.81,0,0,0-1.31-.91,4.73,4.73,0,0,0-3.47,0,3.86,3.86,0,0,0-1.3.91,4,4,0,0,0-.83,1.36,5.06,5.06,0,0,0,0,3.32,3.94,3.94,0,0,0,2.13,2.28,4.48,4.48,0,0,0,3.47,0,4,4,0,0,0,1.31-.92,4,4,0,0,0,.83-1.36A4.8,4.8,0,0,0,189.08,229.61Z"/></clipPath><clipPath id="clip-path-7"><path class="cls-8" d="M197.54,231.72a2.38,2.38,0,0,1-.23,1.05,2.29,2.29,0,0,1-.62.79,2.82,2.82,0,0,1-.9.5,3.57,3.57,0,0,1-1.1.17,4.2,4.2,0,0,1-1.76-.37,3.22,3.22,0,0,1-1.3-1.1l.34-.22a3.18,3.18,0,0,0,2.74,1.33,2.79,2.79,0,0,0,.84-.14,2.22,2.22,0,0,0,.78-.4,2,2,0,0,0,.57-.66,1.83,1.83,0,0,0,.22-.91,1.59,1.59,0,0,0-.28-1,2,2,0,0,0-.69-.61,5,5,0,0,0-.92-.37l-.94-.25q-.48-.14-.9-.3a2.9,2.9,0,0,1-.73-.42,1.91,1.91,0,0,1-.49-.63,2.24,2.24,0,0,1-.18-.95,2,2,0,0,1,.84-1.69,2.74,2.74,0,0,1,.86-.41,3.28,3.28,0,0,1,1-.15,3.07,3.07,0,0,1,2.68,1.28l-.36.21a2.82,2.82,0,0,0-1-.85,3,3,0,0,0-1.33-.27,3.42,3.42,0,0,0-.76.09,2.27,2.27,0,0,0-.73.31,1.94,1.94,0,0,0-.56.58,1.74,1.74,0,0,0-.21.88,2,2,0,0,0,.18.91,1.39,1.39,0,0,0,.5.55,3.12,3.12,0,0,0,.78.35c.3.1.64.19,1,.28a10.37,10.37,0,0,1,1,.31,3.49,3.49,0,0,1,.86.45,2,2,0,0,1,.59.66A2.13,2.13,0,0,1,197.54,231.72Z"/></clipPath><clipPath id="clip-path-8"><path class="cls-9" d="M203.33,234.17a3,3,0,0,1-.59.06,1.7,1.7,0,0,1-1.46-.58,2.36,2.36,0,0,1-.44-1.45v-6.58h-1.9v-.36h1.88V222.7h.42v2.56h2.57v.36h-2.57v6.58a1.65,1.65,0,0,0,.44,1.28,1.68,1.68,0,0,0,1.16.39,2.74,2.74,0,0,0,1-.17l.05.32A2.83,2.83,0,0,1,203.33,234.17Z"/></clipPath><clipPath id="clip-path-9"><path class="cls-10" d="M218.63,219.64H219V234h-.41v-2.36h-.06a4.23,4.23,0,0,1-1.62,2,4.31,4.31,0,0,1-2.31.67,4.26,4.26,0,0,1-1.76-.36,4.12,4.12,0,0,1-1.39-1,4.48,4.48,0,0,1-.9-1.47,5,5,0,0,1-.32-1.83,5,5,0,0,1,.32-1.84,4.57,4.57,0,0,1,.9-1.49,4.15,4.15,0,0,1,1.39-1,4.26,4.26,0,0,1,1.76-.36,4.31,4.31,0,0,1,2.31.67,4.26,4.26,0,0,1,1.62,2h.06Zm-7.94,10a4.93,4.93,0,0,0,.27,1.63,4.09,4.09,0,0,0,.79,1.36,3.79,3.79,0,0,0,1.24.92,3.84,3.84,0,0,0,1.65.35,3.71,3.71,0,0,0,1.6-.35,4,4,0,0,0,1.27-.92,4.36,4.36,0,0,0,.83-1.36,4.55,4.55,0,0,0,0-3.3,4.25,4.25,0,0,0-.83-1.36,3.87,3.87,0,0,0-1.27-.92,3.81,3.81,0,0,0-4.49,1A4.19,4.19,0,0,0,211,228,5,5,0,0,0,210.69,229.65Z"/></clipPath><clipPath id="clip-path-10"><path class="cls-11" d="M222.58,229.54a5.3,5.3,0,0,0,.24,1.57,4,4,0,0,0,.72,1.4,3.75,3.75,0,0,0,1.22,1,3.86,3.86,0,0,0,1.75.38,3.8,3.8,0,0,0,3.21-1.6l.31.27a4.54,4.54,0,0,1-1.51,1.27,4.44,4.44,0,0,1-2,.44,4.23,4.23,0,0,1-1.76-.36,4,4,0,0,1-1.38-1,4.31,4.31,0,0,1-.9-1.51,5.76,5.76,0,0,1-.31-1.89,5.17,5.17,0,0,1,.32-1.83,4.55,4.55,0,0,1,.89-1.44,3.85,3.85,0,0,1,1.32-.94,4.11,4.11,0,0,1,1.64-.34,4,4,0,0,1,1.79.37,3.79,3.79,0,0,1,1.27.94,4.21,4.21,0,0,1,.75,1.34,5.05,5.05,0,0,1,.25,1.53v.37Zm7.39-.37a4.45,4.45,0,0,0-.29-1.55,3.83,3.83,0,0,0-.76-1.21,3.1,3.1,0,0,0-1.13-.78,4,4,0,0,0-1.49-.27,3.33,3.33,0,0,0-1.69.4,3.89,3.89,0,0,0-1.15,1,4.27,4.27,0,0,0-.65,1.25,3.86,3.86,0,0,0-.21,1.15Z"/></clipPath><clipPath id="clip-path-11"><path class="cls-12" d="M238.41,231.72a2.38,2.38,0,0,1-.23,1.05,2.29,2.29,0,0,1-.62.79,2.82,2.82,0,0,1-.9.5,3.57,3.57,0,0,1-1.1.17,4.17,4.17,0,0,1-1.76-.37,3.22,3.22,0,0,1-1.3-1.1l.34-.22a3.16,3.16,0,0,0,2.73,1.33,2.85,2.85,0,0,0,.85-.14,2.31,2.31,0,0,0,.78-.4,2,2,0,0,0,.57-.66,1.83,1.83,0,0,0,.22-.91,1.59,1.59,0,0,0-.28-1,2,2,0,0,0-.69-.61,5,5,0,0,0-.92-.37l-.94-.25q-.48-.14-.9-.3a2.9,2.9,0,0,1-.73-.42,1.79,1.79,0,0,1-.49-.63,2.24,2.24,0,0,1-.18-.95,2,2,0,0,1,.23-1,2.13,2.13,0,0,1,.6-.7,2.9,2.9,0,0,1,.87-.41,3.28,3.28,0,0,1,1-.15,3.07,3.07,0,0,1,2.68,1.28l-.36.21a2.64,2.64,0,0,0-2.32-1.12,3.42,3.42,0,0,0-.76.09,2.42,2.42,0,0,0-.74.31,1.91,1.91,0,0,0-.55.58,1.74,1.74,0,0,0-.21.88,2,2,0,0,0,.18.91,1.39,1.39,0,0,0,.5.55,3.12,3.12,0,0,0,.78.35c.3.1.64.19,1,.28a10.37,10.37,0,0,1,1,.31,3.49,3.49,0,0,1,.86.45,2,2,0,0,1,.59.66A2.13,2.13,0,0,1,238.41,231.72Z"/></clipPath><clipPath id="clip-path-12"><path class="cls-2" d="M61.1,227.67a3.67,3.67,0,0,1,1.29-2,3.36,3.36,0,0,1,2.07-.7,3,3,0,0,1,1.48.33,2.69,2.69,0,0,1,1,.85,3.76,3.76,0,0,1,.5,1.2,6.07,6.07,0,0,1,.15,1.35V234h-.42v-5.24a5.82,5.82,0,0,0-.12-1.14,3.38,3.38,0,0,0-.43-1.11,2.47,2.47,0,0,0-.82-.82,2.33,2.33,0,0,0-1.29-.33,2.82,2.82,0,0,0-1.28.29,3,3,0,0,0-1,.85,4.22,4.22,0,0,0-.72,1.33,5.88,5.88,0,0,0-.26,1.8V234h-.42v-5.24a6.65,6.65,0,0,0-.11-1.14,3.31,3.31,0,0,0-.38-1.11,2.47,2.47,0,0,0-.79-.82,2.33,2.33,0,0,0-1.29-.33,2.82,2.82,0,0,0-1.28.29,3,3,0,0,0-1,.85,4,4,0,0,0-.71,1.33,5.89,5.89,0,0,0-.25,1.8V234h-.42v-6.54c0-.13,0-.31,0-.51s0-.41,0-.62,0-.41,0-.59,0-.35,0-.48h.42c0,.13,0,.28,0,.48l0,.61c0,.22,0,.44,0,.65s0,.39,0,.56h0a3.4,3.4,0,0,1,.53-1.08,3.72,3.72,0,0,1,.77-.81,3.29,3.29,0,0,1,2-.68,3.05,3.05,0,0,1,1.19.21,2.44,2.44,0,0,1,.85.57,2.89,2.89,0,0,1,.55.85,4.27,4.27,0,0,1,.3,1Z"/></clipPath><clipPath id="clip-path-13"><path class="cls-13" d="M241.58,222a.42.42,0,0,1-.31-.13.53.53,0,0,1-.13-.36.49.49,0,0,1,.13-.34.4.4,0,0,1,.61,0,.5.5,0,0,1,0,.7A.41.41,0,0,1,241.58,222Zm-.21,12v-8.74h.42V234Z"/></clipPath><clipPath id="clip-path-14"><path class="cls-15" d="M247.37,225.59a3,3,0,0,1,1.81-.6h.17l.17,0v.36h-.25a2.59,2.59,0,0,0-1.42.37,3.07,3.07,0,0,0-1,1,4.63,4.63,0,0,0-.56,1.33,6.14,6.14,0,0,0-.18,1.46V234h-.42v-6.54c0-.13,0-.31,0-.51s0-.41,0-.62a5.41,5.41,0,0,0,0-.59c0-.2,0-.35,0-.48H246a3.14,3.14,0,0,1,0,.48c0,.18,0,.39,0,.61s0,.44,0,.65,0,.39,0,.56h0A3.48,3.48,0,0,1,247.37,225.59Z"/></clipPath><clipPath id="clip-path-15"><path class="cls-16" d="M257.46,232c0,.33,0,.69.05,1.06s.07.68.11.92h-.4a2.71,2.71,0,0,1-.06-.47c0-.18,0-.37-.05-.57s0-.38,0-.58,0-.34,0-.47H257a3.15,3.15,0,0,1-1.31,1.78,3.66,3.66,0,0,1-3,.42,2.92,2.92,0,0,1-.94-.45,2.24,2.24,0,0,1-.68-.78,2.34,2.34,0,0,1-.25-1.12,2.25,2.25,0,0,1,.48-1.5,3.21,3.21,0,0,1,1.21-.89A5.55,5.55,0,0,1,254,229a14.29,14.29,0,0,1,1.52-.09H257v-.7a2.68,2.68,0,0,0-.77-2.14,3,3,0,0,0-2-.67,3.67,3.67,0,0,0-1.45.28,4.34,4.34,0,0,0-1.21.76l-.22-.32a4,4,0,0,1,1.37-.81,4.61,4.61,0,0,1,1.51-.28,3.47,3.47,0,0,1,2.37.77,3.12,3.12,0,0,1,.86,2.43Zm-.42-2.79H255.7a13.44,13.44,0,0,0-1.52.09,5.19,5.19,0,0,0-1.47.35,2.86,2.86,0,0,0-1.09.76,2,2,0,0,0-.43,1.33,2,2,0,0,0,.24,1,1.85,1.85,0,0,0,.61.66,2.88,2.88,0,0,0,.82.36,3.45,3.45,0,0,0,2.46-.25,3,3,0,0,0,1-.92,3.4,3.4,0,0,0,.54-1.23,6.07,6.07,0,0,0,.15-1.32Z"/></clipPath><clipPath id="clip-path-16"><path class="cls-17" d="M261.68,227.63a4.19,4.19,0,0,1,3.93-2.64,4.31,4.31,0,0,1,1.77.36,4.08,4.08,0,0,1,1.38,1,4.34,4.34,0,0,1,.89,1.48,5.34,5.34,0,0,1,.31,1.86,5,5,0,0,1-.32,1.83,4.31,4.31,0,0,1-.9,1.47,4,4,0,0,1-1.38,1,4.37,4.37,0,0,1-3,.18,4.11,4.11,0,0,1-1.11-.5,4.22,4.22,0,0,1-.93-.82,3.91,3.91,0,0,1-.66-1.13h-.06V234h-.43V219.64h.43v8Zm7.87,2a4.75,4.75,0,0,0-.28-1.64,4.16,4.16,0,0,0-.78-1.36,3.75,3.75,0,0,0-1.25-.94,3.62,3.62,0,0,0-1.64-.35,3.7,3.7,0,0,0-1.6.34,3.94,3.94,0,0,0-1.26.92,4.25,4.25,0,0,0-.83,1.36,4.69,4.69,0,0,0,0,3.3,4.36,4.36,0,0,0,.83,1.36,4.09,4.09,0,0,0,1.26.92,3.71,3.71,0,0,0,1.6.35,3.76,3.76,0,0,0,1.64-.35,3.83,3.83,0,0,0,1.25-.92,4.06,4.06,0,0,0,.78-1.36A4.69,4.69,0,0,0,269.55,229.65Z"/></clipPath><clipPath id="clip-path-17"><path class="cls-18" d="M273.08,234V219.64h.42V234Z"/></clipPath><clipPath id="clip-path-18"><path class="cls-14" d="M77.31,232c0,.33,0,.69,0,1.06s.07.68.11.92h-.4a4.24,4.24,0,0,1-.06-.47c0-.18,0-.37,0-.57a5.46,5.46,0,0,1,0-.58c0-.18,0-.34,0-.47h-.06a3.11,3.11,0,0,1-1.31,1.78,3.78,3.78,0,0,1-2,.58,3.82,3.82,0,0,1-1.05-.16,3,3,0,0,1-.94-.45,2.21,2.21,0,0,1-.67-.78,2.57,2.57,0,0,1,.22-2.62,3.37,3.37,0,0,1,1.21-.89,5.62,5.62,0,0,1,1.55-.41,14,14,0,0,1,1.51-.09h1.52v-.7a2.68,2.68,0,0,0-.78-2.14,3,3,0,0,0-2-.67,3.72,3.72,0,0,0-1.46.28,4.15,4.15,0,0,0-1.2.76l-.23-.32a4,4,0,0,1,1.38-.81,4.52,4.52,0,0,1,1.51-.28,3.42,3.42,0,0,1,2.36.77,3.09,3.09,0,0,1,.87,2.43Zm-.42-2.79H75.54a13.57,13.57,0,0,0-1.52.09,5.12,5.12,0,0,0-1.46.35,2.82,2.82,0,0,0-1.1.76,2,2,0,0,0-.42,1.33,2.07,2.07,0,0,0,.23,1,2,2,0,0,0,.61.66,2.88,2.88,0,0,0,.82.36,3.27,3.27,0,0,0,.84.12,3.18,3.18,0,0,0,1.62-.37,3,3,0,0,0,1-.92,3.58,3.58,0,0,0,.54-1.23,6.07,6.07,0,0,0,.15-1.32Z"/></clipPath><clipPath id="clip-path-19"><path class="cls-20" d="M81,234V219.64h.42V234Z"/></clipPath><clipPath id="clip-path-20"><path class="cls-21" d="M88.73,219.84l-.38-.06a2.6,2.6,0,0,0-.4,0,1.71,1.71,0,0,0-.88.21,1.77,1.77,0,0,0-.58.54,2.28,2.28,0,0,0-.31.75,4,4,0,0,0-.1.86v3.15h2.38v.36H86.08V234h-.39v-8.38H83.84v-.36h1.83v-3.14a3.69,3.69,0,0,1,.2-1.33,2.09,2.09,0,0,1,.53-.83,1.88,1.88,0,0,1,.73-.43,2.77,2.77,0,0,1,.8-.12,3.23,3.23,0,0,1,.87.11Zm1.9,2.13a.42.42,0,0,1-.31-.13.48.48,0,0,1-.13-.36.45.45,0,0,1,.13-.34.4.4,0,0,1,.61,0,.52.52,0,0,1,0,.7A.41.41,0,0,1,90.63,222Zm-.21,12v-8.74h.41V234Z"/></clipPath><clipPath id="clip-path-21"><path class="cls-22" d="M108.4,233.88a7.41,7.41,0,0,1-2.65.5,7.09,7.09,0,0,1-2.77-.53,6.72,6.72,0,0,1-2.17-1.47,6.63,6.63,0,0,1-1.42-2.26,8.37,8.37,0,0,1,0-5.7,6.69,6.69,0,0,1,1.42-2.25A6.56,6.56,0,0,1,103,220.7a7.19,7.19,0,0,1,2.77-.53,7,7,0,0,1,2.44.43,5,5,0,0,1,2,1.3l-.26.3a4.87,4.87,0,0,0-.9-.73A5.88,5.88,0,0,0,108,221a6.54,6.54,0,0,0-1.13-.31,7.09,7.09,0,0,0-1.1-.09,6.43,6.43,0,0,0-2.63.52,6.31,6.31,0,0,0-2,1.43,6.67,6.67,0,0,0-1.31,2.14,7.39,7.39,0,0,0-.46,2.63,7.62,7.62,0,0,0,.45,2.64,6.45,6.45,0,0,0,1.31,2.13,6,6,0,0,0,2,1.44,6.46,6.46,0,0,0,2.65.52,6.75,6.75,0,0,0,2.48-.48,4.9,4.9,0,0,0,2-1.46l.31.29A5.26,5.26,0,0,1,108.4,233.88Z"/></clipPath><clipPath id="clip-path-22"><path class="cls-23" d="M121.37,229.61a5,5,0,0,1-.34,1.88,4.17,4.17,0,0,1-.94,1.47,4,4,0,0,1-1.45,1,4.84,4.84,0,0,1-1.85.35,4.75,4.75,0,0,1-1.84-.35,4.09,4.09,0,0,1-1.45-1,4.31,4.31,0,0,1-.94-1.47,5.19,5.19,0,0,1-.33-1.88,5.1,5.1,0,0,1,.33-1.87,4.19,4.19,0,0,1,2.39-2.4,4.75,4.75,0,0,1,1.84-.35,4.84,4.84,0,0,1,1.85.35,4.19,4.19,0,0,1,2.39,2.4A4.9,4.9,0,0,1,121.37,229.61Zm-.42,0a4.77,4.77,0,0,0-.29-1.65,4,4,0,0,0-.82-1.36,3.81,3.81,0,0,0-1.31-.91,4.42,4.42,0,0,0-1.74-.33,4.3,4.3,0,0,0-1.73.33,3.77,3.77,0,0,0-1.3.91,4,4,0,0,0-.83,1.36,5.06,5.06,0,0,0,0,3.32,4,4,0,0,0,.83,1.36,3.93,3.93,0,0,0,1.3.92,4.14,4.14,0,0,0,1.73.35,4.26,4.26,0,0,0,1.74-.35,3.86,3.86,0,0,0,2.13-2.28A4.8,4.8,0,0,0,121,229.61Z"/></clipPath><clipPath id="clip-path-23"><path class="cls-24" d="M130.49,232c0,.33,0,.69,0,1.06s.07.68.11.92h-.4a4.24,4.24,0,0,1-.06-.47c0-.18,0-.37,0-.57a5.46,5.46,0,0,1,0-.58c0-.18,0-.34,0-.47H130a3.11,3.11,0,0,1-1.31,1.78,3.77,3.77,0,0,1-2,.58,3.84,3.84,0,0,1-1.06-.16,3,3,0,0,1-.94-.45,2.21,2.21,0,0,1-.67-.78,2.57,2.57,0,0,1,.22-2.62,3.37,3.37,0,0,1,1.21-.89A5.62,5.62,0,0,1,127,229a14,14,0,0,1,1.51-.09h1.52v-.7a2.68,2.68,0,0,0-.78-2.14,3,3,0,0,0-2-.67,3.72,3.72,0,0,0-1.46.28,4.15,4.15,0,0,0-1.2.76l-.23-.32a4,4,0,0,1,1.38-.81,4.52,4.52,0,0,1,1.51-.28,3.42,3.42,0,0,1,2.36.77,3.09,3.09,0,0,1,.87,2.43Zm-.42-2.79h-1.35a13.57,13.57,0,0,0-1.52.09,5.12,5.12,0,0,0-1.46.35,2.71,2.71,0,0,0-1.09.76,1.94,1.94,0,0,0-.43,1.33,2,2,0,0,0,.24,1,1.83,1.83,0,0,0,.6.66,2.88,2.88,0,0,0,.82.36,3.28,3.28,0,0,0,.85.12,3.17,3.17,0,0,0,1.61-.37,3,3,0,0,0,1-.92,3.4,3.4,0,0,0,.54-1.23,6.07,6.07,0,0,0,.15-1.32Z"/></clipPath><clipPath id="clip-path-24"><path class="cls-25" d="M139.13,231.72a2.36,2.36,0,0,1-.84,1.84,2.77,2.77,0,0,1-.91.5,3.57,3.57,0,0,1-1.1.17,4.23,4.23,0,0,1-1.76-.37,3.35,3.35,0,0,1-1.3-1.1l.35-.22a3.16,3.16,0,0,0,2.73,1.33,2.85,2.85,0,0,0,.85-.14,2.41,2.41,0,0,0,.78-.4,2,2,0,0,0,.57-.66,1.94,1.94,0,0,0,.21-.91,1.66,1.66,0,0,0-.27-1,2.13,2.13,0,0,0-.69-.61,4.87,4.87,0,0,0-.93-.37l-.94-.25c-.31-.09-.61-.19-.89-.3a2.73,2.73,0,0,1-.73-.42,1.79,1.79,0,0,1-.49-.63,2.09,2.09,0,0,1-.19-.95,2.07,2.07,0,0,1,.23-1,2.16,2.16,0,0,1,.61-.7,2.69,2.69,0,0,1,.87-.41,3.22,3.22,0,0,1,1-.15,3.05,3.05,0,0,1,2.68,1.28l-.36.21a2.82,2.82,0,0,0-1-.85,3,3,0,0,0-1.33-.27,3.49,3.49,0,0,0-.76.09,2.37,2.37,0,0,0-.73.31,1.91,1.91,0,0,0-.55.58,1.74,1.74,0,0,0-.22.88,2,2,0,0,0,.18.91,1.42,1.42,0,0,0,.51.55,2.82,2.82,0,0,0,.78.35c.3.1.63.19,1,.28s.68.19,1,.31a3.42,3.42,0,0,1,.85.45,1.87,1.87,0,0,1,.59.66A2,2,0,0,1,139.13,231.72Z"/></clipPath><clipPath id="clip-path-25"><path class="cls-19" d="M277,229.54a5.3,5.3,0,0,0,.24,1.57,4.33,4.33,0,0,0,.72,1.4,3.63,3.63,0,0,0,3,1.38,4,4,0,0,0,1.82-.41,4.12,4.12,0,0,0,1.39-1.19l.3.27a4.44,4.44,0,0,1-1.51,1.27,4.4,4.4,0,0,1-2,.44,4.27,4.27,0,0,1-3.15-1.33,4.44,4.44,0,0,1-.89-1.51,5.51,5.51,0,0,1-.31-1.89,5,5,0,0,1,.32-1.83,4.35,4.35,0,0,1,.88-1.44,3.88,3.88,0,0,1,1.33-.94,4.08,4.08,0,0,1,1.64-.34,4,4,0,0,1,1.79.37,3.75,3.75,0,0,1,1.26.94,3.86,3.86,0,0,1,.75,1.34,4.76,4.76,0,0,1,.25,1.53v.37Zm7.39-.37a4.45,4.45,0,0,0-.29-1.55,3.64,3.64,0,0,0-.75-1.21,3.22,3.22,0,0,0-1.14-.78,3.94,3.94,0,0,0-1.48-.27,3.33,3.33,0,0,0-1.69.4,3.77,3.77,0,0,0-1.15,1,4.31,4.31,0,0,0-.66,1.25,3.86,3.86,0,0,0-.21,1.15Z"/></clipPath></defs><title>text1</title><g id="Layer_2" data-name="Layer 2"><g id="Layer_1-2" data-name="Layer 1"><path class="cls-1" d="M51.68,234l-1.6-3.86H42.27L40.62,234h-.46L46,220.55h.53L52.13,234Zm-5.44-13.19-3.82,9H50Z"/><path class="cls-1" d="M61.1,227.67a3.67,3.67,0,0,1,1.29-2,3.36,3.36,0,0,1,2.07-.7,3,3,0,0,1,1.48.33,2.69,2.69,0,0,1,1,.85,3.76,3.76,0,0,1,.5,1.2,6.07,6.07,0,0,1,.15,1.35V234h-.42v-5.24a5.82,5.82,0,0,0-.12-1.14,3.38,3.38,0,0,0-.43-1.11,2.47,2.47,0,0,0-.82-.82,2.33,2.33,0,0,0-1.29-.33,2.82,2.82,0,0,0-1.28.29,3,3,0,0,0-1,.85,4.22,4.22,0,0,0-.72,1.33,5.88,5.88,0,0,0-.26,1.8V234h-.42v-5.24a6.65,6.65,0,0,0-.11-1.14,3.31,3.31,0,0,0-.38-1.11,2.47,2.47,0,0,0-.79-.82,2.33,2.33,0,0,0-1.29-.33,2.82,2.82,0,0,0-1.28.29,3,3,0,0,0-1,.85,4,4,0,0,0-.71,1.33,5.89,5.89,0,0,0-.25,1.8V234h-.42v-6.54c0-.13,0-.31,0-.51s0-.41,0-.62,0-.41,0-.59,0-.35,0-.48h.42c0,.13,0,.28,0,.48l0,.61c0,.22,0,.44,0,.65s0,.39,0,.56h0a3.4,3.4,0,0,1,.53-1.08,3.72,3.72,0,0,1,.77-.81,3.29,3.29,0,0,1,2-.68,3.05,3.05,0,0,1,1.19.21,2.44,2.44,0,0,1,.85.57,2.89,2.89,0,0,1,.55.85,4.27,4.27,0,0,1,.3,1Z"/><path class="cls-1" d="M77.31,232c0,.33,0,.69,0,1.06s.07.68.11.92h-.4a4.24,4.24,0,0,1-.06-.47c0-.18,0-.37,0-.57a5.46,5.46,0,0,1,0-.58c0-.18,0-.34,0-.47h-.06a3.11,3.11,0,0,1-1.31,1.78,3.78,3.78,0,0,1-2,.58,3.82,3.82,0,0,1-1.05-.16,3,3,0,0,1-.94-.45,2.21,2.21,0,0,1-.67-.78,2.57,2.57,0,0,1,.22-2.62,3.37,3.37,0,0,1,1.21-.89,5.62,5.62,0,0,1,1.55-.41,14,14,0,0,1,1.51-.09h1.52v-.7a2.68,2.68,0,0,0-.78-2.14,3,3,0,0,0-2-.67,3.72,3.72,0,0,0-1.46.28,4.15,4.15,0,0,0-1.2.76l-.23-.32a4,4,0,0,1,1.38-.81,4.52,4.52,0,0,1,1.51-.28,3.42,3.42,0,0,1,2.36.77,3.09,3.09,0,0,1,.87,2.43Zm-.42-2.79H75.54a13.57,13.57,0,0,0-1.52.09,5.12,5.12,0,0,0-1.46.35,2.82,2.82,0,0,0-1.1.76,2,2,0,0,0-.42,1.33,2.07,2.07,0,0,0,.23,1,2,2,0,0,0,.61.66,2.88,2.88,0,0,0,.82.36,3.27,3.27,0,0,0,.84.12,3.18,3.18,0,0,0,1.62-.37,3,3,0,0,0,1-.92,3.58,3.58,0,0,0,.54-1.23,6.07,6.07,0,0,0,.15-1.32Z"/><path class="cls-1" d="M81,234V219.64h.42V234Z"/><path class="cls-1" d="M88.73,219.84l-.38-.06a2.6,2.6,0,0,0-.4,0,1.71,1.71,0,0,0-.88.21,1.77,1.77,0,0,0-.58.54,2.28,2.28,0,0,0-.31.75,4,4,0,0,0-.1.86v3.15h2.38v.36H86.08V234h-.39v-8.38H83.84v-.36h1.83v-3.14a3.69,3.69,0,0,1,.2-1.33,2.09,2.09,0,0,1,.53-.83,1.88,1.88,0,0,1,.73-.43,2.77,2.77,0,0,1,.8-.12,3.23,3.23,0,0,1,.87.11Zm1.9,2.13a.42.42,0,0,1-.31-.13.48.48,0,0,1-.13-.36.45.45,0,0,1,.13-.34.4.4,0,0,1,.61,0,.52.52,0,0,1,0,.7A.41.41,0,0,1,90.63,222Zm-.21,12v-8.74h.41V234Z"/><path class="cls-1" d="M108.4,233.88a7.41,7.41,0,0,1-2.65.5,7.09,7.09,0,0,1-2.77-.53,6.72,6.72,0,0,1-2.17-1.47,6.63,6.63,0,0,1-1.42-2.26,8.37,8.37,0,0,1,0-5.7,6.69,6.69,0,0,1,1.42-2.25A6.56,6.56,0,0,1,103,220.7a7.19,7.19,0,0,1,2.77-.53,7,7,0,0,1,2.44.43,5,5,0,0,1,2,1.3l-.26.3a4.87,4.87,0,0,0-.9-.73A5.88,5.88,0,0,0,108,221a6.54,6.54,0,0,0-1.13-.31,7.09,7.09,0,0,0-1.1-.09,6.43,6.43,0,0,0-2.63.52,6.31,6.31,0,0,0-2,1.43,6.67,6.67,0,0,0-1.31,2.14,7.39,7.39,0,0,0-.46,2.63,7.62,7.62,0,0,0,.45,2.64,6.45,6.45,0,0,0,1.31,2.13,6,6,0,0,0,2,1.44,6.46,6.46,0,0,0,2.65.52,6.75,6.75,0,0,0,2.48-.48,4.9,4.9,0,0,0,2-1.46l.31.29A5.26,5.26,0,0,1,108.4,233.88Z"/><path class="cls-1" d="M121.37,229.61a5,5,0,0,1-.34,1.88,4.17,4.17,0,0,1-.94,1.47,4,4,0,0,1-1.45,1,4.84,4.84,0,0,1-1.85.35,4.75,4.75,0,0,1-1.84-.35,4.09,4.09,0,0,1-1.45-1,4.31,4.31,0,0,1-.94-1.47,5.19,5.19,0,0,1-.33-1.88,5.1,5.1,0,0,1,.33-1.87,4.19,4.19,0,0,1,2.39-2.4,4.75,4.75,0,0,1,1.84-.35,4.84,4.84,0,0,1,1.85.35,4.19,4.19,0,0,1,2.39,2.4A4.9,4.9,0,0,1,121.37,229.61Zm-.42,0a4.77,4.77,0,0,0-.29-1.65,4,4,0,0,0-.82-1.36,3.81,3.81,0,0,0-1.31-.91,4.42,4.42,0,0,0-1.74-.33,4.3,4.3,0,0,0-1.73.33,3.77,3.77,0,0,0-1.3.91,4,4,0,0,0-.83,1.36,5.06,5.06,0,0,0,0,3.32,4,4,0,0,0,.83,1.36,3.93,3.93,0,0,0,1.3.92,4.14,4.14,0,0,0,1.73.35,4.26,4.26,0,0,0,1.74-.35,3.86,3.86,0,0,0,2.13-2.28A4.8,4.8,0,0,0,121,229.61Z"/><path class="cls-1" d="M130.49,232c0,.33,0,.69,0,1.06s.07.68.11.92h-.4a4.24,4.24,0,0,1-.06-.47c0-.18,0-.37,0-.57a5.46,5.46,0,0,1,0-.58c0-.18,0-.34,0-.47H130a3.11,3.11,0,0,1-1.31,1.78,3.77,3.77,0,0,1-2,.58,3.84,3.84,0,0,1-1.06-.16,3,3,0,0,1-.94-.45,2.21,2.21,0,0,1-.67-.78,2.57,2.57,0,0,1,.22-2.62,3.37,3.37,0,0,1,1.21-.89A5.62,5.62,0,0,1,127,229a14,14,0,0,1,1.51-.09h1.52v-.7a2.68,2.68,0,0,0-.78-2.14,3,3,0,0,0-2-.67,3.72,3.72,0,0,0-1.46.28,4.15,4.15,0,0,0-1.2.76l-.23-.32a4,4,0,0,1,1.38-.81,4.52,4.52,0,0,1,1.51-.28,3.42,3.42,0,0,1,2.36.77,3.09,3.09,0,0,1,.87,2.43Zm-.42-2.79h-1.35a13.57,13.57,0,0,0-1.52.09,5.12,5.12,0,0,0-1.46.35,2.71,2.71,0,0,0-1.09.76,1.94,1.94,0,0,0-.43,1.33,2,2,0,0,0,.24,1,1.83,1.83,0,0,0,.6.66,2.88,2.88,0,0,0,.82.36,3.28,3.28,0,0,0,.85.12,3.17,3.17,0,0,0,1.61-.37,3,3,0,0,0,1-.92,3.4,3.4,0,0,0,.54-1.23,6.07,6.07,0,0,0,.15-1.32Z"/><path class="cls-1" d="M139.13,231.72a2.36,2.36,0,0,1-.84,1.84,2.77,2.77,0,0,1-.91.5,3.57,3.57,0,0,1-1.1.17,4.23,4.23,0,0,1-1.76-.37,3.35,3.35,0,0,1-1.3-1.1l.35-.22a3.16,3.16,0,0,0,2.73,1.33,2.85,2.85,0,0,0,.85-.14,2.41,2.41,0,0,0,.78-.4,2,2,0,0,0,.57-.66,1.94,1.94,0,0,0,.21-.91,1.66,1.66,0,0,0-.27-1,2.13,2.13,0,0,0-.69-.61,4.87,4.87,0,0,0-.93-.37l-.94-.25c-.31-.09-.61-.19-.89-.3a2.73,2.73,0,0,1-.73-.42,1.79,1.79,0,0,1-.49-.63,2.09,2.09,0,0,1-.19-.95,2.07,2.07,0,0,1,.23-1,2.16,2.16,0,0,1,.61-.7,2.69,2.69,0,0,1,.87-.41,3.22,3.22,0,0,1,1-.15,3.05,3.05,0,0,1,2.68,1.28l-.36.21a2.82,2.82,0,0,0-1-.85,3,3,0,0,0-1.33-.27,3.49,3.49,0,0,0-.76.09,2.37,2.37,0,0,0-.73.31,1.91,1.91,0,0,0-.55.58,1.74,1.74,0,0,0-.22.88,2,2,0,0,0,.18.91,1.42,1.42,0,0,0,.51.55,2.82,2.82,0,0,0,.78.35c.3.1.63.19,1,.28s.68.19,1,.31a3.42,3.42,0,0,1,.85.45,1.87,1.87,0,0,1,.59.66A2,2,0,0,1,139.13,231.72Z"/><path class="cls-1" d="M144.93,234.17a3.11,3.11,0,0,1-.59.06,1.72,1.72,0,0,1-1.47-.58,2.35,2.35,0,0,1-.43-1.45v-6.58h-1.9v-.36h1.88V222.7h.42v2.56h2.56v.36h-2.56v6.58a1.65,1.65,0,0,0,.43,1.28,1.7,1.7,0,0,0,1.16.39,2.7,2.7,0,0,0,1-.17l.06.32A3.07,3.07,0,0,1,144.93,234.17Z"/><path class="cls-1" d="M148,224.88h-.32l1.06-4.33h.46Z"/><path class="cls-1" d="M156.52,231.72a2.38,2.38,0,0,1-.23,1.05,2.29,2.29,0,0,1-.62.79,2.82,2.82,0,0,1-.9.5,3.57,3.57,0,0,1-1.1.17,4.17,4.17,0,0,1-1.76-.37,3.22,3.22,0,0,1-1.3-1.1l.34-.22a3.18,3.18,0,0,0,2.74,1.33,2.79,2.79,0,0,0,.84-.14,2.22,2.22,0,0,0,.78-.4,2,2,0,0,0,.57-.66,1.83,1.83,0,0,0,.22-.91,1.59,1.59,0,0,0-.28-1,2,2,0,0,0-.69-.61,5,5,0,0,0-.92-.37l-.94-.25q-.48-.14-.9-.3a2.9,2.9,0,0,1-.73-.42,1.79,1.79,0,0,1-.49-.63,2.24,2.24,0,0,1-.18-.95,2,2,0,0,1,.23-1,2.13,2.13,0,0,1,.6-.7,2.9,2.9,0,0,1,.87-.41,3.28,3.28,0,0,1,1-.15,3.07,3.07,0,0,1,2.68,1.28l-.36.21a2.64,2.64,0,0,0-2.32-1.12,3.42,3.42,0,0,0-.76.09,2.27,2.27,0,0,0-.73.31,1.7,1.7,0,0,0-.55.58,1.64,1.64,0,0,0-.22.88,2,2,0,0,0,.18.91,1.47,1.47,0,0,0,.5.55,3.12,3.12,0,0,0,.78.35c.3.1.64.19,1,.28a10.37,10.37,0,0,1,1,.31,3.49,3.49,0,0,1,.86.45,2,2,0,0,1,.59.66A2.13,2.13,0,0,1,156.52,231.72Z"/><path class="cls-1" d="M170.92,227.67a3.67,3.67,0,0,1,1.29-2,3.36,3.36,0,0,1,2.07-.7,3,3,0,0,1,1.47.33,2.53,2.53,0,0,1,.95.85,3.57,3.57,0,0,1,.51,1.2,6.07,6.07,0,0,1,.15,1.35V234h-.42v-5.24a5.82,5.82,0,0,0-.12-1.14,3.38,3.38,0,0,0-.43-1.11,2.47,2.47,0,0,0-.82-.82,2.33,2.33,0,0,0-1.29-.33,2.82,2.82,0,0,0-1.28.29,3.15,3.15,0,0,0-1.05.85,4.42,4.42,0,0,0-.71,1.33,5.59,5.59,0,0,0-.26,1.8V234h-.42v-5.24a6.65,6.65,0,0,0-.11-1.14,3.33,3.33,0,0,0-.39-1.11,2.44,2.44,0,0,0-.78-.82,2.33,2.33,0,0,0-1.29-.33,2.82,2.82,0,0,0-1.28.29,3,3,0,0,0-1,.85,4,4,0,0,0-.71,1.33,5.89,5.89,0,0,0-.25,1.8V234h-.42v-6.54c0-.13,0-.31,0-.51s0-.41,0-.62,0-.41,0-.59,0-.35,0-.48h.42c0,.13,0,.28,0,.48s0,.39,0,.61,0,.44,0,.65,0,.39,0,.56h0a3.64,3.64,0,0,1,.54-1.08,3.5,3.5,0,0,1,.77-.81,3.29,3.29,0,0,1,2-.68,3.09,3.09,0,0,1,1.19.21,2.44,2.44,0,0,1,.85.57,3.11,3.11,0,0,1,.55.85,4.27,4.27,0,0,1,.3,1Z"/><path class="cls-1" d="M189.5,229.61a5.19,5.19,0,0,1-.33,1.88,4.31,4.31,0,0,1-.94,1.47,4,4,0,0,1-1.46,1,4.84,4.84,0,0,1-1.85.35,4.75,4.75,0,0,1-1.84-.35,4.09,4.09,0,0,1-1.45-1,4.47,4.47,0,0,1-.94-1.47,5.19,5.19,0,0,1-.33-1.88,5.1,5.1,0,0,1,.33-1.87,4.38,4.38,0,0,1,.94-1.45,4.2,4.2,0,0,1,1.45-.95,4.75,4.75,0,0,1,1.84-.35,4.84,4.84,0,0,1,1.85.35,4.15,4.15,0,0,1,1.46.95,4.22,4.22,0,0,1,.94,1.45A5.1,5.1,0,0,1,189.5,229.61Zm-.42,0a4.77,4.77,0,0,0-.28-1.65,4,4,0,0,0-.83-1.36,3.81,3.81,0,0,0-1.31-.91,4.73,4.73,0,0,0-3.47,0,3.86,3.86,0,0,0-1.3.91,4,4,0,0,0-.83,1.36,5.06,5.06,0,0,0,0,3.32,3.94,3.94,0,0,0,2.13,2.28,4.48,4.48,0,0,0,3.47,0,4,4,0,0,0,1.31-.92,4,4,0,0,0,.83-1.36A4.8,4.8,0,0,0,189.08,229.61Z"/><path class="cls-1" d="M197.54,231.72a2.38,2.38,0,0,1-.23,1.05,2.29,2.29,0,0,1-.62.79,2.82,2.82,0,0,1-.9.5,3.57,3.57,0,0,1-1.1.17,4.2,4.2,0,0,1-1.76-.37,3.22,3.22,0,0,1-1.3-1.1l.34-.22a3.18,3.18,0,0,0,2.74,1.33,2.79,2.79,0,0,0,.84-.14,2.22,2.22,0,0,0,.78-.4,2,2,0,0,0,.57-.66,1.83,1.83,0,0,0,.22-.91,1.59,1.59,0,0,0-.28-1,2,2,0,0,0-.69-.61,5,5,0,0,0-.92-.37l-.94-.25q-.48-.14-.9-.3a2.9,2.9,0,0,1-.73-.42,1.91,1.91,0,0,1-.49-.63,2.24,2.24,0,0,1-.18-.95,2,2,0,0,1,.84-1.69,2.74,2.74,0,0,1,.86-.41,3.28,3.28,0,0,1,1-.15,3.07,3.07,0,0,1,2.68,1.28l-.36.21a2.82,2.82,0,0,0-1-.85,3,3,0,0,0-1.33-.27,3.42,3.42,0,0,0-.76.09,2.27,2.27,0,0,0-.73.31,1.94,1.94,0,0,0-.56.58,1.74,1.74,0,0,0-.21.88,2,2,0,0,0,.18.91,1.39,1.39,0,0,0,.5.55,3.12,3.12,0,0,0,.78.35c.3.1.64.19,1,.28a10.37,10.37,0,0,1,1,.31,3.49,3.49,0,0,1,.86.45,2,2,0,0,1,.59.66A2.13,2.13,0,0,1,197.54,231.72Z"/><path class="cls-1" d="M203.33,234.17a3,3,0,0,1-.59.06,1.7,1.7,0,0,1-1.46-.58,2.36,2.36,0,0,1-.44-1.45v-6.58h-1.9v-.36h1.88V222.7h.42v2.56h2.57v.36h-2.57v6.58a1.65,1.65,0,0,0,.44,1.28,1.68,1.68,0,0,0,1.16.39,2.74,2.74,0,0,0,1-.17l.05.32A2.83,2.83,0,0,1,203.33,234.17Z"/><path class="cls-1" d="M218.63,219.64H219V234h-.41v-2.36h-.06a4.23,4.23,0,0,1-1.62,2,4.31,4.31,0,0,1-2.31.67,4.26,4.26,0,0,1-1.76-.36,4.12,4.12,0,0,1-1.39-1,4.48,4.48,0,0,1-.9-1.47,5,5,0,0,1-.32-1.83,5,5,0,0,1,.32-1.84,4.57,4.57,0,0,1,.9-1.49,4.15,4.15,0,0,1,1.39-1,4.26,4.26,0,0,1,1.76-.36,4.31,4.31,0,0,1,2.31.67,4.26,4.26,0,0,1,1.62,2h.06Zm-7.94,10a4.93,4.93,0,0,0,.27,1.63,4.09,4.09,0,0,0,.79,1.36,3.79,3.79,0,0,0,1.24.92,3.84,3.84,0,0,0,1.65.35,3.71,3.71,0,0,0,1.6-.35,4,4,0,0,0,1.27-.92,4.36,4.36,0,0,0,.83-1.36,4.55,4.55,0,0,0,0-3.3,4.25,4.25,0,0,0-.83-1.36,3.87,3.87,0,0,0-1.27-.92,3.81,3.81,0,0,0-4.49,1A4.19,4.19,0,0,0,211,228,5,5,0,0,0,210.69,229.65Z"/><path class="cls-1" d="M222.58,229.54a5.3,5.3,0,0,0,.24,1.57,4,4,0,0,0,.72,1.4,3.75,3.75,0,0,0,1.22,1,3.86,3.86,0,0,0,1.75.38,3.8,3.8,0,0,0,3.21-1.6l.31.27a4.54,4.54,0,0,1-1.51,1.27,4.44,4.44,0,0,1-2,.44,4.23,4.23,0,0,1-1.76-.36,4,4,0,0,1-1.38-1,4.31,4.31,0,0,1-.9-1.51,5.76,5.76,0,0,1-.31-1.89,5.17,5.17,0,0,1,.32-1.83,4.55,4.55,0,0,1,.89-1.44,3.85,3.85,0,0,1,1.32-.94,4.11,4.11,0,0,1,1.64-.34,4,4,0,0,1,1.79.37,3.79,3.79,0,0,1,1.27.94,4.21,4.21,0,0,1,.75,1.34,5.05,5.05,0,0,1,.25,1.53v.37Zm7.39-.37a4.45,4.45,0,0,0-.29-1.55,3.83,3.83,0,0,0-.76-1.21,3.1,3.1,0,0,0-1.13-.78,4,4,0,0,0-1.49-.27,3.33,3.33,0,0,0-1.69.4,3.89,3.89,0,0,0-1.15,1,4.27,4.27,0,0,0-.65,1.25,3.86,3.86,0,0,0-.21,1.15Z"/><path class="cls-1" d="M238.41,231.72a2.38,2.38,0,0,1-.23,1.05,2.29,2.29,0,0,1-.62.79,2.82,2.82,0,0,1-.9.5,3.57,3.57,0,0,1-1.1.17,4.17,4.17,0,0,1-1.76-.37,3.22,3.22,0,0,1-1.3-1.1l.34-.22a3.16,3.16,0,0,0,2.73,1.33,2.85,2.85,0,0,0,.85-.14,2.31,2.31,0,0,0,.78-.4,2,2,0,0,0,.57-.66,1.83,1.83,0,0,0,.22-.91,1.59,1.59,0,0,0-.28-1,2,2,0,0,0-.69-.61,5,5,0,0,0-.92-.37l-.94-.25q-.48-.14-.9-.3a2.9,2.9,0,0,1-.73-.42,1.79,1.79,0,0,1-.49-.63,2.24,2.24,0,0,1-.18-.95,2,2,0,0,1,.23-1,2.13,2.13,0,0,1,.6-.7,2.9,2.9,0,0,1,.87-.41,3.28,3.28,0,0,1,1-.15,3.07,3.07,0,0,1,2.68,1.28l-.36.21a2.64,2.64,0,0,0-2.32-1.12,3.42,3.42,0,0,0-.76.09,2.42,2.42,0,0,0-.74.31,1.91,1.91,0,0,0-.55.58,1.74,1.74,0,0,0-.21.88,2,2,0,0,0,.18.91,1.39,1.39,0,0,0,.5.55,3.12,3.12,0,0,0,.78.35c.3.1.64.19,1,.28a10.37,10.37,0,0,1,1,.31,3.49,3.49,0,0,1,.86.45,2,2,0,0,1,.59.66A2.13,2.13,0,0,1,238.41,231.72Z"/><path class="cls-1" d="M241.58,222a.42.42,0,0,1-.31-.13.53.53,0,0,1-.13-.36.49.49,0,0,1,.13-.34.4.4,0,0,1,.61,0,.5.5,0,0,1,0,.7A.41.41,0,0,1,241.58,222Zm-.21,12v-8.74h.42V234Z"/><path class="cls-1" d="M247.37,225.59a3,3,0,0,1,1.81-.6h.17l.17,0v.36h-.25a2.59,2.59,0,0,0-1.42.37,3.07,3.07,0,0,0-1,1,4.63,4.63,0,0,0-.56,1.33,6.14,6.14,0,0,0-.18,1.46V234h-.42v-6.54c0-.13,0-.31,0-.51s0-.41,0-.62a5.41,5.41,0,0,0,0-.59c0-.2,0-.35,0-.48H246a3.14,3.14,0,0,1,0,.48c0,.18,0,.39,0,.61s0,.44,0,.65,0,.39,0,.56h0A3.48,3.48,0,0,1,247.37,225.59Z"/><path class="cls-1" d="M257.46,232c0,.33,0,.69.05,1.06s.07.68.11.92h-.4a2.71,2.71,0,0,1-.06-.47c0-.18,0-.37-.05-.57s0-.38,0-.58,0-.34,0-.47H257a3.15,3.15,0,0,1-1.31,1.78,3.66,3.66,0,0,1-3,.42,2.92,2.92,0,0,1-.94-.45,2.24,2.24,0,0,1-.68-.78,2.34,2.34,0,0,1-.25-1.12,2.25,2.25,0,0,1,.48-1.5,3.21,3.21,0,0,1,1.21-.89A5.55,5.55,0,0,1,254,229a14.29,14.29,0,0,1,1.52-.09H257v-.7a2.68,2.68,0,0,0-.77-2.14,3,3,0,0,0-2-.67,3.67,3.67,0,0,0-1.45.28,4.34,4.34,0,0,0-1.21.76l-.22-.32a4,4,0,0,1,1.37-.81,4.61,4.61,0,0,1,1.51-.28,3.47,3.47,0,0,1,2.37.77,3.12,3.12,0,0,1,.86,2.43Zm-.42-2.79H255.7a13.44,13.44,0,0,0-1.52.09,5.19,5.19,0,0,0-1.47.35,2.86,2.86,0,0,0-1.09.76,2,2,0,0,0-.43,1.33,2,2,0,0,0,.24,1,1.85,1.85,0,0,0,.61.66,2.88,2.88,0,0,0,.82.36,3.45,3.45,0,0,0,2.46-.25,3,3,0,0,0,1-.92,3.4,3.4,0,0,0,.54-1.23,6.07,6.07,0,0,0,.15-1.32Z"/><path class="cls-1" d="M261.68,227.63a4.19,4.19,0,0,1,3.93-2.64,4.31,4.31,0,0,1,1.77.36,4.08,4.08,0,0,1,1.38,1,4.34,4.34,0,0,1,.89,1.48,5.34,5.34,0,0,1,.31,1.86,5,5,0,0,1-.32,1.83,4.31,4.31,0,0,1-.9,1.47,4,4,0,0,1-1.38,1,4.37,4.37,0,0,1-3,.18,4.11,4.11,0,0,1-1.11-.5,4.22,4.22,0,0,1-.93-.82,3.91,3.91,0,0,1-.66-1.13h-.06V234h-.43V219.64h.43v8Zm7.87,2a4.75,4.75,0,0,0-.28-1.64,4.16,4.16,0,0,0-.78-1.36,3.75,3.75,0,0,0-1.25-.94,3.62,3.62,0,0,0-1.64-.35,3.7,3.7,0,0,0-1.6.34,3.94,3.94,0,0,0-1.26.92,4.25,4.25,0,0,0-.83,1.36,4.69,4.69,0,0,0,0,3.3,4.36,4.36,0,0,0,.83,1.36,4.09,4.09,0,0,0,1.26.92,3.71,3.71,0,0,0,1.6.35,3.76,3.76,0,0,0,1.64-.35,3.83,3.83,0,0,0,1.25-.92,4.06,4.06,0,0,0,.78-1.36A4.69,4.69,0,0,0,269.55,229.65Z"/><path class="cls-1" d="M273.08,234V219.64h.42V234Z"/><path class="cls-1" d="M277,229.54a5.3,5.3,0,0,0,.24,1.57,4.33,4.33,0,0,0,.72,1.4,3.63,3.63,0,0,0,3,1.38,4,4,0,0,0,1.82-.41,4.12,4.12,0,0,0,1.39-1.19l.3.27a4.44,4.44,0,0,1-1.51,1.27,4.4,4.4,0,0,1-2,.44,4.27,4.27,0,0,1-3.15-1.33,4.44,4.44,0,0,1-.89-1.51,5.51,5.51,0,0,1-.31-1.89,5,5,0,0,1,.32-1.83,4.35,4.35,0,0,1,.88-1.44,3.88,3.88,0,0,1,1.33-.94,4.08,4.08,0,0,1,1.64-.34,4,4,0,0,1,1.79.37,3.75,3.75,0,0,1,1.26.94,3.86,3.86,0,0,1,.75,1.34,4.76,4.76,0,0,1,.25,1.53v.37Zm7.39-.37a4.45,4.45,0,0,0-.29-1.55,3.64,3.64,0,0,0-.75-1.21,3.22,3.22,0,0,0-1.14-.78,3.94,3.94,0,0,0-1.48-.27,3.33,3.33,0,0,0-1.69.4,3.77,3.77,0,0,0-1.15,1,4.31,4.31,0,0,0-.66,1.25,3.86,3.86,0,0,0-.21,1.15Z"/><g class="cls-26"><rect class="cls-27" width="300" height="250"/></g></g></g></svg>