<?xml version="1.0" encoding="utf-8"?>
<!-- Generator: Adobe Illustrator 21.1.0, SVG Export Plug-In . SVG Version: 6.00 Build 0)  -->
<svg version="1.1" id="Layer_1" xmlns="http://www.w3.org/2000/svg" xmlns:xlink="http://www.w3.org/1999/xlink" x="0px" y="0px"
	 viewBox="0 0 15.5 15.5" style="enable-background:new 0 0 15.5 15.5;" xml:space="preserve">
<style type="text/css">
	.st0{fill:#D6D6D6;fill-opacity:0;}
	.st1{fill:#FFFFFF;}
	.st2{fill:none;stroke:#FFFFFF;stroke-width:1.5;stroke-linejoin:round;}
</style>
<g transform="matrix(1, 0, 0, 1, 7.75, 7.25)">
	<path class="st0" d="M5.4-5C7-3.5,7.8-1.6,7.8,0.5S7,4.5,5.4,5.9C4,7.5,2.1,8.2,0,8.2s-4-0.8-5.5-2.3C-7,4.5-7.8,2.6-7.8,0.5
		S-7-3.5-5.5-5C-4-6.5-2.1-7.2,0-7.2S4-6.5,5.4-5"/>
	<path class="st1" d="M4.8-1.7L2.7-0.6l0.8-3.5l3.5,1.3L4.8-1.7"/>
	<path class="st2" d="M4.8-1.7C5.1-1,5.3-0.2,5.3,0.6c0,1.4-0.5,2.7-1.6,3.7c-1,1-2.3,1.5-3.7,1.5c-1.5,0-2.7-0.5-3.8-1.5
		c-1-1-1.5-2.3-1.5-3.7c0-1.5,0.5-2.7,1.5-3.8c1-1,2.3-1.5,3.8-1.5"/>
</g>
</svg>
