<svg xmlns="http://www.w3.org/2000/svg" xmlns:xlink="http://www.w3.org/1999/xlink" viewBox="0 0 300 250"><defs><style>.cls-1,.cls-10,.cls-11,.cls-12,.cls-2,.cls-3,.cls-4,.cls-5,.cls-6,.cls-7,.cls-8,.cls-9{fill:#dce9b8;}.cls-2{clip-path:url(#clip-path);}.cls-3{clip-path:url(#clip-path-2);}.cls-4{clip-path:url(#clip-path-11);}.cls-5{clip-path:url(#clip-path-3);}.cls-6{clip-path:url(#clip-path-4);}.cls-7{clip-path:url(#clip-path-5);}.cls-8{clip-path:url(#clip-path-6);}.cls-9{clip-path:url(#clip-path-7);}.cls-10{clip-path:url(#clip-path-8);}.cls-11{clip-path:url(#clip-path-9);}.cls-12{clip-path:url(#clip-path-10);}.cls-13{clip-path:url(#clip-path-12);}</style><clipPath id="clip-path"><path class="cls-1" d="M78.67,134.9l1.28-.77c.9,1.66,2,2.49,3.13,2.49a3,3,0,0,0,1.42-.35,2.54,2.54,0,0,0,1-1,2.42,2.42,0,0,0-.17-2.75,12.14,12.14,0,0,0-2.58-2.42,13.42,13.42,0,0,1-2.35-2.06,3.79,3.79,0,0,1-.8-2.31,3.52,3.52,0,0,1,.47-1.79,3.41,3.41,0,0,1,1.33-1.28,3.83,3.83,0,0,1,1.86-.47,4,4,0,0,1,2,.53,6.81,6.81,0,0,1,2,1.94l-1.23.94a6,6,0,0,0-1.45-1.49,2.51,2.51,0,0,0-1.31-.36,2.07,2.07,0,0,0-1.49.56,1.79,1.79,0,0,0-.58,1.36,2.23,2.23,0,0,0,.21,1,3.23,3.23,0,0,0,.75,1c.19.19.84.69,1.94,1.51a11,11,0,0,1,2.69,2.57A4.12,4.12,0,0,1,87.5,134a3.86,3.86,0,0,1-1.25,2.85,4.21,4.21,0,0,1-3,1.21,4.46,4.46,0,0,1-2.49-.74A6.64,6.64,0,0,1,78.67,134.9Z"/></clipPath><clipPath id="clip-path-2"><path class="cls-4" d="M190.5,126.55h1.43v2a6.13,6.13,0,0,1,1.91-1.72,4.7,4.7,0,0,1,2.28-.57,4,4,0,0,1,2.22.64,3.8,3.8,0,0,1,1.43,1.71,9,9,0,0,1,.46,3.35v5.75h-1.44v-5.33a12.81,12.81,0,0,0-.16-2.57,2.77,2.77,0,0,0-.95-1.66,2.85,2.85,0,0,0-1.85-.56,3.5,3.5,0,0,0-2.33.86,4,4,0,0,0-1.36,2.13,14.52,14.52,0,0,0-.21,3v4.09H190.5Z"/></clipPath><clipPath id="clip-path-3"><path class="cls-3" d="M212.92,126.55h1.44v8.89a10.63,10.63,0,0,1-.41,3.44,4.47,4.47,0,0,1-2,2.36,6.38,6.38,0,0,1-3.35.84,7.67,7.67,0,0,1-2.58-.41,5.12,5.12,0,0,1-1.86-1.09,6.6,6.6,0,0,1-1.33-2h1.56a4.13,4.13,0,0,0,1.65,1.64,5.33,5.33,0,0,0,2.49.53,5.2,5.2,0,0,0,2.48-.54,3.44,3.44,0,0,0,1.44-1.38,6.07,6.07,0,0,0,.43-2.67v-.58a5.42,5.42,0,0,1-2,1.58,5.86,5.86,0,0,1-5.38-.22,5.42,5.42,0,0,1-2.09-2.05,5.65,5.65,0,0,1-.74-2.84,5.71,5.71,0,0,1,.77-2.89,5.84,5.84,0,0,1,5-2.9,5.41,5.41,0,0,1,2.33.52,6.47,6.47,0,0,1,2.09,1.71Zm-4.23,1.1a4.5,4.5,0,0,0-2.27.59,4.28,4.28,0,0,0-1.64,1.63,4.5,4.5,0,0,0-.59,2.25,4.05,4.05,0,0,0,1.23,3,4.37,4.37,0,0,0,3.19,1.2,4.29,4.29,0,0,0,3.18-1.19A4.2,4.2,0,0,0,213,132a4.52,4.52,0,0,0-.56-2.25,4.08,4.08,0,0,0-1.57-1.57A4.35,4.35,0,0,0,208.69,127.65Z"/></clipPath><clipPath id="clip-path-4"><path class="cls-2" d="M91.7,122.41h1.44v4.14h2.27v1.24H93.14v9.92H91.7v-9.92h-2v-1.24h2Z"/></clipPath><clipPath id="clip-path-5"><path class="cls-6" d="M108.68,126.55v11.16h-1.41v-1.92a6.16,6.16,0,0,1-2,1.65,5.68,5.68,0,0,1-6.5-1.16,5.77,5.77,0,0,1-1.68-4.18,5.64,5.64,0,0,1,1.7-4.12,5.47,5.47,0,0,1,4.07-1.72,5.25,5.25,0,0,1,2.48.59,5.58,5.58,0,0,1,2,1.75v-2Zm-5.74,1.1a4.28,4.28,0,0,0-2.21.59,4.33,4.33,0,0,0-1.61,1.65,4.52,4.52,0,0,0-.6,2.25,4.58,4.58,0,0,0,.6,2.26,4.51,4.51,0,0,0,1.63,1.67,4.25,4.25,0,0,0,2.19.6,4.56,4.56,0,0,0,2.23-.59,4.18,4.18,0,0,0,1.62-1.61,4.59,4.59,0,0,0,.57-2.28,4.44,4.44,0,0,0-1.28-3.24A4.2,4.2,0,0,0,102.94,127.65Z"/></clipPath><clipPath id="clip-path-6"><path class="cls-7" d="M110.71,126.55h1.52l3.83,8.59,3.73-8.59h1.52l-6.65,15.24h-1.52l2.15-4.93Z"/></clipPath><clipPath id="clip-path-7"><path class="cls-8" d="M140.1,126.55v11.16h-1.41v-1.92a6.27,6.27,0,0,1-2,1.65,5.68,5.68,0,0,1-6.5-1.16,5.77,5.77,0,0,1-1.68-4.18,5.67,5.67,0,0,1,1.69-4.12,5.51,5.51,0,0,1,4.08-1.72,5.25,5.25,0,0,1,2.48.59,5.76,5.76,0,0,1,2,1.75v-2Zm-5.74,1.1a4.26,4.26,0,0,0-2.21.59,4.33,4.33,0,0,0-1.61,1.65,4.52,4.52,0,0,0-.6,2.25,4.58,4.58,0,0,0,.6,2.26,4.51,4.51,0,0,0,1.63,1.67,4.21,4.21,0,0,0,2.18.6,4.57,4.57,0,0,0,2.24-.59,4.18,4.18,0,0,0,1.62-1.61,4.59,4.59,0,0,0,.57-2.28A4.44,4.44,0,0,0,137.5,129,4.2,4.2,0,0,0,134.36,127.65Z"/></clipPath><clipPath id="clip-path-8"><path class="cls-9" d="M143.32,126.55h1.44v1.93a5.57,5.57,0,0,1,1.54-1.56,4.3,4.3,0,0,1,2.28-.66,3.79,3.79,0,0,1,1.54.32,3.22,3.22,0,0,1,1.19.85,4.5,4.5,0,0,1,.81,1.51,5.2,5.2,0,0,1,1.79-2,4.17,4.17,0,0,1,2.31-.69,3.62,3.62,0,0,1,2,.59,3.43,3.43,0,0,1,1.31,1.63,8.62,8.62,0,0,1,.43,3.14v6.09h-1.46v-6.09a8,8,0,0,0-.26-2.47,2.19,2.19,0,0,0-.87-1.08,2.57,2.57,0,0,0-1.48-.41,3.24,3.24,0,0,0-1.91.61,3.62,3.62,0,0,0-1.26,1.64,10.61,10.61,0,0,0-.4,3.43v4.37h-1.43V132a10.15,10.15,0,0,0-.25-2.75,2.31,2.31,0,0,0-.88-1.16,2.54,2.54,0,0,0-1.49-.43,3.22,3.22,0,0,0-1.86.6,3.58,3.58,0,0,0-1.28,1.61,8.7,8.7,0,0,0-.41,3.11v4.73h-1.44Z"/></clipPath><clipPath id="clip-path-9"><path class="cls-10" d="M174.14,126.55v11.16h-1.41v-1.92a6.16,6.16,0,0,1-2,1.65,5.68,5.68,0,0,1-6.5-1.16,5.76,5.76,0,0,1-1.67-4.18,5.63,5.63,0,0,1,1.69-4.12,5.49,5.49,0,0,1,4.07-1.72,5.25,5.25,0,0,1,2.48.59,5.58,5.58,0,0,1,2,1.75v-2Zm-5.73,1.1a4.33,4.33,0,0,0-3.83,2.24,4.51,4.51,0,0,0,0,4.51,4.41,4.41,0,0,0,1.62,1.67,4.25,4.25,0,0,0,2.19.6,4.54,4.54,0,0,0,2.23-.59,4.18,4.18,0,0,0,1.62-1.61,4.59,4.59,0,0,0,.57-2.28,4.47,4.47,0,0,0-1.27-3.24A4.23,4.23,0,0,0,168.41,127.65Z"/></clipPath><clipPath id="clip-path-10"><path class="cls-11" d="M176.46,126.55h8.19l-6.31,9.89h6.11v1.27h-8.58l6.31-9.9h-5.72Z"/></clipPath><clipPath id="clip-path-11"><path class="cls-12" d="M186.79,122a1.11,1.11,0,0,1,.84.35A1.18,1.18,0,1,1,186,124a1.2,1.2,0,0,1,0-1.67A1.12,1.12,0,0,1,186.79,122Zm-.71,4.59h1.43v11.16h-1.43Z"/></clipPath><clipPath id="clip-path-12"><path class="cls-5" d="M219,135.45a1.22,1.22,0,0,1,.9.37,1.28,1.28,0,0,1,0,1.8,1.27,1.27,0,0,1-1.79,0,1.28,1.28,0,0,1,0-1.8A1.22,1.22,0,0,1,219,135.45Z"/></clipPath></defs><title>text4</title><g id="Layer_2" data-name="Layer 2"><g id="Layer_1-2" data-name="Layer 1"><path class="cls-1" d="M78.67,134.9l1.28-.77c.9,1.66,2,2.49,3.13,2.49a3,3,0,0,0,1.42-.35,2.54,2.54,0,0,0,1-1,2.42,2.42,0,0,0-.17-2.75,12.14,12.14,0,0,0-2.58-2.42,13.42,13.42,0,0,1-2.35-2.06,3.79,3.79,0,0,1-.8-2.31,3.52,3.52,0,0,1,.47-1.79,3.41,3.41,0,0,1,1.33-1.28,3.83,3.83,0,0,1,1.86-.47,4,4,0,0,1,2,.53,6.81,6.81,0,0,1,2,1.94l-1.23.94a6,6,0,0,0-1.45-1.49,2.51,2.51,0,0,0-1.31-.36,2.07,2.07,0,0,0-1.49.56,1.79,1.79,0,0,0-.58,1.36,2.23,2.23,0,0,0,.21,1,3.23,3.23,0,0,0,.75,1c.19.19.84.69,1.94,1.51a11,11,0,0,1,2.69,2.57A4.12,4.12,0,0,1,87.5,134a3.86,3.86,0,0,1-1.25,2.85,4.21,4.21,0,0,1-3,1.21,4.46,4.46,0,0,1-2.49-.74A6.64,6.64,0,0,1,78.67,134.9Z"/><path class="cls-1" d="M91.7,122.41h1.44v4.14h2.27v1.24H93.14v9.92H91.7v-9.92h-2v-1.24h2Z"/><path class="cls-1" d="M108.68,126.55v11.16h-1.41v-1.92a6.16,6.16,0,0,1-2,1.65,5.68,5.68,0,0,1-6.5-1.16,5.77,5.77,0,0,1-1.68-4.18,5.64,5.64,0,0,1,1.7-4.12,5.47,5.47,0,0,1,4.07-1.72,5.25,5.25,0,0,1,2.48.59,5.58,5.58,0,0,1,2,1.75v-2Zm-5.74,1.1a4.28,4.28,0,0,0-2.21.59,4.33,4.33,0,0,0-1.61,1.65,4.52,4.52,0,0,0-.6,2.25,4.58,4.58,0,0,0,.6,2.26,4.51,4.51,0,0,0,1.63,1.67,4.25,4.25,0,0,0,2.19.6,4.56,4.56,0,0,0,2.23-.59,4.18,4.18,0,0,0,1.62-1.61,4.59,4.59,0,0,0,.57-2.28,4.44,4.44,0,0,0-1.28-3.24A4.2,4.2,0,0,0,102.94,127.65Z"/><path class="cls-1" d="M110.71,126.55h1.52l3.83,8.59,3.73-8.59h1.52l-6.65,15.24h-1.52l2.15-4.93Z"/><path class="cls-1" d="M140.1,126.55v11.16h-1.41v-1.92a6.27,6.27,0,0,1-2,1.65,5.68,5.68,0,0,1-6.5-1.16,5.77,5.77,0,0,1-1.68-4.18,5.67,5.67,0,0,1,1.69-4.12,5.51,5.51,0,0,1,4.08-1.72,5.25,5.25,0,0,1,2.48.59,5.76,5.76,0,0,1,2,1.75v-2Zm-5.74,1.1a4.26,4.26,0,0,0-2.21.59,4.33,4.33,0,0,0-1.61,1.65,4.52,4.52,0,0,0-.6,2.25,4.58,4.58,0,0,0,.6,2.26,4.51,4.51,0,0,0,1.63,1.67,4.21,4.21,0,0,0,2.18.6,4.57,4.57,0,0,0,2.24-.59,4.18,4.18,0,0,0,1.62-1.61,4.59,4.59,0,0,0,.57-2.28A4.44,4.44,0,0,0,137.5,129,4.2,4.2,0,0,0,134.36,127.65Z"/><path class="cls-1" d="M143.32,126.55h1.44v1.93a5.57,5.57,0,0,1,1.54-1.56,4.3,4.3,0,0,1,2.28-.66,3.79,3.79,0,0,1,1.54.32,3.22,3.22,0,0,1,1.19.85,4.5,4.5,0,0,1,.81,1.51,5.2,5.2,0,0,1,1.79-2,4.17,4.17,0,0,1,2.31-.69,3.62,3.62,0,0,1,2,.59,3.43,3.43,0,0,1,1.31,1.63,8.62,8.62,0,0,1,.43,3.14v6.09h-1.46v-6.09a8,8,0,0,0-.26-2.47,2.19,2.19,0,0,0-.87-1.08,2.57,2.57,0,0,0-1.48-.41,3.24,3.24,0,0,0-1.91.61,3.62,3.62,0,0,0-1.26,1.64,10.61,10.61,0,0,0-.4,3.43v4.37h-1.43V132a10.15,10.15,0,0,0-.25-2.75,2.31,2.31,0,0,0-.88-1.16,2.54,2.54,0,0,0-1.49-.43,3.22,3.22,0,0,0-1.86.6,3.58,3.58,0,0,0-1.28,1.61,8.7,8.7,0,0,0-.41,3.11v4.73h-1.44Z"/><path class="cls-1" d="M174.14,126.55v11.16h-1.41v-1.92a6.16,6.16,0,0,1-2,1.65,5.68,5.68,0,0,1-6.5-1.16,5.76,5.76,0,0,1-1.67-4.18,5.63,5.63,0,0,1,1.69-4.12,5.49,5.49,0,0,1,4.07-1.72,5.25,5.25,0,0,1,2.48.59,5.58,5.58,0,0,1,2,1.75v-2Zm-5.73,1.1a4.33,4.33,0,0,0-3.83,2.24,4.51,4.51,0,0,0,0,4.51,4.41,4.41,0,0,0,1.62,1.67,4.25,4.25,0,0,0,2.19.6,4.54,4.54,0,0,0,2.23-.59,4.18,4.18,0,0,0,1.62-1.61,4.59,4.59,0,0,0,.57-2.28,4.47,4.47,0,0,0-1.27-3.24A4.23,4.23,0,0,0,168.41,127.65Z"/><path class="cls-1" d="M176.46,126.55h8.19l-6.31,9.89h6.11v1.27h-8.58l6.31-9.9h-5.72Z"/><path class="cls-1" d="M186.79,122a1.11,1.11,0,0,1,.84.35A1.18,1.18,0,1,1,186,124a1.2,1.2,0,0,1,0-1.67A1.12,1.12,0,0,1,186.79,122Zm-.71,4.59h1.43v11.16h-1.43Z"/><path class="cls-1" d="M190.5,126.55h1.43v2a6.13,6.13,0,0,1,1.91-1.72,4.7,4.7,0,0,1,2.28-.57,4,4,0,0,1,2.22.64,3.8,3.8,0,0,1,1.43,1.71,9,9,0,0,1,.46,3.35v5.75h-1.44v-5.33a12.81,12.81,0,0,0-.16-2.57,2.77,2.77,0,0,0-.95-1.66,2.85,2.85,0,0,0-1.85-.56,3.5,3.5,0,0,0-2.33.86,4,4,0,0,0-1.36,2.13,14.52,14.52,0,0,0-.21,3v4.09H190.5Z"/><path class="cls-1" d="M212.92,126.55h1.44v8.89a10.63,10.63,0,0,1-.41,3.44,4.47,4.47,0,0,1-2,2.36,6.38,6.38,0,0,1-3.35.84,7.67,7.67,0,0,1-2.58-.41,5.12,5.12,0,0,1-1.86-1.09,6.6,6.6,0,0,1-1.33-2h1.56a4.13,4.13,0,0,0,1.65,1.64,5.33,5.33,0,0,0,2.49.53,5.2,5.2,0,0,0,2.48-.54,3.44,3.44,0,0,0,1.44-1.38,6.07,6.07,0,0,0,.43-2.67v-.58a5.42,5.42,0,0,1-2,1.58,5.86,5.86,0,0,1-5.38-.22,5.42,5.42,0,0,1-2.09-2.05,5.65,5.65,0,0,1-.74-2.84,5.71,5.71,0,0,1,.77-2.89,5.84,5.84,0,0,1,5-2.9,5.41,5.41,0,0,1,2.33.52,6.47,6.47,0,0,1,2.09,1.71Zm-4.23,1.1a4.5,4.5,0,0,0-2.27.59,4.28,4.28,0,0,0-1.64,1.63,4.5,4.5,0,0,0-.59,2.25,4.05,4.05,0,0,0,1.23,3,4.37,4.37,0,0,0,3.19,1.2,4.29,4.29,0,0,0,3.18-1.19A4.2,4.2,0,0,0,213,132a4.52,4.52,0,0,0-.56-2.25,4.08,4.08,0,0,0-1.57-1.57A4.35,4.35,0,0,0,208.69,127.65Z"/><path class="cls-1" d="M219,135.45a1.22,1.22,0,0,1,.9.37,1.28,1.28,0,0,1,0,1.8,1.27,1.27,0,0,1-1.79,0,1.28,1.28,0,0,1,0-1.8A1.22,1.22,0,0,1,219,135.45Z"/><g class="cls-13"><rect class="cls-1" width="300" height="250"/></g></g></g></svg>