<svg xmlns="http://www.w3.org/2000/svg" xmlns:xlink="http://www.w3.org/1999/xlink" viewBox="0 0 300 250"><defs><style>.cls-1,.cls-10,.cls-11,.cls-12,.cls-13,.cls-14,.cls-15,.cls-16,.cls-17,.cls-18,.cls-19,.cls-2,.cls-20,.cls-21,.cls-22,.cls-23,.cls-24,.cls-25,.cls-26,.cls-27,.cls-28,.cls-29,.cls-3,.cls-4,.cls-5,.cls-6,.cls-7,.cls-8,.cls-9{fill:#fff;}.cls-2{clip-path:url(#clip-path);}.cls-3{clip-path:url(#clip-path-2);}.cls-4{clip-path:url(#clip-path-28);}.cls-5{clip-path:url(#clip-path-3);}.cls-6{clip-path:url(#clip-path-4);}.cls-7{clip-path:url(#clip-path-5);}.cls-8{clip-path:url(#clip-path-6);}.cls-9{clip-path:url(#clip-path-7);}.cls-10{clip-path:url(#clip-path-8);}.cls-11{clip-path:url(#clip-path-9);}.cls-12{clip-path:url(#clip-path-10);}.cls-13{clip-path:url(#clip-path-11);}.cls-14{clip-path:url(#clip-path-12);}.cls-15{clip-path:url(#clip-path-13);}.cls-16{clip-path:url(#clip-path-14);}.cls-17{clip-path:url(#clip-path-15);}.cls-18{clip-path:url(#clip-path-16);}.cls-19{clip-path:url(#clip-path-17);}.cls-20{clip-path:url(#clip-path-18);}.cls-21{clip-path:url(#clip-path-19);}.cls-22{clip-path:url(#clip-path-20);}.cls-23{clip-path:url(#clip-path-21);}.cls-24{clip-path:url(#clip-path-22);}.cls-25{clip-path:url(#clip-path-23);}.cls-26{clip-path:url(#clip-path-24);}.cls-27{clip-path:url(#clip-path-25);}.cls-28{clip-path:url(#clip-path-26);}.cls-29{clip-path:url(#clip-path-27);}.cls-30{clip-path:url(#clip-path-29);}</style><clipPath id="clip-path"><path class="cls-1" d="M44.52,219.33h1.09v4.8a4.53,4.53,0,0,1,1.46-1.3,3.56,3.56,0,0,1,1.73-.44,3,3,0,0,1,1.69.49,2.89,2.89,0,0,1,1.09,1.3,7,7,0,0,1,.35,2.56v4.37H50.84v-4.05a10.25,10.25,0,0,0-.12-2,2.2,2.2,0,0,0-.74-1.26,2.15,2.15,0,0,0-1.4-.43,2.69,2.69,0,0,0-1.78.66,3,3,0,0,0-1,1.62,10.77,10.77,0,0,0-.16,2.31v3.12H44.52Z"/></clipPath><clipPath id="clip-path-2"><path class="cls-4" d="M118,219.33h1.1v11.78H118Z"/></clipPath><clipPath id="clip-path-3"><path class="cls-3" d="M121.16,219.33h1.1v11.78h-1.1Z"/></clipPath><clipPath id="clip-path-4"><path class="cls-5" d="M133,222.61v8.5h-1.08v-1.46a4.66,4.66,0,0,1-1.54,1.26,4.31,4.31,0,0,1-4.95-.89,4.34,4.34,0,0,1-1.28-3.18,4.3,4.3,0,0,1,1.29-3.14,4.2,4.2,0,0,1,3.1-1.31,3.94,3.94,0,0,1,1.89.45,4.25,4.25,0,0,1,1.49,1.33v-1.56Zm-4.37.84a3.32,3.32,0,0,0-1.69.45,3.15,3.15,0,0,0-1.22,1.26,3.38,3.38,0,0,0-.46,1.71,3.44,3.44,0,0,0,.46,1.72,3.36,3.36,0,0,0,1.24,1.27,3.15,3.15,0,0,0,1.66.46,3.41,3.41,0,0,0,1.7-.45,3.12,3.12,0,0,0,1.24-1.23,3.45,3.45,0,0,0,.43-1.74,3.36,3.36,0,0,0-1-2.46A3.21,3.21,0,0,0,128.63,223.45Z"/></clipPath><clipPath id="clip-path-5"><path class="cls-6" d="M139.73,223.54l-.7.73a2.51,2.51,0,0,0-1.71-.86,1.3,1.3,0,0,0-.92.36,1.08,1.08,0,0,0-.38.82,1.23,1.23,0,0,0,.32.79,4.39,4.39,0,0,0,1.31.89,4.94,4.94,0,0,1,1.66,1.22,2.21,2.21,0,0,1,.43,1.34,2.38,2.38,0,0,1-.73,1.77,2.5,2.5,0,0,1-1.84.73,3.3,3.3,0,0,1-1.41-.32,3.18,3.18,0,0,1-1.1-.88l.68-.79a2.42,2.42,0,0,0,1.78.95,1.61,1.61,0,0,0,1.12-.42,1.31,1.31,0,0,0,.16-1.83,5.23,5.23,0,0,0-1.38-.91,4.32,4.32,0,0,1-1.57-1.17,2.22,2.22,0,0,1-.41-1.32,2.16,2.16,0,0,1,.66-1.61,2.33,2.33,0,0,1,1.67-.64A3.44,3.44,0,0,1,139.73,223.54Z"/></clipPath><clipPath id="clip-path-6"><path class="cls-7" d="M154.57,222.61v8.5h-1.08v-1.46a4.66,4.66,0,0,1-1.54,1.26A4.31,4.31,0,0,1,147,230a4.34,4.34,0,0,1-1.28-3.18A4.3,4.3,0,0,1,147,223.7a4.2,4.2,0,0,1,3.1-1.31,3.94,3.94,0,0,1,1.89.45,4.25,4.25,0,0,1,1.49,1.33v-1.56Zm-4.37.84a3.32,3.32,0,0,0-1.69.45,3.15,3.15,0,0,0-1.22,1.26,3.38,3.38,0,0,0-.46,1.71,3.44,3.44,0,0,0,.46,1.72,3.36,3.36,0,0,0,1.24,1.27,3.15,3.15,0,0,0,1.66.46,3.41,3.41,0,0,0,1.7-.45,3.12,3.12,0,0,0,1.24-1.23,3.45,3.45,0,0,0,.43-1.74,3.36,3.36,0,0,0-1-2.46A3.21,3.21,0,0,0,150.2,223.45Z"/></clipPath><clipPath id="clip-path-7"><path class="cls-8" d="M157,222.61h1.1v1.52a4.4,4.4,0,0,1,1.45-1.3,3.56,3.56,0,0,1,1.73-.44,2.94,2.94,0,0,1,1.69.49,2.77,2.77,0,0,1,1.09,1.3,6.78,6.78,0,0,1,.36,2.56v4.37h-1.1v-4.05a10.25,10.25,0,0,0-.12-2,2.14,2.14,0,0,0-.73-1.26,2.18,2.18,0,0,0-1.41-.43,2.67,2.67,0,0,0-1.77.66,3,3,0,0,0-1,1.62,11.72,11.72,0,0,0-.15,2.31v3.12H157Z"/></clipPath><clipPath id="clip-path-8"><path class="cls-9" d="M175.27,219.33v11.78H174.2v-1.46a4.69,4.69,0,0,1-1.55,1.26,4.31,4.31,0,0,1-5-.89,4.38,4.38,0,0,1-1.28-3.18,4.3,4.3,0,0,1,1.29-3.14,4.2,4.2,0,0,1,3.1-1.31,4,4,0,0,1,1.9.45,4.34,4.34,0,0,1,1.49,1.33v-4.84Zm-4.37,4.12a3.25,3.25,0,0,0-1.68.45,3.11,3.11,0,0,0-1.23,1.26,3.38,3.38,0,0,0-.46,1.71,3.55,3.55,0,0,0,.46,1.72,3.36,3.36,0,0,0,1.24,1.27,3.18,3.18,0,0,0,1.66.46,3.47,3.47,0,0,0,1.71-.45,3.16,3.16,0,0,0,1.23-1.23,3.46,3.46,0,0,0,.44-1.74,3.37,3.37,0,0,0-1-2.46A3.2,3.2,0,0,0,170.9,223.45Z"/></clipPath><clipPath id="clip-path-9"><path class="cls-10" d="M190.65,222.61v8.5h-1.08v-1.46a4.66,4.66,0,0,1-1.54,1.26,4.32,4.32,0,0,1-5-.89,4.38,4.38,0,0,1-1.27-3.18,4.3,4.3,0,0,1,1.29-3.14,4.2,4.2,0,0,1,3.1-1.31,3.94,3.94,0,0,1,1.89.45,4.25,4.25,0,0,1,1.49,1.33v-1.56Zm-4.37.84a3.32,3.32,0,0,0-1.69.45,3.24,3.24,0,0,0-1.23,1.26,3.46,3.46,0,0,0,0,3.43,3.34,3.34,0,0,0,1.23,1.27,3.21,3.21,0,0,0,1.67.46,3.41,3.41,0,0,0,1.7-.45,3.12,3.12,0,0,0,1.24-1.23,3.45,3.45,0,0,0,.43-1.74,3.36,3.36,0,0,0-1-2.46A3.21,3.21,0,0,0,186.28,223.45Z"/></clipPath><clipPath id="clip-path-10"><path class="cls-11" d="M193.13,222.61h1.09v1.56a4.34,4.34,0,0,1,1.49-1.33,3.93,3.93,0,0,1,1.88-.45,4.2,4.2,0,0,1,3.1,1.31,4.3,4.3,0,0,1,1.29,3.14A4.38,4.38,0,0,1,200.7,230a4.29,4.29,0,0,1-4.94.89,4.66,4.66,0,0,1-1.54-1.26v4.57h-1.09Zm4.37.84a3.23,3.23,0,0,0-2.39,1,3.36,3.36,0,0,0-1,2.46,3.56,3.56,0,0,0,.43,1.74,3.12,3.12,0,0,0,1.24,1.23,3.47,3.47,0,0,0,1.71.45,3.17,3.17,0,0,0,1.65-.46,3.36,3.36,0,0,0,1.24-1.27,3.55,3.55,0,0,0,.46-1.72,3.38,3.38,0,0,0-.46-1.71,3.11,3.11,0,0,0-1.23-1.26A3.25,3.25,0,0,0,197.5,223.45Z"/></clipPath><clipPath id="clip-path-11"><path class="cls-12" d="M212.49,222.61v8.5h-1.08v-1.46a4.56,4.56,0,0,1-1.54,1.26,4.31,4.31,0,0,1-5-.89,4.38,4.38,0,0,1-1.28-3.18,4.3,4.3,0,0,1,1.29-3.14,4.2,4.2,0,0,1,3.1-1.31,4,4,0,0,1,1.9.45,4.22,4.22,0,0,1,1.48,1.33v-1.56Zm-4.37.84a3.25,3.25,0,0,0-1.68.45,3.11,3.11,0,0,0-1.23,1.26,3.38,3.38,0,0,0-.46,1.71,3.44,3.44,0,0,0,.46,1.72,3.36,3.36,0,0,0,1.24,1.27,3.18,3.18,0,0,0,1.66.46,3.41,3.41,0,0,0,1.7-.45,3.12,3.12,0,0,0,1.24-1.23,3.45,3.45,0,0,0,.43-1.74,3.36,3.36,0,0,0-1-2.46A3.2,3.2,0,0,0,208.12,223.45Z"/></clipPath><clipPath id="clip-path-12"><path class="cls-2" d="M58.3,222.39a4.22,4.22,0,0,1,3.25,1.42,4.41,4.41,0,0,1,1.18,3.07A4.47,4.47,0,0,1,61.49,230a4.5,4.5,0,0,1-6.39,0,4.57,4.57,0,0,1-.07-6.18A4.22,4.22,0,0,1,58.3,222.39Zm0,1.07a3.15,3.15,0,0,0-2.34,1,3.37,3.37,0,0,0-1,2.44,3.48,3.48,0,0,0,.45,1.72,3.16,3.16,0,0,0,1.2,1.23,3.33,3.33,0,0,0,1.67.43,3.27,3.27,0,0,0,1.67-.43,3.18,3.18,0,0,0,1.21-1.23,3.48,3.48,0,0,0,.45-1.72,3.34,3.34,0,0,0-1-2.44A3.15,3.15,0,0,0,58.29,223.46Z"/></clipPath><clipPath id="clip-path-13"><path class="cls-13" d="M214.54,222.61h1.12v1.24a4,4,0,0,1,1.05-1.1,2.11,2.11,0,0,1,1.16-.36,2.06,2.06,0,0,1,1,.29l-.57.92a1.55,1.55,0,0,0-.58-.15,1.58,1.58,0,0,0-1.06.45,2.87,2.87,0,0,0-.77,1.4,13.11,13.11,0,0,0-.2,2.94v2.87h-1.12Z"/></clipPath><clipPath id="clip-path-14"><path class="cls-15" d="M220.72,219.45h1.09v3.16h1.74v.95h-1.74v7.55h-1.09v-7.55h-1.49v-.95h1.49Z"/></clipPath><clipPath id="clip-path-15"><path class="cls-16" d="M225.18,222.61h1.09v1.47a4.3,4.3,0,0,1,1.18-1.19,3.34,3.34,0,0,1,1.74-.5,2.92,2.92,0,0,1,1.17.24,2.47,2.47,0,0,1,.91.65,3.33,3.33,0,0,1,.61,1.15,4.07,4.07,0,0,1,1.37-1.52,3.18,3.18,0,0,1,1.76-.52,2.74,2.74,0,0,1,1.55.45,2.57,2.57,0,0,1,1,1.24,6.58,6.58,0,0,1,.33,2.39v4.64h-1.12v-4.64a6.11,6.11,0,0,0-.19-1.88,1.63,1.63,0,0,0-.67-.82,2,2,0,0,0-1.12-.32,2.44,2.44,0,0,0-1.45.47,2.8,2.8,0,0,0-1,1.25,8,8,0,0,0-.3,2.61v3.33H231v-4.35a7.79,7.79,0,0,0-.19-2.09,1.73,1.73,0,0,0-.67-.88,1.9,1.9,0,0,0-1.14-.34,2.47,2.47,0,0,0-1.41.46,2.76,2.76,0,0,0-1,1.23,6.68,6.68,0,0,0-.32,2.37v3.6h-1.09Z"/></clipPath><clipPath id="clip-path-16"><path class="cls-17" d="M247.35,228.29l.92.48a5,5,0,0,1-1,1.44,4.17,4.17,0,0,1-1.34.83,4.7,4.7,0,0,1-1.68.29A4.11,4.11,0,0,1,241,230a4.62,4.62,0,0,1-1.17-3.09,4.55,4.55,0,0,1,1-2.88,4.08,4.08,0,0,1,3.37-1.61,4.21,4.21,0,0,1,3.48,1.65,4.71,4.71,0,0,1,.94,2.91h-7.65a3.44,3.44,0,0,0,.94,2.42,3,3,0,0,0,2.26.95,3.65,3.65,0,0,0,1.27-.22,3.3,3.3,0,0,0,1-.6A5.08,5.08,0,0,0,247.35,228.29Zm0-2.29a3.57,3.57,0,0,0-.64-1.4,2.86,2.86,0,0,0-1.1-.84,3.3,3.3,0,0,0-1.45-.32,3.15,3.15,0,0,0-2.15.8,3.6,3.6,0,0,0-1,1.76Z"/></clipPath><clipPath id="clip-path-17"><path class="cls-18" d="M250.59,222.61h1.1v1.52a4.5,4.5,0,0,1,1.45-1.3,3.57,3.57,0,0,1,1.74-.44,3,3,0,0,1,1.69.49,2.89,2.89,0,0,1,1.09,1.3,7,7,0,0,1,.35,2.56v4.37h-1.1v-4.05a10.25,10.25,0,0,0-.12-2,2.09,2.09,0,0,0-.73-1.26,2.17,2.17,0,0,0-1.4-.43,2.69,2.69,0,0,0-1.78.66,3.1,3.1,0,0,0-1,1.62,11.72,11.72,0,0,0-.15,2.31v3.12h-1.1Z"/></clipPath><clipPath id="clip-path-18"><path class="cls-19" d="M261.31,219.45h1.09v3.16h1.73v.95H262.4v7.55h-1.09v-7.55h-1.5v-.95h1.5Z"/></clipPath><clipPath id="clip-path-19"><path class="cls-20" d="M270.05,223.54l-.71.73a2.51,2.51,0,0,0-1.71-.86,1.26,1.26,0,0,0-.91.36,1,1,0,0,0-.38.82,1.22,1.22,0,0,0,.31.79,4.47,4.47,0,0,0,1.32.89,5,5,0,0,1,1.65,1.22,2.22,2.22,0,0,1,.44,1.34,2.39,2.39,0,0,1-.74,1.77,2.49,2.49,0,0,1-1.84.73,3.23,3.23,0,0,1-1.4-.32,3.12,3.12,0,0,1-1.11-.88l.69-.79a2.4,2.4,0,0,0,1.77.95,1.59,1.59,0,0,0,1.12-.42,1.28,1.28,0,0,0,.16-1.83,4.89,4.89,0,0,0-1.38-.91,4.18,4.18,0,0,1-1.56-1.17A2.29,2.29,0,0,1,266,223a2.33,2.33,0,0,1,1.67-.64A3.46,3.46,0,0,1,270.05,223.54Z"/></clipPath><clipPath id="clip-path-20"><path class="cls-21" d="M273.19,229.39a1,1,0,0,1,.68.28.94.94,0,0,1,.28.69.91.91,0,0,1-.28.68.94.94,0,0,1-.68.29.92.92,0,0,1-.68-.29.91.91,0,0,1-.28-.68.94.94,0,0,1,.28-.69A1,1,0,0,1,273.19,229.39Z"/></clipPath><clipPath id="clip-path-21"><path class="cls-22" d="M277.62,229.39a1,1,0,0,1,1,1,1,1,0,0,1-.28.68.94.94,0,0,1-.68.29.92.92,0,0,1-.68-.29.91.91,0,0,1-.28-.68.94.94,0,0,1,.28-.69A1,1,0,0,1,277.62,229.39Z"/></clipPath><clipPath id="clip-path-22"><path class="cls-14" d="M64.59,219.33h1.09v11.78H64.59Z"/></clipPath><clipPath id="clip-path-23"><path class="cls-24" d="M68.33,219.11a.87.87,0,0,1,.64.27.84.84,0,0,1,.26.64.9.9,0,0,1-1.53.63.89.89,0,0,1-.26-.63.88.88,0,0,1,.26-.64A.86.86,0,0,1,68.33,219.11Zm-.54,3.5h1.09v8.5H67.79Z"/></clipPath><clipPath id="clip-path-24"><path class="cls-25" d="M79.64,219.33v11.78H78.56v-1.46A4.66,4.66,0,0,1,77,230.91a4.31,4.31,0,0,1-5-.89,4.38,4.38,0,0,1-1.28-3.18,4.3,4.3,0,0,1,1.29-3.14,4.2,4.2,0,0,1,3.1-1.31,3.94,3.94,0,0,1,1.89.45,4.16,4.16,0,0,1,1.49,1.33v-4.84Zm-4.37,4.12a3.32,3.32,0,0,0-1.69.45,3.15,3.15,0,0,0-1.22,1.26,3.38,3.38,0,0,0-.46,1.71,3.44,3.44,0,0,0,.46,1.72,3.36,3.36,0,0,0,1.24,1.27,3.15,3.15,0,0,0,1.66.46,3.41,3.41,0,0,0,1.7-.45,3.12,3.12,0,0,0,1.24-1.23,3.45,3.45,0,0,0,.43-1.74,3.36,3.36,0,0,0-1-2.46A3.21,3.21,0,0,0,75.27,223.45Z"/></clipPath><clipPath id="clip-path-25"><path class="cls-26" d="M90.59,222.61v8.5H89.51v-1.46A4.66,4.66,0,0,1,88,230.91a4.25,4.25,0,0,1-1.88.42A4.16,4.16,0,0,1,83,230a4.38,4.38,0,0,1-1.28-3.18A4.3,4.3,0,0,1,83,223.7a4.22,4.22,0,0,1,3.11-1.31,4,4,0,0,1,1.89.45,4.34,4.34,0,0,1,1.49,1.33v-1.56Zm-4.37.84a3.32,3.32,0,0,0-1.69.45,3.11,3.11,0,0,0-1.23,1.26,3.4,3.4,0,0,0,0,3.43,3.27,3.27,0,0,0,1.23,1.27,3.18,3.18,0,0,0,1.67.46,3.43,3.43,0,0,0,1.7-.45,3.1,3.1,0,0,0,1.23-1.23,3.46,3.46,0,0,0,.44-1.74,3.4,3.4,0,0,0-1-2.46A3.23,3.23,0,0,0,86.22,223.45Z"/></clipPath><clipPath id="clip-path-26"><path class="cls-27" d="M92.13,222.61h1.16l2.92,6.55,2.84-6.55h1.16l-5.07,11.61H94l1.63-3.75Z"/></clipPath><clipPath id="clip-path-27"><path class="cls-28" d="M105.25,222.61h1.16l2.86,6.2,2.82-6.2h1.17l-3.89,8.5h-.21Z"/></clipPath><clipPath id="clip-path-28"><path class="cls-29" d="M115.3,219.11a.87.87,0,0,1,.64.27.84.84,0,0,1,.26.64.9.9,0,0,1-1.79,0,.84.84,0,0,1,.26-.64A.86.86,0,0,1,115.3,219.11Zm-.54,3.5h1.09v8.5h-1.09Z"/></clipPath><clipPath id="clip-path-29"><path class="cls-23" d="M282.05,229.39a1,1,0,0,1,1,1,1,1,0,0,1-.28.68.94.94,0,0,1-.68.29.92.92,0,0,1-.68-.29.91.91,0,0,1-.28-.68.94.94,0,0,1,.28-.69A1,1,0,0,1,282.05,229.39Z"/></clipPath></defs><title>text2</title><g id="Layer_2" data-name="Layer 2"><g id="Layer_1-2" data-name="Layer 1"><path class="cls-1" d="M44.52,219.33h1.09v4.8a4.53,4.53,0,0,1,1.46-1.3,3.56,3.56,0,0,1,1.73-.44,3,3,0,0,1,1.69.49,2.89,2.89,0,0,1,1.09,1.3,7,7,0,0,1,.35,2.56v4.37H50.84v-4.05a10.25,10.25,0,0,0-.12-2,2.2,2.2,0,0,0-.74-1.26,2.15,2.15,0,0,0-1.4-.43,2.69,2.69,0,0,0-1.78.66,3,3,0,0,0-1,1.62,10.77,10.77,0,0,0-.16,2.31v3.12H44.52Z"/><path class="cls-1" d="M58.3,222.39a4.22,4.22,0,0,1,3.25,1.42,4.41,4.41,0,0,1,1.18,3.07A4.47,4.47,0,0,1,61.49,230a4.5,4.5,0,0,1-6.39,0,4.57,4.57,0,0,1-.07-6.18A4.22,4.22,0,0,1,58.3,222.39Zm0,1.07a3.15,3.15,0,0,0-2.34,1,3.37,3.37,0,0,0-1,2.44,3.48,3.48,0,0,0,.45,1.72,3.16,3.16,0,0,0,1.2,1.23,3.33,3.33,0,0,0,1.67.43,3.27,3.27,0,0,0,1.67-.43,3.18,3.18,0,0,0,1.21-1.23,3.48,3.48,0,0,0,.45-1.72,3.34,3.34,0,0,0-1-2.44A3.15,3.15,0,0,0,58.29,223.46Z"/><path class="cls-1" d="M64.59,219.33h1.09v11.78H64.59Z"/><path class="cls-1" d="M68.33,219.11a.87.87,0,0,1,.64.27.84.84,0,0,1,.26.64.9.9,0,0,1-1.53.63.89.89,0,0,1-.26-.63.88.88,0,0,1,.26-.64A.86.86,0,0,1,68.33,219.11Zm-.54,3.5h1.09v8.5H67.79Z"/><path class="cls-1" d="M79.64,219.33v11.78H78.56v-1.46A4.66,4.66,0,0,1,77,230.91a4.31,4.31,0,0,1-5-.89,4.38,4.38,0,0,1-1.28-3.18,4.3,4.3,0,0,1,1.29-3.14,4.2,4.2,0,0,1,3.1-1.31,3.94,3.94,0,0,1,1.89.45,4.16,4.16,0,0,1,1.49,1.33v-4.84Zm-4.37,4.12a3.32,3.32,0,0,0-1.69.45,3.15,3.15,0,0,0-1.22,1.26,3.38,3.38,0,0,0-.46,1.71,3.44,3.44,0,0,0,.46,1.72,3.36,3.36,0,0,0,1.24,1.27,3.15,3.15,0,0,0,1.66.46,3.41,3.41,0,0,0,1.7-.45,3.12,3.12,0,0,0,1.24-1.23,3.45,3.45,0,0,0,.43-1.74,3.36,3.36,0,0,0-1-2.46A3.21,3.21,0,0,0,75.27,223.45Z"/><path class="cls-1" d="M90.59,222.61v8.5H89.51v-1.46A4.66,4.66,0,0,1,88,230.91a4.25,4.25,0,0,1-1.88.42A4.16,4.16,0,0,1,83,230a4.38,4.38,0,0,1-1.28-3.18A4.3,4.3,0,0,1,83,223.7a4.22,4.22,0,0,1,3.11-1.31,4,4,0,0,1,1.89.45,4.34,4.34,0,0,1,1.49,1.33v-1.56Zm-4.37.84a3.32,3.32,0,0,0-1.69.45,3.11,3.11,0,0,0-1.23,1.26,3.4,3.4,0,0,0,0,3.43,3.27,3.27,0,0,0,1.23,1.27,3.18,3.18,0,0,0,1.67.46,3.43,3.43,0,0,0,1.7-.45,3.1,3.1,0,0,0,1.23-1.23,3.46,3.46,0,0,0,.44-1.74,3.4,3.4,0,0,0-1-2.46A3.23,3.23,0,0,0,86.22,223.45Z"/><path class="cls-1" d="M92.13,222.61h1.16l2.92,6.55,2.84-6.55h1.16l-5.07,11.61H94l1.63-3.75Z"/><path class="cls-1" d="M105.25,222.61h1.16l2.86,6.2,2.82-6.2h1.17l-3.89,8.5h-.21Z"/><path class="cls-1" d="M115.3,219.11a.87.87,0,0,1,.64.27.84.84,0,0,1,.26.64.9.9,0,0,1-1.79,0,.84.84,0,0,1,.26-.64A.86.86,0,0,1,115.3,219.11Zm-.54,3.5h1.09v8.5h-1.09Z"/><path class="cls-1" d="M118,219.33h1.1v11.78H118Z"/><path class="cls-1" d="M121.16,219.33h1.1v11.78h-1.1Z"/><path class="cls-1" d="M133,222.61v8.5h-1.08v-1.46a4.66,4.66,0,0,1-1.54,1.26,4.31,4.31,0,0,1-4.95-.89,4.34,4.34,0,0,1-1.28-3.18,4.3,4.3,0,0,1,1.29-3.14,4.2,4.2,0,0,1,3.1-1.31,3.94,3.94,0,0,1,1.89.45,4.25,4.25,0,0,1,1.49,1.33v-1.56Zm-4.37.84a3.32,3.32,0,0,0-1.69.45,3.15,3.15,0,0,0-1.22,1.26,3.38,3.38,0,0,0-.46,1.71,3.44,3.44,0,0,0,.46,1.72,3.36,3.36,0,0,0,1.24,1.27,3.15,3.15,0,0,0,1.66.46,3.41,3.41,0,0,0,1.7-.45,3.12,3.12,0,0,0,1.24-1.23,3.45,3.45,0,0,0,.43-1.74,3.36,3.36,0,0,0-1-2.46A3.21,3.21,0,0,0,128.63,223.45Z"/><path class="cls-1" d="M139.73,223.54l-.7.73a2.51,2.51,0,0,0-1.71-.86,1.3,1.3,0,0,0-.92.36,1.08,1.08,0,0,0-.38.82,1.23,1.23,0,0,0,.32.79,4.39,4.39,0,0,0,1.31.89,4.94,4.94,0,0,1,1.66,1.22,2.21,2.21,0,0,1,.43,1.34,2.38,2.38,0,0,1-.73,1.77,2.5,2.5,0,0,1-1.84.73,3.3,3.3,0,0,1-1.41-.32,3.18,3.18,0,0,1-1.1-.88l.68-.79a2.42,2.42,0,0,0,1.78.95,1.61,1.61,0,0,0,1.12-.42,1.31,1.31,0,0,0,.16-1.83,5.23,5.23,0,0,0-1.38-.91,4.32,4.32,0,0,1-1.57-1.17,2.22,2.22,0,0,1-.41-1.32,2.16,2.16,0,0,1,.66-1.61,2.33,2.33,0,0,1,1.67-.64A3.44,3.44,0,0,1,139.73,223.54Z"/><path class="cls-1" d="M154.57,222.61v8.5h-1.08v-1.46a4.66,4.66,0,0,1-1.54,1.26A4.31,4.31,0,0,1,147,230a4.34,4.34,0,0,1-1.28-3.18A4.3,4.3,0,0,1,147,223.7a4.2,4.2,0,0,1,3.1-1.31,3.94,3.94,0,0,1,1.89.45,4.25,4.25,0,0,1,1.49,1.33v-1.56Zm-4.37.84a3.32,3.32,0,0,0-1.69.45,3.15,3.15,0,0,0-1.22,1.26,3.38,3.38,0,0,0-.46,1.71,3.44,3.44,0,0,0,.46,1.72,3.36,3.36,0,0,0,1.24,1.27,3.15,3.15,0,0,0,1.66.46,3.41,3.41,0,0,0,1.7-.45,3.12,3.12,0,0,0,1.24-1.23,3.45,3.45,0,0,0,.43-1.74,3.36,3.36,0,0,0-1-2.46A3.21,3.21,0,0,0,150.2,223.45Z"/><path class="cls-1" d="M157,222.61h1.1v1.52a4.4,4.4,0,0,1,1.45-1.3,3.56,3.56,0,0,1,1.73-.44,2.94,2.94,0,0,1,1.69.49,2.77,2.77,0,0,1,1.09,1.3,6.78,6.78,0,0,1,.36,2.56v4.37h-1.1v-4.05a10.25,10.25,0,0,0-.12-2,2.14,2.14,0,0,0-.73-1.26,2.18,2.18,0,0,0-1.41-.43,2.67,2.67,0,0,0-1.77.66,3,3,0,0,0-1,1.62,11.72,11.72,0,0,0-.15,2.31v3.12H157Z"/><path class="cls-1" d="M175.27,219.33v11.78H174.2v-1.46a4.69,4.69,0,0,1-1.55,1.26,4.31,4.31,0,0,1-5-.89,4.38,4.38,0,0,1-1.28-3.18,4.3,4.3,0,0,1,1.29-3.14,4.2,4.2,0,0,1,3.1-1.31,4,4,0,0,1,1.9.45,4.34,4.34,0,0,1,1.49,1.33v-4.84Zm-4.37,4.12a3.25,3.25,0,0,0-1.68.45,3.11,3.11,0,0,0-1.23,1.26,3.38,3.38,0,0,0-.46,1.71,3.55,3.55,0,0,0,.46,1.72,3.36,3.36,0,0,0,1.24,1.27,3.18,3.18,0,0,0,1.66.46,3.47,3.47,0,0,0,1.71-.45,3.16,3.16,0,0,0,1.23-1.23,3.46,3.46,0,0,0,.44-1.74,3.37,3.37,0,0,0-1-2.46A3.2,3.2,0,0,0,170.9,223.45Z"/><path class="cls-1" d="M190.65,222.61v8.5h-1.08v-1.46a4.66,4.66,0,0,1-1.54,1.26,4.32,4.32,0,0,1-5-.89,4.38,4.38,0,0,1-1.27-3.18,4.3,4.3,0,0,1,1.29-3.14,4.2,4.2,0,0,1,3.1-1.31,3.94,3.94,0,0,1,1.89.45,4.25,4.25,0,0,1,1.49,1.33v-1.56Zm-4.37.84a3.32,3.32,0,0,0-1.69.45,3.24,3.24,0,0,0-1.23,1.26,3.46,3.46,0,0,0,0,3.43,3.34,3.34,0,0,0,1.23,1.27,3.21,3.21,0,0,0,1.67.46,3.41,3.41,0,0,0,1.7-.45,3.12,3.12,0,0,0,1.24-1.23,3.45,3.45,0,0,0,.43-1.74,3.36,3.36,0,0,0-1-2.46A3.21,3.21,0,0,0,186.28,223.45Z"/><path class="cls-1" d="M193.13,222.61h1.09v1.56a4.34,4.34,0,0,1,1.49-1.33,3.93,3.93,0,0,1,1.88-.45,4.2,4.2,0,0,1,3.1,1.31,4.3,4.3,0,0,1,1.29,3.14A4.38,4.38,0,0,1,200.7,230a4.29,4.29,0,0,1-4.94.89,4.66,4.66,0,0,1-1.54-1.26v4.57h-1.09Zm4.37.84a3.23,3.23,0,0,0-2.39,1,3.36,3.36,0,0,0-1,2.46,3.56,3.56,0,0,0,.43,1.74,3.12,3.12,0,0,0,1.24,1.23,3.47,3.47,0,0,0,1.71.45,3.17,3.17,0,0,0,1.65-.46,3.36,3.36,0,0,0,1.24-1.27,3.55,3.55,0,0,0,.46-1.72,3.38,3.38,0,0,0-.46-1.71,3.11,3.11,0,0,0-1.23-1.26A3.25,3.25,0,0,0,197.5,223.45Z"/><path class="cls-1" d="M212.49,222.61v8.5h-1.08v-1.46a4.56,4.56,0,0,1-1.54,1.26,4.31,4.31,0,0,1-5-.89,4.38,4.38,0,0,1-1.28-3.18,4.3,4.3,0,0,1,1.29-3.14,4.2,4.2,0,0,1,3.1-1.31,4,4,0,0,1,1.9.45,4.22,4.22,0,0,1,1.48,1.33v-1.56Zm-4.37.84a3.25,3.25,0,0,0-1.68.45,3.11,3.11,0,0,0-1.23,1.26,3.38,3.38,0,0,0-.46,1.71,3.44,3.44,0,0,0,.46,1.72,3.36,3.36,0,0,0,1.24,1.27,3.18,3.18,0,0,0,1.66.46,3.41,3.41,0,0,0,1.7-.45,3.12,3.12,0,0,0,1.24-1.23,3.45,3.45,0,0,0,.43-1.74,3.36,3.36,0,0,0-1-2.46A3.2,3.2,0,0,0,208.12,223.45Z"/><path class="cls-1" d="M214.54,222.61h1.12v1.24a4,4,0,0,1,1.05-1.1,2.11,2.11,0,0,1,1.16-.36,2.06,2.06,0,0,1,1,.29l-.57.92a1.55,1.55,0,0,0-.58-.15,1.58,1.58,0,0,0-1.06.45,2.87,2.87,0,0,0-.77,1.4,13.11,13.11,0,0,0-.2,2.94v2.87h-1.12Z"/><path class="cls-1" d="M220.72,219.45h1.09v3.16h1.74v.95h-1.74v7.55h-1.09v-7.55h-1.49v-.95h1.49Z"/><path class="cls-1" d="M225.18,222.61h1.09v1.47a4.3,4.3,0,0,1,1.18-1.19,3.34,3.34,0,0,1,1.74-.5,2.92,2.92,0,0,1,1.17.24,2.47,2.47,0,0,1,.91.65,3.33,3.33,0,0,1,.61,1.15,4.07,4.07,0,0,1,1.37-1.52,3.18,3.18,0,0,1,1.76-.52,2.74,2.74,0,0,1,1.55.45,2.57,2.57,0,0,1,1,1.24,6.58,6.58,0,0,1,.33,2.39v4.64h-1.12v-4.64a6.11,6.11,0,0,0-.19-1.88,1.63,1.63,0,0,0-.67-.82,2,2,0,0,0-1.12-.32,2.44,2.44,0,0,0-1.45.47,2.8,2.8,0,0,0-1,1.25,8,8,0,0,0-.3,2.61v3.33H231v-4.35a7.79,7.79,0,0,0-.19-2.09,1.73,1.73,0,0,0-.67-.88,1.9,1.9,0,0,0-1.14-.34,2.47,2.47,0,0,0-1.41.46,2.76,2.76,0,0,0-1,1.23,6.68,6.68,0,0,0-.32,2.37v3.6h-1.09Z"/><path class="cls-1" d="M247.35,228.29l.92.48a5,5,0,0,1-1,1.44,4.17,4.17,0,0,1-1.34.83,4.7,4.7,0,0,1-1.68.29A4.11,4.11,0,0,1,241,230a4.62,4.62,0,0,1-1.17-3.09,4.55,4.55,0,0,1,1-2.88,4.08,4.08,0,0,1,3.37-1.61,4.21,4.21,0,0,1,3.48,1.65,4.71,4.71,0,0,1,.94,2.91h-7.65a3.44,3.44,0,0,0,.94,2.42,3,3,0,0,0,2.26.95,3.65,3.65,0,0,0,1.27-.22,3.3,3.3,0,0,0,1-.6A5.08,5.08,0,0,0,247.35,228.29Zm0-2.29a3.57,3.57,0,0,0-.64-1.4,2.86,2.86,0,0,0-1.1-.84,3.3,3.3,0,0,0-1.45-.32,3.15,3.15,0,0,0-2.15.8,3.6,3.6,0,0,0-1,1.76Z"/><path class="cls-1" d="M250.59,222.61h1.1v1.52a4.5,4.5,0,0,1,1.45-1.3,3.57,3.57,0,0,1,1.74-.44,3,3,0,0,1,1.69.49,2.89,2.89,0,0,1,1.09,1.3,7,7,0,0,1,.35,2.56v4.37h-1.1v-4.05a10.25,10.25,0,0,0-.12-2,2.09,2.09,0,0,0-.73-1.26,2.17,2.17,0,0,0-1.4-.43,2.69,2.69,0,0,0-1.78.66,3.1,3.1,0,0,0-1,1.62,11.72,11.72,0,0,0-.15,2.31v3.12h-1.1Z"/><path class="cls-1" d="M261.31,219.45h1.09v3.16h1.73v.95H262.4v7.55h-1.09v-7.55h-1.5v-.95h1.5Z"/><path class="cls-1" d="M270.05,223.54l-.71.73a2.51,2.51,0,0,0-1.71-.86,1.26,1.26,0,0,0-.91.36,1,1,0,0,0-.38.82,1.22,1.22,0,0,0,.31.79,4.47,4.47,0,0,0,1.32.89,5,5,0,0,1,1.65,1.22,2.22,2.22,0,0,1,.44,1.34,2.39,2.39,0,0,1-.74,1.77,2.49,2.49,0,0,1-1.84.73,3.23,3.23,0,0,1-1.4-.32,3.12,3.12,0,0,1-1.11-.88l.69-.79a2.4,2.4,0,0,0,1.77.95,1.59,1.59,0,0,0,1.12-.42,1.28,1.28,0,0,0,.16-1.83,4.89,4.89,0,0,0-1.38-.91,4.18,4.18,0,0,1-1.56-1.17A2.29,2.29,0,0,1,266,223a2.33,2.33,0,0,1,1.67-.64A3.46,3.46,0,0,1,270.05,223.54Z"/><path class="cls-1" d="M273.19,229.39a1,1,0,0,1,.68.28.94.94,0,0,1,.28.69.91.91,0,0,1-.28.68.94.94,0,0,1-.68.29.92.92,0,0,1-.68-.29.91.91,0,0,1-.28-.68.94.94,0,0,1,.28-.69A1,1,0,0,1,273.19,229.39Z"/><path class="cls-1" d="M277.62,229.39a1,1,0,0,1,1,1,1,1,0,0,1-.28.68.94.94,0,0,1-.68.29.92.92,0,0,1-.68-.29.91.91,0,0,1-.28-.68.94.94,0,0,1,.28-.69A1,1,0,0,1,277.62,229.39Z"/><path class="cls-1" d="M282.05,229.39a1,1,0,0,1,1,1,1,1,0,0,1-.28.68.94.94,0,0,1-.68.29.92.92,0,0,1-.68-.29.91.91,0,0,1-.28-.68.94.94,0,0,1,.28-.69A1,1,0,0,1,282.05,229.39Z"/><g class="cls-30"><rect class="cls-1" width="300" height="250"/></g></g></g></svg>