<svg xmlns="http://www.w3.org/2000/svg" xmlns:xlink="http://www.w3.org/1999/xlink" viewBox="0 0 300 250"><defs><style>.cls-1,.cls-10,.cls-11,.cls-12,.cls-13,.cls-14,.cls-15,.cls-16,.cls-2,.cls-3,.cls-4,.cls-5,.cls-6,.cls-7,.cls-8,.cls-9{fill:#fff;}.cls-2{clip-path:url(#clip-path);}.cls-3{clip-path:url(#clip-path-2);}.cls-4{clip-path:url(#clip-path-15);}.cls-5{clip-path:url(#clip-path-3);}.cls-6{clip-path:url(#clip-path-4);}.cls-7{clip-path:url(#clip-path-5);}.cls-8{clip-path:url(#clip-path-6);}.cls-9{clip-path:url(#clip-path-7);}.cls-10{clip-path:url(#clip-path-8);}.cls-11{clip-path:url(#clip-path-9);}.cls-12{clip-path:url(#clip-path-10);}.cls-13{clip-path:url(#clip-path-11);}.cls-14{clip-path:url(#clip-path-12);}.cls-15{clip-path:url(#clip-path-13);}.cls-16{clip-path:url(#clip-path-14);}.cls-17{clip-path:url(#clip-path-16);}</style><clipPath id="clip-path"><path class="cls-1" d="M148.28,222.61v8.5H147.2v-1.46a4.66,4.66,0,0,1-1.54,1.26,4.31,4.31,0,0,1-4.95-.89,4.38,4.38,0,0,1-1.28-3.18,4.3,4.3,0,0,1,1.29-3.14,4.2,4.2,0,0,1,3.1-1.31,4,4,0,0,1,1.9.45,4.22,4.22,0,0,1,1.48,1.33v-1.56Zm-4.37.84a3.25,3.25,0,0,0-1.68.45,3.11,3.11,0,0,0-1.23,1.26,3.38,3.38,0,0,0-.46,1.71,3.44,3.44,0,0,0,.46,1.72,3.36,3.36,0,0,0,1.24,1.27,3.15,3.15,0,0,0,1.66.46,3.41,3.41,0,0,0,1.7-.45,3.12,3.12,0,0,0,1.24-1.23,3.45,3.45,0,0,0,.43-1.74,3.36,3.36,0,0,0-1-2.46A3.21,3.21,0,0,0,143.91,223.45Z"/></clipPath><clipPath id="clip-path-2"><path class="cls-4" d="M236.84,219.33v11.78h-1.08v-1.46a4.66,4.66,0,0,1-1.54,1.26,4.25,4.25,0,0,1-1.88.42,4.16,4.16,0,0,1-3.08-1.31,4.38,4.38,0,0,1-1.28-3.18,4.3,4.3,0,0,1,1.29-3.14,4.22,4.22,0,0,1,3.11-1.31,4,4,0,0,1,1.89.45,4.34,4.34,0,0,1,1.49,1.33v-4.84Zm-4.37,4.12a3.32,3.32,0,0,0-1.69.45,3.11,3.11,0,0,0-1.23,1.26,3.4,3.4,0,0,0,0,3.43,3.27,3.27,0,0,0,1.23,1.27,3.18,3.18,0,0,0,1.67.46,3.43,3.43,0,0,0,1.7-.45,3.1,3.1,0,0,0,1.23-1.23,3.46,3.46,0,0,0,.44-1.74,3.4,3.4,0,0,0-1-2.46A3.23,3.23,0,0,0,232.47,223.45Z"/></clipPath><clipPath id="clip-path-3"><path class="cls-3" d="M247.8,219.33v11.78h-1.08v-1.46a4.66,4.66,0,0,1-1.54,1.26,4.32,4.32,0,0,1-5-.89,4.38,4.38,0,0,1-1.27-3.18,4.33,4.33,0,0,1,1.28-3.14,4.22,4.22,0,0,1,3.11-1.31,4,4,0,0,1,1.89.45,4.25,4.25,0,0,1,1.49,1.33v-4.84Zm-4.37,4.12a3.32,3.32,0,0,0-1.69.45,3.24,3.24,0,0,0-1.23,1.26,3.46,3.46,0,0,0,0,3.43,3.27,3.27,0,0,0,1.23,1.27,3.18,3.18,0,0,0,1.67.46,3.43,3.43,0,0,0,1.7-.45,3.19,3.19,0,0,0,1.24-1.23,3.56,3.56,0,0,0,.43-1.74,3.36,3.36,0,0,0-1-2.46A3.23,3.23,0,0,0,243.43,223.45Z"/></clipPath><clipPath id="clip-path-4"><path class="cls-5" d="M249.86,222.61H251v1.24a4,4,0,0,1,1.05-1.1,2.11,2.11,0,0,1,1.16-.36,2.06,2.06,0,0,1,1,.29l-.57.92a1.55,1.55,0,0,0-.58-.15,1.58,1.58,0,0,0-1.06.45,2.87,2.87,0,0,0-.77,1.4,13.11,13.11,0,0,0-.2,2.94v2.87h-1.12Z"/></clipPath><clipPath id="clip-path-5"><path class="cls-6" d="M262.18,228.29l.92.48a4.79,4.79,0,0,1-1.05,1.44,4,4,0,0,1-1.33.83,4.7,4.7,0,0,1-1.68.29,4.1,4.1,0,0,1-3.26-1.36,4.62,4.62,0,0,1-1.17-3.09,4.55,4.55,0,0,1,1-2.88,4.07,4.07,0,0,1,3.37-1.61,4.18,4.18,0,0,1,3.47,1.65,4.59,4.59,0,0,1,.94,2.91h-7.65a3.5,3.5,0,0,0,1,2.42,3,3,0,0,0,2.26.95,3.69,3.69,0,0,0,1.27-.22,3.42,3.42,0,0,0,1-.6A5.08,5.08,0,0,0,262.18,228.29Zm0-2.29a3.71,3.71,0,0,0-.64-1.4,3,3,0,0,0-1.1-.84,3.33,3.33,0,0,0-1.45-.32,3.13,3.13,0,0,0-2.15.8,3.68,3.68,0,0,0-1,1.76Z"/></clipPath><clipPath id="clip-path-6"><path class="cls-7" d="M269.7,223.54l-.71.73a2.51,2.51,0,0,0-1.71-.86,1.3,1.3,0,0,0-.92.36,1.08,1.08,0,0,0-.38.82,1.23,1.23,0,0,0,.32.79,4.53,4.53,0,0,0,1.31.89,4.94,4.94,0,0,1,1.66,1.22,2.21,2.21,0,0,1,.43,1.34,2.38,2.38,0,0,1-.73,1.77,2.5,2.5,0,0,1-1.84.73,3.23,3.23,0,0,1-1.4-.32,3.12,3.12,0,0,1-1.11-.88l.69-.79a2.38,2.38,0,0,0,1.77.95,1.61,1.61,0,0,0,1.12-.42,1.31,1.31,0,0,0,.16-1.83,4.89,4.89,0,0,0-1.38-.91,4.18,4.18,0,0,1-1.56-1.17,2.29,2.29,0,0,1,.24-2.93,2.33,2.33,0,0,1,1.67-.64A3.48,3.48,0,0,1,269.7,223.54Z"/></clipPath><clipPath id="clip-path-7"><path class="cls-8" d="M275.91,223.54l-.71.73a2.51,2.51,0,0,0-1.71-.86,1.26,1.26,0,0,0-.91.36,1,1,0,0,0-.38.82,1.22,1.22,0,0,0,.31.79,4.53,4.53,0,0,0,1.31.89,4.94,4.94,0,0,1,1.66,1.22,2.21,2.21,0,0,1,.43,1.34,2.38,2.38,0,0,1-.73,1.77,2.49,2.49,0,0,1-1.84.73,3.23,3.23,0,0,1-1.4-.32,3.12,3.12,0,0,1-1.11-.88l.69-.79a2.38,2.38,0,0,0,1.77.95,1.59,1.59,0,0,0,1.12-.42,1.28,1.28,0,0,0,.16-1.83,4.89,4.89,0,0,0-1.38-.91,4.18,4.18,0,0,1-1.56-1.17,2.29,2.29,0,0,1,.24-2.93,2.33,2.33,0,0,1,1.67-.64A3.46,3.46,0,0,1,275.91,223.54Z"/></clipPath><clipPath id="clip-path-8"><path class="cls-2" d="M150.58,219.33h1.09v11.78h-1.09Z"/></clipPath><clipPath id="clip-path-9"><path class="cls-10" d="M153.78,219.33h1.1v11.78h-1.1Z"/></clipPath><clipPath id="clip-path-10"><path class="cls-11" d="M170.05,222.61v8.5H169v-1.46a4.66,4.66,0,0,1-1.54,1.26,4.32,4.32,0,0,1-5-.89,4.38,4.38,0,0,1-1.27-3.18,4.33,4.33,0,0,1,1.28-3.14,4.22,4.22,0,0,1,3.11-1.31,4,4,0,0,1,1.89.45,4.25,4.25,0,0,1,1.49,1.33v-1.56Zm-4.37.84a3.32,3.32,0,0,0-1.69.45,3.24,3.24,0,0,0-1.23,1.26,3.46,3.46,0,0,0,0,3.43,3.27,3.27,0,0,0,1.23,1.27,3.18,3.18,0,0,0,1.67.46,3.43,3.43,0,0,0,1.7-.45,3.19,3.19,0,0,0,1.24-1.23,3.56,3.56,0,0,0,.43-1.74,3.36,3.36,0,0,0-1-2.46A3.23,3.23,0,0,0,165.68,223.45Z"/></clipPath><clipPath id="clip-path-11"><path class="cls-12" d="M173.46,219.45h1.1v3.16h1.73v.95h-1.73v7.55h-1.1v-7.55H172v-.95h1.49Z"/></clipPath><clipPath id="clip-path-12"><path class="cls-13" d="M186.38,222.39a4.24,4.24,0,0,1,3.26,1.42,4.58,4.58,0,0,1-.07,6.19,4.49,4.49,0,0,1-6.38,0,4.57,4.57,0,0,1-.07-6.18A4.22,4.22,0,0,1,186.38,222.39Zm0,1.07a3.15,3.15,0,0,0-2.34,1,3.33,3.33,0,0,0-1,2.44,3.47,3.47,0,0,0,.44,1.72,3.18,3.18,0,0,0,1.21,1.23,3.46,3.46,0,0,0,3.34,0,3.18,3.18,0,0,0,1.21-1.23,3.47,3.47,0,0,0,.44-1.72,3.33,3.33,0,0,0-1-2.44A3.18,3.18,0,0,0,186.38,223.46Z"/></clipPath><clipPath id="clip-path-13"><path class="cls-14" d="M192.84,222.61h1.09v1.52a4.5,4.5,0,0,1,1.45-1.3,3.57,3.57,0,0,1,1.74-.44,3,3,0,0,1,1.69.49,2.89,2.89,0,0,1,1.09,1.3,7,7,0,0,1,.35,2.56v4.37h-1.09v-4.05a10.25,10.25,0,0,0-.12-2,2,2,0,0,0-2.14-1.69,2.69,2.69,0,0,0-1.78.66,3,3,0,0,0-1,1.62,10.77,10.77,0,0,0-.16,2.31v3.12h-1.09Z"/></clipPath><clipPath id="clip-path-14"><path class="cls-15" d="M209.75,228.29l.92.48a4.79,4.79,0,0,1-1,1.44,4,4,0,0,1-1.33.83,4.7,4.7,0,0,1-1.68.29,4.11,4.11,0,0,1-3.26-1.36,4.62,4.62,0,0,1-1.17-3.09,4.55,4.55,0,0,1,1-2.88,4.08,4.08,0,0,1,3.37-1.61A4.21,4.21,0,0,1,210,224,4.65,4.65,0,0,1,211,227h-7.64a3.44,3.44,0,0,0,.94,2.42,3,3,0,0,0,2.26.95,3.69,3.69,0,0,0,1.27-.22,3.42,3.42,0,0,0,1-.6A5.08,5.08,0,0,0,209.75,228.29Zm0-2.29a3.71,3.71,0,0,0-.64-1.4,2.93,2.93,0,0,0-1.1-.84,3.33,3.33,0,0,0-1.45-.32,3.15,3.15,0,0,0-2.15.8,3.68,3.68,0,0,0-1,1.76Z"/></clipPath><clipPath id="clip-path-15"><path class="cls-16" d="M225.89,222.61v8.5h-1.08v-1.46a4.66,4.66,0,0,1-1.54,1.26,4.31,4.31,0,0,1-5-.89,4.38,4.38,0,0,1-1.28-3.18,4.3,4.3,0,0,1,1.29-3.14,4.2,4.2,0,0,1,3.1-1.31,3.94,3.94,0,0,1,1.89.45,4.16,4.16,0,0,1,1.49,1.33v-1.56Zm-4.37.84a3.32,3.32,0,0,0-1.69.45,3.15,3.15,0,0,0-1.22,1.26,3.38,3.38,0,0,0-.46,1.71,3.44,3.44,0,0,0,.46,1.72,3.36,3.36,0,0,0,1.24,1.27,3.15,3.15,0,0,0,1.66.46,3.41,3.41,0,0,0,1.7-.45,3.12,3.12,0,0,0,1.24-1.23,3.45,3.45,0,0,0,.43-1.74,3.36,3.36,0,0,0-1-2.46A3.21,3.21,0,0,0,221.52,223.45Z"/></clipPath><clipPath id="clip-path-16"><path class="cls-9" d="M279.05,229.39a1,1,0,0,1,1,1,1,1,0,0,1-.28.68.94.94,0,0,1-.68.29.92.92,0,0,1-.68-.29.91.91,0,0,1-.28-.68.94.94,0,0,1,.28-.69A1,1,0,0,1,279.05,229.39Z"/></clipPath></defs><title>text3</title><g id="Layer_2" data-name="Layer 2"><g id="Layer_1-2" data-name="Layer 1"><path class="cls-1" d="M148.28,222.61v8.5H147.2v-1.46a4.66,4.66,0,0,1-1.54,1.26,4.31,4.31,0,0,1-4.95-.89,4.38,4.38,0,0,1-1.28-3.18,4.3,4.3,0,0,1,1.29-3.14,4.2,4.2,0,0,1,3.1-1.31,4,4,0,0,1,1.9.45,4.22,4.22,0,0,1,1.48,1.33v-1.56Zm-4.37.84a3.25,3.25,0,0,0-1.68.45,3.11,3.11,0,0,0-1.23,1.26,3.38,3.38,0,0,0-.46,1.71,3.44,3.44,0,0,0,.46,1.72,3.36,3.36,0,0,0,1.24,1.27,3.15,3.15,0,0,0,1.66.46,3.41,3.41,0,0,0,1.7-.45,3.12,3.12,0,0,0,1.24-1.23,3.45,3.45,0,0,0,.43-1.74,3.36,3.36,0,0,0-1-2.46A3.21,3.21,0,0,0,143.91,223.45Z"/><path class="cls-1" d="M150.58,219.33h1.09v11.78h-1.09Z"/><path class="cls-1" d="M153.78,219.33h1.1v11.78h-1.1Z"/><path class="cls-1" d="M170.05,222.61v8.5H169v-1.46a4.66,4.66,0,0,1-1.54,1.26,4.32,4.32,0,0,1-5-.89,4.38,4.38,0,0,1-1.27-3.18,4.33,4.33,0,0,1,1.28-3.14,4.22,4.22,0,0,1,3.11-1.31,4,4,0,0,1,1.89.45,4.25,4.25,0,0,1,1.49,1.33v-1.56Zm-4.37.84a3.32,3.32,0,0,0-1.69.45,3.24,3.24,0,0,0-1.23,1.26,3.46,3.46,0,0,0,0,3.43,3.27,3.27,0,0,0,1.23,1.27,3.18,3.18,0,0,0,1.67.46,3.43,3.43,0,0,0,1.7-.45,3.19,3.19,0,0,0,1.24-1.23,3.56,3.56,0,0,0,.43-1.74,3.36,3.36,0,0,0-1-2.46A3.23,3.23,0,0,0,165.68,223.45Z"/><path class="cls-1" d="M173.46,219.45h1.1v3.16h1.73v.95h-1.73v7.55h-1.1v-7.55H172v-.95h1.49Z"/><path class="cls-1" d="M186.38,222.39a4.24,4.24,0,0,1,3.26,1.42,4.58,4.58,0,0,1-.07,6.19,4.49,4.49,0,0,1-6.38,0,4.57,4.57,0,0,1-.07-6.18A4.22,4.22,0,0,1,186.38,222.39Zm0,1.07a3.15,3.15,0,0,0-2.34,1,3.33,3.33,0,0,0-1,2.44,3.47,3.47,0,0,0,.44,1.72,3.18,3.18,0,0,0,1.21,1.23,3.46,3.46,0,0,0,3.34,0,3.18,3.18,0,0,0,1.21-1.23,3.47,3.47,0,0,0,.44-1.72,3.33,3.33,0,0,0-1-2.44A3.18,3.18,0,0,0,186.38,223.46Z"/><path class="cls-1" d="M192.84,222.61h1.09v1.52a4.5,4.5,0,0,1,1.45-1.3,3.57,3.57,0,0,1,1.74-.44,3,3,0,0,1,1.69.49,2.89,2.89,0,0,1,1.09,1.3,7,7,0,0,1,.35,2.56v4.37h-1.09v-4.05a10.25,10.25,0,0,0-.12-2,2,2,0,0,0-2.14-1.69,2.69,2.69,0,0,0-1.78.66,3,3,0,0,0-1,1.62,10.77,10.77,0,0,0-.16,2.31v3.12h-1.09Z"/><path class="cls-1" d="M209.75,228.29l.92.48a4.79,4.79,0,0,1-1,1.44,4,4,0,0,1-1.33.83,4.7,4.7,0,0,1-1.68.29,4.11,4.11,0,0,1-3.26-1.36,4.62,4.62,0,0,1-1.17-3.09,4.55,4.55,0,0,1,1-2.88,4.08,4.08,0,0,1,3.37-1.61A4.21,4.21,0,0,1,210,224,4.65,4.65,0,0,1,211,227h-7.64a3.44,3.44,0,0,0,.94,2.42,3,3,0,0,0,2.26.95,3.69,3.69,0,0,0,1.27-.22,3.42,3.42,0,0,0,1-.6A5.08,5.08,0,0,0,209.75,228.29Zm0-2.29a3.71,3.71,0,0,0-.64-1.4,2.93,2.93,0,0,0-1.1-.84,3.33,3.33,0,0,0-1.45-.32,3.15,3.15,0,0,0-2.15.8,3.68,3.68,0,0,0-1,1.76Z"/><path class="cls-1" d="M225.89,222.61v8.5h-1.08v-1.46a4.66,4.66,0,0,1-1.54,1.26,4.31,4.31,0,0,1-5-.89,4.38,4.38,0,0,1-1.28-3.18,4.3,4.3,0,0,1,1.29-3.14,4.2,4.2,0,0,1,3.1-1.31,3.94,3.94,0,0,1,1.89.45,4.16,4.16,0,0,1,1.49,1.33v-1.56Zm-4.37.84a3.32,3.32,0,0,0-1.69.45,3.15,3.15,0,0,0-1.22,1.26,3.38,3.38,0,0,0-.46,1.71,3.44,3.44,0,0,0,.46,1.72,3.36,3.36,0,0,0,1.24,1.27,3.15,3.15,0,0,0,1.66.46,3.41,3.41,0,0,0,1.7-.45,3.12,3.12,0,0,0,1.24-1.23,3.45,3.45,0,0,0,.43-1.74,3.36,3.36,0,0,0-1-2.46A3.21,3.21,0,0,0,221.52,223.45Z"/><path class="cls-1" d="M236.84,219.33v11.78h-1.08v-1.46a4.66,4.66,0,0,1-1.54,1.26,4.25,4.25,0,0,1-1.88.42,4.16,4.16,0,0,1-3.08-1.31,4.38,4.38,0,0,1-1.28-3.18,4.3,4.3,0,0,1,1.29-3.14,4.22,4.22,0,0,1,3.11-1.31,4,4,0,0,1,1.89.45,4.34,4.34,0,0,1,1.49,1.33v-4.84Zm-4.37,4.12a3.32,3.32,0,0,0-1.69.45,3.11,3.11,0,0,0-1.23,1.26,3.4,3.4,0,0,0,0,3.43,3.27,3.27,0,0,0,1.23,1.27,3.18,3.18,0,0,0,1.67.46,3.43,3.43,0,0,0,1.7-.45,3.1,3.1,0,0,0,1.23-1.23,3.46,3.46,0,0,0,.44-1.74,3.4,3.4,0,0,0-1-2.46A3.23,3.23,0,0,0,232.47,223.45Z"/><path class="cls-1" d="M247.8,219.33v11.78h-1.08v-1.46a4.66,4.66,0,0,1-1.54,1.26,4.32,4.32,0,0,1-5-.89,4.38,4.38,0,0,1-1.27-3.18,4.33,4.33,0,0,1,1.28-3.14,4.22,4.22,0,0,1,3.11-1.31,4,4,0,0,1,1.89.45,4.25,4.25,0,0,1,1.49,1.33v-4.84Zm-4.37,4.12a3.32,3.32,0,0,0-1.69.45,3.24,3.24,0,0,0-1.23,1.26,3.46,3.46,0,0,0,0,3.43,3.27,3.27,0,0,0,1.23,1.27,3.18,3.18,0,0,0,1.67.46,3.43,3.43,0,0,0,1.7-.45,3.19,3.19,0,0,0,1.24-1.23,3.56,3.56,0,0,0,.43-1.74,3.36,3.36,0,0,0-1-2.46A3.23,3.23,0,0,0,243.43,223.45Z"/><path class="cls-1" d="M249.86,222.61H251v1.24a4,4,0,0,1,1.05-1.1,2.11,2.11,0,0,1,1.16-.36,2.06,2.06,0,0,1,1,.29l-.57.92a1.55,1.55,0,0,0-.58-.15,1.58,1.58,0,0,0-1.06.45,2.87,2.87,0,0,0-.77,1.4,13.11,13.11,0,0,0-.2,2.94v2.87h-1.12Z"/><path class="cls-1" d="M262.18,228.29l.92.48a4.79,4.79,0,0,1-1.05,1.44,4,4,0,0,1-1.33.83,4.7,4.7,0,0,1-1.68.29,4.1,4.1,0,0,1-3.26-1.36,4.62,4.62,0,0,1-1.17-3.09,4.55,4.55,0,0,1,1-2.88,4.07,4.07,0,0,1,3.37-1.61,4.18,4.18,0,0,1,3.47,1.65,4.59,4.59,0,0,1,.94,2.91h-7.65a3.5,3.5,0,0,0,1,2.42,3,3,0,0,0,2.26.95,3.69,3.69,0,0,0,1.27-.22,3.42,3.42,0,0,0,1-.6A5.08,5.08,0,0,0,262.18,228.29Zm0-2.29a3.71,3.71,0,0,0-.64-1.4,3,3,0,0,0-1.1-.84,3.33,3.33,0,0,0-1.45-.32,3.13,3.13,0,0,0-2.15.8,3.68,3.68,0,0,0-1,1.76Z"/><path class="cls-1" d="M269.7,223.54l-.71.73a2.51,2.51,0,0,0-1.71-.86,1.3,1.3,0,0,0-.92.36,1.08,1.08,0,0,0-.38.82,1.23,1.23,0,0,0,.32.79,4.53,4.53,0,0,0,1.31.89,4.94,4.94,0,0,1,1.66,1.22,2.21,2.21,0,0,1,.43,1.34,2.38,2.38,0,0,1-.73,1.77,2.5,2.5,0,0,1-1.84.73,3.23,3.23,0,0,1-1.4-.32,3.12,3.12,0,0,1-1.11-.88l.69-.79a2.38,2.38,0,0,0,1.77.95,1.61,1.61,0,0,0,1.12-.42,1.31,1.31,0,0,0,.16-1.83,4.89,4.89,0,0,0-1.38-.91,4.18,4.18,0,0,1-1.56-1.17,2.29,2.29,0,0,1,.24-2.93,2.33,2.33,0,0,1,1.67-.64A3.48,3.48,0,0,1,269.7,223.54Z"/><path class="cls-1" d="M275.91,223.54l-.71.73a2.51,2.51,0,0,0-1.71-.86,1.26,1.26,0,0,0-.91.36,1,1,0,0,0-.38.82,1.22,1.22,0,0,0,.31.79,4.53,4.53,0,0,0,1.31.89,4.94,4.94,0,0,1,1.66,1.22,2.21,2.21,0,0,1,.43,1.34,2.38,2.38,0,0,1-.73,1.77,2.49,2.49,0,0,1-1.84.73,3.23,3.23,0,0,1-1.4-.32,3.12,3.12,0,0,1-1.11-.88l.69-.79a2.38,2.38,0,0,0,1.77.95,1.59,1.59,0,0,0,1.12-.42,1.28,1.28,0,0,0,.16-1.83,4.89,4.89,0,0,0-1.38-.91,4.18,4.18,0,0,1-1.56-1.17,2.29,2.29,0,0,1,.24-2.93,2.33,2.33,0,0,1,1.67-.64A3.46,3.46,0,0,1,275.91,223.54Z"/><path class="cls-1" d="M279.05,229.39a1,1,0,0,1,1,1,1,1,0,0,1-.28.68.94.94,0,0,1-.68.29.92.92,0,0,1-.68-.29.91.91,0,0,1-.28-.68.94.94,0,0,1,.28-.69A1,1,0,0,1,279.05,229.39Z"/><g class="cls-17"><rect class="cls-1" width="300" height="250"/></g></g></g></svg>