<svg xmlns="http://www.w3.org/2000/svg" viewBox="0 0 728 90"><defs><style>.cls-1,.cls-3,.cls-4,.cls-5,.cls-6{fill:none;}.cls-2{fill:#009480;stroke-width:0.73px;}.cls-2,.cls-3,.cls-4,.cls-5,.cls-6{stroke:#f8c100;stroke-miterlimit:10;}.cls-3,.cls-4,.cls-5,.cls-6{stroke-linecap:round;}.cls-3,.cls-4{stroke-width:2.51px;}.cls-4{stroke-dasharray:0.37 5;}.cls-5,.cls-6{stroke-width:2.56px;}.cls-6{stroke-dasharray:0.38 5.12;}.cls-7{fill:#fff;}</style></defs><title>button</title><g id="Layer_2" data-name="Layer 2"><g id="Layer_1-2" data-name="Layer 1"><rect class="cls-1" width="728" height="90"/><rect class="cls-2" x="264.83" y="23.04" width="197.24" height="43.5"/><line class="cls-3" x1="264.6" y1="79.25" x2="264.79" y2="79.25"/><line class="cls-4" x1="269.78" y1="79.25" x2="460.74" y2="79.25"/><line class="cls-3" x1="463.24" y1="79.25" x2="463.43" y2="79.25"/><line class="cls-5" x1="264.6" y1="10.77" x2="264.79" y2="10.77"/><line class="cls-6" x1="269.91" y1="10.77" x2="460.02" y2="10.77"/><line class="cls-5" x1="462.58" y1="10.77" x2="462.77" y2="10.77"/><path class="cls-7" d="M274.34,44.19h5.24V51a15.39,15.39,0,0,1-2.4.58,15.86,15.86,0,0,1-2.3.17A5.81,5.81,0,0,1,270.32,50a7.3,7.3,0,0,1-1.57-5,6.64,6.64,0,0,1,1.83-5,6.91,6.91,0,0,1,5.06-1.78,9.87,9.87,0,0,1,3.92.81l-.93,2.23a6.7,6.7,0,0,0-3-.72,3.71,3.71,0,0,0-2.9,1.22A4.71,4.71,0,0,0,271.63,45a5.25,5.25,0,0,0,.88,3.28,3,3,0,0,0,2.55,1.13,9,9,0,0,0,1.78-.18V46.52h-2.5Z"/><path class="cls-7" d="M289.79,51.6H282.2V38.4h7.59v2.3H285v2.89h4.47v2.29H285v3.4h4.8Z"/><path class="cls-7" d="M297.12,51.6h-2.8V40.73h-3.58V38.4h10v2.33h-3.58Z"/><path class="cls-7" d="M310.6,43.84l2.75-5.44h3L312,46.46V51.6h-2.78V46.55l-4.38-8.15h3Z"/><path class="cls-7" d="M329.48,45a7.16,7.16,0,0,1-1.63,5,7,7,0,0,1-9.31,0A7.22,7.22,0,0,1,316.92,45a7.08,7.08,0,0,1,1.63-5,6.1,6.1,0,0,1,4.67-1.73A6,6,0,0,1,327.87,40,7.17,7.17,0,0,1,329.48,45Zm-9.63,0a5.48,5.48,0,0,0,.84,3.33,2.93,2.93,0,0,0,2.51,1.12q3.35,0,3.35-4.45t-3.33-4.46a3,3,0,0,0-2.52,1.13A5.45,5.45,0,0,0,319.85,45Z"/><path class="cls-7" d="M342.43,38.4v8.54a5,5,0,0,1-.65,2.56,4.26,4.26,0,0,1-1.89,1.69,6.81,6.81,0,0,1-2.93.59A5.6,5.6,0,0,1,333,50.47a4.63,4.63,0,0,1-1.41-3.57V38.4h2.79v8.08a3.39,3.39,0,0,0,.62,2.24,2.55,2.55,0,0,0,2,.71,2.47,2.47,0,0,0,2-.72,3.36,3.36,0,0,0,.62-2.25V38.4Z"/><path class="cls-7" d="M347.94,46.53V51.6h-2.8V38.4H349a6.57,6.57,0,0,1,4,1,3.91,3.91,0,0,1,.65,5,4.28,4.28,0,0,1-1.81,1.42q3,4.44,3.88,5.75h-3.1l-3.15-5.07Zm0-2.27h.9a3.49,3.49,0,0,0,2-.44,1.59,1.59,0,0,0,.63-1.39,1.45,1.45,0,0,0-.64-1.34,4,4,0,0,0-2-.39h-.85Z"/><path class="cls-7" d="M370.22,42.52a4.07,4.07,0,0,1-1.33,3.26,5.71,5.71,0,0,1-3.79,1.12h-1.2v4.7h-2.79V38.4h4.21a5.59,5.59,0,0,1,3.65,1A3.77,3.77,0,0,1,370.22,42.52Zm-6.32,2.09h.92a3,3,0,0,0,1.93-.51,1.77,1.77,0,0,0,.64-1.48,1.8,1.8,0,0,0-.53-1.45,2.48,2.48,0,0,0-1.68-.47H363.9Z"/><path class="cls-7" d="M380.27,51.6l-1-3.14H374.5l-1,3.14h-3l4.66-13.25h3.42l4.67,13.25Zm-1.63-5.49c-.88-2.85-1.38-4.45-1.49-4.83s-.19-.66-.24-.88q-.3,1.16-1.71,5.71Z"/><path class="cls-7" d="M390,40.54a2.85,2.85,0,0,0-2.44,1.19,5.5,5.5,0,0,0-.87,3.31c0,2.94,1.11,4.41,3.31,4.41a10.33,10.33,0,0,0,3.37-.7V51.1a9.36,9.36,0,0,1-3.63.68,5.54,5.54,0,0,1-4.4-1.75,7.36,7.36,0,0,1-1.53-5,8.37,8.37,0,0,1,.75-3.61A5.41,5.41,0,0,1,386.74,39a6.34,6.34,0,0,1,3.28-.82,9,9,0,0,1,3.87.92L393,41.42a14.67,14.67,0,0,0-1.49-.62A4.51,4.51,0,0,0,390,40.54Z"/><path class="cls-7" d="M406.29,51.6h-3.18L399.66,46l-1.19.85V51.6h-2.79V38.4h2.79v6l1.11-1.55,3.57-4.49h3.1l-4.6,5.84Z"/><path class="cls-7" d="M423.41,51.6h-3.55l-5.74-10H414c.11,1.76.17,3,.17,3.77V51.6h-2.5V38.4h3.53L421,48.28H421c-.09-1.71-.13-2.92-.13-3.63V38.4h2.51Z"/><path class="cls-7" d="M438.19,45a7.2,7.2,0,0,1-1.62,5,7,7,0,0,1-9.31,0A7.18,7.18,0,0,1,425.63,45a7.08,7.08,0,0,1,1.63-5,6.1,6.1,0,0,1,4.67-1.73A6,6,0,0,1,436.58,40,7.17,7.17,0,0,1,438.19,45Zm-9.63,0a5.48,5.48,0,0,0,.84,3.33,2.93,2.93,0,0,0,2.51,1.12q3.34,0,3.35-4.45t-3.33-4.46a3,3,0,0,0-2.52,1.13A5.52,5.52,0,0,0,428.56,45Z"/><path class="cls-7" d="M453.25,51.6h-3.18l-1.79-6.93c-.06-.25-.18-.76-.34-1.53s-.25-1.29-.27-1.56c0,.33-.13.85-.27,1.57s-.26,1.23-.34,1.53l-1.77,6.92h-3.18l-3.36-13.2h2.75l1.68,7.2c.3,1.33.51,2.49.65,3.46q0-.51.24-1.59a16.4,16.4,0,0,1,.37-1.68l1.92-7.39H449l1.93,7.39c.08.34.19.84.31,1.52s.22,1.26.29,1.75c.06-.47.16-1.05.29-1.76s.25-1.26.36-1.7l1.68-7.2h2.75Z"/></g></g></svg>