<svg xmlns="http://www.w3.org/2000/svg" viewBox="0 0 728 90"><defs><style>.cls-1,.cls-4,.cls-5,.cls-6,.cls-7{fill:none;}.cls-2{fill:#009580;stroke-width:0.73px;}.cls-2,.cls-4,.cls-5,.cls-6,.cls-7{stroke:#f9c200;stroke-miterlimit:10;}.cls-3{fill:#fff;}.cls-4,.cls-5,.cls-6,.cls-7{stroke-linecap:round;}.cls-4,.cls-5{stroke-width:2.51px;}.cls-5{stroke-dasharray:0.38 5.09;}.cls-6,.cls-7{stroke-width:2.56px;}.cls-7{stroke-dasharray:0.38 5.07;}</style></defs><title>button_4</title><g id="Layer_2" data-name="Layer 2"><g id="Layer_1-2" data-name="Layer 1"><rect class="cls-1" width="728" height="90"/><rect class="cls-2" x="279.37" y="22.12" width="168.32" height="45.51"/><path class="cls-3" d="M290.36,44.85h5.76v7.53a16.49,16.49,0,0,1-2.63.65,17.62,17.62,0,0,1-2.53.18,6.38,6.38,0,0,1-5-1.93,8,8,0,0,1-1.74-5.55,7.33,7.33,0,0,1,2-5.49,7.64,7.64,0,0,1,5.58-2,10.78,10.78,0,0,1,4.32.89l-1,2.46a7.3,7.3,0,0,0-3.31-.79,4.11,4.11,0,0,0-3.2,1.34,5.21,5.21,0,0,0-1.2,3.61,5.77,5.77,0,0,0,1,3.61,3.36,3.36,0,0,0,2.82,1.25,10.09,10.09,0,0,0,1.95-.2v-3h-2.75Z"/><path class="cls-3" d="M306.93,53h-8.37V38.48h8.37V41h-5.29V44.2h4.92v2.52h-4.92v3.75h5.29Z"/><path class="cls-3" d="M315.91,53h-3.08v-12h-3.94V38.48h11v2.57h-3.95Z"/><path class="cls-3" d="M331.9,44.47l3-6h3.32l-4.82,8.88V53h-3.06V47.46l-4.82-9h3.34Z"/><path class="cls-3" d="M353.26,45.73a7.89,7.89,0,0,1-1.79,5.54,7.74,7.74,0,0,1-10.25,0,7.91,7.91,0,0,1-1.79-5.56,7.82,7.82,0,0,1,1.79-5.54,7.84,7.84,0,0,1,10.27,0A7.94,7.94,0,0,1,353.26,45.73Zm-10.6,0a6.09,6.09,0,0,0,.92,3.66,3.23,3.23,0,0,0,2.77,1.24c2.45,0,3.68-1.64,3.68-4.9s-1.22-4.91-3.66-4.91a3.25,3.25,0,0,0-2.78,1.24A6,6,0,0,0,342.66,45.73Z"/><path class="cls-3" d="M368.1,38.48v9.4a5.44,5.44,0,0,1-.72,2.83,4.78,4.78,0,0,1-2.09,1.85,7.43,7.43,0,0,1-3.22.65,6.17,6.17,0,0,1-4.35-1.44,5.08,5.08,0,0,1-1.55-3.93V38.48h3.07v8.9a3.71,3.71,0,0,0,.68,2.46,3.5,3.5,0,0,0,4.43,0,3.79,3.79,0,0,0,.68-2.48V38.48Z"/><path class="cls-3" d="M374.73,47.44V53h-3.08V38.48h4.23a7.26,7.26,0,0,1,4.39,1.08,4.3,4.3,0,0,1,.71,5.56,4.7,4.7,0,0,1-2,1.56c2.18,3.27,3.61,5.38,4.27,6.33h-3.42l-3.47-5.57Zm0-2.51h1a3.82,3.82,0,0,0,2.15-.48,1.74,1.74,0,0,0,.7-1.53,1.59,1.59,0,0,0-.71-1.47,4.24,4.24,0,0,0-2.2-.44h-.94Z"/><path class="cls-3" d="M400.41,43a4.43,4.43,0,0,1-1.47,3.59,6.27,6.27,0,0,1-4.17,1.24h-1.32V53h-3.08V38.48H395a6.17,6.17,0,0,1,4,1.14A4.14,4.14,0,0,1,400.41,43Zm-7,2.31h1a3.41,3.41,0,0,0,2.13-.56,2,2,0,0,0,.71-1.64,2,2,0,0,0-.59-1.6,2.83,2.83,0,0,0-1.86-.51h-1.4Z"/><path class="cls-3" d="M412,53,411,49.55h-5.3L404.64,53h-3.32l5.13-14.59h3.76L415.36,53Zm-1.79-6c-1-3.13-1.52-4.91-1.64-5.32s-.21-.73-.26-1c-.22.85-.85,2.94-1.88,6.29Z"/><path class="cls-3" d="M423.36,40.84a3.11,3.11,0,0,0-2.69,1.31,6,6,0,0,0-1,3.64q0,4.86,3.65,4.86a11.57,11.57,0,0,0,3.71-.77v2.58a10.29,10.29,0,0,1-4,.75,6.1,6.1,0,0,1-4.85-1.92,8.15,8.15,0,0,1-1.68-5.52,9,9,0,0,1,.83-4,6,6,0,0,1,2.37-2.62,7,7,0,0,1,3.62-.9,9.78,9.78,0,0,1,4.25,1l-1,2.5a16.15,16.15,0,0,0-1.64-.67A5,5,0,0,0,423.36,40.84Z"/><path class="cls-3" d="M441.84,53h-3.5l-3.8-6.12-1.3.93V53h-3.08V38.48h3.08v6.65l1.21-1.71,3.93-4.94h3.42l-5.07,6.43Z"/><line class="cls-4" x1="279.18" y1="80.83" x2="279.36" y2="80.83"/><line class="cls-5" x1="284.46" y1="80.83" x2="446.11" y2="80.83"/><line class="cls-4" x1="448.66" y1="80.83" x2="448.85" y2="80.83"/><line class="cls-6" x1="279.18" y1="9.2" x2="279.37" y2="9.2"/><line class="cls-7" x1="284.44" y1="9.2" x2="445.56" y2="9.2"/><line class="cls-6" x1="448.1" y1="9.2" x2="448.29" y2="9.2"/></g></g></svg>