<svg xmlns="http://www.w3.org/2000/svg" xmlns:xlink="http://www.w3.org/1999/xlink" viewBox="0 0 728 90"><defs><style>.cls-1,.cls-10,.cls-11,.cls-12,.cls-13,.cls-14,.cls-15,.cls-16,.cls-17,.cls-18,.cls-19,.cls-2,.cls-20,.cls-21,.cls-22,.cls-23,.cls-24,.cls-25,.cls-26,.cls-27,.cls-28,.cls-29,.cls-3,.cls-30,.cls-31,.cls-32,.cls-33,.cls-34,.cls-35,.cls-36,.cls-37,.cls-38,.cls-39,.cls-4,.cls-40,.cls-41,.cls-42,.cls-43,.cls-44,.cls-45,.cls-5,.cls-6,.cls-7,.cls-8,.cls-9{fill:#fff;}.cls-2{clip-path:url(#clip-path);}.cls-3{clip-path:url(#clip-path-2);}.cls-4{clip-path:url(#clip-path-44);}.cls-5{clip-path:url(#clip-path-3);}.cls-6{clip-path:url(#clip-path-4);}.cls-7{clip-path:url(#clip-path-5);}.cls-8{clip-path:url(#clip-path-6);}.cls-9{clip-path:url(#clip-path-7);}.cls-10{clip-path:url(#clip-path-8);}.cls-11{clip-path:url(#clip-path-9);}.cls-12{clip-path:url(#clip-path-10);}.cls-13{clip-path:url(#clip-path-11);}.cls-14{clip-path:url(#clip-path-12);}.cls-15{clip-path:url(#clip-path-13);}.cls-16{clip-path:url(#clip-path-14);}.cls-17{clip-path:url(#clip-path-15);}.cls-18{clip-path:url(#clip-path-16);}.cls-19{clip-path:url(#clip-path-17);}.cls-20{clip-path:url(#clip-path-18);}.cls-21{clip-path:url(#clip-path-19);}.cls-22{clip-path:url(#clip-path-20);}.cls-23{clip-path:url(#clip-path-21);}.cls-24{clip-path:url(#clip-path-22);}.cls-25{clip-path:url(#clip-path-23);}.cls-26{clip-path:url(#clip-path-24);}.cls-27{clip-path:url(#clip-path-25);}.cls-28{clip-path:url(#clip-path-26);}.cls-29{clip-path:url(#clip-path-27);}.cls-30{clip-path:url(#clip-path-28);}.cls-31{clip-path:url(#clip-path-29);}.cls-32{clip-path:url(#clip-path-30);}.cls-33{clip-path:url(#clip-path-31);}.cls-34{clip-path:url(#clip-path-32);}.cls-35{clip-path:url(#clip-path-33);}.cls-36{clip-path:url(#clip-path-34);}.cls-37{clip-path:url(#clip-path-35);}.cls-38{clip-path:url(#clip-path-36);}.cls-39{clip-path:url(#clip-path-37);}.cls-40{clip-path:url(#clip-path-38);}.cls-41{clip-path:url(#clip-path-39);}.cls-42{clip-path:url(#clip-path-40);}.cls-43{clip-path:url(#clip-path-41);}.cls-44{clip-path:url(#clip-path-42);}.cls-45{clip-path:url(#clip-path-43);}.cls-46{clip-path:url(#clip-path-45);}</style><clipPath id="clip-path"><path class="cls-1" d="M25.48,21.58l-.93-3.06H19.87l-.93,3.06H16L20.54,8.67h3.33l4.55,12.91ZM23.9,16.23q-1.29-4.15-1.45-4.7c-.11-.36-.19-.65-.24-.86q-.29,1.13-1.66,5.56Z"/></clipPath><clipPath id="clip-path-2"><path class="cls-4" d="M166.71,8.73h2.76L165.1,21.58h-3L157.77,8.73h2.75l2.42,7.64c.13.45.27,1,.41,1.58s.24,1,.27,1.25a24.77,24.77,0,0,1,.66-2.83Z"/></clipPath><clipPath id="clip-path-3"><path class="cls-3" d="M181,21.58h-7.4V8.73H181V11h-4.67v2.82h4.35V16h-4.35v3.32H181Z"/></clipPath><clipPath id="clip-path-4"><path class="cls-5" d="M25,40.58h-7.4V27.73H25V30H20.34v2.82h4.35V35H20.34v3.32H25Z"/></clipPath><clipPath id="clip-path-5"><path class="cls-6" d="M35.66,40.58,32.57,30.49h-.08c.11,2.06.16,3.42.16,4.11v6H30.22V27.73h3.71l3,9.82H37l3.23-9.82H44V40.58H41.42V34.49c0-.28,0-.61,0-1s0-1.37.12-3h-.08L38.16,40.58Z"/></clipPath><clipPath id="clip-path-6"><path class="cls-7" d="M57.11,40.58h-7.4V27.73h7.4V30H52.44v2.82h4.35V35H52.44v3.32h4.67Z"/></clipPath><clipPath id="clip-path-7"><path class="cls-8" d="M65,35.64v4.94H62.31V27.73h3.75a6.38,6.38,0,0,1,3.87.95,3.78,3.78,0,0,1,.63,4.91A4.13,4.13,0,0,1,68.8,35c1.93,2.89,3.19,4.75,3.78,5.6h-3l-3.06-4.94Zm0-2.21h.88a3.32,3.32,0,0,0,1.9-.43,1.54,1.54,0,0,0,.62-1.35,1.42,1.42,0,0,0-.63-1.31,3.92,3.92,0,0,0-2-.38H65Z"/></clipPath><clipPath id="clip-path-8"><path class="cls-9" d="M81.59,33.36h5.1V40a14.57,14.57,0,0,1-2.33.57,15,15,0,0,1-2.24.16A5.65,5.65,0,0,1,77.68,39a7.07,7.07,0,0,1-1.54-4.91,6.5,6.5,0,0,1,1.78-4.85,6.77,6.77,0,0,1,4.94-1.74,9.46,9.46,0,0,1,3.81.79l-.9,2.18a6.48,6.48,0,0,0-2.93-.7A3.59,3.59,0,0,0,80,31,4.59,4.59,0,0,0,79,34.19a5.12,5.12,0,0,0,.85,3.19,3,3,0,0,0,2.5,1.1A8.67,8.67,0,0,0,84,38.31V35.63H81.59Z"/></clipPath><clipPath id="clip-path-9"><path class="cls-10" d="M99.67,40.58h-7.4V27.73h7.4V30H95v2.82h4.35V35H95v3.32h4.68Z"/></clipPath><clipPath id="clip-path-10"><path class="cls-11" d="M116.27,40.58h-3.46l-5.59-9.73h-.08c.11,1.72.16,2.95.16,3.68v6h-2.43V27.73h3.44l5.58,9.62H114c-.09-1.67-.13-2.85-.13-3.54V27.73h2.45Z"/></clipPath><clipPath id="clip-path-11"><path class="cls-12" d="M127.48,29.81A2.76,2.76,0,0,0,125.1,31a5.38,5.38,0,0,0-.84,3.22q0,4.29,3.22,4.29a10.2,10.2,0,0,0,3.28-.67v2.28a9.06,9.06,0,0,1-3.53.66,5.4,5.4,0,0,1-4.29-1.7,7.19,7.19,0,0,1-1.49-4.88,8,8,0,0,1,.73-3.51,5.24,5.24,0,0,1,2.1-2.31,6.16,6.16,0,0,1,3.2-.81,8.55,8.55,0,0,1,3.76.91l-.87,2.21a15,15,0,0,0-1.46-.6A4.27,4.27,0,0,0,127.48,29.81Z"/></clipPath><clipPath id="clip-path-12"><path class="cls-2" d="M44,21.58H40.49L34.9,11.85h-.08c.12,1.72.17,3,.17,3.68v6H32.56V8.73H36l5.58,9.62h.07c-.09-1.67-.14-2.85-.14-3.54V8.73H44Z"/></clipPath><clipPath id="clip-path-13"><path class="cls-13" d="M140,33l2.68-5.29h2.94l-4.26,7.84v5h-2.71V35.66l-4.26-7.93h2.95Z"/></clipPath><clipPath id="clip-path-14"><path class="cls-15" d="M157,40.58V27.73h2.73v10.6h5.21v2.25Z"/></clipPath><clipPath id="clip-path-15"><path class="cls-16" d="M169.65,40.58V27.73h2.73V40.58Z"/></clipPath><clipPath id="clip-path-16"><path class="cls-17" d="M183,33.36h5.1V40a14.67,14.67,0,0,1-2.34.57,14.91,14.91,0,0,1-2.23.16A5.67,5.67,0,0,1,179.09,39a7.11,7.11,0,0,1-1.53-4.91,6.46,6.46,0,0,1,1.78-4.85,6.74,6.74,0,0,1,4.93-1.74,9.54,9.54,0,0,1,3.82.79l-.91,2.18a6.41,6.41,0,0,0-2.92-.7A3.57,3.57,0,0,0,181.43,31a4.59,4.59,0,0,0-1.07,3.19,5.12,5.12,0,0,0,.86,3.19,3,3,0,0,0,2.49,1.1,8.53,8.53,0,0,0,1.73-.17V35.63H183Z"/></clipPath><clipPath id="clip-path-17"><path class="cls-18" d="M204.21,40.58H201.5V35h-5.09v5.55h-2.73V27.73h2.73v5h5.09v-5h2.71Z"/></clipPath><clipPath id="clip-path-18"><path class="cls-19" d="M214.93,40.58h-2.72V30h-3.49V27.73h9.7V30h-3.49Z"/></clipPath><clipPath id="clip-path-19"><path class="cls-20" d="M22.58,59.58H19.85V49H16.36V46.73h9.7V49H22.58Z"/></clipPath><clipPath id="clip-path-20"><path class="cls-21" d="M42.22,53.13A7,7,0,0,1,40.64,58a5.85,5.85,0,0,1-4.53,1.71A5.89,5.89,0,0,1,31.57,58,7,7,0,0,1,30,53.12a6.88,6.88,0,0,1,1.59-4.9,5.91,5.91,0,0,1,4.54-1.7,5.86,5.86,0,0,1,4.54,1.71A7,7,0,0,1,42.22,53.13Zm-9.37,0a5.43,5.43,0,0,0,.81,3.25,2.89,2.89,0,0,0,2.45,1.09q3.26,0,3.26-4.34t-3.25-4.34a2.88,2.88,0,0,0-2.45,1.1A5.34,5.34,0,0,0,32.85,53.13Z"/></clipPath><clipPath id="clip-path-21"><path class="cls-22" d="M57.29,59.58H54.6V46.73H62V49H57.29v3.31h4.35V54.5H57.29Z"/></clipPath><clipPath id="clip-path-22"><path class="cls-23" d="M74.87,59.58l-.93-3.06H69.25l-.93,3.06H65.39l4.53-12.91h3.33L77.8,59.58Zm-1.58-5.35-1.46-4.7c-.11-.36-.18-.65-.23-.86-.19.75-.75,2.6-1.66,5.56Z"/></clipPath><clipPath id="clip-path-23"><path class="cls-14" d="M60.37,15a6.35,6.35,0,0,1-1.8,4.86,7.41,7.41,0,0,1-5.22,1.69H49.71V8.73h4a6.78,6.78,0,0,1,4.88,1.66A6.09,6.09,0,0,1,60.37,15Zm-2.83.07q0-4.14-3.65-4.14H52.44v8.37H53.6Q57.54,19.33,57.54,15.1Z"/></clipPath><clipPath id="clip-path-24"><path class="cls-24" d="M87.38,59.58,84.29,49.49h-.08c.11,2.06.17,3.42.17,4.11v6H81.94V46.73h3.71l3,9.82h0L92,46.73h3.71V59.58H93.14V53.49c0-.28,0-.61,0-1s0-1.37.12-3h-.08L89.88,59.58Z"/></clipPath><clipPath id="clip-path-25"><path class="cls-26" d="M101.43,59.58V46.73h2.73V59.58Z"/></clipPath><clipPath id="clip-path-26"><path class="cls-27" d="M109.91,59.58V46.73h2.73v10.6h5.21v2.25Z"/></clipPath><clipPath id="clip-path-27"><path class="cls-28" d="M122.6,59.58V46.73h2.73V59.58Z"/></clipPath><clipPath id="clip-path-28"><path class="cls-29" d="M138.48,59.58h-7.4V46.73h7.4V49H133.8v2.82h4.36V54H133.8v3.32h4.68Z"/></clipPath><clipPath id="clip-path-29"><path class="cls-30" d="M151.27,56A3.31,3.31,0,0,1,150,58.75a5.4,5.4,0,0,1-3.48,1,8.29,8.29,0,0,1-3.64-.77V56.45a14.8,14.8,0,0,0,2.2.81,6.45,6.45,0,0,0,1.65.24,2.34,2.34,0,0,0,1.38-.34,1.17,1.17,0,0,0,.47-1,1.11,1.11,0,0,0-.21-.67,2.17,2.17,0,0,0-.62-.57A15.81,15.81,0,0,0,146.1,54,7.79,7.79,0,0,1,144.33,53a4.16,4.16,0,0,1-.94-1.19A3.44,3.44,0,0,1,143,50.2a3.32,3.32,0,0,1,1.16-2.68,4.79,4.79,0,0,1,3.19-1,7.4,7.4,0,0,1,1.91.24,13.28,13.28,0,0,1,1.91.67l-.88,2.11a12.79,12.79,0,0,0-1.71-.58,5,5,0,0,0-1.32-.17,1.73,1.73,0,0,0-1.18.36,1.17,1.17,0,0,0-.42.94,1.19,1.19,0,0,0,.17.63,1.88,1.88,0,0,0,.53.52,19.24,19.24,0,0,0,1.73.9,6.84,6.84,0,0,1,2.47,1.73A3.38,3.38,0,0,1,151.27,56Z"/></clipPath><clipPath id="clip-path-30"><path class="cls-31" d="M168.27,59.58h-2.73V49h-3.49V46.73h9.71V49h-3.49Z"/></clipPath><clipPath id="clip-path-31"><path class="cls-32" d="M186.78,59.58h-2.71V54H179v5.55h-2.73V46.73H179v5h5.09v-5h2.71Z"/></clipPath><clipPath id="clip-path-32"><path class="cls-33" d="M192.55,59.58V46.73h2.72V59.58Z"/></clipPath><clipPath id="clip-path-33"><path class="cls-34" d="M208.61,56a3.33,3.33,0,0,1-1.25,2.74,5.45,5.45,0,0,1-3.49,1,8.21,8.21,0,0,1-3.63-.77V56.45a14.41,14.41,0,0,0,2.2.81,6.44,6.44,0,0,0,1.64.24,2.34,2.34,0,0,0,1.38-.34,1.18,1.18,0,0,0,.48-1,1.11,1.11,0,0,0-.21-.67,2.31,2.31,0,0,0-.62-.57,16.32,16.32,0,0,0-1.67-.87A7.92,7.92,0,0,1,201.68,53a3.84,3.84,0,0,1-.94-1.19,3.67,3.67,0,0,1,.8-4.26,4.82,4.82,0,0,1,3.2-1,7.52,7.52,0,0,1,1.91.24,13.18,13.18,0,0,1,1.9.67l-.88,2.11A12.27,12.27,0,0,0,206,49a5.09,5.09,0,0,0-1.32-.17,1.76,1.76,0,0,0-1.19.36,1.2,1.2,0,0,0-.41.94,1.18,1.18,0,0,0,.16.63,1.93,1.93,0,0,0,.54.52c.24.16.82.46,1.72.9a6.75,6.75,0,0,1,2.47,1.73A3.32,3.32,0,0,1,208.61,56Z"/></clipPath><clipPath id="clip-path-34"><path class="cls-25" d="M83.28,21.58H80.56V16H75.48v5.55H72.75V8.73h2.73v5h5.08v-5h2.72Z"/></clipPath><clipPath id="clip-path-35"><path class="cls-35" d="M30.13,78.58H27l-1.74-6.75c-.06-.24-.17-.74-.33-1.49s-.24-1.26-.27-1.52c0,.32-.12.82-.26,1.52s-.25,1.2-.33,1.5l-1.73,6.74H19.28L16,65.73h2.68l1.65,7c.28,1.29.49,2.42.62,3.37,0-.34.11-.85.24-1.56s.25-1.24.36-1.63l1.87-7.19H26l1.88,7.19c.08.33.18.82.3,1.48s.22,1.23.29,1.71c.05-.46.15-1,.28-1.71s.24-1.24.35-1.66l1.63-7H33.4Z"/></clipPath><clipPath id="clip-path-36"><path class="cls-37" d="M37.54,78.58V65.73h2.73V78.58Z"/></clipPath><clipPath id="clip-path-37"><path class="cls-38" d="M57.42,78.58H54l-5.59-9.73h-.08c.11,1.72.16,3,.16,3.68v6H46V65.73h3.44L55,75.35h.06C55,73.68,55,72.5,55,71.81V65.73h2.45Z"/></clipPath><clipPath id="clip-path-38"><path class="cls-39" d="M68.13,78.58H65.41V68H61.92V65.73h9.7V68H68.13Z"/></clipPath><clipPath id="clip-path-39"><path class="cls-40" d="M83.52,78.58h-7.4V65.73h7.4V68H78.84v2.82h4.35V73H78.84v3.32h4.68Z"/></clipPath><clipPath id="clip-path-40"><path class="cls-36" d="M96.44,21.58H89V8.73h7.4V11H91.77v2.82h4.35V16H91.77v3.32h4.67Z"/></clipPath><clipPath id="clip-path-41"><path class="cls-42" d="M101.64,21.58V8.73h2.73v10.6h5.21v2.25Z"/></clipPath><clipPath id="clip-path-42"><path class="cls-43" d="M123.21,12.73a3.93,3.93,0,0,1-1.3,3.18,5.54,5.54,0,0,1-3.68,1.1h-1.17v4.57h-2.73V8.73h4.11a5.44,5.44,0,0,1,3.55,1A3.67,3.67,0,0,1,123.21,12.73Zm-6.15,2h.9a3,3,0,0,0,1.88-.49,1.76,1.76,0,0,0,.62-1.45,1.76,1.76,0,0,0-.52-1.41A2.43,2.43,0,0,0,118.3,11h-1.24Z"/></clipPath><clipPath id="clip-path-43"><path class="cls-44" d="M140.23,14.36h5.1V21a14.67,14.67,0,0,1-2.34.57,14.91,14.91,0,0,1-2.23.16A5.68,5.68,0,0,1,136.31,20a7.11,7.11,0,0,1-1.53-4.91,6.46,6.46,0,0,1,1.78-4.85,6.77,6.77,0,0,1,4.94-1.74,9.49,9.49,0,0,1,3.81.79l-.91,2.18a6.41,6.41,0,0,0-2.92-.7A3.59,3.59,0,0,0,138.65,12a4.59,4.59,0,0,0-1.07,3.19,5.12,5.12,0,0,0,.86,3.19,3,3,0,0,0,2.49,1.1,8.53,8.53,0,0,0,1.73-.17V16.63h-2.43Z"/></clipPath><clipPath id="clip-path-44"><path class="cls-45" d="M150.91,21.58V8.73h2.72V21.58Z"/></clipPath><clipPath id="clip-path-45"><path class="cls-41" d="M91.44,73.64v4.94H88.72V65.73h3.74a6.39,6.39,0,0,1,3.88,1A3.78,3.78,0,0,1,97,71.59,4.19,4.19,0,0,1,95.21,73c1.93,2.89,3.19,4.75,3.77,5.6H96l-3.07-4.94Zm0-2.21h.88A3.35,3.35,0,0,0,94.23,71a1.54,1.54,0,0,0,.61-1.35,1.44,1.44,0,0,0-.62-1.31,3.92,3.92,0,0,0-2-.38h-.83Z"/></clipPath></defs><title>text3_2</title><g id="Layer_2" data-name="Layer 2"><g id="Layer_1-2" data-name="Layer 1"><path class="cls-1" d="M25.48,21.58l-.93-3.06H19.87l-.93,3.06H16L20.54,8.67h3.33l4.55,12.91ZM23.9,16.23q-1.29-4.15-1.45-4.7c-.11-.36-.19-.65-.24-.86q-.29,1.13-1.66,5.56Z"/><path class="cls-1" d="M44,21.58H40.49L34.9,11.85h-.08c.12,1.72.17,3,.17,3.68v6H32.56V8.73H36l5.58,9.62h.07c-.09-1.67-.14-2.85-.14-3.54V8.73H44Z"/><path class="cls-1" d="M60.37,15a6.35,6.35,0,0,1-1.8,4.86,7.41,7.41,0,0,1-5.22,1.69H49.71V8.73h4a6.78,6.78,0,0,1,4.88,1.66A6.09,6.09,0,0,1,60.37,15Zm-2.83.07q0-4.14-3.65-4.14H52.44v8.37H53.6Q57.54,19.33,57.54,15.1Z"/><path class="cls-1" d="M83.28,21.58H80.56V16H75.48v5.55H72.75V8.73h2.73v5h5.08v-5h2.72Z"/><path class="cls-1" d="M96.44,21.58H89V8.73h7.4V11H91.77v2.82h4.35V16H91.77v3.32h4.67Z"/><path class="cls-1" d="M101.64,21.58V8.73h2.73v10.6h5.21v2.25Z"/><path class="cls-1" d="M123.21,12.73a3.93,3.93,0,0,1-1.3,3.18,5.54,5.54,0,0,1-3.68,1.1h-1.17v4.57h-2.73V8.73h4.11a5.44,5.44,0,0,1,3.55,1A3.67,3.67,0,0,1,123.21,12.73Zm-6.15,2h.9a3,3,0,0,0,1.88-.49,1.76,1.76,0,0,0,.62-1.45,1.76,1.76,0,0,0-.52-1.41A2.43,2.43,0,0,0,118.3,11h-1.24Z"/><path class="cls-1" d="M140.23,14.36h5.1V21a14.67,14.67,0,0,1-2.34.57,14.91,14.91,0,0,1-2.23.16A5.68,5.68,0,0,1,136.31,20a7.11,7.11,0,0,1-1.53-4.91,6.46,6.46,0,0,1,1.78-4.85,6.77,6.77,0,0,1,4.94-1.74,9.49,9.49,0,0,1,3.81.79l-.91,2.18a6.41,6.41,0,0,0-2.92-.7A3.59,3.59,0,0,0,138.65,12a4.59,4.59,0,0,0-1.07,3.19,5.12,5.12,0,0,0,.86,3.19,3,3,0,0,0,2.49,1.1,8.53,8.53,0,0,0,1.73-.17V16.63h-2.43Z"/><path class="cls-1" d="M150.91,21.58V8.73h2.72V21.58Z"/><path class="cls-1" d="M166.71,8.73h2.76L165.1,21.58h-3L157.77,8.73h2.75l2.42,7.64c.13.45.27,1,.41,1.58s.24,1,.27,1.25a24.77,24.77,0,0,1,.66-2.83Z"/><path class="cls-1" d="M181,21.58h-7.4V8.73H181V11h-4.67v2.82h4.35V16h-4.35v3.32H181Z"/><path class="cls-1" d="M25,40.58h-7.4V27.73H25V30H20.34v2.82h4.35V35H20.34v3.32H25Z"/><path class="cls-1" d="M35.66,40.58,32.57,30.49h-.08c.11,2.06.16,3.42.16,4.11v6H30.22V27.73h3.71l3,9.82H37l3.23-9.82H44V40.58H41.42V34.49c0-.28,0-.61,0-1s0-1.37.12-3h-.08L38.16,40.58Z"/><path class="cls-1" d="M57.11,40.58h-7.4V27.73h7.4V30H52.44v2.82h4.35V35H52.44v3.32h4.67Z"/><path class="cls-1" d="M65,35.64v4.94H62.31V27.73h3.75a6.38,6.38,0,0,1,3.87.95,3.78,3.78,0,0,1,.63,4.91A4.13,4.13,0,0,1,68.8,35c1.93,2.89,3.19,4.75,3.78,5.6h-3l-3.06-4.94Zm0-2.21h.88a3.32,3.32,0,0,0,1.9-.43,1.54,1.54,0,0,0,.62-1.35,1.42,1.42,0,0,0-.63-1.31,3.92,3.92,0,0,0-2-.38H65Z"/><path class="cls-1" d="M81.59,33.36h5.1V40a14.57,14.57,0,0,1-2.33.57,15,15,0,0,1-2.24.16A5.65,5.65,0,0,1,77.68,39a7.07,7.07,0,0,1-1.54-4.91,6.5,6.5,0,0,1,1.78-4.85,6.77,6.77,0,0,1,4.94-1.74,9.46,9.46,0,0,1,3.81.79l-.9,2.18a6.48,6.48,0,0,0-2.93-.7A3.59,3.59,0,0,0,80,31,4.59,4.59,0,0,0,79,34.19a5.12,5.12,0,0,0,.85,3.19,3,3,0,0,0,2.5,1.1A8.67,8.67,0,0,0,84,38.31V35.63H81.59Z"/><path class="cls-1" d="M99.67,40.58h-7.4V27.73h7.4V30H95v2.82h4.35V35H95v3.32h4.68Z"/><path class="cls-1" d="M116.27,40.58h-3.46l-5.59-9.73h-.08c.11,1.72.16,2.95.16,3.68v6h-2.43V27.73h3.44l5.58,9.62H114c-.09-1.67-.13-2.85-.13-3.54V27.73h2.45Z"/><path class="cls-1" d="M127.48,29.81A2.76,2.76,0,0,0,125.1,31a5.38,5.38,0,0,0-.84,3.22q0,4.29,3.22,4.29a10.2,10.2,0,0,0,3.28-.67v2.28a9.06,9.06,0,0,1-3.53.66,5.4,5.4,0,0,1-4.29-1.7,7.19,7.19,0,0,1-1.49-4.88,8,8,0,0,1,.73-3.51,5.24,5.24,0,0,1,2.1-2.31,6.16,6.16,0,0,1,3.2-.81,8.55,8.55,0,0,1,3.76.91l-.87,2.21a15,15,0,0,0-1.46-.6A4.27,4.27,0,0,0,127.48,29.81Z"/><path class="cls-1" d="M140,33l2.68-5.29h2.94l-4.26,7.84v5h-2.71V35.66l-4.26-7.93h2.95Z"/><path class="cls-1" d="M157,40.58V27.73h2.73v10.6h5.21v2.25Z"/><path class="cls-1" d="M169.65,40.58V27.73h2.73V40.58Z"/><path class="cls-1" d="M183,33.36h5.1V40a14.67,14.67,0,0,1-2.34.57,14.91,14.91,0,0,1-2.23.16A5.67,5.67,0,0,1,179.09,39a7.11,7.11,0,0,1-1.53-4.91,6.46,6.46,0,0,1,1.78-4.85,6.74,6.74,0,0,1,4.93-1.74,9.54,9.54,0,0,1,3.82.79l-.91,2.18a6.41,6.41,0,0,0-2.92-.7A3.57,3.57,0,0,0,181.43,31a4.59,4.59,0,0,0-1.07,3.19,5.12,5.12,0,0,0,.86,3.19,3,3,0,0,0,2.49,1.1,8.53,8.53,0,0,0,1.73-.17V35.63H183Z"/><path class="cls-1" d="M204.21,40.58H201.5V35h-5.09v5.55h-2.73V27.73h2.73v5h5.09v-5h2.71Z"/><path class="cls-1" d="M214.93,40.58h-2.72V30h-3.49V27.73h9.7V30h-3.49Z"/><path class="cls-1" d="M22.58,59.58H19.85V49H16.36V46.73h9.7V49H22.58Z"/><path class="cls-1" d="M42.22,53.13A7,7,0,0,1,40.64,58a5.85,5.85,0,0,1-4.53,1.71A5.89,5.89,0,0,1,31.57,58,7,7,0,0,1,30,53.12a6.88,6.88,0,0,1,1.59-4.9,5.91,5.91,0,0,1,4.54-1.7,5.86,5.86,0,0,1,4.54,1.71A7,7,0,0,1,42.22,53.13Zm-9.37,0a5.43,5.43,0,0,0,.81,3.25,2.89,2.89,0,0,0,2.45,1.09q3.26,0,3.26-4.34t-3.25-4.34a2.88,2.88,0,0,0-2.45,1.1A5.34,5.34,0,0,0,32.85,53.13Z"/><path class="cls-1" d="M57.29,59.58H54.6V46.73H62V49H57.29v3.31h4.35V54.5H57.29Z"/><path class="cls-1" d="M74.87,59.58l-.93-3.06H69.25l-.93,3.06H65.39l4.53-12.91h3.33L77.8,59.58Zm-1.58-5.35-1.46-4.7c-.11-.36-.18-.65-.23-.86-.19.75-.75,2.6-1.66,5.56Z"/><path class="cls-1" d="M87.38,59.58,84.29,49.49h-.08c.11,2.06.17,3.42.17,4.11v6H81.94V46.73h3.71l3,9.82h0L92,46.73h3.71V59.58H93.14V53.49c0-.28,0-.61,0-1s0-1.37.12-3h-.08L89.88,59.58Z"/><path class="cls-1" d="M101.43,59.58V46.73h2.73V59.58Z"/><path class="cls-1" d="M109.91,59.58V46.73h2.73v10.6h5.21v2.25Z"/><path class="cls-1" d="M122.6,59.58V46.73h2.73V59.58Z"/><path class="cls-1" d="M138.48,59.58h-7.4V46.73h7.4V49H133.8v2.82h4.36V54H133.8v3.32h4.68Z"/><path class="cls-1" d="M151.27,56A3.31,3.31,0,0,1,150,58.75a5.4,5.4,0,0,1-3.48,1,8.29,8.29,0,0,1-3.64-.77V56.45a14.8,14.8,0,0,0,2.2.81,6.45,6.45,0,0,0,1.65.24,2.34,2.34,0,0,0,1.38-.34,1.17,1.17,0,0,0,.47-1,1.11,1.11,0,0,0-.21-.67,2.17,2.17,0,0,0-.62-.57A15.81,15.81,0,0,0,146.1,54,7.79,7.79,0,0,1,144.33,53a4.16,4.16,0,0,1-.94-1.19A3.44,3.44,0,0,1,143,50.2a3.32,3.32,0,0,1,1.16-2.68,4.79,4.79,0,0,1,3.19-1,7.4,7.4,0,0,1,1.91.24,13.28,13.28,0,0,1,1.91.67l-.88,2.11a12.79,12.79,0,0,0-1.71-.58,5,5,0,0,0-1.32-.17,1.73,1.73,0,0,0-1.18.36,1.17,1.17,0,0,0-.42.94,1.19,1.19,0,0,0,.17.63,1.88,1.88,0,0,0,.53.52,19.24,19.24,0,0,0,1.73.9,6.84,6.84,0,0,1,2.47,1.73A3.38,3.38,0,0,1,151.27,56Z"/><path class="cls-1" d="M168.27,59.58h-2.73V49h-3.49V46.73h9.71V49h-3.49Z"/><path class="cls-1" d="M186.78,59.58h-2.71V54H179v5.55h-2.73V46.73H179v5h5.09v-5h2.71Z"/><path class="cls-1" d="M192.55,59.58V46.73h2.72V59.58Z"/><path class="cls-1" d="M208.61,56a3.33,3.33,0,0,1-1.25,2.74,5.45,5.45,0,0,1-3.49,1,8.21,8.21,0,0,1-3.63-.77V56.45a14.41,14.41,0,0,0,2.2.81,6.44,6.44,0,0,0,1.64.24,2.34,2.34,0,0,0,1.38-.34,1.18,1.18,0,0,0,.48-1,1.11,1.11,0,0,0-.21-.67,2.31,2.31,0,0,0-.62-.57,16.32,16.32,0,0,0-1.67-.87A7.92,7.92,0,0,1,201.68,53a3.84,3.84,0,0,1-.94-1.19,3.67,3.67,0,0,1,.8-4.26,4.82,4.82,0,0,1,3.2-1,7.52,7.52,0,0,1,1.91.24,13.18,13.18,0,0,1,1.9.67l-.88,2.11A12.27,12.27,0,0,0,206,49a5.09,5.09,0,0,0-1.32-.17,1.76,1.76,0,0,0-1.19.36,1.2,1.2,0,0,0-.41.94,1.18,1.18,0,0,0,.16.63,1.93,1.93,0,0,0,.54.52c.24.16.82.46,1.72.9a6.75,6.75,0,0,1,2.47,1.73A3.32,3.32,0,0,1,208.61,56Z"/><path class="cls-1" d="M30.13,78.58H27l-1.74-6.75c-.06-.24-.17-.74-.33-1.49s-.24-1.26-.27-1.52c0,.32-.12.82-.26,1.52s-.25,1.2-.33,1.5l-1.73,6.74H19.28L16,65.73h2.68l1.65,7c.28,1.29.49,2.42.62,3.37,0-.34.11-.85.24-1.56s.25-1.24.36-1.63l1.87-7.19H26l1.88,7.19c.08.33.18.82.3,1.48s.22,1.23.29,1.71c.05-.46.15-1,.28-1.71s.24-1.24.35-1.66l1.63-7H33.4Z"/><path class="cls-1" d="M37.54,78.58V65.73h2.73V78.58Z"/><path class="cls-1" d="M57.42,78.58H54l-5.59-9.73h-.08c.11,1.72.16,3,.16,3.68v6H46V65.73h3.44L55,75.35h.06C55,73.68,55,72.5,55,71.81V65.73h2.45Z"/><path class="cls-1" d="M68.13,78.58H65.41V68H61.92V65.73h9.7V68H68.13Z"/><path class="cls-1" d="M83.52,78.58h-7.4V65.73h7.4V68H78.84v2.82h4.35V73H78.84v3.32h4.68Z"/><path class="cls-1" d="M91.44,73.64v4.94H88.72V65.73h3.74a6.39,6.39,0,0,1,3.88,1A3.78,3.78,0,0,1,97,71.59,4.19,4.19,0,0,1,95.21,73c1.93,2.89,3.19,4.75,3.77,5.6H96l-3.07-4.94Zm0-2.21h.88A3.35,3.35,0,0,0,94.23,71a1.54,1.54,0,0,0,.61-1.35,1.44,1.44,0,0,0-.62-1.31,3.92,3.92,0,0,0-2-.38h-.83Z"/><g class="cls-46"><rect class="cls-1" width="728" height="90"/></g></g></g></svg>