<svg xmlns="http://www.w3.org/2000/svg" xmlns:xlink="http://www.w3.org/1999/xlink" viewBox="0 0 728 90"><defs><style>.cls-1,.cls-10,.cls-11,.cls-12,.cls-13,.cls-14,.cls-15,.cls-16,.cls-17,.cls-18,.cls-19,.cls-2,.cls-20,.cls-21,.cls-22,.cls-23,.cls-24,.cls-25,.cls-26,.cls-27,.cls-28,.cls-29,.cls-3,.cls-30,.cls-31,.cls-32,.cls-33,.cls-34,.cls-35,.cls-36,.cls-37,.cls-38,.cls-39,.cls-4,.cls-40,.cls-41,.cls-42,.cls-43,.cls-44,.cls-45,.cls-46,.cls-47,.cls-48,.cls-49,.cls-5,.cls-50,.cls-51,.cls-52,.cls-53,.cls-54,.cls-55,.cls-56,.cls-57,.cls-58,.cls-59,.cls-6,.cls-60,.cls-7,.cls-8,.cls-9{fill:#fff;}.cls-2{clip-path:url(#clip-path);}.cls-3{clip-path:url(#clip-path-2);}.cls-4{clip-path:url(#clip-path-59);}.cls-5{clip-path:url(#clip-path-3);}.cls-6{clip-path:url(#clip-path-4);}.cls-7{clip-path:url(#clip-path-5);}.cls-8{clip-path:url(#clip-path-6);}.cls-9{clip-path:url(#clip-path-7);}.cls-10{clip-path:url(#clip-path-8);}.cls-11{clip-path:url(#clip-path-9);}.cls-12{clip-path:url(#clip-path-10);}.cls-13{clip-path:url(#clip-path-11);}.cls-14{clip-path:url(#clip-path-12);}.cls-15{clip-path:url(#clip-path-13);}.cls-16{clip-path:url(#clip-path-14);}.cls-17{clip-path:url(#clip-path-15);}.cls-18{clip-path:url(#clip-path-16);}.cls-19{clip-path:url(#clip-path-17);}.cls-20{clip-path:url(#clip-path-18);}.cls-21{clip-path:url(#clip-path-19);}.cls-22{clip-path:url(#clip-path-20);}.cls-23{clip-path:url(#clip-path-21);}.cls-24{clip-path:url(#clip-path-22);}.cls-25{clip-path:url(#clip-path-23);}.cls-26{clip-path:url(#clip-path-24);}.cls-27{clip-path:url(#clip-path-25);}.cls-28{clip-path:url(#clip-path-26);}.cls-29{clip-path:url(#clip-path-27);}.cls-30{clip-path:url(#clip-path-28);}.cls-31{clip-path:url(#clip-path-29);}.cls-32{clip-path:url(#clip-path-30);}.cls-33{clip-path:url(#clip-path-31);}.cls-34{clip-path:url(#clip-path-32);}.cls-35{clip-path:url(#clip-path-33);}.cls-36{clip-path:url(#clip-path-34);}.cls-37{clip-path:url(#clip-path-35);}.cls-38{clip-path:url(#clip-path-36);}.cls-39{clip-path:url(#clip-path-37);}.cls-40{clip-path:url(#clip-path-38);}.cls-41{clip-path:url(#clip-path-39);}.cls-42{clip-path:url(#clip-path-40);}.cls-43{clip-path:url(#clip-path-41);}.cls-44{clip-path:url(#clip-path-42);}.cls-45{clip-path:url(#clip-path-43);}.cls-46{clip-path:url(#clip-path-44);}.cls-47{clip-path:url(#clip-path-45);}.cls-48{clip-path:url(#clip-path-46);}.cls-49{clip-path:url(#clip-path-47);}.cls-50{clip-path:url(#clip-path-48);}.cls-51{clip-path:url(#clip-path-49);}.cls-52{clip-path:url(#clip-path-50);}.cls-53{clip-path:url(#clip-path-51);}.cls-54{clip-path:url(#clip-path-52);}.cls-55{clip-path:url(#clip-path-53);}.cls-56{clip-path:url(#clip-path-54);}.cls-57{clip-path:url(#clip-path-55);}.cls-58{clip-path:url(#clip-path-56);}.cls-59{clip-path:url(#clip-path-57);}.cls-60{clip-path:url(#clip-path-58);}.cls-61{clip-path:url(#clip-path-60);}</style><clipPath id="clip-path"><path class="cls-1" d="M32.21,22.94H29.49V12.36H26V10.09h9.7v2.27H32.21Z"/></clipPath><clipPath id="clip-path-2"><path class="cls-4" d="M147.53,22.94V10.09h2.72V22.94Z"/></clipPath><clipPath id="clip-path-3"><path class="cls-3" d="M156,22.94V10.09h2.72v10.6h5.21v2.25Z"/></clipPath><clipPath id="clip-path-4"><path class="cls-5" d="M168.7,22.94V10.09h2.72v10.6h5.21v2.25Z"/></clipPath><clipPath id="clip-path-5"><path class="cls-6" d="M193.54,22.94h-2.73V12.36h-3.49V10.09H197v2.27h-3.49Z"/></clipPath><clipPath id="clip-path-6"><path class="cls-7" d="M201.52,22.94V10.09h2.73V22.94Z"/></clipPath><clipPath id="clip-path-7"><path class="cls-8" d="M215.44,22.94l-3.09-10.08h-.08c.11,2.05.17,3.42.17,4.1v6H210V10.09h3.71l3,9.82h.06L220,10.09h3.71V22.94H221.2V16.86c0-.29,0-.62,0-1s0-1.37.12-3h-.08l-3.31,10.07Z"/></clipPath><clipPath id="clip-path-8"><path class="cls-9" d="M236.9,22.94h-7.4V10.09h7.4v2.23h-4.68v2.82h4.35v2.23h-4.35v3.32h4.68Z"/></clipPath><clipPath id="clip-path-9"><path class="cls-10" d="M254.25,22.94h-2.73V12.36H248V10.09h9.7v2.27h-3.49Z"/></clipPath><clipPath id="clip-path-10"><path class="cls-11" d="M273.9,16.5a7,7,0,0,1-1.58,4.9,6.87,6.87,0,0,1-9.07,0,7,7,0,0,1-1.58-4.92,6.89,6.89,0,0,1,1.58-4.9,5.94,5.94,0,0,1,4.55-1.69,5.83,5.83,0,0,1,4.53,1.7A7,7,0,0,1,273.9,16.5Zm-9.38,0a5.34,5.34,0,0,0,.82,3.24,2.84,2.84,0,0,0,2.44,1.09c2.18,0,3.26-1.45,3.26-4.33s-1.08-4.35-3.24-4.35a2.88,2.88,0,0,0-2.45,1.1A5.35,5.35,0,0,0,264.52,16.5Z"/></clipPath><clipPath id="clip-path-11"><path class="cls-12" d="M37.79,41.94H35.07V36.39H30v5.55H27.26V29.09H30v5h5.09v-5h2.72Z"/></clipPath><clipPath id="clip-path-12"><path class="cls-2" d="M50.73,22.94H48V17.39H42.93v5.55H40.2V10.09h2.73v5H48v-5h2.72Z"/></clipPath><clipPath id="clip-path-13"><path class="cls-13" d="M51,41.94h-7.4V29.09H51v2.23H46.27v2.82h4.35v2.23H46.27v3.32H51Z"/></clipPath><clipPath id="clip-path-14"><path class="cls-15" d="M56.15,41.94V29.09h2.73v10.6h5.21v2.25Z"/></clipPath><clipPath id="clip-path-15"><path class="cls-16" d="M77.72,33.1a3.94,3.94,0,0,1-1.3,3.17,5.55,5.55,0,0,1-3.69,1.1H71.56v4.57H68.84V29.09h4.1a5.42,5.42,0,0,1,3.56,1A3.67,3.67,0,0,1,77.72,33.1Zm-6.16,2h.9a3,3,0,0,0,1.88-.5A1.72,1.72,0,0,0,75,33.19a1.76,1.76,0,0,0-.52-1.41,2.42,2.42,0,0,0-1.64-.46H71.56Z"/></clipPath><clipPath id="clip-path-16"><path class="cls-17" d="M94.74,34.72h5.09v6.66A14.31,14.31,0,0,1,97.5,42a15,15,0,0,1-2.24.16,5.65,5.65,0,0,1-4.44-1.71,7.09,7.09,0,0,1-1.53-4.9,6.47,6.47,0,0,1,1.78-4.86A6.74,6.74,0,0,1,96,28.9a9.72,9.72,0,0,1,3.82.79l-.91,2.18a6.58,6.58,0,0,0-2.93-.7,3.63,3.63,0,0,0-2.83,1.19,4.63,4.63,0,0,0-1.06,3.19A5.12,5.12,0,0,0,93,38.74a3,3,0,0,0,2.49,1.11,8.62,8.62,0,0,0,1.73-.18V37H94.74Z"/></clipPath><clipPath id="clip-path-17"><path class="cls-18" d="M105.41,41.94V29.09h2.73V41.94Z"/></clipPath><clipPath id="clip-path-18"><path class="cls-19" d="M121.22,29.09H124L119.6,41.94h-3l-4.36-12.85H115l2.41,7.64c.14.46.28,1,.42,1.58s.23,1,.27,1.25a21.34,21.34,0,0,1,.66-2.83Z"/></clipPath><clipPath id="clip-path-19"><path class="cls-20" d="M135.51,41.94h-7.4V29.09h7.4v2.23h-4.68v2.82h4.35v2.23h-4.35v3.32h4.68Z"/></clipPath><clipPath id="clip-path-20"><path class="cls-21" d="M155.31,41.94h-7.4V29.09h7.4v2.23h-4.68v2.82H155v2.23h-4.35v3.32h4.68Z"/></clipPath><clipPath id="clip-path-21"><path class="cls-22" d="M166,41.94l-3.1-10.08h-.07c.11,2,.16,3.42.16,4.1v6h-2.43V29.09h3.71l3,9.82h.05l3.23-9.82h3.7V41.94h-2.53V35.86c0-.29,0-.62,0-1s.05-1.37.12-3h-.08l-3.32,10.07Z"/></clipPath><clipPath id="clip-path-22"><path class="cls-23" d="M187.4,41.94H180V29.09h7.4v2.23h-4.68v2.82h4.35v2.23h-4.35v3.32h4.68Z"/></clipPath><clipPath id="clip-path-23"><path class="cls-14" d="M63.89,22.94h-7.4V10.09h7.4v2.23H59.22v2.82h4.35v2.23H59.22v3.32h4.67Z"/></clipPath><clipPath id="clip-path-24"><path class="cls-24" d="M195.32,37v4.93H192.6V29.09h3.74a6.46,6.46,0,0,1,3.88.95,3.41,3.41,0,0,1,1.26,2.9,3.36,3.36,0,0,1-.63,2,4.06,4.06,0,0,1-1.76,1.39c1.93,2.89,3.19,4.75,3.78,5.6h-3L196.77,37Zm0-2.22h.88a3.35,3.35,0,0,0,1.91-.43,1.54,1.54,0,0,0,.62-1.35,1.41,1.41,0,0,0-.63-1.3,3.8,3.8,0,0,0-1.95-.39h-.83Z"/></clipPath><clipPath id="clip-path-25"><path class="cls-26" d="M211.88,34.72H217v6.66a14.83,14.83,0,0,1-2.33.57,15,15,0,0,1-2.24.16A5.65,5.65,0,0,1,208,40.4a7,7,0,0,1-1.54-4.9,6.47,6.47,0,0,1,1.78-4.86,6.77,6.77,0,0,1,4.94-1.74,9.67,9.67,0,0,1,3.81.79l-.9,2.18a6.61,6.61,0,0,0-2.93-.7,3.62,3.62,0,0,0-2.83,1.19,4.59,4.59,0,0,0-1.06,3.19,5.12,5.12,0,0,0,.85,3.19,3,3,0,0,0,2.49,1.11,8.72,8.72,0,0,0,1.74-.18V37h-2.44Z"/></clipPath><clipPath id="clip-path-26"><path class="cls-27" d="M230,41.94h-7.4V29.09H230v2.23h-4.68v2.82h4.35v2.23h-4.35v3.32H230Z"/></clipPath><clipPath id="clip-path-27"><path class="cls-28" d="M246.56,41.94h-3.47l-5.59-9.72h-.07c.11,1.71.16,2.94.16,3.67v6h-2.43V29.09h3.43l5.59,9.62h.06c-.09-1.67-.13-2.85-.13-3.54V29.09h2.45Z"/></clipPath><clipPath id="clip-path-28"><path class="cls-29" d="M257.77,31.17a2.77,2.77,0,0,0-2.38,1.16,5.38,5.38,0,0,0-.85,3.22c0,2.86,1.08,4.3,3.23,4.3a10.3,10.3,0,0,0,3.28-.68v2.28a9.11,9.11,0,0,1-3.54.66,5.36,5.36,0,0,1-4.28-1.7,7.19,7.19,0,0,1-1.49-4.88,7.89,7.89,0,0,1,.73-3.51,5.24,5.24,0,0,1,2.1-2.31,6.14,6.14,0,0,1,3.2-.81,8.69,8.69,0,0,1,3.76.91L260.65,32c-.48-.22-1-.42-1.45-.59A4.28,4.28,0,0,0,257.77,31.17Z"/></clipPath><clipPath id="clip-path-29"><path class="cls-30" d="M270.3,34.38,273,29.09h2.94l-4.27,7.85v5H269V37l-4.27-7.93h3Z"/></clipPath><clipPath id="clip-path-30"><path class="cls-31" d="M27.26,60.94V48.09H30v10.6h5.21v2.25Z"/></clipPath><clipPath id="clip-path-31"><path class="cls-32" d="M40,60.94V48.09h2.72V60.94Z"/></clipPath><clipPath id="clip-path-32"><path class="cls-33" d="M53.3,53.72h5.1v6.66a14.57,14.57,0,0,1-2.33.57,15,15,0,0,1-2.24.16,5.65,5.65,0,0,1-4.44-1.71,7.09,7.09,0,0,1-1.54-4.9,6.51,6.51,0,0,1,1.78-4.86,6.77,6.77,0,0,1,4.94-1.74,9.63,9.63,0,0,1,3.81.79l-.9,2.18a6.61,6.61,0,0,0-2.93-.7,3.62,3.62,0,0,0-2.83,1.19,4.59,4.59,0,0,0-1.06,3.19,5.12,5.12,0,0,0,.85,3.19A3,3,0,0,0,54,58.85a8.69,8.69,0,0,0,1.73-.18V56H53.3Z"/></clipPath><clipPath id="clip-path-33"><path class="cls-34" d="M74.51,60.94H71.79V55.39H66.7v5.55H64V48.09H66.7v5h5.09v-5h2.72Z"/></clipPath><clipPath id="clip-path-34"><path class="cls-25" d="M71.82,18v4.93H69.09V10.09h3.75a6.43,6.43,0,0,1,3.87.95A3.41,3.41,0,0,1,78,13.94a3.42,3.42,0,0,1-.62,2,4.15,4.15,0,0,1-1.77,1.39c1.93,2.89,3.19,4.75,3.78,5.6h-3L73.27,18Zm0-2.22h.88a3.35,3.35,0,0,0,1.91-.43A1.54,1.54,0,0,0,75.22,14a1.41,1.41,0,0,0-.63-1.3,3.8,3.8,0,0,0-2-.39h-.82Z"/></clipPath><clipPath id="clip-path-35"><path class="cls-35" d="M85.23,60.94H82.5V50.36H79V48.09h9.71v2.27H85.23Z"/></clipPath><clipPath id="clip-path-36"><path class="cls-37" d="M105.37,60.94h-2.73V50.36H99.15V48.09h9.71v2.27h-3.49Z"/></clipPath><clipPath id="clip-path-37"><path class="cls-38" d="M125,54.5a7,7,0,0,1-1.58,4.9,6.87,6.87,0,0,1-9.07,0,7,7,0,0,1-1.59-4.92,6.9,6.9,0,0,1,1.59-4.9,5.92,5.92,0,0,1,4.55-1.69,5.85,5.85,0,0,1,4.53,1.7A7,7,0,0,1,125,54.5Zm-9.38,0a5.34,5.34,0,0,0,.82,3.24,2.84,2.84,0,0,0,2.44,1.09c2.17,0,3.26-1.45,3.26-4.33s-1.08-4.35-3.24-4.35a2.87,2.87,0,0,0-2.45,1.1A5.35,5.35,0,0,0,115.64,54.5Z"/></clipPath><clipPath id="clip-path-38"><path class="cls-39" d="M140.08,60.94H137.4V48.09h7.36v2.23h-4.68v3.31h4.36v2.23h-4.36Z"/></clipPath><clipPath id="clip-path-39"><path class="cls-40" d="M157.66,60.94l-.93-3.06h-4.68l-.94,3.06h-2.93L152.71,48H156l4.56,12.9Zm-1.58-5.35c-.86-2.77-1.35-4.33-1.46-4.7s-.18-.65-.23-.86c-.19.75-.74,2.61-1.66,5.56Z"/></clipPath><clipPath id="clip-path-40"><path class="cls-41" d="M170.17,60.94l-3.09-10.08H167c.11,2,.17,3.42.17,4.1v6h-2.44V48.09h3.71l3,9.82h.06l3.22-9.82h3.71V60.94h-2.54V54.86c0-.29,0-.62,0-1s0-1.37.11-3H176l-3.31,10.07Z"/></clipPath><clipPath id="clip-path-41"><path class="cls-42" d="M184.23,60.94V48.09H187V60.94Z"/></clipPath><clipPath id="clip-path-42"><path class="cls-43" d="M192.71,60.94V48.09h2.72v10.6h5.21v2.25Z"/></clipPath><clipPath id="clip-path-43"><path class="cls-44" d="M205.39,60.94V48.09h2.73V60.94Z"/></clipPath><clipPath id="clip-path-44"><path class="cls-45" d="M221.27,60.94h-7.4V48.09h7.4v2.23H216.6v2.82H221v2.23H216.6v3.32h4.67Z"/></clipPath><clipPath id="clip-path-45"><path class="cls-36" d="M90.9,22.94H83.5V10.09h7.4v2.23H86.22v2.82h4.35v2.23H86.22v3.32H90.9Z"/></clipPath><clipPath id="clip-path-46"><path class="cls-46" d="M234.06,57.37a3.33,3.33,0,0,1-1.25,2.74,5.45,5.45,0,0,1-3.49,1,8.15,8.15,0,0,1-3.64-.77V57.81a15,15,0,0,0,2.2.82,7,7,0,0,0,1.65.23,2.34,2.34,0,0,0,1.38-.34,1.18,1.18,0,0,0,.48-1,1.11,1.11,0,0,0-.21-.67,2.31,2.31,0,0,0-.62-.57,16.32,16.32,0,0,0-1.67-.87,8.27,8.27,0,0,1-1.77-1.06,4.16,4.16,0,0,1-.94-1.19,3.44,3.44,0,0,1-.35-1.58A3.32,3.32,0,0,1,227,48.88a4.79,4.79,0,0,1,3.19-1,7.54,7.54,0,0,1,1.92.24,13.18,13.18,0,0,1,1.9.67l-.88,2.12a13,13,0,0,0-1.7-.59,5.56,5.56,0,0,0-1.32-.17,1.75,1.75,0,0,0-1.19.36,1.3,1.3,0,0,0-.25,1.57,1.8,1.8,0,0,0,.54.52,14.48,14.48,0,0,0,1.72.9,6.75,6.75,0,0,1,2.47,1.73A3.32,3.32,0,0,1,234.06,57.37Z"/></clipPath><clipPath id="clip-path-47"><path class="cls-48" d="M32.21,79.94H29.49V69.36H26V67.09h9.7v2.27H32.21Z"/></clipPath><clipPath id="clip-path-48"><path class="cls-49" d="M50.73,79.94H48V74.39H42.93v5.55H40.2V67.09h2.73v5H48v-5h2.72Z"/></clipPath><clipPath id="clip-path-49"><path class="cls-50" d="M56.49,79.94V67.09h2.73V79.94Z"/></clipPath><clipPath id="clip-path-50"><path class="cls-51" d="M72.56,76.37a3.31,3.31,0,0,1-1.26,2.74,5.4,5.4,0,0,1-3.48,1,8.15,8.15,0,0,1-3.64-.77V76.81a15,15,0,0,0,2.2.82,6.87,6.87,0,0,0,1.65.23,2.34,2.34,0,0,0,1.38-.34,1.17,1.17,0,0,0,.47-1,1.11,1.11,0,0,0-.21-.67,2.17,2.17,0,0,0-.62-.57,15.81,15.81,0,0,0-1.66-.87,8,8,0,0,1-1.77-1.06,4.16,4.16,0,0,1-.94-1.19,3.44,3.44,0,0,1-.35-1.58,3.32,3.32,0,0,1,1.16-2.68,4.79,4.79,0,0,1,3.19-1,7.4,7.4,0,0,1,1.91.24,13.28,13.28,0,0,1,1.91.67l-.88,2.12a13.54,13.54,0,0,0-1.7-.59,5.58,5.58,0,0,0-1.33-.17,1.73,1.73,0,0,0-1.18.36,1.26,1.26,0,0,0-.25,1.57,1.88,1.88,0,0,0,.53.52,15.9,15.9,0,0,0,1.73.9,6.84,6.84,0,0,1,2.47,1.73A3.38,3.38,0,0,1,72.56,76.37Z"/></clipPath><clipPath id="clip-path-51"><path class="cls-52" d="M97.12,79.94H94l-1.74-6.75c-.07-.24-.18-.74-.33-1.49a14.78,14.78,0,0,1-.27-1.52q-.06.48-.27,1.53c-.14.7-.25,1.2-.32,1.5l-1.73,6.73h-3.1L83,67.09h2.69l1.64,7c.29,1.3.49,2.42.62,3.37,0-.34.12-.85.24-1.55s.25-1.25.36-1.63l1.87-7.2H93l1.87,7.2c.08.32.19.81.31,1.47s.22,1.23.28,1.71c.06-.46.15-1,.28-1.71s.25-1.24.35-1.66l1.64-7h2.68Z"/></clipPath><clipPath id="clip-path-52"><path class="cls-53" d="M104.52,79.94V67.09h2.73V79.94Z"/></clipPath><clipPath id="clip-path-53"><path class="cls-54" d="M124.4,79.94h-3.46l-5.59-9.72h-.08c.11,1.71.17,2.94.17,3.67v6H113V67.09h3.44L122,76.71h.06C122,75,122,73.86,122,73.17V67.09h2.45Z"/></clipPath><clipPath id="clip-path-54"><path class="cls-55" d="M135.11,79.94h-2.72V69.36H128.9V67.09h9.7v2.27h-3.49Z"/></clipPath><clipPath id="clip-path-55"><path class="cls-56" d="M150.5,79.94h-7.4V67.09h7.4v2.23h-4.67v2.82h4.35v2.23h-4.35v3.32h4.67Z"/></clipPath><clipPath id="clip-path-56"><path class="cls-47" d="M98.05,10.09l.12.19a26.29,26.29,0,0,1-1.55,4.21H94.7c.41-1.73.7-3.2.88-4.4Z"/></clipPath><clipPath id="clip-path-57"><path class="cls-58" d="M110.11,19.37a3.31,3.31,0,0,1-1.26,2.74,5.4,5.4,0,0,1-3.48,1,8.12,8.12,0,0,1-3.64-.77V19.81a15,15,0,0,0,2.2.82,6.87,6.87,0,0,0,1.65.23,2.37,2.37,0,0,0,1.38-.34,1.19,1.19,0,0,0,.47-1,1.11,1.11,0,0,0-.21-.67,2.17,2.17,0,0,0-.62-.57,15.81,15.81,0,0,0-1.66-.87,7.79,7.79,0,0,1-1.77-1.06,4,4,0,0,1-.94-1.19,3.44,3.44,0,0,1-.35-1.58A3.29,3.29,0,0,1,103,10.88a4.77,4.77,0,0,1,3.19-1,7.4,7.4,0,0,1,1.91.24,12.77,12.77,0,0,1,1.9.67l-.87,2.12a13.07,13.07,0,0,0-1.71-.59,5.43,5.43,0,0,0-1.32-.17,1.73,1.73,0,0,0-1.18.36,1.26,1.26,0,0,0-.25,1.57,1.88,1.88,0,0,0,.53.52,14.93,14.93,0,0,0,1.73.9,6.84,6.84,0,0,1,2.47,1.73A3.38,3.38,0,0,1,110.11,19.37Z"/></clipPath><clipPath id="clip-path-58"><path class="cls-59" d="M129.74,19.37a3.31,3.31,0,0,1-1.26,2.74,5.4,5.4,0,0,1-3.48,1,8.12,8.12,0,0,1-3.64-.77V19.81a15,15,0,0,0,2.2.82,6.87,6.87,0,0,0,1.65.23,2.29,2.29,0,0,0,1.37-.34,1.18,1.18,0,0,0,.48-1,1.11,1.11,0,0,0-.21-.67,2.17,2.17,0,0,0-.62-.57,15.81,15.81,0,0,0-1.66-.87,7.79,7.79,0,0,1-1.77-1.06,4,4,0,0,1-.94-1.19,3.44,3.44,0,0,1-.35-1.58,3.31,3.31,0,0,1,1.15-2.68,4.84,4.84,0,0,1,3.2-1,7.46,7.46,0,0,1,1.91.24,12.77,12.77,0,0,1,1.9.67l-.88,2.12a12.52,12.52,0,0,0-1.7-.59,5.43,5.43,0,0,0-1.32-.17,1.78,1.78,0,0,0-1.19.36,1.21,1.21,0,0,0-.41.94,1.19,1.19,0,0,0,.17.63,1.88,1.88,0,0,0,.53.52,14.93,14.93,0,0,0,1.73.9,6.84,6.84,0,0,1,2.47,1.73A3.38,3.38,0,0,1,129.74,19.37Z"/></clipPath><clipPath id="clip-path-59"><path class="cls-60" d="M139.54,22.94h-2.72V12.36h-3.49V10.09H143v2.27h-3.49Z"/></clipPath><clipPath id="clip-path-60"><path class="cls-57" d="M158.43,75v4.93H155.7V67.09h3.75a6.45,6.45,0,0,1,3.87,1A3.8,3.8,0,0,1,164,73a4.15,4.15,0,0,1-1.77,1.39c1.93,2.89,3.19,4.75,3.78,5.6h-3L159.88,75Zm0-2.22h.88a3.32,3.32,0,0,0,1.9-.43,1.54,1.54,0,0,0,.62-1.35,1.41,1.41,0,0,0-.63-1.3,3.8,3.8,0,0,0-1.95-.39h-.82Z"/></clipPath></defs><title>text2</title><g id="Layer_2" data-name="Layer 2"><g id="Layer_1-2" data-name="Layer 1"><path class="cls-1" d="M32.21,22.94H29.49V12.36H26V10.09h9.7v2.27H32.21Z"/><path class="cls-1" d="M50.73,22.94H48V17.39H42.93v5.55H40.2V10.09h2.73v5H48v-5h2.72Z"/><path class="cls-1" d="M63.89,22.94h-7.4V10.09h7.4v2.23H59.22v2.82h4.35v2.23H59.22v3.32h4.67Z"/><path class="cls-1" d="M71.82,18v4.93H69.09V10.09h3.75a6.43,6.43,0,0,1,3.87.95A3.41,3.41,0,0,1,78,13.94a3.42,3.42,0,0,1-.62,2,4.15,4.15,0,0,1-1.77,1.39c1.93,2.89,3.19,4.75,3.78,5.6h-3L73.27,18Zm0-2.22h.88a3.35,3.35,0,0,0,1.91-.43A1.54,1.54,0,0,0,75.22,14a1.41,1.41,0,0,0-.63-1.3,3.8,3.8,0,0,0-2-.39h-.82Z"/><path class="cls-1" d="M90.9,22.94H83.5V10.09h7.4v2.23H86.22v2.82h4.35v2.23H86.22v3.32H90.9Z"/><path class="cls-1" d="M98.05,10.09l.12.19a26.29,26.29,0,0,1-1.55,4.21H94.7c.41-1.73.7-3.2.88-4.4Z"/><path class="cls-1" d="M110.11,19.37a3.31,3.31,0,0,1-1.26,2.74,5.4,5.4,0,0,1-3.48,1,8.12,8.12,0,0,1-3.64-.77V19.81a15,15,0,0,0,2.2.82,6.87,6.87,0,0,0,1.65.23,2.37,2.37,0,0,0,1.38-.34,1.19,1.19,0,0,0,.47-1,1.11,1.11,0,0,0-.21-.67,2.17,2.17,0,0,0-.62-.57,15.81,15.81,0,0,0-1.66-.87,7.79,7.79,0,0,1-1.77-1.06,4,4,0,0,1-.94-1.19,3.44,3.44,0,0,1-.35-1.58A3.29,3.29,0,0,1,103,10.88a4.77,4.77,0,0,1,3.19-1,7.4,7.4,0,0,1,1.91.24,12.77,12.77,0,0,1,1.9.67l-.87,2.12a13.07,13.07,0,0,0-1.71-.59,5.43,5.43,0,0,0-1.32-.17,1.73,1.73,0,0,0-1.18.36,1.26,1.26,0,0,0-.25,1.57,1.88,1.88,0,0,0,.53.52,14.93,14.93,0,0,0,1.73.9,6.84,6.84,0,0,1,2.47,1.73A3.38,3.38,0,0,1,110.11,19.37Z"/><path class="cls-1" d="M129.74,19.37a3.31,3.31,0,0,1-1.26,2.74,5.4,5.4,0,0,1-3.48,1,8.12,8.12,0,0,1-3.64-.77V19.81a15,15,0,0,0,2.2.82,6.87,6.87,0,0,0,1.65.23,2.29,2.29,0,0,0,1.37-.34,1.18,1.18,0,0,0,.48-1,1.11,1.11,0,0,0-.21-.67,2.17,2.17,0,0,0-.62-.57,15.81,15.81,0,0,0-1.66-.87,7.79,7.79,0,0,1-1.77-1.06,4,4,0,0,1-.94-1.19,3.44,3.44,0,0,1-.35-1.58,3.31,3.31,0,0,1,1.15-2.68,4.84,4.84,0,0,1,3.2-1,7.46,7.46,0,0,1,1.91.24,12.77,12.77,0,0,1,1.9.67l-.88,2.12a12.52,12.52,0,0,0-1.7-.59,5.43,5.43,0,0,0-1.32-.17,1.78,1.78,0,0,0-1.19.36,1.21,1.21,0,0,0-.41.94,1.19,1.19,0,0,0,.17.63,1.88,1.88,0,0,0,.53.52,14.93,14.93,0,0,0,1.73.9,6.84,6.84,0,0,1,2.47,1.73A3.38,3.38,0,0,1,129.74,19.37Z"/><path class="cls-1" d="M139.54,22.94h-2.72V12.36h-3.49V10.09H143v2.27h-3.49Z"/><path class="cls-1" d="M147.53,22.94V10.09h2.72V22.94Z"/><path class="cls-1" d="M156,22.94V10.09h2.72v10.6h5.21v2.25Z"/><path class="cls-1" d="M168.7,22.94V10.09h2.72v10.6h5.21v2.25Z"/><path class="cls-1" d="M193.54,22.94h-2.73V12.36h-3.49V10.09H197v2.27h-3.49Z"/><path class="cls-1" d="M201.52,22.94V10.09h2.73V22.94Z"/><path class="cls-1" d="M215.44,22.94l-3.09-10.08h-.08c.11,2.05.17,3.42.17,4.1v6H210V10.09h3.71l3,9.82h.06L220,10.09h3.71V22.94H221.2V16.86c0-.29,0-.62,0-1s0-1.37.12-3h-.08l-3.31,10.07Z"/><path class="cls-1" d="M236.9,22.94h-7.4V10.09h7.4v2.23h-4.68v2.82h4.35v2.23h-4.35v3.32h4.68Z"/><path class="cls-1" d="M254.25,22.94h-2.73V12.36H248V10.09h9.7v2.27h-3.49Z"/><path class="cls-1" d="M273.9,16.5a7,7,0,0,1-1.58,4.9,6.87,6.87,0,0,1-9.07,0,7,7,0,0,1-1.58-4.92,6.89,6.89,0,0,1,1.58-4.9,5.94,5.94,0,0,1,4.55-1.69,5.83,5.83,0,0,1,4.53,1.7A7,7,0,0,1,273.9,16.5Zm-9.38,0a5.34,5.34,0,0,0,.82,3.24,2.84,2.84,0,0,0,2.44,1.09c2.18,0,3.26-1.45,3.26-4.33s-1.08-4.35-3.24-4.35a2.88,2.88,0,0,0-2.45,1.1A5.35,5.35,0,0,0,264.52,16.5Z"/><path class="cls-1" d="M37.79,41.94H35.07V36.39H30v5.55H27.26V29.09H30v5h5.09v-5h2.72Z"/><path class="cls-1" d="M51,41.94h-7.4V29.09H51v2.23H46.27v2.82h4.35v2.23H46.27v3.32H51Z"/><path class="cls-1" d="M56.15,41.94V29.09h2.73v10.6h5.21v2.25Z"/><path class="cls-1" d="M77.72,33.1a3.94,3.94,0,0,1-1.3,3.17,5.55,5.55,0,0,1-3.69,1.1H71.56v4.57H68.84V29.09h4.1a5.42,5.42,0,0,1,3.56,1A3.67,3.67,0,0,1,77.72,33.1Zm-6.16,2h.9a3,3,0,0,0,1.88-.5A1.72,1.72,0,0,0,75,33.19a1.76,1.76,0,0,0-.52-1.41,2.42,2.42,0,0,0-1.64-.46H71.56Z"/><path class="cls-1" d="M94.74,34.72h5.09v6.66A14.31,14.31,0,0,1,97.5,42a15,15,0,0,1-2.24.16,5.65,5.65,0,0,1-4.44-1.71,7.09,7.09,0,0,1-1.53-4.9,6.47,6.47,0,0,1,1.78-4.86A6.74,6.74,0,0,1,96,28.9a9.72,9.72,0,0,1,3.82.79l-.91,2.18a6.58,6.58,0,0,0-2.93-.7,3.63,3.63,0,0,0-2.83,1.19,4.63,4.63,0,0,0-1.06,3.19A5.12,5.12,0,0,0,93,38.74a3,3,0,0,0,2.49,1.11,8.62,8.62,0,0,0,1.73-.18V37H94.74Z"/><path class="cls-1" d="M105.41,41.94V29.09h2.73V41.94Z"/><path class="cls-1" d="M121.22,29.09H124L119.6,41.94h-3l-4.36-12.85H115l2.41,7.64c.14.46.28,1,.42,1.58s.23,1,.27,1.25a21.34,21.34,0,0,1,.66-2.83Z"/><path class="cls-1" d="M135.51,41.94h-7.4V29.09h7.4v2.23h-4.68v2.82h4.35v2.23h-4.35v3.32h4.68Z"/><path class="cls-1" d="M155.31,41.94h-7.4V29.09h7.4v2.23h-4.68v2.82H155v2.23h-4.35v3.32h4.68Z"/><path class="cls-1" d="M166,41.94l-3.1-10.08h-.07c.11,2,.16,3.42.16,4.1v6h-2.43V29.09h3.71l3,9.82h.05l3.23-9.82h3.7V41.94h-2.53V35.86c0-.29,0-.62,0-1s.05-1.37.12-3h-.08l-3.32,10.07Z"/><path class="cls-1" d="M187.4,41.94H180V29.09h7.4v2.23h-4.68v2.82h4.35v2.23h-4.35v3.32h4.68Z"/><path class="cls-1" d="M195.32,37v4.93H192.6V29.09h3.74a6.46,6.46,0,0,1,3.88.95,3.41,3.41,0,0,1,1.26,2.9,3.36,3.36,0,0,1-.63,2,4.06,4.06,0,0,1-1.76,1.39c1.93,2.89,3.19,4.75,3.78,5.6h-3L196.77,37Zm0-2.22h.88a3.35,3.35,0,0,0,1.91-.43,1.54,1.54,0,0,0,.62-1.35,1.41,1.41,0,0,0-.63-1.3,3.8,3.8,0,0,0-1.95-.39h-.83Z"/><path class="cls-1" d="M211.88,34.72H217v6.66a14.83,14.83,0,0,1-2.33.57,15,15,0,0,1-2.24.16A5.65,5.65,0,0,1,208,40.4a7,7,0,0,1-1.54-4.9,6.47,6.47,0,0,1,1.78-4.86,6.77,6.77,0,0,1,4.94-1.74,9.67,9.67,0,0,1,3.81.79l-.9,2.18a6.61,6.61,0,0,0-2.93-.7,3.62,3.62,0,0,0-2.83,1.19,4.59,4.59,0,0,0-1.06,3.19,5.12,5.12,0,0,0,.85,3.19,3,3,0,0,0,2.49,1.11,8.72,8.72,0,0,0,1.74-.18V37h-2.44Z"/><path class="cls-1" d="M230,41.94h-7.4V29.09H230v2.23h-4.68v2.82h4.35v2.23h-4.35v3.32H230Z"/><path class="cls-1" d="M246.56,41.94h-3.47l-5.59-9.72h-.07c.11,1.71.16,2.94.16,3.67v6h-2.43V29.09h3.43l5.59,9.62h.06c-.09-1.67-.13-2.85-.13-3.54V29.09h2.45Z"/><path class="cls-1" d="M257.77,31.17a2.77,2.77,0,0,0-2.38,1.16,5.38,5.38,0,0,0-.85,3.22c0,2.86,1.08,4.3,3.23,4.3a10.3,10.3,0,0,0,3.28-.68v2.28a9.11,9.11,0,0,1-3.54.66,5.36,5.36,0,0,1-4.28-1.7,7.19,7.19,0,0,1-1.49-4.88,7.89,7.89,0,0,1,.73-3.51,5.24,5.24,0,0,1,2.1-2.31,6.14,6.14,0,0,1,3.2-.81,8.69,8.69,0,0,1,3.76.91L260.65,32c-.48-.22-1-.42-1.45-.59A4.28,4.28,0,0,0,257.77,31.17Z"/><path class="cls-1" d="M270.3,34.38,273,29.09h2.94l-4.27,7.85v5H269V37l-4.27-7.93h3Z"/><path class="cls-1" d="M27.26,60.94V48.09H30v10.6h5.21v2.25Z"/><path class="cls-1" d="M40,60.94V48.09h2.72V60.94Z"/><path class="cls-1" d="M53.3,53.72h5.1v6.66a14.57,14.57,0,0,1-2.33.57,15,15,0,0,1-2.24.16,5.65,5.65,0,0,1-4.44-1.71,7.09,7.09,0,0,1-1.54-4.9,6.51,6.51,0,0,1,1.78-4.86,6.77,6.77,0,0,1,4.94-1.74,9.63,9.63,0,0,1,3.81.79l-.9,2.18a6.61,6.61,0,0,0-2.93-.7,3.62,3.62,0,0,0-2.83,1.19,4.59,4.59,0,0,0-1.06,3.19,5.12,5.12,0,0,0,.85,3.19A3,3,0,0,0,54,58.85a8.69,8.69,0,0,0,1.73-.18V56H53.3Z"/><path class="cls-1" d="M74.51,60.94H71.79V55.39H66.7v5.55H64V48.09H66.7v5h5.09v-5h2.72Z"/><path class="cls-1" d="M85.23,60.94H82.5V50.36H79V48.09h9.71v2.27H85.23Z"/><path class="cls-1" d="M105.37,60.94h-2.73V50.36H99.15V48.09h9.71v2.27h-3.49Z"/><path class="cls-1" d="M125,54.5a7,7,0,0,1-1.58,4.9,6.87,6.87,0,0,1-9.07,0,7,7,0,0,1-1.59-4.92,6.9,6.9,0,0,1,1.59-4.9,5.92,5.92,0,0,1,4.55-1.69,5.85,5.85,0,0,1,4.53,1.7A7,7,0,0,1,125,54.5Zm-9.38,0a5.34,5.34,0,0,0,.82,3.24,2.84,2.84,0,0,0,2.44,1.09c2.17,0,3.26-1.45,3.26-4.33s-1.08-4.35-3.24-4.35a2.87,2.87,0,0,0-2.45,1.1A5.35,5.35,0,0,0,115.64,54.5Z"/><path class="cls-1" d="M140.08,60.94H137.4V48.09h7.36v2.23h-4.68v3.31h4.36v2.23h-4.36Z"/><path class="cls-1" d="M157.66,60.94l-.93-3.06h-4.68l-.94,3.06h-2.93L152.71,48H156l4.56,12.9Zm-1.58-5.35c-.86-2.77-1.35-4.33-1.46-4.7s-.18-.65-.23-.86c-.19.75-.74,2.61-1.66,5.56Z"/><path class="cls-1" d="M170.17,60.94l-3.09-10.08H167c.11,2,.17,3.42.17,4.1v6h-2.44V48.09h3.71l3,9.82h.06l3.22-9.82h3.71V60.94h-2.54V54.86c0-.29,0-.62,0-1s0-1.37.11-3H176l-3.31,10.07Z"/><path class="cls-1" d="M184.23,60.94V48.09H187V60.94Z"/><path class="cls-1" d="M192.71,60.94V48.09h2.72v10.6h5.21v2.25Z"/><path class="cls-1" d="M205.39,60.94V48.09h2.73V60.94Z"/><path class="cls-1" d="M221.27,60.94h-7.4V48.09h7.4v2.23H216.6v2.82H221v2.23H216.6v3.32h4.67Z"/><path class="cls-1" d="M234.06,57.37a3.33,3.33,0,0,1-1.25,2.74,5.45,5.45,0,0,1-3.49,1,8.15,8.15,0,0,1-3.64-.77V57.81a15,15,0,0,0,2.2.82,7,7,0,0,0,1.65.23,2.34,2.34,0,0,0,1.38-.34,1.18,1.18,0,0,0,.48-1,1.11,1.11,0,0,0-.21-.67,2.31,2.31,0,0,0-.62-.57,16.32,16.32,0,0,0-1.67-.87,8.27,8.27,0,0,1-1.77-1.06,4.16,4.16,0,0,1-.94-1.19,3.44,3.44,0,0,1-.35-1.58A3.32,3.32,0,0,1,227,48.88a4.79,4.79,0,0,1,3.19-1,7.54,7.54,0,0,1,1.92.24,13.18,13.18,0,0,1,1.9.67l-.88,2.12a13,13,0,0,0-1.7-.59,5.56,5.56,0,0,0-1.32-.17,1.75,1.75,0,0,0-1.19.36,1.3,1.3,0,0,0-.25,1.57,1.8,1.8,0,0,0,.54.52,14.48,14.48,0,0,0,1.72.9,6.75,6.75,0,0,1,2.47,1.73A3.32,3.32,0,0,1,234.06,57.37Z"/><path class="cls-1" d="M32.21,79.94H29.49V69.36H26V67.09h9.7v2.27H32.21Z"/><path class="cls-1" d="M50.73,79.94H48V74.39H42.93v5.55H40.2V67.09h2.73v5H48v-5h2.72Z"/><path class="cls-1" d="M56.49,79.94V67.09h2.73V79.94Z"/><path class="cls-1" d="M72.56,76.37a3.31,3.31,0,0,1-1.26,2.74,5.4,5.4,0,0,1-3.48,1,8.15,8.15,0,0,1-3.64-.77V76.81a15,15,0,0,0,2.2.82,6.87,6.87,0,0,0,1.65.23,2.34,2.34,0,0,0,1.38-.34,1.17,1.17,0,0,0,.47-1,1.11,1.11,0,0,0-.21-.67,2.17,2.17,0,0,0-.62-.57,15.81,15.81,0,0,0-1.66-.87,8,8,0,0,1-1.77-1.06,4.16,4.16,0,0,1-.94-1.19,3.44,3.44,0,0,1-.35-1.58,3.32,3.32,0,0,1,1.16-2.68,4.79,4.79,0,0,1,3.19-1,7.4,7.4,0,0,1,1.91.24,13.28,13.28,0,0,1,1.91.67l-.88,2.12a13.54,13.54,0,0,0-1.7-.59,5.58,5.58,0,0,0-1.33-.17,1.73,1.73,0,0,0-1.18.36,1.26,1.26,0,0,0-.25,1.57,1.88,1.88,0,0,0,.53.52,15.9,15.9,0,0,0,1.73.9,6.84,6.84,0,0,1,2.47,1.73A3.38,3.38,0,0,1,72.56,76.37Z"/><path class="cls-1" d="M97.12,79.94H94l-1.74-6.75c-.07-.24-.18-.74-.33-1.49a14.78,14.78,0,0,1-.27-1.52q-.06.48-.27,1.53c-.14.7-.25,1.2-.32,1.5l-1.73,6.73h-3.1L83,67.09h2.69l1.64,7c.29,1.3.49,2.42.62,3.37,0-.34.12-.85.24-1.55s.25-1.25.36-1.63l1.87-7.2H93l1.87,7.2c.08.32.19.81.31,1.47s.22,1.23.28,1.71c.06-.46.15-1,.28-1.71s.25-1.24.35-1.66l1.64-7h2.68Z"/><path class="cls-1" d="M104.52,79.94V67.09h2.73V79.94Z"/><path class="cls-1" d="M124.4,79.94h-3.46l-5.59-9.72h-.08c.11,1.71.17,2.94.17,3.67v6H113V67.09h3.44L122,76.71h.06C122,75,122,73.86,122,73.17V67.09h2.45Z"/><path class="cls-1" d="M135.11,79.94h-2.72V69.36H128.9V67.09h9.7v2.27h-3.49Z"/><path class="cls-1" d="M150.5,79.94h-7.4V67.09h7.4v2.23h-4.67v2.82h4.35v2.23h-4.35v3.32h4.67Z"/><path class="cls-1" d="M158.43,75v4.93H155.7V67.09h3.75a6.45,6.45,0,0,1,3.87,1A3.8,3.8,0,0,1,164,73a4.15,4.15,0,0,1-1.77,1.39c1.93,2.89,3.19,4.75,3.78,5.6h-3L159.88,75Zm0-2.22h.88a3.32,3.32,0,0,0,1.9-.43,1.54,1.54,0,0,0,.62-1.35,1.41,1.41,0,0,0-.63-1.3,3.8,3.8,0,0,0-1.95-.39h-.82Z"/><g class="cls-61"><rect class="cls-1" width="728" height="90"/></g></g></g></svg>