<svg xmlns="http://www.w3.org/2000/svg" xmlns:xlink="http://www.w3.org/1999/xlink" viewBox="0 0 728 90"><defs><style>.cls-1,.cls-10,.cls-11,.cls-12,.cls-13,.cls-14,.cls-15,.cls-16,.cls-17,.cls-18,.cls-19,.cls-2,.cls-20,.cls-21,.cls-22,.cls-23,.cls-24,.cls-25,.cls-26,.cls-27,.cls-28,.cls-29,.cls-3,.cls-30,.cls-31,.cls-32,.cls-33,.cls-34,.cls-35,.cls-36,.cls-37,.cls-4,.cls-5,.cls-6,.cls-7,.cls-8,.cls-9{fill:#fff;}.cls-2{clip-path:url(#clip-path);}.cls-3{clip-path:url(#clip-path-2);}.cls-4{clip-path:url(#clip-path-36);}.cls-5{clip-path:url(#clip-path-3);}.cls-6{clip-path:url(#clip-path-4);}.cls-7{clip-path:url(#clip-path-5);}.cls-8{clip-path:url(#clip-path-6);}.cls-9{clip-path:url(#clip-path-7);}.cls-10{clip-path:url(#clip-path-8);}.cls-11{clip-path:url(#clip-path-9);}.cls-12{clip-path:url(#clip-path-10);}.cls-13{clip-path:url(#clip-path-11);}.cls-14{clip-path:url(#clip-path-12);}.cls-15{clip-path:url(#clip-path-13);}.cls-16{clip-path:url(#clip-path-14);}.cls-17{clip-path:url(#clip-path-15);}.cls-18{clip-path:url(#clip-path-16);}.cls-19{clip-path:url(#clip-path-17);}.cls-20{clip-path:url(#clip-path-18);}.cls-21{clip-path:url(#clip-path-19);}.cls-22{clip-path:url(#clip-path-20);}.cls-23{clip-path:url(#clip-path-21);}.cls-24{clip-path:url(#clip-path-22);}.cls-25{clip-path:url(#clip-path-23);}.cls-26{clip-path:url(#clip-path-24);}.cls-27{clip-path:url(#clip-path-25);}.cls-28{clip-path:url(#clip-path-26);}.cls-29{clip-path:url(#clip-path-27);}.cls-30{clip-path:url(#clip-path-28);}.cls-31{clip-path:url(#clip-path-29);}.cls-32{clip-path:url(#clip-path-30);}.cls-33{clip-path:url(#clip-path-31);}.cls-34{clip-path:url(#clip-path-32);}.cls-35{clip-path:url(#clip-path-33);}.cls-36{clip-path:url(#clip-path-34);}.cls-37{clip-path:url(#clip-path-35);}.cls-38{clip-path:url(#clip-path-37);}</style><clipPath id="clip-path"><path class="cls-1" d="M30.34,27.48v4.93H27.62V19.56h3.74a6.46,6.46,0,0,1,3.88,1,3.4,3.4,0,0,1,1.25,2.9,3.35,3.35,0,0,1-.62,2,4.16,4.16,0,0,1-1.77,1.39c1.94,2.89,3.2,4.75,3.78,5.6h-3l-3.07-4.93Zm0-2.22h.88a3.35,3.35,0,0,0,1.91-.43,1.54,1.54,0,0,0,.61-1.35,1.39,1.39,0,0,0-.63-1.3,3.73,3.73,0,0,0-1.94-.39h-.83Z"/></clipPath><clipPath id="clip-path-2"><path class="cls-4" d="M175.3,27.48v4.93h-2.73V19.56h3.75a6.43,6.43,0,0,1,3.87,1,3.41,3.41,0,0,1,1.26,2.9,3.42,3.42,0,0,1-.62,2,4.22,4.22,0,0,1-1.77,1.39c1.93,2.89,3.19,4.75,3.78,5.6h-3l-3.07-4.93Zm0-2.22h.88a3.32,3.32,0,0,0,1.9-.43,1.52,1.52,0,0,0,.62-1.35,1.39,1.39,0,0,0-.63-1.3,3.8,3.8,0,0,0-1.95-.39h-.82Z"/></clipPath><clipPath id="clip-path-3"><path class="cls-3" d="M198.64,26a7,7,0,0,1-1.58,4.91,6.87,6.87,0,0,1-9.07,0A7,7,0,0,1,186.41,26a6.89,6.89,0,0,1,1.58-4.9,5.94,5.94,0,0,1,4.55-1.69,5.82,5.82,0,0,1,4.53,1.7A7,7,0,0,1,198.64,26Zm-9.38,0a5.42,5.42,0,0,0,.82,3.25,2.87,2.87,0,0,0,2.44,1.09c2.18,0,3.26-1.45,3.26-4.34s-1.08-4.34-3.24-4.34a2.88,2.88,0,0,0-2.45,1.1A5.34,5.34,0,0,0,189.26,26Z"/></clipPath><clipPath id="clip-path-4"><path class="cls-5" d="M216.34,32.41h-3.1l-1.74-6.75c-.07-.24-.18-.74-.33-1.49a14.78,14.78,0,0,1-.27-1.52c0,.32-.12.83-.27,1.53s-.24,1.2-.32,1.49l-1.73,6.74h-3.1l-3.27-12.85h2.68l1.64,7c.29,1.3.5,2.42.62,3.37,0-.34.12-.85.25-1.55a15.83,15.83,0,0,1,.35-1.63l1.87-7.2h2.58l1.87,7.2c.08.32.19.81.31,1.47s.22,1.23.28,1.71c.06-.46.15-1,.28-1.71s.25-1.24.35-1.66l1.64-7h2.68Z"/></clipPath><clipPath id="clip-path-5"><path class="cls-6" d="M35.48,51.41l-.93-3.06H29.87l-.93,3.06H26L30.54,38.5h3.33l4.55,12.91ZM33.9,46.06q-1.29-4.16-1.45-4.7c-.11-.36-.19-.65-.24-.86q-.28,1.13-1.66,5.56Z"/></clipPath><clipPath id="clip-path-6"><path class="cls-7" d="M57.34,47.84a3.31,3.31,0,0,1-1.26,2.74,5.4,5.4,0,0,1-3.48,1A8.15,8.15,0,0,1,49,50.81V48.28a15,15,0,0,0,2.2.82,6.87,6.87,0,0,0,1.65.23A2.34,2.34,0,0,0,54.19,49a1.2,1.2,0,0,0,.48-1,1.12,1.12,0,0,0-.22-.67,2.17,2.17,0,0,0-.62-.57,15.81,15.81,0,0,0-1.66-.87A7.79,7.79,0,0,1,50.4,44.8a4.16,4.16,0,0,1-.94-1.19A3.44,3.44,0,0,1,49.11,42a3.32,3.32,0,0,1,1.16-2.68,4.79,4.79,0,0,1,3.19-1,7.4,7.4,0,0,1,1.91.24,13.28,13.28,0,0,1,1.91.67L56.4,41.4a13.54,13.54,0,0,0-1.7-.59,5.58,5.58,0,0,0-1.33-.17,1.73,1.73,0,0,0-1.18.36,1.17,1.17,0,0,0-.42.94,1.19,1.19,0,0,0,.17.63,1.88,1.88,0,0,0,.53.52,15.9,15.9,0,0,0,1.73.9,6.84,6.84,0,0,1,2.47,1.73A3.38,3.38,0,0,1,57.34,47.84Z"/></clipPath><clipPath id="clip-path-7"><path class="cls-8" d="M72.72,51.41H70V45.86H64.91v5.55H62.19V38.56h2.72v5H70v-5h2.72Z"/></clipPath><clipPath id="clip-path-8"><path class="cls-9" d="M78.48,51.41V38.56H81.2V51.41Z"/></clipPath><clipPath id="clip-path-9"><path class="cls-10" d="M98.36,51.41H94.89L89.3,41.69h-.07c.11,1.71.16,2.94.16,3.67v6H87V38.56h3.43L96,48.18H96c-.09-1.67-.13-2.85-.13-3.54V38.56h2.45Z"/></clipPath><clipPath id="clip-path-10"><path class="cls-11" d="M111.51,51.41h-7.4V38.56h7.4v2.23h-4.67v2.82h4.35v2.23h-4.35v3.32h4.67Z"/></clipPath><clipPath id="clip-path-11"><path class="cls-12" d="M126.59,51.41h-2.68V38.56h7.36v2.23h-4.68V44.1H131v2.23h-4.36Z"/></clipPath><clipPath id="clip-path-12"><path class="cls-2" d="M49.42,32.41H42V19.56h7.4v2.23H44.75v2.82h4.34v2.23H44.75v3.32h4.67Z"/></clipPath><clipPath id="clip-path-13"><path class="cls-13" d="M148,45a7,7,0,0,1-1.58,4.91,6.87,6.87,0,0,1-9.07,0A7,7,0,0,1,135.74,45a6.89,6.89,0,0,1,1.58-4.9,5.94,5.94,0,0,1,4.55-1.69,5.83,5.83,0,0,1,4.53,1.7A7,7,0,0,1,148,45Zm-9.38,0a5.35,5.35,0,0,0,.82,3.25,2.87,2.87,0,0,0,2.44,1.09c2.18,0,3.26-1.45,3.26-4.34s-1.08-4.34-3.24-4.34a2.88,2.88,0,0,0-2.45,1.1A5.34,5.34,0,0,0,138.59,45Z"/></clipPath><clipPath id="clip-path-14"><path class="cls-15" d="M155.88,46.48v4.93h-2.73V38.56h3.75a6.43,6.43,0,0,1,3.87.95,3.8,3.8,0,0,1,.64,4.91,4.22,4.22,0,0,1-1.77,1.39c1.93,2.89,3.19,4.75,3.78,5.6h-3l-3.07-4.93Zm0-2.22h.88a3.32,3.32,0,0,0,1.9-.43,1.54,1.54,0,0,0,.62-1.35,1.39,1.39,0,0,0-.63-1.3,3.8,3.8,0,0,0-2-.39h-.82Z"/></clipPath><clipPath id="clip-path-15"><path class="cls-16" d="M35.2,66.84A3.33,3.33,0,0,1,34,69.58a5.45,5.45,0,0,1-3.49,1,8.08,8.08,0,0,1-3.63-.77V67.28a14.6,14.6,0,0,0,2.2.82,6.87,6.87,0,0,0,1.65.23A2.33,2.33,0,0,0,32.05,68a1.18,1.18,0,0,0,.48-1,1.11,1.11,0,0,0-.21-.67,2.31,2.31,0,0,0-.62-.57A16.32,16.32,0,0,0,30,64.86a7.92,7.92,0,0,1-1.76-1.06,4,4,0,0,1-.94-1.19,3.71,3.71,0,0,1,.8-4.26,4.82,4.82,0,0,1,3.2-1,7.52,7.52,0,0,1,1.91.24,13.18,13.18,0,0,1,1.9.67l-.88,2.12a12.52,12.52,0,0,0-1.7-.59,5.56,5.56,0,0,0-1.32-.17,1.76,1.76,0,0,0-1.19.36,1.2,1.2,0,0,0-.41.94,1.1,1.1,0,0,0,.17.63,1.75,1.75,0,0,0,.53.52,15.39,15.39,0,0,0,1.72.9,6.66,6.66,0,0,1,2.47,1.73A3.32,3.32,0,0,1,35.2,66.84Z"/></clipPath><clipPath id="clip-path-16"><path class="cls-17" d="M50.58,70.41H47.86V64.86H42.78v5.55H40.05V57.56h2.73v5h5.08v-5h2.72Z"/></clipPath><clipPath id="clip-path-17"><path class="cls-18" d="M63.74,70.41h-7.4V57.56h7.4v2.23H59.07v2.82h4.35v2.23H59.07v3.32h4.67Z"/></clipPath><clipPath id="clip-path-18"><path class="cls-19" d="M68.94,70.41V57.56h2.73v10.6h5.21v2.25Z"/></clipPath><clipPath id="clip-path-19"><path class="cls-20" d="M86.59,70.41H83.87V59.83H80.38V57.56h9.7v2.27H86.59Z"/></clipPath><clipPath id="clip-path-20"><path class="cls-21" d="M102,70.41h-7.4V57.56H102v2.23H97.3v2.82h4.35v2.23H97.3v3.32H102Z"/></clipPath><clipPath id="clip-path-21"><path class="cls-22" d="M109.9,65.48v4.93h-2.72V57.56h3.74a6.46,6.46,0,0,1,3.88.95,3.41,3.41,0,0,1,1.26,2.9,3.36,3.36,0,0,1-.63,2,4.13,4.13,0,0,1-1.76,1.39c1.93,2.89,3.19,4.75,3.77,5.6h-3l-3.07-4.93Zm0-2.22h.88a3.35,3.35,0,0,0,1.91-.43,1.54,1.54,0,0,0,.61-1.35,1.41,1.41,0,0,0-.62-1.3,3.8,3.8,0,0,0-2-.39h-.83Z"/></clipPath><clipPath id="clip-path-22"><path class="cls-23" d="M121.58,57.56h4a7.69,7.69,0,0,1,4,.78,2.7,2.7,0,0,1,1.23,2.47,3.11,3.11,0,0,1-.54,1.89,2.17,2.17,0,0,1-1.43.89v.08a2.91,2.91,0,0,1,1.76,1,3.33,3.33,0,0,1,.54,2,3.25,3.25,0,0,1-1.27,2.74,5.48,5.48,0,0,1-3.45,1h-4.81Zm2.73,5.09h1.58a2.85,2.85,0,0,0,1.6-.35,1.26,1.26,0,0,0,.5-1.13,1.13,1.13,0,0,0-.54-1.06,3.52,3.52,0,0,0-1.71-.32h-1.43Zm0,2.16v3.35h1.77a2.66,2.66,0,0,0,1.66-.43,1.59,1.59,0,0,0,.54-1.32c0-1.07-.76-1.6-2.29-1.6Z"/></clipPath><clipPath id="clip-path-23"><path class="cls-14" d="M62.49,32.41l-.93-3.06H56.87l-.93,3.06H53L57.54,19.5h3.33l4.55,12.91Zm-1.58-5.35c-.87-2.77-1.35-4.34-1.46-4.7s-.19-.65-.23-.86q-.3,1.13-1.66,5.56Z"/></clipPath><clipPath id="clip-path-24"><path class="cls-24" d="M147.86,64a7,7,0,0,1-1.58,4.91,6.87,6.87,0,0,1-9.07,0A7,7,0,0,1,135.62,64a6.9,6.9,0,0,1,1.59-4.9,5.92,5.92,0,0,1,4.55-1.69,5.85,5.85,0,0,1,4.53,1.7A7,7,0,0,1,147.86,64Zm-9.38,0a5.35,5.35,0,0,0,.82,3.25,2.87,2.87,0,0,0,2.44,1.09c2.18,0,3.26-1.45,3.26-4.34s-1.08-4.34-3.24-4.34a2.87,2.87,0,0,0-2.45,1.1A5.34,5.34,0,0,0,138.48,64Z"/></clipPath><clipPath id="clip-path-25"><path class="cls-26" d="M163.43,70.41h-3.11l-3-4.86-3,4.86h-2.92l4.27-6.63-4-6.22h3l2.77,4.62,2.72-4.62h2.93l-4,6.37Z"/></clipPath><clipPath id="clip-path-26"><path class="cls-27" d="M183.64,61.57a3.91,3.91,0,0,1-1.3,3.17,5.54,5.54,0,0,1-3.68,1.1h-1.17v4.57h-2.73V57.56h4.11a5.44,5.44,0,0,1,3.55,1A3.69,3.69,0,0,1,183.64,61.57Zm-6.15,2h.89a3,3,0,0,0,1.88-.49,1.74,1.74,0,0,0,.63-1.45,1.79,1.79,0,0,0-.52-1.41,2.43,2.43,0,0,0-1.64-.46h-1.24Z"/></clipPath><clipPath id="clip-path-27"><path class="cls-28" d="M196.45,70.41l-.93-3.06h-4.68l-.94,3.06H187L191.5,57.5h3.33l4.56,12.91Zm-1.58-5.35c-.86-2.77-1.35-4.34-1.45-4.7s-.19-.65-.24-.86q-.28,1.13-1.66,5.56Z"/></clipPath><clipPath id="clip-path-28"><path class="cls-29" d="M206.25,65.48v4.93h-2.73V57.56h3.75a6.43,6.43,0,0,1,3.87.95,3.8,3.8,0,0,1,.64,4.91A4.22,4.22,0,0,1,210,64.81c1.93,2.89,3.19,4.75,3.78,5.6h-3l-3.07-4.93Zm0-2.22h.88a3.37,3.37,0,0,0,1.91-.43,1.54,1.54,0,0,0,.61-1.35,1.39,1.39,0,0,0-.63-1.3,3.78,3.78,0,0,0-1.94-.39h-.83Z"/></clipPath><clipPath id="clip-path-29"><path class="cls-30" d="M222.88,70.41h-2.72V59.83h-3.49V57.56h9.7v2.27h-3.49Z"/></clipPath><clipPath id="clip-path-30"><path class="cls-31" d="M234.87,62.85l2.68-5.29h2.94l-4.27,7.85v5h-2.7V65.49l-4.27-7.93h3Z"/></clipPath><clipPath id="clip-path-31"><path class="cls-25" d="M80.22,25.86a6.35,6.35,0,0,1-1.8,4.86,7.41,7.41,0,0,1-5.22,1.69H69.56V19.56h4a6.79,6.79,0,0,1,4.89,1.66A6.11,6.11,0,0,1,80.22,25.86Zm-2.83.07q0-4.14-3.65-4.14H72.28v8.37h1.17Q77.4,30.16,77.39,25.93Z"/></clipPath><clipPath id="clip-path-32"><path class="cls-33" d="M89.4,24.85l2.68-5.29H95l-4.26,7.85v5H88.05V27.49l-4.26-7.93h2.95Z"/></clipPath><clipPath id="clip-path-33"><path class="cls-34" d="M111.31,32.41h-2.73V21.83H105.1V19.56h9.7v2.27h-3.49Z"/></clipPath><clipPath id="clip-path-34"><path class="cls-35" d="M131,26a7,7,0,0,1-1.58,4.91,6.87,6.87,0,0,1-9.07,0A7,7,0,0,1,118.73,26a6.89,6.89,0,0,1,1.58-4.9,5.94,5.94,0,0,1,4.55-1.69,5.85,5.85,0,0,1,4.53,1.7A7,7,0,0,1,131,26Zm-9.38,0a5.35,5.35,0,0,0,.82,3.25,2.87,2.87,0,0,0,2.44,1.09c2.18,0,3.26-1.45,3.26-4.34s-1.08-4.34-3.24-4.34a2.88,2.88,0,0,0-2.45,1.1A5.34,5.34,0,0,0,121.58,26Z"/></clipPath><clipPath id="clip-path-35"><path class="cls-36" d="M148.3,32.41h-2.73V21.83h-3.49V19.56h9.7v2.27H148.3Z"/></clipPath><clipPath id="clip-path-36"><path class="cls-37" d="M166.81,32.41H164.1V26.86H159v5.55h-2.73V19.56H159v5h5.09v-5h2.71Z"/></clipPath><clipPath id="clip-path-37"><path class="cls-32" d="M245.43,66.14v-.65a2.85,2.85,0,0,1,.36-1.46,4.68,4.68,0,0,1,1.32-1.33,5.69,5.69,0,0,0,1.22-1.07,1.63,1.63,0,0,0,.29-.93,1,1,0,0,0-.42-.87,2,2,0,0,0-1.18-.29,6.64,6.64,0,0,0-3,.86l-1-1.93a8.41,8.41,0,0,1,4.16-1.1,4.41,4.41,0,0,1,2.87.87,2.83,2.83,0,0,1,1.07,2.32,3,3,0,0,1-.44,1.67,6.27,6.27,0,0,1-1.67,1.59,5.2,5.2,0,0,0-1.06.94,1.51,1.51,0,0,0-.23.86v.52Zm-.28,3a1.48,1.48,0,0,1,.4-1.12,1.59,1.59,0,0,1,1.15-.37,1.61,1.61,0,0,1,1.13.38,1.51,1.51,0,0,1,.4,1.11,1.46,1.46,0,0,1-.41,1.09,1.51,1.51,0,0,1-1.12.4,1.58,1.58,0,0,1-1.14-.39A1.46,1.46,0,0,1,245.15,69.15Z"/></clipPath></defs><title>text1</title><g id="Layer_2" data-name="Layer 2"><g id="Layer_1-2" data-name="Layer 1"><path class="cls-1" d="M30.34,27.48v4.93H27.62V19.56h3.74a6.46,6.46,0,0,1,3.88,1,3.4,3.4,0,0,1,1.25,2.9,3.35,3.35,0,0,1-.62,2,4.16,4.16,0,0,1-1.77,1.39c1.94,2.89,3.2,4.75,3.78,5.6h-3l-3.07-4.93Zm0-2.22h.88a3.35,3.35,0,0,0,1.91-.43,1.54,1.54,0,0,0,.61-1.35,1.39,1.39,0,0,0-.63-1.3,3.73,3.73,0,0,0-1.94-.39h-.83Z"/><path class="cls-1" d="M49.42,32.41H42V19.56h7.4v2.23H44.75v2.82h4.34v2.23H44.75v3.32h4.67Z"/><path class="cls-1" d="M62.49,32.41l-.93-3.06H56.87l-.93,3.06H53L57.54,19.5h3.33l4.55,12.91Zm-1.58-5.35c-.87-2.77-1.35-4.34-1.46-4.7s-.19-.65-.23-.86q-.3,1.13-1.66,5.56Z"/><path class="cls-1" d="M80.22,25.86a6.35,6.35,0,0,1-1.8,4.86,7.41,7.41,0,0,1-5.22,1.69H69.56V19.56h4a6.79,6.79,0,0,1,4.89,1.66A6.11,6.11,0,0,1,80.22,25.86Zm-2.83.07q0-4.14-3.65-4.14H72.28v8.37h1.17Q77.4,30.16,77.39,25.93Z"/><path class="cls-1" d="M89.4,24.85l2.68-5.29H95l-4.26,7.85v5H88.05V27.49l-4.26-7.93h2.95Z"/><path class="cls-1" d="M111.31,32.41h-2.73V21.83H105.1V19.56h9.7v2.27h-3.49Z"/><path class="cls-1" d="M131,26a7,7,0,0,1-1.58,4.91,6.87,6.87,0,0,1-9.07,0A7,7,0,0,1,118.73,26a6.89,6.89,0,0,1,1.58-4.9,5.94,5.94,0,0,1,4.55-1.69,5.85,5.85,0,0,1,4.53,1.7A7,7,0,0,1,131,26Zm-9.38,0a5.35,5.35,0,0,0,.82,3.25,2.87,2.87,0,0,0,2.44,1.09c2.18,0,3.26-1.45,3.26-4.34s-1.08-4.34-3.24-4.34a2.88,2.88,0,0,0-2.45,1.1A5.34,5.34,0,0,0,121.58,26Z"/><path class="cls-1" d="M148.3,32.41h-2.73V21.83h-3.49V19.56h9.7v2.27H148.3Z"/><path class="cls-1" d="M166.81,32.41H164.1V26.86H159v5.55h-2.73V19.56H159v5h5.09v-5h2.71Z"/><path class="cls-1" d="M175.3,27.48v4.93h-2.73V19.56h3.75a6.43,6.43,0,0,1,3.87,1,3.41,3.41,0,0,1,1.26,2.9,3.42,3.42,0,0,1-.62,2,4.22,4.22,0,0,1-1.77,1.39c1.93,2.89,3.19,4.75,3.78,5.6h-3l-3.07-4.93Zm0-2.22h.88a3.32,3.32,0,0,0,1.9-.43,1.52,1.52,0,0,0,.62-1.35,1.39,1.39,0,0,0-.63-1.3,3.8,3.8,0,0,0-1.95-.39h-.82Z"/><path class="cls-1" d="M198.64,26a7,7,0,0,1-1.58,4.91,6.87,6.87,0,0,1-9.07,0A7,7,0,0,1,186.41,26a6.89,6.89,0,0,1,1.58-4.9,5.94,5.94,0,0,1,4.55-1.69,5.82,5.82,0,0,1,4.53,1.7A7,7,0,0,1,198.64,26Zm-9.38,0a5.42,5.42,0,0,0,.82,3.25,2.87,2.87,0,0,0,2.44,1.09c2.18,0,3.26-1.45,3.26-4.34s-1.08-4.34-3.24-4.34a2.88,2.88,0,0,0-2.45,1.1A5.34,5.34,0,0,0,189.26,26Z"/><path class="cls-1" d="M216.34,32.41h-3.1l-1.74-6.75c-.07-.24-.18-.74-.33-1.49a14.78,14.78,0,0,1-.27-1.52c0,.32-.12.83-.27,1.53s-.24,1.2-.32,1.49l-1.73,6.74h-3.1l-3.27-12.85h2.68l1.64,7c.29,1.3.5,2.42.62,3.37,0-.34.12-.85.25-1.55a15.83,15.83,0,0,1,.35-1.63l1.87-7.2h2.58l1.87,7.2c.08.32.19.81.31,1.47s.22,1.23.28,1.71c.06-.46.15-1,.28-1.71s.25-1.24.35-1.66l1.64-7h2.68Z"/><path class="cls-1" d="M35.48,51.41l-.93-3.06H29.87l-.93,3.06H26L30.54,38.5h3.33l4.55,12.91ZM33.9,46.06q-1.29-4.16-1.45-4.7c-.11-.36-.19-.65-.24-.86q-.28,1.13-1.66,5.56Z"/><path class="cls-1" d="M57.34,47.84a3.31,3.31,0,0,1-1.26,2.74,5.4,5.4,0,0,1-3.48,1A8.15,8.15,0,0,1,49,50.81V48.28a15,15,0,0,0,2.2.82,6.87,6.87,0,0,0,1.65.23A2.34,2.34,0,0,0,54.19,49a1.2,1.2,0,0,0,.48-1,1.12,1.12,0,0,0-.22-.67,2.17,2.17,0,0,0-.62-.57,15.81,15.81,0,0,0-1.66-.87A7.79,7.79,0,0,1,50.4,44.8a4.16,4.16,0,0,1-.94-1.19A3.44,3.44,0,0,1,49.11,42a3.32,3.32,0,0,1,1.16-2.68,4.79,4.79,0,0,1,3.19-1,7.4,7.4,0,0,1,1.91.24,13.28,13.28,0,0,1,1.91.67L56.4,41.4a13.54,13.54,0,0,0-1.7-.59,5.58,5.58,0,0,0-1.33-.17,1.73,1.73,0,0,0-1.18.36,1.17,1.17,0,0,0-.42.94,1.19,1.19,0,0,0,.17.63,1.88,1.88,0,0,0,.53.52,15.9,15.9,0,0,0,1.73.9,6.84,6.84,0,0,1,2.47,1.73A3.38,3.38,0,0,1,57.34,47.84Z"/><path class="cls-1" d="M72.72,51.41H70V45.86H64.91v5.55H62.19V38.56h2.72v5H70v-5h2.72Z"/><path class="cls-1" d="M78.48,51.41V38.56H81.2V51.41Z"/><path class="cls-1" d="M98.36,51.41H94.89L89.3,41.69h-.07c.11,1.71.16,2.94.16,3.67v6H87V38.56h3.43L96,48.18H96c-.09-1.67-.13-2.85-.13-3.54V38.56h2.45Z"/><path class="cls-1" d="M111.51,51.41h-7.4V38.56h7.4v2.23h-4.67v2.82h4.35v2.23h-4.35v3.32h4.67Z"/><path class="cls-1" d="M126.59,51.41h-2.68V38.56h7.36v2.23h-4.68V44.1H131v2.23h-4.36Z"/><path class="cls-1" d="M148,45a7,7,0,0,1-1.58,4.91,6.87,6.87,0,0,1-9.07,0A7,7,0,0,1,135.74,45a6.89,6.89,0,0,1,1.58-4.9,5.94,5.94,0,0,1,4.55-1.69,5.83,5.83,0,0,1,4.53,1.7A7,7,0,0,1,148,45Zm-9.38,0a5.35,5.35,0,0,0,.82,3.25,2.87,2.87,0,0,0,2.44,1.09c2.18,0,3.26-1.45,3.26-4.34s-1.08-4.34-3.24-4.34a2.88,2.88,0,0,0-2.45,1.1A5.34,5.34,0,0,0,138.59,45Z"/><path class="cls-1" d="M155.88,46.48v4.93h-2.73V38.56h3.75a6.43,6.43,0,0,1,3.87.95,3.8,3.8,0,0,1,.64,4.91,4.22,4.22,0,0,1-1.77,1.39c1.93,2.89,3.19,4.75,3.78,5.6h-3l-3.07-4.93Zm0-2.22h.88a3.32,3.32,0,0,0,1.9-.43,1.54,1.54,0,0,0,.62-1.35,1.39,1.39,0,0,0-.63-1.3,3.8,3.8,0,0,0-2-.39h-.82Z"/><path class="cls-1" d="M35.2,66.84A3.33,3.33,0,0,1,34,69.58a5.45,5.45,0,0,1-3.49,1,8.08,8.08,0,0,1-3.63-.77V67.28a14.6,14.6,0,0,0,2.2.82,6.87,6.87,0,0,0,1.65.23A2.33,2.33,0,0,0,32.05,68a1.18,1.18,0,0,0,.48-1,1.11,1.11,0,0,0-.21-.67,2.31,2.31,0,0,0-.62-.57A16.32,16.32,0,0,0,30,64.86a7.92,7.92,0,0,1-1.76-1.06,4,4,0,0,1-.94-1.19,3.71,3.71,0,0,1,.8-4.26,4.82,4.82,0,0,1,3.2-1,7.52,7.52,0,0,1,1.91.24,13.18,13.18,0,0,1,1.9.67l-.88,2.12a12.52,12.52,0,0,0-1.7-.59,5.56,5.56,0,0,0-1.32-.17,1.76,1.76,0,0,0-1.19.36,1.2,1.2,0,0,0-.41.94,1.1,1.1,0,0,0,.17.63,1.75,1.75,0,0,0,.53.52,15.39,15.39,0,0,0,1.72.9,6.66,6.66,0,0,1,2.47,1.73A3.32,3.32,0,0,1,35.2,66.84Z"/><path class="cls-1" d="M50.58,70.41H47.86V64.86H42.78v5.55H40.05V57.56h2.73v5h5.08v-5h2.72Z"/><path class="cls-1" d="M63.74,70.41h-7.4V57.56h7.4v2.23H59.07v2.82h4.35v2.23H59.07v3.32h4.67Z"/><path class="cls-1" d="M68.94,70.41V57.56h2.73v10.6h5.21v2.25Z"/><path class="cls-1" d="M86.59,70.41H83.87V59.83H80.38V57.56h9.7v2.27H86.59Z"/><path class="cls-1" d="M102,70.41h-7.4V57.56H102v2.23H97.3v2.82h4.35v2.23H97.3v3.32H102Z"/><path class="cls-1" d="M109.9,65.48v4.93h-2.72V57.56h3.74a6.46,6.46,0,0,1,3.88.95,3.41,3.41,0,0,1,1.26,2.9,3.36,3.36,0,0,1-.63,2,4.13,4.13,0,0,1-1.76,1.39c1.93,2.89,3.19,4.75,3.77,5.6h-3l-3.07-4.93Zm0-2.22h.88a3.35,3.35,0,0,0,1.91-.43,1.54,1.54,0,0,0,.61-1.35,1.41,1.41,0,0,0-.62-1.3,3.8,3.8,0,0,0-2-.39h-.83Z"/><path class="cls-1" d="M121.58,57.56h4a7.69,7.69,0,0,1,4,.78,2.7,2.7,0,0,1,1.23,2.47,3.11,3.11,0,0,1-.54,1.89,2.17,2.17,0,0,1-1.43.89v.08a2.91,2.91,0,0,1,1.76,1,3.33,3.33,0,0,1,.54,2,3.25,3.25,0,0,1-1.27,2.74,5.48,5.48,0,0,1-3.45,1h-4.81Zm2.73,5.09h1.58a2.85,2.85,0,0,0,1.6-.35,1.26,1.26,0,0,0,.5-1.13,1.13,1.13,0,0,0-.54-1.06,3.52,3.52,0,0,0-1.71-.32h-1.43Zm0,2.16v3.35h1.77a2.66,2.66,0,0,0,1.66-.43,1.59,1.59,0,0,0,.54-1.32c0-1.07-.76-1.6-2.29-1.6Z"/><path class="cls-1" d="M147.86,64a7,7,0,0,1-1.58,4.91,6.87,6.87,0,0,1-9.07,0A7,7,0,0,1,135.62,64a6.9,6.9,0,0,1,1.59-4.9,5.92,5.92,0,0,1,4.55-1.69,5.85,5.85,0,0,1,4.53,1.7A7,7,0,0,1,147.86,64Zm-9.38,0a5.35,5.35,0,0,0,.82,3.25,2.87,2.87,0,0,0,2.44,1.09c2.18,0,3.26-1.45,3.26-4.34s-1.08-4.34-3.24-4.34a2.87,2.87,0,0,0-2.45,1.1A5.34,5.34,0,0,0,138.48,64Z"/><path class="cls-1" d="M163.43,70.41h-3.11l-3-4.86-3,4.86h-2.92l4.27-6.63-4-6.22h3l2.77,4.62,2.72-4.62h2.93l-4,6.37Z"/><path class="cls-1" d="M183.64,61.57a3.91,3.91,0,0,1-1.3,3.17,5.54,5.54,0,0,1-3.68,1.1h-1.17v4.57h-2.73V57.56h4.11a5.44,5.44,0,0,1,3.55,1A3.69,3.69,0,0,1,183.64,61.57Zm-6.15,2h.89a3,3,0,0,0,1.88-.49,1.74,1.74,0,0,0,.63-1.45,1.79,1.79,0,0,0-.52-1.41,2.43,2.43,0,0,0-1.64-.46h-1.24Z"/><path class="cls-1" d="M196.45,70.41l-.93-3.06h-4.68l-.94,3.06H187L191.5,57.5h3.33l4.56,12.91Zm-1.58-5.35c-.86-2.77-1.35-4.34-1.45-4.7s-.19-.65-.24-.86q-.28,1.13-1.66,5.56Z"/><path class="cls-1" d="M206.25,65.48v4.93h-2.73V57.56h3.75a6.43,6.43,0,0,1,3.87.95,3.8,3.8,0,0,1,.64,4.91A4.22,4.22,0,0,1,210,64.81c1.93,2.89,3.19,4.75,3.78,5.6h-3l-3.07-4.93Zm0-2.22h.88a3.37,3.37,0,0,0,1.91-.43,1.54,1.54,0,0,0,.61-1.35,1.39,1.39,0,0,0-.63-1.3,3.78,3.78,0,0,0-1.94-.39h-.83Z"/><path class="cls-1" d="M222.88,70.41h-2.72V59.83h-3.49V57.56h9.7v2.27h-3.49Z"/><path class="cls-1" d="M234.87,62.85l2.68-5.29h2.94l-4.27,7.85v5h-2.7V65.49l-4.27-7.93h3Z"/><path class="cls-1" d="M245.43,66.14v-.65a2.85,2.85,0,0,1,.36-1.46,4.68,4.68,0,0,1,1.32-1.33,5.69,5.69,0,0,0,1.22-1.07,1.63,1.63,0,0,0,.29-.93,1,1,0,0,0-.42-.87,2,2,0,0,0-1.18-.29,6.64,6.64,0,0,0-3,.86l-1-1.93a8.41,8.41,0,0,1,4.16-1.1,4.41,4.41,0,0,1,2.87.87,2.83,2.83,0,0,1,1.07,2.32,3,3,0,0,1-.44,1.67,6.27,6.27,0,0,1-1.67,1.59,5.2,5.2,0,0,0-1.06.94,1.51,1.51,0,0,0-.23.86v.52Zm-.28,3a1.48,1.48,0,0,1,.4-1.12,1.59,1.59,0,0,1,1.15-.37,1.61,1.61,0,0,1,1.13.38,1.51,1.51,0,0,1,.4,1.11,1.46,1.46,0,0,1-.41,1.09,1.51,1.51,0,0,1-1.12.4,1.58,1.58,0,0,1-1.14-.39A1.46,1.46,0,0,1,245.15,69.15Z"/><g class="cls-38"><rect class="cls-1" width="728" height="90"/></g></g></g></svg>