<svg xmlns="http://www.w3.org/2000/svg" xmlns:xlink="http://www.w3.org/1999/xlink" viewBox="0 0 728 90"><defs><style>.cls-1,.cls-10,.cls-11,.cls-12,.cls-13,.cls-14,.cls-15,.cls-16,.cls-17,.cls-18,.cls-19,.cls-2,.cls-20,.cls-21,.cls-22,.cls-23,.cls-24,.cls-25,.cls-26,.cls-27,.cls-28,.cls-29,.cls-3,.cls-30,.cls-31,.cls-32,.cls-33,.cls-34,.cls-35,.cls-36,.cls-37,.cls-38,.cls-39,.cls-4,.cls-40,.cls-41,.cls-42,.cls-43,.cls-44,.cls-45,.cls-46,.cls-47,.cls-48,.cls-49,.cls-5,.cls-50,.cls-6,.cls-7,.cls-8,.cls-9{fill:#fff;}.cls-2{clip-path:url(#clip-path);}.cls-3{clip-path:url(#clip-path-2);}.cls-4{clip-path:url(#clip-path-49);}.cls-5{clip-path:url(#clip-path-3);}.cls-6{clip-path:url(#clip-path-4);}.cls-7{clip-path:url(#clip-path-5);}.cls-8{clip-path:url(#clip-path-6);}.cls-9{clip-path:url(#clip-path-7);}.cls-10{clip-path:url(#clip-path-8);}.cls-11{clip-path:url(#clip-path-9);}.cls-12{clip-path:url(#clip-path-10);}.cls-13{clip-path:url(#clip-path-11);}.cls-14{clip-path:url(#clip-path-12);}.cls-15{clip-path:url(#clip-path-13);}.cls-16{clip-path:url(#clip-path-14);}.cls-17{clip-path:url(#clip-path-15);}.cls-18{clip-path:url(#clip-path-16);}.cls-19{clip-path:url(#clip-path-17);}.cls-20{clip-path:url(#clip-path-18);}.cls-21{clip-path:url(#clip-path-19);}.cls-22{clip-path:url(#clip-path-20);}.cls-23{clip-path:url(#clip-path-21);}.cls-24{clip-path:url(#clip-path-22);}.cls-25{clip-path:url(#clip-path-23);}.cls-26{clip-path:url(#clip-path-24);}.cls-27{clip-path:url(#clip-path-25);}.cls-28{clip-path:url(#clip-path-26);}.cls-29{clip-path:url(#clip-path-27);}.cls-30{clip-path:url(#clip-path-28);}.cls-31{clip-path:url(#clip-path-29);}.cls-32{clip-path:url(#clip-path-30);}.cls-33{clip-path:url(#clip-path-31);}.cls-34{clip-path:url(#clip-path-32);}.cls-35{clip-path:url(#clip-path-33);}.cls-36{clip-path:url(#clip-path-34);}.cls-37{clip-path:url(#clip-path-35);}.cls-38{clip-path:url(#clip-path-36);}.cls-39{clip-path:url(#clip-path-37);}.cls-40{clip-path:url(#clip-path-38);}.cls-41{clip-path:url(#clip-path-39);}.cls-42{clip-path:url(#clip-path-40);}.cls-43{clip-path:url(#clip-path-41);}.cls-44{clip-path:url(#clip-path-42);}.cls-45{clip-path:url(#clip-path-43);}.cls-46{clip-path:url(#clip-path-44);}.cls-47{clip-path:url(#clip-path-45);}.cls-48{clip-path:url(#clip-path-46);}.cls-49{clip-path:url(#clip-path-47);}.cls-50{clip-path:url(#clip-path-48);}.cls-51{clip-path:url(#clip-path-50);}</style><clipPath id="clip-path"><path class="cls-1" d="M30.58,32.44H27.85V21.86H24.36V19.59h9.7v2.27H30.58Z"/></clipPath><clipPath id="clip-path-2"><path class="cls-4" d="M145.89,32.44V19.59h2.72V32.44Z"/></clipPath><clipPath id="clip-path-3"><path class="cls-3" d="M154.37,32.44V19.59h2.72v10.6h5.21v2.25Z"/></clipPath><clipPath id="clip-path-4"><path class="cls-5" d="M167.06,32.44V19.59h2.72v10.6H175v2.25Z"/></clipPath><clipPath id="clip-path-5"><path class="cls-6" d="M191.9,32.44h-2.73V21.86h-3.48V19.59h9.7v2.27H191.9Z"/></clipPath><clipPath id="clip-path-6"><path class="cls-7" d="M199.89,32.44V19.59h2.72V32.44Z"/></clipPath><clipPath id="clip-path-7"><path class="cls-8" d="M213.81,32.44l-3.1-10.08h-.08c.11,2.05.17,3.42.17,4.1v6h-2.43V19.59h3.7l3.05,9.82h0l3.22-9.82h3.71V32.44h-2.54V26.36c0-.29,0-.62,0-1s0-1.37.11-3h-.07L216.3,32.44Z"/></clipPath><clipPath id="clip-path-8"><path class="cls-9" d="M235.26,32.44h-7.4V19.59h7.4v2.23h-4.68v2.82h4.35v2.23h-4.35v3.32h4.68Z"/></clipPath><clipPath id="clip-path-9"><path class="cls-10" d="M252.61,32.44h-2.72V21.86H246.4V19.59h9.7v2.27h-3.49Z"/></clipPath><clipPath id="clip-path-10"><path class="cls-11" d="M272.26,26a7,7,0,0,1-1.58,4.9,6.87,6.87,0,0,1-9.07,0A7,7,0,0,1,260,26a6.89,6.89,0,0,1,1.58-4.9,5.94,5.94,0,0,1,4.55-1.69,5.82,5.82,0,0,1,4.53,1.7A7,7,0,0,1,272.26,26Zm-9.38,0a5.41,5.41,0,0,0,.82,3.24,2.86,2.86,0,0,0,2.44,1.09c2.18,0,3.26-1.45,3.26-4.33s-1.08-4.35-3.24-4.35a2.88,2.88,0,0,0-2.45,1.1A5.35,5.35,0,0,0,262.88,26Z"/></clipPath><clipPath id="clip-path-11"><path class="cls-12" d="M36.15,51.44H33.43V45.89H28.34v5.55H25.62V38.59h2.72v5h5.09v-5h2.72Z"/></clipPath><clipPath id="clip-path-12"><path class="cls-2" d="M49.09,32.44H46.38V26.89H41.29v5.55H38.56V19.59h2.73v5h5.09v-5h2.71Z"/></clipPath><clipPath id="clip-path-13"><path class="cls-13" d="M49.31,51.44h-7.4V38.59h7.4v2.23H44.63v2.82H49v2.23H44.63v3.32h4.68Z"/></clipPath><clipPath id="clip-path-14"><path class="cls-15" d="M54.51,51.44V38.59h2.73v10.6h5.21v2.25Z"/></clipPath><clipPath id="clip-path-15"><path class="cls-16" d="M76.08,42.6a3.91,3.91,0,0,1-1.3,3.17,5.55,5.55,0,0,1-3.69,1.1H69.93v4.57H67.2V38.59h4.1a5.42,5.42,0,0,1,3.56,1A3.67,3.67,0,0,1,76.08,42.6Zm-6.15,2h.89a3,3,0,0,0,1.88-.5,1.73,1.73,0,0,0,.63-1.45,1.76,1.76,0,0,0-.53-1.41,2.4,2.4,0,0,0-1.64-.46H69.93Z"/></clipPath><clipPath id="clip-path-16"><path class="cls-17" d="M93.1,44.22h5.1v6.66a14.67,14.67,0,0,1-2.34.57,15,15,0,0,1-2.24.16,5.66,5.66,0,0,1-4.44-1.71A7.09,7.09,0,0,1,87.65,45a6.47,6.47,0,0,1,1.78-4.86,6.74,6.74,0,0,1,4.93-1.74,9.72,9.72,0,0,1,3.82.79l-.91,2.18a6.57,6.57,0,0,0-2.92-.7,3.6,3.6,0,0,0-2.83,1.19,4.59,4.59,0,0,0-1.07,3.19,5.12,5.12,0,0,0,.86,3.19,3,3,0,0,0,2.49,1.11,8.54,8.54,0,0,0,1.73-.18V46.49H93.1Z"/></clipPath><clipPath id="clip-path-17"><path class="cls-18" d="M103.77,51.44V38.59h2.73V51.44Z"/></clipPath><clipPath id="clip-path-18"><path class="cls-19" d="M119.58,38.59h2.75L118,51.44h-3l-4.36-12.85h2.76l2.41,7.64c.14.46.28,1,.42,1.58s.23,1,.27,1.25a21.34,21.34,0,0,1,.66-2.83Z"/></clipPath><clipPath id="clip-path-19"><path class="cls-20" d="M133.87,51.44h-7.4V38.59h7.4v2.23H129.2v2.82h4.35v2.23H129.2v3.32h4.67Z"/></clipPath><clipPath id="clip-path-20"><path class="cls-21" d="M153.67,51.44h-7.4V38.59h7.4v2.23H149v2.82h4.35v2.23H149v3.32h4.68Z"/></clipPath><clipPath id="clip-path-21"><path class="cls-22" d="M164.31,51.44l-3.1-10.08h-.07c.11,2,.16,3.42.16,4.1v6h-2.43V38.59h3.71l3,9.82h0l3.23-9.82h3.71V51.44h-2.54V45.36c0-.29,0-.62,0-1s0-1.37.12-3h-.08L166.8,51.44Z"/></clipPath><clipPath id="clip-path-22"><path class="cls-23" d="M185.76,51.44h-7.4V38.59h7.4v2.23h-4.68v2.82h4.36v2.23h-4.36v3.32h4.68Z"/></clipPath><clipPath id="clip-path-23"><path class="cls-14" d="M62.25,32.44h-7.4V19.59h7.4v2.23H57.58v2.82h4.35v2.23H57.58v3.32h4.67Z"/></clipPath><clipPath id="clip-path-24"><path class="cls-24" d="M193.69,46.51v4.93H191V38.59h3.75a6.45,6.45,0,0,1,3.87.95,3.41,3.41,0,0,1,1.26,2.9,3.36,3.36,0,0,1-.63,2,4.06,4.06,0,0,1-1.76,1.39c1.93,2.89,3.19,4.75,3.78,5.6h-3l-3.06-4.93Zm0-2.22h.87a3.33,3.33,0,0,0,1.91-.43,1.54,1.54,0,0,0,.62-1.35,1.41,1.41,0,0,0-.63-1.3,3.8,3.8,0,0,0-2-.39h-.82Z"/></clipPath><clipPath id="clip-path-25"><path class="cls-26" d="M210.24,44.22h5.1v6.66a14.57,14.57,0,0,1-2.33.57,15,15,0,0,1-2.24.16,5.65,5.65,0,0,1-4.44-1.71,7,7,0,0,1-1.54-4.9,6.51,6.51,0,0,1,1.78-4.86,6.77,6.77,0,0,1,4.94-1.74,9.63,9.63,0,0,1,3.81.79l-.9,2.18a6.61,6.61,0,0,0-2.93-.7,3.62,3.62,0,0,0-2.83,1.19,4.59,4.59,0,0,0-1.06,3.19,5.12,5.12,0,0,0,.85,3.19,3,3,0,0,0,2.5,1.11,8.69,8.69,0,0,0,1.73-.18V46.49h-2.44Z"/></clipPath><clipPath id="clip-path-26"><path class="cls-27" d="M228.32,51.44h-7.4V38.59h7.4v2.23h-4.68v2.82H228v2.23h-4.35v3.32h4.68Z"/></clipPath><clipPath id="clip-path-27"><path class="cls-28" d="M244.92,51.44h-3.46l-5.59-9.72h-.08c.11,1.71.16,2.94.16,3.67v6h-2.43V38.59H237l5.58,9.62h.06c-.09-1.67-.13-2.85-.13-3.54V38.59h2.45Z"/></clipPath><clipPath id="clip-path-28"><path class="cls-29" d="M256.13,40.67a2.78,2.78,0,0,0-2.38,1.16,5.38,5.38,0,0,0-.84,3.22c0,2.86,1.07,4.3,3.22,4.3a10.25,10.25,0,0,0,3.28-.68V51a9.1,9.1,0,0,1-3.53.66,5.37,5.37,0,0,1-4.29-1.7A7.19,7.19,0,0,1,250.1,45a7.89,7.89,0,0,1,.73-3.51,5.3,5.3,0,0,1,2.1-2.31,6.16,6.16,0,0,1,3.2-.81,8.69,8.69,0,0,1,3.76.91L259,41.52c-.48-.22-1-.42-1.45-.59A4.28,4.28,0,0,0,256.13,40.67Z"/></clipPath><clipPath id="clip-path-29"><path class="cls-30" d="M268.66,43.88l2.68-5.29h2.94L270,46.44v5h-2.71V46.52l-4.26-7.93H266Z"/></clipPath><clipPath id="clip-path-30"><path class="cls-31" d="M25.62,70.44V57.59h2.72v10.6h5.21v2.25Z"/></clipPath><clipPath id="clip-path-31"><path class="cls-32" d="M38.31,70.44V57.59H41V70.44Z"/></clipPath><clipPath id="clip-path-32"><path class="cls-33" d="M51.66,63.22h5.1v6.66a14.31,14.31,0,0,1-2.33.57,15,15,0,0,1-2.24.16,5.65,5.65,0,0,1-4.44-1.71A7.09,7.09,0,0,1,46.21,64,6.51,6.51,0,0,1,48,59.14a6.78,6.78,0,0,1,4.94-1.74,9.63,9.63,0,0,1,3.81.79l-.9,2.18a6.58,6.58,0,0,0-2.93-.7,3.62,3.62,0,0,0-2.83,1.19A4.59,4.59,0,0,0,49,64.05a5.05,5.05,0,0,0,.86,3.19,3,3,0,0,0,2.49,1.11,8.62,8.62,0,0,0,1.73-.18V65.49H51.66Z"/></clipPath><clipPath id="clip-path-33"><path class="cls-34" d="M72.87,70.44H70.15V64.89H65.06v5.55H62.34V57.59h2.72v5h5.09v-5h2.72Z"/></clipPath><clipPath id="clip-path-34"><path class="cls-25" d="M70.18,27.51v4.93H67.46V19.59H71.2a6.46,6.46,0,0,1,3.88.95,3.43,3.43,0,0,1,1.25,2.9,3.42,3.42,0,0,1-.62,2,4.15,4.15,0,0,1-1.77,1.39c1.94,2.89,3.19,4.75,3.78,5.6h-3l-3.07-4.93Zm0-2.22h.88A3.35,3.35,0,0,0,73,24.86a1.54,1.54,0,0,0,.61-1.35,1.41,1.41,0,0,0-.63-1.3A3.78,3.78,0,0,0,71,21.82h-.83Z"/></clipPath><clipPath id="clip-path-35"><path class="cls-35" d="M83.59,70.44H80.87V59.86H77.38V57.59h9.7v2.27H83.59Z"/></clipPath><clipPath id="clip-path-36"><path class="cls-37" d="M103.73,70.44H101V59.86H97.52V57.59h9.7v2.27h-3.49Z"/></clipPath><clipPath id="clip-path-37"><path class="cls-38" d="M122.25,70.44h-2.72V64.89h-5.09v5.55h-2.72V57.59h2.72v5h5.09v-5h2.72Z"/></clipPath><clipPath id="clip-path-38"><path class="cls-39" d="M128,70.44V57.59h2.72V70.44Z"/></clipPath><clipPath id="clip-path-39"><path class="cls-40" d="M144.07,66.87a3.3,3.3,0,0,1-1.25,2.74,5.42,5.42,0,0,1-3.48,1,8.09,8.09,0,0,1-3.64-.77V67.31a14.6,14.6,0,0,0,2.2.82,6.87,6.87,0,0,0,1.65.23,2.33,2.33,0,0,0,1.37-.34,1.18,1.18,0,0,0,.48-1,1.11,1.11,0,0,0-.21-.67,2.31,2.31,0,0,0-.62-.57,16.32,16.32,0,0,0-1.67-.87,7.92,7.92,0,0,1-1.76-1.06,4,4,0,0,1-.94-1.19,3.71,3.71,0,0,1,.8-4.26,4.82,4.82,0,0,1,3.2-1,7.46,7.46,0,0,1,1.91.24,13.18,13.18,0,0,1,1.9.67l-.88,2.12a12.52,12.52,0,0,0-1.7-.59,5.56,5.56,0,0,0-1.32-.17,1.76,1.76,0,0,0-1.19.36,1.21,1.21,0,0,0-.41.94,1.1,1.1,0,0,0,.17.63,1.75,1.75,0,0,0,.53.52,14.93,14.93,0,0,0,1.73.9,6.7,6.7,0,0,1,2.46,1.73A3.32,3.32,0,0,1,144.07,66.87Z"/></clipPath><clipPath id="clip-path-40"><path class="cls-41" d="M168.63,70.44h-3.1l-1.74-6.75c-.06-.24-.17-.74-.33-1.49s-.24-1.26-.27-1.52c0,.32-.12.83-.26,1.53s-.25,1.2-.33,1.5l-1.73,6.73h-3.09L154.5,57.59h2.68l1.64,7c.29,1.3.5,2.42.63,3.37,0-.34.11-.85.24-1.55s.25-1.25.36-1.63l1.87-7.2h2.57l1.88,7.2q.12.48.3,1.47c.13.67.22,1.23.29,1.71,0-.46.15-1,.28-1.71s.24-1.24.35-1.66l1.63-7h2.68Z"/></clipPath><clipPath id="clip-path-41"><path class="cls-42" d="M176,70.44V57.59h2.72V70.44Z"/></clipPath><clipPath id="clip-path-42"><path class="cls-43" d="M195.92,70.44h-3.46l-5.59-9.72h-.08c.11,1.71.16,2.94.16,3.67v6h-2.43V57.59H188l5.58,9.62h.06c-.09-1.67-.13-2.85-.13-3.54V57.59h2.45Z"/></clipPath><clipPath id="clip-path-43"><path class="cls-44" d="M206.63,70.44h-2.72V59.86h-3.49V57.59h9.7v2.27h-3.49Z"/></clipPath><clipPath id="clip-path-44"><path class="cls-45" d="M222,70.44h-7.4V57.59H222v2.23h-4.68v2.82h4.35v2.23h-4.35v3.32H222Z"/></clipPath><clipPath id="clip-path-45"><path class="cls-36" d="M89.26,32.44h-7.4V19.59h7.4v2.23H84.58v2.82h4.35v2.23H84.58v3.32h4.68Z"/></clipPath><clipPath id="clip-path-46"><path class="cls-47" d="M96.41,19.59l.12.19A27.11,27.11,0,0,1,95,24H93.06c.41-1.73.7-3.2.88-4.4Z"/></clipPath><clipPath id="clip-path-47"><path class="cls-48" d="M108.47,28.87a3.31,3.31,0,0,1-1.26,2.74,5.4,5.4,0,0,1-3.48,1,8.15,8.15,0,0,1-3.64-.77V29.31a15,15,0,0,0,2.2.82,6.87,6.87,0,0,0,1.65.23,2.34,2.34,0,0,0,1.38-.34,1.19,1.19,0,0,0,.47-1,1.11,1.11,0,0,0-.21-.67,2.17,2.17,0,0,0-.62-.57,15.81,15.81,0,0,0-1.66-.87,7.79,7.79,0,0,1-1.77-1.06,4.16,4.16,0,0,1-.94-1.19,3.44,3.44,0,0,1-.35-1.58,3.29,3.29,0,0,1,1.16-2.68,4.79,4.79,0,0,1,3.19-1,7.4,7.4,0,0,1,1.91.24,13.28,13.28,0,0,1,1.91.67l-.88,2.12a13.54,13.54,0,0,0-1.7-.59,5.58,5.58,0,0,0-1.33-.17,1.73,1.73,0,0,0-1.18.36,1.26,1.26,0,0,0-.25,1.57,1.88,1.88,0,0,0,.53.52,15.9,15.9,0,0,0,1.73.9,6.84,6.84,0,0,1,2.47,1.73A3.38,3.38,0,0,1,108.47,28.87Z"/></clipPath><clipPath id="clip-path-48"><path class="cls-49" d="M128.1,28.87a3.31,3.31,0,0,1-1.26,2.74,5.4,5.4,0,0,1-3.48,1,8.15,8.15,0,0,1-3.64-.77V29.31a15,15,0,0,0,2.2.82,6.87,6.87,0,0,0,1.65.23A2.34,2.34,0,0,0,125,30a1.17,1.17,0,0,0,.47-1,1.11,1.11,0,0,0-.21-.67,2.17,2.17,0,0,0-.62-.57,15.81,15.81,0,0,0-1.66-.87,7.79,7.79,0,0,1-1.77-1.06,4.16,4.16,0,0,1-.94-1.19,3.44,3.44,0,0,1-.35-1.58A3.32,3.32,0,0,1,121,20.38a4.79,4.79,0,0,1,3.19-1,7.4,7.4,0,0,1,1.91.24,13.28,13.28,0,0,1,1.91.67l-.88,2.12a13.54,13.54,0,0,0-1.7-.59,5.58,5.58,0,0,0-1.33-.17A1.73,1.73,0,0,0,123,22a1.26,1.26,0,0,0-.25,1.57,1.88,1.88,0,0,0,.53.52A14.93,14.93,0,0,0,125,25a6.84,6.84,0,0,1,2.47,1.73A3.38,3.38,0,0,1,128.1,28.87Z"/></clipPath><clipPath id="clip-path-49"><path class="cls-50" d="M137.9,32.44h-2.72V21.86h-3.49V19.59h9.7v2.27H137.9Z"/></clipPath><clipPath id="clip-path-50"><path class="cls-46" d="M229.94,65.51v4.93h-2.72V57.59H231a6.46,6.46,0,0,1,3.88.95,3.4,3.4,0,0,1,1.25,2.9,3.35,3.35,0,0,1-.62,2,4.09,4.09,0,0,1-1.77,1.39c1.94,2.89,3.2,4.75,3.78,5.6h-3l-3.07-4.93Zm0-2.22h.88a3.35,3.35,0,0,0,1.91-.43,1.54,1.54,0,0,0,.61-1.35,1.42,1.42,0,0,0-.62-1.3,3.8,3.8,0,0,0-1.95-.39h-.83Z"/></clipPath></defs><title>text2</title><g id="Layer_2" data-name="Layer 2"><g id="Layer_1-2" data-name="Layer 1"><path class="cls-1" d="M30.58,32.44H27.85V21.86H24.36V19.59h9.7v2.27H30.58Z"/><path class="cls-1" d="M49.09,32.44H46.38V26.89H41.29v5.55H38.56V19.59h2.73v5h5.09v-5h2.71Z"/><path class="cls-1" d="M62.25,32.44h-7.4V19.59h7.4v2.23H57.58v2.82h4.35v2.23H57.58v3.32h4.67Z"/><path class="cls-1" d="M70.18,27.51v4.93H67.46V19.59H71.2a6.46,6.46,0,0,1,3.88.95,3.43,3.43,0,0,1,1.25,2.9,3.42,3.42,0,0,1-.62,2,4.15,4.15,0,0,1-1.77,1.39c1.94,2.89,3.19,4.75,3.78,5.6h-3l-3.07-4.93Zm0-2.22h.88A3.35,3.35,0,0,0,73,24.86a1.54,1.54,0,0,0,.61-1.35,1.41,1.41,0,0,0-.63-1.3A3.78,3.78,0,0,0,71,21.82h-.83Z"/><path class="cls-1" d="M89.26,32.44h-7.4V19.59h7.4v2.23H84.58v2.82h4.35v2.23H84.58v3.32h4.68Z"/><path class="cls-1" d="M96.41,19.59l.12.19A27.11,27.11,0,0,1,95,24H93.06c.41-1.73.7-3.2.88-4.4Z"/><path class="cls-1" d="M108.47,28.87a3.31,3.31,0,0,1-1.26,2.74,5.4,5.4,0,0,1-3.48,1,8.15,8.15,0,0,1-3.64-.77V29.31a15,15,0,0,0,2.2.82,6.87,6.87,0,0,0,1.65.23,2.34,2.34,0,0,0,1.38-.34,1.19,1.19,0,0,0,.47-1,1.11,1.11,0,0,0-.21-.67,2.17,2.17,0,0,0-.62-.57,15.81,15.81,0,0,0-1.66-.87,7.79,7.79,0,0,1-1.77-1.06,4.16,4.16,0,0,1-.94-1.19,3.44,3.44,0,0,1-.35-1.58,3.29,3.29,0,0,1,1.16-2.68,4.79,4.79,0,0,1,3.19-1,7.4,7.4,0,0,1,1.91.24,13.28,13.28,0,0,1,1.91.67l-.88,2.12a13.54,13.54,0,0,0-1.7-.59,5.58,5.58,0,0,0-1.33-.17,1.73,1.73,0,0,0-1.18.36,1.26,1.26,0,0,0-.25,1.57,1.88,1.88,0,0,0,.53.52,15.9,15.9,0,0,0,1.73.9,6.84,6.84,0,0,1,2.47,1.73A3.38,3.38,0,0,1,108.47,28.87Z"/><path class="cls-1" d="M128.1,28.87a3.31,3.31,0,0,1-1.26,2.74,5.4,5.4,0,0,1-3.48,1,8.15,8.15,0,0,1-3.64-.77V29.31a15,15,0,0,0,2.2.82,6.87,6.87,0,0,0,1.65.23A2.34,2.34,0,0,0,125,30a1.17,1.17,0,0,0,.47-1,1.11,1.11,0,0,0-.21-.67,2.17,2.17,0,0,0-.62-.57,15.81,15.81,0,0,0-1.66-.87,7.79,7.79,0,0,1-1.77-1.06,4.16,4.16,0,0,1-.94-1.19,3.44,3.44,0,0,1-.35-1.58A3.32,3.32,0,0,1,121,20.38a4.79,4.79,0,0,1,3.19-1,7.4,7.4,0,0,1,1.91.24,13.28,13.28,0,0,1,1.91.67l-.88,2.12a13.54,13.54,0,0,0-1.7-.59,5.58,5.58,0,0,0-1.33-.17A1.73,1.73,0,0,0,123,22a1.26,1.26,0,0,0-.25,1.57,1.88,1.88,0,0,0,.53.52A14.93,14.93,0,0,0,125,25a6.84,6.84,0,0,1,2.47,1.73A3.38,3.38,0,0,1,128.1,28.87Z"/><path class="cls-1" d="M137.9,32.44h-2.72V21.86h-3.49V19.59h9.7v2.27H137.9Z"/><path class="cls-1" d="M145.89,32.44V19.59h2.72V32.44Z"/><path class="cls-1" d="M154.37,32.44V19.59h2.72v10.6h5.21v2.25Z"/><path class="cls-1" d="M167.06,32.44V19.59h2.72v10.6H175v2.25Z"/><path class="cls-1" d="M191.9,32.44h-2.73V21.86h-3.48V19.59h9.7v2.27H191.9Z"/><path class="cls-1" d="M199.89,32.44V19.59h2.72V32.44Z"/><path class="cls-1" d="M213.81,32.44l-3.1-10.08h-.08c.11,2.05.17,3.42.17,4.1v6h-2.43V19.59h3.7l3.05,9.82h0l3.22-9.82h3.71V32.44h-2.54V26.36c0-.29,0-.62,0-1s0-1.37.11-3h-.07L216.3,32.44Z"/><path class="cls-1" d="M235.26,32.44h-7.4V19.59h7.4v2.23h-4.68v2.82h4.35v2.23h-4.35v3.32h4.68Z"/><path class="cls-1" d="M252.61,32.44h-2.72V21.86H246.4V19.59h9.7v2.27h-3.49Z"/><path class="cls-1" d="M272.26,26a7,7,0,0,1-1.58,4.9,6.87,6.87,0,0,1-9.07,0A7,7,0,0,1,260,26a6.89,6.89,0,0,1,1.58-4.9,5.94,5.94,0,0,1,4.55-1.69,5.82,5.82,0,0,1,4.53,1.7A7,7,0,0,1,272.26,26Zm-9.38,0a5.41,5.41,0,0,0,.82,3.24,2.86,2.86,0,0,0,2.44,1.09c2.18,0,3.26-1.45,3.26-4.33s-1.08-4.35-3.24-4.35a2.88,2.88,0,0,0-2.45,1.1A5.35,5.35,0,0,0,262.88,26Z"/><path class="cls-1" d="M36.15,51.44H33.43V45.89H28.34v5.55H25.62V38.59h2.72v5h5.09v-5h2.72Z"/><path class="cls-1" d="M49.31,51.44h-7.4V38.59h7.4v2.23H44.63v2.82H49v2.23H44.63v3.32h4.68Z"/><path class="cls-1" d="M54.51,51.44V38.59h2.73v10.6h5.21v2.25Z"/><path class="cls-1" d="M76.08,42.6a3.91,3.91,0,0,1-1.3,3.17,5.55,5.55,0,0,1-3.69,1.1H69.93v4.57H67.2V38.59h4.1a5.42,5.42,0,0,1,3.56,1A3.67,3.67,0,0,1,76.08,42.6Zm-6.15,2h.89a3,3,0,0,0,1.88-.5,1.73,1.73,0,0,0,.63-1.45,1.76,1.76,0,0,0-.53-1.41,2.4,2.4,0,0,0-1.64-.46H69.93Z"/><path class="cls-1" d="M93.1,44.22h5.1v6.66a14.67,14.67,0,0,1-2.34.57,15,15,0,0,1-2.24.16,5.66,5.66,0,0,1-4.44-1.71A7.09,7.09,0,0,1,87.65,45a6.47,6.47,0,0,1,1.78-4.86,6.74,6.74,0,0,1,4.93-1.74,9.72,9.72,0,0,1,3.82.79l-.91,2.18a6.57,6.57,0,0,0-2.92-.7,3.6,3.6,0,0,0-2.83,1.19,4.59,4.59,0,0,0-1.07,3.19,5.12,5.12,0,0,0,.86,3.19,3,3,0,0,0,2.49,1.11,8.54,8.54,0,0,0,1.73-.18V46.49H93.1Z"/><path class="cls-1" d="M103.77,51.44V38.59h2.73V51.44Z"/><path class="cls-1" d="M119.58,38.59h2.75L118,51.44h-3l-4.36-12.85h2.76l2.41,7.64c.14.46.28,1,.42,1.58s.23,1,.27,1.25a21.34,21.34,0,0,1,.66-2.83Z"/><path class="cls-1" d="M133.87,51.44h-7.4V38.59h7.4v2.23H129.2v2.82h4.35v2.23H129.2v3.32h4.67Z"/><path class="cls-1" d="M153.67,51.44h-7.4V38.59h7.4v2.23H149v2.82h4.35v2.23H149v3.32h4.68Z"/><path class="cls-1" d="M164.31,51.44l-3.1-10.08h-.07c.11,2,.16,3.42.16,4.1v6h-2.43V38.59h3.71l3,9.82h0l3.23-9.82h3.71V51.44h-2.54V45.36c0-.29,0-.62,0-1s0-1.37.12-3h-.08L166.8,51.44Z"/><path class="cls-1" d="M185.76,51.44h-7.4V38.59h7.4v2.23h-4.68v2.82h4.36v2.23h-4.36v3.32h4.68Z"/><path class="cls-1" d="M193.69,46.51v4.93H191V38.59h3.75a6.45,6.45,0,0,1,3.87.95,3.41,3.41,0,0,1,1.26,2.9,3.36,3.36,0,0,1-.63,2,4.06,4.06,0,0,1-1.76,1.39c1.93,2.89,3.19,4.75,3.78,5.6h-3l-3.06-4.93Zm0-2.22h.87a3.33,3.33,0,0,0,1.91-.43,1.54,1.54,0,0,0,.62-1.35,1.41,1.41,0,0,0-.63-1.3,3.8,3.8,0,0,0-2-.39h-.82Z"/><path class="cls-1" d="M210.24,44.22h5.1v6.66a14.57,14.57,0,0,1-2.33.57,15,15,0,0,1-2.24.16,5.65,5.65,0,0,1-4.44-1.71,7,7,0,0,1-1.54-4.9,6.51,6.51,0,0,1,1.78-4.86,6.77,6.77,0,0,1,4.94-1.74,9.63,9.63,0,0,1,3.81.79l-.9,2.18a6.61,6.61,0,0,0-2.93-.7,3.62,3.62,0,0,0-2.83,1.19,4.59,4.59,0,0,0-1.06,3.19,5.12,5.12,0,0,0,.85,3.19,3,3,0,0,0,2.5,1.11,8.69,8.69,0,0,0,1.73-.18V46.49h-2.44Z"/><path class="cls-1" d="M228.32,51.44h-7.4V38.59h7.4v2.23h-4.68v2.82H228v2.23h-4.35v3.32h4.68Z"/><path class="cls-1" d="M244.92,51.44h-3.46l-5.59-9.72h-.08c.11,1.71.16,2.94.16,3.67v6h-2.43V38.59H237l5.58,9.62h.06c-.09-1.67-.13-2.85-.13-3.54V38.59h2.45Z"/><path class="cls-1" d="M256.13,40.67a2.78,2.78,0,0,0-2.38,1.16,5.38,5.38,0,0,0-.84,3.22c0,2.86,1.07,4.3,3.22,4.3a10.25,10.25,0,0,0,3.28-.68V51a9.1,9.1,0,0,1-3.53.66,5.37,5.37,0,0,1-4.29-1.7A7.19,7.19,0,0,1,250.1,45a7.89,7.89,0,0,1,.73-3.51,5.3,5.3,0,0,1,2.1-2.31,6.16,6.16,0,0,1,3.2-.81,8.69,8.69,0,0,1,3.76.91L259,41.52c-.48-.22-1-.42-1.45-.59A4.28,4.28,0,0,0,256.13,40.67Z"/><path class="cls-1" d="M268.66,43.88l2.68-5.29h2.94L270,46.44v5h-2.71V46.52l-4.26-7.93H266Z"/><path class="cls-1" d="M25.62,70.44V57.59h2.72v10.6h5.21v2.25Z"/><path class="cls-1" d="M38.31,70.44V57.59H41V70.44Z"/><path class="cls-1" d="M51.66,63.22h5.1v6.66a14.31,14.31,0,0,1-2.33.57,15,15,0,0,1-2.24.16,5.65,5.65,0,0,1-4.44-1.71A7.09,7.09,0,0,1,46.21,64,6.51,6.51,0,0,1,48,59.14a6.78,6.78,0,0,1,4.94-1.74,9.63,9.63,0,0,1,3.81.79l-.9,2.18a6.58,6.58,0,0,0-2.93-.7,3.62,3.62,0,0,0-2.83,1.19A4.59,4.59,0,0,0,49,64.05a5.05,5.05,0,0,0,.86,3.19,3,3,0,0,0,2.49,1.11,8.62,8.62,0,0,0,1.73-.18V65.49H51.66Z"/><path class="cls-1" d="M72.87,70.44H70.15V64.89H65.06v5.55H62.34V57.59h2.72v5h5.09v-5h2.72Z"/><path class="cls-1" d="M83.59,70.44H80.87V59.86H77.38V57.59h9.7v2.27H83.59Z"/><path class="cls-1" d="M103.73,70.44H101V59.86H97.52V57.59h9.7v2.27h-3.49Z"/><path class="cls-1" d="M122.25,70.44h-2.72V64.89h-5.09v5.55h-2.72V57.59h2.72v5h5.09v-5h2.72Z"/><path class="cls-1" d="M128,70.44V57.59h2.72V70.44Z"/><path class="cls-1" d="M144.07,66.87a3.3,3.3,0,0,1-1.25,2.74,5.42,5.42,0,0,1-3.48,1,8.09,8.09,0,0,1-3.64-.77V67.31a14.6,14.6,0,0,0,2.2.82,6.87,6.87,0,0,0,1.65.23,2.33,2.33,0,0,0,1.37-.34,1.18,1.18,0,0,0,.48-1,1.11,1.11,0,0,0-.21-.67,2.31,2.31,0,0,0-.62-.57,16.32,16.32,0,0,0-1.67-.87,7.92,7.92,0,0,1-1.76-1.06,4,4,0,0,1-.94-1.19,3.71,3.71,0,0,1,.8-4.26,4.82,4.82,0,0,1,3.2-1,7.46,7.46,0,0,1,1.91.24,13.18,13.18,0,0,1,1.9.67l-.88,2.12a12.52,12.52,0,0,0-1.7-.59,5.56,5.56,0,0,0-1.32-.17,1.76,1.76,0,0,0-1.19.36,1.21,1.21,0,0,0-.41.94,1.1,1.1,0,0,0,.17.63,1.75,1.75,0,0,0,.53.52,14.93,14.93,0,0,0,1.73.9,6.7,6.7,0,0,1,2.46,1.73A3.32,3.32,0,0,1,144.07,66.87Z"/><path class="cls-1" d="M168.63,70.44h-3.1l-1.74-6.75c-.06-.24-.17-.74-.33-1.49s-.24-1.26-.27-1.52c0,.32-.12.83-.26,1.53s-.25,1.2-.33,1.5l-1.73,6.73h-3.09L154.5,57.59h2.68l1.64,7c.29,1.3.5,2.42.63,3.37,0-.34.11-.85.24-1.55s.25-1.25.36-1.63l1.87-7.2h2.57l1.88,7.2q.12.48.3,1.47c.13.67.22,1.23.29,1.71,0-.46.15-1,.28-1.71s.24-1.24.35-1.66l1.63-7h2.68Z"/><path class="cls-1" d="M176,70.44V57.59h2.72V70.44Z"/><path class="cls-1" d="M195.92,70.44h-3.46l-5.59-9.72h-.08c.11,1.71.16,2.94.16,3.67v6h-2.43V57.59H188l5.58,9.62h.06c-.09-1.67-.13-2.85-.13-3.54V57.59h2.45Z"/><path class="cls-1" d="M206.63,70.44h-2.72V59.86h-3.49V57.59h9.7v2.27h-3.49Z"/><path class="cls-1" d="M222,70.44h-7.4V57.59H222v2.23h-4.68v2.82h4.35v2.23h-4.35v3.32H222Z"/><path class="cls-1" d="M229.94,65.51v4.93h-2.72V57.59H231a6.46,6.46,0,0,1,3.88.95,3.4,3.4,0,0,1,1.25,2.9,3.35,3.35,0,0,1-.62,2,4.09,4.09,0,0,1-1.77,1.39c1.94,2.89,3.2,4.75,3.78,5.6h-3l-3.07-4.93Zm0-2.22h.88a3.35,3.35,0,0,0,1.91-.43,1.54,1.54,0,0,0,.61-1.35,1.42,1.42,0,0,0-.62-1.3,3.8,3.8,0,0,0-1.95-.39h-.83Z"/><g class="cls-51"><rect class="cls-1" width="728" height="90"/></g></g></g></svg>