<svg xmlns="http://www.w3.org/2000/svg" xmlns:xlink="http://www.w3.org/1999/xlink" viewBox="0 0 728 90"><defs><style>.cls-1,.cls-10,.cls-11,.cls-12,.cls-13,.cls-14,.cls-15,.cls-16,.cls-17,.cls-18,.cls-19,.cls-2,.cls-20,.cls-21,.cls-22,.cls-23,.cls-24,.cls-25,.cls-26,.cls-27,.cls-28,.cls-29,.cls-3,.cls-30,.cls-31,.cls-32,.cls-4,.cls-5,.cls-6,.cls-7,.cls-8,.cls-9{fill:#fff;}.cls-2{clip-path:url(#clip-path);}.cls-3{clip-path:url(#clip-path-2);}.cls-4{clip-path:url(#clip-path-31);}.cls-5{clip-path:url(#clip-path-3);}.cls-6{clip-path:url(#clip-path-4);}.cls-7{clip-path:url(#clip-path-5);}.cls-8{clip-path:url(#clip-path-6);}.cls-9{clip-path:url(#clip-path-7);}.cls-10{clip-path:url(#clip-path-8);}.cls-11{clip-path:url(#clip-path-9);}.cls-12{clip-path:url(#clip-path-10);}.cls-13{clip-path:url(#clip-path-11);}.cls-14{clip-path:url(#clip-path-12);}.cls-15{clip-path:url(#clip-path-13);}.cls-16{clip-path:url(#clip-path-14);}.cls-17{clip-path:url(#clip-path-15);}.cls-18{clip-path:url(#clip-path-16);}.cls-19{clip-path:url(#clip-path-17);}.cls-20{clip-path:url(#clip-path-18);}.cls-21{clip-path:url(#clip-path-19);}.cls-22{clip-path:url(#clip-path-20);}.cls-23{clip-path:url(#clip-path-21);}.cls-24{clip-path:url(#clip-path-22);}.cls-25{clip-path:url(#clip-path-23);}.cls-26{clip-path:url(#clip-path-24);}.cls-27{clip-path:url(#clip-path-25);}.cls-28{clip-path:url(#clip-path-26);}.cls-29{clip-path:url(#clip-path-27);}.cls-30{clip-path:url(#clip-path-28);}.cls-31{clip-path:url(#clip-path-29);}.cls-32{clip-path:url(#clip-path-30);}.cls-33{clip-path:url(#clip-path-32);}</style><clipPath id="clip-path"><path class="cls-1" d="M31.62,24.88l2.68-5.29h2.93L33,27.44v5H30.26V27.52L26,19.59H29Z"/></clipPath><clipPath id="clip-path-2"><path class="cls-4" d="M50.48,38.59V46.9a4.87,4.87,0,0,1-.64,2.5A4.2,4.2,0,0,1,48,51a6.62,6.62,0,0,1-2.85.57,5.44,5.44,0,0,1-3.85-1.27,4.5,4.5,0,0,1-1.37-3.47V38.59h2.71v7.86a3.28,3.28,0,0,0,.6,2.18,2.47,2.47,0,0,0,2,.7,2.42,2.42,0,0,0,1.94-.7,3.33,3.33,0,0,0,.6-2.19V38.59Z"/></clipPath><clipPath id="clip-path-3"><path class="cls-3" d="M67.54,51.44H64.08l-5.59-9.72h-.08c.11,1.71.17,2.94.17,3.67v6H56.14V38.59h3.44l5.58,9.62h.06c-.09-1.67-.13-2.85-.13-3.54V38.59h2.45Z"/></clipPath><clipPath id="clip-path-4"><path class="cls-5" d="M84,44.89a6.33,6.33,0,0,1-1.81,4.86,7.34,7.34,0,0,1-5.22,1.69H73.3V38.59h4a6.79,6.79,0,0,1,4.89,1.66A6.11,6.11,0,0,1,84,44.89ZM81.13,45q0-4.14-3.66-4.14H76v8.37h1.17C79.81,49.19,81.13,47.78,81.13,45Z"/></clipPath><clipPath id="clip-path-5"><path class="cls-6" d="M91.86,46.51v4.93H89.14V38.59h3.74a6.46,6.46,0,0,1,3.88.95A3.41,3.41,0,0,1,98,42.44a3.36,3.36,0,0,1-.63,2,4.06,4.06,0,0,1-1.76,1.39c1.93,2.89,3.19,4.75,3.78,5.6h-3l-3.07-4.93Zm0-2.22h.88a3.35,3.35,0,0,0,1.91-.43,1.54,1.54,0,0,0,.62-1.35,1.41,1.41,0,0,0-.63-1.3,3.8,3.8,0,0,0-2-.39h-.83Z"/></clipPath><clipPath id="clip-path-6"><path class="cls-7" d="M111.41,51.44l-.93-3.06h-4.69l-.93,3.06h-2.94l4.54-12.9h3.33l4.55,12.9Zm-1.58-5.35c-.86-2.77-1.35-4.33-1.46-4.7s-.18-.65-.23-.86c-.19.75-.75,2.61-1.66,5.56Z"/></clipPath><clipPath id="clip-path-7"><path class="cls-8" d="M118.48,51.44V38.59h2.73V51.44Z"/></clipPath><clipPath id="clip-path-8"><path class="cls-9" d="M134.55,47.87a3.31,3.31,0,0,1-1.26,2.74,5.4,5.4,0,0,1-3.48,1,8.12,8.12,0,0,1-3.64-.77V48.31a15,15,0,0,0,2.2.82,6.87,6.87,0,0,0,1.65.23,2.29,2.29,0,0,0,1.37-.34,1.18,1.18,0,0,0,.48-1,1.11,1.11,0,0,0-.21-.67,2.17,2.17,0,0,0-.62-.57,15.81,15.81,0,0,0-1.66-.87,7.79,7.79,0,0,1-1.77-1.06,4.16,4.16,0,0,1-.94-1.19,3.44,3.44,0,0,1-.35-1.58,3.31,3.31,0,0,1,1.15-2.68,4.84,4.84,0,0,1,3.2-1,7.46,7.46,0,0,1,1.91.24,12.77,12.77,0,0,1,1.9.67l-.88,2.12a12.52,12.52,0,0,0-1.7-.59,5.5,5.5,0,0,0-1.32-.17,1.73,1.73,0,0,0-1.18.36,1.26,1.26,0,0,0-.25,1.57,1.88,1.88,0,0,0,.53.52,14.93,14.93,0,0,0,1.73.9,6.84,6.84,0,0,1,2.47,1.73A3.38,3.38,0,0,1,134.55,47.87Z"/></clipPath><clipPath id="clip-path-9"><path class="cls-10" d="M139.39,51.44V38.59h2.73V51.44Z"/></clipPath><clipPath id="clip-path-10"><path class="cls-11" d="M159.27,51.44h-3.46l-5.59-9.72h-.08c.11,1.71.17,2.94.17,3.67v6h-2.44V38.59h3.44l5.58,9.62H157c-.09-1.67-.13-2.85-.13-3.54V38.59h2.45Z"/></clipPath><clipPath id="clip-path-11"><path class="cls-12" d="M169.91,44.22H175v6.66a14.31,14.31,0,0,1-2.33.57,15,15,0,0,1-2.24.16A5.65,5.65,0,0,1,166,49.9a7.09,7.09,0,0,1-1.53-4.9,6.47,6.47,0,0,1,1.78-4.86,6.74,6.74,0,0,1,4.93-1.74,9.72,9.72,0,0,1,3.82.79l-.91,2.18a6.58,6.58,0,0,0-2.93-.7,3.63,3.63,0,0,0-2.83,1.19,4.59,4.59,0,0,0-1.06,3.19,5.05,5.05,0,0,0,.86,3.19,3,3,0,0,0,2.49,1.11,8.62,8.62,0,0,0,1.73-.18V46.49h-2.43Z"/></clipPath><clipPath id="clip-path-12"><path class="cls-2" d="M53,26a7,7,0,0,1-1.58,4.9,5.87,5.87,0,0,1-4.53,1.71,5.87,5.87,0,0,1-4.54-1.71A7,7,0,0,1,40.8,26a6.94,6.94,0,0,1,1.58-4.9,5.94,5.94,0,0,1,4.55-1.69,5.82,5.82,0,0,1,4.53,1.7A7,7,0,0,1,53,26Zm-9.37,0a5.41,5.41,0,0,0,.81,3.24,2.86,2.86,0,0,0,2.45,1.09c2.17,0,3.26-1.45,3.26-4.33s-1.09-4.35-3.25-4.35a2.88,2.88,0,0,0-2.45,1.1A5.35,5.35,0,0,0,43.66,26Z"/></clipPath><clipPath id="clip-path-13"><path class="cls-13" d="M36.49,61.6a3.93,3.93,0,0,1-1.29,3.17,5.58,5.58,0,0,1-3.69,1.1H30.34v4.57H27.62V57.59h4.1a5.42,5.42,0,0,1,3.56,1A3.67,3.67,0,0,1,36.49,61.6Zm-6.15,2h.9a3,3,0,0,0,1.88-.5,1.72,1.72,0,0,0,.62-1.45,1.76,1.76,0,0,0-.52-1.41,2.42,2.42,0,0,0-1.64-.46H30.34Z"/></clipPath><clipPath id="clip-path-14"><path class="cls-15" d="M49.31,70.44l-.94-3.06H43.69l-.93,3.06H39.82l4.54-12.9h3.33l4.55,12.9Zm-1.59-5.35c-.86-2.77-1.34-4.33-1.45-4.7s-.19-.65-.23-.86c-.2.75-.75,2.61-1.66,5.56Z"/></clipPath><clipPath id="clip-path-15"><path class="cls-16" d="M61.84,59.67a2.77,2.77,0,0,0-2.38,1.16,5.31,5.31,0,0,0-.85,3.22c0,2.86,1.08,4.3,3.23,4.3a10.3,10.3,0,0,0,3.28-.68V70a9.15,9.15,0,0,1-3.54.66,5.37,5.37,0,0,1-4.29-1.7A7.19,7.19,0,0,1,55.81,64a7.89,7.89,0,0,1,.73-3.51,5.22,5.22,0,0,1,2.09-2.31,6.17,6.17,0,0,1,3.21-.81,8.72,8.72,0,0,1,3.76.91l-.88,2.21c-.48-.22-1-.42-1.45-.59A4.33,4.33,0,0,0,61.84,59.67Z"/></clipPath><clipPath id="clip-path-16"><path class="cls-17" d="M80.7,70.44H77.61L74.25,65l-1.16.83v4.59H70.37V57.59h2.72v5.88L74.17,62l3.48-4.37h3l-4.48,5.68Z"/></clipPath><clipPath id="clip-path-17"><path class="cls-18" d="M92,70.44V57.59h2.72V70.44Z"/></clipPath><clipPath id="clip-path-18"><path class="cls-19" d="M108.1,66.87a3.33,3.33,0,0,1-1.25,2.74,5.45,5.45,0,0,1-3.49,1,8.08,8.08,0,0,1-3.63-.77V67.31a14.6,14.6,0,0,0,2.2.82,6.87,6.87,0,0,0,1.65.23A2.33,2.33,0,0,0,105,68a1.18,1.18,0,0,0,.48-1,1.11,1.11,0,0,0-.21-.67,2.31,2.31,0,0,0-.62-.57,16.32,16.32,0,0,0-1.67-.87,7.92,7.92,0,0,1-1.76-1.06,3.84,3.84,0,0,1-.94-1.19,3.71,3.71,0,0,1,.8-4.26,4.82,4.82,0,0,1,3.2-1,7.52,7.52,0,0,1,1.91.24,13.18,13.18,0,0,1,1.9.67l-.88,2.12a12.52,12.52,0,0,0-1.7-.59,5.56,5.56,0,0,0-1.32-.17A1.76,1.76,0,0,0,103,60a1.21,1.21,0,0,0-.41.94,1.1,1.1,0,0,0,.17.63,1.75,1.75,0,0,0,.53.52A15.39,15.39,0,0,0,105,63a6.66,6.66,0,0,1,2.47,1.73A3.32,3.32,0,0,1,108.1,66.87Z"/></clipPath><clipPath id="clip-path-19"><path class="cls-20" d="M132.66,70.44h-3.1l-1.74-6.75c-.07-.24-.17-.74-.33-1.49s-.24-1.26-.27-1.52c0,.32-.12.83-.26,1.53s-.25,1.2-.33,1.5l-1.73,6.73h-3.09l-3.28-12.85h2.68l1.64,7c.29,1.3.5,2.42.63,3.37,0-.34.11-.85.24-1.55a13.21,13.21,0,0,1,.36-1.63l1.87-7.2h2.57l1.87,7.2c.09.32.19.81.31,1.47s.22,1.23.28,1.71c.06-.46.16-1,.28-1.71s.25-1.24.36-1.66l1.63-7h2.68Z"/></clipPath><clipPath id="clip-path-20"><path class="cls-21" d="M147.93,70.44,147,67.38h-4.68l-.93,3.06h-2.94L143,57.54h3.33l4.55,12.9Zm-1.58-5.35c-.86-2.77-1.34-4.33-1.45-4.7s-.19-.65-.23-.86c-.2.75-.75,2.61-1.67,5.56Z"/></clipPath><clipPath id="clip-path-21"><path class="cls-22" d="M155,70.44V57.59h2.72V70.44Z"/></clipPath><clipPath id="clip-path-22"><path class="cls-23" d="M168.44,70.44h-2.72V59.86h-3.49V57.59h9.7v2.27h-3.49Z"/></clipPath><clipPath id="clip-path-23"><path class="cls-14" d="M68.67,19.59V27.9A4.86,4.86,0,0,1,68,30.4,4.2,4.2,0,0,1,66.2,32a6.65,6.65,0,0,1-2.85.57,5.44,5.44,0,0,1-3.85-1.27,4.46,4.46,0,0,1-1.37-3.47V19.59h2.71v7.86a3.28,3.28,0,0,0,.6,2.18,2.47,2.47,0,0,0,2,.7,2.42,2.42,0,0,0,1.94-.7,3.33,3.33,0,0,0,.6-2.19V19.59Z"/></clipPath><clipPath id="clip-path-24"><path class="cls-24" d="M176.43,70.44V57.59h2.73V70.44Z"/></clipPath><clipPath id="clip-path-25"><path class="cls-26" d="M196.31,70.44h-3.46l-5.59-9.72h-.08c.11,1.71.16,2.94.16,3.67v6h-2.43V57.59h3.44l5.58,9.62H194c-.09-1.67-.13-2.85-.13-3.54V57.59h2.45Z"/></clipPath><clipPath id="clip-path-26"><path class="cls-25" d="M77.07,27.51v4.93H74.34V19.59h3.74a6.46,6.46,0,0,1,3.88.95,3.41,3.41,0,0,1,1.26,2.9,3.36,3.36,0,0,1-.63,2,4.06,4.06,0,0,1-1.76,1.39c1.93,2.89,3.19,4.75,3.78,5.6h-3l-3.06-4.93Zm0-2.22h.87a3.33,3.33,0,0,0,1.91-.43,1.54,1.54,0,0,0,.62-1.35,1.41,1.41,0,0,0-.63-1.3,3.8,3.8,0,0,0-2-.39h-.82Z"/></clipPath><clipPath id="clip-path-27"><path class="cls-28" d="M98.62,32.44H95.94V19.59h7.37v2.23H98.62v3.31H103v2.23H98.62Z"/></clipPath><clipPath id="clip-path-28"><path class="cls-29" d="M111.06,27.51v4.93h-2.72V19.59h3.74a6.46,6.46,0,0,1,3.88.95,3.41,3.41,0,0,1,1.26,2.9,3.36,3.36,0,0,1-.63,2,4.06,4.06,0,0,1-1.76,1.39c1.93,2.89,3.19,4.75,3.77,5.6h-3l-3.07-4.93Zm0-2.22h.88a3.35,3.35,0,0,0,1.91-.43,1.54,1.54,0,0,0,.61-1.35,1.42,1.42,0,0,0-.62-1.3,3.8,3.8,0,0,0-2-.39h-.83Z"/></clipPath><clipPath id="clip-path-29"><path class="cls-30" d="M130.14,32.44h-7.4V19.59h7.4v2.23h-4.67v2.82h4.35v2.23h-4.35v3.32h4.67Z"/></clipPath><clipPath id="clip-path-30"><path class="cls-31" d="M142.74,32.44h-7.4V19.59h7.4v2.23h-4.67v2.82h4.35v2.23h-4.35v3.32h4.67Z"/></clipPath><clipPath id="clip-path-31"><path class="cls-32" d="M30.3,51.44H27.62V38.59H35v2.23H30.3v3.31h4.36v2.23H30.3Z"/></clipPath><clipPath id="clip-path-32"><path class="cls-27" d="M206.94,63.22H212v6.66a14.83,14.83,0,0,1-2.33.57,15,15,0,0,1-2.24.16A5.65,5.65,0,0,1,203,68.9a7,7,0,0,1-1.54-4.9,6.47,6.47,0,0,1,1.78-4.86,6.77,6.77,0,0,1,4.94-1.74,9.63,9.63,0,0,1,3.81.79l-.9,2.18a6.61,6.61,0,0,0-2.93-.7,3.62,3.62,0,0,0-2.83,1.19,4.59,4.59,0,0,0-1.06,3.19,5.12,5.12,0,0,0,.85,3.19,3,3,0,0,0,2.49,1.11,8.72,8.72,0,0,0,1.74-.18V65.49h-2.44Z"/></clipPath></defs><title>text4</title><g id="Layer_2" data-name="Layer 2"><g id="Layer_1-2" data-name="Layer 1"><path class="cls-1" d="M31.62,24.88l2.68-5.29h2.93L33,27.44v5H30.26V27.52L26,19.59H29Z"/><path class="cls-1" d="M53,26a7,7,0,0,1-1.58,4.9,5.87,5.87,0,0,1-4.53,1.71,5.87,5.87,0,0,1-4.54-1.71A7,7,0,0,1,40.8,26a6.94,6.94,0,0,1,1.58-4.9,5.94,5.94,0,0,1,4.55-1.69,5.82,5.82,0,0,1,4.53,1.7A7,7,0,0,1,53,26Zm-9.37,0a5.41,5.41,0,0,0,.81,3.24,2.86,2.86,0,0,0,2.45,1.09c2.17,0,3.26-1.45,3.26-4.33s-1.09-4.35-3.25-4.35a2.88,2.88,0,0,0-2.45,1.1A5.35,5.35,0,0,0,43.66,26Z"/><path class="cls-1" d="M68.67,19.59V27.9A4.86,4.86,0,0,1,68,30.4,4.2,4.2,0,0,1,66.2,32a6.65,6.65,0,0,1-2.85.57,5.44,5.44,0,0,1-3.85-1.27,4.46,4.46,0,0,1-1.37-3.47V19.59h2.71v7.86a3.28,3.28,0,0,0,.6,2.18,2.47,2.47,0,0,0,2,.7,2.42,2.42,0,0,0,1.94-.7,3.33,3.33,0,0,0,.6-2.19V19.59Z"/><path class="cls-1" d="M77.07,27.51v4.93H74.34V19.59h3.74a6.46,6.46,0,0,1,3.88.95,3.41,3.41,0,0,1,1.26,2.9,3.36,3.36,0,0,1-.63,2,4.06,4.06,0,0,1-1.76,1.39c1.93,2.89,3.19,4.75,3.78,5.6h-3l-3.06-4.93Zm0-2.22h.87a3.33,3.33,0,0,0,1.91-.43,1.54,1.54,0,0,0,.62-1.35,1.41,1.41,0,0,0-.63-1.3,3.8,3.8,0,0,0-2-.39h-.82Z"/><path class="cls-1" d="M98.62,32.44H95.94V19.59h7.37v2.23H98.62v3.31H103v2.23H98.62Z"/><path class="cls-1" d="M111.06,27.51v4.93h-2.72V19.59h3.74a6.46,6.46,0,0,1,3.88.95,3.41,3.41,0,0,1,1.26,2.9,3.36,3.36,0,0,1-.63,2,4.06,4.06,0,0,1-1.76,1.39c1.93,2.89,3.19,4.75,3.77,5.6h-3l-3.07-4.93Zm0-2.22h.88a3.35,3.35,0,0,0,1.91-.43,1.54,1.54,0,0,0,.61-1.35,1.42,1.42,0,0,0-.62-1.3,3.8,3.8,0,0,0-2-.39h-.83Z"/><path class="cls-1" d="M130.14,32.44h-7.4V19.59h7.4v2.23h-4.67v2.82h4.35v2.23h-4.35v3.32h4.67Z"/><path class="cls-1" d="M142.74,32.44h-7.4V19.59h7.4v2.23h-4.67v2.82h4.35v2.23h-4.35v3.32h4.67Z"/><path class="cls-1" d="M30.3,51.44H27.62V38.59H35v2.23H30.3v3.31h4.36v2.23H30.3Z"/><path class="cls-1" d="M50.48,38.59V46.9a4.87,4.87,0,0,1-.64,2.5A4.2,4.2,0,0,1,48,51a6.62,6.62,0,0,1-2.85.57,5.44,5.44,0,0,1-3.85-1.27,4.5,4.5,0,0,1-1.37-3.47V38.59h2.71v7.86a3.28,3.28,0,0,0,.6,2.18,2.47,2.47,0,0,0,2,.7,2.42,2.42,0,0,0,1.94-.7,3.33,3.33,0,0,0,.6-2.19V38.59Z"/><path class="cls-1" d="M67.54,51.44H64.08l-5.59-9.72h-.08c.11,1.71.17,2.94.17,3.67v6H56.14V38.59h3.44l5.58,9.62h.06c-.09-1.67-.13-2.85-.13-3.54V38.59h2.45Z"/><path class="cls-1" d="M84,44.89a6.33,6.33,0,0,1-1.81,4.86,7.34,7.34,0,0,1-5.22,1.69H73.3V38.59h4a6.79,6.79,0,0,1,4.89,1.66A6.11,6.11,0,0,1,84,44.89ZM81.13,45q0-4.14-3.66-4.14H76v8.37h1.17C79.81,49.19,81.13,47.78,81.13,45Z"/><path class="cls-1" d="M91.86,46.51v4.93H89.14V38.59h3.74a6.46,6.46,0,0,1,3.88.95A3.41,3.41,0,0,1,98,42.44a3.36,3.36,0,0,1-.63,2,4.06,4.06,0,0,1-1.76,1.39c1.93,2.89,3.19,4.75,3.78,5.6h-3l-3.07-4.93Zm0-2.22h.88a3.35,3.35,0,0,0,1.91-.43,1.54,1.54,0,0,0,.62-1.35,1.41,1.41,0,0,0-.63-1.3,3.8,3.8,0,0,0-2-.39h-.83Z"/><path class="cls-1" d="M111.41,51.44l-.93-3.06h-4.69l-.93,3.06h-2.94l4.54-12.9h3.33l4.55,12.9Zm-1.58-5.35c-.86-2.77-1.35-4.33-1.46-4.7s-.18-.65-.23-.86c-.19.75-.75,2.61-1.66,5.56Z"/><path class="cls-1" d="M118.48,51.44V38.59h2.73V51.44Z"/><path class="cls-1" d="M134.55,47.87a3.31,3.31,0,0,1-1.26,2.74,5.4,5.4,0,0,1-3.48,1,8.12,8.12,0,0,1-3.64-.77V48.31a15,15,0,0,0,2.2.82,6.87,6.87,0,0,0,1.65.23,2.29,2.29,0,0,0,1.37-.34,1.18,1.18,0,0,0,.48-1,1.11,1.11,0,0,0-.21-.67,2.17,2.17,0,0,0-.62-.57,15.81,15.81,0,0,0-1.66-.87,7.79,7.79,0,0,1-1.77-1.06,4.16,4.16,0,0,1-.94-1.19,3.44,3.44,0,0,1-.35-1.58,3.31,3.31,0,0,1,1.15-2.68,4.84,4.84,0,0,1,3.2-1,7.46,7.46,0,0,1,1.91.24,12.77,12.77,0,0,1,1.9.67l-.88,2.12a12.52,12.52,0,0,0-1.7-.59,5.5,5.5,0,0,0-1.32-.17,1.73,1.73,0,0,0-1.18.36,1.26,1.26,0,0,0-.25,1.57,1.88,1.88,0,0,0,.53.52,14.93,14.93,0,0,0,1.73.9,6.84,6.84,0,0,1,2.47,1.73A3.38,3.38,0,0,1,134.55,47.87Z"/><path class="cls-1" d="M139.39,51.44V38.59h2.73V51.44Z"/><path class="cls-1" d="M159.27,51.44h-3.46l-5.59-9.72h-.08c.11,1.71.17,2.94.17,3.67v6h-2.44V38.59h3.44l5.58,9.62H157c-.09-1.67-.13-2.85-.13-3.54V38.59h2.45Z"/><path class="cls-1" d="M169.91,44.22H175v6.66a14.31,14.31,0,0,1-2.33.57,15,15,0,0,1-2.24.16A5.65,5.65,0,0,1,166,49.9a7.09,7.09,0,0,1-1.53-4.9,6.47,6.47,0,0,1,1.78-4.86,6.74,6.74,0,0,1,4.93-1.74,9.72,9.72,0,0,1,3.82.79l-.91,2.18a6.58,6.58,0,0,0-2.93-.7,3.63,3.63,0,0,0-2.83,1.19,4.59,4.59,0,0,0-1.06,3.19,5.05,5.05,0,0,0,.86,3.19,3,3,0,0,0,2.49,1.11,8.62,8.62,0,0,0,1.73-.18V46.49h-2.43Z"/><path class="cls-1" d="M36.49,61.6a3.93,3.93,0,0,1-1.29,3.17,5.58,5.58,0,0,1-3.69,1.1H30.34v4.57H27.62V57.59h4.1a5.42,5.42,0,0,1,3.56,1A3.67,3.67,0,0,1,36.49,61.6Zm-6.15,2h.9a3,3,0,0,0,1.88-.5,1.72,1.72,0,0,0,.62-1.45,1.76,1.76,0,0,0-.52-1.41,2.42,2.42,0,0,0-1.64-.46H30.34Z"/><path class="cls-1" d="M49.31,70.44l-.94-3.06H43.69l-.93,3.06H39.82l4.54-12.9h3.33l4.55,12.9Zm-1.59-5.35c-.86-2.77-1.34-4.33-1.45-4.7s-.19-.65-.23-.86c-.2.75-.75,2.61-1.66,5.56Z"/><path class="cls-1" d="M61.84,59.67a2.77,2.77,0,0,0-2.38,1.16,5.31,5.31,0,0,0-.85,3.22c0,2.86,1.08,4.3,3.23,4.3a10.3,10.3,0,0,0,3.28-.68V70a9.15,9.15,0,0,1-3.54.66,5.37,5.37,0,0,1-4.29-1.7A7.19,7.19,0,0,1,55.81,64a7.89,7.89,0,0,1,.73-3.51,5.22,5.22,0,0,1,2.09-2.31,6.17,6.17,0,0,1,3.21-.81,8.72,8.72,0,0,1,3.76.91l-.88,2.21c-.48-.22-1-.42-1.45-.59A4.33,4.33,0,0,0,61.84,59.67Z"/><path class="cls-1" d="M80.7,70.44H77.61L74.25,65l-1.16.83v4.59H70.37V57.59h2.72v5.88L74.17,62l3.48-4.37h3l-4.48,5.68Z"/><path class="cls-1" d="M92,70.44V57.59h2.72V70.44Z"/><path class="cls-1" d="M108.1,66.87a3.33,3.33,0,0,1-1.25,2.74,5.45,5.45,0,0,1-3.49,1,8.08,8.08,0,0,1-3.63-.77V67.31a14.6,14.6,0,0,0,2.2.82,6.87,6.87,0,0,0,1.65.23A2.33,2.33,0,0,0,105,68a1.18,1.18,0,0,0,.48-1,1.11,1.11,0,0,0-.21-.67,2.31,2.31,0,0,0-.62-.57,16.32,16.32,0,0,0-1.67-.87,7.92,7.92,0,0,1-1.76-1.06,3.84,3.84,0,0,1-.94-1.19,3.71,3.71,0,0,1,.8-4.26,4.82,4.82,0,0,1,3.2-1,7.52,7.52,0,0,1,1.91.24,13.18,13.18,0,0,1,1.9.67l-.88,2.12a12.52,12.52,0,0,0-1.7-.59,5.56,5.56,0,0,0-1.32-.17A1.76,1.76,0,0,0,103,60a1.21,1.21,0,0,0-.41.94,1.1,1.1,0,0,0,.17.63,1.75,1.75,0,0,0,.53.52A15.39,15.39,0,0,0,105,63a6.66,6.66,0,0,1,2.47,1.73A3.32,3.32,0,0,1,108.1,66.87Z"/><path class="cls-1" d="M132.66,70.44h-3.1l-1.74-6.75c-.07-.24-.17-.74-.33-1.49s-.24-1.26-.27-1.52c0,.32-.12.83-.26,1.53s-.25,1.2-.33,1.5l-1.73,6.73h-3.09l-3.28-12.85h2.68l1.64,7c.29,1.3.5,2.42.63,3.37,0-.34.11-.85.24-1.55a13.21,13.21,0,0,1,.36-1.63l1.87-7.2h2.57l1.87,7.2c.09.32.19.81.31,1.47s.22,1.23.28,1.71c.06-.46.16-1,.28-1.71s.25-1.24.36-1.66l1.63-7h2.68Z"/><path class="cls-1" d="M147.93,70.44,147,67.38h-4.68l-.93,3.06h-2.94L143,57.54h3.33l4.55,12.9Zm-1.58-5.35c-.86-2.77-1.34-4.33-1.45-4.7s-.19-.65-.23-.86c-.2.75-.75,2.61-1.67,5.56Z"/><path class="cls-1" d="M155,70.44V57.59h2.72V70.44Z"/><path class="cls-1" d="M168.44,70.44h-2.72V59.86h-3.49V57.59h9.7v2.27h-3.49Z"/><path class="cls-1" d="M176.43,70.44V57.59h2.73V70.44Z"/><path class="cls-1" d="M196.31,70.44h-3.46l-5.59-9.72h-.08c.11,1.71.16,2.94.16,3.67v6h-2.43V57.59h3.44l5.58,9.62H194c-.09-1.67-.13-2.85-.13-3.54V57.59h2.45Z"/><path class="cls-1" d="M206.94,63.22H212v6.66a14.83,14.83,0,0,1-2.33.57,15,15,0,0,1-2.24.16A5.65,5.65,0,0,1,203,68.9a7,7,0,0,1-1.54-4.9,6.47,6.47,0,0,1,1.78-4.86,6.77,6.77,0,0,1,4.94-1.74,9.63,9.63,0,0,1,3.81.79l-.9,2.18a6.61,6.61,0,0,0-2.93-.7,3.62,3.62,0,0,0-2.83,1.19,4.59,4.59,0,0,0-1.06,3.19,5.12,5.12,0,0,0,.85,3.19,3,3,0,0,0,2.49,1.11,8.72,8.72,0,0,0,1.74-.18V65.49h-2.44Z"/><g class="cls-33"><rect class="cls-1" width="728" height="90"/></g></g></g></svg>