<?xml version="1.0" encoding="utf-8"?>
<!-- Generator: Adobe Illustrator 25.0.1, SVG Export Plug-In . SVG Version: 6.00 Build 0)  -->
<svg version="1.1" id="Layer_1" xmlns="http://www.w3.org/2000/svg" xmlns:xlink="http://www.w3.org/1999/xlink" x="0px" y="0px"
	 viewBox="0 0 1101.6 415.6" style="enable-background:new 0 0 1101.6 415.6;" xml:space="preserve">
<style type="text/css">
	.st0{fill:#E4032E;}
	.st1{fill:#1D1D1B;}
	.st2{fill:#FFED00;}
	.st3{fill:#FFFFFF;}
	.st4{fill:#EE7326;}
	.st5{fill:#0A0B09;}
</style>
<g id="ROCFL">
	<polygon class="st0" points="59.5,104.2 20.4,235.1 82.3,358.9 1062.8,266.3 1101.6,132.3 1040,11.6 	"/>
	<polygon class="st1" points="1019.5,0 39.1,92.6 0,223.4 61.8,347.2 1042.3,254.6 1081.1,120.7 	"/>
	<path class="st2" d="M1010.1,222l-1.1-20.6l-31.7,2.9l-6.1-66.1l26.9-2.5l-3.7-22.7l1.4-2.7l-26.9,2.5l-4.5-49.1l30.1-2.8l-1.3-4.9
		l0.3-14.4l-1.4-6.2l-59.4,5.5l2.3,25.5l4.5,49.1l2.3,25.5l8.4,91.6l2.3-1.6l4.7,1l2.4-0.2l19.9-1.8l31.7-2.9L1010.1,222z
		 M923.2,67.4l-0.4-4.2l1.1-5.5l-1.7-0.5v-8.3l0.2-7.1L855,48l-1.2,4.4l3.6,21.1l34.9-3.2l-30.6,165.9l1.7,1.2l4.1,0.3l0.2,2.1
		l20.7-1.9l2.5,1.2l-0.1-1.4l46.8-4.3l0.5-3.6l-2.8-21.9l-39.8,3.6l26.9-144.1L923.2,67.4z M854,235.4l-1.8-10.2l-16-174.1l-3.9-1.1
		l-25.5,2.3l15.3,167.1l-27.7,2.5L779.2,55.6l-18.3,1L750,58.3L767.5,249l6.2,0.1l11.2-1.7l68.8-6.3L854,235.4z M754.8,245.5
		l-1.1-20.6l-31.7,2.9l-6.1-66.1l26.9-2.5l-3.8-22.8l1.4-2.7l-26.9,2.5L709,87.1l30.1-2.8l-1.2-4.8l0.3-14.4l-1.4-6.2l-59.4,5.5
		l2.3,25.5l4.5,49.1l2.3,25.5l8.4,91.6l2.3-1.6l4.7,1l2.4-0.2l19.9-1.8l31.7-2.9L754.8,245.5z M643.1,156.3l-2.4,0.9L663.2,71
		l-10.4-1.2l-13.1-3.8l-6.3,2l-21.2,82.5L604.9,71l-11.8,1.8l-17.5,0.9l17.6,191.6l23-3.5l6.3,0.8l-8.6-93.2l3.3,1.1l40.4,91.5
		l24.5-10.5l0.1,1.2l3.2-1L643.1,156.3z"/>
	<path class="st3" d="M573.9,262.1l-1.1-20.6l-31.7,2.9l-6.1-66.1l26.9-2.5l-3.7-22.8l1.4-2.7l-26.9,2.5l-4.5-49.1l30.1-2.8
		l-1.2-4.8l0.3-14.4l-1.4-6.2l-59.4,5.5l2.3,25.5l4.5,49.1l2.3,25.5l8.4,91.6l2.3-1.6l4.7,1l2.4-0.2l19.9-1.8l31.7-2.9L573.9,262.1z
		 M499.2,273.9L481.6,82.3l-22.8,2.8l-6.5-0.1l17.6,191.4l7-0.4l9.6-1.6L499.2,273.9z M411.4,123.4l10.9,127.4L395,258l-12.9-140.7
		L411.4,123.4z M397.4,283.3l58.6-13.9l-3.4-10.3l-13.3-153.4l-3.8,0.3l0.3-2.2l2.2-3l-58.3-8.8l-10.5-1.9l-0.5,2.9l-5.6,0.5
		l-0.9-1.3l-0.7,1.5l-3.4-1.1l0.1,1.4h-7.9l17.7,192.6l6.9-1.3l9.7-0.9l0.9,1.3l6.9-1.3l4.8-0.5L397.4,283.3z M355.8,281.2L354,271
		L338,96.9l-3.9-1.1l-25.5,2.3L324,265.3l-27.7,2.5L281,101.4l-18.3,1l-10.9,1.7l17.5,190.7l6.2,0.1l11.2-1.7l68.8-6.3L355.8,281.2z
		 M245.1,129.7l-4.2-19.6l1.5-1.6l-0.4-4.2l-75.5,6.9l0.7,16.7l1.6,8.8l23.9-2.2L208,300.9l4-1.1l12.7-0.5l12.5-2.6l-15.2-165
		L245.1,129.7z M174.3,289.6l-8.8-95.6l-0.9-10.3l-59.4,5.4l-4.4-47.9l27.7-2.6l3.1,33.4l21.4-2.7h7.9l-2.9-31.8l0.8-0.1l-1.3-22.7
		l1.4-3l-89.5,8.2l2.3,25.5l4.2,46.3l0.9,10.3l0.2,2.8l0.8-0.1l0.7,7.5l-0.4,5l59.4-5.5l6.5,70.4L114,285l-4.6-49.8l-4.2-1.5
		l-25.2,3l6.9,74.8l7-0.6l81.7-7.5l0.6-2.9L174.3,289.6z"/>
	<path class="st0" d="M818.1,307.8l-0.2,57.7l-10.7-56.3l-3.8,1.1l-10.2,1.7l-2.5-0.1l-0.1-0.8l-0.8,0.8l-1.8-0.6l0.5,0.7l-3.1-0.1
		l-0.8,0.8l-1.1,57.4L772.3,312l-2.1,1l-13.5,1.6l20.3,101h4.3l10-2.8l5.5-0.1l-0.4,0.8l2.2,0.2l0.4-65.1l12.2,63.5l2.2-0.2l1.3,0.3
		l5.8-1.3l5.9-0.2l5.7,0.2l1.7-102.3l-3-0.9L818.1,307.8z M838,306.7l1.3,13.6l2.4,26.3l1.3,13.6l4.5,49.1l1.2-0.9l2.5,0.5l1.3-0.1
		l10.7-1l17-1.6l-0.7-2.6l-0.6-11.1l-17,1.6l-3.3-35.4l14.4-1.3l-2-12.2l0.7-1.5l-14.4,1.3l-2.4-26.3l16.1-1.5l-0.7-2.6l0.2-7.7
		l-0.8-3.3L838,306.7z M907.7,300.2l-11.3,44.2l-3.9-42.7l-6.3,1l-9.4,0.5l9.4,102.7l12.3-1.9l3.4,0.5l-4.6-50l1.8,0.6l21.6,49
		l13.1-5.6l0.1,0.6l1.7-0.5l-22.7-51.1l-1.3,0.5l12-46.2l-5.6-0.6l-7-2L907.7,300.2z M931.3,298.2l1.3,13.6l2.4,26.3l1.3,13.6
		l4.5,49.1l1.2-0.8l2.5,0.5l1.3-0.1l10.7-1l17-1.6l-0.7-2.6l-0.6-11l-17,1.6l-3.3-35.4l14.4-1.3l-2-12.2l0.7-1.5l-14.4,1.3
		l-2.4-26.3l16.1-1.5l-0.7-2.6l0.2-7.7l-0.8-3.3L931.3,298.2z M1016.2,290.5v0.4l-14,0.9l4.7,51.3l-21.4-51.3l-1.5,2l-10.6,1.4
		l-3.3-0.1l9.4,102l5-0.8l10.7-0.6l-4.9-53.1l21.4,51.1l0.1,0.8l3.4-1.1l9.7-0.1l2.5-1l-9.3-101.8L1016.2,290.5z"/>
	<polygon class="st4" points="59.5,104.2 20.4,235.1 82.3,358.9 1062.8,266.3 1101.6,132.3 1040,11.6 	"/>
	<polygon class="st5" points="1019.5,0 39.1,92.6 0,223.4 61.8,347.2 1042.3,254.6 1081.1,120.7 	"/>
	<path class="st4" d="M1010.1,222l-1.1-20.6l-31.7,2.9l-6.1-66.1l26.9-2.5l-3.7-22.7l1.4-2.7l-26.9,2.5l-4.5-49.1l30.1-2.8l-1.3-4.9
		l0.3-14.4l-1.4-6.2l-59.4,5.5l2.3,25.5l4.5,49.1l2.3,25.5l8.4,91.6l2.3-1.6l4.7,1l2.4-0.2l19.9-1.8l31.7-2.9L1010.1,222z
		 M923.2,67.4l-0.4-4.2l1.1-5.5l-1.7-0.5v-8.3l0.2-7.1L855,48l-1.2,4.4l3.6,21.1l34.9-3.2l-30.6,165.9l1.7,1.2l4.1,0.3l0.2,2.1
		l20.7-1.9l2.5,1.2l-0.1-1.4l46.8-4.3l0.5-3.6l-2.8-21.9l-39.8,3.6l26.9-144.1L923.2,67.4z M854,235.4l-1.8-10.2l-16-174.1l-3.9-1.1
		l-25.5,2.3l15.3,167.1l-27.7,2.5L779.2,55.6l-18.3,1L750,58.3L767.5,249l6.2,0.1l11.2-1.7l68.8-6.3L854,235.4z M754.8,245.5
		l-1.1-20.6l-31.7,2.9l-6.1-66.1l26.9-2.5l-3.8-22.8l1.4-2.7l-26.9,2.5L709,87.1l30.1-2.8l-1.2-4.8l0.3-14.4l-1.4-6.2l-59.4,5.5
		l2.3,25.5l4.5,49.1l2.3,25.5l8.4,91.6l2.3-1.6l4.7,1l2.4-0.2l19.9-1.8l31.7-2.9L754.8,245.5z M643.1,156.3l-2.4,0.9L663.2,71
		l-10.4-1.2l-13.1-3.8l-6.3,2l-21.2,82.5L604.9,71l-11.8,1.8l-17.5,0.9l17.6,191.6l23-3.5l6.3,0.8l-8.6-93.2l3.3,1.1l40.4,91.5
		l24.5-10.5l0.1,1.2l3.2-1L643.1,156.3z"/>
	<path class="st3" d="M573.9,262.1l-1.1-20.6l-31.7,2.9l-6.1-66.1l26.9-2.5l-3.7-22.8l1.4-2.7l-26.9,2.5l-4.5-49.1l30.1-2.8
		l-1.2-4.8l0.3-14.4l-1.4-6.2l-59.4,5.5l2.3,25.5l4.5,49.1l2.3,25.5l8.4,91.6l2.3-1.6l4.7,1l2.4-0.2l19.9-1.8l31.7-2.9L573.9,262.1z
		 M499.2,273.9L481.6,82.3l-22.8,2.8l-6.5-0.1l17.6,191.4l7-0.4l9.6-1.6L499.2,273.9z M411.4,123.4l10.9,127.4L395,258l-12.9-140.7
		L411.4,123.4z M397.4,283.3l58.6-13.9l-3.4-10.3l-13.3-153.4l-3.8,0.3l0.3-2.2l2.2-3l-58.3-8.8l-10.5-1.9l-0.5,2.9l-5.6,0.5
		l-0.9-1.3l-0.7,1.5l-3.4-1.1l0.1,1.4h-7.9l17.7,192.6l6.9-1.3l9.7-0.9l0.9,1.3l6.9-1.3l4.8-0.5L397.4,283.3z M355.8,281.2L354,271
		L338,96.9l-3.9-1.1l-25.5,2.3L324,265.3l-27.7,2.5L281,101.4l-18.3,1l-10.9,1.7l17.5,190.7l6.2,0.1l11.2-1.7l68.8-6.3L355.8,281.2z
		 M245.1,129.7l-4.2-19.6l1.5-1.6l-0.4-4.2l-75.5,6.9l0.7,16.7l1.6,8.8l23.9-2.2L208,300.9l4-1.1l12.7-0.5l12.5-2.6l-15.2-165
		L245.1,129.7z M174.3,289.6l-8.8-95.6l-0.9-10.3l-59.4,5.4l-4.4-47.9l27.7-2.6l3.1,33.4l21.4-2.7h7.9l-2.9-31.8l0.8-0.1l-1.3-22.7
		l1.4-3l-89.5,8.2l2.3,25.5l4.2,46.3l0.9,10.3l0.2,2.8l0.8-0.1l0.7,7.5l-0.4,5l59.4-5.5l6.5,70.4L114,285l-4.6-49.8l-4.2-1.5
		l-25.2,3l6.9,74.8l7-0.6l81.7-7.5l0.6-2.9L174.3,289.6z"/>
	<path class="st5" d="M818.1,307.8l-0.2,57.7l-10.7-56.3l-3.8,1.1l-10.2,1.7l-2.5-0.1l-0.1-0.8l-0.8,0.8l-1.8-0.6l0.5,0.7l-3.1-0.1
		l-0.8,0.8l-1.1,57.4L772.3,312l-2.1,1l-13.5,1.6l20.3,101h4.3l10-2.8l5.5-0.1l-0.4,0.8l2.2,0.2l0.4-65.1l12.2,63.5l2.2-0.2l1.3,0.3
		l5.8-1.3l5.9-0.2l5.7,0.2l1.7-102.3l-3-0.9L818.1,307.8z M838,306.7l1.3,13.6l2.4,26.3l1.3,13.6l4.5,49.1l1.2-0.9l2.5,0.5l1.3-0.1
		l10.7-1l17-1.6l-0.7-2.6l-0.6-11.1l-17,1.6l-3.3-35.4l14.4-1.3l-2-12.2l0.7-1.5l-14.4,1.3l-2.4-26.3l16.1-1.5l-0.7-2.6l0.2-7.7
		l-0.8-3.3L838,306.7z M907.7,300.2l-11.3,44.2l-3.9-42.7l-6.3,1l-9.4,0.5l9.4,102.7l12.3-1.9l3.4,0.5l-4.6-50l1.8,0.6l21.6,49
		l13.1-5.6l0.1,0.6l1.7-0.5l-22.7-51.1l-1.3,0.5l12-46.2l-5.6-0.6l-7-2L907.7,300.2z M931.3,298.2l1.3,13.6l2.4,26.3l1.3,13.6
		l4.5,49.1l1.2-0.8l2.5,0.5l1.3-0.1l10.7-1l17-1.6l-0.7-2.6l-0.6-11l-17,1.6l-3.3-35.4l14.4-1.3l-2-12.2l0.7-1.5l-14.4,1.3
		l-2.4-26.3l16.1-1.5l-0.7-2.6l0.2-7.7l-0.8-3.3L931.3,298.2z M1016.2,290.5v0.4l-14,0.9l4.7,51.3l-21.4-51.3l-1.5,2l-10.6,1.4
		l-3.3-0.1l9.4,102l5-0.8l10.7-0.6l-4.9-53.1l21.4,51.1l0.1,0.8l3.4-1.1l9.7-0.1l2.5-1l-9.3-101.8L1016.2,290.5z"/>
</g>
</svg>
