<?xml version="1.0" encoding="utf-8"?>
<!-- Generator: Adobe Illustrator 24.2.1, SVG Export Plug-In . SVG Version: 6.00 Build 0)  -->
<svg version="1.1" id="Laag_1" xmlns="http://www.w3.org/2000/svg" xmlns:xlink="http://www.w3.org/1999/xlink" x="0px" y="0px"
	 viewBox="0 0 220.8 69.2" style="enable-background:new 0 0 220.8 69.2;" xml:space="preserve">
<style type="text/css">
	.st0{fill:#FF7317;}
	.st1{fill:#FFFFFF;}
</style>
<rect x="-0.4" y="20" class="st0" width="220.8" height="30.9"/>
<g>
	<path d="M7.6,35.5c0-1.2,0.2-2.3,0.6-3.3c0.4-1,1-1.8,1.7-2.5c0.7-0.7,1.6-1.2,2.6-1.6c1-0.4,2.1-0.6,3.3-0.6
		c1.2,0,2.3,0.2,3.3,0.6c1,0.4,1.9,0.9,2.6,1.6c0.7,0.7,1.3,1.5,1.7,2.5c0.4,1,0.6,2.1,0.6,3.3s-0.2,2.3-0.6,3.3
		c-0.4,1-1,1.8-1.7,2.5C20.8,42,20,42.5,19,42.9c-1,0.4-2.1,0.6-3.3,0.6c-1.2,0-2.3-0.2-3.3-0.6s-1.9-0.9-2.6-1.6
		c-0.7-0.7-1.3-1.5-1.7-2.5C7.8,37.8,7.6,36.7,7.6,35.5z M11,35.5c0,0.7,0.1,1.4,0.3,2c0.2,0.6,0.5,1.1,0.9,1.5s0.9,0.8,1.5,1
		c0.6,0.2,1.2,0.4,1.9,0.4c0.7,0,1.4-0.1,1.9-0.4c0.6-0.2,1.1-0.6,1.5-1c0.4-0.4,0.7-0.9,0.9-1.5c0.2-0.6,0.3-1.2,0.3-2
		c0-0.7-0.1-1.3-0.3-1.9c-0.2-0.6-0.5-1.1-0.9-1.5c-0.4-0.4-0.9-0.8-1.5-1c-0.6-0.2-1.2-0.4-1.9-0.4c-0.7,0-1.4,0.1-1.9,0.4
		c-0.6,0.2-1.1,0.6-1.5,1c-0.4,0.4-0.7,0.9-0.9,1.5C11.1,34.2,11,34.8,11,35.5z"/>
	<path d="M26.1,27.9h4.5l6.4,10.5h0V27.9h3.3v15.1h-4.4l-6.6-10.8h0v10.8h-3.3V27.9z"/>
	<path d="M43.6,27.9H47v12h6.2v3.1h-9.5V27.9z"/>
	<path d="M54.9,27.9h3.3v15.1h-3.3V27.9z"/>
	<path d="M61.3,27.9h4.5l6.4,10.5h0V27.9h3.3v15.1h-4.4l-6.6-10.8h0v10.8h-3.3V27.9z"/>
	<path d="M78.8,27.9h10.3V31h-6.9v2.8h6.6v3.1h-6.6V40h7.3v3.1H78.8V27.9z"/>
	<path class="st1" d="M97.6,35.5c0-1.2,0.2-2.3,0.6-3.3c0.4-1,1-1.8,1.7-2.5c0.7-0.7,1.6-1.2,2.6-1.6c1-0.4,2.1-0.6,3.3-0.6
		c1.2,0,2.3,0.2,3.3,0.6c1,0.4,1.9,0.9,2.6,1.6c0.7,0.7,1.3,1.5,1.7,2.5c0.4,1,0.6,2.1,0.6,3.3s-0.2,2.3-0.6,3.3
		c-0.4,1-1,1.8-1.7,2.5c-0.7,0.7-1.6,1.2-2.6,1.6c-1,0.4-2.1,0.6-3.3,0.6c-1.2,0-2.3-0.2-3.3-0.6s-1.9-0.9-2.6-1.6
		c-0.7-0.7-1.3-1.5-1.7-2.5C97.8,37.8,97.6,36.7,97.6,35.5z M101.1,35.5c0,0.7,0.1,1.4,0.3,2c0.2,0.6,0.5,1.1,0.9,1.5
		c0.4,0.4,0.9,0.8,1.5,1c0.6,0.2,1.2,0.4,1.9,0.4c0.7,0,1.4-0.1,1.9-0.4c0.6-0.2,1.1-0.6,1.5-1c0.4-0.4,0.7-0.9,0.9-1.5
		c0.2-0.6,0.3-1.2,0.3-2c0-0.7-0.1-1.3-0.3-1.9c-0.2-0.6-0.5-1.1-0.9-1.5c-0.4-0.4-0.9-0.8-1.5-1c-0.6-0.2-1.2-0.4-1.9-0.4
		c-0.7,0-1.4,0.1-1.9,0.4c-0.6,0.2-1.1,0.6-1.5,1c-0.4,0.4-0.7,0.9-0.9,1.5C101.2,34.2,101.1,34.8,101.1,35.5z"/>
	<path class="st1" d="M116.2,27.9h5.6c0.8,0,1.5,0.1,2.2,0.2c0.7,0.1,1.3,0.4,1.8,0.7c0.5,0.3,0.9,0.8,1.2,1.4
		c0.3,0.6,0.5,1.3,0.5,2.2c0,0.9-0.1,1.6-0.4,2.2c-0.3,0.6-0.7,1.1-1.2,1.4c-0.5,0.4-1.1,0.6-1.8,0.8c-0.7,0.2-1.4,0.2-2.2,0.2h-2.4
		v5.9h-3.3V27.9z M119.5,34.3h2.2c0.3,0,0.6,0,0.9-0.1c0.3-0.1,0.5-0.2,0.7-0.3c0.2-0.1,0.4-0.3,0.5-0.6c0.1-0.2,0.2-0.5,0.2-0.9
		c0-0.4-0.1-0.7-0.3-0.9c-0.2-0.2-0.4-0.4-0.7-0.5c-0.3-0.1-0.6-0.2-0.9-0.2c-0.3,0-0.7-0.1-1-0.1h-1.7V34.3z"/>
	<path class="st1" d="M129.7,27.9H140V31h-6.9v2.8h6.6v3.1h-6.6V40h7.3v3.1h-10.6V27.9z"/>
	<path class="st1" d="M143.1,27.9h4.5l6.4,10.5h0V27.9h3.3v15.1H153l-6.6-10.8h0v10.8h-3.3V27.9z"/>
	<path class="st1" d="M166.8,27.9h5c1.2,0,2.4,0.1,3.4,0.4c1.1,0.3,2,0.7,2.8,1.3c0.8,0.6,1.5,1.4,1.9,2.4c0.5,1,0.7,2.1,0.7,3.5
		c0,1.2-0.2,2.3-0.7,3.2c-0.5,0.9-1.1,1.7-1.9,2.3c-0.8,0.6-1.7,1.1-2.7,1.4c-1,0.3-2.1,0.5-3.2,0.5h-5.4V27.9z M170.1,40h1.7
		c0.8,0,1.5-0.1,2.1-0.2c0.7-0.2,1.2-0.4,1.7-0.8c0.5-0.4,0.9-0.8,1.1-1.4c0.3-0.6,0.4-1.3,0.4-2.2c0-0.7-0.1-1.4-0.4-1.9
		c-0.3-0.5-0.7-1-1.1-1.4c-0.5-0.4-1-0.6-1.7-0.8c-0.6-0.2-1.3-0.3-2-0.3h-2V40z"/>
	<path class="st1" d="M187.9,27.9h2.8l6.6,15.1h-3.8l-1.3-3.2h-5.9l-1.3,3.2h-3.7L187.9,27.9z M189.2,32.3l-1.8,4.7h3.7L189.2,32.3z
		"/>
	<path class="st1" d="M212.4,42c-1,0.5-2,0.9-3.1,1.1c-1.1,0.2-2.2,0.3-3.3,0.3c-1.2,0-2.3-0.2-3.3-0.6c-1-0.4-1.9-0.9-2.6-1.6
		c-0.7-0.7-1.3-1.5-1.7-2.5c-0.4-1-0.6-2.1-0.6-3.3s0.2-2.3,0.6-3.3c0.4-1,1-1.8,1.7-2.5c0.7-0.7,1.6-1.2,2.6-1.6
		c1-0.4,2.1-0.6,3.3-0.6c1.2,0,2.3,0.1,3.3,0.4c1,0.3,1.9,0.8,2.7,1.5l-2.3,2.6c-0.5-0.5-1-0.8-1.5-1.1c-0.6-0.2-1.3-0.4-2.1-0.4
		c-0.7,0-1.4,0.1-1.9,0.4c-0.6,0.2-1.1,0.6-1.5,1c-0.4,0.4-0.7,0.9-0.9,1.5c-0.2,0.6-0.3,1.2-0.3,1.9c0,0.7,0.1,1.4,0.3,2
		c0.2,0.6,0.5,1.1,0.9,1.5c0.4,0.4,0.9,0.8,1.5,1c0.6,0.2,1.2,0.4,1.9,0.4c0.7,0,1.4-0.1,1.9-0.2c0.5-0.2,0.9-0.3,1.3-0.5v-2.5h-2.7
		v-3.1h5.9V42z"/>
</g>
</svg>
