<?xml version="1.0" encoding="utf-8"?>
<!-- Generator: Adobe Illustrator 24.2.1, SVG Export Plug-In . SVG Version: 6.00 Build 0)  -->
<svg version="1.1" id="Layer_1" xmlns="http://www.w3.org/2000/svg" xmlns:xlink="http://www.w3.org/1999/xlink" x="0px" y="0px"
	 viewBox="0 0 220.8 71.4" style="enable-background:new 0 0 220.8 71.4;" xml:space="preserve">
<style type="text/css">
	.st0{fill:#FF7317;}
	.st1{fill:#FFFFFF;}
</style>
<rect x="0.1" y="25.2" class="st0" width="220.8" height="30.9"/>
<g>
	<path d="M8.1,40.7c0-1.2,0.2-2.3,0.6-3.3c0.4-1,1-1.8,1.7-2.5c0.7-0.7,1.6-1.2,2.6-1.6c1-0.4,2.1-0.6,3.3-0.6
		c1.2,0,2.3,0.2,3.3,0.6c1,0.4,1.9,0.9,2.6,1.6c0.7,0.7,1.3,1.5,1.7,2.5c0.4,1,0.6,2.1,0.6,3.3S24.2,43,23.8,44
		c-0.4,1-1,1.8-1.7,2.5c-0.7,0.7-1.6,1.2-2.6,1.6c-1,0.4-2.1,0.6-3.3,0.6c-1.2,0-2.3-0.2-3.3-0.6s-1.9-0.9-2.6-1.6
		C9.7,45.8,9.1,45,8.7,44C8.3,43,8.1,41.9,8.1,40.7z M11.5,40.7c0,0.7,0.1,1.4,0.3,2c0.2,0.6,0.5,1.1,0.9,1.5s0.9,0.8,1.5,1
		c0.6,0.2,1.2,0.4,1.9,0.4c0.7,0,1.4-0.1,1.9-0.4c0.6-0.2,1.1-0.6,1.5-1c0.4-0.4,0.7-0.9,0.9-1.5c0.2-0.6,0.3-1.2,0.3-2
		c0-0.7-0.1-1.3-0.3-1.9c-0.2-0.6-0.5-1.1-0.9-1.5c-0.4-0.4-0.9-0.8-1.5-1c-0.6-0.2-1.2-0.4-1.9-0.4c-0.7,0-1.4,0.1-1.9,0.4
		c-0.6,0.2-1.1,0.6-1.5,1s-0.7,0.9-0.9,1.5C11.7,39.4,11.5,40,11.5,40.7z"/>
	<path d="M26.7,33.1h4.5l6.4,10.5h0V33.1H41v15.1h-4.4L30,37.5h0v10.8h-3.3V33.1z"/>
	<path d="M44.2,33.1h3.3v12h6.2v3.1h-9.5V33.1z"/>
	<path d="M55.5,33.1h3.3v15.1h-3.3V33.1z"/>
	<path d="M61.8,33.1h4.5l6.4,10.5h0V33.1h3.3v15.1h-4.4l-6.6-10.8h0v10.8h-3.3V33.1z"/>
	<path d="M79.3,33.1h10.3v3.1h-6.9V39h6.6v3.1h-6.6v3.1H90v3.1H79.3V33.1z"/>
	<path class="st1" d="M98.2,40.7c0-1.2,0.2-2.3,0.6-3.3c0.4-1,1-1.8,1.7-2.5c0.7-0.7,1.6-1.2,2.6-1.6c1-0.4,2.1-0.6,3.3-0.6
		c1.2,0,2.3,0.2,3.3,0.6c1,0.4,1.9,0.9,2.6,1.6c0.7,0.7,1.3,1.5,1.7,2.5c0.4,1,0.6,2.1,0.6,3.3s-0.2,2.3-0.6,3.3
		c-0.4,1-1,1.8-1.7,2.5c-0.7,0.7-1.6,1.2-2.6,1.6c-1,0.4-2.1,0.6-3.3,0.6c-1.2,0-2.3-0.2-3.3-0.6c-1-0.4-1.9-0.9-2.6-1.6
		c-0.7-0.7-1.3-1.5-1.7-2.5C98.4,43,98.2,41.9,98.2,40.7z M101.6,40.7c0,0.7,0.1,1.4,0.3,2c0.2,0.6,0.5,1.1,0.9,1.5s0.9,0.8,1.5,1
		c0.6,0.2,1.2,0.4,1.9,0.4c0.7,0,1.4-0.1,1.9-0.4c0.6-0.2,1.1-0.6,1.5-1c0.4-0.4,0.7-0.9,0.9-1.5c0.2-0.6,0.3-1.2,0.3-2
		c0-0.7-0.1-1.3-0.3-1.9c-0.2-0.6-0.5-1.1-0.9-1.5c-0.4-0.4-0.9-0.8-1.5-1c-0.6-0.2-1.2-0.4-1.9-0.4c-0.7,0-1.4,0.1-1.9,0.4
		c-0.6,0.2-1.1,0.6-1.5,1s-0.7,0.9-0.9,1.5C101.7,39.4,101.6,40,101.6,40.7z"/>
	<path class="st1" d="M116.7,33.1h5.6c0.8,0,1.5,0.1,2.2,0.2c0.7,0.1,1.3,0.4,1.8,0.7c0.5,0.3,0.9,0.8,1.2,1.4
		c0.3,0.6,0.5,1.3,0.5,2.2c0,0.9-0.1,1.6-0.4,2.2c-0.3,0.6-0.7,1.1-1.2,1.4c-0.5,0.4-1.1,0.6-1.8,0.8c-0.7,0.2-1.4,0.2-2.2,0.2H120
		v5.9h-3.3V33.1z M120,39.5h2.2c0.3,0,0.6,0,0.9-0.1c0.3-0.1,0.5-0.2,0.7-0.3c0.2-0.1,0.4-0.3,0.5-0.6c0.1-0.2,0.2-0.5,0.2-0.9
		c0-0.4-0.1-0.7-0.3-0.9c-0.2-0.2-0.4-0.4-0.7-0.5c-0.3-0.1-0.6-0.2-0.9-0.2c-0.3,0-0.7-0.1-1-0.1H120V39.5z"/>
	<path class="st1" d="M130.3,33.1h10.3v3.1h-6.9V39h6.6v3.1h-6.6v3.1h7.3v3.1h-10.6V33.1z"/>
	<path class="st1" d="M143.6,33.1h4.5l6.4,10.5h0V33.1h3.3v15.1h-4.4L147,37.5h0v10.8h-3.3V33.1z"/>
	<path class="st1" d="M167.3,33.1h5c1.2,0,2.4,0.1,3.4,0.4c1.1,0.3,2,0.7,2.8,1.3c0.8,0.6,1.5,1.4,1.9,2.4c0.5,1,0.7,2.1,0.7,3.5
		c0,1.2-0.2,2.3-0.7,3.2c-0.5,0.9-1.1,1.7-1.9,2.3c-0.8,0.6-1.7,1.1-2.7,1.4c-1,0.3-2.1,0.5-3.2,0.5h-5.4V33.1z M170.6,45.2h1.7
		c0.8,0,1.5-0.1,2.1-0.2c0.7-0.2,1.2-0.4,1.7-0.8c0.5-0.4,0.9-0.8,1.1-1.4c0.3-0.6,0.4-1.3,0.4-2.2c0-0.7-0.1-1.4-0.4-1.9
		c-0.3-0.5-0.7-1-1.1-1.4c-0.5-0.4-1-0.6-1.7-0.8c-0.6-0.2-1.3-0.3-2-0.3h-2V45.2z"/>
	<path class="st1" d="M188.5,33.1h2.8l6.6,15.1H194l-1.3-3.2h-5.9l-1.3,3.2h-3.7L188.5,33.1z M189.8,37.5l-1.8,4.7h3.7L189.8,37.5z"
		/>
	<path class="st1" d="M213,47.2c-1,0.5-2,0.9-3.1,1.1c-1.1,0.2-2.2,0.3-3.3,0.3c-1.2,0-2.3-0.2-3.3-0.6c-1-0.4-1.9-0.9-2.6-1.6
		c-0.7-0.7-1.3-1.5-1.7-2.5c-0.4-1-0.6-2.1-0.6-3.3s0.2-2.3,0.6-3.3c0.4-1,1-1.8,1.7-2.5c0.7-0.7,1.6-1.2,2.6-1.6
		c1-0.4,2.1-0.6,3.3-0.6c1.2,0,2.3,0.1,3.3,0.4c1,0.3,1.9,0.8,2.7,1.5l-2.3,2.6c-0.5-0.5-1-0.8-1.5-1.1c-0.6-0.2-1.3-0.4-2.1-0.4
		c-0.7,0-1.4,0.1-1.9,0.4c-0.6,0.2-1.1,0.6-1.5,1c-0.4,0.4-0.7,0.9-0.9,1.5c-0.2,0.6-0.3,1.2-0.3,1.9c0,0.7,0.1,1.4,0.3,2
		c0.2,0.6,0.5,1.1,0.9,1.5c0.4,0.4,0.9,0.8,1.5,1s1.2,0.4,1.9,0.4c0.7,0,1.4-0.1,1.9-0.2c0.5-0.2,0.9-0.3,1.3-0.5v-2.5h-2.7v-3.1
		h5.9V47.2z"/>
</g>
</svg>
