<?xml version="1.0" encoding="utf-8"?>
<!-- Generator: Adobe Illustrator 24.2.1, SVG Export Plug-In . SVG Version: 6.00 Build 0)  -->
<svg version="1.1" id="Laag_1" xmlns="http://www.w3.org/2000/svg" xmlns:xlink="http://www.w3.org/1999/xlink" x="0px" y="0px"
	 viewBox="0 0 92 275.3" style="enable-background:new 0 0 92 275.3;" xml:space="preserve">
<style type="text/css">
	.st0{fill:#FF0028;}
	.st1{fill:#FFFFFF;}
</style>
<rect y="47.5" class="st0" width="92" height="25.6"/>
<rect y="73" class="st0" width="70.8" height="29.2"/>
<rect y="101.9" class="st0" width="55.5" height="29.2"/>
<g>
	<path d="M4.3,60.8c0-1.2,0.2-2.2,0.6-3.1c0.4-0.9,0.9-1.7,1.6-2.4C7.2,54.6,8,54.1,9,53.8c0.9-0.4,2-0.5,3.1-0.5
		c1.1,0,2.2,0.2,3.1,0.5c0.9,0.4,1.8,0.9,2.5,1.5c0.7,0.7,1.2,1.5,1.6,2.4c0.4,0.9,0.6,2,0.6,3.1c0,1.2-0.2,2.2-0.6,3.1
		c-0.4,0.9-0.9,1.7-1.6,2.4c-0.7,0.7-1.5,1.2-2.5,1.5c-0.9,0.4-2,0.5-3.1,0.5c-1.1,0-2.2-0.2-3.1-0.5C8,67.5,7.2,67,6.5,66.3
		c-0.7-0.7-1.2-1.5-1.6-2.4C4.5,63,4.3,62,4.3,60.8z M7.6,60.8c0,0.7,0.1,1.3,0.3,1.9c0.2,0.6,0.5,1,0.9,1.5c0.4,0.4,0.9,0.7,1.4,1
		c0.5,0.2,1.2,0.3,1.8,0.3c0.7,0,1.3-0.1,1.8-0.3c0.5-0.2,1-0.6,1.4-1c0.4-0.4,0.7-0.9,0.9-1.5c0.2-0.6,0.3-1.2,0.3-1.9
		c0-0.7-0.1-1.3-0.3-1.8c-0.2-0.6-0.5-1.1-0.9-1.5c-0.4-0.4-0.9-0.7-1.4-1c-0.5-0.2-1.2-0.3-1.8-0.3c-0.7,0-1.3,0.1-1.8,0.3
		c-0.5,0.2-1,0.6-1.4,1S8.1,58.4,7.9,59C7.7,59.5,7.6,60.1,7.6,60.8z"/>
	<path d="M22,53.6h4.3l6.1,10h0v-10h3.2V68h-4.1l-6.3-10.2h0V68H22V53.6z"/>
	<path d="M38.7,53.6h3.2v11.5h5.9V68h-9V53.6z"/>
	<path d="M49.4,53.6h3.2V68h-3.2V53.6z"/>
	<path d="M55.5,53.6h4.3l6.1,10h0v-10h3.2V68H65l-6.3-10.2h0V68h-3.2V53.6z"/>
	<path d="M72.2,53.6h9.8v2.9h-6.6v2.7h6.2v2.9h-6.2v2.9h7V68H72.2V53.6z"/>
</g>
<g>
	<path class="st1" d="M4.3,88.7c0-1.2,0.2-2.2,0.6-3.1c0.4-0.9,0.9-1.7,1.6-2.4C7.2,82.5,8,82,9,81.6c0.9-0.4,2-0.5,3.1-0.5
		c1.1,0,2.2,0.2,3.1,0.5c0.9,0.4,1.8,0.9,2.5,1.5c0.7,0.7,1.2,1.5,1.6,2.4c0.4,0.9,0.6,2,0.6,3.1s-0.2,2.2-0.6,3.1
		c-0.4,0.9-0.9,1.7-1.6,2.4c-0.7,0.7-1.5,1.2-2.5,1.5c-0.9,0.4-2,0.5-3.1,0.5C11,96.2,9.9,96,9,95.7c-0.9-0.4-1.8-0.9-2.5-1.5
		c-0.7-0.7-1.2-1.5-1.6-2.4C4.5,90.9,4.3,89.8,4.3,88.7z M7.6,88.7c0,0.7,0.1,1.3,0.3,1.9c0.2,0.6,0.5,1,0.9,1.5
		c0.4,0.4,0.9,0.7,1.4,1c0.5,0.2,1.2,0.3,1.8,0.3c0.7,0,1.3-0.1,1.8-0.3c0.5-0.2,1-0.6,1.4-1c0.4-0.4,0.7-0.9,0.9-1.5
		c0.2-0.6,0.3-1.2,0.3-1.9c0-0.7-0.1-1.3-0.3-1.8c-0.2-0.6-0.5-1.1-0.9-1.5c-0.4-0.4-0.9-0.7-1.4-1c-0.5-0.2-1.2-0.3-1.8-0.3
		c-0.7,0-1.3,0.1-1.8,0.3c-0.5,0.2-1,0.6-1.4,1s-0.7,0.9-0.9,1.5C7.7,87.4,7.6,88,7.6,88.7z"/>
	<path class="st1" d="M22,81.5h5.3c0.7,0,1.4,0.1,2.1,0.2c0.7,0.1,1.2,0.4,1.7,0.7c0.5,0.3,0.9,0.8,1.2,1.3c0.3,0.6,0.4,1.3,0.4,2.1
		c0,0.8-0.1,1.5-0.4,2.1s-0.6,1-1.1,1.4c-0.5,0.3-1,0.6-1.7,0.7c-0.7,0.1-1.4,0.2-2.1,0.2h-2.3v5.6H22V81.5z M25.2,87.6h2.1
		c0.3,0,0.6,0,0.8-0.1c0.3-0.1,0.5-0.1,0.7-0.3c0.2-0.1,0.4-0.3,0.5-0.5c0.1-0.2,0.2-0.5,0.2-0.8c0-0.4-0.1-0.7-0.3-0.9
		c-0.2-0.2-0.4-0.4-0.6-0.5c-0.3-0.1-0.6-0.2-0.9-0.2c-0.3,0-0.6-0.1-0.9-0.1h-1.6V87.6z"/>
	<path class="st1" d="M34.9,81.5h9.8v2.9h-6.6v2.7h6.2V90h-6.2v2.9h7v2.9H34.9V81.5z"/>
	<path class="st1" d="M47.6,81.5h4.3l6.1,10h0v-10h3.2v14.4h-4.1l-6.3-10.2h0v10.2h-3.2V81.5z"/>
</g>
<g>
	<path class="st1" d="M4.1,109.3h4.8c1.2,0,2.2,0.1,3.3,0.4c1,0.3,1.9,0.7,2.7,1.2c0.8,0.6,1.4,1.3,1.8,2.2c0.5,0.9,0.7,2,0.7,3.4
		c0,1.2-0.2,2.2-0.7,3.1c-0.4,0.9-1,1.6-1.8,2.2c-0.7,0.6-1.6,1.1-2.6,1.4c-1,0.3-2,0.5-3.1,0.5H4.1V109.3z M7.2,120.8h1.6
		c0.7,0,1.4-0.1,2-0.2c0.6-0.1,1.2-0.4,1.6-0.7c0.5-0.3,0.8-0.8,1.1-1.4c0.3-0.6,0.4-1.2,0.4-2.1c0-0.7-0.1-1.3-0.4-1.8
		c-0.3-0.5-0.6-1-1.1-1.3c-0.4-0.3-1-0.6-1.6-0.8c-0.6-0.2-1.2-0.3-1.9-0.3H7.2V120.8z"/>
	<path class="st1" d="M24.2,109.3h2.6l6.3,14.4h-3.6l-1.2-3h-5.6l-1.2,3H18L24.2,109.3z M25.4,113.5l-1.7,4.5h3.5L25.4,113.5z"/>
	<path class="st1" d="M47.6,122.7c-0.9,0.5-1.9,0.8-2.9,1.1c-1,0.2-2.1,0.3-3.1,0.3c-1.1,0-2.2-0.2-3.1-0.5
		c-0.9-0.4-1.8-0.9-2.5-1.5c-0.7-0.7-1.2-1.5-1.6-2.4c-0.4-0.9-0.6-2-0.6-3.1c0-1.2,0.2-2.2,0.6-3.1c0.4-0.9,0.9-1.7,1.6-2.4
		c0.7-0.7,1.5-1.2,2.5-1.5c0.9-0.4,2-0.5,3.1-0.5c1.2,0,2.2,0.1,3.2,0.4c1,0.3,1.8,0.8,2.5,1.4l-2.2,2.4c-0.4-0.4-0.9-0.8-1.5-1
		c-0.5-0.2-1.2-0.3-2-0.3c-0.7,0-1.3,0.1-1.8,0.3c-0.5,0.2-1,0.6-1.4,1c-0.4,0.4-0.7,0.9-0.9,1.5c-0.2,0.6-0.3,1.2-0.3,1.8
		c0,0.7,0.1,1.3,0.3,1.9c0.2,0.6,0.5,1,0.9,1.5c0.4,0.4,0.9,0.7,1.4,1c0.5,0.2,1.2,0.3,1.8,0.3c0.7,0,1.3-0.1,1.8-0.2
		c0.5-0.2,0.9-0.3,1.2-0.5v-2.3h-2.6v-2.9h5.6V122.7z"/>
</g>
</svg>
