<svg xmlns="http://www.w3.org/2000/svg" viewBox="0 0 300 250"><defs><style>.cls-1,.cls-4,.cls-5,.cls-6,.cls-7{fill:none;}.cls-2{fill:#009580;stroke-width:0.73px;}.cls-2,.cls-4,.cls-5,.cls-6,.cls-7{stroke:#f9c200;stroke-miterlimit:10;}.cls-3{fill:#fff;}.cls-4,.cls-5,.cls-6,.cls-7{stroke-linecap:round;}.cls-4,.cls-5{stroke-width:2.51px;}.cls-5{stroke-dasharray:0.38 5.06;}.cls-6,.cls-7{stroke-width:2.56px;}.cls-7{stroke-dasharray:0.38 5.05;}</style></defs><title>button</title><g id="Layer_2" data-name="Layer 2"><g id="Layer_1-2" data-name="Layer 1"><rect class="cls-1" width="300" height="250"/><rect class="cls-2" x="63.14" y="101.51" width="172.76" height="46.71"/><path class="cls-3" d="M74.42,124.85h5.92v7.73a17.7,17.7,0,0,1-2.71.66,18.5,18.5,0,0,1-2.6.19,6.52,6.52,0,0,1-5.15-2,8.22,8.22,0,0,1-1.78-5.69,7.52,7.52,0,0,1,2.06-5.63,7.84,7.84,0,0,1,5.73-2,11.16,11.16,0,0,1,4.43.92l-1,2.53a7.47,7.47,0,0,0-3.4-.82,4.17,4.17,0,0,0-3.28,1.38,5.29,5.29,0,0,0-1.24,3.7,5.92,5.92,0,0,0,1,3.71,3.44,3.44,0,0,0,2.89,1.28,10,10,0,0,0,2-.21v-3.11H74.42Z"/><path class="cls-3" d="M91.43,133.22H82.84V118.31h8.59v2.59H86v3.28h5v2.59H86v3.84h5.43Z"/><path class="cls-3" d="M100.64,133.22H97.48V120.94h-4v-2.63h11.26v2.63h-4Z"/><path class="cls-3" d="M117.05,124.45l3.11-6.14h3.41l-4.95,9.11v5.8h-3.14v-5.7l-4.94-9.21H114Z"/><path class="cls-3" d="M139,125.75a8.06,8.06,0,0,1-1.84,5.69,7.95,7.95,0,0,1-10.52,0,9.75,9.75,0,0,1,0-11.4,6.89,6.89,0,0,1,5.28-2,6.8,6.8,0,0,1,5.26,2A8.12,8.12,0,0,1,139,125.75Zm-10.88,0a6.17,6.17,0,0,0,1,3.76,3.31,3.31,0,0,0,2.83,1.27q3.78,0,3.78-5t-3.76-5a3.32,3.32,0,0,0-2.84,1.27A6.2,6.2,0,0,0,128.1,125.75Z"/><path class="cls-3" d="M154.2,118.31V128a5.51,5.51,0,0,1-.74,2.9,4.76,4.76,0,0,1-2.13,1.9,7.52,7.52,0,0,1-3.31.67,6.29,6.29,0,0,1-4.46-1.48,5.21,5.21,0,0,1-1.59-4v-9.61h3.15v9.13a3.84,3.84,0,0,0,.69,2.53,2.88,2.88,0,0,0,2.3.81,2.77,2.77,0,0,0,2.24-.82,3.8,3.8,0,0,0,.7-2.54v-9.11Z"/><path class="cls-3" d="M161,127.5v5.72h-3.16V118.31h4.34a7.41,7.41,0,0,1,4.5,1.11,4,4,0,0,1,1.46,3.36,3.9,3.9,0,0,1-.73,2.34,4.79,4.79,0,0,1-2.05,1.61q3.38,5,4.39,6.49h-3.51l-3.56-5.72Zm0-2.57h1a3.84,3.84,0,0,0,2.21-.5,1.76,1.76,0,0,0,.71-1.57,1.62,1.62,0,0,0-.73-1.51,4.36,4.36,0,0,0-2.25-.45h-1Z"/><path class="cls-3" d="M187.37,123a4.55,4.55,0,0,1-1.51,3.69,6.4,6.4,0,0,1-4.27,1.27h-1.36v5.3h-3.16V118.31h4.76a6.35,6.35,0,0,1,4.13,1.17A4.26,4.26,0,0,1,187.37,123Zm-7.14,2.37h1a3.42,3.42,0,0,0,2.18-.58,2,2,0,0,0,.73-1.67,2.1,2.1,0,0,0-.61-1.65,2.85,2.85,0,0,0-1.9-.53h-1.44Z"/><path class="cls-3" d="M199.31,133.22l-1.08-3.55h-5.44l-1.08,3.55h-3.4l5.26-15h3.86l5.29,15Zm-1.84-6.2c-1-3.21-1.56-5-1.68-5.45s-.22-.76-.27-1q-.35,1.31-1.93,6.45Z"/><path class="cls-3" d="M210.93,120.73a3.25,3.25,0,0,0-2.77,1.34,6.27,6.27,0,0,0-1,3.74c0,3.32,1.25,5,3.75,5a12,12,0,0,0,3.8-.79v2.65a10.55,10.55,0,0,1-4.1.77,6.25,6.25,0,0,1-5-2,8.33,8.33,0,0,1-1.72-5.66,9.21,9.21,0,0,1,.85-4.08,6.09,6.09,0,0,1,2.43-2.68,7.21,7.21,0,0,1,3.72-.93,10,10,0,0,1,4.36,1.05l-1,2.57a14.87,14.87,0,0,0-1.68-.69A5,5,0,0,0,210.93,120.73Z"/><line class="cls-4" x1="62.94" y1="161.77" x2="63.13" y2="161.77"/><line class="cls-5" x1="68.19" y1="161.77" x2="234.37" y2="161.77"/><line class="cls-4" x1="236.9" y1="161.77" x2="237.09" y2="161.77"/><line class="cls-6" x1="62.94" y1="88.25" x2="63.13" y2="88.25"/><line class="cls-7" x1="68.18" y1="88.25" x2="233.8" y2="88.25"/><line class="cls-6" x1="236.32" y1="88.25" x2="236.51" y2="88.25"/></g></g></svg>