<svg xmlns="http://www.w3.org/2000/svg" xmlns:xlink="http://www.w3.org/1999/xlink" viewBox="0 0 300 250"><defs><style>.cls-1,.cls-10,.cls-11,.cls-12,.cls-13,.cls-14,.cls-15,.cls-16,.cls-17,.cls-18,.cls-19,.cls-2,.cls-20,.cls-21,.cls-22,.cls-23,.cls-24,.cls-3,.cls-4,.cls-5,.cls-6,.cls-7,.cls-8,.cls-9{fill:#fff;}.cls-2{clip-path:url(#clip-path);}.cls-3{clip-path:url(#clip-path-2);}.cls-4{clip-path:url(#clip-path-23);}.cls-5{clip-path:url(#clip-path-3);}.cls-6{clip-path:url(#clip-path-4);}.cls-7{clip-path:url(#clip-path-5);}.cls-8{clip-path:url(#clip-path-6);}.cls-9{clip-path:url(#clip-path-7);}.cls-10{clip-path:url(#clip-path-8);}.cls-11{clip-path:url(#clip-path-9);}.cls-12{clip-path:url(#clip-path-10);}.cls-13{clip-path:url(#clip-path-11);}.cls-14{clip-path:url(#clip-path-12);}.cls-15{clip-path:url(#clip-path-13);}.cls-16{clip-path:url(#clip-path-14);}.cls-17{clip-path:url(#clip-path-15);}.cls-18{clip-path:url(#clip-path-16);}.cls-19{clip-path:url(#clip-path-17);}.cls-20{clip-path:url(#clip-path-18);}.cls-21{clip-path:url(#clip-path-19);}.cls-22{clip-path:url(#clip-path-20);}.cls-23{clip-path:url(#clip-path-21);}.cls-24{clip-path:url(#clip-path-22);}.cls-25{clip-path:url(#clip-path-24);}</style><clipPath id="clip-path"><path class="cls-1" d="M25.48,29.42l-.93-3.05H19.87l-.93,3.05H16l4.54-12.9h3.33l4.55,12.9ZM23.9,24.08q-1.29-4.16-1.45-4.7c-.11-.36-.19-.65-.24-.86q-.29,1.13-1.66,5.56Z"/></clipPath><clipPath id="clip-path-2"><path class="cls-4" d="M25.2,44.86A3.3,3.3,0,0,1,24,47.6a5.42,5.42,0,0,1-3.48,1,8.23,8.23,0,0,1-3.64-.77V45.3a14.41,14.41,0,0,0,2.2.81,6.45,6.45,0,0,0,1.65.24A2.33,2.33,0,0,0,22.05,46a1.18,1.18,0,0,0,.48-1,1.11,1.11,0,0,0-.21-.67,2.31,2.31,0,0,0-.62-.57A17,17,0,0,0,20,42.88a7.79,7.79,0,0,1-1.77-1.06,4,4,0,0,1-.94-1.19,3.71,3.71,0,0,1,.8-4.26,4.82,4.82,0,0,1,3.2-1,7.46,7.46,0,0,1,1.91.24,12.77,12.77,0,0,1,1.9.67l-.88,2.11a12.27,12.27,0,0,0-1.7-.58,5.09,5.09,0,0,0-1.32-.17,1.76,1.76,0,0,0-1.19.36,1.27,1.27,0,0,0-.24,1.57,1.88,1.88,0,0,0,.53.52,19.24,19.24,0,0,0,1.73.9,7,7,0,0,1,2.47,1.72A3.42,3.42,0,0,1,25.2,44.86Z"/></clipPath><clipPath id="clip-path-3"><path class="cls-3" d="M40.58,48.42H37.87V42.88H32.78v5.54H30.05V35.58h2.73v5h5.09v-5h2.71Z"/></clipPath><clipPath id="clip-path-4"><path class="cls-5" d="M53.75,48.42H46.34V35.58h7.41v2.23H49.07v2.82h4.35v2.23H49.07v3.31h4.68Z"/></clipPath><clipPath id="clip-path-5"><path class="cls-6" d="M59,48.42V35.58h2.72V46.17h5.21v2.25Z"/></clipPath><clipPath id="clip-path-6"><path class="cls-7" d="M76.59,48.42H73.87V37.84H70.38V35.58h9.7v2.26H76.59Z"/></clipPath><clipPath id="clip-path-7"><path class="cls-8" d="M92,48.42h-7.4V35.58H92v2.23H87.3v2.82h4.35v2.23H87.3v3.31H92Z"/></clipPath><clipPath id="clip-path-8"><path class="cls-9" d="M99.9,43.49v4.93H97.18V35.58h3.74a6.39,6.39,0,0,1,3.88,1,3.78,3.78,0,0,1,.63,4.91,4.13,4.13,0,0,1-1.76,1.39c1.93,2.88,3.19,4.75,3.78,5.59h-3l-3.07-4.93Zm0-2.21h.88a3.35,3.35,0,0,0,1.91-.43,1.54,1.54,0,0,0,.62-1.35,1.42,1.42,0,0,0-.63-1.31,3.92,3.92,0,0,0-2-.38H99.9Z"/></clipPath><clipPath id="clip-path-9"><path class="cls-10" d="M111.58,35.58h4a7.71,7.71,0,0,1,4,.77,2.73,2.73,0,0,1,1.24,2.48,3.16,3.16,0,0,1-.55,1.89,2.16,2.16,0,0,1-1.43.88v.09a2.82,2.82,0,0,1,1.76,1,3.33,3.33,0,0,1,.54,2,3.27,3.27,0,0,1-1.27,2.74,5.48,5.48,0,0,1-3.45,1h-4.81Zm2.73,5.08h1.58a2.86,2.86,0,0,0,1.6-.34,1.29,1.29,0,0,0,.5-1.13,1.13,1.13,0,0,0-.54-1.06,3.41,3.41,0,0,0-1.71-.32h-1.43Zm0,2.17v3.34h1.77a2.6,2.6,0,0,0,1.66-.43,1.56,1.56,0,0,0,.54-1.31c0-1.07-.76-1.6-2.29-1.6Z"/></clipPath><clipPath id="clip-path-10"><path class="cls-11" d="M137.86,42a7,7,0,0,1-1.58,4.91,6.87,6.87,0,0,1-9.07,0A7,7,0,0,1,125.62,42a6.91,6.91,0,0,1,1.59-4.9,6,6,0,0,1,4.55-1.69,5.85,5.85,0,0,1,4.53,1.71A7,7,0,0,1,137.86,42Zm-9.38,0a5.35,5.35,0,0,0,.82,3.25,2.87,2.87,0,0,0,2.44,1.09c2.18,0,3.26-1.45,3.26-4.34s-1.08-4.34-3.24-4.34a2.9,2.9,0,0,0-2.45,1.09A5.37,5.37,0,0,0,128.48,42Z"/></clipPath><clipPath id="clip-path-11"><path class="cls-12" d="M153.43,48.42h-3.11l-3-4.86-3,4.86h-2.91l4.26-6.62-4-6.22h3l2.77,4.62,2.72-4.62h2.93l-4,6.37Z"/></clipPath><clipPath id="clip-path-12"><path class="cls-2" d="M47.34,25.86a3.33,3.33,0,0,1-1.25,2.74,5.45,5.45,0,0,1-3.49,1A8.29,8.29,0,0,1,39,28.83V26.3a14.8,14.8,0,0,0,2.2.81,6.45,6.45,0,0,0,1.65.24A2.34,2.34,0,0,0,44.19,27a1.18,1.18,0,0,0,.48-1,1.11,1.11,0,0,0-.21-.67,2.47,2.47,0,0,0-.62-.57,17.54,17.54,0,0,0-1.67-.87,8,8,0,0,1-1.77-1.06,4.16,4.16,0,0,1-.94-1.19,3.44,3.44,0,0,1-.35-1.58,3.32,3.32,0,0,1,1.16-2.68,4.79,4.79,0,0,1,3.19-1,7.4,7.4,0,0,1,1.91.24,13.28,13.28,0,0,1,1.91.67l-.88,2.11a13.23,13.23,0,0,0-1.7-.58,5.11,5.11,0,0,0-1.33-.17,1.73,1.73,0,0,0-1.18.36,1.17,1.17,0,0,0-.42.94,1.19,1.19,0,0,0,.17.63,1.88,1.88,0,0,0,.53.52c.25.16.82.46,1.73.9a7,7,0,0,1,2.47,1.72A3.37,3.37,0,0,1,47.34,25.86Z"/></clipPath><clipPath id="clip-path-13"><path class="cls-13" d="M173.64,39.58a3.93,3.93,0,0,1-1.3,3.18,5.54,5.54,0,0,1-3.68,1.09h-1.17v4.57h-2.73V35.58h4.11a5.44,5.44,0,0,1,3.55,1A3.67,3.67,0,0,1,173.64,39.58Zm-6.15,2h.89a3,3,0,0,0,1.89-.49,1.78,1.78,0,0,0,.62-1.45,1.83,1.83,0,0,0-.52-1.42,2.49,2.49,0,0,0-1.64-.45h-1.24Z"/></clipPath><clipPath id="clip-path-14"><path class="cls-15" d="M186.45,48.42l-.93-3.05h-4.68l-.93,3.05H177l4.53-12.9h3.34l4.55,12.9Zm-1.58-5.34c-.86-2.77-1.35-4.34-1.45-4.7s-.19-.65-.24-.86q-.28,1.13-1.66,5.56Z"/></clipPath><clipPath id="clip-path-15"><path class="cls-16" d="M196.25,43.49v4.93h-2.72V35.58h3.74a6.39,6.39,0,0,1,3.88,1,3.41,3.41,0,0,1,1.25,2.89,3.45,3.45,0,0,1-.62,2A4.22,4.22,0,0,1,200,42.83c1.94,2.88,3.2,4.75,3.78,5.59h-3l-3.07-4.93Zm0-2.21h.88a3.35,3.35,0,0,0,1.91-.43,1.54,1.54,0,0,0,.61-1.35,1.42,1.42,0,0,0-.63-1.31,3.88,3.88,0,0,0-1.94-.38h-.83Z"/></clipPath><clipPath id="clip-path-16"><path class="cls-17" d="M212.89,48.42h-2.73V37.84h-3.49V35.58h9.71v2.26h-3.49Z"/></clipPath><clipPath id="clip-path-17"><path class="cls-14" d="M62.72,29.42H60V23.88H54.91v5.54H52.19V16.58h2.72v5H60v-5h2.72Z"/></clipPath><clipPath id="clip-path-18"><path class="cls-19" d="M68.48,29.42V16.58H71.2V29.42Z"/></clipPath><clipPath id="clip-path-19"><path class="cls-20" d="M88.36,29.42H84.89L79.3,19.7h-.07c.11,1.72.16,2.95.16,3.68v6H77V16.58h3.43L86,26.2H86c-.09-1.67-.13-2.85-.13-3.54V16.58h2.45Z"/></clipPath><clipPath id="clip-path-20"><path class="cls-21" d="M101.51,29.42h-7.4V16.58h7.4v2.23H96.84v2.82h4.35v2.23H96.84v3.31h4.67Z"/></clipPath><clipPath id="clip-path-21"><path class="cls-22" d="M116.59,29.42h-2.68V16.58h7.36v2.23h-4.68v3.31H121v2.22h-4.36Z"/></clipPath><clipPath id="clip-path-22"><path class="cls-23" d="M138,23a7,7,0,0,1-1.58,4.91,6.87,6.87,0,0,1-9.07,0A7,7,0,0,1,125.74,23a7,7,0,0,1,1.58-4.9,6,6,0,0,1,4.55-1.69,5.82,5.82,0,0,1,4.53,1.71A7,7,0,0,1,138,23Zm-9.38,0a5.42,5.42,0,0,0,.82,3.25,2.88,2.88,0,0,0,2.44,1.09q3.27,0,3.27-4.34c0-2.89-1.09-4.34-3.25-4.34a2.9,2.9,0,0,0-2.45,1.09A5.37,5.37,0,0,0,128.59,23Z"/></clipPath><clipPath id="clip-path-23"><path class="cls-24" d="M145.88,24.49v4.93h-2.73V16.58h3.75a6.36,6.36,0,0,1,3.87,1A3.39,3.39,0,0,1,152,20.42a3.45,3.45,0,0,1-.62,2,4.22,4.22,0,0,1-1.77,1.39c1.93,2.88,3.19,4.75,3.78,5.59h-3l-3.07-4.93Zm0-2.21h.88a3.37,3.37,0,0,0,1.91-.43,1.54,1.54,0,0,0,.61-1.35,1.42,1.42,0,0,0-.63-1.31,3.9,3.9,0,0,0-1.94-.38h-.83Z"/></clipPath><clipPath id="clip-path-24"><path class="cls-18" d="M224.87,40.87l2.68-5.29h2.94l-4.27,7.84v5h-2.7V43.51l-4.27-7.93h3Z"/></clipPath></defs><title>text2</title><g id="Layer_2" data-name="Layer 2"><g id="Layer_1-2" data-name="Layer 1"><path class="cls-1" d="M25.48,29.42l-.93-3.05H19.87l-.93,3.05H16l4.54-12.9h3.33l4.55,12.9ZM23.9,24.08q-1.29-4.16-1.45-4.7c-.11-.36-.19-.65-.24-.86q-.29,1.13-1.66,5.56Z"/><path class="cls-1" d="M47.34,25.86a3.33,3.33,0,0,1-1.25,2.74,5.45,5.45,0,0,1-3.49,1A8.29,8.29,0,0,1,39,28.83V26.3a14.8,14.8,0,0,0,2.2.81,6.45,6.45,0,0,0,1.65.24A2.34,2.34,0,0,0,44.19,27a1.18,1.18,0,0,0,.48-1,1.11,1.11,0,0,0-.21-.67,2.47,2.47,0,0,0-.62-.57,17.54,17.54,0,0,0-1.67-.87,8,8,0,0,1-1.77-1.06,4.16,4.16,0,0,1-.94-1.19,3.44,3.44,0,0,1-.35-1.58,3.32,3.32,0,0,1,1.16-2.68,4.79,4.79,0,0,1,3.19-1,7.4,7.4,0,0,1,1.91.24,13.28,13.28,0,0,1,1.91.67l-.88,2.11a13.23,13.23,0,0,0-1.7-.58,5.11,5.11,0,0,0-1.33-.17,1.73,1.73,0,0,0-1.18.36,1.17,1.17,0,0,0-.42.94,1.19,1.19,0,0,0,.17.63,1.88,1.88,0,0,0,.53.52c.25.16.82.46,1.73.9a7,7,0,0,1,2.47,1.72A3.37,3.37,0,0,1,47.34,25.86Z"/><path class="cls-1" d="M62.72,29.42H60V23.88H54.91v5.54H52.19V16.58h2.72v5H60v-5h2.72Z"/><path class="cls-1" d="M68.48,29.42V16.58H71.2V29.42Z"/><path class="cls-1" d="M88.36,29.42H84.89L79.3,19.7h-.07c.11,1.72.16,2.95.16,3.68v6H77V16.58h3.43L86,26.2H86c-.09-1.67-.13-2.85-.13-3.54V16.58h2.45Z"/><path class="cls-1" d="M101.51,29.42h-7.4V16.58h7.4v2.23H96.84v2.82h4.35v2.23H96.84v3.31h4.67Z"/><path class="cls-1" d="M116.59,29.42h-2.68V16.58h7.36v2.23h-4.68v3.31H121v2.22h-4.36Z"/><path class="cls-1" d="M138,23a7,7,0,0,1-1.58,4.91,6.87,6.87,0,0,1-9.07,0A7,7,0,0,1,125.74,23a7,7,0,0,1,1.58-4.9,6,6,0,0,1,4.55-1.69,5.82,5.82,0,0,1,4.53,1.71A7,7,0,0,1,138,23Zm-9.38,0a5.42,5.42,0,0,0,.82,3.25,2.88,2.88,0,0,0,2.44,1.09q3.27,0,3.27-4.34c0-2.89-1.09-4.34-3.25-4.34a2.9,2.9,0,0,0-2.45,1.09A5.37,5.37,0,0,0,128.59,23Z"/><path class="cls-1" d="M145.88,24.49v4.93h-2.73V16.58h3.75a6.36,6.36,0,0,1,3.87,1A3.39,3.39,0,0,1,152,20.42a3.45,3.45,0,0,1-.62,2,4.22,4.22,0,0,1-1.77,1.39c1.93,2.88,3.19,4.75,3.78,5.59h-3l-3.07-4.93Zm0-2.21h.88a3.37,3.37,0,0,0,1.91-.43,1.54,1.54,0,0,0,.61-1.35,1.42,1.42,0,0,0-.63-1.31,3.9,3.9,0,0,0-1.94-.38h-.83Z"/><path class="cls-1" d="M25.2,44.86A3.3,3.3,0,0,1,24,47.6a5.42,5.42,0,0,1-3.48,1,8.23,8.23,0,0,1-3.64-.77V45.3a14.41,14.41,0,0,0,2.2.81,6.45,6.45,0,0,0,1.65.24A2.33,2.33,0,0,0,22.05,46a1.18,1.18,0,0,0,.48-1,1.11,1.11,0,0,0-.21-.67,2.31,2.31,0,0,0-.62-.57A17,17,0,0,0,20,42.88a7.79,7.79,0,0,1-1.77-1.06,4,4,0,0,1-.94-1.19,3.71,3.71,0,0,1,.8-4.26,4.82,4.82,0,0,1,3.2-1,7.46,7.46,0,0,1,1.91.24,12.77,12.77,0,0,1,1.9.67l-.88,2.11a12.27,12.27,0,0,0-1.7-.58,5.09,5.09,0,0,0-1.32-.17,1.76,1.76,0,0,0-1.19.36,1.27,1.27,0,0,0-.24,1.57,1.88,1.88,0,0,0,.53.52,19.24,19.24,0,0,0,1.73.9,7,7,0,0,1,2.47,1.72A3.42,3.42,0,0,1,25.2,44.86Z"/><path class="cls-1" d="M40.58,48.42H37.87V42.88H32.78v5.54H30.05V35.58h2.73v5h5.09v-5h2.71Z"/><path class="cls-1" d="M53.75,48.42H46.34V35.58h7.41v2.23H49.07v2.82h4.35v2.23H49.07v3.31h4.68Z"/><path class="cls-1" d="M59,48.42V35.58h2.72V46.17h5.21v2.25Z"/><path class="cls-1" d="M76.59,48.42H73.87V37.84H70.38V35.58h9.7v2.26H76.59Z"/><path class="cls-1" d="M92,48.42h-7.4V35.58H92v2.23H87.3v2.82h4.35v2.23H87.3v3.31H92Z"/><path class="cls-1" d="M99.9,43.49v4.93H97.18V35.58h3.74a6.39,6.39,0,0,1,3.88,1,3.78,3.78,0,0,1,.63,4.91,4.13,4.13,0,0,1-1.76,1.39c1.93,2.88,3.19,4.75,3.78,5.59h-3l-3.07-4.93Zm0-2.21h.88a3.35,3.35,0,0,0,1.91-.43,1.54,1.54,0,0,0,.62-1.35,1.42,1.42,0,0,0-.63-1.31,3.92,3.92,0,0,0-2-.38H99.9Z"/><path class="cls-1" d="M111.58,35.58h4a7.71,7.71,0,0,1,4,.77,2.73,2.73,0,0,1,1.24,2.48,3.16,3.16,0,0,1-.55,1.89,2.16,2.16,0,0,1-1.43.88v.09a2.82,2.82,0,0,1,1.76,1,3.33,3.33,0,0,1,.54,2,3.27,3.27,0,0,1-1.27,2.74,5.48,5.48,0,0,1-3.45,1h-4.81Zm2.73,5.08h1.58a2.86,2.86,0,0,0,1.6-.34,1.29,1.29,0,0,0,.5-1.13,1.13,1.13,0,0,0-.54-1.06,3.41,3.41,0,0,0-1.71-.32h-1.43Zm0,2.17v3.34h1.77a2.6,2.6,0,0,0,1.66-.43,1.56,1.56,0,0,0,.54-1.31c0-1.07-.76-1.6-2.29-1.6Z"/><path class="cls-1" d="M137.86,42a7,7,0,0,1-1.58,4.91,6.87,6.87,0,0,1-9.07,0A7,7,0,0,1,125.62,42a6.91,6.91,0,0,1,1.59-4.9,6,6,0,0,1,4.55-1.69,5.85,5.85,0,0,1,4.53,1.71A7,7,0,0,1,137.86,42Zm-9.38,0a5.35,5.35,0,0,0,.82,3.25,2.87,2.87,0,0,0,2.44,1.09c2.18,0,3.26-1.45,3.26-4.34s-1.08-4.34-3.24-4.34a2.9,2.9,0,0,0-2.45,1.09A5.37,5.37,0,0,0,128.48,42Z"/><path class="cls-1" d="M153.43,48.42h-3.11l-3-4.86-3,4.86h-2.91l4.26-6.62-4-6.22h3l2.77,4.62,2.72-4.62h2.93l-4,6.37Z"/><path class="cls-1" d="M173.64,39.58a3.93,3.93,0,0,1-1.3,3.18,5.54,5.54,0,0,1-3.68,1.09h-1.17v4.57h-2.73V35.58h4.11a5.44,5.44,0,0,1,3.55,1A3.67,3.67,0,0,1,173.64,39.58Zm-6.15,2h.89a3,3,0,0,0,1.89-.49,1.78,1.78,0,0,0,.62-1.45,1.83,1.83,0,0,0-.52-1.42,2.49,2.49,0,0,0-1.64-.45h-1.24Z"/><path class="cls-1" d="M186.45,48.42l-.93-3.05h-4.68l-.93,3.05H177l4.53-12.9h3.34l4.55,12.9Zm-1.58-5.34c-.86-2.77-1.35-4.34-1.45-4.7s-.19-.65-.24-.86q-.28,1.13-1.66,5.56Z"/><path class="cls-1" d="M196.25,43.49v4.93h-2.72V35.58h3.74a6.39,6.39,0,0,1,3.88,1,3.41,3.41,0,0,1,1.25,2.89,3.45,3.45,0,0,1-.62,2A4.22,4.22,0,0,1,200,42.83c1.94,2.88,3.2,4.75,3.78,5.59h-3l-3.07-4.93Zm0-2.21h.88a3.35,3.35,0,0,0,1.91-.43,1.54,1.54,0,0,0,.61-1.35,1.42,1.42,0,0,0-.63-1.31,3.88,3.88,0,0,0-1.94-.38h-.83Z"/><path class="cls-1" d="M212.89,48.42h-2.73V37.84h-3.49V35.58h9.71v2.26h-3.49Z"/><path class="cls-1" d="M224.87,40.87l2.68-5.29h2.94l-4.27,7.84v5h-2.7V43.51l-4.27-7.93h3Z"/><g class="cls-25"><rect class="cls-1" width="300" height="250"/></g></g></g></svg>