<?xml version="1.0" encoding="utf-8"?>
<!-- Generator: Adobe Illustrator 25.0.1, SVG Export Plug-In . SVG Version: 6.00 Build 0)  -->
<svg version="1.1" id="Layer_1" xmlns="http://www.w3.org/2000/svg" xmlns:xlink="http://www.w3.org/1999/xlink" x="0px" y="0px"
	 viewBox="0 0 781.6 753.2" style="enable-background:new 0 0 781.6 753.2;" xml:space="preserve">
<style type="text/css">
	.st0{fill:#FFFFFF;}
	.st1{fill:#EE7326;}
	.st2{fill:#0A0B09;}
	.st3{fill:none;}
</style>
<g>
	<path class="st0" d="M623.5,279.6l-1.1-20.6l-31.7,2.9l-6.1-66.1l26.9-2.5l-3.7-22.8l1.4-2.7l-26.9,2.5l-4.5-49.1l30.1-2.8
		l-1.3-4.8l0.3-14.4l-1.4-6.2l-59.4,5.5l2.3,25.5L553,173l2.3,25.5l8.4,91.6l2.3-1.6l4.7,1l2.4-0.2l19.9-1.8l31.7-2.9L623.5,279.6z
		 M548.9,291.5L531.3,99.8l-22.8,2.8l-6.5-0.1l17.6,191.4l7-0.4l9.6-1.6L548.9,291.5z M461,140.9l10.9,127.4l-27.3,7.2l-12.9-140.7
		L461,140.9z M447,300.8l58.6-13.9l-3.4-10.3L489,123.3l-3.8,0.3l0.3-2.2l2.2-3l-58.3-8.8l-10.5-1.9l-0.5,2.9l-5.6,0.5l-0.9-1.3
		l-0.7,1.5l-3.4-1.1l0.1,1.4l-7.9,0l17.7,192.6l6.9-1.3l9.7-0.9l0.9,1.3l6.9-1.3l4.8-0.4L447,300.8z M405.4,298.7l-1.8-10.2
		l-16-174.1l-3.9-1.1l-25.5,2.3l15.4,167.1l-27.7,2.5L330.6,119l-18.3,1l-11,1.7l17.5,190.7l6.2,0.1l11.2-1.7l68.8-6.3L405.4,298.7z
		 M294.8,147.2l-4.2-19.6l1.5-1.5l-0.4-4.2l-75.5,6.9l0.7,16.7l1.6,8.8l23.9-2.2l15.3,166.4l4-1.1l12.7-0.5l12.5-2.6l-15.2-165
		L294.8,147.2z M224,307.2l-8.8-95.6l-0.9-10.3l-59.4,5.5l-4.4-47.9l27.7-2.5l3.1,33.4l21.4-2.7l7.9,0l-2.9-31.8l0.8-0.1l-1.3-22.7
		l1.4-3l-89.5,8.2l2.3,25.5l4.3,46.3l0.9,10.3l0.3,2.8l0.8-0.1l0.7,7.5l-0.4,5l59.4-5.5l6.5,70.3l-30.1,2.8l-4.6-49.8l-4.2-1.5
		l-25.2,3l6.9,74.8l7-0.6l81.7-7.5l0.5-2.9L224,307.2z"/>
	<polygon class="st1" points="732,429.2 693.2,563.1 149.1,614.5 117.6,360.6 670.4,308.4 	"/>
	<polygon class="st1" points="708.9,185.4 670.1,319.3 123.2,371 91.7,117.2 647.4,64.7 	"/>
	<polygon class="st2" points="691.7,180 652.9,313.9 612.2,317.7 587,64.6 586.8,63.4 630.1,59.3 	"/>
	<polygon class="st2" points="638.3,315 111.5,364.7 49.6,241 88.7,110.1 613,60.6 	"/>
	<polygon class="st2" points="716.1,420.9 677.3,554.8 636.6,558.7 611.4,305.6 611.3,304.3 654.5,300.2 	"/>
	<polygon class="st2" points="662.7,555.9 135.9,605.7 74.1,481.9 113.1,351.1 637.4,301.6 	"/>
	<path class="st1" d="M577,523.4l-1.1-20.6l-31.7,2.9l-6.1-66.1L565,437l-3.7-22.8l1.4-2.7l-26.9,2.5l-4.5-49.1l30.1-2.8l-1.3-4.8
		l0.3-14.4l-1.4-6.2l-59.4,5.5l2.3,25.5l4.5,49.1l2.3,25.5l8.4,91.6l2.3-1.6l4.7,1l2.4-0.2l19.9-1.8l31.7-2.9L577,523.4z
		 M490.1,368.7l-0.4-4.2l1.1-5.5l-1.7-0.6l0.1-8.3l0.2-7.1l-67.5,6.2l-1.2,4.4l3.6,21.1l34.9-3.2l-30.6,165.9l1.7,1.3l4.1,0.3
		l0.2,2.1l20.7-1.9l2.5,1.2l-0.1-1.4l46.8-4.3l0.5-3.6l-2.8-21.9l-39.8,3.7l26.9-144.1L490.1,368.7z M420.9,536.8l-1.8-10.2
		l-16-174.1l-3.9-1.1l-25.5,2.3l15.4,167.1l-27.7,2.5L346.1,357l-18.3,1l-11,1.7l17.5,190.7l6.2,0.1l11.2-1.7l68.8-6.3L420.9,536.8z
		 M321.7,546.8l-1.1-20.6l-31.7,2.9l-6.1-66.1l26.9-2.5l-3.7-22.8l1.4-2.7l-26.9,2.5l-4.5-49.1l30.1-2.8l-1.3-4.8l0.3-14.4l-1.4-6.2
		l-59.4,5.5l2.3,25.5l4.5,49.1l2.3,25.5l8.4,91.6l2.3-1.6l4.7,1l2.4-0.2l19.9-1.8l31.7-2.9L321.7,546.8z M210,457.6l-2.4,0.9
		l22.4-86.2l-10.4-1.2l-13.1-3.7l-6.3,2L179.1,452l-7.3-79.7l-11.8,1.8l-17.5,0.9l17.6,191.6l23-3.5l6.3,0.8l-8.6-93.2l3.4,1.1
		l40.4,91.5l24.5-10.5l0.1,1.2l3.2-1L210,457.6z"/>
	<path class="st0" d="M623.5,279.6l-1.1-20.6l-31.7,2.9l-6.1-66.1l26.9-2.5l-3.7-22.8l1.4-2.7l-26.9,2.5l-4.5-49.1l30.1-2.8
		l-1.3-4.8l0.3-14.4l-1.4-6.2l-59.4,5.5l2.3,25.5L553,173l2.3,25.5l8.4,91.6l2.3-1.6l4.7,1l2.4-0.2l19.9-1.8l31.7-2.9L623.5,279.6z
		 M548.9,291.5L531.3,99.8l-22.8,2.8l-6.5-0.1l17.6,191.4l7-0.4l9.6-1.6L548.9,291.5z M461,140.9l10.9,127.4l-27.3,7.2l-12.9-140.7
		L461,140.9z M447,300.8l58.6-13.9l-3.4-10.3L489,123.3l-3.8,0.3l0.3-2.2l2.2-3l-58.3-8.8l-10.5-1.9l-0.5,2.9l-5.6,0.5l-0.9-1.3
		l-0.7,1.5l-3.4-1.1l0.1,1.4l-7.9,0l17.7,192.6l6.9-1.3l9.7-0.9l0.9,1.3l6.9-1.3l4.8-0.4L447,300.8z M405.4,298.7l-1.8-10.2
		l-16-174.1l-3.9-1.1l-25.5,2.3l15.4,167.1l-27.7,2.5L330.6,119l-18.3,1l-11,1.7l17.5,190.7l6.2,0.1l11.2-1.7l68.8-6.3L405.4,298.7z
		 M294.8,147.2l-4.2-19.6l1.5-1.5l-0.4-4.2l-75.5,6.9l0.7,16.7l1.6,8.8l23.9-2.2l15.3,166.4l4-1.1l12.7-0.5l12.5-2.6l-15.2-165
		L294.8,147.2z M224,307.2l-8.8-95.6l-0.9-10.3l-59.4,5.5l-4.4-47.9l27.7-2.5l3.1,33.4l21.4-2.7l7.9,0l-2.9-31.8l0.8-0.1l-1.3-22.7
		l1.4-3l-89.5,8.2l2.3,25.5l4.3,46.3l0.9,10.3l0.3,2.8l0.8-0.1l0.7,7.5l-0.4,5l59.4-5.5l6.5,70.3l-30.1,2.8l-4.6-49.8l-4.2-1.5
		l-25.2,3l6.9,74.8l7-0.6l81.7-7.5l0.5-2.9L224,307.2z"/>
	<path class="st2" d="M474.9,608.2l-0.2,57.7L464,609.6l-3.8,1.1l-10.2,1.7l-2.5-0.2l-0.1-0.8l-0.8,0.8l-1.8-0.6l0.5,0.7l-3.1-0.1
		l-0.8,0.8l-1.1,57.4l-11.3-58.2l-2.1,1l-13.5,1.6l20.3,101l4.4,0l10-2.8l5.5-0.1l-0.4,0.8l2.2,0.2l0.4-65.1l12.2,63.5l2.2-0.2
		l1.3,0.3l5.8-1.3l5.9-0.2l5.7,0.2l1.6-102.3l-3-0.9L474.9,608.2z M494.9,607.1l1.3,13.6l2.4,26.3l1.3,13.6l4.5,49.1l1.2-0.9
		l2.5,0.5l1.3-0.1l10.7-1l17-1.6l-0.7-2.6l-0.6-11.1l-17,1.6l-3.3-35.4l14.4-1.3l-2-12.2l0.7-1.5l-14.4,1.3l-2.4-26.3l16.1-1.5
		l-0.7-2.6l0.2-7.7l-0.7-3.3L494.9,607.1z M564.6,600.6l-11.3,44.2l-3.9-42.7l-6.3,1l-9.4,0.5l9.4,102.7l12.3-1.9l3.4,0.4l-4.6-50
		l1.8,0.6l21.6,49l13.1-5.6l0.1,0.6l1.7-0.5l-22.7-51.1l-1.3,0.5l12-46.2l-5.6-0.6l-7-2L564.6,600.6z M588.2,598.5l1.3,13.6
		l2.4,26.3l1.3,13.6l4.5,49.1l1.2-0.9l2.5,0.5l1.3-0.1l10.7-1l17-1.6l-0.7-2.6l-0.6-11.1l-17,1.6l-3.3-35.4l14.4-1.3l-2-12.2
		l0.7-1.5l-14.4,1.3l-2.4-26.3l16.1-1.5l-0.7-2.6l0.2-7.7l-0.7-3.3L588.2,598.5z M673.1,590.9l0,0.4l-14,0.9l4.7,51.3l-21.4-51.3
		l-1.6,2l-10.6,1.4l-3.3-0.1l9.4,102l5-0.8l10.7-0.6l-4.9-53.1l21.4,51.1l0.1,0.8l3.4-1.1l9.7-0.1l2.5-1l-9.4-101.9L673.1,590.9z"/>
	<polyline class="st3" points="610.6,37.3 612.8,59.4 613,60.6 638.2,313.7 638.3,315 643.2,364.7 	"/>
</g>
</svg>
