<svg xmlns="http://www.w3.org/2000/svg" viewBox="0 0 320 50"><defs><style>.cls-1,.cls-4,.cls-5,.cls-6,.cls-7{fill:none;}.cls-2{fill:#009580;stroke-width:0.73px;}.cls-2,.cls-4,.cls-5,.cls-6,.cls-7{stroke:#f9c200;stroke-miterlimit:10;}.cls-3{fill:#fff;}.cls-4,.cls-5,.cls-6,.cls-7{stroke-linecap:round;}.cls-4,.cls-5{stroke-width:2.51px;}.cls-5{stroke-dasharray:0.38 5.06;}.cls-6,.cls-7{stroke-width:2.56px;}.cls-7{stroke-dasharray:0.38 5.04;}</style></defs><title>button_3</title><g id="Layer_2" data-name="Layer 2"><g id="Layer_1-2" data-name="Layer 1"><rect class="cls-1" width="320" height="50"/><rect class="cls-2" x="116.62" y="13.27" width="86.29" height="23.33"/><path class="cls-3" d="M122.25,24.93h3v3.86a7.65,7.65,0,0,1-1.36.33,9.11,9.11,0,0,1-1.29.09,3.29,3.29,0,0,1-2.58-1,4.13,4.13,0,0,1-.89-2.84,3.74,3.74,0,0,1,1-2.81,3.87,3.87,0,0,1,2.86-1,5.47,5.47,0,0,1,2.21.46l-.53,1.26a3.76,3.76,0,0,0-1.69-.41,2.08,2.08,0,0,0-1.64.69,2.62,2.62,0,0,0-.62,1.85,2.91,2.91,0,0,0,.5,1.85,1.7,1.7,0,0,0,1.44.64,4.92,4.92,0,0,0,1-.1V26.24h-1.41Z"/><path class="cls-3" d="M130.75,29.11h-4.29V21.67h4.29V23H128v1.63h2.52v1.3H128v1.92h2.71Z"/><path class="cls-3" d="M135.35,29.11h-1.58V23h-2V21.67h5.62V23h-2Z"/><path class="cls-3" d="M143.55,24.73l1.55-3.06h1.7l-2.47,4.54v2.9h-1.57V26.26l-2.47-4.59H142Z"/><path class="cls-3" d="M154.5,25.38a4,4,0,0,1-.92,2.84,4,4,0,0,1-5.25,0,4,4,0,0,1-.92-2.85,4,4,0,0,1,.92-2.84,3.44,3.44,0,0,1,2.63-1,3.39,3.39,0,0,1,2.63,1A4,4,0,0,1,154.5,25.38Zm-5.44,0a3.08,3.08,0,0,0,.48,1.88,1.65,1.65,0,0,0,1.41.63c1.26,0,1.89-.84,1.89-2.51s-.62-2.52-1.88-2.52a1.66,1.66,0,0,0-1.42.64A3.08,3.08,0,0,0,149.06,25.38Z"/><path class="cls-3" d="M162.11,21.67v4.81a2.84,2.84,0,0,1-.37,1.45,2.48,2.48,0,0,1-1.07.95,3.86,3.86,0,0,1-1.65.33,3.15,3.15,0,0,1-2.23-.73,2.61,2.61,0,0,1-.8-2V21.67h1.58v4.55a1.93,1.93,0,0,0,.34,1.27,1.45,1.45,0,0,0,1.15.4,1.39,1.39,0,0,0,1.12-.41,1.87,1.87,0,0,0,.35-1.27V21.67Z"/><path class="cls-3" d="M165.51,26.25v2.86h-1.58V21.67h2.17a3.73,3.73,0,0,1,2.25.55,2,2,0,0,1,.72,1.68,2,2,0,0,1-.36,1.17,2.44,2.44,0,0,1-1,.8q1.68,2.5,2.19,3.24h-1.75l-1.78-2.86Zm0-1.28H166a1.88,1.88,0,0,0,1.1-.25.89.89,0,0,0,.36-.78.82.82,0,0,0-.36-.76A2.23,2.23,0,0,0,166,23h-.48Z"/><path class="cls-3" d="M178.67,24a2.29,2.29,0,0,1-.75,1.84,3.23,3.23,0,0,1-2.14.63h-.67v2.65h-1.58V21.67h2.38a3.16,3.16,0,0,1,2.06.58A2.13,2.13,0,0,1,178.67,24Zm-3.56,1.18h.51a1.73,1.73,0,0,0,1.09-.29,1,1,0,0,0,.37-.84,1,1,0,0,0-.31-.82,1.46,1.46,0,0,0-1-.26h-.71Z"/><path class="cls-3" d="M184.64,29.11l-.54-1.77h-2.72l-.54,1.77h-1.7l2.63-7.48h1.93l2.64,7.48Zm-.92-3.1c-.5-1.6-.78-2.51-.84-2.72s-.11-.38-.14-.5c-.11.44-.43,1.51-1,3.22Z"/><path class="cls-3" d="M190.44,22.87a1.61,1.61,0,0,0-1.38.67,3.1,3.1,0,0,0-.49,1.87c0,1.66.62,2.49,1.87,2.49a6,6,0,0,0,1.9-.39v1.32a5.2,5.2,0,0,1-2.05.38,3.13,3.13,0,0,1-2.49-1,4.2,4.2,0,0,1-.86-2.83,4.54,4.54,0,0,1,.43-2A3,3,0,0,1,188.58,22a3.62,3.62,0,0,1,1.86-.46,5,5,0,0,1,2.18.52l-.51,1.29a7.48,7.48,0,0,0-.84-.35A2.47,2.47,0,0,0,190.44,22.87Z"/><path class="cls-3" d="M199.91,29.11h-1.79l-2-3.14-.67.48v2.66h-1.58V21.67h1.58v3.4l.62-.87,2-2.53h1.75L197.29,25Z"/><line class="cls-4" x1="116.52" y1="43.37" x2="116.71" y2="43.37"/><line class="cls-5" x1="121.76" y1="43.37" x2="200.79" y2="43.37"/><line class="cls-4" x1="203.32" y1="43.37" x2="203.51" y2="43.37"/><line class="cls-6" x1="116.52" y1="6.65" x2="116.71" y2="6.65"/><line class="cls-7" x1="121.75" y1="6.65" x2="200.51" y2="6.65"/><line class="cls-6" x1="203.03" y1="6.65" x2="203.22" y2="6.65"/></g></g></svg>