<svg xmlns="http://www.w3.org/2000/svg" viewBox="0 0 320 50"><defs><style>.cls-1{fill:none;opacity:0.44;}.cls-2,.cls-4{fill:#fff;}.cls-3{fill:#009982;}.cls-3,.cls-4{fill-rule:evenodd;}.cls-5,.cls-6{fill:#f9c200;}.cls-6{font-size:11.28px;font-family:HelveticaNeue, Helvetica Neue;}</style></defs><title>logo</title><g id="Layer_2" data-name="Layer 2"><g id="Layer_1-2" data-name="Layer 1"><rect class="cls-1" width="320" height="50"/><path class="cls-2" d="M255.51,37.83a1.2,1.2,0,0,0,.4.46,1.82,1.82,0,0,0,.58.27,2.74,2.74,0,0,0,.7.09,5.13,5.13,0,0,0,.52,0,2,2,0,0,0,.52-.16,1.13,1.13,0,0,0,.4-.32.76.76,0,0,0,.16-.51.72.72,0,0,0-.21-.54,1.73,1.73,0,0,0-.56-.35,6.21,6.21,0,0,0-.79-.24l-.89-.23a8.6,8.6,0,0,1-.9-.29,3,3,0,0,1-.78-.43,2.1,2.1,0,0,1-.56-.66,2,2,0,0,1-.22-1,2.16,2.16,0,0,1,.27-1.1,2.52,2.52,0,0,1,.71-.78,3.15,3.15,0,0,1,1-.46,4.24,4.24,0,0,1,1.11-.15,5.07,5.07,0,0,1,1.24.14,3,3,0,0,1,1.05.47,2.33,2.33,0,0,1,.74.82,2.58,2.58,0,0,1,.27,1.22h-1.76a1.37,1.37,0,0,0-.15-.61,1.07,1.07,0,0,0-.35-.38,1.65,1.65,0,0,0-.51-.2,3,3,0,0,0-.61-.05,2.12,2.12,0,0,0-.44,0,1.29,1.29,0,0,0-.4.16,1.18,1.18,0,0,0-.3.29.84.84,0,0,0-.11.44.75.75,0,0,0,.09.39.78.78,0,0,0,.36.28,4.21,4.21,0,0,0,.76.25l1.25.33a5.26,5.26,0,0,1,.64.17,3.29,3.29,0,0,1,.81.38,2.49,2.49,0,0,1,.7.71,2,2,0,0,1,.3,1.14,2.6,2.6,0,0,1-.22,1.05,2.33,2.33,0,0,1-.66.84,3.08,3.08,0,0,1-1.07.55,5.11,5.11,0,0,1-1.48.19,5.32,5.32,0,0,1-1.33-.16,3.36,3.36,0,0,1-1.13-.53,2.54,2.54,0,0,1-.78-.91,2.74,2.74,0,0,1-.27-1.32h1.75a1.55,1.55,0,0,0,.15.71"/><path class="cls-2" d="M262.83,31.61v3.11h0a1.88,1.88,0,0,1,.8-.76,2.2,2.2,0,0,1,.94-.23,2.77,2.77,0,0,1,1.08.18,1.6,1.6,0,0,1,.67.49,2,2,0,0,1,.34.78,5.16,5.16,0,0,1,.1,1v3.67h-1.64V36.49a2.06,2.06,0,0,0-.24-1.11.89.89,0,0,0-.82-.36,1.13,1.13,0,0,0-1,.4,2.2,2.2,0,0,0-.3,1.31v3.13h-1.64V31.61Z"/><path class="cls-2" d="M269.63,38.43a1.46,1.46,0,0,0,1.06.36,1.53,1.53,0,0,0,.86-.25A1.06,1.06,0,0,0,272,38h1.44a2.77,2.77,0,0,1-1.06,1.54,3.14,3.14,0,0,1-1.74.46,3.42,3.42,0,0,1-1.27-.23,2.62,2.62,0,0,1-.95-.64,2.71,2.71,0,0,1-.61-1,3.72,3.72,0,0,1-.21-1.27,3.64,3.64,0,0,1,.21-1.25,3,3,0,0,1,.63-1,2.94,2.94,0,0,1,1-.66,3.15,3.15,0,0,1,1.24-.24A2.78,2.78,0,0,1,272,34a2.65,2.65,0,0,1,.93.79,3.36,3.36,0,0,1,.53,1.13,4.21,4.21,0,0,1,.11,1.33h-4.3a1.65,1.65,0,0,0,.4,1.16m1.85-3.14a1.12,1.12,0,0,0-.89-.33,1.53,1.53,0,0,0-.65.13,1.19,1.19,0,0,0-.42.33,1.31,1.31,0,0,0-.22.42,1.61,1.61,0,0,0-.07.39h2.66a1.78,1.78,0,0,0-.41-.94"/><rect class="cls-2" x="274.38" y="31.61" width="1.64" height="8.25"/><path class="cls-2" d="M280.68,33.89V35h-1.2v2.95a.79.79,0,0,0,.14.56.8.8,0,0,0,.55.13h.27l.24,0v1.27l-.46,0h-.5a5.55,5.55,0,0,1-.72-.05,1.77,1.77,0,0,1-.6-.21,1,1,0,0,1-.41-.42,1.55,1.55,0,0,1-.15-.73V35h-1v-1.1h1V32.1h1.64v1.79Z"/><path class="cls-2" d="M283.13,38.43a1.68,1.68,0,0,0,1.92.11,1,1,0,0,0,.44-.53h1.44a2.72,2.72,0,0,1-1.06,1.54,3.1,3.1,0,0,1-1.73.46,3.42,3.42,0,0,1-1.27-.23,2.57,2.57,0,0,1-1-.64,3,3,0,0,1-.61-1,3.72,3.72,0,0,1-.21-1.27,3.42,3.42,0,0,1,.22-1.25,3,3,0,0,1,.62-1,2.88,2.88,0,0,1,1-.66,3.12,3.12,0,0,1,1.24-.24,2.8,2.8,0,0,1,1.33.29,2.65,2.65,0,0,1,.93.79,3.16,3.16,0,0,1,.52,1.13,4.21,4.21,0,0,1,.12,1.33h-4.31a1.69,1.69,0,0,0,.4,1.16M285,35.29a1.16,1.16,0,0,0-.9-.33,1.53,1.53,0,0,0-.65.13,1.24,1.24,0,0,0-.41.33,1.14,1.14,0,0,0-.22.42,1.69,1.69,0,0,0-.08.39h2.67a1.86,1.86,0,0,0-.41-.94"/><path class="cls-2" d="M289.4,33.89V35h0a2.11,2.11,0,0,1,.31-.52,2.43,2.43,0,0,1,.45-.4,2.14,2.14,0,0,1,.55-.26,2,2,0,0,1,.6-.09,1.72,1.72,0,0,1,.36.05v1.53l-.28,0-.31,0a1.79,1.79,0,0,0-.77.15,1.43,1.43,0,0,0-.5.41,1.7,1.7,0,0,0-.27.61,3.52,3.52,0,0,0-.08.75v2.69h-1.64v-6Z"/><path class="cls-2" d="M296.13,31.61a5.12,5.12,0,0,1,1.08.11,2.3,2.3,0,0,1,.83.34,1.65,1.65,0,0,1,.54.63,2.29,2.29,0,0,1,.19,1,1.82,1.82,0,0,1-.29,1,2.12,2.12,0,0,1-.83.68,1.94,1.94,0,0,1,1.13.77,2.26,2.26,0,0,1,.38,1.32,2.32,2.32,0,0,1-.24,1.08,2.14,2.14,0,0,1-.66.74,2.65,2.65,0,0,1-.93.43,4.32,4.32,0,0,1-1.08.14h-4V31.61ZM295.9,35a1.33,1.33,0,0,0,.8-.23A.86.86,0,0,0,297,34a.94.94,0,0,0-.1-.47.71.71,0,0,0-.28-.29,1.28,1.28,0,0,0-.4-.15,3.43,3.43,0,0,0-.47,0h-1.69V35Zm.11,3.5a2.73,2.73,0,0,0,.5-.05,1.12,1.12,0,0,0,.43-.18,1,1,0,0,0,.3-.32,1.2,1.2,0,0,0,.11-.54,1.05,1.05,0,0,0-.36-.9,1.55,1.55,0,0,0-.95-.27h-2v2.26Z"/><path class="cls-2" d="M299.91,35.58a2.65,2.65,0,0,1,.62-1,2.69,2.69,0,0,1,1-.64,3.42,3.42,0,0,1,1.27-.22,3.47,3.47,0,0,1,1.28.22,2.69,2.69,0,0,1,1,.64,2.8,2.8,0,0,1,.63,1,3.81,3.81,0,0,1,.22,1.3,3.71,3.71,0,0,1-.22,1.29,2.74,2.74,0,0,1-1.6,1.62,3.47,3.47,0,0,1-1.28.22,3.42,3.42,0,0,1-1.27-.22,2.81,2.81,0,0,1-1-.63,2.65,2.65,0,0,1-.62-1,3.49,3.49,0,0,1-.22-1.29,3.58,3.58,0,0,1,.22-1.3m1.49,2a1.72,1.72,0,0,0,.23.61,1.16,1.16,0,0,0,.45.43,1.31,1.31,0,0,0,.69.17,1.37,1.37,0,0,0,.7-.17,1.16,1.16,0,0,0,.45-.43,1.94,1.94,0,0,0,.24-.61,4.05,4.05,0,0,0,.07-.7,4.27,4.27,0,0,0-.07-.71,1.94,1.94,0,0,0-.24-.61,1.33,1.33,0,0,0-.45-.43,1.37,1.37,0,0,0-.7-.17,1.31,1.31,0,0,0-.69.17,1.33,1.33,0,0,0-.45.43,1.72,1.72,0,0,0-.23.61,3.42,3.42,0,0,0-.07.71,3.26,3.26,0,0,0,.07.7"/><polygon class="cls-2" points="305.98 33.89 307.85 33.89 308.9 35.45 309.94 33.89 311.76 33.89 309.79 36.68 312 39.86 310.13 39.86 308.88 37.98 307.63 39.86 305.8 39.86 307.95 36.72 305.98 33.89"/><path class="cls-2" d="M255.51,37.83a1.2,1.2,0,0,0,.4.46,1.82,1.82,0,0,0,.58.27,2.74,2.74,0,0,0,.7.09,5.13,5.13,0,0,0,.52,0,2,2,0,0,0,.52-.16,1.13,1.13,0,0,0,.4-.32.76.76,0,0,0,.16-.51.72.72,0,0,0-.21-.54,1.73,1.73,0,0,0-.56-.35,6.21,6.21,0,0,0-.79-.24l-.89-.23a8.6,8.6,0,0,1-.9-.29,3,3,0,0,1-.78-.43,2.1,2.1,0,0,1-.56-.66,2,2,0,0,1-.22-1,2.16,2.16,0,0,1,.27-1.1,2.52,2.52,0,0,1,.71-.78,3.15,3.15,0,0,1,1-.46,4.24,4.24,0,0,1,1.11-.15,5.07,5.07,0,0,1,1.24.14,3,3,0,0,1,1.05.47,2.33,2.33,0,0,1,.74.82,2.58,2.58,0,0,1,.27,1.22h-1.76a1.37,1.37,0,0,0-.15-.61,1.07,1.07,0,0,0-.35-.38,1.65,1.65,0,0,0-.51-.2,3,3,0,0,0-.61-.05,2.12,2.12,0,0,0-.44,0,1.29,1.29,0,0,0-.4.16,1.18,1.18,0,0,0-.3.29.84.84,0,0,0-.11.44.75.75,0,0,0,.09.39.78.78,0,0,0,.36.28,4.21,4.21,0,0,0,.76.25l1.25.33a5.26,5.26,0,0,1,.64.17,3.29,3.29,0,0,1,.81.38,2.49,2.49,0,0,1,.7.71,2,2,0,0,1,.3,1.14,2.6,2.6,0,0,1-.22,1.05,2.33,2.33,0,0,1-.66.84,3.08,3.08,0,0,1-1.07.55,5.11,5.11,0,0,1-1.48.19,5.32,5.32,0,0,1-1.33-.16,3.36,3.36,0,0,1-1.13-.53,2.54,2.54,0,0,1-.78-.91,2.74,2.74,0,0,1-.27-1.32h1.75a1.55,1.55,0,0,0,.15.71"/><path class="cls-2" d="M262.83,31.61v3.11h0a1.88,1.88,0,0,1,.8-.76,2.2,2.2,0,0,1,.94-.23,2.77,2.77,0,0,1,1.08.18,1.6,1.6,0,0,1,.67.49,2,2,0,0,1,.34.78,5.16,5.16,0,0,1,.1,1v3.67h-1.64V36.49a2.06,2.06,0,0,0-.24-1.11.89.89,0,0,0-.82-.36,1.13,1.13,0,0,0-1,.4,2.2,2.2,0,0,0-.3,1.31v3.13h-1.64V31.61Z"/><path class="cls-2" d="M269.63,38.43a1.46,1.46,0,0,0,1.06.36,1.53,1.53,0,0,0,.86-.25A1.06,1.06,0,0,0,272,38h1.44a2.77,2.77,0,0,1-1.06,1.54,3.14,3.14,0,0,1-1.74.46,3.42,3.42,0,0,1-1.27-.23,2.62,2.62,0,0,1-.95-.64,2.71,2.71,0,0,1-.61-1,3.72,3.72,0,0,1-.21-1.27,3.64,3.64,0,0,1,.21-1.25,3,3,0,0,1,.63-1,2.94,2.94,0,0,1,1-.66,3.15,3.15,0,0,1,1.24-.24A2.78,2.78,0,0,1,272,34a2.65,2.65,0,0,1,.93.79,3.36,3.36,0,0,1,.53,1.13,4.21,4.21,0,0,1,.11,1.33h-4.3a1.65,1.65,0,0,0,.4,1.16m1.85-3.14a1.12,1.12,0,0,0-.89-.33,1.53,1.53,0,0,0-.65.13,1.19,1.19,0,0,0-.42.33,1.31,1.31,0,0,0-.22.42,1.61,1.61,0,0,0-.07.39h2.66a1.78,1.78,0,0,0-.41-.94"/><rect class="cls-2" x="274.38" y="31.61" width="1.64" height="8.25"/><path class="cls-2" d="M280.68,33.89V35h-1.2v2.95a.79.79,0,0,0,.14.56.8.8,0,0,0,.55.13h.27l.24,0v1.27l-.46,0h-.5a5.55,5.55,0,0,1-.72-.05,1.77,1.77,0,0,1-.6-.21,1,1,0,0,1-.41-.42,1.55,1.55,0,0,1-.15-.73V35h-1v-1.1h1V32.1h1.64v1.79Z"/><path class="cls-2" d="M283.14,38.43a1.45,1.45,0,0,0,1.06.36,1.49,1.49,0,0,0,.85-.25,1,1,0,0,0,.44-.53h1.44a2.72,2.72,0,0,1-1.06,1.54,3.1,3.1,0,0,1-1.73.46,3.42,3.42,0,0,1-1.27-.23,2.57,2.57,0,0,1-1-.64,3,3,0,0,1-.61-1,3.72,3.72,0,0,1-.21-1.27,3.42,3.42,0,0,1,.22-1.25,3,3,0,0,1,.62-1,2.88,2.88,0,0,1,1-.66,3.12,3.12,0,0,1,1.24-.24,2.8,2.8,0,0,1,1.33.29,2.65,2.65,0,0,1,.93.79,3.16,3.16,0,0,1,.52,1.13,4.21,4.21,0,0,1,.12,1.33h-4.31a1.65,1.65,0,0,0,.41,1.16M285,35.29a1.16,1.16,0,0,0-.9-.33,1.53,1.53,0,0,0-.65.13,1.24,1.24,0,0,0-.41.33,1.14,1.14,0,0,0-.22.42,1.69,1.69,0,0,0-.08.39h2.67a1.86,1.86,0,0,0-.41-.94"/><path class="cls-2" d="M289.4,33.89V35h0a2.11,2.11,0,0,1,.31-.52,2.43,2.43,0,0,1,.45-.4,2.14,2.14,0,0,1,.55-.26,2,2,0,0,1,.6-.09,1.63,1.63,0,0,1,.36.05v1.53l-.28,0-.31,0a1.79,1.79,0,0,0-.77.15,1.43,1.43,0,0,0-.5.41,1.7,1.7,0,0,0-.27.61,3.52,3.52,0,0,0-.08.75v2.69h-1.64v-6Z"/><path class="cls-2" d="M296.13,31.61a5.12,5.12,0,0,1,1.08.11,2.3,2.3,0,0,1,.83.34,1.65,1.65,0,0,1,.54.63,2.29,2.29,0,0,1,.19,1,1.82,1.82,0,0,1-.29,1,2.12,2.12,0,0,1-.83.68,1.94,1.94,0,0,1,1.13.77,2.26,2.26,0,0,1,.38,1.32,2.32,2.32,0,0,1-.24,1.08,2.14,2.14,0,0,1-.66.74,2.65,2.65,0,0,1-.93.43,4.32,4.32,0,0,1-1.08.14h-4V31.61ZM295.9,35a1.33,1.33,0,0,0,.8-.23A.86.86,0,0,0,297,34a.94.94,0,0,0-.1-.47.71.71,0,0,0-.28-.29,1.28,1.28,0,0,0-.4-.15,3.43,3.43,0,0,0-.47,0h-1.69V35Zm.11,3.5a2.73,2.73,0,0,0,.5-.05,1.12,1.12,0,0,0,.43-.18,1,1,0,0,0,.3-.32,1.2,1.2,0,0,0,.11-.54,1.05,1.05,0,0,0-.36-.9,1.55,1.55,0,0,0-.95-.27h-2v2.26Z"/><path class="cls-2" d="M299.91,35.58a2.65,2.65,0,0,1,.62-1,2.69,2.69,0,0,1,1-.64,3.42,3.42,0,0,1,1.27-.22,3.47,3.47,0,0,1,1.28.22,2.69,2.69,0,0,1,1,.64,2.8,2.8,0,0,1,.63,1,3.81,3.81,0,0,1,.22,1.3,3.71,3.71,0,0,1-.22,1.29,2.74,2.74,0,0,1-1.6,1.62,3.47,3.47,0,0,1-1.28.22,3.42,3.42,0,0,1-1.27-.22,2.81,2.81,0,0,1-1-.63,2.65,2.65,0,0,1-.62-1,3.49,3.49,0,0,1-.22-1.29,3.58,3.58,0,0,1,.22-1.3m1.49,2a1.72,1.72,0,0,0,.23.61,1.24,1.24,0,0,0,.45.43,1.31,1.31,0,0,0,.69.17,1.37,1.37,0,0,0,.7-.17,1.16,1.16,0,0,0,.45-.43,1.94,1.94,0,0,0,.24-.61,4.05,4.05,0,0,0,.07-.7,4.27,4.27,0,0,0-.07-.71,1.94,1.94,0,0,0-.24-.61,1.33,1.33,0,0,0-.45-.43,1.37,1.37,0,0,0-.7-.17,1.31,1.31,0,0,0-.69.17,1.42,1.42,0,0,0-.45.43,1.72,1.72,0,0,0-.23.61,3.42,3.42,0,0,0-.07.71,3.26,3.26,0,0,0,.07.7"/><polygon class="cls-2" points="305.98 33.89 307.85 33.89 308.9 35.45 309.94 33.89 311.76 33.89 309.79 36.68 312 39.86 310.13 39.86 308.88 37.98 307.63 39.86 305.8 39.86 307.95 36.72 305.98 33.89"/><path class="cls-3" d="M252,23.6a6.26,6.26,0,1,1-6.26-6.26A6.25,6.25,0,0,1,252,23.6"/><path class="cls-4" d="M249,21.72c-.07-.17-.15-.34-.23-.51a.36.36,0,0,0-.14-.16.1.1,0,0,1,0-.05,1.4,1.4,0,0,0-.1-.16.3.3,0,0,0-.23-.07h-.35l.08.85-.21.05-.07-.81h0l-.75,0a.09.09,0,0,1,0,0,.15.15,0,0,0-.14-.07h-.59l-.07,0h-.72s-.05,0-.09,0h-.61a.16.16,0,0,0-.13.07,0,0,0,0,1,0,0c-.07,0-.13,0-.2,0s-.36.05-.54.05h0l0,.79-.21-.07.05-.89h-.41a.27.27,0,0,0-.28.19.22.22,0,0,1-.1.13.23.23,0,0,0-.09.11c-.15.45-.3.89-.44,1.33a.18.18,0,0,0,.15.07h1.16L248,22.6l.9,0,.22,0a.18.18,0,0,0,.15-.07l-.33-.77"/><path class="cls-4" d="M248.12,23.15s0,0,0,0l-.78,0s0,0,0,0l0-.35-3,.05,0,.34s0,0,0,0h-.79l0,0,0-.34-1.07,0a.19.19,0,0,1,0,.08c0,.23.07.45.1.67h0l.21.59h0c0,.44,0,.12,0,.18s.06.34.08.51l.14,1c0,.05,0,.09,0,.13a.14.14,0,0,0,.12.12h.41a.14.14,0,0,0,.11-.07s0,0,.05,0h4.12s0,0,.06,0l0,0a.1.1,0,0,0,.07,0h.43c.05,0,.08,0,.1,0l.16-1.23h0c0-.08,0-.2,0-.28s0-.25,0-.36h0l.21-.69v0h0s0-.06,0-.08l.09-.67s0-.05,0-.06h-.94Z"/><path class="cls-5" d="M264.81,22.9a2.27,2.27,0,0,0-1.37-.39,3,3,0,0,0-.67.07,1.84,1.84,0,0,0-.58.22,1.18,1.18,0,0,0-.4.43,1.29,1.29,0,0,0-.16.66.85.85,0,0,0,.23.6,1.67,1.67,0,0,0,.58.38,5.47,5.47,0,0,0,.83.24l.94.21c.32.07.64.16,1,.26A3.41,3.41,0,0,1,266,26a2,2,0,0,1,.58.65,2.28,2.28,0,0,1-.07,2.09,2.21,2.21,0,0,1-.74.75,3.26,3.26,0,0,1-1,.42,5.25,5.25,0,0,1-1.11.13,4.88,4.88,0,0,1-1.28-.17,3.38,3.38,0,0,1-1.06-.52,2.49,2.49,0,0,1-.72-.88,2.77,2.77,0,0,1-.26-1.27h1a1.87,1.87,0,0,0,.2.88,1.77,1.77,0,0,0,.52.6,2,2,0,0,0,.75.35,3.22,3.22,0,0,0,.88.11,4.59,4.59,0,0,0,.73-.06,2.36,2.36,0,0,0,.66-.24,1.24,1.24,0,0,0,.47-.44,1.33,1.33,0,0,0,.18-.72,1,1,0,0,0-.22-.68,1.65,1.65,0,0,0-.59-.42,4.26,4.26,0,0,0-.83-.27l-.94-.21c-.32-.07-.63-.15-.94-.25a3,3,0,0,1-.83-.37,1.7,1.7,0,0,1-.59-.6,1.81,1.81,0,0,1-.22-.92,2.08,2.08,0,0,1,.91-1.78,2.78,2.78,0,0,1,.94-.43,3.9,3.9,0,0,1,1.08-.14,4.71,4.71,0,0,1,1.15.14,2.55,2.55,0,0,1,.93.47,2.35,2.35,0,0,1,.63.79,2.83,2.83,0,0,1,.25,1.15h-1A1.68,1.68,0,0,0,264.81,22.9Z"/><path class="cls-5" d="M269.08,21.8v3.08h0a1.33,1.33,0,0,1,.31-.46,2,2,0,0,1,.46-.3,2.37,2.37,0,0,1,.53-.18,2.44,2.44,0,0,1,.53-.05,2.61,2.61,0,0,1,1,.15,1.61,1.61,0,0,1,.62.44,1.74,1.74,0,0,1,.34.68A3.72,3.72,0,0,1,273,26v3.83h-1V25.91a1.15,1.15,0,0,0-.31-.86,1.18,1.18,0,0,0-.87-.32,1.94,1.94,0,0,0-.76.14,1.32,1.32,0,0,0-.54.38,1.73,1.73,0,0,0-.32.58,2.43,2.43,0,0,0-.11.73v3.29h-1v-8Z"/><path class="cls-5" d="M274.66,23V21.8h1V23Zm1,1.05v5.83h-1V24Z"/><path class="cls-5" d="M278.21,24V25h0a2,2,0,0,1,1.9-1.06,2.69,2.69,0,0,1,1,.15,1.78,1.78,0,0,1,.62.44,1.6,1.6,0,0,1,.33.68,3.22,3.22,0,0,1,.1.86v3.83h-1V25.91a1.15,1.15,0,0,0-.32-.86,1.18,1.18,0,0,0-.87-.32,2,2,0,0,0-.76.14,1.36,1.36,0,0,0-.53.38,1.75,1.75,0,0,0-.33.58,2.43,2.43,0,0,0-.1.73v3.29h-1V24Z"/><path class="cls-5" d="M287.93,29.48a2.68,2.68,0,0,1-1.65.5,3,3,0,0,1-1.21-.23,2.41,2.41,0,0,1-.87-.63,2.59,2.59,0,0,1-.52-1,4.8,4.8,0,0,1-.2-1.23,3.67,3.67,0,0,1,.2-1.22,3.06,3.06,0,0,1,.57-1,2.58,2.58,0,0,1,2-.85,2.33,2.33,0,0,1,1.29.32,2.41,2.41,0,0,1,.83.82,3.39,3.39,0,0,1,.43,1.08,4.34,4.34,0,0,1,.09,1.12H284.5a2.16,2.16,0,0,0,.09.72,1.49,1.49,0,0,0,.32.61,1.69,1.69,0,0,0,.58.43,2.07,2.07,0,0,0,.82.15,1.64,1.64,0,0,0,1-.28,1.34,1.34,0,0,0,.51-.86h.95A2.35,2.35,0,0,1,287.93,29.48Zm-.23-3.74a1.66,1.66,0,0,0-.36-.53,1.54,1.54,0,0,0-.51-.35,1.76,1.76,0,0,0-.66-.13,1.83,1.83,0,0,0-.68.13,1.57,1.57,0,0,0-.51.36,1.87,1.87,0,0,0-.34.52,1.93,1.93,0,0,0-.14.64h3.35A2.22,2.22,0,0,0,287.7,25.74Z"/><text class="cls-6" transform="translate(287.98 29.85)"> </text><path class="cls-5" d="M291.12,24.87V24h1v-.87a1.4,1.4,0,0,1,.41-1.08,1.79,1.79,0,0,1,1.2-.36,1.83,1.83,0,0,1,.32,0l.31.07v.83a1.27,1.27,0,0,0-.28-.06l-.27,0a.94.94,0,0,0-.54.14.59.59,0,0,0-.19.52V24h1.13v.85h-1.13v5h-1v-5Z"/><path class="cls-5" d="M295.11,25.74a2.81,2.81,0,0,1,.55-1,2.57,2.57,0,0,1,.89-.65,3.35,3.35,0,0,1,2.44,0,2.58,2.58,0,0,1,1.43,1.62,4.09,4.09,0,0,1,0,2.4,2.66,2.66,0,0,1-.54,1,2.63,2.63,0,0,1-.89.65,3.35,3.35,0,0,1-2.44,0,2.45,2.45,0,0,1-.89-.65,2.68,2.68,0,0,1-.55-1,4.09,4.09,0,0,1,0-2.4Zm1,2.15a1.81,1.81,0,0,0,.39.68,1.63,1.63,0,0,0,.58.43,1.85,1.85,0,0,0,1.41,0,1.63,1.63,0,0,0,.58-.43,1.81,1.81,0,0,0,.39-.68,3.26,3.26,0,0,0,0-1.89,1.94,1.94,0,0,0-.39-.69,1.63,1.63,0,0,0-.58-.43,1.73,1.73,0,0,0-1.41,0,1.63,1.63,0,0,0-.58.43,1.94,1.94,0,0,0-.39.69,3.26,3.26,0,0,0,0,1.89Z"/><path class="cls-5" d="M302.8,24v1.23h0a2.62,2.62,0,0,1,.86-1.05,2.16,2.16,0,0,1,1.28-.31v1a2.61,2.61,0,0,0-1,.16,1.48,1.48,0,0,0-.65.46,1.77,1.77,0,0,0-.36.74,3.75,3.75,0,0,0-.12,1v2.59h-1V24Z"/><rect class="cls-5" x="232.65" y="22.44" width="2.31" height="2.31" transform="translate(51.79 172.23) rotate(-45)"/><rect class="cls-5" x="244.6" y="10.48" width="2.31" height="2.31" transform="translate(63.75 177.18) rotate(-45)"/><rect class="cls-5" x="256.54" y="22.44" width="2.31" height="2.31" transform="translate(58.79 189.13) rotate(-45)"/><rect class="cls-5" x="254.48" y="13.54" width="1.61" height="1.61"/><rect class="cls-5" x="235.71" y="13.54" width="1.61" height="1.61"/><rect class="cls-5" x="244.59" y="34.4" width="2.31" height="2.31" transform="translate(46.79 184.13) rotate(-44.98)"/><rect class="cls-5" x="235.71" y="32.52" width="1.61" height="1.61"/><path class="cls-2" d="M245.38,16.49v-.31L239.8,10.6v6.57L241,18.34a7.08,7.08,0,0,1,4.42-1.85"/><path class="cls-2" d="M246.13,16.49a7,7,0,0,1,4.37,1.81l1.21-1.21V10.52l-5.58,5.58Z"/><path class="cls-2" d="M238.64,23.22a7.07,7.07,0,0,1,1.85-4.41l-1.17-1.17h-6.56l5.58,5.58Z"/><path class="cls-2" d="M252.86,24A7.08,7.08,0,0,1,251,28.36l1.19,1.19h6.57L253.22,24Z"/><path class="cls-2" d="M252.86,23.22h.39l5.58-5.58h-6.57l-1.21,1.21a7,7,0,0,1,1.81,4.37"/><path class="cls-2" d="M246.13,30.71v.36l5.58,5.58V30.08l-1.19-1.2a7.08,7.08,0,0,1-4.39,1.83"/><path class="cls-2" d="M245.38,30.71A7.14,7.14,0,0,1,241,28.9l-1.2,1.21v6.56l5.58-5.58Z"/><path class="cls-2" d="M238.64,24h-.38l-5.58,5.58h6.56l1.21-1.21A7.14,7.14,0,0,1,238.64,24"/></g></g></svg>