<svg xmlns="http://www.w3.org/2000/svg" xmlns:xlink="http://www.w3.org/1999/xlink" viewBox="0 0 300 250"><defs><style>.cls-1,.cls-10,.cls-11,.cls-12,.cls-13,.cls-14,.cls-15,.cls-16,.cls-17,.cls-18,.cls-19,.cls-2,.cls-20,.cls-21,.cls-22,.cls-23,.cls-24,.cls-25,.cls-26,.cls-27,.cls-28,.cls-29,.cls-3,.cls-30,.cls-31,.cls-32,.cls-33,.cls-34,.cls-35,.cls-36,.cls-37,.cls-38,.cls-39,.cls-4,.cls-40,.cls-41,.cls-42,.cls-43,.cls-44,.cls-45,.cls-5,.cls-6,.cls-7,.cls-8,.cls-9{fill:#fff;}.cls-2{clip-path:url(#clip-path);}.cls-3{clip-path:url(#clip-path-2);}.cls-4{clip-path:url(#clip-path-44);}.cls-5{clip-path:url(#clip-path-3);}.cls-6{clip-path:url(#clip-path-4);}.cls-7{clip-path:url(#clip-path-5);}.cls-8{clip-path:url(#clip-path-6);}.cls-9{clip-path:url(#clip-path-7);}.cls-10{clip-path:url(#clip-path-8);}.cls-11{clip-path:url(#clip-path-9);}.cls-12{clip-path:url(#clip-path-10);}.cls-13{clip-path:url(#clip-path-11);}.cls-14{clip-path:url(#clip-path-12);}.cls-15{clip-path:url(#clip-path-13);}.cls-16{clip-path:url(#clip-path-14);}.cls-17{clip-path:url(#clip-path-15);}.cls-18{clip-path:url(#clip-path-16);}.cls-19{clip-path:url(#clip-path-17);}.cls-20{clip-path:url(#clip-path-18);}.cls-21{clip-path:url(#clip-path-19);}.cls-22{clip-path:url(#clip-path-20);}.cls-23{clip-path:url(#clip-path-21);}.cls-24{clip-path:url(#clip-path-22);}.cls-25{clip-path:url(#clip-path-23);}.cls-26{clip-path:url(#clip-path-24);}.cls-27{clip-path:url(#clip-path-25);}.cls-28{clip-path:url(#clip-path-26);}.cls-29{clip-path:url(#clip-path-27);}.cls-30{clip-path:url(#clip-path-28);}.cls-31{clip-path:url(#clip-path-29);}.cls-32{clip-path:url(#clip-path-30);}.cls-33{clip-path:url(#clip-path-31);}.cls-34{clip-path:url(#clip-path-32);}.cls-35{clip-path:url(#clip-path-33);}.cls-36{clip-path:url(#clip-path-34);}.cls-37{clip-path:url(#clip-path-35);}.cls-38{clip-path:url(#clip-path-36);}.cls-39{clip-path:url(#clip-path-37);}.cls-40{clip-path:url(#clip-path-38);}.cls-41{clip-path:url(#clip-path-39);}.cls-42{clip-path:url(#clip-path-40);}.cls-43{clip-path:url(#clip-path-41);}.cls-44{clip-path:url(#clip-path-42);}.cls-45{clip-path:url(#clip-path-43);}.cls-46{clip-path:url(#clip-path-45);}</style><clipPath id="clip-path"><path class="cls-1" d="M23.48,29.42l-.93-3.05H17.87l-.93,3.05H14l4.54-12.9h3.33l4.55,12.9ZM21.9,24.08q-1.29-4.16-1.45-4.7c-.11-.36-.19-.65-.24-.86q-.29,1.13-1.66,5.56Z"/></clipPath><clipPath id="clip-path-2"><path class="cls-4" d="M164.71,16.58h2.76L163.1,29.42h-3l-4.36-12.84h2.75l2.42,7.64c.13.45.27,1,.41,1.58s.24,1,.27,1.25a24.77,24.77,0,0,1,.66-2.83Z"/></clipPath><clipPath id="clip-path-3"><path class="cls-3" d="M179,29.42h-7.4V16.58H179v2.23h-4.67v2.82h4.35v2.23h-4.35v3.31H179Z"/></clipPath><clipPath id="clip-path-4"><path class="cls-5" d="M23,48.42h-7.4V35.58H23v2.23H18.34v2.82h4.35v2.23H18.34v3.31H23Z"/></clipPath><clipPath id="clip-path-5"><path class="cls-6" d="M33.66,48.42,30.57,38.34h-.08c.11,2,.16,3.42.16,4.11v6H28.22V35.58h3.71l3,9.82H35l3.23-9.82H42V48.42H39.42V42.34c0-.28,0-.62,0-1s0-1.37.12-3h-.08L36.16,48.42Z"/></clipPath><clipPath id="clip-path-6"><path class="cls-7" d="M55.11,48.42h-7.4V35.58h7.4v2.23H50.44v2.82h4.35v2.23H50.44v3.31h4.67Z"/></clipPath><clipPath id="clip-path-7"><path class="cls-8" d="M63,43.49v4.93H60.31V35.58h3.75a6.38,6.38,0,0,1,3.87,1,3.78,3.78,0,0,1,.63,4.91,4.13,4.13,0,0,1-1.76,1.39c1.93,2.88,3.19,4.75,3.78,5.59h-3l-3.06-4.93Zm0-2.21h.88a3.32,3.32,0,0,0,1.9-.43,1.54,1.54,0,0,0,.62-1.35,1.42,1.42,0,0,0-.63-1.31,3.92,3.92,0,0,0-2-.38H63Z"/></clipPath><clipPath id="clip-path-8"><path class="cls-9" d="M79.59,41.21h5.1v6.66a14.57,14.57,0,0,1-2.33.57,15,15,0,0,1-2.24.16,5.65,5.65,0,0,1-4.44-1.71A7.07,7.07,0,0,1,74.14,42a6.5,6.5,0,0,1,1.78-4.85,6.77,6.77,0,0,1,4.94-1.74,9.46,9.46,0,0,1,3.81.79l-.9,2.18a6.48,6.48,0,0,0-2.93-.7A3.61,3.61,0,0,0,78,38.84,4.63,4.63,0,0,0,77,42a5.14,5.14,0,0,0,.85,3.19,3,3,0,0,0,2.5,1.1A9.47,9.47,0,0,0,82,46.16V43.48H79.59Z"/></clipPath><clipPath id="clip-path-9"><path class="cls-10" d="M97.67,48.42h-7.4V35.58h7.4v2.23H93v2.82h4.35v2.23H93v3.31h4.68Z"/></clipPath><clipPath id="clip-path-10"><path class="cls-11" d="M114.27,48.42h-3.46l-5.59-9.72h-.08c.11,1.72.16,2.95.16,3.68v6h-2.43V35.58h3.44l5.58,9.62H112c-.09-1.67-.13-2.85-.13-3.54V35.58h2.45Z"/></clipPath><clipPath id="clip-path-11"><path class="cls-12" d="M125.48,37.66a2.77,2.77,0,0,0-2.38,1.15,5.42,5.42,0,0,0-.84,3.23q0,4.29,3.22,4.29a10.2,10.2,0,0,0,3.28-.67v2.28a9.06,9.06,0,0,1-3.53.66,5.4,5.4,0,0,1-4.29-1.7A7.19,7.19,0,0,1,119.45,42a8,8,0,0,1,.73-3.51,5.32,5.32,0,0,1,2.1-2.32,6.25,6.25,0,0,1,3.2-.8,8.55,8.55,0,0,1,3.76.91l-.87,2.21a15,15,0,0,0-1.46-.6A4.27,4.27,0,0,0,125.48,37.66Z"/></clipPath><clipPath id="clip-path-12"><path class="cls-2" d="M42,29.42H38.49L32.9,19.7h-.08c.12,1.72.17,2.95.17,3.68v6H30.56V16.58H34l5.58,9.62h.07c-.09-1.67-.14-2.85-.14-3.54V16.58H42Z"/></clipPath><clipPath id="clip-path-13"><path class="cls-13" d="M138,40.87l2.68-5.29h2.94l-4.26,7.84v5h-2.71V43.51l-4.26-7.93h2.95Z"/></clipPath><clipPath id="clip-path-14"><path class="cls-15" d="M155,48.42V35.58h2.73V46.17h5.21v2.25Z"/></clipPath><clipPath id="clip-path-15"><path class="cls-16" d="M167.65,48.42V35.58h2.73V48.42Z"/></clipPath><clipPath id="clip-path-16"><path class="cls-17" d="M181,41.21h5.1v6.66a14.67,14.67,0,0,1-2.34.57,14.91,14.91,0,0,1-2.23.16,5.67,5.67,0,0,1-4.45-1.71A7.11,7.11,0,0,1,175.56,42a6.46,6.46,0,0,1,1.78-4.85,6.74,6.74,0,0,1,4.93-1.74,9.54,9.54,0,0,1,3.82.79l-.91,2.18a6.41,6.41,0,0,0-2.92-.7,3.6,3.6,0,0,0-2.83,1.18,4.63,4.63,0,0,0-1.07,3.2,5.13,5.13,0,0,0,.86,3.19,3,3,0,0,0,2.49,1.1,9.3,9.3,0,0,0,1.73-.17V43.48H181Z"/></clipPath><clipPath id="clip-path-17"><path class="cls-18" d="M202.21,48.42H199.5V42.88h-5.09v5.54h-2.73V35.58h2.73v5h5.09v-5h2.71Z"/></clipPath><clipPath id="clip-path-18"><path class="cls-19" d="M212.93,48.42h-2.72V37.84h-3.49V35.58h9.7v2.26h-3.49Z"/></clipPath><clipPath id="clip-path-19"><path class="cls-20" d="M233.07,48.42h-2.72V37.84h-3.49V35.58h9.7v2.26h-3.49Z"/></clipPath><clipPath id="clip-path-20"><path class="cls-21" d="M252.72,42a7,7,0,0,1-1.58,4.91,6.87,6.87,0,0,1-9.07,0A7.05,7.05,0,0,1,240.49,42a6.91,6.91,0,0,1,1.59-4.9,5.94,5.94,0,0,1,4.54-1.69,5.82,5.82,0,0,1,4.53,1.71A7,7,0,0,1,252.72,42Zm-9.38,0a5.42,5.42,0,0,0,.82,3.25,2.89,2.89,0,0,0,2.45,1.09q3.25,0,3.26-4.34t-3.25-4.34a2.9,2.9,0,0,0-2.45,1.09A5.37,5.37,0,0,0,243.34,42Z"/></clipPath><clipPath id="clip-path-21"><path class="cls-22" d="M18.3,67.42H15.62V54.58H23v2.23H18.3v3.31h4.36v2.22H18.3Z"/></clipPath><clipPath id="clip-path-22"><path class="cls-23" d="M35.88,67.42l-.93-3H30.27l-.93,3H26.4l4.54-12.9h3.33l4.55,12.9ZM34.3,62.08q-1.29-4.15-1.45-4.7c-.11-.36-.19-.65-.24-.86q-.28,1.13-1.66,5.56Z"/></clipPath><clipPath id="clip-path-23"><path class="cls-14" d="M58.37,22.88a6.35,6.35,0,0,1-1.8,4.86,7.41,7.41,0,0,1-5.22,1.68H47.71V16.58h4a6.78,6.78,0,0,1,4.88,1.66A6.09,6.09,0,0,1,58.37,22.88ZM55.54,23q0-4.14-3.65-4.14H50.44v8.36H51.6C54.23,27.17,55.54,25.77,55.54,23Z"/></clipPath><clipPath id="clip-path-24"><path class="cls-24" d="M48.4,67.42,45.3,57.34h-.08c.11,2,.17,3.42.17,4.11v6H43V54.58h3.71l3,9.82h0L53,54.58h3.71V67.42H54.15V61.34c0-.28,0-.62,0-1s0-1.37.12-3h-.08L50.89,67.42Z"/></clipPath><clipPath id="clip-path-25"><path class="cls-26" d="M62.45,67.42V54.58h2.72V67.42Z"/></clipPath><clipPath id="clip-path-26"><path class="cls-27" d="M70.93,67.42V54.58h2.72V65.17h5.21v2.25Z"/></clipPath><clipPath id="clip-path-27"><path class="cls-28" d="M83.62,67.42V54.58h2.72V67.42Z"/></clipPath><clipPath id="clip-path-28"><path class="cls-29" d="M99.5,67.42H92.09V54.58H99.5v2.23H94.82v2.82h4.35v2.23H94.82v3.31H99.5Z"/></clipPath><clipPath id="clip-path-29"><path class="cls-30" d="M112.28,63.86A3.33,3.33,0,0,1,111,66.6a5.45,5.45,0,0,1-3.49,1,8.29,8.29,0,0,1-3.64-.77V64.3a14.86,14.86,0,0,0,2.21.81,6.44,6.44,0,0,0,1.64.24,2.34,2.34,0,0,0,1.38-.34,1.18,1.18,0,0,0,.48-1,1.11,1.11,0,0,0-.21-.67,2.31,2.31,0,0,0-.62-.57,16.32,16.32,0,0,0-1.67-.87,7.92,7.92,0,0,1-1.76-1.06,3.84,3.84,0,0,1-.94-1.19,3.67,3.67,0,0,1,.8-4.26,4.79,4.79,0,0,1,3.19-1,7.54,7.54,0,0,1,1.92.24,13.18,13.18,0,0,1,1.9.67l-.88,2.11a12.73,12.73,0,0,0-1.7-.58,5.09,5.09,0,0,0-1.32-.17,1.76,1.76,0,0,0-1.19.36,1.2,1.2,0,0,0-.41.94,1.18,1.18,0,0,0,.16.63,1.93,1.93,0,0,0,.54.52,18.53,18.53,0,0,0,1.72.9,6.87,6.87,0,0,1,2.47,1.72A3.37,3.37,0,0,1,112.28,63.86Z"/></clipPath><clipPath id="clip-path-30"><path class="cls-31" d="M129.28,67.42h-2.72V56.84h-3.49V54.58h9.7v2.26h-3.49Z"/></clipPath><clipPath id="clip-path-31"><path class="cls-32" d="M147.8,67.42h-2.72V61.88H140v5.54h-2.72V54.58H140v5h5.09v-5h2.72Z"/></clipPath><clipPath id="clip-path-32"><path class="cls-33" d="M153.56,67.42V54.58h2.73V67.42Z"/></clipPath><clipPath id="clip-path-33"><path class="cls-34" d="M169.63,63.86a3.31,3.31,0,0,1-1.26,2.74,5.4,5.4,0,0,1-3.48,1,8.26,8.26,0,0,1-3.64-.77V64.3a14.8,14.8,0,0,0,2.2.81,6.45,6.45,0,0,0,1.65.24,2.29,2.29,0,0,0,1.37-.34,1.18,1.18,0,0,0,.48-1,1.11,1.11,0,0,0-.21-.67,2.17,2.17,0,0,0-.62-.57,15.81,15.81,0,0,0-1.66-.87,7.79,7.79,0,0,1-1.77-1.06,4.16,4.16,0,0,1-.94-1.19,3.44,3.44,0,0,1-.35-1.58,3.31,3.31,0,0,1,1.15-2.68,4.84,4.84,0,0,1,3.2-1,7.46,7.46,0,0,1,1.91.24,12.77,12.77,0,0,1,1.9.67l-.87,2.11a12.79,12.79,0,0,0-1.71-.58,5,5,0,0,0-1.32-.17,1.73,1.73,0,0,0-1.18.36,1.17,1.17,0,0,0-.42.94,1.19,1.19,0,0,0,.17.63,1.88,1.88,0,0,0,.53.52,19.24,19.24,0,0,0,1.73.9A7,7,0,0,1,169,61.73,3.43,3.43,0,0,1,169.63,63.86Z"/></clipPath><clipPath id="clip-path-34"><path class="cls-25" d="M81.28,29.42H78.56V23.88H73.48v5.54H70.75V16.58h2.73v5h5.08v-5h2.72Z"/></clipPath><clipPath id="clip-path-35"><path class="cls-35" d="M194.19,67.42h-3.11l-1.74-6.75c-.06-.24-.17-.73-.33-1.48s-.24-1.26-.26-1.52c0,.32-.13.82-.27,1.52s-.25,1.2-.32,1.5l-1.73,6.73h-3.1l-3.28-12.84h2.68l1.65,7c.29,1.29.49,2.42.62,3.37q.06-.51.24-1.56c.13-.7.25-1.24.36-1.63l1.87-7.19h2.58l1.87,7.19c.08.33.18.82.31,1.48s.21,1.23.28,1.71c.06-.46.15-1,.28-1.71s.25-1.24.35-1.66l1.64-7h2.68Z"/></clipPath><clipPath id="clip-path-36"><path class="cls-37" d="M201.59,67.42V54.58h2.73V67.42Z"/></clipPath><clipPath id="clip-path-37"><path class="cls-38" d="M221.47,67.42H218l-5.59-9.72h-.08c.11,1.72.17,2.95.17,3.68v6h-2.44V54.58h3.44l5.58,9.62h.06c-.09-1.67-.13-2.85-.13-3.54V54.58h2.45Z"/></clipPath><clipPath id="clip-path-38"><path class="cls-39" d="M232.18,67.42h-2.72V56.84H226V54.58h9.7v2.26h-3.49Z"/></clipPath><clipPath id="clip-path-39"><path class="cls-40" d="M247.57,67.42h-7.4V54.58h7.4v2.23h-4.68v2.82h4.36v2.23h-4.36v3.31h4.68Z"/></clipPath><clipPath id="clip-path-40"><path class="cls-36" d="M94.44,29.42H87V16.58h7.4v2.23H89.77v2.82h4.35v2.23H89.77v3.31h4.67Z"/></clipPath><clipPath id="clip-path-41"><path class="cls-42" d="M99.64,29.42V16.58h2.73V27.17h5.21v2.25Z"/></clipPath><clipPath id="clip-path-42"><path class="cls-43" d="M121.21,20.58a3.93,3.93,0,0,1-1.3,3.18,5.54,5.54,0,0,1-3.68,1.09h-1.17v4.57h-2.73V16.58h4.11a5.44,5.44,0,0,1,3.55,1A3.67,3.67,0,0,1,121.21,20.58Zm-6.15,2h.9a3,3,0,0,0,1.88-.49,1.78,1.78,0,0,0,.62-1.45,1.79,1.79,0,0,0-.52-1.42,2.49,2.49,0,0,0-1.64-.45h-1.24Z"/></clipPath><clipPath id="clip-path-43"><path class="cls-44" d="M138.23,22.21h5.1v6.66a14.67,14.67,0,0,1-2.34.57,14.91,14.91,0,0,1-2.23.16,5.68,5.68,0,0,1-4.45-1.71A7.11,7.11,0,0,1,132.78,23a6.46,6.46,0,0,1,1.78-4.85,6.77,6.77,0,0,1,4.94-1.74,9.49,9.49,0,0,1,3.81.79l-.91,2.18a6.41,6.41,0,0,0-2.92-.7,3.61,3.61,0,0,0-2.83,1.18,4.63,4.63,0,0,0-1.07,3.2,5.13,5.13,0,0,0,.86,3.19,3,3,0,0,0,2.49,1.1,9.3,9.3,0,0,0,1.73-.17V24.48h-2.43Z"/></clipPath><clipPath id="clip-path-44"><path class="cls-45" d="M148.91,29.42V16.58h2.72V29.42Z"/></clipPath><clipPath id="clip-path-45"><path class="cls-41" d="M255.5,62.49v4.93h-2.73V54.58h3.74a6.39,6.39,0,0,1,3.88,1,3.78,3.78,0,0,1,.63,4.91,4.13,4.13,0,0,1-1.76,1.39c1.93,2.88,3.19,4.75,3.78,5.59h-3L257,62.49Zm0-2.21h.87a3.33,3.33,0,0,0,1.91-.43,1.54,1.54,0,0,0,.62-1.35,1.42,1.42,0,0,0-.63-1.31,3.92,3.92,0,0,0-1.95-.38h-.82Z"/></clipPath></defs><title>text3</title><g id="Layer_2" data-name="Layer 2"><g id="Layer_1-2" data-name="Layer 1"><path class="cls-1" d="M23.48,29.42l-.93-3.05H17.87l-.93,3.05H14l4.54-12.9h3.33l4.55,12.9ZM21.9,24.08q-1.29-4.16-1.45-4.7c-.11-.36-.19-.65-.24-.86q-.29,1.13-1.66,5.56Z"/><path class="cls-1" d="M42,29.42H38.49L32.9,19.7h-.08c.12,1.72.17,2.95.17,3.68v6H30.56V16.58H34l5.58,9.62h.07c-.09-1.67-.14-2.85-.14-3.54V16.58H42Z"/><path class="cls-1" d="M58.37,22.88a6.35,6.35,0,0,1-1.8,4.86,7.41,7.41,0,0,1-5.22,1.68H47.71V16.58h4a6.78,6.78,0,0,1,4.88,1.66A6.09,6.09,0,0,1,58.37,22.88ZM55.54,23q0-4.14-3.65-4.14H50.44v8.36H51.6C54.23,27.17,55.54,25.77,55.54,23Z"/><path class="cls-1" d="M81.28,29.42H78.56V23.88H73.48v5.54H70.75V16.58h2.73v5h5.08v-5h2.72Z"/><path class="cls-1" d="M94.44,29.42H87V16.58h7.4v2.23H89.77v2.82h4.35v2.23H89.77v3.31h4.67Z"/><path class="cls-1" d="M99.64,29.42V16.58h2.73V27.17h5.21v2.25Z"/><path class="cls-1" d="M121.21,20.58a3.93,3.93,0,0,1-1.3,3.18,5.54,5.54,0,0,1-3.68,1.09h-1.17v4.57h-2.73V16.58h4.11a5.44,5.44,0,0,1,3.55,1A3.67,3.67,0,0,1,121.21,20.58Zm-6.15,2h.9a3,3,0,0,0,1.88-.49,1.78,1.78,0,0,0,.62-1.45,1.79,1.79,0,0,0-.52-1.42,2.49,2.49,0,0,0-1.64-.45h-1.24Z"/><path class="cls-1" d="M138.23,22.21h5.1v6.66a14.67,14.67,0,0,1-2.34.57,14.91,14.91,0,0,1-2.23.16,5.68,5.68,0,0,1-4.45-1.71A7.11,7.11,0,0,1,132.78,23a6.46,6.46,0,0,1,1.78-4.85,6.77,6.77,0,0,1,4.94-1.74,9.49,9.49,0,0,1,3.81.79l-.91,2.18a6.41,6.41,0,0,0-2.92-.7,3.61,3.61,0,0,0-2.83,1.18,4.63,4.63,0,0,0-1.07,3.2,5.13,5.13,0,0,0,.86,3.19,3,3,0,0,0,2.49,1.1,9.3,9.3,0,0,0,1.73-.17V24.48h-2.43Z"/><path class="cls-1" d="M148.91,29.42V16.58h2.72V29.42Z"/><path class="cls-1" d="M164.71,16.58h2.76L163.1,29.42h-3l-4.36-12.84h2.75l2.42,7.64c.13.45.27,1,.41,1.58s.24,1,.27,1.25a24.77,24.77,0,0,1,.66-2.83Z"/><path class="cls-1" d="M179,29.42h-7.4V16.58H179v2.23h-4.67v2.82h4.35v2.23h-4.35v3.31H179Z"/><path class="cls-1" d="M23,48.42h-7.4V35.58H23v2.23H18.34v2.82h4.35v2.23H18.34v3.31H23Z"/><path class="cls-1" d="M33.66,48.42,30.57,38.34h-.08c.11,2,.16,3.42.16,4.11v6H28.22V35.58h3.71l3,9.82H35l3.23-9.82H42V48.42H39.42V42.34c0-.28,0-.62,0-1s0-1.37.12-3h-.08L36.16,48.42Z"/><path class="cls-1" d="M55.11,48.42h-7.4V35.58h7.4v2.23H50.44v2.82h4.35v2.23H50.44v3.31h4.67Z"/><path class="cls-1" d="M63,43.49v4.93H60.31V35.58h3.75a6.38,6.38,0,0,1,3.87,1,3.78,3.78,0,0,1,.63,4.91,4.13,4.13,0,0,1-1.76,1.39c1.93,2.88,3.19,4.75,3.78,5.59h-3l-3.06-4.93Zm0-2.21h.88a3.32,3.32,0,0,0,1.9-.43,1.54,1.54,0,0,0,.62-1.35,1.42,1.42,0,0,0-.63-1.31,3.92,3.92,0,0,0-2-.38H63Z"/><path class="cls-1" d="M79.59,41.21h5.1v6.66a14.57,14.57,0,0,1-2.33.57,15,15,0,0,1-2.24.16,5.65,5.65,0,0,1-4.44-1.71A7.07,7.07,0,0,1,74.14,42a6.5,6.5,0,0,1,1.78-4.85,6.77,6.77,0,0,1,4.94-1.74,9.46,9.46,0,0,1,3.81.79l-.9,2.18a6.48,6.48,0,0,0-2.93-.7A3.61,3.61,0,0,0,78,38.84,4.63,4.63,0,0,0,77,42a5.14,5.14,0,0,0,.85,3.19,3,3,0,0,0,2.5,1.1A9.47,9.47,0,0,0,82,46.16V43.48H79.59Z"/><path class="cls-1" d="M97.67,48.42h-7.4V35.58h7.4v2.23H93v2.82h4.35v2.23H93v3.31h4.68Z"/><path class="cls-1" d="M114.27,48.42h-3.46l-5.59-9.72h-.08c.11,1.72.16,2.95.16,3.68v6h-2.43V35.58h3.44l5.58,9.62H112c-.09-1.67-.13-2.85-.13-3.54V35.58h2.45Z"/><path class="cls-1" d="M125.48,37.66a2.77,2.77,0,0,0-2.38,1.15,5.42,5.42,0,0,0-.84,3.23q0,4.29,3.22,4.29a10.2,10.2,0,0,0,3.28-.67v2.28a9.06,9.06,0,0,1-3.53.66,5.4,5.4,0,0,1-4.29-1.7A7.19,7.19,0,0,1,119.45,42a8,8,0,0,1,.73-3.51,5.32,5.32,0,0,1,2.1-2.32,6.25,6.25,0,0,1,3.2-.8,8.55,8.55,0,0,1,3.76.91l-.87,2.21a15,15,0,0,0-1.46-.6A4.27,4.27,0,0,0,125.48,37.66Z"/><path class="cls-1" d="M138,40.87l2.68-5.29h2.94l-4.26,7.84v5h-2.71V43.51l-4.26-7.93h2.95Z"/><path class="cls-1" d="M155,48.42V35.58h2.73V46.17h5.21v2.25Z"/><path class="cls-1" d="M167.65,48.42V35.58h2.73V48.42Z"/><path class="cls-1" d="M181,41.21h5.1v6.66a14.67,14.67,0,0,1-2.34.57,14.91,14.91,0,0,1-2.23.16,5.67,5.67,0,0,1-4.45-1.71A7.11,7.11,0,0,1,175.56,42a6.46,6.46,0,0,1,1.78-4.85,6.74,6.74,0,0,1,4.93-1.74,9.54,9.54,0,0,1,3.82.79l-.91,2.18a6.41,6.41,0,0,0-2.92-.7,3.6,3.6,0,0,0-2.83,1.18,4.63,4.63,0,0,0-1.07,3.2,5.13,5.13,0,0,0,.86,3.19,3,3,0,0,0,2.49,1.1,9.3,9.3,0,0,0,1.73-.17V43.48H181Z"/><path class="cls-1" d="M202.21,48.42H199.5V42.88h-5.09v5.54h-2.73V35.58h2.73v5h5.09v-5h2.71Z"/><path class="cls-1" d="M212.93,48.42h-2.72V37.84h-3.49V35.58h9.7v2.26h-3.49Z"/><path class="cls-1" d="M233.07,48.42h-2.72V37.84h-3.49V35.58h9.7v2.26h-3.49Z"/><path class="cls-1" d="M252.72,42a7,7,0,0,1-1.58,4.91,6.87,6.87,0,0,1-9.07,0A7.05,7.05,0,0,1,240.49,42a6.91,6.91,0,0,1,1.59-4.9,5.94,5.94,0,0,1,4.54-1.69,5.82,5.82,0,0,1,4.53,1.71A7,7,0,0,1,252.72,42Zm-9.38,0a5.42,5.42,0,0,0,.82,3.25,2.89,2.89,0,0,0,2.45,1.09q3.25,0,3.26-4.34t-3.25-4.34a2.9,2.9,0,0,0-2.45,1.09A5.37,5.37,0,0,0,243.34,42Z"/><path class="cls-1" d="M18.3,67.42H15.62V54.58H23v2.23H18.3v3.31h4.36v2.22H18.3Z"/><path class="cls-1" d="M35.88,67.42l-.93-3H30.27l-.93,3H26.4l4.54-12.9h3.33l4.55,12.9ZM34.3,62.08q-1.29-4.15-1.45-4.7c-.11-.36-.19-.65-.24-.86q-.28,1.13-1.66,5.56Z"/><path class="cls-1" d="M48.4,67.42,45.3,57.34h-.08c.11,2,.17,3.42.17,4.11v6H43V54.58h3.71l3,9.82h0L53,54.58h3.71V67.42H54.15V61.34c0-.28,0-.62,0-1s0-1.37.12-3h-.08L50.89,67.42Z"/><path class="cls-1" d="M62.45,67.42V54.58h2.72V67.42Z"/><path class="cls-1" d="M70.93,67.42V54.58h2.72V65.17h5.21v2.25Z"/><path class="cls-1" d="M83.62,67.42V54.58h2.72V67.42Z"/><path class="cls-1" d="M99.5,67.42H92.09V54.58H99.5v2.23H94.82v2.82h4.35v2.23H94.82v3.31H99.5Z"/><path class="cls-1" d="M112.28,63.86A3.33,3.33,0,0,1,111,66.6a5.45,5.45,0,0,1-3.49,1,8.29,8.29,0,0,1-3.64-.77V64.3a14.86,14.86,0,0,0,2.21.81,6.44,6.44,0,0,0,1.64.24,2.34,2.34,0,0,0,1.38-.34,1.18,1.18,0,0,0,.48-1,1.11,1.11,0,0,0-.21-.67,2.31,2.31,0,0,0-.62-.57,16.32,16.32,0,0,0-1.67-.87,7.92,7.92,0,0,1-1.76-1.06,3.84,3.84,0,0,1-.94-1.19,3.67,3.67,0,0,1,.8-4.26,4.79,4.79,0,0,1,3.19-1,7.54,7.54,0,0,1,1.92.24,13.18,13.18,0,0,1,1.9.67l-.88,2.11a12.73,12.73,0,0,0-1.7-.58,5.09,5.09,0,0,0-1.32-.17,1.76,1.76,0,0,0-1.19.36,1.2,1.2,0,0,0-.41.94,1.18,1.18,0,0,0,.16.63,1.93,1.93,0,0,0,.54.52,18.53,18.53,0,0,0,1.72.9,6.87,6.87,0,0,1,2.47,1.72A3.37,3.37,0,0,1,112.28,63.86Z"/><path class="cls-1" d="M129.28,67.42h-2.72V56.84h-3.49V54.58h9.7v2.26h-3.49Z"/><path class="cls-1" d="M147.8,67.42h-2.72V61.88H140v5.54h-2.72V54.58H140v5h5.09v-5h2.72Z"/><path class="cls-1" d="M153.56,67.42V54.58h2.73V67.42Z"/><path class="cls-1" d="M169.63,63.86a3.31,3.31,0,0,1-1.26,2.74,5.4,5.4,0,0,1-3.48,1,8.26,8.26,0,0,1-3.64-.77V64.3a14.8,14.8,0,0,0,2.2.81,6.45,6.45,0,0,0,1.65.24,2.29,2.29,0,0,0,1.37-.34,1.18,1.18,0,0,0,.48-1,1.11,1.11,0,0,0-.21-.67,2.17,2.17,0,0,0-.62-.57,15.81,15.81,0,0,0-1.66-.87,7.79,7.79,0,0,1-1.77-1.06,4.16,4.16,0,0,1-.94-1.19,3.44,3.44,0,0,1-.35-1.58,3.31,3.31,0,0,1,1.15-2.68,4.84,4.84,0,0,1,3.2-1,7.46,7.46,0,0,1,1.91.24,12.77,12.77,0,0,1,1.9.67l-.87,2.11a12.79,12.79,0,0,0-1.71-.58,5,5,0,0,0-1.32-.17,1.73,1.73,0,0,0-1.18.36,1.17,1.17,0,0,0-.42.94,1.19,1.19,0,0,0,.17.63,1.88,1.88,0,0,0,.53.52,19.24,19.24,0,0,0,1.73.9A7,7,0,0,1,169,61.73,3.43,3.43,0,0,1,169.63,63.86Z"/><path class="cls-1" d="M194.19,67.42h-3.11l-1.74-6.75c-.06-.24-.17-.73-.33-1.48s-.24-1.26-.26-1.52c0,.32-.13.82-.27,1.52s-.25,1.2-.32,1.5l-1.73,6.73h-3.1l-3.28-12.84h2.68l1.65,7c.29,1.29.49,2.42.62,3.37q.06-.51.24-1.56c.13-.7.25-1.24.36-1.63l1.87-7.19h2.58l1.87,7.19c.08.33.18.82.31,1.48s.21,1.23.28,1.71c.06-.46.15-1,.28-1.71s.25-1.24.35-1.66l1.64-7h2.68Z"/><path class="cls-1" d="M201.59,67.42V54.58h2.73V67.42Z"/><path class="cls-1" d="M221.47,67.42H218l-5.59-9.72h-.08c.11,1.72.17,2.95.17,3.68v6h-2.44V54.58h3.44l5.58,9.62h.06c-.09-1.67-.13-2.85-.13-3.54V54.58h2.45Z"/><path class="cls-1" d="M232.18,67.42h-2.72V56.84H226V54.58h9.7v2.26h-3.49Z"/><path class="cls-1" d="M247.57,67.42h-7.4V54.58h7.4v2.23h-4.68v2.82h4.36v2.23h-4.36v3.31h4.68Z"/><path class="cls-1" d="M255.5,62.49v4.93h-2.73V54.58h3.74a6.39,6.39,0,0,1,3.88,1,3.78,3.78,0,0,1,.63,4.91,4.13,4.13,0,0,1-1.76,1.39c1.93,2.88,3.19,4.75,3.78,5.59h-3L257,62.49Zm0-2.21h.87a3.33,3.33,0,0,0,1.91-.43,1.54,1.54,0,0,0,.62-1.35,1.42,1.42,0,0,0-.63-1.31,3.92,3.92,0,0,0-1.95-.38h-.82Z"/><g class="cls-46"><rect class="cls-1" width="300" height="250"/></g></g></g></svg>