<svg xmlns="http://www.w3.org/2000/svg" xmlns:xlink="http://www.w3.org/1999/xlink" viewBox="0 0 300 250"><defs><style>.cls-1,.cls-10,.cls-11,.cls-12,.cls-13,.cls-14,.cls-15,.cls-16,.cls-17,.cls-18,.cls-19,.cls-2,.cls-20,.cls-21,.cls-22,.cls-23,.cls-24,.cls-25,.cls-26,.cls-27,.cls-28,.cls-29,.cls-3,.cls-4,.cls-5,.cls-6,.cls-7,.cls-8,.cls-9{fill:#fff;}.cls-2{clip-path:url(#clip-path);}.cls-3{clip-path:url(#clip-path-2);}.cls-4{clip-path:url(#clip-path-28);}.cls-5{clip-path:url(#clip-path-3);}.cls-6{clip-path:url(#clip-path-4);}.cls-7{clip-path:url(#clip-path-5);}.cls-8{clip-path:url(#clip-path-6);}.cls-9{clip-path:url(#clip-path-7);}.cls-10{clip-path:url(#clip-path-8);}.cls-11{clip-path:url(#clip-path-9);}.cls-12{clip-path:url(#clip-path-10);}.cls-13{clip-path:url(#clip-path-11);}.cls-14{clip-path:url(#clip-path-12);}.cls-15{clip-path:url(#clip-path-13);}.cls-16{clip-path:url(#clip-path-14);}.cls-17{clip-path:url(#clip-path-15);}.cls-18{clip-path:url(#clip-path-16);}.cls-19{clip-path:url(#clip-path-17);}.cls-20{clip-path:url(#clip-path-18);}.cls-21{clip-path:url(#clip-path-19);}.cls-22{clip-path:url(#clip-path-20);}.cls-23{clip-path:url(#clip-path-21);}.cls-24{clip-path:url(#clip-path-22);}.cls-25{clip-path:url(#clip-path-23);}.cls-26{clip-path:url(#clip-path-24);}.cls-27{clip-path:url(#clip-path-25);}.cls-28{clip-path:url(#clip-path-26);}.cls-29{clip-path:url(#clip-path-27);}.cls-30{clip-path:url(#clip-path-29);}</style><clipPath id="clip-path"><path class="cls-1" d="M23.5,22.21h5.09v6.66a14.31,14.31,0,0,1-2.33.57A15,15,0,0,1,24,29.6a5.65,5.65,0,0,1-4.44-1.71A7.11,7.11,0,0,1,18.05,23a6.46,6.46,0,0,1,1.78-4.85,6.74,6.74,0,0,1,4.93-1.74,9.54,9.54,0,0,1,3.82.79l-.91,2.18a6.45,6.45,0,0,0-2.93-.7,3.63,3.63,0,0,0-2.83,1.18A4.68,4.68,0,0,0,20.85,23a5.13,5.13,0,0,0,.86,3.19,3,3,0,0,0,2.49,1.1,9.39,9.39,0,0,0,1.73-.17V24.48H23.5Z"/></clipPath><clipPath id="clip-path-2"><path class="cls-4" d="M169.44,29.42H162V16.58h7.4v2.23h-4.68v2.82h4.35v2.23h-4.35v3.31h4.68Z"/></clipPath><clipPath id="clip-path-3"><path class="cls-3" d="M182,29.42h-7.4V16.58H182v2.23h-4.68v2.82h4.35v2.23h-4.35v3.31H182Z"/></clipPath><clipPath id="clip-path-4"><path class="cls-5" d="M21.3,48.42H18.62V35.58H26v2.23H21.3v3.31h4.36v2.22H21.3Z"/></clipPath><clipPath id="clip-path-5"><path class="cls-6" d="M41.48,35.58v8.31a4.87,4.87,0,0,1-.64,2.5A4.2,4.2,0,0,1,39,48a6.59,6.59,0,0,1-2.85.57,5.44,5.44,0,0,1-3.85-1.27,4.52,4.52,0,0,1-1.37-3.48V35.58h2.71v7.86a3.28,3.28,0,0,0,.6,2.18,2.5,2.5,0,0,0,2,.7,2.45,2.45,0,0,0,1.94-.7,3.34,3.34,0,0,0,.6-2.2V35.58Z"/></clipPath><clipPath id="clip-path-6"><path class="cls-7" d="M58.54,48.42H55.08L49.49,38.7h-.08c.11,1.72.17,2.95.17,3.68v6H47.14V35.58h3.44l5.58,9.62h.06c-.09-1.67-.13-2.85-.13-3.54V35.58h2.45Z"/></clipPath><clipPath id="clip-path-7"><path class="cls-8" d="M75,41.88a6.32,6.32,0,0,1-1.81,4.86,7.37,7.37,0,0,1-5.21,1.68H64.3V35.58h4a6.79,6.79,0,0,1,4.89,1.66A6.09,6.09,0,0,1,75,41.88ZM72.13,42q0-4.14-3.66-4.14H67v8.36h1.17C70.81,46.17,72.13,44.77,72.13,42Z"/></clipPath><clipPath id="clip-path-8"><path class="cls-9" d="M82.87,43.49v4.93H80.14V35.58h3.74a6.39,6.39,0,0,1,3.88,1,3.78,3.78,0,0,1,.63,4.91,4.13,4.13,0,0,1-1.76,1.39c1.93,2.88,3.19,4.75,3.78,5.59h-3l-3.06-4.93Zm0-2.21h.87a3.33,3.33,0,0,0,1.91-.43,1.54,1.54,0,0,0,.62-1.35,1.42,1.42,0,0,0-.63-1.31,3.92,3.92,0,0,0-2-.38h-.82Z"/></clipPath><clipPath id="clip-path-9"><path class="cls-10" d="M102.41,48.42l-.93-3.05H96.79l-.93,3.05H92.93l4.53-12.9h3.33l4.56,12.9Zm-1.58-5.34-1.46-4.7c-.11-.36-.18-.65-.23-.86-.19.75-.75,2.6-1.66,5.56Z"/></clipPath><clipPath id="clip-path-10"><path class="cls-11" d="M109.48,48.42V35.58h2.73V48.42Z"/></clipPath><clipPath id="clip-path-11"><path class="cls-12" d="M125.55,44.86a3.31,3.31,0,0,1-1.26,2.74,5.4,5.4,0,0,1-3.48,1,8.26,8.26,0,0,1-3.64-.77V45.3a14.8,14.8,0,0,0,2.2.81,6.45,6.45,0,0,0,1.65.24A2.34,2.34,0,0,0,122.4,46a1.2,1.2,0,0,0,.48-1,1.12,1.12,0,0,0-.22-.67,2.17,2.17,0,0,0-.62-.57,15.81,15.81,0,0,0-1.66-.87,7.79,7.79,0,0,1-1.77-1.06,4.16,4.16,0,0,1-.94-1.19,3.44,3.44,0,0,1-.35-1.58,3.32,3.32,0,0,1,1.16-2.68,4.79,4.79,0,0,1,3.19-1,7.4,7.4,0,0,1,1.91.24,12.77,12.77,0,0,1,1.9.67l-.87,2.11a13.23,13.23,0,0,0-1.7-.58,5.11,5.11,0,0,0-1.33-.17,1.73,1.73,0,0,0-1.18.36A1.17,1.17,0,0,0,120,39a1.19,1.19,0,0,0,.17.63,1.88,1.88,0,0,0,.53.52,19.24,19.24,0,0,0,1.73.9,7,7,0,0,1,2.47,1.72A3.43,3.43,0,0,1,125.55,44.86Z"/></clipPath><clipPath id="clip-path-12"><path class="cls-2" d="M41.57,29.42h-7.4V16.58h7.4v2.23H36.9v2.82h4.35v2.23H36.9v3.31h4.67Z"/></clipPath><clipPath id="clip-path-13"><path class="cls-13" d="M130.4,48.42V35.58h2.72V48.42Z"/></clipPath><clipPath id="clip-path-14"><path class="cls-15" d="M150.27,48.42h-3.46l-5.59-9.72h-.08c.11,1.72.17,2.95.17,3.68v6h-2.43V35.58h3.43l5.58,9.62H148c-.08-1.67-.13-2.85-.13-3.54V35.58h2.45Z"/></clipPath><clipPath id="clip-path-15"><path class="cls-16" d="M160.91,41.21H166v6.66a14.31,14.31,0,0,1-2.33.57,15,15,0,0,1-2.24.16A5.65,5.65,0,0,1,157,46.89,7.11,7.11,0,0,1,155.46,42a6.46,6.46,0,0,1,1.78-4.85,6.74,6.74,0,0,1,4.93-1.74,9.54,9.54,0,0,1,3.82.79l-.91,2.18a6.45,6.45,0,0,0-2.93-.7,3.63,3.63,0,0,0-2.83,1.18,4.68,4.68,0,0,0-1.06,3.2,5.13,5.13,0,0,0,.86,3.19,3,3,0,0,0,2.49,1.1,9.39,9.39,0,0,0,1.73-.17V43.48h-2.43Z"/></clipPath><clipPath id="clip-path-16"><path class="cls-17" d="M27.5,58.58a4,4,0,0,1-1.3,3.18,5.56,5.56,0,0,1-3.69,1.09H21.34v4.57H18.62V54.58h4.1a5.47,5.47,0,0,1,3.56,1A3.67,3.67,0,0,1,27.5,58.58Zm-6.16,2h.9a3,3,0,0,0,1.88-.49,1.75,1.75,0,0,0,.62-1.45,1.79,1.79,0,0,0-.52-1.42,2.47,2.47,0,0,0-1.64-.45H21.34Z"/></clipPath><clipPath id="clip-path-17"><path class="cls-18" d="M40.31,67.42l-.93-3H34.69l-.93,3H30.82l4.54-12.9h3.33l4.55,12.9Zm-1.59-5.34q-1.29-4.15-1.45-4.7c-.11-.36-.19-.65-.23-.86q-.3,1.13-1.66,5.56Z"/></clipPath><clipPath id="clip-path-18"><path class="cls-19" d="M52.84,56.66a2.76,2.76,0,0,0-2.38,1.15A5.35,5.35,0,0,0,49.61,61q0,4.29,3.23,4.29a10.25,10.25,0,0,0,3.28-.67v2.28a9.15,9.15,0,0,1-3.54.66,5.4,5.4,0,0,1-4.29-1.7A7.19,7.19,0,0,1,46.81,61a7.89,7.89,0,0,1,.73-3.51,5.24,5.24,0,0,1,2.09-2.32,6.27,6.27,0,0,1,3.21-.8,8.55,8.55,0,0,1,3.76.91l-.88,2.21a13.86,13.86,0,0,0-1.45-.6A4.31,4.31,0,0,0,52.84,56.66Z"/></clipPath><clipPath id="clip-path-19"><path class="cls-20" d="M71.71,67.42h-3.1L65.25,62l-1.16.83v4.58H61.37V54.58h2.72v5.88l1.08-1.52,3.48-4.36h3l-4.48,5.68Z"/></clipPath><clipPath id="clip-path-20"><path class="cls-21" d="M94.44,67.42H91L85.38,57.7h-.07c.11,1.72.16,2.95.16,3.68v6H83V54.58h3.43l5.59,9.62h.06C92,62.53,92,61.35,92,60.66V54.58h2.45Z"/></clipPath><clipPath id="clip-path-21"><path class="cls-22" d="M111.86,61a7,7,0,0,1-1.59,4.91,6.87,6.87,0,0,1-9.07,0A7.05,7.05,0,0,1,99.62,61a6.91,6.91,0,0,1,1.59-4.9,6,6,0,0,1,4.55-1.69,5.85,5.85,0,0,1,4.53,1.71A7,7,0,0,1,111.86,61Zm-9.38,0a5.43,5.43,0,0,0,.81,3.25,2.89,2.89,0,0,0,2.45,1.09Q109,65.32,109,61t-3.24-4.34a2.91,2.91,0,0,0-2.46,1.09A5.37,5.37,0,0,0,102.48,61Z"/></clipPath><clipPath id="clip-path-22"><path class="cls-14" d="M51.73,29.42H49V18.84H45.52V16.58h9.7v2.26H51.73Z"/></clipPath><clipPath id="clip-path-23"><path class="cls-24" d="M70.91,21.87l2.68-5.29h2.94l-4.26,7.84v5H69.56V24.51L65.3,16.58h3Z"/></clipPath><clipPath id="clip-path-24"><path class="cls-25" d="M92.33,23a7,7,0,0,1-1.58,4.91,6.87,6.87,0,0,1-9.07,0A7,7,0,0,1,80.09,23a6.91,6.91,0,0,1,1.59-4.9,6,6,0,0,1,4.55-1.69,5.85,5.85,0,0,1,4.53,1.71A7,7,0,0,1,92.33,23ZM83,23a5.35,5.35,0,0,0,.82,3.25,2.87,2.87,0,0,0,2.44,1.09q3.26,0,3.26-4.34t-3.24-4.34a2.89,2.89,0,0,0-2.45,1.09A5.37,5.37,0,0,0,83,23Z"/></clipPath><clipPath id="clip-path-25"><path class="cls-26" d="M108,16.58v8.31a4.77,4.77,0,0,1-.64,2.5A4.15,4.15,0,0,1,105.49,29a6.59,6.59,0,0,1-2.85.57,5.45,5.45,0,0,1-3.85-1.27,4.52,4.52,0,0,1-1.37-3.48V16.58h2.72v7.86a3.28,3.28,0,0,0,.6,2.18,2.48,2.48,0,0,0,2,.7,2.44,2.44,0,0,0,1.94-.7,3.34,3.34,0,0,0,.6-2.2V16.58Z"/></clipPath><clipPath id="clip-path-26"><path class="cls-27" d="M116.36,24.49v4.93h-2.72V16.58h3.74a6.39,6.39,0,0,1,3.88,1,3.38,3.38,0,0,1,1.25,2.89,3.38,3.38,0,0,1-.62,2,4.22,4.22,0,0,1-1.77,1.39c1.94,2.88,3.2,4.75,3.78,5.59h-3l-3.07-4.93Zm0-2.21h.88a3.35,3.35,0,0,0,1.91-.43,1.54,1.54,0,0,0,.61-1.35,1.42,1.42,0,0,0-.63-1.31,3.85,3.85,0,0,0-1.94-.38h-.83Z"/></clipPath><clipPath id="clip-path-27"><path class="cls-28" d="M137.92,29.42h-2.68V16.58h7.36v2.23h-4.68v3.31h4.36v2.22h-4.36Z"/></clipPath><clipPath id="clip-path-28"><path class="cls-29" d="M150.36,24.49v4.93h-2.73V16.58h3.75a6.36,6.36,0,0,1,3.87,1,3.39,3.39,0,0,1,1.26,2.89,3.45,3.45,0,0,1-.62,2,4.22,4.22,0,0,1-1.77,1.39c1.93,2.88,3.19,4.75,3.78,5.59h-3l-3.07-4.93Zm0-2.21h.88a3.35,3.35,0,0,0,1.91-.43,1.54,1.54,0,0,0,.61-1.35,1.42,1.42,0,0,0-.63-1.31,3.9,3.9,0,0,0-1.94-.38h-.83Z"/></clipPath><clipPath id="clip-path-29"><path class="cls-23" d="M129.55,67.42h-3.1l-1.74-6.75c-.06-.24-.17-.73-.33-1.48s-.24-1.26-.27-1.52c0,.32-.12.82-.26,1.52s-.25,1.2-.32,1.5l-1.74,6.73H118.7l-3.28-12.84h2.68l1.65,7c.28,1.29.49,2.42.62,3.37,0-.34.12-.86.24-1.56s.25-1.24.36-1.63l1.87-7.19h2.57l1.88,7.19c.08.33.18.82.3,1.48s.22,1.23.29,1.71c.05-.46.15-1,.28-1.71s.24-1.24.35-1.66l1.63-7h2.68Z"/></clipPath></defs><title>text4</title><g id="Layer_2" data-name="Layer 2"><g id="Layer_1-2" data-name="Layer 1"><path class="cls-1" d="M23.5,22.21h5.09v6.66a14.31,14.31,0,0,1-2.33.57A15,15,0,0,1,24,29.6a5.65,5.65,0,0,1-4.44-1.71A7.11,7.11,0,0,1,18.05,23a6.46,6.46,0,0,1,1.78-4.85,6.74,6.74,0,0,1,4.93-1.74,9.54,9.54,0,0,1,3.82.79l-.91,2.18a6.45,6.45,0,0,0-2.93-.7,3.63,3.63,0,0,0-2.83,1.18A4.68,4.68,0,0,0,20.85,23a5.13,5.13,0,0,0,.86,3.19,3,3,0,0,0,2.49,1.1,9.39,9.39,0,0,0,1.73-.17V24.48H23.5Z"/><path class="cls-1" d="M41.57,29.42h-7.4V16.58h7.4v2.23H36.9v2.82h4.35v2.23H36.9v3.31h4.67Z"/><path class="cls-1" d="M51.73,29.42H49V18.84H45.52V16.58h9.7v2.26H51.73Z"/><path class="cls-1" d="M70.91,21.87l2.68-5.29h2.94l-4.26,7.84v5H69.56V24.51L65.3,16.58h3Z"/><path class="cls-1" d="M92.33,23a7,7,0,0,1-1.58,4.91,6.87,6.87,0,0,1-9.07,0A7,7,0,0,1,80.09,23a6.91,6.91,0,0,1,1.59-4.9,6,6,0,0,1,4.55-1.69,5.85,5.85,0,0,1,4.53,1.71A7,7,0,0,1,92.33,23ZM83,23a5.35,5.35,0,0,0,.82,3.25,2.87,2.87,0,0,0,2.44,1.09q3.26,0,3.26-4.34t-3.24-4.34a2.89,2.89,0,0,0-2.45,1.09A5.37,5.37,0,0,0,83,23Z"/><path class="cls-1" d="M108,16.58v8.31a4.77,4.77,0,0,1-.64,2.5A4.15,4.15,0,0,1,105.49,29a6.59,6.59,0,0,1-2.85.57,5.45,5.45,0,0,1-3.85-1.27,4.52,4.52,0,0,1-1.37-3.48V16.58h2.72v7.86a3.28,3.28,0,0,0,.6,2.18,2.48,2.48,0,0,0,2,.7,2.44,2.44,0,0,0,1.94-.7,3.34,3.34,0,0,0,.6-2.2V16.58Z"/><path class="cls-1" d="M116.36,24.49v4.93h-2.72V16.58h3.74a6.39,6.39,0,0,1,3.88,1,3.38,3.38,0,0,1,1.25,2.89,3.38,3.38,0,0,1-.62,2,4.22,4.22,0,0,1-1.77,1.39c1.94,2.88,3.2,4.75,3.78,5.59h-3l-3.07-4.93Zm0-2.21h.88a3.35,3.35,0,0,0,1.91-.43,1.54,1.54,0,0,0,.61-1.35,1.42,1.42,0,0,0-.63-1.31,3.85,3.85,0,0,0-1.94-.38h-.83Z"/><path class="cls-1" d="M137.92,29.42h-2.68V16.58h7.36v2.23h-4.68v3.31h4.36v2.22h-4.36Z"/><path class="cls-1" d="M150.36,24.49v4.93h-2.73V16.58h3.75a6.36,6.36,0,0,1,3.87,1,3.39,3.39,0,0,1,1.26,2.89,3.45,3.45,0,0,1-.62,2,4.22,4.22,0,0,1-1.77,1.39c1.93,2.88,3.19,4.75,3.78,5.59h-3l-3.07-4.93Zm0-2.21h.88a3.35,3.35,0,0,0,1.91-.43,1.54,1.54,0,0,0,.61-1.35,1.42,1.42,0,0,0-.63-1.31,3.9,3.9,0,0,0-1.94-.38h-.83Z"/><path class="cls-1" d="M169.44,29.42H162V16.58h7.4v2.23h-4.68v2.82h4.35v2.23h-4.35v3.31h4.68Z"/><path class="cls-1" d="M182,29.42h-7.4V16.58H182v2.23h-4.68v2.82h4.35v2.23h-4.35v3.31H182Z"/><path class="cls-1" d="M21.3,48.42H18.62V35.58H26v2.23H21.3v3.31h4.36v2.22H21.3Z"/><path class="cls-1" d="M41.48,35.58v8.31a4.87,4.87,0,0,1-.64,2.5A4.2,4.2,0,0,1,39,48a6.59,6.59,0,0,1-2.85.57,5.44,5.44,0,0,1-3.85-1.27,4.52,4.52,0,0,1-1.37-3.48V35.58h2.71v7.86a3.28,3.28,0,0,0,.6,2.18,2.5,2.5,0,0,0,2,.7,2.45,2.45,0,0,0,1.94-.7,3.34,3.34,0,0,0,.6-2.2V35.58Z"/><path class="cls-1" d="M58.54,48.42H55.08L49.49,38.7h-.08c.11,1.72.17,2.95.17,3.68v6H47.14V35.58h3.44l5.58,9.62h.06c-.09-1.67-.13-2.85-.13-3.54V35.58h2.45Z"/><path class="cls-1" d="M75,41.88a6.32,6.32,0,0,1-1.81,4.86,7.37,7.37,0,0,1-5.21,1.68H64.3V35.58h4a6.79,6.79,0,0,1,4.89,1.66A6.09,6.09,0,0,1,75,41.88ZM72.13,42q0-4.14-3.66-4.14H67v8.36h1.17C70.81,46.17,72.13,44.77,72.13,42Z"/><path class="cls-1" d="M82.87,43.49v4.93H80.14V35.58h3.74a6.39,6.39,0,0,1,3.88,1,3.78,3.78,0,0,1,.63,4.91,4.13,4.13,0,0,1-1.76,1.39c1.93,2.88,3.19,4.75,3.78,5.59h-3l-3.06-4.93Zm0-2.21h.87a3.33,3.33,0,0,0,1.91-.43,1.54,1.54,0,0,0,.62-1.35,1.42,1.42,0,0,0-.63-1.31,3.92,3.92,0,0,0-2-.38h-.82Z"/><path class="cls-1" d="M102.41,48.42l-.93-3.05H96.79l-.93,3.05H92.93l4.53-12.9h3.33l4.56,12.9Zm-1.58-5.34-1.46-4.7c-.11-.36-.18-.65-.23-.86-.19.75-.75,2.6-1.66,5.56Z"/><path class="cls-1" d="M109.48,48.42V35.58h2.73V48.42Z"/><path class="cls-1" d="M125.55,44.86a3.31,3.31,0,0,1-1.26,2.74,5.4,5.4,0,0,1-3.48,1,8.26,8.26,0,0,1-3.64-.77V45.3a14.8,14.8,0,0,0,2.2.81,6.45,6.45,0,0,0,1.65.24A2.34,2.34,0,0,0,122.4,46a1.2,1.2,0,0,0,.48-1,1.12,1.12,0,0,0-.22-.67,2.17,2.17,0,0,0-.62-.57,15.81,15.81,0,0,0-1.66-.87,7.79,7.79,0,0,1-1.77-1.06,4.16,4.16,0,0,1-.94-1.19,3.44,3.44,0,0,1-.35-1.58,3.32,3.32,0,0,1,1.16-2.68,4.79,4.79,0,0,1,3.19-1,7.4,7.4,0,0,1,1.91.24,12.77,12.77,0,0,1,1.9.67l-.87,2.11a13.23,13.23,0,0,0-1.7-.58,5.11,5.11,0,0,0-1.33-.17,1.73,1.73,0,0,0-1.18.36A1.17,1.17,0,0,0,120,39a1.19,1.19,0,0,0,.17.63,1.88,1.88,0,0,0,.53.52,19.24,19.24,0,0,0,1.73.9,7,7,0,0,1,2.47,1.72A3.43,3.43,0,0,1,125.55,44.86Z"/><path class="cls-1" d="M130.4,48.42V35.58h2.72V48.42Z"/><path class="cls-1" d="M150.27,48.42h-3.46l-5.59-9.72h-.08c.11,1.72.17,2.95.17,3.68v6h-2.43V35.58h3.43l5.58,9.62H148c-.08-1.67-.13-2.85-.13-3.54V35.58h2.45Z"/><path class="cls-1" d="M160.91,41.21H166v6.66a14.31,14.31,0,0,1-2.33.57,15,15,0,0,1-2.24.16A5.65,5.65,0,0,1,157,46.89,7.11,7.11,0,0,1,155.46,42a6.46,6.46,0,0,1,1.78-4.85,6.74,6.74,0,0,1,4.93-1.74,9.54,9.54,0,0,1,3.82.79l-.91,2.18a6.45,6.45,0,0,0-2.93-.7,3.63,3.63,0,0,0-2.83,1.18,4.68,4.68,0,0,0-1.06,3.2,5.13,5.13,0,0,0,.86,3.19,3,3,0,0,0,2.49,1.1,9.39,9.39,0,0,0,1.73-.17V43.48h-2.43Z"/><path class="cls-1" d="M27.5,58.58a4,4,0,0,1-1.3,3.18,5.56,5.56,0,0,1-3.69,1.09H21.34v4.57H18.62V54.58h4.1a5.47,5.47,0,0,1,3.56,1A3.67,3.67,0,0,1,27.5,58.58Zm-6.16,2h.9a3,3,0,0,0,1.88-.49,1.75,1.75,0,0,0,.62-1.45,1.79,1.79,0,0,0-.52-1.42,2.47,2.47,0,0,0-1.64-.45H21.34Z"/><path class="cls-1" d="M40.31,67.42l-.93-3H34.69l-.93,3H30.82l4.54-12.9h3.33l4.55,12.9Zm-1.59-5.34q-1.29-4.15-1.45-4.7c-.11-.36-.19-.65-.23-.86q-.3,1.13-1.66,5.56Z"/><path class="cls-1" d="M52.84,56.66a2.76,2.76,0,0,0-2.38,1.15A5.35,5.35,0,0,0,49.61,61q0,4.29,3.23,4.29a10.25,10.25,0,0,0,3.28-.67v2.28a9.15,9.15,0,0,1-3.54.66,5.4,5.4,0,0,1-4.29-1.7A7.19,7.19,0,0,1,46.81,61a7.89,7.89,0,0,1,.73-3.51,5.24,5.24,0,0,1,2.09-2.32,6.27,6.27,0,0,1,3.21-.8,8.55,8.55,0,0,1,3.76.91l-.88,2.21a13.86,13.86,0,0,0-1.45-.6A4.31,4.31,0,0,0,52.84,56.66Z"/><path class="cls-1" d="M71.71,67.42h-3.1L65.25,62l-1.16.83v4.58H61.37V54.58h2.72v5.88l1.08-1.52,3.48-4.36h3l-4.48,5.68Z"/><path class="cls-1" d="M94.44,67.42H91L85.38,57.7h-.07c.11,1.72.16,2.95.16,3.68v6H83V54.58h3.43l5.59,9.62h.06C92,62.53,92,61.35,92,60.66V54.58h2.45Z"/><path class="cls-1" d="M111.86,61a7,7,0,0,1-1.59,4.91,6.87,6.87,0,0,1-9.07,0A7.05,7.05,0,0,1,99.62,61a6.91,6.91,0,0,1,1.59-4.9,6,6,0,0,1,4.55-1.69,5.85,5.85,0,0,1,4.53,1.71A7,7,0,0,1,111.86,61Zm-9.38,0a5.43,5.43,0,0,0,.81,3.25,2.89,2.89,0,0,0,2.45,1.09Q109,65.32,109,61t-3.24-4.34a2.91,2.91,0,0,0-2.46,1.09A5.37,5.37,0,0,0,102.48,61Z"/><path class="cls-1" d="M129.55,67.42h-3.1l-1.74-6.75c-.06-.24-.17-.73-.33-1.48s-.24-1.26-.27-1.52c0,.32-.12.82-.26,1.52s-.25,1.2-.32,1.5l-1.74,6.73H118.7l-3.28-12.84h2.68l1.65,7c.28,1.29.49,2.42.62,3.37,0-.34.12-.86.24-1.56s.25-1.24.36-1.63l1.87-7.19h2.57l1.88,7.19c.08.33.18.82.3,1.48s.22,1.23.29,1.71c.05-.46.15-1,.28-1.71s.24-1.24.35-1.66l1.63-7h2.68Z"/><g class="cls-30"><rect class="cls-1" width="300" height="250"/></g></g></g></svg>