<svg xmlns="http://www.w3.org/2000/svg" xmlns:xlink="http://www.w3.org/1999/xlink" viewBox="0 0 320 50"><defs><style>.cls-1,.cls-10,.cls-11,.cls-12,.cls-13,.cls-14,.cls-15,.cls-16,.cls-17,.cls-18,.cls-19,.cls-2,.cls-20,.cls-21,.cls-22,.cls-23,.cls-24,.cls-25,.cls-26,.cls-27,.cls-28,.cls-29,.cls-3,.cls-4,.cls-5,.cls-6,.cls-7,.cls-8,.cls-9{fill:#fff;}.cls-2{clip-path:url(#clip-path);}.cls-3{clip-path:url(#clip-path-2);}.cls-4{clip-path:url(#clip-path-28);}.cls-5{clip-path:url(#clip-path-3);}.cls-6{clip-path:url(#clip-path-4);}.cls-7{clip-path:url(#clip-path-5);}.cls-8{clip-path:url(#clip-path-6);}.cls-9{clip-path:url(#clip-path-7);}.cls-10{clip-path:url(#clip-path-8);}.cls-11{clip-path:url(#clip-path-9);}.cls-12{clip-path:url(#clip-path-10);}.cls-13{clip-path:url(#clip-path-11);}.cls-14{clip-path:url(#clip-path-12);}.cls-15{clip-path:url(#clip-path-13);}.cls-16{clip-path:url(#clip-path-14);}.cls-17{clip-path:url(#clip-path-15);}.cls-18{clip-path:url(#clip-path-16);}.cls-19{clip-path:url(#clip-path-17);}.cls-20{clip-path:url(#clip-path-18);}.cls-21{clip-path:url(#clip-path-19);}.cls-22{clip-path:url(#clip-path-20);}.cls-23{clip-path:url(#clip-path-21);}.cls-24{clip-path:url(#clip-path-22);}.cls-25{clip-path:url(#clip-path-23);}.cls-26{clip-path:url(#clip-path-24);}.cls-27{clip-path:url(#clip-path-25);}.cls-28{clip-path:url(#clip-path-26);}.cls-29{clip-path:url(#clip-path-27);}.cls-30{clip-path:url(#clip-path-29);}</style><clipPath id="clip-path"><path class="cls-1" d="M11.47,14h2.47v3.23a8.08,8.08,0,0,1-1.13.28,7.88,7.88,0,0,1-1.09.07,2.75,2.75,0,0,1-2.15-.82,3.5,3.5,0,0,1-.74-2.38A3.14,3.14,0,0,1,9.69,12a3.29,3.29,0,0,1,2.39-.85,4.55,4.55,0,0,1,1.85.39l-.44,1.05a3.22,3.22,0,0,0-1.42-.34,1.74,1.74,0,0,0-1.37.58,2.24,2.24,0,0,0-.51,1.54,2.53,2.53,0,0,0,.41,1.55,1.43,1.43,0,0,0,1.21.53,4.11,4.11,0,0,0,.84-.08v-1.3H11.47Z"/></clipPath><clipPath id="clip-path-2"><path class="cls-4" d="M82.16,17.46H78.58V11.23h3.58v1.09H79.9v1.36H82v1.08H79.9v1.61h2.26Z"/></clipPath><clipPath id="clip-path-3"><path class="cls-3" d="M88.26,17.46H84.68V11.23h3.58v1.09H86v1.36h2.11v1.08H86v1.61h2.26Z"/></clipPath><clipPath id="clip-path-4"><path class="cls-5" d="M10.4,27.46H9.11V21.23h3.56v1.09H10.4v1.6h2.12V25H10.4Z"/></clipPath><clipPath id="clip-path-5"><path class="cls-6" d="M20.18,21.23v4a2.39,2.39,0,0,1-.31,1.21,2,2,0,0,1-.89.8,3.27,3.27,0,0,1-1.38.27,2.67,2.67,0,0,1-1.87-.61,2.19,2.19,0,0,1-.66-1.69v-4h1.31V25a1.62,1.62,0,0,0,.29,1.06,1.24,1.24,0,0,0,1,.34,1.2,1.2,0,0,0,.94-.34A1.64,1.64,0,0,0,18.86,25V21.23Z"/></clipPath><clipPath id="clip-path-6"><path class="cls-7" d="M28.44,27.46H26.77l-2.71-4.71h0c.05.83.08,1.42.08,1.78v2.93H22.92V21.23h1.67l2.7,4.67h0c0-.81-.06-1.39-.06-1.72V21.23h1.18Z"/></clipPath><clipPath id="clip-path-7"><path class="cls-8" d="M36.4,24.29a3.07,3.07,0,0,1-.88,2.35,3.53,3.53,0,0,1-2.53.82H31.23V21.23h2a3.27,3.27,0,0,1,2.36.81A3,3,0,0,1,36.4,24.29Zm-1.38,0c0-1.34-.59-2-1.77-2h-.7v4.05h.57C34.39,26.37,35,25.69,35,24.32Z"/></clipPath><clipPath id="clip-path-8"><path class="cls-9" d="M40.23,25.07v2.39H38.91V21.23h1.81a3.11,3.11,0,0,1,1.88.47,1.65,1.65,0,0,1,.61,1.4,1.68,1.68,0,0,1-.31,1,2.07,2.07,0,0,1-.85.67c.93,1.4,1.54,2.3,1.83,2.71H42.41l-1.48-2.39Zm0-1.07h.42a1.64,1.64,0,0,0,.93-.21.77.77,0,0,0,.29-.66.7.7,0,0,0-.3-.63,1.92,1.92,0,0,0-1-.18h-.39Z"/></clipPath><clipPath id="clip-path-9"><path class="cls-10" d="M49.69,27.46,49.24,26H47l-.45,1.48H45.1l2.19-6.25h1.62l2.2,6.25Zm-.76-2.59c-.42-1.34-.66-2.1-.71-2.28s-.09-.31-.11-.41c-.1.36-.36,1.26-.81,2.69Z"/></clipPath><clipPath id="clip-path-10"><path class="cls-11" d="M53.12,27.46V21.23h1.32v6.23Z"/></clipPath><clipPath id="clip-path-11"><path class="cls-12" d="M60.9,25.73a1.61,1.61,0,0,1-.61,1.33,2.62,2.62,0,0,1-1.68.48,4,4,0,0,1-1.77-.37V25.94a7.49,7.49,0,0,0,1.07.4,3,3,0,0,0,.8.11,1.11,1.11,0,0,0,.66-.16.57.57,0,0,0,.24-.5.52.52,0,0,0-.11-.32,1,1,0,0,0-.3-.28c-.13-.08-.4-.22-.8-.42a4.13,4.13,0,0,1-.86-.51,2.14,2.14,0,0,1-.46-.58,1.67,1.67,0,0,1-.16-.76,1.61,1.61,0,0,1,.55-1.3A2.32,2.32,0,0,1,59,21.14a3.54,3.54,0,0,1,.93.12,6.76,6.76,0,0,1,.92.32l-.43,1a6.43,6.43,0,0,0-.82-.29,2.87,2.87,0,0,0-.64-.08.81.81,0,0,0-.57.18.55.55,0,0,0-.2.45.53.53,0,0,0,.08.31,1,1,0,0,0,.25.25,8.34,8.34,0,0,0,.84.44,3.3,3.3,0,0,1,1.2.83A1.66,1.66,0,0,1,60.9,25.73Z"/></clipPath><clipPath id="clip-path-12"><path class="cls-2" d="M20.22,17.46H16.64V11.23h3.58v1.09H18v1.36h2.11v1.08H18v1.61h2.26Z"/></clipPath><clipPath id="clip-path-13"><path class="cls-13" d="M63.25,27.46V21.23h1.32v6.23Z"/></clipPath><clipPath id="clip-path-14"><path class="cls-15" d="M72.88,27.46H71.2l-2.71-4.71h0c.06.83.09,1.42.09,1.78v2.93H67.36V21.23H69l2.7,4.67h0c0-.81-.06-1.39-.06-1.72V21.23h1.19Z"/></clipPath><clipPath id="clip-path-15"><path class="cls-16" d="M78,24H80.5v3.23a8.08,8.08,0,0,1-1.13.28,7.88,7.88,0,0,1-1.09.07,2.75,2.75,0,0,1-2.15-.82,3.45,3.45,0,0,1-.74-2.38A3.1,3.1,0,0,1,76.25,22a3.27,3.27,0,0,1,2.39-.85,4.59,4.59,0,0,1,1.85.39l-.44,1a3.26,3.26,0,0,0-1.42-.34,1.73,1.73,0,0,0-1.37.58,2.24,2.24,0,0,0-.51,1.54,2.47,2.47,0,0,0,.41,1.55,1.43,1.43,0,0,0,1.21.53,4.11,4.11,0,0,0,.84-.08v-1.3H78Z"/></clipPath><clipPath id="clip-path-16"><path class="cls-17" d="M13.41,33.18a1.89,1.89,0,0,1-.63,1.53,2.67,2.67,0,0,1-1.79.53h-.56v2.22H9.11V31.23h2a2.7,2.7,0,0,1,1.73.49A1.8,1.8,0,0,1,13.41,33.18Zm-3,1h.43a1.43,1.43,0,0,0,.91-.24,1,1,0,0,0,.05-1.38,1.17,1.17,0,0,0-.79-.22h-.6Z"/></clipPath><clipPath id="clip-path-17"><path class="cls-18" d="M19.61,37.46,19.16,36H16.89l-.45,1.48H15l2.19-6.25h1.62L21,37.46Zm-.77-2.59c-.41-1.34-.65-2.1-.7-2.28s-.09-.31-.11-.41c-.1.36-.36,1.26-.81,2.69Z"/></clipPath><clipPath id="clip-path-18"><path class="cls-19" d="M25.68,32.24a1.34,1.34,0,0,0-1.15.56,2.58,2.58,0,0,0-.41,1.56c0,1.39.52,2.08,1.56,2.08a4.85,4.85,0,0,0,1.59-.32v1.1a4.27,4.27,0,0,1-1.71.32,2.6,2.6,0,0,1-2.08-.82,3.5,3.5,0,0,1-.72-2.37,4,4,0,0,1,.35-1.7,2.64,2.64,0,0,1,1-1.12,3,3,0,0,1,1.55-.39,4.2,4.2,0,0,1,1.82.44l-.42,1.08c-.24-.11-.47-.21-.7-.29A2,2,0,0,0,25.68,32.24Z"/></clipPath><clipPath id="clip-path-19"><path class="cls-20" d="M34.82,37.46h-1.5l-1.63-2.62-.56.4v2.22H29.81V31.23h1.32v2.85l.52-.73,1.69-2.12H34.8L32.63,34Z"/></clipPath><clipPath id="clip-path-20"><path class="cls-21" d="M45.83,37.46H44.15l-2.7-4.71h0c.05.83.08,1.42.08,1.78v2.93H40.31V31.23H42l2.71,4.67h0c0-.81-.07-1.39-.07-1.72V31.23h1.19Z"/></clipPath><clipPath id="clip-path-21"><path class="cls-22" d="M54.27,34.34a3.36,3.36,0,0,1-.77,2.37,3.32,3.32,0,0,1-4.39,0,3.37,3.37,0,0,1-.77-2.38A3.33,3.33,0,0,1,49.11,32a3.36,3.36,0,0,1,4.4,0A3.42,3.42,0,0,1,54.27,34.34Zm-4.54,0a2.63,2.63,0,0,0,.39,1.57,1.39,1.39,0,0,0,1.18.53c1.06,0,1.58-.7,1.58-2.1s-.52-2.11-1.57-2.11a1.42,1.42,0,0,0-1.19.53A2.67,2.67,0,0,0,49.73,34.34Z"/></clipPath><clipPath id="clip-path-22"><path class="cls-14" d="M25.14,17.46H23.82V12.33H22.13v-1.1h4.7v1.1H25.14Z"/></clipPath><clipPath id="clip-path-23"><path class="cls-24" d="M34.44,13.8l1.29-2.57h1.43L35.09,15v2.42H33.78V15.08l-2.06-3.85h1.43Z"/></clipPath><clipPath id="clip-path-24"><path class="cls-25" d="M44.81,14.34A3.36,3.36,0,0,1,44,16.71a3.32,3.32,0,0,1-4.39,0,3.37,3.37,0,0,1-.77-2.38A3.33,3.33,0,0,1,39.65,12a2.87,2.87,0,0,1,2.21-.82,2.84,2.84,0,0,1,2.19.82A3.37,3.37,0,0,1,44.81,14.34Zm-4.54,0a2.63,2.63,0,0,0,.39,1.57,1.41,1.41,0,0,0,1.19.53c1,0,1.58-.7,1.58-2.1s-.53-2.11-1.57-2.11a1.39,1.39,0,0,0-1.19.53A2.59,2.59,0,0,0,40.27,14.34Z"/></clipPath><clipPath id="clip-path-25"><path class="cls-26" d="M52.39,11.23v4a2.39,2.39,0,0,1-.31,1.21,2,2,0,0,1-.89.8,3.27,3.27,0,0,1-1.38.27,2.65,2.65,0,0,1-1.87-.61,2.19,2.19,0,0,1-.66-1.69v-4h1.31V15a1.62,1.62,0,0,0,.29,1.06,1.24,1.24,0,0,0,1,.34,1.21,1.21,0,0,0,.94-.34A1.64,1.64,0,0,0,51.07,15V11.23Z"/></clipPath><clipPath id="clip-path-26"><path class="cls-27" d="M56.45,15.07v2.39H55.13V11.23h1.81a3.07,3.07,0,0,1,1.88.47,1.62,1.62,0,0,1,.61,1.4,1.67,1.67,0,0,1-.3,1,2.1,2.1,0,0,1-.86.67l1.83,2.71H58.64l-1.49-2.39Zm0-1.07h.43a1.62,1.62,0,0,0,.92-.21.75.75,0,0,0,.3-.66.68.68,0,0,0-.31-.63,1.88,1.88,0,0,0-.94-.18h-.4Z"/></clipPath><clipPath id="clip-path-27"><path class="cls-28" d="M66.89,17.46h-1.3V11.23h3.57v1.09H66.89v1.6H69V15H66.89Z"/></clipPath><clipPath id="clip-path-28"><path class="cls-29" d="M72.92,15.07v2.39H71.6V11.23h1.81a3.09,3.09,0,0,1,1.88.47,1.62,1.62,0,0,1,.61,1.4,1.67,1.67,0,0,1-.3,1,2.17,2.17,0,0,1-.86.67l1.83,2.71H75.11l-1.49-2.39Zm0-1.07h.42a1.64,1.64,0,0,0,.93-.21.75.75,0,0,0,.3-.66.7.7,0,0,0-.31-.63,1.9,1.9,0,0,0-.94-.18h-.4Z"/></clipPath><clipPath id="clip-path-29"><path class="cls-23" d="M62.84,37.46h-1.5l-.84-3.27c0-.12-.09-.36-.17-.72s-.11-.61-.12-.74c0,.16-.06.4-.13.74s-.12.58-.16.73l-.84,3.26h-1.5L56,31.23h1.29l.8,3.4c.14.63.24,1.17.3,1.63q0-.24.12-.75c.06-.34.12-.6.17-.79l.91-3.49h1.25l.9,3.49q.06.24.15.72c.06.32.11.59.14.82,0-.22.07-.5.13-.83s.12-.59.17-.8l.8-3.4h1.29Z"/></clipPath></defs><title>text4</title><g id="Layer_2" data-name="Layer 2"><g id="Layer_1-2" data-name="Layer 1"><path class="cls-1" d="M11.47,14h2.47v3.23a8.08,8.08,0,0,1-1.13.28,7.88,7.88,0,0,1-1.09.07,2.75,2.75,0,0,1-2.15-.82,3.5,3.5,0,0,1-.74-2.38A3.14,3.14,0,0,1,9.69,12a3.29,3.29,0,0,1,2.39-.85,4.55,4.55,0,0,1,1.85.39l-.44,1.05a3.22,3.22,0,0,0-1.42-.34,1.74,1.74,0,0,0-1.37.58,2.24,2.24,0,0,0-.51,1.54,2.53,2.53,0,0,0,.41,1.55,1.43,1.43,0,0,0,1.21.53,4.11,4.11,0,0,0,.84-.08v-1.3H11.47Z"/><path class="cls-1" d="M20.22,17.46H16.64V11.23h3.58v1.09H18v1.36h2.11v1.08H18v1.61h2.26Z"/><path class="cls-1" d="M25.14,17.46H23.82V12.33H22.13v-1.1h4.7v1.1H25.14Z"/><path class="cls-1" d="M34.44,13.8l1.29-2.57h1.43L35.09,15v2.42H33.78V15.08l-2.06-3.85h1.43Z"/><path class="cls-1" d="M44.81,14.34A3.36,3.36,0,0,1,44,16.71a3.32,3.32,0,0,1-4.39,0,3.37,3.37,0,0,1-.77-2.38A3.33,3.33,0,0,1,39.65,12a2.87,2.87,0,0,1,2.21-.82,2.84,2.84,0,0,1,2.19.82A3.37,3.37,0,0,1,44.81,14.34Zm-4.54,0a2.63,2.63,0,0,0,.39,1.57,1.41,1.41,0,0,0,1.19.53c1,0,1.58-.7,1.58-2.1s-.53-2.11-1.57-2.11a1.39,1.39,0,0,0-1.19.53A2.59,2.59,0,0,0,40.27,14.34Z"/><path class="cls-1" d="M52.39,11.23v4a2.39,2.39,0,0,1-.31,1.21,2,2,0,0,1-.89.8,3.27,3.27,0,0,1-1.38.27,2.65,2.65,0,0,1-1.87-.61,2.19,2.19,0,0,1-.66-1.69v-4h1.31V15a1.62,1.62,0,0,0,.29,1.06,1.24,1.24,0,0,0,1,.34,1.21,1.21,0,0,0,.94-.34A1.64,1.64,0,0,0,51.07,15V11.23Z"/><path class="cls-1" d="M56.45,15.07v2.39H55.13V11.23h1.81a3.07,3.07,0,0,1,1.88.47,1.62,1.62,0,0,1,.61,1.4,1.67,1.67,0,0,1-.3,1,2.1,2.1,0,0,1-.86.67l1.83,2.71H58.64l-1.49-2.39Zm0-1.07h.43a1.62,1.62,0,0,0,.92-.21.75.75,0,0,0,.3-.66.68.68,0,0,0-.31-.63,1.88,1.88,0,0,0-.94-.18h-.4Z"/><path class="cls-1" d="M66.89,17.46h-1.3V11.23h3.57v1.09H66.89v1.6H69V15H66.89Z"/><path class="cls-1" d="M72.92,15.07v2.39H71.6V11.23h1.81a3.09,3.09,0,0,1,1.88.47,1.62,1.62,0,0,1,.61,1.4,1.67,1.67,0,0,1-.3,1,2.17,2.17,0,0,1-.86.67l1.83,2.71H75.11l-1.49-2.39Zm0-1.07h.42a1.64,1.64,0,0,0,.93-.21.75.75,0,0,0,.3-.66.7.7,0,0,0-.31-.63,1.9,1.9,0,0,0-.94-.18h-.4Z"/><path class="cls-1" d="M82.16,17.46H78.58V11.23h3.58v1.09H79.9v1.36H82v1.08H79.9v1.61h2.26Z"/><path class="cls-1" d="M88.26,17.46H84.68V11.23h3.58v1.09H86v1.36h2.11v1.08H86v1.61h2.26Z"/><path class="cls-1" d="M10.4,27.46H9.11V21.23h3.56v1.09H10.4v1.6h2.12V25H10.4Z"/><path class="cls-1" d="M20.18,21.23v4a2.39,2.39,0,0,1-.31,1.21,2,2,0,0,1-.89.8,3.27,3.27,0,0,1-1.38.27,2.67,2.67,0,0,1-1.87-.61,2.19,2.19,0,0,1-.66-1.69v-4h1.31V25a1.62,1.62,0,0,0,.29,1.06,1.24,1.24,0,0,0,1,.34,1.2,1.2,0,0,0,.94-.34A1.64,1.64,0,0,0,18.86,25V21.23Z"/><path class="cls-1" d="M28.44,27.46H26.77l-2.71-4.71h0c.05.83.08,1.42.08,1.78v2.93H22.92V21.23h1.67l2.7,4.67h0c0-.81-.06-1.39-.06-1.72V21.23h1.18Z"/><path class="cls-1" d="M36.4,24.29a3.07,3.07,0,0,1-.88,2.35,3.53,3.53,0,0,1-2.53.82H31.23V21.23h2a3.27,3.27,0,0,1,2.36.81A3,3,0,0,1,36.4,24.29Zm-1.38,0c0-1.34-.59-2-1.77-2h-.7v4.05h.57C34.39,26.37,35,25.69,35,24.32Z"/><path class="cls-1" d="M40.23,25.07v2.39H38.91V21.23h1.81a3.11,3.11,0,0,1,1.88.47,1.65,1.65,0,0,1,.61,1.4,1.68,1.68,0,0,1-.31,1,2.07,2.07,0,0,1-.85.67c.93,1.4,1.54,2.3,1.83,2.71H42.41l-1.48-2.39Zm0-1.07h.42a1.64,1.64,0,0,0,.93-.21.77.77,0,0,0,.29-.66.7.7,0,0,0-.3-.63,1.92,1.92,0,0,0-1-.18h-.39Z"/><path class="cls-1" d="M49.69,27.46,49.24,26H47l-.45,1.48H45.1l2.19-6.25h1.62l2.2,6.25Zm-.76-2.59c-.42-1.34-.66-2.1-.71-2.28s-.09-.31-.11-.41c-.1.36-.36,1.26-.81,2.69Z"/><path class="cls-1" d="M53.12,27.46V21.23h1.32v6.23Z"/><path class="cls-1" d="M60.9,25.73a1.61,1.61,0,0,1-.61,1.33,2.62,2.62,0,0,1-1.68.48,4,4,0,0,1-1.77-.37V25.94a7.49,7.49,0,0,0,1.07.4,3,3,0,0,0,.8.11,1.11,1.11,0,0,0,.66-.16.57.57,0,0,0,.24-.5.52.52,0,0,0-.11-.32,1,1,0,0,0-.3-.28c-.13-.08-.4-.22-.8-.42a4.13,4.13,0,0,1-.86-.51,2.14,2.14,0,0,1-.46-.58,1.67,1.67,0,0,1-.16-.76,1.61,1.61,0,0,1,.55-1.3A2.32,2.32,0,0,1,59,21.14a3.54,3.54,0,0,1,.93.12,6.76,6.76,0,0,1,.92.32l-.43,1a6.43,6.43,0,0,0-.82-.29,2.87,2.87,0,0,0-.64-.08.81.81,0,0,0-.57.18.55.55,0,0,0-.2.45.53.53,0,0,0,.08.31,1,1,0,0,0,.25.25,8.34,8.34,0,0,0,.84.44,3.3,3.3,0,0,1,1.2.83A1.66,1.66,0,0,1,60.9,25.73Z"/><path class="cls-1" d="M63.25,27.46V21.23h1.32v6.23Z"/><path class="cls-1" d="M72.88,27.46H71.2l-2.71-4.71h0c.06.83.09,1.42.09,1.78v2.93H67.36V21.23H69l2.7,4.67h0c0-.81-.06-1.39-.06-1.72V21.23h1.19Z"/><path class="cls-1" d="M78,24H80.5v3.23a8.08,8.08,0,0,1-1.13.28,7.88,7.88,0,0,1-1.09.07,2.75,2.75,0,0,1-2.15-.82,3.45,3.45,0,0,1-.74-2.38A3.1,3.1,0,0,1,76.25,22a3.27,3.27,0,0,1,2.39-.85,4.59,4.59,0,0,1,1.85.39l-.44,1a3.26,3.26,0,0,0-1.42-.34,1.73,1.73,0,0,0-1.37.58,2.24,2.24,0,0,0-.51,1.54,2.47,2.47,0,0,0,.41,1.55,1.43,1.43,0,0,0,1.21.53,4.11,4.11,0,0,0,.84-.08v-1.3H78Z"/><path class="cls-1" d="M13.41,33.18a1.89,1.89,0,0,1-.63,1.53,2.67,2.67,0,0,1-1.79.53h-.56v2.22H9.11V31.23h2a2.7,2.7,0,0,1,1.73.49A1.8,1.8,0,0,1,13.41,33.18Zm-3,1h.43a1.43,1.43,0,0,0,.91-.24,1,1,0,0,0,.05-1.38,1.17,1.17,0,0,0-.79-.22h-.6Z"/><path class="cls-1" d="M19.61,37.46,19.16,36H16.89l-.45,1.48H15l2.19-6.25h1.62L21,37.46Zm-.77-2.59c-.41-1.34-.65-2.1-.7-2.28s-.09-.31-.11-.41c-.1.36-.36,1.26-.81,2.69Z"/><path class="cls-1" d="M25.68,32.24a1.34,1.34,0,0,0-1.15.56,2.58,2.58,0,0,0-.41,1.56c0,1.39.52,2.08,1.56,2.08a4.85,4.85,0,0,0,1.59-.32v1.1a4.27,4.27,0,0,1-1.71.32,2.6,2.6,0,0,1-2.08-.82,3.5,3.5,0,0,1-.72-2.37,4,4,0,0,1,.35-1.7,2.64,2.64,0,0,1,1-1.12,3,3,0,0,1,1.55-.39,4.2,4.2,0,0,1,1.82.44l-.42,1.08c-.24-.11-.47-.21-.7-.29A2,2,0,0,0,25.68,32.24Z"/><path class="cls-1" d="M34.82,37.46h-1.5l-1.63-2.62-.56.4v2.22H29.81V31.23h1.32v2.85l.52-.73,1.69-2.12H34.8L32.63,34Z"/><path class="cls-1" d="M45.83,37.46H44.15l-2.7-4.71h0c.05.83.08,1.42.08,1.78v2.93H40.31V31.23H42l2.71,4.67h0c0-.81-.07-1.39-.07-1.72V31.23h1.19Z"/><path class="cls-1" d="M54.27,34.34a3.36,3.36,0,0,1-.77,2.37,3.32,3.32,0,0,1-4.39,0,3.37,3.37,0,0,1-.77-2.38A3.33,3.33,0,0,1,49.11,32a3.36,3.36,0,0,1,4.4,0A3.42,3.42,0,0,1,54.27,34.34Zm-4.54,0a2.63,2.63,0,0,0,.39,1.57,1.39,1.39,0,0,0,1.18.53c1.06,0,1.58-.7,1.58-2.1s-.52-2.11-1.57-2.11a1.42,1.42,0,0,0-1.19.53A2.67,2.67,0,0,0,49.73,34.34Z"/><path class="cls-1" d="M62.84,37.46h-1.5l-.84-3.27c0-.12-.09-.36-.17-.72s-.11-.61-.12-.74c0,.16-.06.4-.13.74s-.12.58-.16.73l-.84,3.26h-1.5L56,31.23h1.29l.8,3.4c.14.63.24,1.17.3,1.63q0-.24.12-.75c.06-.34.12-.6.17-.79l.91-3.49h1.25l.9,3.49q.06.24.15.72c.06.32.11.59.14.82,0-.22.07-.5.13-.83s.12-.59.17-.8l.8-3.4h1.29Z"/><g class="cls-30"><rect class="cls-1" width="320" height="50"/></g></g></g></svg>