<svg xmlns="http://www.w3.org/2000/svg" xmlns:xlink="http://www.w3.org/1999/xlink" viewBox="0 0 300 250"><defs><style>.cls-1,.cls-10,.cls-11,.cls-12,.cls-13,.cls-14,.cls-15,.cls-16,.cls-17,.cls-18,.cls-19,.cls-2,.cls-20,.cls-21,.cls-22,.cls-23,.cls-24,.cls-25,.cls-26,.cls-3,.cls-4,.cls-5,.cls-6,.cls-7,.cls-8,.cls-9{fill:#fff;}.cls-2{clip-path:url(#clip-path);}.cls-3{clip-path:url(#clip-path-2);}.cls-4{clip-path:url(#clip-path-25);}.cls-5{clip-path:url(#clip-path-3);}.cls-6{clip-path:url(#clip-path-4);}.cls-7{clip-path:url(#clip-path-5);}.cls-8{clip-path:url(#clip-path-6);}.cls-9{clip-path:url(#clip-path-7);}.cls-10{clip-path:url(#clip-path-8);}.cls-11{clip-path:url(#clip-path-9);}.cls-12{clip-path:url(#clip-path-10);}.cls-13{clip-path:url(#clip-path-11);}.cls-14{clip-path:url(#clip-path-12);}.cls-15{clip-path:url(#clip-path-13);}.cls-16{clip-path:url(#clip-path-14);}.cls-17{clip-path:url(#clip-path-15);}.cls-18{clip-path:url(#clip-path-16);}.cls-19{clip-path:url(#clip-path-17);}.cls-20{clip-path:url(#clip-path-18);}.cls-21{clip-path:url(#clip-path-19);}.cls-22{clip-path:url(#clip-path-20);}.cls-23{clip-path:url(#clip-path-21);}.cls-24{clip-path:url(#clip-path-22);}.cls-25{clip-path:url(#clip-path-23);}.cls-26{clip-path:url(#clip-path-24);}.cls-27{clip-path:url(#clip-path-26);}</style><clipPath id="clip-path"><path class="cls-1" d="M20.06,29.42,17,19.34h-.07c.11,2.05.16,3.42.16,4.11v6H14.62V16.58h3.71l3,9.82h.05l3.23-9.82h3.71V29.42H25.82V23.34c0-.28,0-.62,0-1s.05-1.37.12-3h-.08L22.55,29.42Z"/></clipPath><clipPath id="clip-path-2"><path class="cls-4" d="M176.2,29.42h-7.41V16.58h7.41v2.23h-4.68v2.82h4.35v2.23h-4.35v3.31h4.68Z"/></clipPath><clipPath id="clip-path-3"><path class="cls-3" d="M191.79,29.42h-3.12l-3-4.86-3,4.86h-2.92L184,22.8l-4-6.22h3l2.77,4.62,2.71-4.62h2.94l-4,6.37Z"/></clipPath><clipPath id="clip-path-4"><path class="cls-5" d="M200.88,29.42h-2.73V18.84h-3.48V16.58h9.7v2.26h-3.49Z"/></clipPath><clipPath id="clip-path-5"><path class="cls-6" d="M19.5,41.21h5.09v6.66a14.31,14.31,0,0,1-2.33.57A15,15,0,0,1,20,48.6a5.65,5.65,0,0,1-4.44-1.71A7.11,7.11,0,0,1,14.05,42a6.46,6.46,0,0,1,1.78-4.85,6.74,6.74,0,0,1,4.93-1.74,9.54,9.54,0,0,1,3.82.79l-.91,2.18a6.45,6.45,0,0,0-2.93-.7,3.63,3.63,0,0,0-2.83,1.18A4.68,4.68,0,0,0,16.85,42a5.13,5.13,0,0,0,.86,3.19,3,3,0,0,0,2.49,1.1,9.39,9.39,0,0,0,1.73-.17V43.48H19.5Z"/></clipPath><clipPath id="clip-path-6"><path class="cls-7" d="M37.57,48.42h-7.4V35.58h7.4v2.23H32.9v2.82h4.35v2.23H32.9v3.31h4.67Z"/></clipPath><clipPath id="clip-path-7"><path class="cls-8" d="M47.73,48.42H45V37.84H41.52V35.58h9.7v2.26H47.73Z"/></clipPath><clipPath id="clip-path-8"><path class="cls-9" d="M67.87,48.42H65.15V37.84H61.66V35.58h9.7v2.26H67.87Z"/></clipPath><clipPath id="clip-path-9"><path class="cls-10" d="M87.52,42a7,7,0,0,1-1.58,4.91,6.87,6.87,0,0,1-9.07,0A7,7,0,0,1,75.29,42a6.91,6.91,0,0,1,1.58-4.9,6,6,0,0,1,4.55-1.69A5.84,5.84,0,0,1,86,37.08,7,7,0,0,1,87.52,42Zm-9.38,0A5.35,5.35,0,0,0,79,45.23a2.87,2.87,0,0,0,2.44,1.09c2.18,0,3.26-1.45,3.26-4.34s-1.08-4.34-3.24-4.34A2.9,2.9,0,0,0,79,38.73,5.37,5.37,0,0,0,78.14,42Z"/></clipPath><clipPath id="clip-path-10"><path class="cls-11" d="M97.58,41.21h5.1v6.66a14.83,14.83,0,0,1-2.33.57,15,15,0,0,1-2.24.16,5.65,5.65,0,0,1-4.44-1.71A7.07,7.07,0,0,1,92.13,42a6.46,6.46,0,0,1,1.78-4.85,6.77,6.77,0,0,1,4.94-1.74,9.46,9.46,0,0,1,3.81.79l-.9,2.18a6.48,6.48,0,0,0-2.93-.7A3.61,3.61,0,0,0,96,38.84,4.63,4.63,0,0,0,94.94,42a5.14,5.14,0,0,0,.85,3.19,3,3,0,0,0,2.49,1.1,9.49,9.49,0,0,0,1.74-.17V43.48H97.58Z"/></clipPath><clipPath id="clip-path-11"><path class="cls-12" d="M115.66,48.42h-7.4V35.58h7.4v2.23H111v2.82h4.35v2.23H111v3.31h4.68Z"/></clipPath><clipPath id="clip-path-12"><path class="cls-2" d="M42,29.42,41,26.37H36.36l-.93,3.05H32.49L37,16.52h3.33l4.55,12.9Zm-1.59-5.34q-1.29-4.16-1.45-4.7c-.11-.36-.19-.65-.23-.86-.2.75-.75,2.6-1.67,5.56Z"/></clipPath><clipPath id="clip-path-13"><path class="cls-13" d="M125.82,48.42h-2.73V37.84H119.6V35.58h9.7v2.26h-3.48Z"/></clipPath><clipPath id="clip-path-14"><path class="cls-15" d="M144.33,48.42h-2.71V42.88h-5.09v5.54H133.8V35.58h2.73v5h5.09v-5h2.71Z"/></clipPath><clipPath id="clip-path-15"><path class="cls-16" d="M157.5,48.42h-7.41V35.58h7.41v2.23h-4.68v2.82h4.35v2.23h-4.35v3.31h4.68Z"/></clipPath><clipPath id="clip-path-16"><path class="cls-17" d="M165.42,43.49v4.93H162.7V35.58h3.74a6.39,6.39,0,0,1,3.88,1,3.41,3.41,0,0,1,1.25,2.89,3.45,3.45,0,0,1-.62,2,4.22,4.22,0,0,1-1.77,1.39c1.94,2.88,3.2,4.75,3.78,5.59h-3l-3.07-4.93Zm0-2.21h.88a3.35,3.35,0,0,0,1.91-.43,1.54,1.54,0,0,0,.61-1.35,1.42,1.42,0,0,0-.63-1.31,3.9,3.9,0,0,0-1.94-.38h-.83Z"/></clipPath><clipPath id="clip-path-17"><path class="cls-18" d="M176.51,47.17a1.46,1.46,0,0,1,.4-1.12,1.59,1.59,0,0,1,1.15-.38,1.57,1.57,0,0,1,1.13.39,1.51,1.51,0,0,1,.4,1.11,1.46,1.46,0,0,1-.41,1.09,1.51,1.51,0,0,1-1.12.4,1.59,1.59,0,0,1-1.15-.39A1.46,1.46,0,0,1,176.51,47.17Z"/></clipPath><clipPath id="clip-path-18"><path class="cls-19" d="M184.16,47.17a1.46,1.46,0,0,1,.4-1.12,1.61,1.61,0,0,1,1.15-.38,1.55,1.55,0,0,1,1.13.39,1.51,1.51,0,0,1,.4,1.11,1.46,1.46,0,0,1-.41,1.09,1.51,1.51,0,0,1-1.12.4,1.58,1.58,0,0,1-1.14-.39A1.46,1.46,0,0,1,184.16,47.17Z"/></clipPath><clipPath id="clip-path-19"><path class="cls-14" d="M59.38,29.42H56.29L52.92,24l-1.15.83v4.58H49.05V16.58h2.72v5.88l1.08-1.52,3.48-4.36h3l-4.48,5.68Z"/></clipPath><clipPath id="clip-path-20"><path class="cls-21" d="M70.92,29.42h-7.4V16.58h7.4v2.23H66.25v2.82H70.6v2.23H66.25v3.31h4.67Z"/></clipPath><clipPath id="clip-path-21"><path class="cls-22" d="M87.32,21.87,90,16.58h2.93l-4.26,7.84v5H86V24.51L81.7,16.58h3Z"/></clipPath><clipPath id="clip-path-22"><path class="cls-23" d="M108.73,23a7,7,0,0,1-1.58,4.91,6.87,6.87,0,0,1-9.07,0A7.05,7.05,0,0,1,96.5,23a6.91,6.91,0,0,1,1.59-4.9,5.94,5.94,0,0,1,4.54-1.69,5.86,5.86,0,0,1,4.54,1.71A7,7,0,0,1,108.73,23Zm-9.37,0a5.43,5.43,0,0,0,.81,3.25,2.89,2.89,0,0,0,2.45,1.09q3.25,0,3.26-4.34t-3.25-4.34a2.9,2.9,0,0,0-2.45,1.09A5.37,5.37,0,0,0,99.36,23Z"/></clipPath><clipPath id="clip-path-23"><path class="cls-24" d="M124.38,16.58v8.31a4.87,4.87,0,0,1-.64,2.5A4.2,4.2,0,0,1,121.9,29a6.59,6.59,0,0,1-2.85.57,5.45,5.45,0,0,1-3.85-1.27,4.52,4.52,0,0,1-1.37-3.48V16.58h2.71v7.86a3.28,3.28,0,0,0,.6,2.18,2.5,2.5,0,0,0,2,.7,2.45,2.45,0,0,0,1.94-.7,3.34,3.34,0,0,0,.6-2.2V16.58Z"/></clipPath><clipPath id="clip-path-24"><path class="cls-25" d="M132.77,24.49v4.93H130V16.58h3.75a6.36,6.36,0,0,1,3.87,1,3.39,3.39,0,0,1,1.26,2.89,3.45,3.45,0,0,1-.62,2,4.22,4.22,0,0,1-1.77,1.39c1.93,2.88,3.19,4.75,3.78,5.59h-3l-3.07-4.93Zm0-2.21h.88a3.32,3.32,0,0,0,1.9-.43,1.54,1.54,0,0,0,.62-1.35,1.42,1.42,0,0,0-.63-1.31,3.92,3.92,0,0,0-1.95-.38h-.82Z"/></clipPath><clipPath id="clip-path-25"><path class="cls-26" d="M163,29.42h-3.46L154,19.7h-.08c.11,1.72.17,2.95.17,3.68v6h-2.44V16.58h3.44l5.58,9.62h.06c-.09-1.67-.13-2.85-.13-3.54V16.58H163Z"/></clipPath><clipPath id="clip-path-26"><path class="cls-20" d="M191.82,47.17a1.5,1.5,0,0,1,.39-1.12,1.61,1.61,0,0,1,1.15-.38,1.55,1.55,0,0,1,1.13.39,1.47,1.47,0,0,1,.4,1.11,1.45,1.45,0,0,1-.4,1.09,1.53,1.53,0,0,1-1.13.4,1.58,1.58,0,0,1-1.14-.39A1.46,1.46,0,0,1,191.82,47.17Z"/></clipPath></defs><title>text1</title><g id="Layer_2" data-name="Layer 2"><g id="Layer_1-2" data-name="Layer 1"><path class="cls-1" d="M20.06,29.42,17,19.34h-.07c.11,2.05.16,3.42.16,4.11v6H14.62V16.58h3.71l3,9.82h.05l3.23-9.82h3.71V29.42H25.82V23.34c0-.28,0-.62,0-1s.05-1.37.12-3h-.08L22.55,29.42Z"/><path class="cls-1" d="M42,29.42,41,26.37H36.36l-.93,3.05H32.49L37,16.52h3.33l4.55,12.9Zm-1.59-5.34q-1.29-4.16-1.45-4.7c-.11-.36-.19-.65-.23-.86-.2.75-.75,2.6-1.67,5.56Z"/><path class="cls-1" d="M59.38,29.42H56.29L52.92,24l-1.15.83v4.58H49.05V16.58h2.72v5.88l1.08-1.52,3.48-4.36h3l-4.48,5.68Z"/><path class="cls-1" d="M70.92,29.42h-7.4V16.58h7.4v2.23H66.25v2.82H70.6v2.23H66.25v3.31h4.67Z"/><path class="cls-1" d="M87.32,21.87,90,16.58h2.93l-4.26,7.84v5H86V24.51L81.7,16.58h3Z"/><path class="cls-1" d="M108.73,23a7,7,0,0,1-1.58,4.91,6.87,6.87,0,0,1-9.07,0A7.05,7.05,0,0,1,96.5,23a6.91,6.91,0,0,1,1.59-4.9,5.94,5.94,0,0,1,4.54-1.69,5.86,5.86,0,0,1,4.54,1.71A7,7,0,0,1,108.73,23Zm-9.37,0a5.43,5.43,0,0,0,.81,3.25,2.89,2.89,0,0,0,2.45,1.09q3.25,0,3.26-4.34t-3.25-4.34a2.9,2.9,0,0,0-2.45,1.09A5.37,5.37,0,0,0,99.36,23Z"/><path class="cls-1" d="M124.38,16.58v8.31a4.87,4.87,0,0,1-.64,2.5A4.2,4.2,0,0,1,121.9,29a6.59,6.59,0,0,1-2.85.57,5.45,5.45,0,0,1-3.85-1.27,4.52,4.52,0,0,1-1.37-3.48V16.58h2.71v7.86a3.28,3.28,0,0,0,.6,2.18,2.5,2.5,0,0,0,2,.7,2.45,2.45,0,0,0,1.94-.7,3.34,3.34,0,0,0,.6-2.2V16.58Z"/><path class="cls-1" d="M132.77,24.49v4.93H130V16.58h3.75a6.36,6.36,0,0,1,3.87,1,3.39,3.39,0,0,1,1.26,2.89,3.45,3.45,0,0,1-.62,2,4.22,4.22,0,0,1-1.77,1.39c1.93,2.88,3.19,4.75,3.78,5.59h-3l-3.07-4.93Zm0-2.21h.88a3.32,3.32,0,0,0,1.9-.43,1.54,1.54,0,0,0,.62-1.35,1.42,1.42,0,0,0-.63-1.31,3.92,3.92,0,0,0-1.95-.38h-.82Z"/><path class="cls-1" d="M163,29.42h-3.46L154,19.7h-.08c.11,1.72.17,2.95.17,3.68v6h-2.44V16.58h3.44l5.58,9.62h.06c-.09-1.67-.13-2.85-.13-3.54V16.58H163Z"/><path class="cls-1" d="M176.2,29.42h-7.41V16.58h7.41v2.23h-4.68v2.82h4.35v2.23h-4.35v3.31h4.68Z"/><path class="cls-1" d="M191.79,29.42h-3.12l-3-4.86-3,4.86h-2.92L184,22.8l-4-6.22h3l2.77,4.62,2.71-4.62h2.94l-4,6.37Z"/><path class="cls-1" d="M200.88,29.42h-2.73V18.84h-3.48V16.58h9.7v2.26h-3.49Z"/><path class="cls-1" d="M19.5,41.21h5.09v6.66a14.31,14.31,0,0,1-2.33.57A15,15,0,0,1,20,48.6a5.65,5.65,0,0,1-4.44-1.71A7.11,7.11,0,0,1,14.05,42a6.46,6.46,0,0,1,1.78-4.85,6.74,6.74,0,0,1,4.93-1.74,9.54,9.54,0,0,1,3.82.79l-.91,2.18a6.45,6.45,0,0,0-2.93-.7,3.63,3.63,0,0,0-2.83,1.18A4.68,4.68,0,0,0,16.85,42a5.13,5.13,0,0,0,.86,3.19,3,3,0,0,0,2.49,1.1,9.39,9.39,0,0,0,1.73-.17V43.48H19.5Z"/><path class="cls-1" d="M37.57,48.42h-7.4V35.58h7.4v2.23H32.9v2.82h4.35v2.23H32.9v3.31h4.67Z"/><path class="cls-1" d="M47.73,48.42H45V37.84H41.52V35.58h9.7v2.26H47.73Z"/><path class="cls-1" d="M67.87,48.42H65.15V37.84H61.66V35.58h9.7v2.26H67.87Z"/><path class="cls-1" d="M87.52,42a7,7,0,0,1-1.58,4.91,6.87,6.87,0,0,1-9.07,0A7,7,0,0,1,75.29,42a6.91,6.91,0,0,1,1.58-4.9,6,6,0,0,1,4.55-1.69A5.84,5.84,0,0,1,86,37.08,7,7,0,0,1,87.52,42Zm-9.38,0A5.35,5.35,0,0,0,79,45.23a2.87,2.87,0,0,0,2.44,1.09c2.18,0,3.26-1.45,3.26-4.34s-1.08-4.34-3.24-4.34A2.9,2.9,0,0,0,79,38.73,5.37,5.37,0,0,0,78.14,42Z"/><path class="cls-1" d="M97.58,41.21h5.1v6.66a14.83,14.83,0,0,1-2.33.57,15,15,0,0,1-2.24.16,5.65,5.65,0,0,1-4.44-1.71A7.07,7.07,0,0,1,92.13,42a6.46,6.46,0,0,1,1.78-4.85,6.77,6.77,0,0,1,4.94-1.74,9.46,9.46,0,0,1,3.81.79l-.9,2.18a6.48,6.48,0,0,0-2.93-.7A3.61,3.61,0,0,0,96,38.84,4.63,4.63,0,0,0,94.94,42a5.14,5.14,0,0,0,.85,3.19,3,3,0,0,0,2.49,1.1,9.49,9.49,0,0,0,1.74-.17V43.48H97.58Z"/><path class="cls-1" d="M115.66,48.42h-7.4V35.58h7.4v2.23H111v2.82h4.35v2.23H111v3.31h4.68Z"/><path class="cls-1" d="M125.82,48.42h-2.73V37.84H119.6V35.58h9.7v2.26h-3.48Z"/><path class="cls-1" d="M144.33,48.42h-2.71V42.88h-5.09v5.54H133.8V35.58h2.73v5h5.09v-5h2.71Z"/><path class="cls-1" d="M157.5,48.42h-7.41V35.58h7.41v2.23h-4.68v2.82h4.35v2.23h-4.35v3.31h4.68Z"/><path class="cls-1" d="M165.42,43.49v4.93H162.7V35.58h3.74a6.39,6.39,0,0,1,3.88,1,3.41,3.41,0,0,1,1.25,2.89,3.45,3.45,0,0,1-.62,2,4.22,4.22,0,0,1-1.77,1.39c1.94,2.88,3.2,4.75,3.78,5.59h-3l-3.07-4.93Zm0-2.21h.88a3.35,3.35,0,0,0,1.91-.43,1.54,1.54,0,0,0,.61-1.35,1.42,1.42,0,0,0-.63-1.31,3.9,3.9,0,0,0-1.94-.38h-.83Z"/><path class="cls-1" d="M176.51,47.17a1.46,1.46,0,0,1,.4-1.12,1.59,1.59,0,0,1,1.15-.38,1.57,1.57,0,0,1,1.13.39,1.51,1.51,0,0,1,.4,1.11,1.46,1.46,0,0,1-.41,1.09,1.51,1.51,0,0,1-1.12.4,1.59,1.59,0,0,1-1.15-.39A1.46,1.46,0,0,1,176.51,47.17Z"/><path class="cls-1" d="M184.16,47.17a1.46,1.46,0,0,1,.4-1.12,1.61,1.61,0,0,1,1.15-.38,1.55,1.55,0,0,1,1.13.39,1.51,1.51,0,0,1,.4,1.11,1.46,1.46,0,0,1-.41,1.09,1.51,1.51,0,0,1-1.12.4,1.58,1.58,0,0,1-1.14-.39A1.46,1.46,0,0,1,184.16,47.17Z"/><path class="cls-1" d="M191.82,47.17a1.5,1.5,0,0,1,.39-1.12,1.61,1.61,0,0,1,1.15-.38,1.55,1.55,0,0,1,1.13.39,1.47,1.47,0,0,1,.4,1.11,1.45,1.45,0,0,1-.4,1.09,1.53,1.53,0,0,1-1.13.4,1.58,1.58,0,0,1-1.14-.39A1.46,1.46,0,0,1,191.82,47.17Z"/><g class="cls-27"><rect class="cls-1" width="300" height="250"/></g></g></g></svg>