<svg xmlns="http://www.w3.org/2000/svg" xmlns:xlink="http://www.w3.org/1999/xlink" viewBox="0 0 728 90"><defs><style>.cls-1,.cls-2,.cls-3,.cls-4,.cls-5,.cls-6,.cls-7{fill:#344659;}.cls-2{clip-path:url(#clip-path);}.cls-3{clip-path:url(#clip-path-2);}.cls-4{clip-path:url(#clip-path-3);}.cls-5{clip-path:url(#clip-path-4);}.cls-6{clip-path:url(#clip-path-5);}.cls-7{clip-path:url(#clip-path-6);}.cls-8{clip-path:url(#clip-path-7);}</style><clipPath id="clip-path"><path class="cls-1" d="M650.57,61.61h4.68v.8h-3.86V65h3.82v.8h-3.82V69h3.82v.8h-4.64Z"/></clipPath><clipPath id="clip-path-2"><path class="cls-2" d="M655.84,63.74h.93L658.38,66,660,63.74h.93l-2,2.85,2.31,3.18h-.94l-1.84-2.53-1.83,2.53h-.93l2.29-3.17Z"/></clipPath><clipPath id="clip-path-3"><path class="cls-3" d="M662,63.74h.78v1.11a3.16,3.16,0,0,1,1.06-.95,2.81,2.81,0,0,1,1.33-.32,3,3,0,0,1,2.2.93,3.21,3.21,0,0,1,0,4.49,3,3,0,0,1-3.51.63,3.37,3.37,0,0,1-1.09-.89V72H662Zm3.11.59a2.29,2.29,0,0,0-1.7.71,2.4,2.4,0,0,0-.69,1.75A2.52,2.52,0,0,0,663,68a2.23,2.23,0,0,0,.88.87,2.38,2.38,0,0,0,1.21.32,2.25,2.25,0,0,0,1.18-.32,2.56,2.56,0,0,0,1.2-2.13,2.49,2.49,0,0,0-.32-1.21,2.36,2.36,0,0,0-2.07-1.22Z"/></clipPath><clipPath id="clip-path-4"><path class="cls-4" d="M669.61,61.41h.78v8.36h-.78Z"/></clipPath><clipPath id="clip-path-5"><path class="cls-5" d="M674.86,63.58a3,3,0,0,1,2.31,1,3.23,3.23,0,0,1,0,4.39,3.19,3.19,0,0,1-4.54,0,3.11,3.11,0,0,1-.88-2.21,3.15,3.15,0,0,1,.83-2.17A3,3,0,0,1,674.86,63.58Zm0,.76a2.25,2.25,0,0,0-1.67.72,2.4,2.4,0,0,0-.69,1.73,2.37,2.37,0,0,0,.32,1.22,2.16,2.16,0,0,0,.85.87,2.32,2.32,0,0,0,1.19.31,2.29,2.29,0,0,0,1.18-.31,2.18,2.18,0,0,0,.86-.87,2.47,2.47,0,0,0,.32-1.22,2.37,2.37,0,0,0-.7-1.73A2.24,2.24,0,0,0,674.86,64.34Z"/></clipPath><clipPath id="clip-path-6"><path class="cls-6" d="M679.15,63.74h.79v.88a2.81,2.81,0,0,1,.75-.78,1.5,1.5,0,0,1,.82-.26,1.37,1.37,0,0,1,.69.21l-.4.65a1,1,0,0,0-1.16.22,2,2,0,0,0-.55,1,9.09,9.09,0,0,0-.15,2.08v2h-.79Z"/></clipPath><clipPath id="clip-path-7"><path class="cls-7" d="M687.9,67.77l.65.35a3.53,3.53,0,0,1-.74,1,3.22,3.22,0,0,1-.95.59,3.43,3.43,0,0,1-1.2.2,2.88,2.88,0,0,1-2.31-1,3.27,3.27,0,0,1-.83-2.19,3.23,3.23,0,0,1,.71-2,2.85,2.85,0,0,1,2.39-1.15,3,3,0,0,1,2.46,1.17,3.27,3.27,0,0,1,.67,2.07h-5.43a2.49,2.49,0,0,0,.67,1.72,2.15,2.15,0,0,0,1.61.67,2.66,2.66,0,0,0,1.64-.58A3.78,3.78,0,0,0,687.9,67.77Zm0-1.62a2.66,2.66,0,0,0-.46-1,2.29,2.29,0,0,0-.78-.6,2.45,2.45,0,0,0-1-.22,2.23,2.23,0,0,0-1.53.57,2.59,2.59,0,0,0-.7,1.25Z"/></clipPath></defs><title>explore</title><g id="Layer_2" data-name="Layer 2"><g id="Layer_1-2" data-name="Layer 1"><path class="cls-1" d="M650.57,61.61h4.68v.8h-3.86V65h3.82v.8h-3.82V69h3.82v.8h-4.64Z"/><path class="cls-1" d="M655.84,63.74h.93L658.38,66,660,63.74h.93l-2,2.85,2.31,3.18h-.94l-1.84-2.53-1.83,2.53h-.93l2.29-3.17Z"/><path class="cls-1" d="M662,63.74h.78v1.11a3.16,3.16,0,0,1,1.06-.95,2.81,2.81,0,0,1,1.33-.32,3,3,0,0,1,2.2.93,3.21,3.21,0,0,1,0,4.49,3,3,0,0,1-3.51.63,3.37,3.37,0,0,1-1.09-.89V72H662Zm3.11.59a2.29,2.29,0,0,0-1.7.71,2.4,2.4,0,0,0-.69,1.75A2.52,2.52,0,0,0,663,68a2.23,2.23,0,0,0,.88.87,2.38,2.38,0,0,0,1.21.32,2.25,2.25,0,0,0,1.18-.32,2.56,2.56,0,0,0,1.2-2.13,2.49,2.49,0,0,0-.32-1.21,2.36,2.36,0,0,0-2.07-1.22Z"/><path class="cls-1" d="M669.61,61.41h.78v8.36h-.78Z"/><path class="cls-1" d="M674.86,63.58a3,3,0,0,1,2.31,1,3.23,3.23,0,0,1,0,4.39,3.19,3.19,0,0,1-4.54,0,3.11,3.11,0,0,1-.88-2.21,3.15,3.15,0,0,1,.83-2.17A3,3,0,0,1,674.86,63.58Zm0,.76a2.25,2.25,0,0,0-1.67.72,2.4,2.4,0,0,0-.69,1.73,2.37,2.37,0,0,0,.32,1.22,2.16,2.16,0,0,0,.85.87,2.32,2.32,0,0,0,1.19.31,2.29,2.29,0,0,0,1.18-.31,2.18,2.18,0,0,0,.86-.87,2.47,2.47,0,0,0,.32-1.22,2.37,2.37,0,0,0-.7-1.73A2.24,2.24,0,0,0,674.86,64.34Z"/><path class="cls-1" d="M679.15,63.74h.79v.88a2.81,2.81,0,0,1,.75-.78,1.5,1.5,0,0,1,.82-.26,1.37,1.37,0,0,1,.69.21l-.4.65a1,1,0,0,0-1.16.22,2,2,0,0,0-.55,1,9.09,9.09,0,0,0-.15,2.08v2h-.79Z"/><path class="cls-1" d="M687.9,67.77l.65.35a3.53,3.53,0,0,1-.74,1,3.22,3.22,0,0,1-.95.59,3.43,3.43,0,0,1-1.2.2,2.88,2.88,0,0,1-2.31-1,3.27,3.27,0,0,1-.83-2.19,3.23,3.23,0,0,1,.71-2,2.85,2.85,0,0,1,2.39-1.15,3,3,0,0,1,2.46,1.17,3.27,3.27,0,0,1,.67,2.07h-5.43a2.49,2.49,0,0,0,.67,1.72,2.15,2.15,0,0,0,1.61.67,2.66,2.66,0,0,0,1.64-.58A3.78,3.78,0,0,0,687.9,67.77Zm0-1.62a2.66,2.66,0,0,0-.46-1,2.29,2.29,0,0,0-.78-.6,2.45,2.45,0,0,0-1-.22,2.23,2.23,0,0,0-1.53.57,2.59,2.59,0,0,0-.7,1.25Z"/><g class="cls-8"><rect class="cls-1" width="728" height="90"/></g></g></g></svg>