<svg xmlns="http://www.w3.org/2000/svg" xmlns:xlink="http://www.w3.org/1999/xlink" viewBox="0 0 728 90"><defs><style>.cls-1,.cls-10,.cls-11,.cls-12,.cls-13,.cls-14,.cls-15,.cls-16,.cls-2,.cls-3,.cls-4,.cls-5,.cls-6,.cls-7,.cls-8,.cls-9{fill:#fff;}.cls-2{clip-path:url(#clip-path);}.cls-3{clip-path:url(#clip-path-2);}.cls-4{clip-path:url(#clip-path-15);}.cls-5{clip-path:url(#clip-path-3);}.cls-6{clip-path:url(#clip-path-4);}.cls-7{clip-path:url(#clip-path-5);}.cls-8{clip-path:url(#clip-path-6);}.cls-9{clip-path:url(#clip-path-7);}.cls-10{clip-path:url(#clip-path-8);}.cls-11{clip-path:url(#clip-path-9);}.cls-12{clip-path:url(#clip-path-10);}.cls-13{clip-path:url(#clip-path-11);}.cls-14{clip-path:url(#clip-path-12);}.cls-15{clip-path:url(#clip-path-13);}.cls-16{clip-path:url(#clip-path-14);}.cls-17{clip-path:url(#clip-path-16);}</style><clipPath id="clip-path"><path class="cls-1" d="M553.33,65.91V76h-1.28V74.27a5.57,5.57,0,0,1-1.83,1.49,5,5,0,0,1-2.22.5,4.94,4.94,0,0,1-3.66-1.55,5.23,5.23,0,0,1-1.52-3.78,5.1,5.1,0,0,1,1.53-3.73A5,5,0,0,1,548,65.65a4.67,4.67,0,0,1,2.25.53,5.08,5.08,0,0,1,1.77,1.58V65.91Zm-5.19,1a3.9,3.9,0,0,0-3.46,2,4.1,4.1,0,0,0-.54,2,4.15,4.15,0,0,0,.54,2,4.1,4.1,0,0,0,1.47,1.51,3.88,3.88,0,0,0,2,.54,4.12,4.12,0,0,0,2-.53,3.75,3.75,0,0,0,1.47-1.46,4.18,4.18,0,0,0,.51-2.07A4,4,0,0,0,551,68.08,3.8,3.8,0,0,0,548.14,66.9Z"/></clipPath><clipPath id="clip-path-2"><path class="cls-4" d="M658.49,62V76h-1.28V74.27a5.68,5.68,0,0,1-1.83,1.49,5,5,0,0,1-2.22.5,4.94,4.94,0,0,1-3.66-1.55A5.19,5.19,0,0,1,648,70.93a5.1,5.1,0,0,1,1.53-3.73,5,5,0,0,1,3.68-1.55,4.67,4.67,0,0,1,2.25.53,5.17,5.17,0,0,1,1.77,1.58V62ZM653.3,66.9a3.9,3.9,0,0,0-3.46,2,4.1,4.1,0,0,0-.54,2,4.15,4.15,0,0,0,.54,2,4.1,4.1,0,0,0,1.47,1.51,3.88,3.88,0,0,0,2,.54,4.15,4.15,0,0,0,2-.53,3.75,3.75,0,0,0,1.47-1.46,4.18,4.18,0,0,0,.51-2.07,4,4,0,0,0-1.15-2.92A3.81,3.81,0,0,0,653.3,66.9Z"/></clipPath><clipPath id="clip-path-3"><path class="cls-3" d="M671.51,62V76h-1.28V74.27a5.71,5.71,0,0,1-1.84,1.49,5.12,5.12,0,0,1-5.88-1.05A5.22,5.22,0,0,1,661,70.93a5.1,5.1,0,0,1,1.53-3.73,5,5,0,0,1,3.68-1.55,4.67,4.67,0,0,1,2.25.53,5.17,5.17,0,0,1,1.77,1.58V62Zm-5.19,4.89a4,4,0,0,0-2,.53,4,4,0,0,0-1.46,1.5,4.09,4.09,0,0,0,0,4.08,4,4,0,0,0,1.47,1.51,3.83,3.83,0,0,0,2,.54,4.15,4.15,0,0,0,2-.53,3.79,3.79,0,0,0,1.46-1.46,4.08,4.08,0,0,0,.52-2.07,4,4,0,0,0-1.15-2.92A3.81,3.81,0,0,0,666.32,66.9Z"/></clipPath><clipPath id="clip-path-4"><path class="cls-5" d="M674,65.91h1.32v1.47a4.76,4.76,0,0,1,1.26-1.3,2.41,2.41,0,0,1,1.37-.43,2.35,2.35,0,0,1,1.15.34l-.68,1.09a1.65,1.65,0,0,0-1.94.36,3.42,3.42,0,0,0-.92,1.66,16,16,0,0,0-.24,3.49V76H674Z"/></clipPath><clipPath id="clip-path-5"><path class="cls-6" d="M688.59,72.65l1.09.58a6,6,0,0,1-1.24,1.7,4.72,4.72,0,0,1-1.59,1,5.48,5.48,0,0,1-2,.34A4.83,4.83,0,0,1,681,74.64,5.45,5.45,0,0,1,679.6,71a5.36,5.36,0,0,1,1.18-3.42,4.79,4.79,0,0,1,4-1.91,5,5,0,0,1,4.12,1.95A5.48,5.48,0,0,1,690,71.05h-9.08a4.12,4.12,0,0,0,1.13,2.89,3.57,3.57,0,0,0,2.68,1.12,4.32,4.32,0,0,0,1.5-.27,3.66,3.66,0,0,0,1.24-.71A6,6,0,0,0,688.59,72.65Zm0-2.72a4.49,4.49,0,0,0-.76-1.66,3.56,3.56,0,0,0-1.32-1,4,4,0,0,0-1.71-.38,3.69,3.69,0,0,0-2.56,1,4.29,4.29,0,0,0-1.18,2.08Z"/></clipPath><clipPath id="clip-path-6"><path class="cls-7" d="M697.51,67l-.83.86a3,3,0,0,0-2-1,1.57,1.57,0,0,0-1.09.42,1.29,1.29,0,0,0-.45,1,1.45,1.45,0,0,0,.38.94A5.1,5.1,0,0,0,695,70.26a5.83,5.83,0,0,1,2,1.45,2.6,2.6,0,0,1,.51,1.58,2.87,2.87,0,0,1-.87,2.11,3,3,0,0,1-2.19.86,3.88,3.88,0,0,1-1.67-.38,3.63,3.63,0,0,1-1.31-1l.82-.93A2.83,2.83,0,0,0,694.41,75a1.93,1.93,0,0,0,1.33-.5,1.58,1.58,0,0,0,.55-1.18,1.49,1.49,0,0,0-.37-1,5.78,5.78,0,0,0-1.63-1.07,5.36,5.36,0,0,1-1.86-1.39,2.61,2.61,0,0,1-.49-1.57,2.54,2.54,0,0,1,.78-1.91,2.73,2.73,0,0,1,2-.76A4.1,4.1,0,0,1,697.51,67Z"/></clipPath><clipPath id="clip-path-7"><path class="cls-8" d="M704.89,67l-.84.86a3,3,0,0,0-2-1,1.53,1.53,0,0,0-1.08.42,1.29,1.29,0,0,0-.45,1,1.44,1.44,0,0,0,.37.94,5.37,5.37,0,0,0,1.56,1.07,5.63,5.63,0,0,1,2,1.45,2.6,2.6,0,0,1,.52,1.58A2.88,2.88,0,0,1,704,75.4a3,3,0,0,1-2.18.86,3.88,3.88,0,0,1-1.67-.38,3.47,3.47,0,0,1-1.31-1l.81-.93A2.86,2.86,0,0,0,701.78,75a1.91,1.91,0,0,0,1.33-.5,1.55,1.55,0,0,0,.19-2.18,5.88,5.88,0,0,0-1.64-1.07,5.36,5.36,0,0,1-1.86-1.39,2.61,2.61,0,0,1-.49-1.57,2.51,2.51,0,0,1,.79-1.91,2.71,2.71,0,0,1,2-.76A4.12,4.12,0,0,1,704.89,67Z"/></clipPath><clipPath id="clip-path-8"><path class="cls-2" d="M556.06,62h1.3V76h-1.3Z"/></clipPath><clipPath id="clip-path-9"><path class="cls-10" d="M559.86,62h1.3V76h-1.3Z"/></clipPath><clipPath id="clip-path-10"><path class="cls-11" d="M579.18,65.91V76H577.9V74.27a5.78,5.78,0,0,1-1.83,1.49,5,5,0,0,1-2.23.5,5,5,0,0,1-3.66-1.55,5.22,5.22,0,0,1-1.51-3.78,5.1,5.1,0,0,1,1.53-3.73,5,5,0,0,1,3.68-1.55,4.67,4.67,0,0,1,2.25.53,5.17,5.17,0,0,1,1.77,1.58V65.91Zm-5.19,1a3.9,3.9,0,0,0-3.46,2,4.11,4.11,0,0,0-.55,2,4.16,4.16,0,0,0,.55,2A4,4,0,0,0,572,74.52a3.83,3.83,0,0,0,2,.54,4.15,4.15,0,0,0,2-.53,3.89,3.89,0,0,0,1.47-1.46A4.18,4.18,0,0,0,578,71a4,4,0,0,0-1.15-2.92A3.81,3.81,0,0,0,574,66.9Z"/></clipPath><clipPath id="clip-path-11"><path class="cls-12" d="M583.23,62.16h1.3v3.75h2.06V67h-2.06v9h-1.3V67h-1.77V65.91h1.77Z"/></clipPath><clipPath id="clip-path-12"><path class="cls-13" d="M598.58,65.65a5,5,0,0,1,3.86,1.68,5.41,5.41,0,0,1-.08,7.35,5.34,5.34,0,0,1-7.58,0,5.43,5.43,0,0,1-.08-7.34A5,5,0,0,1,598.58,65.65Zm0,1.27a3.75,3.75,0,0,0-2.78,1.19,4.16,4.16,0,0,0-.63,4.94,3.72,3.72,0,0,0,1.43,1.46,4,4,0,0,0,2,.52,4,4,0,0,0,2-.52A3.79,3.79,0,0,0,602,73.05a4.14,4.14,0,0,0,.53-2,4,4,0,0,0-1.17-2.9A3.77,3.77,0,0,0,598.57,66.92Z"/></clipPath><clipPath id="clip-path-13"><path class="cls-14" d="M606.24,65.91h1.3v1.8a5.41,5.41,0,0,1,1.72-1.55,4.31,4.31,0,0,1,2.06-.51,3.58,3.58,0,0,1,2,.57,3.45,3.45,0,0,1,1.3,1.55,8.18,8.18,0,0,1,.41,3V76h-1.29V71.19a11.41,11.41,0,0,0-.15-2.33,2.55,2.55,0,0,0-.87-1.51,2.58,2.58,0,0,0-1.67-.51,3.23,3.23,0,0,0-2.11.78,3.7,3.7,0,0,0-1.23,1.93,13.86,13.86,0,0,0-.18,2.75V76h-1.3Z"/></clipPath><clipPath id="clip-path-14"><path class="cls-15" d="M626.33,72.65l1.09.58a6,6,0,0,1-1.24,1.7,4.72,4.72,0,0,1-1.59,1,5.48,5.48,0,0,1-2,.34,4.83,4.83,0,0,1-3.86-1.62A5.45,5.45,0,0,1,617.34,71a5.36,5.36,0,0,1,1.18-3.42,4.79,4.79,0,0,1,4-1.91,5,5,0,0,1,4.12,1.95,5.48,5.48,0,0,1,1.11,3.45h-9.08a4.12,4.12,0,0,0,1.13,2.89,3.57,3.57,0,0,0,2.68,1.12,4.32,4.32,0,0,0,1.5-.27,3.66,3.66,0,0,0,1.24-.71A6,6,0,0,0,626.33,72.65Zm0-2.72a4.49,4.49,0,0,0-.76-1.66,3.56,3.56,0,0,0-1.32-1,4,4,0,0,0-1.71-.38,3.69,3.69,0,0,0-2.56,1,4.29,4.29,0,0,0-1.18,2.08Z"/></clipPath><clipPath id="clip-path-15"><path class="cls-16" d="M645.49,65.91V76h-1.28V74.27a5.57,5.57,0,0,1-1.83,1.49,5,5,0,0,1-2.22.5,4.94,4.94,0,0,1-3.66-1.55A5.23,5.23,0,0,1,635,70.93a5.1,5.1,0,0,1,1.53-3.73,5,5,0,0,1,3.69-1.55,4.73,4.73,0,0,1,2.25.53,5.05,5.05,0,0,1,1.76,1.58V65.91Zm-5.19,1a3.9,3.9,0,0,0-3.46,2,4.09,4.09,0,0,0,0,4.08,4,4,0,0,0,1.46,1.51,3.88,3.88,0,0,0,2,.54,4.12,4.12,0,0,0,2-.53,3.75,3.75,0,0,0,1.47-1.46A4.18,4.18,0,0,0,644.3,71a4,4,0,0,0-1.16-2.92A3.8,3.8,0,0,0,640.3,66.9Z"/></clipPath><clipPath id="clip-path-16"><path class="cls-9" d="M708.62,74a1.09,1.09,0,0,1,.8.33,1.11,1.11,0,0,1,.34.82,1.09,1.09,0,0,1-.34.81,1.12,1.12,0,0,1-1.61,0,1.13,1.13,0,0,1-.34-.81,1.15,1.15,0,0,1,.34-.82A1.1,1.1,0,0,1,708.62,74Z"/></clipPath></defs><title>text3</title><g id="Layer_2" data-name="Layer 2"><g id="Layer_1-2" data-name="Layer 1"><path class="cls-1" d="M553.33,65.91V76h-1.28V74.27a5.57,5.57,0,0,1-1.83,1.49,5,5,0,0,1-2.22.5,4.94,4.94,0,0,1-3.66-1.55,5.23,5.23,0,0,1-1.52-3.78,5.1,5.1,0,0,1,1.53-3.73A5,5,0,0,1,548,65.65a4.67,4.67,0,0,1,2.25.53,5.08,5.08,0,0,1,1.77,1.58V65.91Zm-5.19,1a3.9,3.9,0,0,0-3.46,2,4.1,4.1,0,0,0-.54,2,4.15,4.15,0,0,0,.54,2,4.1,4.1,0,0,0,1.47,1.51,3.88,3.88,0,0,0,2,.54,4.12,4.12,0,0,0,2-.53,3.75,3.75,0,0,0,1.47-1.46,4.18,4.18,0,0,0,.51-2.07A4,4,0,0,0,551,68.08,3.8,3.8,0,0,0,548.14,66.9Z"/><path class="cls-1" d="M556.06,62h1.3V76h-1.3Z"/><path class="cls-1" d="M559.86,62h1.3V76h-1.3Z"/><path class="cls-1" d="M579.18,65.91V76H577.9V74.27a5.78,5.78,0,0,1-1.83,1.49,5,5,0,0,1-2.23.5,5,5,0,0,1-3.66-1.55,5.22,5.22,0,0,1-1.51-3.78,5.1,5.1,0,0,1,1.53-3.73,5,5,0,0,1,3.68-1.55,4.67,4.67,0,0,1,2.25.53,5.17,5.17,0,0,1,1.77,1.58V65.91Zm-5.19,1a3.9,3.9,0,0,0-3.46,2,4.11,4.11,0,0,0-.55,2,4.16,4.16,0,0,0,.55,2A4,4,0,0,0,572,74.52a3.83,3.83,0,0,0,2,.54,4.15,4.15,0,0,0,2-.53,3.89,3.89,0,0,0,1.47-1.46A4.18,4.18,0,0,0,578,71a4,4,0,0,0-1.15-2.92A3.81,3.81,0,0,0,574,66.9Z"/><path class="cls-1" d="M583.23,62.16h1.3v3.75h2.06V67h-2.06v9h-1.3V67h-1.77V65.91h1.77Z"/><path class="cls-1" d="M598.58,65.65a5,5,0,0,1,3.86,1.68,5.41,5.41,0,0,1-.08,7.35,5.34,5.34,0,0,1-7.58,0,5.43,5.43,0,0,1-.08-7.34A5,5,0,0,1,598.58,65.65Zm0,1.27a3.75,3.75,0,0,0-2.78,1.19,4.16,4.16,0,0,0-.63,4.94,3.72,3.72,0,0,0,1.43,1.46,4,4,0,0,0,2,.52,4,4,0,0,0,2-.52A3.79,3.79,0,0,0,602,73.05a4.14,4.14,0,0,0,.53-2,4,4,0,0,0-1.17-2.9A3.77,3.77,0,0,0,598.57,66.92Z"/><path class="cls-1" d="M606.24,65.91h1.3v1.8a5.41,5.41,0,0,1,1.72-1.55,4.31,4.31,0,0,1,2.06-.51,3.58,3.58,0,0,1,2,.57,3.45,3.45,0,0,1,1.3,1.55,8.18,8.18,0,0,1,.41,3V76h-1.29V71.19a11.41,11.41,0,0,0-.15-2.33,2.55,2.55,0,0,0-.87-1.51,2.58,2.58,0,0,0-1.67-.51,3.23,3.23,0,0,0-2.11.78,3.7,3.7,0,0,0-1.23,1.93,13.86,13.86,0,0,0-.18,2.75V76h-1.3Z"/><path class="cls-1" d="M626.33,72.65l1.09.58a6,6,0,0,1-1.24,1.7,4.72,4.72,0,0,1-1.59,1,5.48,5.48,0,0,1-2,.34,4.83,4.83,0,0,1-3.86-1.62A5.45,5.45,0,0,1,617.34,71a5.36,5.36,0,0,1,1.18-3.42,4.79,4.79,0,0,1,4-1.91,5,5,0,0,1,4.12,1.95,5.48,5.48,0,0,1,1.11,3.45h-9.08a4.12,4.12,0,0,0,1.13,2.89,3.57,3.57,0,0,0,2.68,1.12,4.32,4.32,0,0,0,1.5-.27,3.66,3.66,0,0,0,1.24-.71A6,6,0,0,0,626.33,72.65Zm0-2.72a4.49,4.49,0,0,0-.76-1.66,3.56,3.56,0,0,0-1.32-1,4,4,0,0,0-1.71-.38,3.69,3.69,0,0,0-2.56,1,4.29,4.29,0,0,0-1.18,2.08Z"/><path class="cls-1" d="M645.49,65.91V76h-1.28V74.27a5.57,5.57,0,0,1-1.83,1.49,5,5,0,0,1-2.22.5,4.94,4.94,0,0,1-3.66-1.55A5.23,5.23,0,0,1,635,70.93a5.1,5.1,0,0,1,1.53-3.73,5,5,0,0,1,3.69-1.55,4.73,4.73,0,0,1,2.25.53,5.05,5.05,0,0,1,1.76,1.58V65.91Zm-5.19,1a3.9,3.9,0,0,0-3.46,2,4.09,4.09,0,0,0,0,4.08,4,4,0,0,0,1.46,1.51,3.88,3.88,0,0,0,2,.54,4.12,4.12,0,0,0,2-.53,3.75,3.75,0,0,0,1.47-1.46A4.18,4.18,0,0,0,644.3,71a4,4,0,0,0-1.16-2.92A3.8,3.8,0,0,0,640.3,66.9Z"/><path class="cls-1" d="M658.49,62V76h-1.28V74.27a5.68,5.68,0,0,1-1.83,1.49,5,5,0,0,1-2.22.5,4.94,4.94,0,0,1-3.66-1.55A5.19,5.19,0,0,1,648,70.93a5.1,5.1,0,0,1,1.53-3.73,5,5,0,0,1,3.68-1.55,4.67,4.67,0,0,1,2.25.53,5.17,5.17,0,0,1,1.77,1.58V62ZM653.3,66.9a3.9,3.9,0,0,0-3.46,2,4.1,4.1,0,0,0-.54,2,4.15,4.15,0,0,0,.54,2,4.1,4.1,0,0,0,1.47,1.51,3.88,3.88,0,0,0,2,.54,4.15,4.15,0,0,0,2-.53,3.75,3.75,0,0,0,1.47-1.46,4.18,4.18,0,0,0,.51-2.07,4,4,0,0,0-1.15-2.92A3.81,3.81,0,0,0,653.3,66.9Z"/><path class="cls-1" d="M671.51,62V76h-1.28V74.27a5.71,5.71,0,0,1-1.84,1.49,5.12,5.12,0,0,1-5.88-1.05A5.22,5.22,0,0,1,661,70.93a5.1,5.1,0,0,1,1.53-3.73,5,5,0,0,1,3.68-1.55,4.67,4.67,0,0,1,2.25.53,5.17,5.17,0,0,1,1.77,1.58V62Zm-5.19,4.89a4,4,0,0,0-2,.53,4,4,0,0,0-1.46,1.5,4.09,4.09,0,0,0,0,4.08,4,4,0,0,0,1.47,1.51,3.83,3.83,0,0,0,2,.54,4.15,4.15,0,0,0,2-.53,3.79,3.79,0,0,0,1.46-1.46,4.08,4.08,0,0,0,.52-2.07,4,4,0,0,0-1.15-2.92A3.81,3.81,0,0,0,666.32,66.9Z"/><path class="cls-1" d="M674,65.91h1.32v1.47a4.76,4.76,0,0,1,1.26-1.3,2.41,2.41,0,0,1,1.37-.43,2.35,2.35,0,0,1,1.15.34l-.68,1.09a1.65,1.65,0,0,0-1.94.36,3.42,3.42,0,0,0-.92,1.66,16,16,0,0,0-.24,3.49V76H674Z"/><path class="cls-1" d="M688.59,72.65l1.09.58a6,6,0,0,1-1.24,1.7,4.72,4.72,0,0,1-1.59,1,5.48,5.48,0,0,1-2,.34A4.83,4.83,0,0,1,681,74.64,5.45,5.45,0,0,1,679.6,71a5.36,5.36,0,0,1,1.18-3.42,4.79,4.79,0,0,1,4-1.91,5,5,0,0,1,4.12,1.95A5.48,5.48,0,0,1,690,71.05h-9.08a4.12,4.12,0,0,0,1.13,2.89,3.57,3.57,0,0,0,2.68,1.12,4.32,4.32,0,0,0,1.5-.27,3.66,3.66,0,0,0,1.24-.71A6,6,0,0,0,688.59,72.65Zm0-2.72a4.49,4.49,0,0,0-.76-1.66,3.56,3.56,0,0,0-1.32-1,4,4,0,0,0-1.71-.38,3.69,3.69,0,0,0-2.56,1,4.29,4.29,0,0,0-1.18,2.08Z"/><path class="cls-1" d="M697.51,67l-.83.86a3,3,0,0,0-2-1,1.57,1.57,0,0,0-1.09.42,1.29,1.29,0,0,0-.45,1,1.45,1.45,0,0,0,.38.94A5.1,5.1,0,0,0,695,70.26a5.83,5.83,0,0,1,2,1.45,2.6,2.6,0,0,1,.51,1.58,2.87,2.87,0,0,1-.87,2.11,3,3,0,0,1-2.19.86,3.88,3.88,0,0,1-1.67-.38,3.63,3.63,0,0,1-1.31-1l.82-.93A2.83,2.83,0,0,0,694.41,75a1.93,1.93,0,0,0,1.33-.5,1.58,1.58,0,0,0,.55-1.18,1.49,1.49,0,0,0-.37-1,5.78,5.78,0,0,0-1.63-1.07,5.36,5.36,0,0,1-1.86-1.39,2.61,2.61,0,0,1-.49-1.57,2.54,2.54,0,0,1,.78-1.91,2.73,2.73,0,0,1,2-.76A4.1,4.1,0,0,1,697.51,67Z"/><path class="cls-1" d="M704.89,67l-.84.86a3,3,0,0,0-2-1,1.53,1.53,0,0,0-1.08.42,1.29,1.29,0,0,0-.45,1,1.44,1.44,0,0,0,.37.94,5.37,5.37,0,0,0,1.56,1.07,5.63,5.63,0,0,1,2,1.45,2.6,2.6,0,0,1,.52,1.58A2.88,2.88,0,0,1,704,75.4a3,3,0,0,1-2.18.86,3.88,3.88,0,0,1-1.67-.38,3.47,3.47,0,0,1-1.31-1l.81-.93A2.86,2.86,0,0,0,701.78,75a1.91,1.91,0,0,0,1.33-.5,1.55,1.55,0,0,0,.19-2.18,5.88,5.88,0,0,0-1.64-1.07,5.36,5.36,0,0,1-1.86-1.39,2.61,2.61,0,0,1-.49-1.57,2.51,2.51,0,0,1,.79-1.91,2.71,2.71,0,0,1,2-.76A4.12,4.12,0,0,1,704.89,67Z"/><path class="cls-1" d="M708.62,74a1.09,1.09,0,0,1,.8.33,1.11,1.11,0,0,1,.34.82,1.09,1.09,0,0,1-.34.81,1.12,1.12,0,0,1-1.61,0,1.13,1.13,0,0,1-.34-.81,1.15,1.15,0,0,1,.34-.82A1.1,1.1,0,0,1,708.62,74Z"/><g class="cls-17"><rect class="cls-1" width="728" height="90"/></g></g></g></svg>