<svg xmlns="http://www.w3.org/2000/svg" xmlns:xlink="http://www.w3.org/1999/xlink" viewBox="0 0 728 90"><defs><style>.cls-1,.cls-10,.cls-11,.cls-12,.cls-13,.cls-14,.cls-15,.cls-16,.cls-17,.cls-18,.cls-19,.cls-2,.cls-20,.cls-21,.cls-22,.cls-23,.cls-24,.cls-25,.cls-26,.cls-27,.cls-28,.cls-29,.cls-3,.cls-4,.cls-5,.cls-6,.cls-7,.cls-8,.cls-9{fill:#fff;}.cls-2{clip-path:url(#clip-path);}.cls-3{clip-path:url(#clip-path-2);}.cls-4{clip-path:url(#clip-path-28);}.cls-5{clip-path:url(#clip-path-3);}.cls-6{clip-path:url(#clip-path-4);}.cls-7{clip-path:url(#clip-path-5);}.cls-8{clip-path:url(#clip-path-6);}.cls-9{clip-path:url(#clip-path-7);}.cls-10{clip-path:url(#clip-path-8);}.cls-11{clip-path:url(#clip-path-9);}.cls-12{clip-path:url(#clip-path-10);}.cls-13{clip-path:url(#clip-path-11);}.cls-14{clip-path:url(#clip-path-12);}.cls-15{clip-path:url(#clip-path-13);}.cls-16{clip-path:url(#clip-path-14);}.cls-17{clip-path:url(#clip-path-15);}.cls-18{clip-path:url(#clip-path-16);}.cls-19{clip-path:url(#clip-path-17);}.cls-20{clip-path:url(#clip-path-18);}.cls-21{clip-path:url(#clip-path-19);}.cls-22{clip-path:url(#clip-path-20);}.cls-23{clip-path:url(#clip-path-21);}.cls-24{clip-path:url(#clip-path-22);}.cls-25{clip-path:url(#clip-path-23);}.cls-26{clip-path:url(#clip-path-24);}.cls-27{clip-path:url(#clip-path-25);}.cls-28{clip-path:url(#clip-path-26);}.cls-29{clip-path:url(#clip-path-27);}.cls-30{clip-path:url(#clip-path-29);}</style><clipPath id="clip-path"><path class="cls-1" d="M591.81,43h1.3v5.7a5.57,5.57,0,0,1,1.74-1.55,4.24,4.24,0,0,1,2-.51,3.63,3.63,0,0,1,2,.57,3.49,3.49,0,0,1,1.29,1.55,8.1,8.1,0,0,1,.42,3V57h-1.3V52.19a12.5,12.5,0,0,0-.14-2.33,2.61,2.61,0,0,0-.88-1.51,2.57,2.57,0,0,0-1.66-.51,3.19,3.19,0,0,0-2.11.78,3.7,3.7,0,0,0-1.23,1.93,12.85,12.85,0,0,0-.19,2.75V57h-1.3Z"/></clipPath><clipPath id="clip-path-2"><path class="cls-4" d="M679,43h1.3V57H679Z"/></clipPath><clipPath id="clip-path-3"><path class="cls-3" d="M682.83,43h1.3V57h-1.3Z"/></clipPath><clipPath id="clip-path-4"><path class="cls-5" d="M696.89,46.91V57h-1.28V55.27a5.78,5.78,0,0,1-1.83,1.49,5,5,0,0,1-2.23.5,5,5,0,0,1-3.66-1.55,5.22,5.22,0,0,1-1.51-3.78,5.1,5.1,0,0,1,1.53-3.73,5,5,0,0,1,3.68-1.55,4.67,4.67,0,0,1,2.25.53,5.17,5.17,0,0,1,1.77,1.58V46.91Zm-5.19,1a4,4,0,0,0-2,.53,3.9,3.9,0,0,0-1.46,1.5,4.1,4.1,0,0,0-.54,2,4.15,4.15,0,0,0,.54,2,4.1,4.1,0,0,0,1.47,1.51,3.85,3.85,0,0,0,2,.54,4.15,4.15,0,0,0,2-.53,3.82,3.82,0,0,0,1.47-1.46,4.18,4.18,0,0,0,.51-2.07,4,4,0,0,0-1.15-2.92A3.81,3.81,0,0,0,691.7,47.9Z"/></clipPath><clipPath id="clip-path-5"><path class="cls-6" d="M704.89,48l-.84.86a3,3,0,0,0-2-1,1.53,1.53,0,0,0-1.08.42,1.29,1.29,0,0,0-.45,1,1.44,1.44,0,0,0,.37.94,5.37,5.37,0,0,0,1.56,1.07,5.63,5.63,0,0,1,2,1.45,2.6,2.6,0,0,1,.52,1.58A2.88,2.88,0,0,1,704,56.4a3,3,0,0,1-2.18.86,3.88,3.88,0,0,1-1.67-.38,3.47,3.47,0,0,1-1.31-1.05l.81-.93A2.86,2.86,0,0,0,701.78,56a1.91,1.91,0,0,0,1.33-.5,1.55,1.55,0,0,0,.19-2.18,5.88,5.88,0,0,0-1.64-1.07,5.36,5.36,0,0,1-1.86-1.39,2.61,2.61,0,0,1-.49-1.57,2.51,2.51,0,0,1,.79-1.91,2.71,2.71,0,0,1,2-.76A4.12,4.12,0,0,1,704.89,48Z"/></clipPath><clipPath id="clip-path-6"><path class="cls-7" d="M557.24,64.63v10.1H556V73a5.75,5.75,0,0,1-1.84,1.5,5.11,5.11,0,0,1-5.88-1.06,5.19,5.19,0,0,1-1.51-3.78,5.13,5.13,0,0,1,1.53-3.73,5,5,0,0,1,3.68-1.55,4.79,4.79,0,0,1,2.25.53A5.1,5.1,0,0,1,556,66.49V64.63Zm-5.19,1a3.91,3.91,0,0,0-2,.54,3.81,3.81,0,0,0-1.45,1.5,4,4,0,0,0-.55,2,4.16,4.16,0,0,0,.55,2,4,4,0,0,0,1.47,1.52,3.83,3.83,0,0,0,2,.54,4.05,4.05,0,0,0,2-.54,3.86,3.86,0,0,0,1.47-1.45,4.18,4.18,0,0,0,.51-2.07,4,4,0,0,0-1.15-2.93A3.85,3.85,0,0,0,552.05,65.62Z"/></clipPath><clipPath id="clip-path-7"><path class="cls-8" d="M560.16,64.63h1.3v1.81a5.41,5.41,0,0,1,1.72-1.55,4.18,4.18,0,0,1,2.06-.52,3.51,3.51,0,0,1,2,.58,3.4,3.4,0,0,1,1.3,1.55,8.39,8.39,0,0,1,.41,3v5.2h-1.29V69.91a11.48,11.48,0,0,0-.15-2.33,2.53,2.53,0,0,0-.87-1.5,2.58,2.58,0,0,0-1.67-.51,3.23,3.23,0,0,0-2.11.78,3.67,3.67,0,0,0-1.23,1.93,13.86,13.86,0,0,0-.18,2.75v3.7h-1.3Z"/></clipPath><clipPath id="clip-path-8"><path class="cls-9" d="M581.82,60.74v14h-1.28V73a5.61,5.61,0,0,1-1.83,1.5,5,5,0,0,1-2.22.5,4.92,4.92,0,0,1-3.66-1.56,5.2,5.2,0,0,1-1.52-3.78,5.13,5.13,0,0,1,1.53-3.73,5,5,0,0,1,3.69-1.55,4.78,4.78,0,0,1,2.24.53,4.93,4.93,0,0,1,1.77,1.59V60.74Zm-5.19,4.88a3.87,3.87,0,0,0-2,.54,3.83,3.83,0,0,0-1.46,1.5,4.07,4.07,0,0,0,0,4.07,4,4,0,0,0,1.46,1.52,3.88,3.88,0,0,0,2,.54,4,4,0,0,0,2-.54,3.73,3.73,0,0,0,1.47-1.45,4.18,4.18,0,0,0,.51-2.07,4,4,0,0,0-1.15-2.93A3.83,3.83,0,0,0,576.63,65.62Z"/></clipPath><clipPath id="clip-path-9"><path class="cls-10" d="M600.08,64.63v10.1H598.8V73a5.71,5.71,0,0,1-1.83,1.5,5,5,0,0,1-2.22.5,4.92,4.92,0,0,1-3.66-1.56,5.39,5.39,0,0,1,0-7.51,5,5,0,0,1,3.68-1.55,4.79,4.79,0,0,1,2.25.53,5.1,5.1,0,0,1,1.77,1.59V64.63Zm-5.19,1a3.87,3.87,0,0,0-2,.54,3.83,3.83,0,0,0-1.46,1.5,4.09,4.09,0,0,0-.54,2,4.15,4.15,0,0,0,.54,2,4.05,4.05,0,0,0,1.47,1.52,3.88,3.88,0,0,0,2,.54,4.05,4.05,0,0,0,2-.54,3.73,3.73,0,0,0,1.47-1.45,4.18,4.18,0,0,0,.51-2.07,4,4,0,0,0-1.15-2.93A3.85,3.85,0,0,0,594.89,65.62Z"/></clipPath><clipPath id="clip-path-10"><path class="cls-11" d="M603,64.63h1.3v1.86a5.1,5.1,0,0,1,1.77-1.59,4.74,4.74,0,0,1,2.23-.53A5,5,0,0,1,612,65.92a5.13,5.13,0,0,1,1.53,3.73A5.19,5.19,0,0,1,612,73.43a5.09,5.09,0,0,1-5.87,1.06,5.61,5.61,0,0,1-1.83-1.5v5.43H603Zm5.2,1a3.83,3.83,0,0,0-2.84,1.18,4,4,0,0,0-1.15,2.93,4.18,4.18,0,0,0,.51,2.07,3.73,3.73,0,0,0,1.47,1.45,4.08,4.08,0,0,0,2,.54,3.82,3.82,0,0,0,2-.54,4,4,0,0,0,1.47-1.52,4.15,4.15,0,0,0,.54-2,4.09,4.09,0,0,0-.54-2,3.77,3.77,0,0,0-1.46-1.5A3.84,3.84,0,0,0,608.22,65.62Z"/></clipPath><clipPath id="clip-path-11"><path class="cls-12" d="M626,64.63v10.1h-1.28V73a5.71,5.71,0,0,1-1.83,1.5,5,5,0,0,1-2.22.5A4.92,4.92,0,0,1,617,73.43a5.39,5.39,0,0,1,0-7.51,5,5,0,0,1,3.68-1.55,4.79,4.79,0,0,1,2.25.53,5.1,5.1,0,0,1,1.77,1.59V64.63Zm-5.19,1a3.87,3.87,0,0,0-2,.54,3.77,3.77,0,0,0-1.46,1.5,4.09,4.09,0,0,0-.54,2,4.15,4.15,0,0,0,.54,2,4.05,4.05,0,0,0,1.47,1.52,3.88,3.88,0,0,0,2,.54,4.05,4.05,0,0,0,2-.54,3.79,3.79,0,0,0,1.47-1.45,4.18,4.18,0,0,0,.51-2.07,4,4,0,0,0-1.15-2.93A3.85,3.85,0,0,0,620.83,65.62Z"/></clipPath><clipPath id="clip-path-12"><path class="cls-2" d="M608.18,46.65A5,5,0,0,1,612,48.33a5.42,5.42,0,0,1-.07,7.35,5.35,5.35,0,0,1-7.59,0,5.43,5.43,0,0,1-.08-7.34A5,5,0,0,1,608.18,46.65Zm0,1.27a3.77,3.77,0,0,0-2.78,1.19,4.2,4.2,0,0,0-.63,4.94,3.72,3.72,0,0,0,1.43,1.46,4,4,0,0,0,4,0,3.72,3.72,0,0,0,1.43-1.46,4.18,4.18,0,0,0-.64-4.94A3.77,3.77,0,0,0,608.17,47.92Z"/></clipPath><clipPath id="clip-path-13"><path class="cls-13" d="M628.45,64.63h1.33v1.48A4.64,4.64,0,0,1,631,64.8a2.54,2.54,0,0,1,1.37-.43,2.37,2.37,0,0,1,1.15.35l-.67,1.09a1.81,1.81,0,0,0-.69-.18,1.86,1.86,0,0,0-1.25.54,3.3,3.3,0,0,0-.92,1.65,16,16,0,0,0-.24,3.49v3.42h-1.33Z"/></clipPath><clipPath id="clip-path-14"><path class="cls-15" d="M635.79,60.88h1.3v3.75h2.06v1.13h-2.06v9h-1.3v-9H634V64.63h1.77Z"/></clipPath><clipPath id="clip-path-15"><path class="cls-16" d="M641.09,64.63h1.29v1.75a4.92,4.92,0,0,1,1.4-1.41,3.88,3.88,0,0,1,2.07-.6,3.46,3.46,0,0,1,1.39.29,3,3,0,0,1,1.08.77,4,4,0,0,1,.72,1.36,4.92,4.92,0,0,1,1.62-1.8,3.87,3.87,0,0,1,2.1-.62,3.28,3.28,0,0,1,1.84.53,3.13,3.13,0,0,1,1.19,1.48,7.82,7.82,0,0,1,.39,2.84v5.51h-1.33V69.22a7.08,7.08,0,0,0-.23-2.24,1.92,1.92,0,0,0-.79-1,2.34,2.34,0,0,0-1.33-.38,2.93,2.93,0,0,0-1.73.56,3.2,3.2,0,0,0-1.14,1.49,9.36,9.36,0,0,0-.36,3.09v4H648V69.56a8.84,8.84,0,0,0-.23-2.48,2,2,0,0,0-.79-1,2.34,2.34,0,0,0-1.35-.4,2.91,2.91,0,0,0-1.68.55,3.23,3.23,0,0,0-1.16,1.46,7.86,7.86,0,0,0-.38,2.81v4.28h-1.29Z"/></clipPath><clipPath id="clip-path-16"><path class="cls-17" d="M667.42,71.38l1.09.57a5.9,5.9,0,0,1-1.24,1.71,5.17,5.17,0,0,1-1.59,1,5.7,5.7,0,0,1-2,.34,4.81,4.81,0,0,1-3.86-1.62,5.56,5.56,0,0,1-.22-7.09,4.85,4.85,0,0,1,4-1.91,5,5,0,0,1,4.12,2,5.44,5.44,0,0,1,1.11,3.45h-9.08a4.17,4.17,0,0,0,1.12,2.89,3.59,3.59,0,0,0,2.69,1.12,4.32,4.32,0,0,0,1.5-.27,3.84,3.84,0,0,0,1.24-.71A6.22,6.22,0,0,0,667.42,71.38Zm0-2.72a4.41,4.41,0,0,0-.76-1.66,3.45,3.45,0,0,0-1.32-1,3.9,3.9,0,0,0-1.72-.38,3.67,3.67,0,0,0-2.55.95,4.38,4.38,0,0,0-1.18,2.09Z"/></clipPath><clipPath id="clip-path-17"><path class="cls-18" d="M671.27,64.63h1.29v1.81a5.43,5.43,0,0,1,1.73-1.55,4.18,4.18,0,0,1,2.06-.52,3.56,3.56,0,0,1,2,.58,3.44,3.44,0,0,1,1.29,1.55,8.14,8.14,0,0,1,.42,3v5.2h-1.3V69.91a12.58,12.58,0,0,0-.14-2.33,2.53,2.53,0,0,0-.87-1.5,2.6,2.6,0,0,0-1.67-.51,3.19,3.19,0,0,0-2.11.78,3.67,3.67,0,0,0-1.23,1.93,12.92,12.92,0,0,0-.19,2.75v3.7h-1.29Z"/></clipPath><clipPath id="clip-path-18"><path class="cls-19" d="M684,60.88h1.3v3.75h2.06v1.13h-2.06v9H684v-9h-1.77V64.63H684Z"/></clipPath><clipPath id="clip-path-19"><path class="cls-20" d="M694.37,65.74l-.84.86a3,3,0,0,0-2-1,1.53,1.53,0,0,0-1.08.42,1.27,1.27,0,0,0-.45,1,1.44,1.44,0,0,0,.37.94A5.2,5.2,0,0,0,691.89,69a5.76,5.76,0,0,1,2,1.45,2.59,2.59,0,0,1,.52,1.59,2.84,2.84,0,0,1-.88,2.1,3,3,0,0,1-2.18.87,3.88,3.88,0,0,1-1.67-.38,3.67,3.67,0,0,1-1.31-1l.81-.93a2.85,2.85,0,0,0,2.11,1.12,1.87,1.87,0,0,0,1.33-.5,1.53,1.53,0,0,0,.55-1.18,1.51,1.51,0,0,0-.36-1A6.08,6.08,0,0,0,691.14,70a5.24,5.24,0,0,1-1.86-1.39,2.59,2.59,0,0,1-.49-1.57,2.54,2.54,0,0,1,.79-1.91,2.75,2.75,0,0,1,2-.76A4.14,4.14,0,0,1,694.37,65.74Z"/></clipPath><clipPath id="clip-path-20"><path class="cls-21" d="M698.1,72.69a1.09,1.09,0,0,1,.8.33,1.12,1.12,0,0,1,.34.82,1.14,1.14,0,0,1-.34.81,1.12,1.12,0,0,1-1.61,0,1.14,1.14,0,0,1-.34-.81,1.12,1.12,0,0,1,.34-.82A1.1,1.1,0,0,1,698.1,72.69Z"/></clipPath><clipPath id="clip-path-21"><path class="cls-22" d="M703.36,72.69a1.09,1.09,0,0,1,.8.33,1.12,1.12,0,0,1,.34.82,1.14,1.14,0,0,1-.34.81,1.12,1.12,0,0,1-1.61,0,1.14,1.14,0,0,1-.34-.81,1.12,1.12,0,0,1,.34-.82A1.1,1.1,0,0,1,703.36,72.69Z"/></clipPath><clipPath id="clip-path-22"><path class="cls-14" d="M615.65,43H617V57h-1.3Z"/></clipPath><clipPath id="clip-path-23"><path class="cls-24" d="M620.1,42.75a1.09,1.09,0,1,1-.75.32A1,1,0,0,1,620.1,42.75Zm-.65,4.16h1.3V57h-1.3Z"/></clipPath><clipPath id="clip-path-24"><path class="cls-25" d="M633.53,43V57h-1.29V55.27a5.57,5.57,0,0,1-1.83,1.49,5,5,0,0,1-2.22.5,4.94,4.94,0,0,1-3.66-1.55A5.23,5.23,0,0,1,623,51.93a5.1,5.1,0,0,1,1.53-3.73,5,5,0,0,1,3.69-1.55,4.67,4.67,0,0,1,2.25.53,5.05,5.05,0,0,1,1.76,1.58V43Zm-5.2,4.89a3.9,3.9,0,0,0-3.46,2,4.09,4.09,0,0,0,0,4.08,4,4,0,0,0,1.47,1.51,3.82,3.82,0,0,0,2,.54,4.16,4.16,0,0,0,2-.53,3.79,3.79,0,0,0,1.46-1.46,4.08,4.08,0,0,0,.52-2.07,4,4,0,0,0-1.16-2.92A3.78,3.78,0,0,0,628.33,47.9Z"/></clipPath><clipPath id="clip-path-25"><path class="cls-26" d="M646.52,46.91V57h-1.28V55.27a5.57,5.57,0,0,1-1.83,1.49,5,5,0,0,1-2.22.5,4.94,4.94,0,0,1-3.66-1.55A5.23,5.23,0,0,1,636,51.93a5.1,5.1,0,0,1,1.53-3.73,5,5,0,0,1,3.68-1.55,4.67,4.67,0,0,1,2.25.53,5.08,5.08,0,0,1,1.77,1.58V46.91Zm-5.19,1a3.9,3.9,0,0,0-3.46,2,4.09,4.09,0,0,0,0,4.08,4,4,0,0,0,1.46,1.51,3.88,3.88,0,0,0,2,.54,4.12,4.12,0,0,0,2-.53,3.75,3.75,0,0,0,1.47-1.46,4.18,4.18,0,0,0,.52-2.07,4,4,0,0,0-1.16-2.92A3.8,3.8,0,0,0,641.33,47.9Z"/></clipPath><clipPath id="clip-path-26"><path class="cls-27" d="M648.36,46.91h1.37l3.47,7.77,3.37-7.77H658l-6,13.78h-1.37l1.94-4.45Z"/></clipPath><clipPath id="clip-path-27"><path class="cls-28" d="M663.94,46.91h1.38l3.39,7.35,3.34-7.35h1.4L668.83,57h-.25Z"/></clipPath><clipPath id="clip-path-28"><path class="cls-29" d="M675.87,42.75a1.08,1.08,0,0,1,1.07,1.08,1.06,1.06,0,1,1-1.07-1.08Zm-.64,4.16h1.3V57h-1.3Z"/></clipPath><clipPath id="clip-path-29"><path class="cls-23" d="M708.62,72.69a1.09,1.09,0,0,1,.8.33,1.08,1.08,0,0,1,.34.82,1.14,1.14,0,0,1-2,.81,1.14,1.14,0,0,1-.34-.81,1.12,1.12,0,0,1,.34-.82A1.1,1.1,0,0,1,708.62,72.69Z"/></clipPath></defs><title>text2</title><g id="Layer_2" data-name="Layer 2"><g id="Layer_1-2" data-name="Layer 1"><path class="cls-1" d="M591.81,43h1.3v5.7a5.57,5.57,0,0,1,1.74-1.55,4.24,4.24,0,0,1,2-.51,3.63,3.63,0,0,1,2,.57,3.49,3.49,0,0,1,1.29,1.55,8.1,8.1,0,0,1,.42,3V57h-1.3V52.19a12.5,12.5,0,0,0-.14-2.33,2.61,2.61,0,0,0-.88-1.51,2.57,2.57,0,0,0-1.66-.51,3.19,3.19,0,0,0-2.11.78,3.7,3.7,0,0,0-1.23,1.93,12.85,12.85,0,0,0-.19,2.75V57h-1.3Z"/><path class="cls-1" d="M608.18,46.65A5,5,0,0,1,612,48.33a5.42,5.42,0,0,1-.07,7.35,5.35,5.35,0,0,1-7.59,0,5.43,5.43,0,0,1-.08-7.34A5,5,0,0,1,608.18,46.65Zm0,1.27a3.77,3.77,0,0,0-2.78,1.19,4.2,4.2,0,0,0-.63,4.94,3.72,3.72,0,0,0,1.43,1.46,4,4,0,0,0,4,0,3.72,3.72,0,0,0,1.43-1.46,4.18,4.18,0,0,0-.64-4.94A3.77,3.77,0,0,0,608.17,47.92Z"/><path class="cls-1" d="M615.65,43H617V57h-1.3Z"/><path class="cls-1" d="M620.1,42.75a1.09,1.09,0,1,1-.75.32A1,1,0,0,1,620.1,42.75Zm-.65,4.16h1.3V57h-1.3Z"/><path class="cls-1" d="M633.53,43V57h-1.29V55.27a5.57,5.57,0,0,1-1.83,1.49,5,5,0,0,1-2.22.5,4.94,4.94,0,0,1-3.66-1.55A5.23,5.23,0,0,1,623,51.93a5.1,5.1,0,0,1,1.53-3.73,5,5,0,0,1,3.69-1.55,4.67,4.67,0,0,1,2.25.53,5.05,5.05,0,0,1,1.76,1.58V43Zm-5.2,4.89a3.9,3.9,0,0,0-3.46,2,4.09,4.09,0,0,0,0,4.08,4,4,0,0,0,1.47,1.51,3.82,3.82,0,0,0,2,.54,4.16,4.16,0,0,0,2-.53,3.79,3.79,0,0,0,1.46-1.46,4.08,4.08,0,0,0,.52-2.07,4,4,0,0,0-1.16-2.92A3.78,3.78,0,0,0,628.33,47.9Z"/><path class="cls-1" d="M646.52,46.91V57h-1.28V55.27a5.57,5.57,0,0,1-1.83,1.49,5,5,0,0,1-2.22.5,4.94,4.94,0,0,1-3.66-1.55A5.23,5.23,0,0,1,636,51.93a5.1,5.1,0,0,1,1.53-3.73,5,5,0,0,1,3.68-1.55,4.67,4.67,0,0,1,2.25.53,5.08,5.08,0,0,1,1.77,1.58V46.91Zm-5.19,1a3.9,3.9,0,0,0-3.46,2,4.09,4.09,0,0,0,0,4.08,4,4,0,0,0,1.46,1.51,3.88,3.88,0,0,0,2,.54,4.12,4.12,0,0,0,2-.53,3.75,3.75,0,0,0,1.47-1.46,4.18,4.18,0,0,0,.52-2.07,4,4,0,0,0-1.16-2.92A3.8,3.8,0,0,0,641.33,47.9Z"/><path class="cls-1" d="M648.36,46.91h1.37l3.47,7.77,3.37-7.77H658l-6,13.78h-1.37l1.94-4.45Z"/><path class="cls-1" d="M663.94,46.91h1.38l3.39,7.35,3.34-7.35h1.4L668.83,57h-.25Z"/><path class="cls-1" d="M675.87,42.75a1.08,1.08,0,0,1,1.07,1.08,1.06,1.06,0,1,1-1.07-1.08Zm-.64,4.16h1.3V57h-1.3Z"/><path class="cls-1" d="M679,43h1.3V57H679Z"/><path class="cls-1" d="M682.83,43h1.3V57h-1.3Z"/><path class="cls-1" d="M696.89,46.91V57h-1.28V55.27a5.78,5.78,0,0,1-1.83,1.49,5,5,0,0,1-2.23.5,5,5,0,0,1-3.66-1.55,5.22,5.22,0,0,1-1.51-3.78,5.1,5.1,0,0,1,1.53-3.73,5,5,0,0,1,3.68-1.55,4.67,4.67,0,0,1,2.25.53,5.17,5.17,0,0,1,1.77,1.58V46.91Zm-5.19,1a4,4,0,0,0-2,.53,3.9,3.9,0,0,0-1.46,1.5,4.1,4.1,0,0,0-.54,2,4.15,4.15,0,0,0,.54,2,4.1,4.1,0,0,0,1.47,1.51,3.85,3.85,0,0,0,2,.54,4.15,4.15,0,0,0,2-.53,3.82,3.82,0,0,0,1.47-1.46,4.18,4.18,0,0,0,.51-2.07,4,4,0,0,0-1.15-2.92A3.81,3.81,0,0,0,691.7,47.9Z"/><path class="cls-1" d="M704.89,48l-.84.86a3,3,0,0,0-2-1,1.53,1.53,0,0,0-1.08.42,1.29,1.29,0,0,0-.45,1,1.44,1.44,0,0,0,.37.94,5.37,5.37,0,0,0,1.56,1.07,5.63,5.63,0,0,1,2,1.45,2.6,2.6,0,0,1,.52,1.58A2.88,2.88,0,0,1,704,56.4a3,3,0,0,1-2.18.86,3.88,3.88,0,0,1-1.67-.38,3.47,3.47,0,0,1-1.31-1.05l.81-.93A2.86,2.86,0,0,0,701.78,56a1.91,1.91,0,0,0,1.33-.5,1.55,1.55,0,0,0,.19-2.18,5.88,5.88,0,0,0-1.64-1.07,5.36,5.36,0,0,1-1.86-1.39,2.61,2.61,0,0,1-.49-1.57,2.51,2.51,0,0,1,.79-1.91,2.71,2.71,0,0,1,2-.76A4.12,4.12,0,0,1,704.89,48Z"/><path class="cls-1" d="M557.24,64.63v10.1H556V73a5.75,5.75,0,0,1-1.84,1.5,5.11,5.11,0,0,1-5.88-1.06,5.19,5.19,0,0,1-1.51-3.78,5.13,5.13,0,0,1,1.53-3.73,5,5,0,0,1,3.68-1.55,4.79,4.79,0,0,1,2.25.53A5.1,5.1,0,0,1,556,66.49V64.63Zm-5.19,1a3.91,3.91,0,0,0-2,.54,3.81,3.81,0,0,0-1.45,1.5,4,4,0,0,0-.55,2,4.16,4.16,0,0,0,.55,2,4,4,0,0,0,1.47,1.52,3.83,3.83,0,0,0,2,.54,4.05,4.05,0,0,0,2-.54,3.86,3.86,0,0,0,1.47-1.45,4.18,4.18,0,0,0,.51-2.07,4,4,0,0,0-1.15-2.93A3.85,3.85,0,0,0,552.05,65.62Z"/><path class="cls-1" d="M560.16,64.63h1.3v1.81a5.41,5.41,0,0,1,1.72-1.55,4.18,4.18,0,0,1,2.06-.52,3.51,3.51,0,0,1,2,.58,3.4,3.4,0,0,1,1.3,1.55,8.39,8.39,0,0,1,.41,3v5.2h-1.29V69.91a11.48,11.48,0,0,0-.15-2.33,2.53,2.53,0,0,0-.87-1.5,2.58,2.58,0,0,0-1.67-.51,3.23,3.23,0,0,0-2.11.78,3.67,3.67,0,0,0-1.23,1.93,13.86,13.86,0,0,0-.18,2.75v3.7h-1.3Z"/><path class="cls-1" d="M581.82,60.74v14h-1.28V73a5.61,5.61,0,0,1-1.83,1.5,5,5,0,0,1-2.22.5,4.92,4.92,0,0,1-3.66-1.56,5.2,5.2,0,0,1-1.52-3.78,5.13,5.13,0,0,1,1.53-3.73,5,5,0,0,1,3.69-1.55,4.78,4.78,0,0,1,2.24.53,4.93,4.93,0,0,1,1.77,1.59V60.74Zm-5.19,4.88a3.87,3.87,0,0,0-2,.54,3.83,3.83,0,0,0-1.46,1.5,4.07,4.07,0,0,0,0,4.07,4,4,0,0,0,1.46,1.52,3.88,3.88,0,0,0,2,.54,4,4,0,0,0,2-.54,3.73,3.73,0,0,0,1.47-1.45,4.18,4.18,0,0,0,.51-2.07,4,4,0,0,0-1.15-2.93A3.83,3.83,0,0,0,576.63,65.62Z"/><path class="cls-1" d="M600.08,64.63v10.1H598.8V73a5.71,5.71,0,0,1-1.83,1.5,5,5,0,0,1-2.22.5,4.92,4.92,0,0,1-3.66-1.56,5.39,5.39,0,0,1,0-7.51,5,5,0,0,1,3.68-1.55,4.79,4.79,0,0,1,2.25.53,5.1,5.1,0,0,1,1.77,1.59V64.63Zm-5.19,1a3.87,3.87,0,0,0-2,.54,3.83,3.83,0,0,0-1.46,1.5,4.09,4.09,0,0,0-.54,2,4.15,4.15,0,0,0,.54,2,4.05,4.05,0,0,0,1.47,1.52,3.88,3.88,0,0,0,2,.54,4.05,4.05,0,0,0,2-.54,3.73,3.73,0,0,0,1.47-1.45,4.18,4.18,0,0,0,.51-2.07,4,4,0,0,0-1.15-2.93A3.85,3.85,0,0,0,594.89,65.62Z"/><path class="cls-1" d="M603,64.63h1.3v1.86a5.1,5.1,0,0,1,1.77-1.59,4.74,4.74,0,0,1,2.23-.53A5,5,0,0,1,612,65.92a5.13,5.13,0,0,1,1.53,3.73A5.19,5.19,0,0,1,612,73.43a5.09,5.09,0,0,1-5.87,1.06,5.61,5.61,0,0,1-1.83-1.5v5.43H603Zm5.2,1a3.83,3.83,0,0,0-2.84,1.18,4,4,0,0,0-1.15,2.93,4.18,4.18,0,0,0,.51,2.07,3.73,3.73,0,0,0,1.47,1.45,4.08,4.08,0,0,0,2,.54,3.82,3.82,0,0,0,2-.54,4,4,0,0,0,1.47-1.52,4.15,4.15,0,0,0,.54-2,4.09,4.09,0,0,0-.54-2,3.77,3.77,0,0,0-1.46-1.5A3.84,3.84,0,0,0,608.22,65.62Z"/><path class="cls-1" d="M626,64.63v10.1h-1.28V73a5.71,5.71,0,0,1-1.83,1.5,5,5,0,0,1-2.22.5A4.92,4.92,0,0,1,617,73.43a5.39,5.39,0,0,1,0-7.51,5,5,0,0,1,3.68-1.55,4.79,4.79,0,0,1,2.25.53,5.1,5.1,0,0,1,1.77,1.59V64.63Zm-5.19,1a3.87,3.87,0,0,0-2,.54,3.77,3.77,0,0,0-1.46,1.5,4.09,4.09,0,0,0-.54,2,4.15,4.15,0,0,0,.54,2,4.05,4.05,0,0,0,1.47,1.52,3.88,3.88,0,0,0,2,.54,4.05,4.05,0,0,0,2-.54,3.79,3.79,0,0,0,1.47-1.45,4.18,4.18,0,0,0,.51-2.07,4,4,0,0,0-1.15-2.93A3.85,3.85,0,0,0,620.83,65.62Z"/><path class="cls-1" d="M628.45,64.63h1.33v1.48A4.64,4.64,0,0,1,631,64.8a2.54,2.54,0,0,1,1.37-.43,2.37,2.37,0,0,1,1.15.35l-.67,1.09a1.81,1.81,0,0,0-.69-.18,1.86,1.86,0,0,0-1.25.54,3.3,3.3,0,0,0-.92,1.65,16,16,0,0,0-.24,3.49v3.42h-1.33Z"/><path class="cls-1" d="M635.79,60.88h1.3v3.75h2.06v1.13h-2.06v9h-1.3v-9H634V64.63h1.77Z"/><path class="cls-1" d="M641.09,64.63h1.29v1.75a4.92,4.92,0,0,1,1.4-1.41,3.88,3.88,0,0,1,2.07-.6,3.46,3.46,0,0,1,1.39.29,3,3,0,0,1,1.08.77,4,4,0,0,1,.72,1.36,4.92,4.92,0,0,1,1.62-1.8,3.87,3.87,0,0,1,2.1-.62,3.28,3.28,0,0,1,1.84.53,3.13,3.13,0,0,1,1.19,1.48,7.82,7.82,0,0,1,.39,2.84v5.51h-1.33V69.22a7.08,7.08,0,0,0-.23-2.24,1.92,1.92,0,0,0-.79-1,2.34,2.34,0,0,0-1.33-.38,2.93,2.93,0,0,0-1.73.56,3.2,3.2,0,0,0-1.14,1.49,9.36,9.36,0,0,0-.36,3.09v4H648V69.56a8.84,8.84,0,0,0-.23-2.48,2,2,0,0,0-.79-1,2.34,2.34,0,0,0-1.35-.4,2.91,2.91,0,0,0-1.68.55,3.23,3.23,0,0,0-1.16,1.46,7.86,7.86,0,0,0-.38,2.81v4.28h-1.29Z"/><path class="cls-1" d="M667.42,71.38l1.09.57a5.9,5.9,0,0,1-1.24,1.71,5.17,5.17,0,0,1-1.59,1,5.7,5.7,0,0,1-2,.34,4.81,4.81,0,0,1-3.86-1.62,5.56,5.56,0,0,1-.22-7.09,4.85,4.85,0,0,1,4-1.91,5,5,0,0,1,4.12,2,5.44,5.44,0,0,1,1.11,3.45h-9.08a4.17,4.17,0,0,0,1.12,2.89,3.59,3.59,0,0,0,2.69,1.12,4.32,4.32,0,0,0,1.5-.27,3.84,3.84,0,0,0,1.24-.71A6.22,6.22,0,0,0,667.42,71.38Zm0-2.72a4.41,4.41,0,0,0-.76-1.66,3.45,3.45,0,0,0-1.32-1,3.9,3.9,0,0,0-1.72-.38,3.67,3.67,0,0,0-2.55.95,4.38,4.38,0,0,0-1.18,2.09Z"/><path class="cls-1" d="M671.27,64.63h1.29v1.81a5.43,5.43,0,0,1,1.73-1.55,4.18,4.18,0,0,1,2.06-.52,3.56,3.56,0,0,1,2,.58,3.44,3.44,0,0,1,1.29,1.55,8.14,8.14,0,0,1,.42,3v5.2h-1.3V69.91a12.58,12.58,0,0,0-.14-2.33,2.53,2.53,0,0,0-.87-1.5,2.6,2.6,0,0,0-1.67-.51,3.19,3.19,0,0,0-2.11.78,3.67,3.67,0,0,0-1.23,1.93,12.92,12.92,0,0,0-.19,2.75v3.7h-1.29Z"/><path class="cls-1" d="M684,60.88h1.3v3.75h2.06v1.13h-2.06v9H684v-9h-1.77V64.63H684Z"/><path class="cls-1" d="M694.37,65.74l-.84.86a3,3,0,0,0-2-1,1.53,1.53,0,0,0-1.08.42,1.27,1.27,0,0,0-.45,1,1.44,1.44,0,0,0,.37.94A5.2,5.2,0,0,0,691.89,69a5.76,5.76,0,0,1,2,1.45,2.59,2.59,0,0,1,.52,1.59,2.84,2.84,0,0,1-.88,2.1,3,3,0,0,1-2.18.87,3.88,3.88,0,0,1-1.67-.38,3.67,3.67,0,0,1-1.31-1l.81-.93a2.85,2.85,0,0,0,2.11,1.12,1.87,1.87,0,0,0,1.33-.5,1.53,1.53,0,0,0,.55-1.18,1.51,1.51,0,0,0-.36-1A6.08,6.08,0,0,0,691.14,70a5.24,5.24,0,0,1-1.86-1.39,2.59,2.59,0,0,1-.49-1.57,2.54,2.54,0,0,1,.79-1.91,2.75,2.75,0,0,1,2-.76A4.14,4.14,0,0,1,694.37,65.74Z"/><path class="cls-1" d="M698.1,72.69a1.09,1.09,0,0,1,.8.33,1.12,1.12,0,0,1,.34.82,1.14,1.14,0,0,1-.34.81,1.12,1.12,0,0,1-1.61,0,1.14,1.14,0,0,1-.34-.81,1.12,1.12,0,0,1,.34-.82A1.1,1.1,0,0,1,698.1,72.69Z"/><path class="cls-1" d="M703.36,72.69a1.09,1.09,0,0,1,.8.33,1.12,1.12,0,0,1,.34.82,1.14,1.14,0,0,1-.34.81,1.12,1.12,0,0,1-1.61,0,1.14,1.14,0,0,1-.34-.81,1.12,1.12,0,0,1,.34-.82A1.1,1.1,0,0,1,703.36,72.69Z"/><path class="cls-1" d="M708.62,72.69a1.09,1.09,0,0,1,.8.33,1.08,1.08,0,0,1,.34.82,1.14,1.14,0,0,1-2,.81,1.14,1.14,0,0,1-.34-.81,1.12,1.12,0,0,1,.34-.82A1.1,1.1,0,0,1,708.62,72.69Z"/><g class="cls-30"><rect class="cls-1" width="728" height="90"/></g></g></g></svg>