<svg xmlns="http://www.w3.org/2000/svg" xmlns:xlink="http://www.w3.org/1999/xlink" viewBox="0 0 728 90"><defs><style>.cls-1,.cls-10,.cls-11,.cls-12,.cls-2,.cls-3,.cls-4,.cls-5,.cls-6,.cls-7,.cls-8,.cls-9{fill:#dce9b8;}.cls-2{clip-path:url(#clip-path);}.cls-3{clip-path:url(#clip-path-2);}.cls-4{clip-path:url(#clip-path-11);}.cls-5{clip-path:url(#clip-path-3);}.cls-6{clip-path:url(#clip-path-4);}.cls-7{clip-path:url(#clip-path-5);}.cls-8{clip-path:url(#clip-path-6);}.cls-9{clip-path:url(#clip-path-7);}.cls-10{clip-path:url(#clip-path-8);}.cls-11{clip-path:url(#clip-path-9);}.cls-12{clip-path:url(#clip-path-10);}.cls-13{clip-path:url(#clip-path-12);}</style><clipPath id="clip-path"><path class="cls-1" d="M293.82,48.83l1.26-.75c.89,1.63,1.91,2.45,3.08,2.45a3,3,0,0,0,1.4-.35A2.42,2.42,0,0,0,300.9,48a2.58,2.58,0,0,0-.5-1.47,12.37,12.37,0,0,0-2.55-2.38,13.76,13.76,0,0,1-2.31-2,3.74,3.74,0,0,1-.78-2.27,3.44,3.44,0,0,1,.46-1.77,3.29,3.29,0,0,1,1.31-1.25,3.71,3.71,0,0,1,1.83-.46,3.86,3.86,0,0,1,2,.52,6.6,6.6,0,0,1,1.93,1.91l-1.21.92a5.86,5.86,0,0,0-1.43-1.47,2.49,2.49,0,0,0-1.28-.35,2.05,2.05,0,0,0-1.47.54,1.81,1.81,0,0,0-.57,1.35,2.32,2.32,0,0,0,.2.93,3.34,3.34,0,0,0,.74,1c.19.19.83.69,1.92,1.49a10.74,10.74,0,0,1,2.64,2.53A4.13,4.13,0,0,1,302.5,48a3.76,3.76,0,0,1-1.22,2.8,4.14,4.14,0,0,1-3,1.19,4.37,4.37,0,0,1-2.45-.72A6.56,6.56,0,0,1,293.82,48.83Z"/></clipPath><clipPath id="clip-path-2"><path class="cls-4" d="M403.81,40.62h1.41v2a6.16,6.16,0,0,1,1.88-1.69,4.65,4.65,0,0,1,2.24-.56,3.85,3.85,0,0,1,2.18.63,3.67,3.67,0,0,1,1.41,1.68,9,9,0,0,1,.45,3.3V51.6H412V46.36a12.46,12.46,0,0,0-.16-2.53,2.76,2.76,0,0,0-.94-1.64,2.87,2.87,0,0,0-1.81-.55,3.52,3.52,0,0,0-2.3.85,3.93,3.93,0,0,0-1.33,2.1,14,14,0,0,0-.21,3v4h-1.41Z"/></clipPath><clipPath id="clip-path-3"><path class="cls-3" d="M425.87,40.62h1.41v8.75a10.35,10.35,0,0,1-.4,3.38A4.39,4.39,0,0,1,425,55.08a6.36,6.36,0,0,1-3.3.81,7.42,7.42,0,0,1-2.53-.4,5,5,0,0,1-1.83-1.07,6.29,6.29,0,0,1-1.3-2h1.53a4.08,4.08,0,0,0,1.61,1.61,5.21,5.21,0,0,0,2.46.52,5.09,5.09,0,0,0,2.44-.54,3.27,3.27,0,0,0,1.42-1.35,6.08,6.08,0,0,0,.42-2.63v-.56a5.35,5.35,0,0,1-1.95,1.55,5.79,5.79,0,0,1-5.29-.21,5.36,5.36,0,0,1-2.06-2,5.55,5.55,0,0,1-.72-2.79,5.66,5.66,0,0,1,.75-2.84,5.52,5.52,0,0,1,2.1-2.08,5.59,5.59,0,0,1,2.82-.77,5.27,5.27,0,0,1,2.3.51,6.34,6.34,0,0,1,2.05,1.68Zm-4.16,1.08a4.49,4.49,0,0,0-2.23.58,4.25,4.25,0,0,0-1.62,1.61,4.37,4.37,0,0,0-.58,2.21,4,4,0,0,0,1.21,3,4.77,4.77,0,0,0,6.27,0A4.18,4.18,0,0,0,425.94,46a4.47,4.47,0,0,0-.54-2.21,4,4,0,0,0-1.55-1.54A4.23,4.23,0,0,0,421.71,41.7Z"/></clipPath><clipPath id="clip-path-4"><path class="cls-2" d="M306.64,36.55h1.41v4.07h2.24v1.22h-2.24V51.6h-1.41V41.84h-1.93V40.62h1.93Z"/></clipPath><clipPath id="clip-path-5"><path class="cls-6" d="M323.34,40.62v11H322V49.71a6,6,0,0,1-2,1.62,5.56,5.56,0,0,1-6.4-1.14,5.67,5.67,0,0,1-1.65-4.11,5.55,5.55,0,0,1,1.67-4,5.4,5.4,0,0,1,4-1.69,5.12,5.12,0,0,1,2.45.58A5.56,5.56,0,0,1,322,42.64v-2ZM317.7,41.7a4.27,4.27,0,0,0-3.77,2.21,4.48,4.48,0,0,0-.58,2.21,4.4,4.4,0,0,0,.59,2.22,4.3,4.3,0,0,0,1.6,1.65,4.16,4.16,0,0,0,2.15.59,4.39,4.39,0,0,0,2.19-.59,4,4,0,0,0,1.6-1.58,4.51,4.51,0,0,0,.56-2.24A4.41,4.41,0,0,0,320.79,43,4.18,4.18,0,0,0,317.7,41.7Z"/></clipPath><clipPath id="clip-path-6"><path class="cls-7" d="M325.34,40.62h1.49l3.77,8.45,3.66-8.45h1.51l-6.55,15h-1.49l2.11-4.84Z"/></clipPath><clipPath id="clip-path-7"><path class="cls-8" d="M354.24,40.62v11h-1.39V49.71a6,6,0,0,1-2,1.62,5.56,5.56,0,0,1-6.4-1.14,5.72,5.72,0,0,1-1.65-4.11,5.55,5.55,0,0,1,1.67-4,5.4,5.4,0,0,1,4-1.69,5.12,5.12,0,0,1,2.45.58,5.56,5.56,0,0,1,1.92,1.72v-2ZM348.6,41.7a4.34,4.34,0,0,0-2.18.58,4.27,4.27,0,0,0-1.58,1.63,4.39,4.39,0,0,0-.59,2.21,4.5,4.5,0,0,0,.59,2.22,4.3,4.3,0,0,0,1.6,1.65,4.19,4.19,0,0,0,2.15.59,4.45,4.45,0,0,0,2.2-.59,4,4,0,0,0,1.59-1.58,4.51,4.51,0,0,0,.56-2.24A4.41,4.41,0,0,0,351.69,43,4.18,4.18,0,0,0,348.6,41.7Z"/></clipPath><clipPath id="clip-path-8"><path class="cls-9" d="M357.41,40.62h1.41v1.9A5.38,5.38,0,0,1,360.34,41a4.28,4.28,0,0,1,2.25-.65,3.88,3.88,0,0,1,1.51.31,3.2,3.2,0,0,1,1.17.84,4.25,4.25,0,0,1,.79,1.48,5.27,5.27,0,0,1,1.76-2,4.18,4.18,0,0,1,2.28-.67,3.5,3.5,0,0,1,2,.58,3.45,3.45,0,0,1,1.3,1.6,8.61,8.61,0,0,1,.42,3.09v6h-1.44v-6a7.7,7.7,0,0,0-.26-2.43,2.15,2.15,0,0,0-.85-1.06,2.58,2.58,0,0,0-1.46-.41,3.1,3.1,0,0,0-1.87.61,3.43,3.43,0,0,0-1.24,1.61,10.27,10.27,0,0,0-.4,3.37v4.3h-1.41V46a9.93,9.93,0,0,0-.24-2.7,2.34,2.34,0,0,0-.87-1.14,2.52,2.52,0,0,0-1.46-.43,3.19,3.19,0,0,0-1.83.59,3.53,3.53,0,0,0-1.26,1.59,8.66,8.66,0,0,0-.41,3.06V51.6h-1.41Z"/></clipPath><clipPath id="clip-path-9"><path class="cls-10" d="M387.73,40.62v11h-1.4V49.71a5.93,5.93,0,0,1-2,1.62,5.27,5.27,0,0,1-2.41.55,5.34,5.34,0,0,1-4-1.69,5.67,5.67,0,0,1-1.65-4.11A5.54,5.54,0,0,1,378,42a5.42,5.42,0,0,1,4-1.69,5.08,5.08,0,0,1,2.44.58,5.56,5.56,0,0,1,1.92,1.72v-2Zm-5.65,1.08a4.3,4.3,0,0,0-2.17.58,4.22,4.22,0,0,0-1.59,1.63,4.49,4.49,0,0,0-.59,2.21,4.41,4.41,0,0,0,.6,2.22,4.27,4.27,0,0,0,3.74,2.24,4.4,4.4,0,0,0,2.2-.59,4.05,4.05,0,0,0,1.6-1.58,4.51,4.51,0,0,0,.56-2.24A4.38,4.38,0,0,0,385.17,43,4.17,4.17,0,0,0,382.08,41.7Z"/></clipPath><clipPath id="clip-path-10"><path class="cls-11" d="M390,40.62h8.05l-6.21,9.73h6V51.6h-8.44l6.21-9.73H390Z"/></clipPath><clipPath id="clip-path-11"><path class="cls-12" d="M400.17,36.11a1.16,1.16,0,1,1-.82.34A1.11,1.11,0,0,1,400.17,36.11Zm-.71,4.51h1.42v11h-1.42Z"/></clipPath><clipPath id="clip-path-12"><path class="cls-5" d="M431.86,49.38a1.25,1.25,0,0,1,.88,2.13,1.23,1.23,0,0,1-1.76,0,1.25,1.25,0,0,1,.88-2.13Z"/></clipPath></defs><title>text4</title><g id="Layer_2" data-name="Layer 2"><g id="Layer_1-2" data-name="Layer 1"><path class="cls-1" d="M293.82,48.83l1.26-.75c.89,1.63,1.91,2.45,3.08,2.45a3,3,0,0,0,1.4-.35A2.42,2.42,0,0,0,300.9,48a2.58,2.58,0,0,0-.5-1.47,12.37,12.37,0,0,0-2.55-2.38,13.76,13.76,0,0,1-2.31-2,3.74,3.74,0,0,1-.78-2.27,3.44,3.44,0,0,1,.46-1.77,3.29,3.29,0,0,1,1.31-1.25,3.71,3.71,0,0,1,1.83-.46,3.86,3.86,0,0,1,2,.52,6.6,6.6,0,0,1,1.93,1.91l-1.21.92a5.86,5.86,0,0,0-1.43-1.47,2.49,2.49,0,0,0-1.28-.35,2.05,2.05,0,0,0-1.47.54,1.81,1.81,0,0,0-.57,1.35,2.32,2.32,0,0,0,.2.93,3.34,3.34,0,0,0,.74,1c.19.19.83.69,1.92,1.49a10.74,10.74,0,0,1,2.64,2.53A4.13,4.13,0,0,1,302.5,48a3.76,3.76,0,0,1-1.22,2.8,4.14,4.14,0,0,1-3,1.19,4.37,4.37,0,0,1-2.45-.72A6.56,6.56,0,0,1,293.82,48.83Z"/><path class="cls-1" d="M306.64,36.55h1.41v4.07h2.24v1.22h-2.24V51.6h-1.41V41.84h-1.93V40.62h1.93Z"/><path class="cls-1" d="M323.34,40.62v11H322V49.71a6,6,0,0,1-2,1.62,5.56,5.56,0,0,1-6.4-1.14,5.67,5.67,0,0,1-1.65-4.11,5.55,5.55,0,0,1,1.67-4,5.4,5.4,0,0,1,4-1.69,5.12,5.12,0,0,1,2.45.58A5.56,5.56,0,0,1,322,42.64v-2ZM317.7,41.7a4.27,4.27,0,0,0-3.77,2.21,4.48,4.48,0,0,0-.58,2.21,4.4,4.4,0,0,0,.59,2.22,4.3,4.3,0,0,0,1.6,1.65,4.16,4.16,0,0,0,2.15.59,4.39,4.39,0,0,0,2.19-.59,4,4,0,0,0,1.6-1.58,4.51,4.51,0,0,0,.56-2.24A4.41,4.41,0,0,0,320.79,43,4.18,4.18,0,0,0,317.7,41.7Z"/><path class="cls-1" d="M325.34,40.62h1.49l3.77,8.45,3.66-8.45h1.51l-6.55,15h-1.49l2.11-4.84Z"/><path class="cls-1" d="M354.24,40.62v11h-1.39V49.71a6,6,0,0,1-2,1.62,5.56,5.56,0,0,1-6.4-1.14,5.72,5.72,0,0,1-1.65-4.11,5.55,5.55,0,0,1,1.67-4,5.4,5.4,0,0,1,4-1.69,5.12,5.12,0,0,1,2.45.58,5.56,5.56,0,0,1,1.92,1.72v-2ZM348.6,41.7a4.34,4.34,0,0,0-2.18.58,4.27,4.27,0,0,0-1.58,1.63,4.39,4.39,0,0,0-.59,2.21,4.5,4.5,0,0,0,.59,2.22,4.3,4.3,0,0,0,1.6,1.65,4.19,4.19,0,0,0,2.15.59,4.45,4.45,0,0,0,2.2-.59,4,4,0,0,0,1.59-1.58,4.51,4.51,0,0,0,.56-2.24A4.41,4.41,0,0,0,351.69,43,4.18,4.18,0,0,0,348.6,41.7Z"/><path class="cls-1" d="M357.41,40.62h1.41v1.9A5.38,5.38,0,0,1,360.34,41a4.28,4.28,0,0,1,2.25-.65,3.88,3.88,0,0,1,1.51.31,3.2,3.2,0,0,1,1.17.84,4.25,4.25,0,0,1,.79,1.48,5.27,5.27,0,0,1,1.76-2,4.18,4.18,0,0,1,2.28-.67,3.5,3.5,0,0,1,2,.58,3.45,3.45,0,0,1,1.3,1.6,8.61,8.61,0,0,1,.42,3.09v6h-1.44v-6a7.7,7.7,0,0,0-.26-2.43,2.15,2.15,0,0,0-.85-1.06,2.58,2.58,0,0,0-1.46-.41,3.1,3.1,0,0,0-1.87.61,3.43,3.43,0,0,0-1.24,1.61,10.27,10.27,0,0,0-.4,3.37v4.3h-1.41V46a9.93,9.93,0,0,0-.24-2.7,2.34,2.34,0,0,0-.87-1.14,2.52,2.52,0,0,0-1.46-.43,3.19,3.19,0,0,0-1.83.59,3.53,3.53,0,0,0-1.26,1.59,8.66,8.66,0,0,0-.41,3.06V51.6h-1.41Z"/><path class="cls-1" d="M387.73,40.62v11h-1.4V49.71a5.93,5.93,0,0,1-2,1.62,5.27,5.27,0,0,1-2.41.55,5.34,5.34,0,0,1-4-1.69,5.67,5.67,0,0,1-1.65-4.11A5.54,5.54,0,0,1,378,42a5.42,5.42,0,0,1,4-1.69,5.08,5.08,0,0,1,2.44.58,5.56,5.56,0,0,1,1.92,1.72v-2Zm-5.65,1.08a4.3,4.3,0,0,0-2.17.58,4.22,4.22,0,0,0-1.59,1.63,4.49,4.49,0,0,0-.59,2.21,4.41,4.41,0,0,0,.6,2.22,4.27,4.27,0,0,0,3.74,2.24,4.4,4.4,0,0,0,2.2-.59,4.05,4.05,0,0,0,1.6-1.58,4.51,4.51,0,0,0,.56-2.24A4.38,4.38,0,0,0,385.17,43,4.17,4.17,0,0,0,382.08,41.7Z"/><path class="cls-1" d="M390,40.62h8.05l-6.21,9.73h6V51.6h-8.44l6.21-9.73H390Z"/><path class="cls-1" d="M400.17,36.11a1.16,1.16,0,1,1-.82.34A1.11,1.11,0,0,1,400.17,36.11Zm-.71,4.51h1.42v11h-1.42Z"/><path class="cls-1" d="M403.81,40.62h1.41v2a6.16,6.16,0,0,1,1.88-1.69,4.65,4.65,0,0,1,2.24-.56,3.85,3.85,0,0,1,2.18.63,3.67,3.67,0,0,1,1.41,1.68,9,9,0,0,1,.45,3.3V51.6H412V46.36a12.46,12.46,0,0,0-.16-2.53,2.76,2.76,0,0,0-.94-1.64,2.87,2.87,0,0,0-1.81-.55,3.52,3.52,0,0,0-2.3.85,3.93,3.93,0,0,0-1.33,2.1,14,14,0,0,0-.21,3v4h-1.41Z"/><path class="cls-1" d="M425.87,40.62h1.41v8.75a10.35,10.35,0,0,1-.4,3.38A4.39,4.39,0,0,1,425,55.08a6.36,6.36,0,0,1-3.3.81,7.42,7.42,0,0,1-2.53-.4,5,5,0,0,1-1.83-1.07,6.29,6.29,0,0,1-1.3-2h1.53a4.08,4.08,0,0,0,1.61,1.61,5.21,5.21,0,0,0,2.46.52,5.09,5.09,0,0,0,2.44-.54,3.27,3.27,0,0,0,1.42-1.35,6.08,6.08,0,0,0,.42-2.63v-.56a5.35,5.35,0,0,1-1.95,1.55,5.79,5.79,0,0,1-5.29-.21,5.36,5.36,0,0,1-2.06-2,5.55,5.55,0,0,1-.72-2.79,5.66,5.66,0,0,1,.75-2.84,5.52,5.52,0,0,1,2.1-2.08,5.59,5.59,0,0,1,2.82-.77,5.27,5.27,0,0,1,2.3.51,6.34,6.34,0,0,1,2.05,1.68Zm-4.16,1.08a4.49,4.49,0,0,0-2.23.58,4.25,4.25,0,0,0-1.62,1.61,4.37,4.37,0,0,0-.58,2.21,4,4,0,0,0,1.21,3,4.77,4.77,0,0,0,6.27,0A4.18,4.18,0,0,0,425.94,46a4.47,4.47,0,0,0-.54-2.21,4,4,0,0,0-1.55-1.54A4.23,4.23,0,0,0,421.71,41.7Z"/><path class="cls-1" d="M431.86,49.38a1.25,1.25,0,0,1,.88,2.13,1.23,1.23,0,0,1-1.76,0,1.25,1.25,0,0,1,.88-2.13Z"/><g class="cls-13"><rect class="cls-1" width="728" height="90"/></g></g></g></svg>