<svg xmlns="http://www.w3.org/2000/svg" xmlns:xlink="http://www.w3.org/1999/xlink" viewBox="0 0 728 90"><defs><style>.cls-1,.cls-10,.cls-11,.cls-12,.cls-13,.cls-14,.cls-15,.cls-16,.cls-17,.cls-18,.cls-19,.cls-2,.cls-20,.cls-21,.cls-22,.cls-23,.cls-24,.cls-25,.cls-26,.cls-27,.cls-28,.cls-29,.cls-3,.cls-30,.cls-31,.cls-32,.cls-4,.cls-5,.cls-6,.cls-7,.cls-8,.cls-9{fill:#fff;}.cls-2{clip-path:url(#clip-path);}.cls-3{clip-path:url(#clip-path-2);}.cls-4{clip-path:url(#clip-path-31);}.cls-5{clip-path:url(#clip-path-3);}.cls-6{clip-path:url(#clip-path-4);}.cls-7{clip-path:url(#clip-path-5);}.cls-8{clip-path:url(#clip-path-6);}.cls-9{clip-path:url(#clip-path-7);}.cls-10{clip-path:url(#clip-path-8);}.cls-11{clip-path:url(#clip-path-9);}.cls-12{clip-path:url(#clip-path-10);}.cls-13{clip-path:url(#clip-path-11);}.cls-14{clip-path:url(#clip-path-12);}.cls-15{clip-path:url(#clip-path-13);}.cls-16{clip-path:url(#clip-path-14);}.cls-17{clip-path:url(#clip-path-15);}.cls-18{clip-path:url(#clip-path-16);}.cls-19{clip-path:url(#clip-path-17);}.cls-20{clip-path:url(#clip-path-18);}.cls-21{clip-path:url(#clip-path-19);}.cls-22{clip-path:url(#clip-path-20);}.cls-23{clip-path:url(#clip-path-21);}.cls-24{clip-path:url(#clip-path-22);}.cls-25{clip-path:url(#clip-path-23);}.cls-26{clip-path:url(#clip-path-24);}.cls-27{clip-path:url(#clip-path-25);}.cls-28{clip-path:url(#clip-path-26);}.cls-29{clip-path:url(#clip-path-27);}.cls-30{clip-path:url(#clip-path-28);}.cls-31{clip-path:url(#clip-path-29);}.cls-32{clip-path:url(#clip-path-30);}.cls-33{clip-path:url(#clip-path-32);}</style><clipPath id="clip-path"><path class="cls-1" d="M541.61,44.69V43.35h7.47v1.34h-3V57h-1.39V44.69Z"/></clipPath><clipPath id="clip-path-2"><path class="cls-4" d="M656.64,45.89l-1.07.82A6,6,0,0,0,653.43,45a6.24,6.24,0,0,0-2.74-.59,6.11,6.11,0,0,0-3,.78,5.59,5.59,0,0,0-2.15,2.11,5.82,5.82,0,0,0-.77,3,5.57,5.57,0,0,0,1.71,4.16,5.9,5.9,0,0,0,4.32,1.67,6.07,6.07,0,0,0,4.8-2.24l1.07.81a6.76,6.76,0,0,1-2.54,2,7.92,7.92,0,0,1-3.41.71A7.08,7.08,0,0,1,645,55a7.17,7.17,0,0,1-1.74-4.86,6.75,6.75,0,0,1,2.1-5A7.25,7.25,0,0,1,650.67,43a7.67,7.67,0,0,1,3.45.76A6.58,6.58,0,0,1,656.64,45.89Z"/></clipPath><clipPath id="clip-path-3"><path class="cls-3" d="M664,46.65a5,5,0,0,1,3.86,1.68,5.41,5.41,0,0,1-.08,7.35,5.34,5.34,0,0,1-7.58,0,5.43,5.43,0,0,1-.08-7.34A5,5,0,0,1,664,46.65Zm0,1.27a3.75,3.75,0,0,0-2.78,1.19A4,4,0,0,0,660,52a4.14,4.14,0,0,0,.53,2A3.81,3.81,0,0,0,662,55.51a4,4,0,0,0,4,0,3.74,3.74,0,0,0,1.44-1.46,4.14,4.14,0,0,0,.53-2,4,4,0,0,0-1.17-2.9A3.78,3.78,0,0,0,663.94,47.92Z"/></clipPath><clipPath id="clip-path-4"><path class="cls-5" d="M681.67,46.91V57h-1.29V55.27a5.57,5.57,0,0,1-1.83,1.49,5.12,5.12,0,0,1-5.88-1,5.23,5.23,0,0,1-1.52-3.78,5.1,5.1,0,0,1,1.53-3.73,5,5,0,0,1,3.69-1.55,4.67,4.67,0,0,1,2.25.53,5.05,5.05,0,0,1,1.76,1.58V46.91Zm-5.2,1a4,4,0,0,0-2,.53,4,4,0,0,0-1.46,1.5A4.09,4.09,0,0,0,673,54a4,4,0,0,0,1.47,1.51,3.82,3.82,0,0,0,2,.54,4.16,4.16,0,0,0,2-.53A3.79,3.79,0,0,0,680,54.07a4.08,4.08,0,0,0,.52-2.07,4,4,0,0,0-1.16-2.92A3.8,3.8,0,0,0,676.47,47.9Z"/></clipPath><clipPath id="clip-path-5"><path class="cls-6" d="M689.66,48l-.83.86a3,3,0,0,0-2-1,1.53,1.53,0,0,0-1.08.42,1.29,1.29,0,0,0-.45,1,1.44,1.44,0,0,0,.37.94,5.37,5.37,0,0,0,1.56,1.07,5.73,5.73,0,0,1,2,1.45,2.6,2.6,0,0,1,.51,1.58,2.87,2.87,0,0,1-.87,2.11,3,3,0,0,1-2.18.86,3.85,3.85,0,0,1-1.67-.38,3.58,3.58,0,0,1-1.32-1.05l.82-.93A2.84,2.84,0,0,0,686.56,56a1.93,1.93,0,0,0,1.33-.5,1.58,1.58,0,0,0,.55-1.18,1.54,1.54,0,0,0-.36-1,6,6,0,0,0-1.64-1.07,5.36,5.36,0,0,1-1.86-1.39,2.61,2.61,0,0,1-.49-1.57,2.54,2.54,0,0,1,.78-1.91,2.73,2.73,0,0,1,2-.76A4.08,4.08,0,0,1,689.66,48Z"/></clipPath><clipPath id="clip-path-6"><path class="cls-7" d="M693.09,43.16h1.3v3.75h2.06V48h-2.06v9h-1.3V48h-1.77V46.91h1.77Z"/></clipPath><clipPath id="clip-path-7"><path class="cls-8" d="M700.17,48.1l-.71-.4a8.41,8.41,0,0,0,.47-1.11,5.39,5.39,0,0,0,.18-1h-.82V43H701v1.6a8.35,8.35,0,0,1-.16,1.87A7.36,7.36,0,0,1,700.17,48.1Z"/></clipPath><clipPath id="clip-path-8"><path class="cls-9" d="M710.15,48l-.84.86a3,3,0,0,0-2-1,1.53,1.53,0,0,0-1.08.42,1.29,1.29,0,0,0-.45,1,1.44,1.44,0,0,0,.37.94,5.37,5.37,0,0,0,1.56,1.07,5.63,5.63,0,0,1,2,1.45,2.54,2.54,0,0,1,.52,1.58,2.84,2.84,0,0,1-.88,2.11,3,3,0,0,1-2.18.86,3.88,3.88,0,0,1-1.67-.38,3.47,3.47,0,0,1-1.31-1.05l.81-.93A2.86,2.86,0,0,0,707,56a1.91,1.91,0,0,0,1.33-.5,1.55,1.55,0,0,0,.19-2.18,5.88,5.88,0,0,0-1.64-1.07,5.36,5.36,0,0,1-1.86-1.39,2.61,2.61,0,0,1-.49-1.57,2.51,2.51,0,0,1,.79-1.91,2.71,2.71,0,0,1,2-.76A4.1,4.1,0,0,1,710.15,48Z"/></clipPath><clipPath id="clip-path-9"><path class="cls-10" d="M563,64.63h1.3v1.75A4.9,4.9,0,0,1,565.66,65a3.94,3.94,0,0,1,2.07-.6,3.51,3.51,0,0,1,1.4.29,3,3,0,0,1,1.08.77,4.39,4.39,0,0,1,.72,1.36,4.75,4.75,0,0,1,1.62-1.8,3.84,3.84,0,0,1,2.09-.62,3.31,3.31,0,0,1,1.85.53,3.19,3.19,0,0,1,1.19,1.48,7.86,7.86,0,0,1,.38,2.84v5.51h-1.32V69.22a7.4,7.4,0,0,0-.23-2.24,2,2,0,0,0-.79-1,2.37,2.37,0,0,0-1.34-.38,2.9,2.9,0,0,0-1.72.56,3.16,3.16,0,0,0-1.15,1.49,9.36,9.36,0,0,0-.36,3.09v4h-1.3V69.56a9,9,0,0,0-.22-2.48,2,2,0,0,0-.8-1,2.28,2.28,0,0,0-1.34-.4,3,3,0,0,0-1.69.55,3.29,3.29,0,0,0-1.16,1.46,7.9,7.9,0,0,0-.37,2.81v4.28H563Z"/></clipPath><clipPath id="clip-path-10"><path class="cls-11" d="M585.58,64.37a5,5,0,0,1,3.87,1.69,5.43,5.43,0,0,1-.08,7.34,5.32,5.32,0,0,1-7.59,0,5.41,5.41,0,0,1-.08-7.33A5,5,0,0,1,585.58,64.37Zm0,1.27a3.76,3.76,0,0,0-2.79,1.2,4.2,4.2,0,0,0-.63,4.94,3.79,3.79,0,0,0,1.43,1.46,4.12,4.12,0,0,0,4,0A3.79,3.79,0,0,0,589,71.78a4.06,4.06,0,0,0,.53-2,4,4,0,0,0-1.17-2.9A3.74,3.74,0,0,0,585.58,65.64Z"/></clipPath><clipPath id="clip-path-11"><path class="cls-12" d="M598.32,65.74l-.84.86a3,3,0,0,0-2-1,1.53,1.53,0,0,0-1.09.42,1.27,1.27,0,0,0-.45,1,1.49,1.49,0,0,0,.37.94A5.2,5.2,0,0,0,595.84,69a5.92,5.92,0,0,1,2,1.45,2.65,2.65,0,0,1,.51,1.59,2.8,2.8,0,0,1-.88,2.1,3,3,0,0,1-2.18.87,3.88,3.88,0,0,1-1.67-.38,3.67,3.67,0,0,1-1.31-1l.81-.93a2.85,2.85,0,0,0,2.11,1.12,1.87,1.87,0,0,0,1.33-.5,1.53,1.53,0,0,0,.55-1.18,1.51,1.51,0,0,0-.36-1A6.08,6.08,0,0,0,595.09,70a5.24,5.24,0,0,1-1.86-1.39,2.66,2.66,0,0,1-.49-1.57,2.54,2.54,0,0,1,.79-1.91,2.75,2.75,0,0,1,2-.76A4.12,4.12,0,0,1,598.32,65.74Z"/></clipPath><clipPath id="clip-path-12"><path class="cls-2" d="M550.84,43h1.29v5.7a5.57,5.57,0,0,1,1.74-1.55,4.24,4.24,0,0,1,2-.51,3.63,3.63,0,0,1,2,.57,3.49,3.49,0,0,1,1.29,1.55,8.1,8.1,0,0,1,.42,3V57h-1.3V52.19a12.5,12.5,0,0,0-.14-2.33,2.66,2.66,0,0,0-.87-1.51,2.6,2.6,0,0,0-1.67-.51,3.21,3.21,0,0,0-2.11.78,3.7,3.7,0,0,0-1.23,1.93,13.57,13.57,0,0,0-.19,2.75V57h-1.29Z"/></clipPath><clipPath id="clip-path-13"><path class="cls-13" d="M601.75,60.88h1.3v3.75h2.06v1.13h-2.06v9h-1.3v-9H600V64.63h1.77Z"/></clipPath><clipPath id="clip-path-14"><path class="cls-15" d="M622.39,60.74v14h-1.28V73a5.61,5.61,0,0,1-1.83,1.5,5,5,0,0,1-2.22.5,4.92,4.92,0,0,1-3.66-1.56,5.2,5.2,0,0,1-1.52-3.78,5.13,5.13,0,0,1,1.53-3.73,5,5,0,0,1,3.68-1.55,4.79,4.79,0,0,1,2.25.53,5,5,0,0,1,1.77,1.59V60.74Zm-5.19,4.88a3.87,3.87,0,0,0-2,.54,3.83,3.83,0,0,0-1.46,1.5,4.07,4.07,0,0,0,0,4.07,4,4,0,0,0,1.46,1.52,3.88,3.88,0,0,0,2,.54,4,4,0,0,0,2-.54,3.73,3.73,0,0,0,1.47-1.45,4.18,4.18,0,0,0,.52-2.07A4,4,0,0,0,620,66.8,3.83,3.83,0,0,0,617.2,65.62Z"/></clipPath><clipPath id="clip-path-15"><path class="cls-16" d="M633.83,71.38l1.1.57a5.92,5.92,0,0,1-1.25,1.71,5.06,5.06,0,0,1-1.59,1,5.61,5.61,0,0,1-2,.34,4.84,4.84,0,0,1-3.87-1.62,5.5,5.5,0,0,1-1.39-3.66A5.41,5.41,0,0,1,626,66.28a4.83,4.83,0,0,1,4-1.91,5,5,0,0,1,4.13,2,5.44,5.44,0,0,1,1.11,3.45h-9.08a4.13,4.13,0,0,0,1.12,2.89A3.59,3.59,0,0,0,630,73.79a4.32,4.32,0,0,0,1.5-.27,4.06,4.06,0,0,0,1.24-.71A6.23,6.23,0,0,0,633.83,71.38Zm0-2.72a4.13,4.13,0,0,0-.76-1.66,3.49,3.49,0,0,0-1.31-1,4,4,0,0,0-1.72-.38,3.67,3.67,0,0,0-2.55.95,4.3,4.3,0,0,0-1.18,2.09Z"/></clipPath><clipPath id="clip-path-16"><path class="cls-17" d="M642.76,65.74l-.84.86a3,3,0,0,0-2-1,1.53,1.53,0,0,0-1.08.42,1.27,1.27,0,0,0-.45,1,1.44,1.44,0,0,0,.37.94A5.2,5.2,0,0,0,640.28,69a5.76,5.76,0,0,1,2,1.45,2.66,2.66,0,0,1,.52,1.59,2.84,2.84,0,0,1-.88,2.1,3,3,0,0,1-2.18.87,3.88,3.88,0,0,1-1.67-.38,3.67,3.67,0,0,1-1.31-1l.81-.93a2.85,2.85,0,0,0,2.11,1.12,1.87,1.87,0,0,0,1.33-.5,1.53,1.53,0,0,0,.55-1.18,1.51,1.51,0,0,0-.36-1A6.08,6.08,0,0,0,639.53,70a5.24,5.24,0,0,1-1.86-1.39,2.74,2.74,0,0,1,.29-3.48,2.79,2.79,0,0,1,2-.76A4.14,4.14,0,0,1,642.76,65.74Z"/></clipPath><clipPath id="clip-path-17"><path class="cls-18" d="M645.51,60.48a1,1,0,0,1,.75.31,1.05,1.05,0,0,1,.32.76,1.07,1.07,0,0,1-2.14,0,1.05,1.05,0,0,1,.32-.76A1,1,0,0,1,645.51,60.48Zm-.65,4.15h1.3v10.1h-1.3Z"/></clipPath><clipPath id="clip-path-18"><path class="cls-19" d="M648.37,64.63h1.33v1.48A4.64,4.64,0,0,1,651,64.8a2.51,2.51,0,0,1,1.37-.43,2.37,2.37,0,0,1,1.15.35l-.68,1.09a1.76,1.76,0,0,0-.68-.18,1.84,1.84,0,0,0-1.25.54,3.3,3.3,0,0,0-.92,1.65,16,16,0,0,0-.24,3.49v3.42h-1.33Z"/></clipPath><clipPath id="clip-path-19"><path class="cls-20" d="M664.63,64.63v10.1h-1.28V73a5.61,5.61,0,0,1-1.83,1.5,5,5,0,0,1-2.22.5,4.92,4.92,0,0,1-3.66-1.56,5.2,5.2,0,0,1-1.52-3.78,5.13,5.13,0,0,1,1.53-3.73,5,5,0,0,1,3.68-1.55,4.79,4.79,0,0,1,2.25.53,5,5,0,0,1,1.77,1.59V64.63Zm-5.19,1a3.87,3.87,0,0,0-2,.54,3.83,3.83,0,0,0-1.46,1.5,4.09,4.09,0,0,0-.54,2,4.15,4.15,0,0,0,.54,2,4.05,4.05,0,0,0,1.47,1.52,3.88,3.88,0,0,0,2,.54,4,4,0,0,0,2-.54,3.73,3.73,0,0,0,1.47-1.45,4.18,4.18,0,0,0,.52-2.07,4,4,0,0,0-1.16-2.93A3.83,3.83,0,0,0,659.44,65.62Z"/></clipPath><clipPath id="clip-path-20"><path class="cls-21" d="M667.64,74.73v-14h1.3v5.63a5.43,5.43,0,0,1,1.82-1.5,5,5,0,0,1,2.22-.5,4.91,4.91,0,0,1,3.65,1.56,5.39,5.39,0,0,1,0,7.51A5,5,0,0,1,672.94,75a4.71,4.71,0,0,1-2.23-.53,5.1,5.1,0,0,1-1.77-1.59v1.86Zm5.19-1a3.9,3.9,0,0,0,3.46-2,4.1,4.1,0,0,0,.54-2,4.19,4.19,0,0,0-2-3.57,3.84,3.84,0,0,0-2-.54,4.05,4.05,0,0,0-2,.54,3.82,3.82,0,0,0-1.47,1.46,4.24,4.24,0,0,0-.52,2.07A4.05,4.05,0,0,0,670,72.56,3.8,3.8,0,0,0,672.83,73.73Z"/></clipPath><clipPath id="clip-path-21"><path class="cls-22" d="M680.32,60.74h1.3v14h-1.3Z"/></clipPath><clipPath id="clip-path-22"><path class="cls-23" d="M692.82,71.38l1.09.57a5.9,5.9,0,0,1-1.24,1.71,5.06,5.06,0,0,1-1.59,1,5.66,5.66,0,0,1-2,.34,4.83,4.83,0,0,1-3.86-1.62,5.54,5.54,0,0,1-.21-7.09,4.82,4.82,0,0,1,4-1.91,5,5,0,0,1,4.12,2,5.51,5.51,0,0,1,1.12,3.45h-9.09a4.13,4.13,0,0,0,1.13,2.89A3.57,3.57,0,0,0,689,73.79a4.32,4.32,0,0,0,1.5-.27,3.84,3.84,0,0,0,1.24-.71A6.22,6.22,0,0,0,692.82,71.38Zm0-2.72a4.41,4.41,0,0,0-.76-1.66,3.49,3.49,0,0,0-1.31-1,4,4,0,0,0-1.72-.38,3.69,3.69,0,0,0-2.56.95,4.38,4.38,0,0,0-1.18,2.09Z"/></clipPath><clipPath id="clip-path-23"><path class="cls-14" d="M570.92,53.65l1.1.58a6,6,0,0,1-1.25,1.7,4.72,4.72,0,0,1-1.59,1,5.39,5.39,0,0,1-2,.34,4.84,4.84,0,0,1-3.87-1.62A5.5,5.5,0,0,1,561.93,52a5.36,5.36,0,0,1,1.18-3.42,4.81,4.81,0,0,1,4-1.91,5,5,0,0,1,4.13,2,5.48,5.48,0,0,1,1.11,3.45h-9.08a4.11,4.11,0,0,0,1.12,2.89,3.59,3.59,0,0,0,2.69,1.12,4.32,4.32,0,0,0,1.5-.27,3.87,3.87,0,0,0,1.24-.71A5.76,5.76,0,0,0,570.92,53.65Zm0-2.72a4.19,4.19,0,0,0-.76-1.66,3.6,3.6,0,0,0-1.31-1,4.11,4.11,0,0,0-1.72-.38,3.68,3.68,0,0,0-2.55,1,4.22,4.22,0,0,0-1.18,2.08Z"/></clipPath><clipPath id="clip-path-24"><path class="cls-24" d="M698.1,72.69a1.09,1.09,0,0,1,.8.33,1.12,1.12,0,0,1,.34.82,1.14,1.14,0,0,1-.34.81,1.12,1.12,0,0,1-1.61,0,1.14,1.14,0,0,1-.34-.81,1.12,1.12,0,0,1,.34-.82A1.1,1.1,0,0,1,698.1,72.69Z"/></clipPath><clipPath id="clip-path-25"><path class="cls-26" d="M703.36,72.69a1.09,1.09,0,0,1,.8.33,1.12,1.12,0,0,1,.34.82,1.14,1.14,0,0,1-.34.81,1.12,1.12,0,0,1-1.61,0,1.14,1.14,0,0,1-.34-.81,1.12,1.12,0,0,1,.34-.82A1.1,1.1,0,0,1,703.36,72.69Z"/></clipPath><clipPath id="clip-path-26"><path class="cls-25" d="M585.82,43.35,592.19,57h-1.48l-2.14-4.49h-5.88L580.56,57H579l6.45-13.65Zm-.17,2.9-2.34,4.94H588Z"/></clipPath><clipPath id="clip-path-27"><path class="cls-28" d="M594.08,46.91h1.3v1.74a5,5,0,0,1,1.39-1.41,3.92,3.92,0,0,1,2.07-.59,3.45,3.45,0,0,1,1.39.28,3.11,3.11,0,0,1,1.08.77,4.14,4.14,0,0,1,.73,1.37,4.78,4.78,0,0,1,1.62-1.81,3.8,3.8,0,0,1,2.09-.61,3.18,3.18,0,0,1,1.84.53,3.1,3.1,0,0,1,1.19,1.47,7.86,7.86,0,0,1,.39,2.84V57h-1.32V51.49a6.93,6.93,0,0,0-.24-2.23,1.94,1.94,0,0,0-.79-1,2.33,2.33,0,0,0-1.33-.37,2.92,2.92,0,0,0-1.73.55A3.26,3.26,0,0,0,602.62,50a9.43,9.43,0,0,0-.36,3.1v4H601V51.83a8.52,8.52,0,0,0-.23-2.48,2.11,2.11,0,0,0-.79-1.05,2.3,2.3,0,0,0-1.34-.39,2.93,2.93,0,0,0-1.69.54,3.23,3.23,0,0,0-1.16,1.46,7.9,7.9,0,0,0-.37,2.81V57h-1.3Z"/></clipPath><clipPath id="clip-path-28"><path class="cls-29" d="M622,46.91V57h-1.27V55.27a5.71,5.71,0,0,1-1.84,1.49,5.12,5.12,0,0,1-5.88-1,5.23,5.23,0,0,1-1.52-3.78A5.1,5.1,0,0,1,613,48.2a5,5,0,0,1,3.69-1.55,4.67,4.67,0,0,1,2.25.53,5.17,5.17,0,0,1,1.77,1.58V46.91Zm-5.18,1a3.9,3.9,0,0,0-3.47,2,4.09,4.09,0,0,0,0,4.08,4,4,0,0,0,1.47,1.51,3.83,3.83,0,0,0,2,.54,4.15,4.15,0,0,0,2-.53,3.79,3.79,0,0,0,1.46-1.46,4.08,4.08,0,0,0,.52-2.07,4,4,0,0,0-1.15-2.92A3.81,3.81,0,0,0,616.78,47.9Z"/></clipPath><clipPath id="clip-path-29"><path class="cls-30" d="M624.69,43H626V57h-1.3Z"/></clipPath><clipPath id="clip-path-30"><path class="cls-31" d="M632.85,43v1.27a3.35,3.35,0,0,0-1.23-.31,1.23,1.23,0,0,0-.63.16.68.68,0,0,0-.31.35,4.34,4.34,0,0,0-.07,1.06v1.37h2.11V48h-2.11v9h-1.3V48H628V46.91h1.32V45.33a4.37,4.37,0,0,1,.2-1.55,1.64,1.64,0,0,1,.68-.75,2.22,2.22,0,0,1,1.16-.28A5.62,5.62,0,0,1,632.85,43Z"/></clipPath><clipPath id="clip-path-31"><path class="cls-32" d="M635.11,42.75a1.09,1.09,0,1,1-.75.32A1,1,0,0,1,635.11,42.75Zm-.65,4.16h1.3V57h-1.3Z"/></clipPath><clipPath id="clip-path-32"><path class="cls-27" d="M708.62,72.69a1.09,1.09,0,0,1,.8.33,1.08,1.08,0,0,1,.34.82,1.14,1.14,0,0,1-2,.81,1.14,1.14,0,0,1-.34-.81,1.12,1.12,0,0,1,.34-.82A1.1,1.1,0,0,1,708.62,72.69Z"/></clipPath></defs><title>text1</title><g id="Layer_2" data-name="Layer 2"><g id="Layer_1-2" data-name="Layer 1"><path class="cls-1" d="M541.61,44.69V43.35h7.47v1.34h-3V57h-1.39V44.69Z"/><path class="cls-1" d="M550.84,43h1.29v5.7a5.57,5.57,0,0,1,1.74-1.55,4.24,4.24,0,0,1,2-.51,3.63,3.63,0,0,1,2,.57,3.49,3.49,0,0,1,1.29,1.55,8.1,8.1,0,0,1,.42,3V57h-1.3V52.19a12.5,12.5,0,0,0-.14-2.33,2.66,2.66,0,0,0-.87-1.51,2.6,2.6,0,0,0-1.67-.51,3.21,3.21,0,0,0-2.11.78,3.7,3.7,0,0,0-1.23,1.93,13.57,13.57,0,0,0-.19,2.75V57h-1.29Z"/><path class="cls-1" d="M570.92,53.65l1.1.58a6,6,0,0,1-1.25,1.7,4.72,4.72,0,0,1-1.59,1,5.39,5.39,0,0,1-2,.34,4.84,4.84,0,0,1-3.87-1.62A5.5,5.5,0,0,1,561.93,52a5.36,5.36,0,0,1,1.18-3.42,4.81,4.81,0,0,1,4-1.91,5,5,0,0,1,4.13,2,5.48,5.48,0,0,1,1.11,3.45h-9.08a4.11,4.11,0,0,0,1.12,2.89,3.59,3.59,0,0,0,2.69,1.12,4.32,4.32,0,0,0,1.5-.27,3.87,3.87,0,0,0,1.24-.71A5.76,5.76,0,0,0,570.92,53.65Zm0-2.72a4.19,4.19,0,0,0-.76-1.66,3.6,3.6,0,0,0-1.31-1,4.11,4.11,0,0,0-1.72-.38,3.68,3.68,0,0,0-2.55,1,4.22,4.22,0,0,0-1.18,2.08Z"/><path class="cls-1" d="M585.82,43.35,592.19,57h-1.48l-2.14-4.49h-5.88L580.56,57H579l6.45-13.65Zm-.17,2.9-2.34,4.94H588Z"/><path class="cls-1" d="M594.08,46.91h1.3v1.74a5,5,0,0,1,1.39-1.41,3.92,3.92,0,0,1,2.07-.59,3.45,3.45,0,0,1,1.39.28,3.11,3.11,0,0,1,1.08.77,4.14,4.14,0,0,1,.73,1.37,4.78,4.78,0,0,1,1.62-1.81,3.8,3.8,0,0,1,2.09-.61,3.18,3.18,0,0,1,1.84.53,3.1,3.1,0,0,1,1.19,1.47,7.86,7.86,0,0,1,.39,2.84V57h-1.32V51.49a6.93,6.93,0,0,0-.24-2.23,1.94,1.94,0,0,0-.79-1,2.33,2.33,0,0,0-1.33-.37,2.92,2.92,0,0,0-1.73.55A3.26,3.26,0,0,0,602.62,50a9.43,9.43,0,0,0-.36,3.1v4H601V51.83a8.52,8.52,0,0,0-.23-2.48,2.11,2.11,0,0,0-.79-1.05,2.3,2.3,0,0,0-1.34-.39,2.93,2.93,0,0,0-1.69.54,3.23,3.23,0,0,0-1.16,1.46,7.9,7.9,0,0,0-.37,2.81V57h-1.3Z"/><path class="cls-1" d="M622,46.91V57h-1.27V55.27a5.71,5.71,0,0,1-1.84,1.49,5.12,5.12,0,0,1-5.88-1,5.23,5.23,0,0,1-1.52-3.78A5.1,5.1,0,0,1,613,48.2a5,5,0,0,1,3.69-1.55,4.67,4.67,0,0,1,2.25.53,5.17,5.17,0,0,1,1.77,1.58V46.91Zm-5.18,1a3.9,3.9,0,0,0-3.47,2,4.09,4.09,0,0,0,0,4.08,4,4,0,0,0,1.47,1.51,3.83,3.83,0,0,0,2,.54,4.15,4.15,0,0,0,2-.53,3.79,3.79,0,0,0,1.46-1.46,4.08,4.08,0,0,0,.52-2.07,4,4,0,0,0-1.15-2.92A3.81,3.81,0,0,0,616.78,47.9Z"/><path class="cls-1" d="M624.69,43H626V57h-1.3Z"/><path class="cls-1" d="M632.85,43v1.27a3.35,3.35,0,0,0-1.23-.31,1.23,1.23,0,0,0-.63.16.68.68,0,0,0-.31.35,4.34,4.34,0,0,0-.07,1.06v1.37h2.11V48h-2.11v9h-1.3V48H628V46.91h1.32V45.33a4.37,4.37,0,0,1,.2-1.55,1.64,1.64,0,0,1,.68-.75,2.22,2.22,0,0,1,1.16-.28A5.62,5.62,0,0,1,632.85,43Z"/><path class="cls-1" d="M635.11,42.75a1.09,1.09,0,1,1-.75.32A1,1,0,0,1,635.11,42.75Zm-.65,4.16h1.3V57h-1.3Z"/><path class="cls-1" d="M656.64,45.89l-1.07.82A6,6,0,0,0,653.43,45a6.24,6.24,0,0,0-2.74-.59,6.11,6.11,0,0,0-3,.78,5.59,5.59,0,0,0-2.15,2.11,5.82,5.82,0,0,0-.77,3,5.57,5.57,0,0,0,1.71,4.16,5.9,5.9,0,0,0,4.32,1.67,6.07,6.07,0,0,0,4.8-2.24l1.07.81a6.76,6.76,0,0,1-2.54,2,7.92,7.92,0,0,1-3.41.71A7.08,7.08,0,0,1,645,55a7.17,7.17,0,0,1-1.74-4.86,6.75,6.75,0,0,1,2.1-5A7.25,7.25,0,0,1,650.67,43a7.67,7.67,0,0,1,3.45.76A6.58,6.58,0,0,1,656.64,45.89Z"/><path class="cls-1" d="M664,46.65a5,5,0,0,1,3.86,1.68,5.41,5.41,0,0,1-.08,7.35,5.34,5.34,0,0,1-7.58,0,5.43,5.43,0,0,1-.08-7.34A5,5,0,0,1,664,46.65Zm0,1.27a3.75,3.75,0,0,0-2.78,1.19A4,4,0,0,0,660,52a4.14,4.14,0,0,0,.53,2A3.81,3.81,0,0,0,662,55.51a4,4,0,0,0,4,0,3.74,3.74,0,0,0,1.44-1.46,4.14,4.14,0,0,0,.53-2,4,4,0,0,0-1.17-2.9A3.78,3.78,0,0,0,663.94,47.92Z"/><path class="cls-1" d="M681.67,46.91V57h-1.29V55.27a5.57,5.57,0,0,1-1.83,1.49,5.12,5.12,0,0,1-5.88-1,5.23,5.23,0,0,1-1.52-3.78,5.1,5.1,0,0,1,1.53-3.73,5,5,0,0,1,3.69-1.55,4.67,4.67,0,0,1,2.25.53,5.05,5.05,0,0,1,1.76,1.58V46.91Zm-5.2,1a4,4,0,0,0-2,.53,4,4,0,0,0-1.46,1.5A4.09,4.09,0,0,0,673,54a4,4,0,0,0,1.47,1.51,3.82,3.82,0,0,0,2,.54,4.16,4.16,0,0,0,2-.53A3.79,3.79,0,0,0,680,54.07a4.08,4.08,0,0,0,.52-2.07,4,4,0,0,0-1.16-2.92A3.8,3.8,0,0,0,676.47,47.9Z"/><path class="cls-1" d="M689.66,48l-.83.86a3,3,0,0,0-2-1,1.53,1.53,0,0,0-1.08.42,1.29,1.29,0,0,0-.45,1,1.44,1.44,0,0,0,.37.94,5.37,5.37,0,0,0,1.56,1.07,5.73,5.73,0,0,1,2,1.45,2.6,2.6,0,0,1,.51,1.58,2.87,2.87,0,0,1-.87,2.11,3,3,0,0,1-2.18.86,3.85,3.85,0,0,1-1.67-.38,3.58,3.58,0,0,1-1.32-1.05l.82-.93A2.84,2.84,0,0,0,686.56,56a1.93,1.93,0,0,0,1.33-.5,1.58,1.58,0,0,0,.55-1.18,1.54,1.54,0,0,0-.36-1,6,6,0,0,0-1.64-1.07,5.36,5.36,0,0,1-1.86-1.39,2.61,2.61,0,0,1-.49-1.57,2.54,2.54,0,0,1,.78-1.91,2.73,2.73,0,0,1,2-.76A4.08,4.08,0,0,1,689.66,48Z"/><path class="cls-1" d="M693.09,43.16h1.3v3.75h2.06V48h-2.06v9h-1.3V48h-1.77V46.91h1.77Z"/><path class="cls-1" d="M700.17,48.1l-.71-.4a8.41,8.41,0,0,0,.47-1.11,5.39,5.39,0,0,0,.18-1h-.82V43H701v1.6a8.35,8.35,0,0,1-.16,1.87A7.36,7.36,0,0,1,700.17,48.1Z"/><path class="cls-1" d="M710.15,48l-.84.86a3,3,0,0,0-2-1,1.53,1.53,0,0,0-1.08.42,1.29,1.29,0,0,0-.45,1,1.44,1.44,0,0,0,.37.94,5.37,5.37,0,0,0,1.56,1.07,5.63,5.63,0,0,1,2,1.45,2.54,2.54,0,0,1,.52,1.58,2.84,2.84,0,0,1-.88,2.11,3,3,0,0,1-2.18.86,3.88,3.88,0,0,1-1.67-.38,3.47,3.47,0,0,1-1.31-1.05l.81-.93A2.86,2.86,0,0,0,707,56a1.91,1.91,0,0,0,1.33-.5,1.55,1.55,0,0,0,.19-2.18,5.88,5.88,0,0,0-1.64-1.07,5.36,5.36,0,0,1-1.86-1.39,2.61,2.61,0,0,1-.49-1.57,2.51,2.51,0,0,1,.79-1.91,2.71,2.71,0,0,1,2-.76A4.1,4.1,0,0,1,710.15,48Z"/><path class="cls-1" d="M563,64.63h1.3v1.75A4.9,4.9,0,0,1,565.66,65a3.94,3.94,0,0,1,2.07-.6,3.51,3.51,0,0,1,1.4.29,3,3,0,0,1,1.08.77,4.39,4.39,0,0,1,.72,1.36,4.75,4.75,0,0,1,1.62-1.8,3.84,3.84,0,0,1,2.09-.62,3.31,3.31,0,0,1,1.85.53,3.19,3.19,0,0,1,1.19,1.48,7.86,7.86,0,0,1,.38,2.84v5.51h-1.32V69.22a7.4,7.4,0,0,0-.23-2.24,2,2,0,0,0-.79-1,2.37,2.37,0,0,0-1.34-.38,2.9,2.9,0,0,0-1.72.56,3.16,3.16,0,0,0-1.15,1.49,9.36,9.36,0,0,0-.36,3.09v4h-1.3V69.56a9,9,0,0,0-.22-2.48,2,2,0,0,0-.8-1,2.28,2.28,0,0,0-1.34-.4,3,3,0,0,0-1.69.55,3.29,3.29,0,0,0-1.16,1.46,7.9,7.9,0,0,0-.37,2.81v4.28H563Z"/><path class="cls-1" d="M585.58,64.37a5,5,0,0,1,3.87,1.69,5.43,5.43,0,0,1-.08,7.34,5.32,5.32,0,0,1-7.59,0,5.41,5.41,0,0,1-.08-7.33A5,5,0,0,1,585.58,64.37Zm0,1.27a3.76,3.76,0,0,0-2.79,1.2,4.2,4.2,0,0,0-.63,4.94,3.79,3.79,0,0,0,1.43,1.46,4.12,4.12,0,0,0,4,0A3.79,3.79,0,0,0,589,71.78a4.06,4.06,0,0,0,.53-2,4,4,0,0,0-1.17-2.9A3.74,3.74,0,0,0,585.58,65.64Z"/><path class="cls-1" d="M598.32,65.74l-.84.86a3,3,0,0,0-2-1,1.53,1.53,0,0,0-1.09.42,1.27,1.27,0,0,0-.45,1,1.49,1.49,0,0,0,.37.94A5.2,5.2,0,0,0,595.84,69a5.92,5.92,0,0,1,2,1.45,2.65,2.65,0,0,1,.51,1.59,2.8,2.8,0,0,1-.88,2.1,3,3,0,0,1-2.18.87,3.88,3.88,0,0,1-1.67-.38,3.67,3.67,0,0,1-1.31-1l.81-.93a2.85,2.85,0,0,0,2.11,1.12,1.87,1.87,0,0,0,1.33-.5,1.53,1.53,0,0,0,.55-1.18,1.51,1.51,0,0,0-.36-1A6.08,6.08,0,0,0,595.09,70a5.24,5.24,0,0,1-1.86-1.39,2.66,2.66,0,0,1-.49-1.57,2.54,2.54,0,0,1,.79-1.91,2.75,2.75,0,0,1,2-.76A4.12,4.12,0,0,1,598.32,65.74Z"/><path class="cls-1" d="M601.75,60.88h1.3v3.75h2.06v1.13h-2.06v9h-1.3v-9H600V64.63h1.77Z"/><path class="cls-1" d="M622.39,60.74v14h-1.28V73a5.61,5.61,0,0,1-1.83,1.5,5,5,0,0,1-2.22.5,4.92,4.92,0,0,1-3.66-1.56,5.2,5.2,0,0,1-1.52-3.78,5.13,5.13,0,0,1,1.53-3.73,5,5,0,0,1,3.68-1.55,4.79,4.79,0,0,1,2.25.53,5,5,0,0,1,1.77,1.59V60.74Zm-5.19,4.88a3.87,3.87,0,0,0-2,.54,3.83,3.83,0,0,0-1.46,1.5,4.07,4.07,0,0,0,0,4.07,4,4,0,0,0,1.46,1.52,3.88,3.88,0,0,0,2,.54,4,4,0,0,0,2-.54,3.73,3.73,0,0,0,1.47-1.45,4.18,4.18,0,0,0,.52-2.07A4,4,0,0,0,620,66.8,3.83,3.83,0,0,0,617.2,65.62Z"/><path class="cls-1" d="M633.83,71.38l1.1.57a5.92,5.92,0,0,1-1.25,1.71,5.06,5.06,0,0,1-1.59,1,5.61,5.61,0,0,1-2,.34,4.84,4.84,0,0,1-3.87-1.62,5.5,5.5,0,0,1-1.39-3.66A5.41,5.41,0,0,1,626,66.28a4.83,4.83,0,0,1,4-1.91,5,5,0,0,1,4.13,2,5.44,5.44,0,0,1,1.11,3.45h-9.08a4.13,4.13,0,0,0,1.12,2.89A3.59,3.59,0,0,0,630,73.79a4.32,4.32,0,0,0,1.5-.27,4.06,4.06,0,0,0,1.24-.71A6.23,6.23,0,0,0,633.83,71.38Zm0-2.72a4.13,4.13,0,0,0-.76-1.66,3.49,3.49,0,0,0-1.31-1,4,4,0,0,0-1.72-.38,3.67,3.67,0,0,0-2.55.95,4.3,4.3,0,0,0-1.18,2.09Z"/><path class="cls-1" d="M642.76,65.74l-.84.86a3,3,0,0,0-2-1,1.53,1.53,0,0,0-1.08.42,1.27,1.27,0,0,0-.45,1,1.44,1.44,0,0,0,.37.94A5.2,5.2,0,0,0,640.28,69a5.76,5.76,0,0,1,2,1.45,2.66,2.66,0,0,1,.52,1.59,2.84,2.84,0,0,1-.88,2.1,3,3,0,0,1-2.18.87,3.88,3.88,0,0,1-1.67-.38,3.67,3.67,0,0,1-1.31-1l.81-.93a2.85,2.85,0,0,0,2.11,1.12,1.87,1.87,0,0,0,1.33-.5,1.53,1.53,0,0,0,.55-1.18,1.51,1.51,0,0,0-.36-1A6.08,6.08,0,0,0,639.53,70a5.24,5.24,0,0,1-1.86-1.39,2.74,2.74,0,0,1,.29-3.48,2.79,2.79,0,0,1,2-.76A4.14,4.14,0,0,1,642.76,65.74Z"/><path class="cls-1" d="M645.51,60.48a1,1,0,0,1,.75.31,1.05,1.05,0,0,1,.32.76,1.07,1.07,0,0,1-2.14,0,1.05,1.05,0,0,1,.32-.76A1,1,0,0,1,645.51,60.48Zm-.65,4.15h1.3v10.1h-1.3Z"/><path class="cls-1" d="M648.37,64.63h1.33v1.48A4.64,4.64,0,0,1,651,64.8a2.51,2.51,0,0,1,1.37-.43,2.37,2.37,0,0,1,1.15.35l-.68,1.09a1.76,1.76,0,0,0-.68-.18,1.84,1.84,0,0,0-1.25.54,3.3,3.3,0,0,0-.92,1.65,16,16,0,0,0-.24,3.49v3.42h-1.33Z"/><path class="cls-1" d="M664.63,64.63v10.1h-1.28V73a5.61,5.61,0,0,1-1.83,1.5,5,5,0,0,1-2.22.5,4.92,4.92,0,0,1-3.66-1.56,5.2,5.2,0,0,1-1.52-3.78,5.13,5.13,0,0,1,1.53-3.73,5,5,0,0,1,3.68-1.55,4.79,4.79,0,0,1,2.25.53,5,5,0,0,1,1.77,1.59V64.63Zm-5.19,1a3.87,3.87,0,0,0-2,.54,3.83,3.83,0,0,0-1.46,1.5,4.09,4.09,0,0,0-.54,2,4.15,4.15,0,0,0,.54,2,4.05,4.05,0,0,0,1.47,1.52,3.88,3.88,0,0,0,2,.54,4,4,0,0,0,2-.54,3.73,3.73,0,0,0,1.47-1.45,4.18,4.18,0,0,0,.52-2.07,4,4,0,0,0-1.16-2.93A3.83,3.83,0,0,0,659.44,65.62Z"/><path class="cls-1" d="M667.64,74.73v-14h1.3v5.63a5.43,5.43,0,0,1,1.82-1.5,5,5,0,0,1,2.22-.5,4.91,4.91,0,0,1,3.65,1.56,5.39,5.39,0,0,1,0,7.51A5,5,0,0,1,672.94,75a4.71,4.71,0,0,1-2.23-.53,5.1,5.1,0,0,1-1.77-1.59v1.86Zm5.19-1a3.9,3.9,0,0,0,3.46-2,4.1,4.1,0,0,0,.54-2,4.19,4.19,0,0,0-2-3.57,3.84,3.84,0,0,0-2-.54,4.05,4.05,0,0,0-2,.54,3.82,3.82,0,0,0-1.47,1.46,4.24,4.24,0,0,0-.52,2.07A4.05,4.05,0,0,0,670,72.56,3.8,3.8,0,0,0,672.83,73.73Z"/><path class="cls-1" d="M680.32,60.74h1.3v14h-1.3Z"/><path class="cls-1" d="M692.82,71.38l1.09.57a5.9,5.9,0,0,1-1.24,1.71,5.06,5.06,0,0,1-1.59,1,5.66,5.66,0,0,1-2,.34,4.83,4.83,0,0,1-3.86-1.62,5.54,5.54,0,0,1-.21-7.09,4.82,4.82,0,0,1,4-1.91,5,5,0,0,1,4.12,2,5.51,5.51,0,0,1,1.12,3.45h-9.09a4.13,4.13,0,0,0,1.13,2.89A3.57,3.57,0,0,0,689,73.79a4.32,4.32,0,0,0,1.5-.27,3.84,3.84,0,0,0,1.24-.71A6.22,6.22,0,0,0,692.82,71.38Zm0-2.72a4.41,4.41,0,0,0-.76-1.66,3.49,3.49,0,0,0-1.31-1,4,4,0,0,0-1.72-.38,3.69,3.69,0,0,0-2.56.95,4.38,4.38,0,0,0-1.18,2.09Z"/><path class="cls-1" d="M698.1,72.69a1.09,1.09,0,0,1,.8.33,1.12,1.12,0,0,1,.34.82,1.14,1.14,0,0,1-.34.81,1.12,1.12,0,0,1-1.61,0,1.14,1.14,0,0,1-.34-.81,1.12,1.12,0,0,1,.34-.82A1.1,1.1,0,0,1,698.1,72.69Z"/><path class="cls-1" d="M703.36,72.69a1.09,1.09,0,0,1,.8.33,1.12,1.12,0,0,1,.34.82,1.14,1.14,0,0,1-.34.81,1.12,1.12,0,0,1-1.61,0,1.14,1.14,0,0,1-.34-.81,1.12,1.12,0,0,1,.34-.82A1.1,1.1,0,0,1,703.36,72.69Z"/><path class="cls-1" d="M708.62,72.69a1.09,1.09,0,0,1,.8.33,1.08,1.08,0,0,1,.34.82,1.14,1.14,0,0,1-2,.81,1.14,1.14,0,0,1-.34-.81,1.12,1.12,0,0,1,.34-.82A1.1,1.1,0,0,1,708.62,72.69Z"/><g class="cls-33"><image width="728" height="90" xlink:href="../../pds/luxury_travel-assets/img/728x90/1.jpg"/></g></g></g></svg>