<svg xmlns="http://www.w3.org/2000/svg" viewBox="0 0 1101.56 415.61"><defs><style>.cls-1{fill:#e4032e;}.cls-2{fill:#1d1d1b;}.cls-3{fill:#ffed00;}.cls-4{fill:#fff;}.cls-5{fill:#e10c32;}.cls-6{fill:#0a0b09;}.cls-7{fill:#fff051;}</style></defs><g id="Layer_2" data-name="Layer 2"><g id="ROCFL"><polygon class="cls-1" points="59.51 104.23 20.43 235.07 82.28 358.86 1062.76 266.27 1101.56 132.35 1039.99 11.64 59.51 104.23"/><polygon class="cls-2" points="1019.55 0 39.08 92.59 0 223.43 61.85 347.21 1042.33 254.63 1081.13 120.7 1019.55 0"/><path class="cls-3" d="M1010.1,222,1009,201.4l-31.72,2.91-6.07-66.14,26.87-2.47L994.39,113l1.37-2.72-26.87,2.47-4.51-49.08,30.1-2.76L993.22,56l.3-14.4-1.38-6.24-59.4,5.46,2.34,25.47,4.51,49.08,2.34,25.48,8.42,91.61,2.29-1.63,4.7,1,2.42-.23,19.89-1.82,31.71-2.92ZM923.18,67.41l-.39-4.21,1.12-5.52-1.67-.55,0-8.26.16-7.08L855,48l-1.22,4.36,3.56,21.12,34.94-3.21-30.56,165.9,1.74,1.25,4.1.33.19,2.1,20.7-1.9,2.54,1.18-.12-1.4,46.76-4.3.48-3.58-2.82-21.89-39.78,3.65L922.37,67.48ZM854,235.44l-1.75-10.21-16-174.11-3.89-1.06-25.53,2.35,15.35,167.1-27.68,2.54L779.24,55.65l-18.34,1L750,58.34l17.52,190.71,6.25.13,11.22-1.74,68.8-6.32ZM754.76,245.5l-1.08-20.64L722,227.78l-6.08-66.14,26.88-2.47L739,136.41l1.38-2.72-26.88,2.47L709,87.09l30.1-2.77-1.25-4.83.3-14.41-1.38-6.24L677.4,64.3l2.34,25.48,4.51,49.07,2.34,25.48L695,255.94l2.29-1.62,4.7,1,2.41-.22,19.89-1.83L756,250.34ZM643.09,156.31l-2.36.92L663.17,71l-10.41-1.16-13.08-3.75-6.32,2-21.15,82.55L604.89,71l-11.76,1.78-17.53.91L593.2,265.3l23-3.53,6.31.83-8.57-93.24,3.35,1.1L657.67,262l24.52-10.5.1,1.17,3.16-1Z"/><path class="cls-4" d="M573.86,262.12l-1.08-20.64-31.72,2.92L535,178.26l26.87-2.47L558.14,153l1.38-2.71-26.87,2.47-4.52-49.08,30.11-2.77L557,96.11l.3-14.41-1.38-6.23-59.4,5.46,2.34,25.47,4.51,49.08L505.69,181l8.42,91.61,2.29-1.62,4.7,1,2.41-.22,19.89-1.83L575.12,267Zm-74.61,11.81L481.64,82.29l-22.78,2.8L452.34,85l17.59,191.41,7-.41,9.61-1.59ZM411.4,123.39l10.9,127.44L395,258.05,382.11,117.36Zm-14,159.9L456,269.42l-3.38-10.29L439.32,105.74l-3.76.35.34-2.16,2.16-3L379.8,92.12l-10.48-1.87-.54,2.88-5.65.52-.93-1.33-.68,1.48-3.36-1.11.13,1.41h-7.85l17.69,192.57,6.92-1.34,9.68-.89.93,1.33,6.93-1.34,4.83-.45Zm-41.57-2.07L354,271,338,96.9l-3.9-1.06-25.53,2.35L324,265.29l-27.69,2.54L281,101.44l-18.34,1-10.95,1.72,17.52,190.7,6.25.13,11.22-1.74,68.81-6.32ZM245.13,129.71l-4.24-19.64,1.48-1.55-.38-4.21-75.53,6.94.72,16.67,1.62,8.81,23.92-2.2L208,300.93l4-1.08,12.7-.46,12.5-2.56L222,131.84ZM174.32,289.65l-8.78-95.59-.95-10.28-59.39,5.45-4.41-47.9,27.69-2.55,3.07,33.42L153,169.52h7.86l-2.92-31.78.81-.08-1.28-22.74,1.36-3-89.5,8.22,2.34,25.47,4.25,46.28.95,10.28.25,2.8.81-.07.69,7.48-.36,5,59.4-5.46,6.46,70.35L114,285.05l-4.57-49.78-4.21-1.49-25.2,3,6.88,74.78,7-.64,81.71-7.51.55-2.87Z"/><path class="cls-1" d="M818.08,307.8l-.22,57.72-10.69-56.34-3.82,1.11L793.2,312l-2.49-.15-.06-.75-.8.83-1.8-.59.51.71-3.06-.1-.8.83-1.11,57.42L772.29,312l-2.09.95-13.5,1.62,20.32,101,4.35,0,10-2.82,5.51-.13-.36.79,2.19.18.41-65.06,12.23,63.52,2.16-.2,1.33.26,5.83-1.29,5.94-.17,5.68.23L834,308.61l-3-.86ZM838,306.73l1.26,13.64,2.41,26.3,1.26,13.64,4.51,49.08,1.22-.87,2.52.53,1.3-.12,10.65-1,17-1.56-.67-2.59-.58-11.06-17,1.56-3.26-35.43,14.4-1.32-2-12.19.74-1.46-14.4,1.32L855,318.93l16.13-1.48-.68-2.59.17-7.72-.75-3.34Zm69.72-6.53L896.4,344.42l-3.92-42.7-6.3,1-9.39.49,9.43,102.66,12.31-1.89,3.38.45-4.59-50,1.8.59,21.64,49,13.13-5.62.06.62,1.69-.53-22.7-51.07-1.26.5,12-46.18-5.57-.63-7-2Zm23.59-2.05,1.26,13.65L935,338.09l1.26,13.65,4.51,49.08L942,400l2.52.52,1.3-.12,10.65-1,17-1.56-.67-2.59-.58-11.05-17,1.56-3.26-35.43,14.4-1.33-2-12.19.74-1.45-14.4,1.32-2.42-26.29,16.13-1.48-.68-2.59.17-7.72-.75-3.34Zm84.93-7.67,0,.37-14,.91,4.71,51.33-21.41-51.31-1.55,2-10.62,1.36-3.35-.07,9.38,102,5-.84,10.69-.61-4.88-53.08,21.39,51.06.07.75,3.39-1.07,9.71-.13,2.53-1L1018,290.32Z"/><polygon class="cls-5" points="59.51 104.23 20.43 235.07 82.28 358.86 1062.76 266.27 1101.56 132.35 1039.99 11.64 59.51 104.23"/><polygon class="cls-6" points="1019.55 0 39.08 92.59 0 223.43 61.85 347.21 1042.33 254.63 1081.13 120.7 1019.55 0"/><path class="cls-7" d="M1010.1,222,1009,201.4l-31.72,2.91-6.07-66.14,26.87-2.47L994.39,113l1.37-2.72-26.87,2.47-4.51-49.08,30.1-2.76L993.22,56l.3-14.4-1.38-6.24-59.4,5.46,2.34,25.47,4.51,49.08,2.34,25.48,8.42,91.61,2.29-1.63,4.7,1,2.42-.23,19.89-1.82,31.71-2.92ZM923.18,67.41l-.39-4.21,1.12-5.52-1.67-.55,0-8.26.16-7.08L855,48l-1.22,4.36,3.56,21.12,34.94-3.21-30.56,165.9,1.74,1.25,4.1.33.19,2.1,20.7-1.9,2.54,1.18-.12-1.4,46.76-4.3.48-3.58-2.82-21.89-39.78,3.65L922.37,67.48ZM854,235.44l-1.75-10.21-16-174.11-3.89-1.06-25.53,2.35,15.35,167.1-27.68,2.54L779.24,55.65l-18.34,1L750,58.34l17.52,190.71,6.25.13,11.22-1.74,68.8-6.32ZM754.76,245.5l-1.08-20.64L722,227.78l-6.08-66.14,26.88-2.47L739,136.41l1.38-2.72-26.88,2.47L709,87.09l30.1-2.77-1.25-4.83.3-14.41-1.38-6.24L677.4,64.3l2.34,25.48,4.51,49.07,2.34,25.48L695,255.94l2.29-1.62,4.7,1,2.41-.22,19.89-1.83L756,250.34ZM643.09,156.31l-2.36.92L663.17,71l-10.41-1.16-13.08-3.75-6.32,2-21.15,82.55L604.89,71l-11.76,1.78-17.53.91L593.2,265.3l23-3.53,6.31.83-8.57-93.24,3.35,1.1L657.67,262l24.52-10.5.1,1.17,3.16-1Z"/><path class="cls-4" d="M573.86,262.12l-1.08-20.64-31.72,2.92L535,178.26l26.87-2.47L558.14,153l1.38-2.71-26.87,2.47-4.52-49.08,30.11-2.77L557,96.11l.3-14.41-1.38-6.23-59.4,5.46,2.34,25.47,4.51,49.08L505.69,181l8.42,91.61,2.29-1.62,4.7,1,2.41-.22,19.89-1.83L575.12,267Zm-74.61,11.81L481.64,82.29l-22.78,2.8L452.34,85l17.59,191.41,7-.41,9.61-1.59ZM411.4,123.39l10.9,127.44L395,258.05,382.11,117.36Zm-14,159.9L456,269.42l-3.38-10.29L439.32,105.74l-3.76.35.34-2.16,2.16-3L379.8,92.12l-10.48-1.87-.54,2.88-5.65.52-.93-1.33-.68,1.48-3.36-1.11.13,1.41h-7.85l17.69,192.57,6.92-1.34,9.68-.89.93,1.33,6.93-1.34,4.83-.45Zm-41.57-2.07L354,271,338,96.9l-3.9-1.06-25.53,2.35L324,265.29l-27.69,2.54L281,101.44l-18.34,1-10.95,1.72,17.52,190.7,6.25.13,11.22-1.74,68.81-6.32ZM245.13,129.71l-4.24-19.64,1.48-1.55-.38-4.21-75.53,6.94.72,16.67,1.62,8.81,23.92-2.2L208,300.93l4-1.08,12.7-.46,12.5-2.56L222,131.84ZM174.32,289.65l-8.78-95.59-.95-10.28-59.39,5.45-4.41-47.9,27.69-2.55,3.07,33.42L153,169.52h7.86l-2.92-31.78.81-.08-1.28-22.74,1.36-3-89.5,8.22,2.34,25.47,4.25,46.28.95,10.28.25,2.8.81-.07.69,7.48-.36,5,59.4-5.46,6.46,70.35L114,285.05l-4.57-49.78-4.21-1.49-25.2,3,6.88,74.78,7-.64,81.71-7.51.55-2.87Z"/><path class="cls-6" d="M818.08,307.8l-.22,57.72-10.69-56.34-3.82,1.11L793.2,312l-2.49-.15-.06-.75-.8.83-1.8-.59.51.71-3.06-.1-.8.83-1.11,57.42L772.29,312l-2.09.95-13.5,1.62,20.32,101,4.35,0,10-2.82,5.51-.13-.36.79,2.19.18.41-65.06,12.23,63.52,2.16-.2,1.33.26,5.83-1.29,5.94-.17,5.68.23L834,308.61l-3-.86ZM838,306.73l1.26,13.64,2.41,26.3,1.26,13.64,4.51,49.08,1.22-.87,2.52.53,1.3-.12,10.65-1,17-1.56-.67-2.59-.58-11.06-17,1.56-3.26-35.43,14.4-1.32-2-12.19.74-1.46-14.4,1.32L855,318.93l16.13-1.48-.68-2.59.17-7.72-.75-3.34Zm69.72-6.53L896.4,344.42l-3.92-42.7-6.3,1-9.39.49,9.43,102.66,12.31-1.89,3.38.45-4.59-50,1.8.59,21.64,49,13.13-5.62.06.62,1.69-.53-22.7-51.07-1.26.5,12-46.18-5.57-.63-7-2Zm23.59-2.05,1.26,13.65L935,338.09l1.26,13.65,4.51,49.08L942,400l2.52.52,1.3-.12,10.65-1,17-1.56-.67-2.59-.58-11.05-17,1.56-3.26-35.43,14.4-1.33-2-12.19.74-1.45-14.4,1.32-2.42-26.29,16.13-1.48-.68-2.59.17-7.72-.75-3.34Zm84.93-7.67,0,.37-14,.91,4.71,51.33-21.41-51.31-1.55,2-10.62,1.36-3.35-.07,9.38,102,5-.84,10.69-.61-4.88-53.08,21.39,51.06.07.75,3.39-1.07,9.71-.13,2.53-1L1018,290.32Z"/></g></g></svg>