<?xml version="1.0" encoding="utf-8"?>
<!-- Generator: Adobe Illustrator 24.2.1, SVG Export Plug-In . SVG Version: 6.00 Build 0)  -->
<svg version="1.1" id="Layer_1" xmlns="http://www.w3.org/2000/svg" xmlns:xlink="http://www.w3.org/1999/xlink" x="0px" y="0px"
	 viewBox="0 0 83.5 166.2" style="enable-background:new 0 0 83.5 166.2;" xml:space="preserve">
<style type="text/css">
	.st0{font-family:'TapeFont';}
	.st1{font-size:54.2708px;}
</style>
<g>
	<path d="M27.5,103.7h-0.2v2.8l-0.5,1.1H11v-0.2H9.6l-1.4,0.2V65H8l0.2-1.9v-1.8L8,58.5h18.5L26.1,59v0.2h1.4V103.7z M14.7,64.7
		v36.6h6.2V64.7H14.7z"/>
	<path d="M53,107.6H37.7l-2.5,0.2l-1.4-0.2v-49l2.5-0.2l4.1,0.2v42.7h6.2V58.5h5.7l0.8,0.4v44.7l0.2,2.6L53,107.6z"/>
	<path d="M69.5,65v42.4l-2.8,0.4l-2.8-0.2l-0.9,0.2V65h-5.3l-0.2-2.3l0.2-4.3h16.9v1.1l-0.4,0.4l0.5,5.1H69.5z"/>
</g>
<g>
	<path d="M19.6,7v42.4l-2.8,0.4L14,49.6l-0.9,0.2V7H7.7L7.5,4.7l0.2-4.3h16.8v1.1l-0.4,0.4L24.7,7H19.6z"/>
	<path d="M47.8,49l-1.6,0.2l-3.7,1l-1.3-0.5l-5.3-22h-2.3v22l-0.4-0.4L27,49.7V0.8l0.9-0.4h15.2v0.4h1.8l1.4-0.2v26.5l-0.7,0.4v0.2
		h-0.4l-0.4,0.2h-2.3L47.8,49z M33.6,21.2h6.2V7h-6.2C33.6,7,33.6,21.2,33.6,21.2z"/>
	<path d="M62.1,24.8v24.8L61,49.4l-4.2,0.4l-1.3-0.5V24.8l-7.3-23L48.7,2l4.8-1.5l1-0.5l4.3,16.3L63,0l1.1,0.4l5.3,1.5L62.1,24.8z"
		/>
	<rect x="65.2" y="25.6" width="10" height="6"/>
</g>
<text transform="matrix(1 0 0 1 1.9844 163.8652)" class="st0 st1">TOUR</text>
</svg>
