<svg xmlns="http://www.w3.org/2000/svg" xmlns:xlink="http://www.w3.org/1999/xlink" viewBox="0 0 297.81 250"><defs><style>.cls-1,.cls-2,.cls-3,.cls-4,.cls-5,.cls-6,.cls-7{fill:#2d3948;}.cls-2{clip-path:url(#clip-path);}.cls-3{clip-path:url(#clip-path-2);}.cls-4{clip-path:url(#clip-path-3);}.cls-5{clip-path:url(#clip-path-4);}.cls-6{clip-path:url(#clip-path-5);}.cls-7{clip-path:url(#clip-path-6);}.cls-8{opacity:0.85;}.cls-9{clip-path:url(#clip-path-7);}</style><clipPath id="clip-path"><path class="cls-1" d="M216.14,226.09v-8.5h5v.24H216.4v3.74h4.42v.24H216.4v4h4.89v.24Z"/></clipPath><clipPath id="clip-path-2"><path class="cls-2" d="M224.64,223.35l-2,2.74h-.34l2.19-2.92-1.91-2.6h.34l1.75,2.42,1.74-2.42h.35l-1.92,2.6,2.21,2.92h-.34Z"/></clipPath><clipPath id="clip-path-3"><path class="cls-3" d="M228.91,222.07a2.72,2.72,0,0,1,1-1.25,2.67,2.67,0,0,1,1.46-.42,2.89,2.89,0,0,1,1.11.22,2.65,2.65,0,0,1,.88.62,2.72,2.72,0,0,1,.56.93,3.42,3.42,0,0,1,.2,1.17,3.36,3.36,0,0,1-.2,1.16,2.86,2.86,0,0,1-.57.92,2.75,2.75,0,0,1-.88.62,2.84,2.84,0,0,1-1.88.11,2.61,2.61,0,0,1-.7-.32,2.8,2.8,0,0,1-.58-.51,2.35,2.35,0,0,1-.42-.72h0V229h-.28v-8.4h.28v1.5Zm5,1.27a3,3,0,0,0-.17-1,2.38,2.38,0,0,0-.5-.86,2.31,2.31,0,0,0-1.82-.82,2.29,2.29,0,0,0-1,.22,2.38,2.38,0,0,0-.79.58,2.59,2.59,0,0,0-.53.86,2.94,2.94,0,0,0,0,2.08,2.59,2.59,0,0,0,.53.86,2.38,2.38,0,0,0,.79.58,2.29,2.29,0,0,0,1,.22,2.33,2.33,0,0,0,1-.22,2.16,2.16,0,0,0,.78-.58,2.38,2.38,0,0,0,.5-.86A2.93,2.93,0,0,0,233.87,223.34Z"/></clipPath><clipPath id="clip-path-4"><path class="cls-4" d="M236.11,226.09V217h.26v9.07Z"/></clipPath><clipPath id="clip-path-5"><path class="cls-5" d="M244.11,223.32a3.27,3.27,0,0,1-.21,1.19,2.79,2.79,0,0,1-.59.93,2.71,2.71,0,0,1-.92.6,3,3,0,0,1-1.17.22,3,3,0,0,1-1.17-.22,2.67,2.67,0,0,1-.91-.6,2.79,2.79,0,0,1-.59-.93,3.27,3.27,0,0,1-.21-1.19,3.18,3.18,0,0,1,.21-1.18,2.63,2.63,0,0,1,1.5-1.52,3,3,0,0,1,1.17-.22,3,3,0,0,1,1.17.22,2.71,2.71,0,0,1,.92.6,2.65,2.65,0,0,1,.59.92A3.18,3.18,0,0,1,244.11,223.32Zm-.26,0a3,3,0,0,0-.18-1,2.49,2.49,0,0,0-.53-.85,2.31,2.31,0,0,0-.82-.58,2.77,2.77,0,0,0-1.1-.21,2.68,2.68,0,0,0-1.09.21,2.44,2.44,0,0,0-.83.58,2.63,2.63,0,0,0-.52.85,3,3,0,0,0-.18,1,3,3,0,0,0,.18,1.05,2.57,2.57,0,0,0,.52.86,2.44,2.44,0,0,0,.83.58,2.53,2.53,0,0,0,1.09.22,2.6,2.6,0,0,0,1.1-.22,2.31,2.31,0,0,0,.82-.58,2.44,2.44,0,0,0,.53-.86A3,3,0,0,0,243.85,223.32Z"/></clipPath><clipPath id="clip-path-6"><path class="cls-6" d="M247.16,220.78a1.93,1.93,0,0,1,1.14-.38h.21v.23h-.15a1.72,1.72,0,0,0-.9.23,1.9,1.9,0,0,0-.61.62,2.88,2.88,0,0,0-.36.84,4,4,0,0,0-.11.91v2.86h-.27v-4.45c0-.13,0-.26,0-.39s0-.26,0-.38,0-.22,0-.3h.27c0,.08,0,.18,0,.3s0,.25,0,.39,0,.28,0,.41,0,.25,0,.35h0A2.2,2.2,0,0,1,247.16,220.78Z"/></clipPath><clipPath id="clip-path-7"><path class="cls-7" d="M249.45,223.27a3.41,3.41,0,0,0,.15,1,2.65,2.65,0,0,0,.46.88,2.27,2.27,0,0,0,.77.63,2.39,2.39,0,0,0,1.11.24,2.53,2.53,0,0,0,1.15-.26A2.57,2.57,0,0,0,254,225l.2.17a2.8,2.8,0,0,1-1,.8,2.69,2.69,0,0,1-1.26.28,2.9,2.9,0,0,1-1.12-.22,2.6,2.6,0,0,1-.87-.62,2.66,2.66,0,0,1-.56-.95,3.36,3.36,0,0,1-.2-1.2,3.27,3.27,0,0,1,.2-1.15,2.79,2.79,0,0,1,.56-.91,2.49,2.49,0,0,1,.84-.6,2.53,2.53,0,0,1,1-.21,2.65,2.65,0,0,1,1.13.23,2.31,2.31,0,0,1,.8.6,2.64,2.64,0,0,1,.48.85,3.11,3.11,0,0,1,.15,1v.23Zm4.67-.23a2.76,2.76,0,0,0-.19-1,2.17,2.17,0,0,0-.47-.76,2,2,0,0,0-.72-.5,2.54,2.54,0,0,0-.94-.17,2.08,2.08,0,0,0-1.06.26,2.36,2.36,0,0,0-.73.63,2.54,2.54,0,0,0-.41.8,2.33,2.33,0,0,0-.14.72Z"/></clipPath></defs><title>buttontext</title><g id="Layer_2" data-name="Layer 2"><g id="Layer_1-2" data-name="Layer 1"><g class="cls-8"><path class="cls-1" d="M216.14,226.09v-8.5h5v.24H216.4v3.74h4.42v.24H216.4v4h4.89v.24Z"/><path class="cls-1" d="M224.64,223.35l-2,2.74h-.34l2.19-2.92-1.91-2.6h.34l1.75,2.42,1.74-2.42h.35l-1.92,2.6,2.21,2.92h-.34Z"/><path class="cls-1" d="M228.91,222.07a2.72,2.72,0,0,1,1-1.25,2.67,2.67,0,0,1,1.46-.42,2.89,2.89,0,0,1,1.11.22,2.65,2.65,0,0,1,.88.62,2.72,2.72,0,0,1,.56.93,3.42,3.42,0,0,1,.2,1.17,3.36,3.36,0,0,1-.2,1.16,2.86,2.86,0,0,1-.57.92,2.75,2.75,0,0,1-.88.62,2.84,2.84,0,0,1-1.88.11,2.61,2.61,0,0,1-.7-.32,2.8,2.8,0,0,1-.58-.51,2.35,2.35,0,0,1-.42-.72h0V229h-.28v-8.4h.28v1.5Zm5,1.27a3,3,0,0,0-.17-1,2.38,2.38,0,0,0-.5-.86,2.31,2.31,0,0,0-1.82-.82,2.29,2.29,0,0,0-1,.22,2.38,2.38,0,0,0-.79.58,2.59,2.59,0,0,0-.53.86,2.94,2.94,0,0,0,0,2.08,2.59,2.59,0,0,0,.53.86,2.38,2.38,0,0,0,.79.58,2.29,2.29,0,0,0,1,.22,2.33,2.33,0,0,0,1-.22,2.16,2.16,0,0,0,.78-.58,2.38,2.38,0,0,0,.5-.86A2.93,2.93,0,0,0,233.87,223.34Z"/><path class="cls-1" d="M236.11,226.09V217h.26v9.07Z"/><path class="cls-1" d="M244.11,223.32a3.27,3.27,0,0,1-.21,1.19,2.79,2.79,0,0,1-.59.93,2.71,2.71,0,0,1-.92.6,3,3,0,0,1-1.17.22,3,3,0,0,1-1.17-.22,2.67,2.67,0,0,1-.91-.6,2.79,2.79,0,0,1-.59-.93,3.27,3.27,0,0,1-.21-1.19,3.18,3.18,0,0,1,.21-1.18,2.63,2.63,0,0,1,1.5-1.52,3,3,0,0,1,1.17-.22,3,3,0,0,1,1.17.22,2.71,2.71,0,0,1,.92.6,2.65,2.65,0,0,1,.59.92A3.18,3.18,0,0,1,244.11,223.32Zm-.26,0a3,3,0,0,0-.18-1,2.49,2.49,0,0,0-.53-.85,2.31,2.31,0,0,0-.82-.58,2.77,2.77,0,0,0-1.1-.21,2.68,2.68,0,0,0-1.09.21,2.44,2.44,0,0,0-.83.58,2.63,2.63,0,0,0-.52.85,3,3,0,0,0-.18,1,3,3,0,0,0,.18,1.05,2.57,2.57,0,0,0,.52.86,2.44,2.44,0,0,0,.83.58,2.53,2.53,0,0,0,1.09.22,2.6,2.6,0,0,0,1.1-.22,2.31,2.31,0,0,0,.82-.58,2.44,2.44,0,0,0,.53-.86A3,3,0,0,0,243.85,223.32Z"/><path class="cls-1" d="M247.16,220.78a1.93,1.93,0,0,1,1.14-.38h.21v.23h-.15a1.72,1.72,0,0,0-.9.23,1.9,1.9,0,0,0-.61.62,2.88,2.88,0,0,0-.36.84,4,4,0,0,0-.11.91v2.86h-.27v-4.45c0-.13,0-.26,0-.39s0-.26,0-.38,0-.22,0-.3h.27c0,.08,0,.18,0,.3s0,.25,0,.39,0,.28,0,.41,0,.25,0,.35h0A2.2,2.2,0,0,1,247.16,220.78Z"/><path class="cls-1" d="M249.45,223.27a3.41,3.41,0,0,0,.15,1,2.65,2.65,0,0,0,.46.88,2.27,2.27,0,0,0,.77.63,2.39,2.39,0,0,0,1.11.24,2.53,2.53,0,0,0,1.15-.26A2.57,2.57,0,0,0,254,225l.2.17a2.8,2.8,0,0,1-1,.8,2.69,2.69,0,0,1-1.26.28,2.9,2.9,0,0,1-1.12-.22,2.6,2.6,0,0,1-.87-.62,2.66,2.66,0,0,1-.56-.95,3.36,3.36,0,0,1-.2-1.2,3.27,3.27,0,0,1,.2-1.15,2.79,2.79,0,0,1,.56-.91,2.49,2.49,0,0,1,.84-.6,2.53,2.53,0,0,1,1-.21,2.65,2.65,0,0,1,1.13.23,2.31,2.31,0,0,1,.8.6,2.64,2.64,0,0,1,.48.85,3.11,3.11,0,0,1,.15,1v.23Zm4.67-.23a2.76,2.76,0,0,0-.19-1,2.17,2.17,0,0,0-.47-.76,2,2,0,0,0-.72-.5,2.54,2.54,0,0,0-.94-.17,2.08,2.08,0,0,0-1.06.26,2.36,2.36,0,0,0-.73.63,2.54,2.54,0,0,0-.41.8,2.33,2.33,0,0,0-.14.72Z"/><g class="cls-9"><rect class="cls-1" width="297.81" height="250"/></g></g></g></g></svg>