<svg xmlns="http://www.w3.org/2000/svg" xmlns:xlink="http://www.w3.org/1999/xlink" viewBox="0 0 300 601"><defs><style>.cls-1,.cls-10,.cls-11,.cls-12,.cls-14,.cls-2,.cls-3,.cls-4,.cls-5,.cls-6,.cls-7,.cls-8,.cls-9{fill:#dce9b8;}.cls-2{clip-path:url(#clip-path);}.cls-3{clip-path:url(#clip-path-2);}.cls-4{clip-path:url(#clip-path-11);}.cls-5{clip-path:url(#clip-path-3);}.cls-6{clip-path:url(#clip-path-4);}.cls-7{clip-path:url(#clip-path-5);}.cls-8{clip-path:url(#clip-path-6);}.cls-9{clip-path:url(#clip-path-7);}.cls-10{clip-path:url(#clip-path-8);}.cls-11{clip-path:url(#clip-path-9);}.cls-12{clip-path:url(#clip-path-10);}.cls-13{clip-path:url(#clip-path-12);}.cls-14{opacity:0.85;}</style><clipPath id="clip-path"><path class="cls-1" d="M57,304.28l1.68-1q1.78,3.27,4.11,3.27a3.9,3.9,0,0,0,1.87-.47,3.21,3.21,0,0,0,1.79-2.9,3.35,3.35,0,0,0-.67-1.95,16.21,16.21,0,0,0-3.39-3.18,17.7,17.7,0,0,1-3.09-2.71,4.93,4.93,0,0,1-1-3,4.65,4.65,0,0,1,.62-2.36,4.4,4.4,0,0,1,1.75-1.67,5,5,0,0,1,2.44-.62,5.25,5.25,0,0,1,2.62.7,9,9,0,0,1,2.58,2.55l-1.62,1.23a7.87,7.87,0,0,0-1.9-2,3.34,3.34,0,0,0-1.72-.47,2.7,2.7,0,0,0-2,.73,2.36,2.36,0,0,0-.76,1.79,3,3,0,0,0,.27,1.25,4.56,4.56,0,0,0,1,1.32c.26.25,1.12.91,2.56,2a14.58,14.58,0,0,1,3.53,3.38,5.44,5.44,0,0,1,1,3A5,5,0,0,1,67,306.88a5.5,5.5,0,0,1-4,1.59,5.85,5.85,0,0,1-3.27-1A8.83,8.83,0,0,1,57,304.28Z"/></clipPath><clipPath id="clip-path-2"><path class="cls-4" d="M203.89,293.32h1.88V296a7.9,7.9,0,0,1,2.51-2.26,6.12,6.12,0,0,1,3-.75,5.15,5.15,0,0,1,2.91.84,5,5,0,0,1,1.88,2.25,11.73,11.73,0,0,1,.61,4.4V308h-1.89v-7a17.29,17.29,0,0,0-.21-3.38,3.66,3.66,0,0,0-1.25-2.18,3.81,3.81,0,0,0-2.43-.74,4.66,4.66,0,0,0-3.06,1.13,5.31,5.31,0,0,0-1.79,2.8,19.5,19.5,0,0,0-.27,4V308h-1.88Z"/></clipPath><clipPath id="clip-path-3"><path class="cls-3" d="M233.34,293.32h1.89V305a13.72,13.72,0,0,1-.54,4.51,5.85,5.85,0,0,1-2.57,3.11,8.44,8.44,0,0,1-4.41,1.09,10.31,10.31,0,0,1-3.39-.53,6.82,6.82,0,0,1-2.44-1.43,8.56,8.56,0,0,1-1.74-2.63h2.05a5.38,5.38,0,0,0,2.16,2.15,6.89,6.89,0,0,0,3.28.7,6.73,6.73,0,0,0,3.25-.71,4.4,4.4,0,0,0,1.9-1.81,8.15,8.15,0,0,0,.56-3.51v-.75a7.13,7.13,0,0,1-2.6,2.06,7.44,7.44,0,0,1-3.26.73,7.59,7.59,0,0,1-3.8-1,7.07,7.07,0,0,1-2.75-2.7,7.58,7.58,0,0,1,2.83-10.3,7.5,7.5,0,0,1,3.77-1,7.07,7.07,0,0,1,3.07.68,8.56,8.56,0,0,1,2.74,2.25Zm-5.56,1.44a6,6,0,0,0-3,.78,5.6,5.6,0,0,0-2.15,2.14,5.87,5.87,0,0,0-.78,3,5.35,5.35,0,0,0,1.61,4,5.77,5.77,0,0,0,4.19,1.58,5.64,5.64,0,0,0,4.18-1.57,5.49,5.49,0,0,0,1.59-4.1,6,6,0,0,0-.73-3,5.21,5.21,0,0,0-2.06-2.05A5.68,5.68,0,0,0,227.78,294.76Z"/></clipPath><clipPath id="clip-path-4"><path class="cls-2" d="M74.12,287.88H76v5.44h3V295H76v13H74.12V295H71.55v-1.63h2.57Z"/></clipPath><clipPath id="clip-path-5"><path class="cls-6" d="M96.42,293.32V308H94.56v-2.52a7.93,7.93,0,0,1-2.66,2.16,7.09,7.09,0,0,1-3.22.73,7.17,7.17,0,0,1-5.32-2.25,7.62,7.62,0,0,1-2.2-5.49,7.44,7.44,0,0,1,2.22-5.42,7.27,7.27,0,0,1,5.35-2.25,7,7,0,0,1,3.27.77,7.41,7.41,0,0,1,2.56,2.3v-2.69Zm-7.53,1.44a5.72,5.72,0,0,0-5,2.95,6,6,0,0,0,0,5.92,5.85,5.85,0,0,0,2.13,2.2,5.61,5.61,0,0,0,2.87.79,6,6,0,0,0,2.94-.79,5.47,5.47,0,0,0,2.13-2.11,6,6,0,0,0,.74-3A5.82,5.82,0,0,0,93,296.47,5.55,5.55,0,0,0,88.89,294.76Z"/></clipPath><clipPath id="clip-path-6"><path class="cls-7" d="M99.09,293.32h2l5,11.29L111,293.32h2l-8.74,20h-2l2.82-6.47Z"/></clipPath><clipPath id="clip-path-7"><path class="cls-8" d="M137.69,293.32V308h-1.86v-2.52a8,8,0,0,1-2.66,2.16,7.43,7.43,0,0,1-8.54-1.52,7.58,7.58,0,0,1-2.2-5.49,7.44,7.44,0,0,1,2.22-5.42,7.25,7.25,0,0,1,5.35-2.25,7,7,0,0,1,3.27.77,7.5,7.5,0,0,1,2.56,2.3v-2.69Zm-7.54,1.44a5.72,5.72,0,0,0-5,2.95,5.89,5.89,0,0,0-.79,3,6,6,0,0,0,.8,3,5.78,5.78,0,0,0,2.13,2.2,5.61,5.61,0,0,0,2.87.79,5.88,5.88,0,0,0,2.93-.79,5.43,5.43,0,0,0,2.14-2.11,6.12,6.12,0,0,0,.74-3,5.86,5.86,0,0,0-1.67-4.25A5.55,5.55,0,0,0,130.15,294.76Z"/></clipPath><clipPath id="clip-path-8"><path class="cls-9" d="M141.92,293.32h1.88v2.53a7.27,7.27,0,0,1,2-2,5.67,5.67,0,0,1,3-.87,5,5,0,0,1,2,.42,4.32,4.32,0,0,1,1.56,1.11,5.76,5.76,0,0,1,1.05,2,7,7,0,0,1,2.35-2.62,5.56,5.56,0,0,1,3-.9,4.76,4.76,0,0,1,2.68.77,4.59,4.59,0,0,1,1.73,2.14,11.6,11.6,0,0,1,.56,4.12v8h-1.92v-8a10.43,10.43,0,0,0-.34-3.23,2.93,2.93,0,0,0-1.15-1.43,3.5,3.5,0,0,0-1.94-.53,4.25,4.25,0,0,0-2.5.8,4.65,4.65,0,0,0-1.66,2.16,13.68,13.68,0,0,0-.52,4.5V308h-1.89v-7.51a12.83,12.83,0,0,0-.33-3.6,3,3,0,0,0-1.15-1.52,3.34,3.34,0,0,0-2-.57,4.26,4.26,0,0,0-2.45.78,4.67,4.67,0,0,0-1.68,2.13,11.43,11.43,0,0,0-.55,4.08V308h-1.88Z"/></clipPath><clipPath id="clip-path-9"><path class="cls-10" d="M182.4,293.32V308h-1.85v-2.52a8,8,0,0,1-2.66,2.16,7.43,7.43,0,0,1-8.54-1.52,7.58,7.58,0,0,1-2.2-5.49,7.44,7.44,0,0,1,2.22-5.42,7.23,7.23,0,0,1,5.34-2.25,6.92,6.92,0,0,1,3.27.77,7.52,7.52,0,0,1,2.57,2.3v-2.69Zm-7.53,1.44a5.67,5.67,0,0,0-2.91.78,5.74,5.74,0,0,0-2.12,2.17,6,6,0,0,0,0,5.92,5.85,5.85,0,0,0,2.13,2.2,5.65,5.65,0,0,0,2.88.79,5.91,5.91,0,0,0,2.93-.79,5.47,5.47,0,0,0,2.13-2.11,6,6,0,0,0,.75-3,5.83,5.83,0,0,0-1.68-4.25A5.53,5.53,0,0,0,174.87,294.76Z"/></clipPath><clipPath id="clip-path-10"><path class="cls-11" d="M185.45,293.32h10.76l-8.3,13h8V308H184.67L193,295h-7.51Z"/></clipPath><clipPath id="clip-path-11"><path class="cls-12" d="M199,287.29a1.55,1.55,0,1,1-1.09.46A1.49,1.49,0,0,1,199,287.29Zm-.94,6H200V308h-1.89Z"/></clipPath><clipPath id="clip-path-12"><path class="cls-5" d="M241.34,305a1.66,1.66,0,0,1,1.66,1.67,1.63,1.63,0,0,1-.48,1.18,1.6,1.6,0,0,1-1.18.49,1.56,1.56,0,0,1-1.17-.49,1.63,1.63,0,0,1-.48-1.18,1.61,1.61,0,0,1,.48-1.18A1.56,1.56,0,0,1,241.34,305Z"/></clipPath></defs><title>text4</title><g id="Layer_2" data-name="Layer 2"><g id="Layer_1-2" data-name="Layer 1"><path class="cls-1" d="M57,304.28l1.68-1q1.78,3.27,4.11,3.27a3.9,3.9,0,0,0,1.87-.47,3.21,3.21,0,0,0,1.79-2.9,3.35,3.35,0,0,0-.67-1.95,16.21,16.21,0,0,0-3.39-3.18,17.7,17.7,0,0,1-3.09-2.71,4.93,4.93,0,0,1-1-3,4.65,4.65,0,0,1,.62-2.36,4.4,4.4,0,0,1,1.75-1.67,5,5,0,0,1,2.44-.62,5.25,5.25,0,0,1,2.62.7,9,9,0,0,1,2.58,2.55l-1.62,1.23a7.87,7.87,0,0,0-1.9-2,3.34,3.34,0,0,0-1.72-.47,2.7,2.7,0,0,0-2,.73,2.36,2.36,0,0,0-.76,1.79,3,3,0,0,0,.27,1.25,4.56,4.56,0,0,0,1,1.32c.26.25,1.12.91,2.56,2a14.58,14.58,0,0,1,3.53,3.38,5.44,5.44,0,0,1,1,3A5,5,0,0,1,67,306.88a5.5,5.5,0,0,1-4,1.59,5.85,5.85,0,0,1-3.27-1A8.83,8.83,0,0,1,57,304.28Z"/><path class="cls-1" d="M74.12,287.88H76v5.44h3V295H76v13H74.12V295H71.55v-1.63h2.57Z"/><path class="cls-1" d="M96.42,293.32V308H94.56v-2.52a7.93,7.93,0,0,1-2.66,2.16,7.09,7.09,0,0,1-3.22.73,7.17,7.17,0,0,1-5.32-2.25,7.62,7.62,0,0,1-2.2-5.49,7.44,7.44,0,0,1,2.22-5.42,7.27,7.27,0,0,1,5.35-2.25,7,7,0,0,1,3.27.77,7.41,7.41,0,0,1,2.56,2.3v-2.69Zm-7.53,1.44a5.72,5.72,0,0,0-5,2.95,6,6,0,0,0,0,5.92,5.85,5.85,0,0,0,2.13,2.2,5.61,5.61,0,0,0,2.87.79,6,6,0,0,0,2.94-.79,5.47,5.47,0,0,0,2.13-2.11,6,6,0,0,0,.74-3A5.82,5.82,0,0,0,93,296.47,5.55,5.55,0,0,0,88.89,294.76Z"/><path class="cls-1" d="M99.09,293.32h2l5,11.29L111,293.32h2l-8.74,20h-2l2.82-6.47Z"/><path class="cls-1" d="M137.69,293.32V308h-1.86v-2.52a8,8,0,0,1-2.66,2.16,7.43,7.43,0,0,1-8.54-1.52,7.58,7.58,0,0,1-2.2-5.49,7.44,7.44,0,0,1,2.22-5.42,7.25,7.25,0,0,1,5.35-2.25,7,7,0,0,1,3.27.77,7.5,7.5,0,0,1,2.56,2.3v-2.69Zm-7.54,1.44a5.72,5.72,0,0,0-5,2.95,5.89,5.89,0,0,0-.79,3,6,6,0,0,0,.8,3,5.78,5.78,0,0,0,2.13,2.2,5.61,5.61,0,0,0,2.87.79,5.88,5.88,0,0,0,2.93-.79,5.43,5.43,0,0,0,2.14-2.11,6.12,6.12,0,0,0,.74-3,5.86,5.86,0,0,0-1.67-4.25A5.55,5.55,0,0,0,130.15,294.76Z"/><path class="cls-1" d="M141.92,293.32h1.88v2.53a7.27,7.27,0,0,1,2-2,5.67,5.67,0,0,1,3-.87,5,5,0,0,1,2,.42,4.32,4.32,0,0,1,1.56,1.11,5.76,5.76,0,0,1,1.05,2,7,7,0,0,1,2.35-2.62,5.56,5.56,0,0,1,3-.9,4.76,4.76,0,0,1,2.68.77,4.59,4.59,0,0,1,1.73,2.14,11.6,11.6,0,0,1,.56,4.12v8h-1.92v-8a10.43,10.43,0,0,0-.34-3.23,2.93,2.93,0,0,0-1.15-1.43,3.5,3.5,0,0,0-1.94-.53,4.25,4.25,0,0,0-2.5.8,4.65,4.65,0,0,0-1.66,2.16,13.68,13.68,0,0,0-.52,4.5V308h-1.89v-7.51a12.83,12.83,0,0,0-.33-3.6,3,3,0,0,0-1.15-1.52,3.34,3.34,0,0,0-2-.57,4.26,4.26,0,0,0-2.45.78,4.67,4.67,0,0,0-1.68,2.13,11.43,11.43,0,0,0-.55,4.08V308h-1.88Z"/><path class="cls-1" d="M182.4,293.32V308h-1.85v-2.52a8,8,0,0,1-2.66,2.16,7.43,7.43,0,0,1-8.54-1.52,7.58,7.58,0,0,1-2.2-5.49,7.44,7.44,0,0,1,2.22-5.42,7.23,7.23,0,0,1,5.34-2.25,6.92,6.92,0,0,1,3.27.77,7.52,7.52,0,0,1,2.57,2.3v-2.69Zm-7.53,1.44a5.67,5.67,0,0,0-2.91.78,5.74,5.74,0,0,0-2.12,2.17,6,6,0,0,0,0,5.92,5.85,5.85,0,0,0,2.13,2.2,5.65,5.65,0,0,0,2.88.79,5.91,5.91,0,0,0,2.93-.79,5.47,5.47,0,0,0,2.13-2.11,6,6,0,0,0,.75-3,5.83,5.83,0,0,0-1.68-4.25A5.53,5.53,0,0,0,174.87,294.76Z"/><path class="cls-1" d="M185.45,293.32h10.76l-8.3,13h8V308H184.67L193,295h-7.51Z"/><path class="cls-1" d="M199,287.29a1.55,1.55,0,1,1-1.09.46A1.49,1.49,0,0,1,199,287.29Zm-.94,6H200V308h-1.89Z"/><path class="cls-1" d="M203.89,293.32h1.88V296a7.9,7.9,0,0,1,2.51-2.26,6.12,6.12,0,0,1,3-.75,5.15,5.15,0,0,1,2.91.84,5,5,0,0,1,1.88,2.25,11.73,11.73,0,0,1,.61,4.4V308h-1.89v-7a17.29,17.29,0,0,0-.21-3.38,3.66,3.66,0,0,0-1.25-2.18,3.81,3.81,0,0,0-2.43-.74,4.66,4.66,0,0,0-3.06,1.13,5.31,5.31,0,0,0-1.79,2.8,19.5,19.5,0,0,0-.27,4V308h-1.88Z"/><path class="cls-1" d="M233.34,293.32h1.89V305a13.72,13.72,0,0,1-.54,4.51,5.85,5.85,0,0,1-2.57,3.11,8.44,8.44,0,0,1-4.41,1.09,10.31,10.31,0,0,1-3.39-.53,6.82,6.82,0,0,1-2.44-1.43,8.56,8.56,0,0,1-1.74-2.63h2.05a5.38,5.38,0,0,0,2.16,2.15,6.89,6.89,0,0,0,3.28.7,6.73,6.73,0,0,0,3.25-.71,4.4,4.4,0,0,0,1.9-1.81,8.15,8.15,0,0,0,.56-3.51v-.75a7.13,7.13,0,0,1-2.6,2.06,7.44,7.44,0,0,1-3.26.73,7.59,7.59,0,0,1-3.8-1,7.07,7.07,0,0,1-2.75-2.7,7.58,7.58,0,0,1,2.83-10.3,7.5,7.5,0,0,1,3.77-1,7.07,7.07,0,0,1,3.07.68,8.56,8.56,0,0,1,2.74,2.25Zm-5.56,1.44a6,6,0,0,0-3,.78,5.6,5.6,0,0,0-2.15,2.14,5.87,5.87,0,0,0-.78,3,5.35,5.35,0,0,0,1.61,4,5.77,5.77,0,0,0,4.19,1.58,5.64,5.64,0,0,0,4.18-1.57,5.49,5.49,0,0,0,1.59-4.1,6,6,0,0,0-.73-3,5.21,5.21,0,0,0-2.06-2.05A5.68,5.68,0,0,0,227.78,294.76Z"/><path class="cls-1" d="M241.34,305a1.66,1.66,0,0,1,1.66,1.67,1.63,1.63,0,0,1-.48,1.18,1.6,1.6,0,0,1-1.18.49,1.56,1.56,0,0,1-1.17-.49,1.63,1.63,0,0,1-.48-1.18,1.61,1.61,0,0,1,.48-1.18A1.56,1.56,0,0,1,241.34,305Z"/><g class="cls-13"><rect class="cls-14" width="300" height="601"/></g></g></g></svg>