<svg xmlns="http://www.w3.org/2000/svg" xmlns:xlink="http://www.w3.org/1999/xlink" viewBox="0 0 320 50"><defs><style>.cls-1,.cls-10,.cls-11,.cls-12,.cls-13,.cls-14,.cls-15,.cls-16,.cls-17,.cls-18,.cls-19,.cls-2,.cls-20,.cls-21,.cls-22,.cls-23,.cls-24,.cls-3,.cls-4,.cls-5,.cls-6,.cls-7,.cls-8,.cls-9{fill:#fff;}.cls-2{clip-path:url(#clip-path);}.cls-3{clip-path:url(#clip-path-2);}.cls-4{clip-path:url(#clip-path-23);}.cls-5{clip-path:url(#clip-path-3);}.cls-6{clip-path:url(#clip-path-4);}.cls-7{clip-path:url(#clip-path-5);}.cls-8{clip-path:url(#clip-path-6);}.cls-9{clip-path:url(#clip-path-7);}.cls-10{clip-path:url(#clip-path-8);}.cls-11{clip-path:url(#clip-path-9);}.cls-12{clip-path:url(#clip-path-10);}.cls-13{clip-path:url(#clip-path-11);}.cls-14{clip-path:url(#clip-path-12);}.cls-15{clip-path:url(#clip-path-13);}.cls-16{clip-path:url(#clip-path-14);}.cls-17{clip-path:url(#clip-path-15);}.cls-18{clip-path:url(#clip-path-16);}.cls-19{clip-path:url(#clip-path-17);}.cls-20{clip-path:url(#clip-path-18);}.cls-21{clip-path:url(#clip-path-19);}.cls-22{clip-path:url(#clip-path-20);}.cls-23{clip-path:url(#clip-path-21);}.cls-24{clip-path:url(#clip-path-22);}.cls-25{clip-path:url(#clip-path-24);}</style><clipPath id="clip-path"><path class="cls-1" d="M10.33,18.07l-.45-1.46H7.61l-.45,1.48H5.74l2.2-6.25H9.55l2.2,6.25Zm-.76-2.59c-.42-1.34-.66-2.1-.71-2.28s-.09-.31-.11-.41c-.09.36-.36,1.26-.81,2.69Z"/></clipPath><clipPath id="clip-path-2"><path class="cls-4" d="M10.2,26.34a1.62,1.62,0,0,1-.61,1.33,2.61,2.61,0,0,1-1.69.48,3.82,3.82,0,0,1-1.76-.37V26.55a6.89,6.89,0,0,0,1.07.4,2.65,2.65,0,0,0,.79.11,1.13,1.13,0,0,0,.67-.16.54.54,0,0,0,.23-.5.55.55,0,0,0-.1-.32,1.15,1.15,0,0,0-.3-.28q-.2-.12-.81-.42a3.69,3.69,0,0,1-.85-.51,2,2,0,0,1-.46-.58,1.79,1.79,0,0,1,.39-2.06,2.32,2.32,0,0,1,1.55-.47,4.15,4.15,0,0,1,.93.11c.31.09.62.2.92.32l-.43,1a8,8,0,0,0-.82-.29,3.4,3.4,0,0,0-.64-.08A.86.86,0,0,0,7.7,23a.61.61,0,0,0-.2.45.65.65,0,0,0,.08.31.88.88,0,0,0,.26.25,6.71,6.71,0,0,0,.84.44,3.2,3.2,0,0,1,1.19.83A1.63,1.63,0,0,1,10.2,26.34Z"/></clipPath><clipPath id="clip-path-3"><path class="cls-3" d="M17.65,28.07H16.33V25.38H13.87v2.69H12.54V21.85h1.33v2.43h2.46V21.85h1.32Z"/></clipPath><clipPath id="clip-path-4"><path class="cls-5" d="M24,28.07H20.44V21.85H24v1.08H21.76v1.36h2.1v1.08h-2.1V27H24Z"/></clipPath><clipPath id="clip-path-5"><path class="cls-6" d="M26.54,28.07V21.85h1.32V27h2.53v1.09Z"/></clipPath><clipPath id="clip-path-6"><path class="cls-7" d="M35.09,28.07H33.77V22.94H32.08V21.85h4.7v1.09H35.09Z"/></clipPath><clipPath id="clip-path-7"><path class="cls-8" d="M42.54,28.07H39V21.85h3.58v1.08h-2.3v1.36h2.1v1.08h-2.1V27h2.26Z"/></clipPath><clipPath id="clip-path-8"><path class="cls-9" d="M46.38,25.68v2.39H45.06V21.85h1.81a3.11,3.11,0,0,1,1.88.46,1.64,1.64,0,0,1,.61,1.4,1.68,1.68,0,0,1-.3,1,2,2,0,0,1-.86.67L50,28.07H48.57l-1.49-2.39Zm0-1.07h.43a1.57,1.57,0,0,0,.92-.21.74.74,0,0,0,.3-.66.69.69,0,0,0-.31-.63,1.91,1.91,0,0,0-.94-.18h-.4Z"/></clipPath><clipPath id="clip-path-9"><path class="cls-10" d="M52,21.85h2a3.79,3.79,0,0,1,1.93.37,1.32,1.32,0,0,1,.59,1.2,1.44,1.44,0,0,1-.26.92,1,1,0,0,1-.69.43h0a1.42,1.42,0,0,1,.85.49,1.69,1.69,0,0,1,.26,1A1.57,1.57,0,0,1,56,27.61a2.58,2.58,0,0,1-1.67.48H52Zm1.32,2.46h.76a1.42,1.42,0,0,0,.78-.17.61.61,0,0,0,.24-.55.58.58,0,0,0-.26-.51,2,2,0,0,0-.83-.15h-.69Zm0,1.05V27h.86a1.21,1.21,0,0,0,.8-.21.77.77,0,0,0,.26-.64c0-.51-.37-.77-1.11-.77Z"/></clipPath><clipPath id="clip-path-10"><path class="cls-11" d="M64.76,25A3.34,3.34,0,0,1,64,27.32a3.32,3.32,0,0,1-4.4,0,3.35,3.35,0,0,1-.76-2.38,3.31,3.31,0,0,1,.77-2.33,3.35,3.35,0,0,1,4.39,0A3.39,3.39,0,0,1,64.76,25Zm-4.54,0a2.54,2.54,0,0,0,.4,1.57,1.38,1.38,0,0,0,1.18.53c1.05,0,1.58-.7,1.58-2.1s-.52-2.1-1.57-2.1a1.4,1.4,0,0,0-1.19.53A2.57,2.57,0,0,0,60.22,25Z"/></clipPath><clipPath id="clip-path-11"><path class="cls-12" d="M72.31,28.07H70.8l-1.45-2.36-1.44,2.36H66.49l2.07-3.21-1.94-3h1.46l1.34,2.23,1.32-2.23h1.42l-2,3.08Z"/></clipPath><clipPath id="clip-path-12"><path class="cls-2" d="M20.92,16.34a1.59,1.59,0,0,1-.61,1.33,2.61,2.61,0,0,1-1.69.48,3.82,3.82,0,0,1-1.76-.37V16.55a6.89,6.89,0,0,0,1.07.4,2.71,2.71,0,0,0,.8.11,1.1,1.1,0,0,0,.66-.16.54.54,0,0,0,.23-.5.55.55,0,0,0-.1-.32,1.15,1.15,0,0,0-.3-.28c-.13-.08-.4-.22-.8-.42a3.55,3.55,0,0,1-.86-.51,2,2,0,0,1-.46-.58,1.79,1.79,0,0,1,.39-2.06A2.4,2.4,0,0,1,19,11.76a4.15,4.15,0,0,1,.93.11c.31.09.62.2.92.32l-.43,1a8,8,0,0,0-.82-.29,3.4,3.4,0,0,0-.64-.08.93.93,0,0,0-.58.18.61.61,0,0,0-.2.45.65.65,0,0,0,.08.31.88.88,0,0,0,.26.25,6.71,6.71,0,0,0,.84.44,3.2,3.2,0,0,1,1.19.83A1.6,1.6,0,0,1,20.92,16.34Z"/></clipPath><clipPath id="clip-path-13"><path class="cls-13" d="M10.6,33.94A1.86,1.86,0,0,1,10,35.47,2.65,2.65,0,0,1,8.18,36H7.62v2.22H6.3V32h2a2.73,2.73,0,0,1,1.73.48A1.78,1.78,0,0,1,10.6,33.94Zm-3,1H8a1.44,1.44,0,0,0,.91-.24.85.85,0,0,0,.31-.7A.87.87,0,0,0,9,33.32a1.13,1.13,0,0,0-.79-.22h-.6Z"/></clipPath><clipPath id="clip-path-14"><path class="cls-15" d="M16.8,38.22l-.45-1.46H14.08l-.44,1.48H12.21L14.41,32H16l2.2,6.25ZM16,35.63c-.42-1.34-.66-2.1-.71-2.28s-.08-.31-.11-.41c-.1.36-.36,1.26-.81,2.69Z"/></clipPath><clipPath id="clip-path-15"><path class="cls-16" d="M21.55,35.83v2.39H20.23V32H22a3.11,3.11,0,0,1,1.88.46,1.57,1.57,0,0,1,.58,1.4,1.62,1.62,0,0,1-.3,1,2.19,2.19,0,0,1-.86.67l1.83,2.71H23.74l-1.49-2.39Zm0-1.07H22a1.66,1.66,0,0,0,.93-.21.75.75,0,0,0,.31-.66.74.74,0,0,0-.31-.63,1.93,1.93,0,0,0-.94-.18h-.41Z"/></clipPath><clipPath id="clip-path-16"><path class="cls-17" d="M29.61,38.22H28.29V33.09H26.6V32h4.7v1.09H29.61Z"/></clipPath><clipPath id="clip-path-17"><path class="cls-14" d="M28.37,18.07H27.05V15.38H24.59v2.69H23.27V11.85h1.32v2.43h2.46V11.85h1.32Z"/></clipPath><clipPath id="clip-path-18"><path class="cls-19" d="M31.16,18.07V11.85h1.32v6.22Z"/></clipPath><clipPath id="clip-path-19"><path class="cls-20" d="M40.79,18.07H39.11L36.4,13.36h0c.06.83.09,1.42.09,1.78v2.93H35.27V11.85h1.66l2.7,4.66h0c0-.81-.06-1.38-.06-1.72V11.85h1.19Z"/></clipPath><clipPath id="clip-path-20"><path class="cls-21" d="M47.16,18.07H43.58V11.85h3.58v1.08H44.9v1.36H47v1.08H44.9V17h2.26Z"/></clipPath><clipPath id="clip-path-21"><path class="cls-22" d="M54.46,18.07h-1.3V11.85h3.57v1.08H54.46v1.6h2.11v1.08H54.46Z"/></clipPath><clipPath id="clip-path-22"><path class="cls-23" d="M64.82,15a3.34,3.34,0,0,1-.77,2.37,3.31,3.31,0,0,1-4.39,0,3.35,3.35,0,0,1-.77-2.38,3.35,3.35,0,0,1,.77-2.33,2.92,2.92,0,0,1,2.21-.82,2.88,2.88,0,0,1,2.19.82A3.39,3.39,0,0,1,64.82,15Zm-4.54,0a2.62,2.62,0,0,0,.39,1.57,1.41,1.41,0,0,0,1.19.53c1,0,1.58-.7,1.58-2.1s-.53-2.1-1.57-2.1a1.4,1.4,0,0,0-1.19.53A2.57,2.57,0,0,0,60.28,15Z"/></clipPath><clipPath id="clip-path-23"><path class="cls-24" d="M68.65,15.68v2.39H67.33V11.85h1.81a3.21,3.21,0,0,1,1.86.46,1.64,1.64,0,0,1,.61,1.4,1.68,1.68,0,0,1-.3,1,2,2,0,0,1-.86.67l1.83,2.71H70.84L69.35,15.7Zm0-1.07h.43A1.57,1.57,0,0,0,70,14.4a.74.74,0,0,0,.3-.66.68.68,0,0,0-.3-.63,1.91,1.91,0,0,0-.94-.18h-.4Z"/></clipPath><clipPath id="clip-path-24"><path class="cls-18" d="M35.41,34.56,36.72,32h1.42l-2.07,3.76v2.42H34.76V35.84L32.69,32h1.43Z"/></clipPath></defs><title>text2</title><g id="Layer_2" data-name="Layer 2"><g id="Layer_1-2" data-name="Layer 1"><path class="cls-1" d="M10.33,18.07l-.45-1.46H7.61l-.45,1.48H5.74l2.2-6.25H9.55l2.2,6.25Zm-.76-2.59c-.42-1.34-.66-2.1-.71-2.28s-.09-.31-.11-.41c-.09.36-.36,1.26-.81,2.69Z"/><path class="cls-1" d="M20.92,16.34a1.59,1.59,0,0,1-.61,1.33,2.61,2.61,0,0,1-1.69.48,3.82,3.82,0,0,1-1.76-.37V16.55a6.89,6.89,0,0,0,1.07.4,2.71,2.71,0,0,0,.8.11,1.1,1.1,0,0,0,.66-.16.54.54,0,0,0,.23-.5.55.55,0,0,0-.1-.32,1.15,1.15,0,0,0-.3-.28c-.13-.08-.4-.22-.8-.42a3.55,3.55,0,0,1-.86-.51,2,2,0,0,1-.46-.58,1.79,1.79,0,0,1,.39-2.06A2.4,2.4,0,0,1,19,11.76a4.15,4.15,0,0,1,.93.11c.31.09.62.2.92.32l-.43,1a8,8,0,0,0-.82-.29,3.4,3.4,0,0,0-.64-.08.93.93,0,0,0-.58.18.61.61,0,0,0-.2.45.65.65,0,0,0,.08.31.88.88,0,0,0,.26.25,6.71,6.71,0,0,0,.84.44,3.2,3.2,0,0,1,1.19.83A1.6,1.6,0,0,1,20.92,16.34Z"/><path class="cls-1" d="M28.37,18.07H27.05V15.38H24.59v2.69H23.27V11.85h1.32v2.43h2.46V11.85h1.32Z"/><path class="cls-1" d="M31.16,18.07V11.85h1.32v6.22Z"/><path class="cls-1" d="M40.79,18.07H39.11L36.4,13.36h0c.06.83.09,1.42.09,1.78v2.93H35.27V11.85h1.66l2.7,4.66h0c0-.81-.06-1.38-.06-1.72V11.85h1.19Z"/><path class="cls-1" d="M47.16,18.07H43.58V11.85h3.58v1.08H44.9v1.36H47v1.08H44.9V17h2.26Z"/><path class="cls-1" d="M54.46,18.07h-1.3V11.85h3.57v1.08H54.46v1.6h2.11v1.08H54.46Z"/><path class="cls-1" d="M64.82,15a3.34,3.34,0,0,1-.77,2.37,3.31,3.31,0,0,1-4.39,0,3.35,3.35,0,0,1-.77-2.38,3.35,3.35,0,0,1,.77-2.33,2.92,2.92,0,0,1,2.21-.82,2.88,2.88,0,0,1,2.19.82A3.39,3.39,0,0,1,64.82,15Zm-4.54,0a2.62,2.62,0,0,0,.39,1.57,1.41,1.41,0,0,0,1.19.53c1,0,1.58-.7,1.58-2.1s-.53-2.1-1.57-2.1a1.4,1.4,0,0,0-1.19.53A2.57,2.57,0,0,0,60.28,15Z"/><path class="cls-1" d="M68.65,15.68v2.39H67.33V11.85h1.81a3.21,3.21,0,0,1,1.86.46,1.64,1.64,0,0,1,.61,1.4,1.68,1.68,0,0,1-.3,1,2,2,0,0,1-.86.67l1.83,2.71H70.84L69.35,15.7Zm0-1.07h.43A1.57,1.57,0,0,0,70,14.4a.74.74,0,0,0,.3-.66.68.68,0,0,0-.3-.63,1.91,1.91,0,0,0-.94-.18h-.4Z"/><path class="cls-1" d="M10.2,26.34a1.62,1.62,0,0,1-.61,1.33,2.61,2.61,0,0,1-1.69.48,3.82,3.82,0,0,1-1.76-.37V26.55a6.89,6.89,0,0,0,1.07.4,2.65,2.65,0,0,0,.79.11,1.13,1.13,0,0,0,.67-.16.54.54,0,0,0,.23-.5.55.55,0,0,0-.1-.32,1.15,1.15,0,0,0-.3-.28q-.2-.12-.81-.42a3.69,3.69,0,0,1-.85-.51,2,2,0,0,1-.46-.58,1.79,1.79,0,0,1,.39-2.06,2.32,2.32,0,0,1,1.55-.47,4.15,4.15,0,0,1,.93.11c.31.09.62.2.92.32l-.43,1a8,8,0,0,0-.82-.29,3.4,3.4,0,0,0-.64-.08A.86.86,0,0,0,7.7,23a.61.61,0,0,0-.2.45.65.65,0,0,0,.08.31.88.88,0,0,0,.26.25,6.71,6.71,0,0,0,.84.44,3.2,3.2,0,0,1,1.19.83A1.63,1.63,0,0,1,10.2,26.34Z"/><path class="cls-1" d="M17.65,28.07H16.33V25.38H13.87v2.69H12.54V21.85h1.33v2.43h2.46V21.85h1.32Z"/><path class="cls-1" d="M24,28.07H20.44V21.85H24v1.08H21.76v1.36h2.1v1.08h-2.1V27H24Z"/><path class="cls-1" d="M26.54,28.07V21.85h1.32V27h2.53v1.09Z"/><path class="cls-1" d="M35.09,28.07H33.77V22.94H32.08V21.85h4.7v1.09H35.09Z"/><path class="cls-1" d="M42.54,28.07H39V21.85h3.58v1.08h-2.3v1.36h2.1v1.08h-2.1V27h2.26Z"/><path class="cls-1" d="M46.38,25.68v2.39H45.06V21.85h1.81a3.11,3.11,0,0,1,1.88.46,1.64,1.64,0,0,1,.61,1.4,1.68,1.68,0,0,1-.3,1,2,2,0,0,1-.86.67L50,28.07H48.57l-1.49-2.39Zm0-1.07h.43a1.57,1.57,0,0,0,.92-.21.74.74,0,0,0,.3-.66.69.69,0,0,0-.31-.63,1.91,1.91,0,0,0-.94-.18h-.4Z"/><path class="cls-1" d="M52,21.85h2a3.79,3.79,0,0,1,1.93.37,1.32,1.32,0,0,1,.59,1.2,1.44,1.44,0,0,1-.26.92,1,1,0,0,1-.69.43h0a1.42,1.42,0,0,1,.85.49,1.69,1.69,0,0,1,.26,1A1.57,1.57,0,0,1,56,27.61a2.58,2.58,0,0,1-1.67.48H52Zm1.32,2.46h.76a1.42,1.42,0,0,0,.78-.17.61.61,0,0,0,.24-.55.58.58,0,0,0-.26-.51,2,2,0,0,0-.83-.15h-.69Zm0,1.05V27h.86a1.21,1.21,0,0,0,.8-.21.77.77,0,0,0,.26-.64c0-.51-.37-.77-1.11-.77Z"/><path class="cls-1" d="M64.76,25A3.34,3.34,0,0,1,64,27.32a3.32,3.32,0,0,1-4.4,0,3.35,3.35,0,0,1-.76-2.38,3.31,3.31,0,0,1,.77-2.33,3.35,3.35,0,0,1,4.39,0A3.39,3.39,0,0,1,64.76,25Zm-4.54,0a2.54,2.54,0,0,0,.4,1.57,1.38,1.38,0,0,0,1.18.53c1.05,0,1.58-.7,1.58-2.1s-.52-2.1-1.57-2.1a1.4,1.4,0,0,0-1.19.53A2.57,2.57,0,0,0,60.22,25Z"/><path class="cls-1" d="M72.31,28.07H70.8l-1.45-2.36-1.44,2.36H66.49l2.07-3.21-1.94-3h1.46l1.34,2.23,1.32-2.23h1.42l-2,3.08Z"/><path class="cls-1" d="M10.6,33.94A1.86,1.86,0,0,1,10,35.47,2.65,2.65,0,0,1,8.18,36H7.62v2.22H6.3V32h2a2.73,2.73,0,0,1,1.73.48A1.78,1.78,0,0,1,10.6,33.94Zm-3,1H8a1.44,1.44,0,0,0,.91-.24.85.85,0,0,0,.31-.7A.87.87,0,0,0,9,33.32a1.13,1.13,0,0,0-.79-.22h-.6Z"/><path class="cls-1" d="M16.8,38.22l-.45-1.46H14.08l-.44,1.48H12.21L14.41,32H16l2.2,6.25ZM16,35.63c-.42-1.34-.66-2.1-.71-2.28s-.08-.31-.11-.41c-.1.36-.36,1.26-.81,2.69Z"/><path class="cls-1" d="M21.55,35.83v2.39H20.23V32H22a3.11,3.11,0,0,1,1.88.46,1.57,1.57,0,0,1,.58,1.4,1.62,1.62,0,0,1-.3,1,2.19,2.19,0,0,1-.86.67l1.83,2.71H23.74l-1.49-2.39Zm0-1.07H22a1.66,1.66,0,0,0,.93-.21.75.75,0,0,0,.31-.66.74.74,0,0,0-.31-.63,1.93,1.93,0,0,0-.94-.18h-.41Z"/><path class="cls-1" d="M29.61,38.22H28.29V33.09H26.6V32h4.7v1.09H29.61Z"/><path class="cls-1" d="M35.41,34.56,36.72,32h1.42l-2.07,3.76v2.42H34.76V35.84L32.69,32h1.43Z"/><g class="cls-25"><rect class="cls-1" width="320" height="50"/></g></g></g></svg>