<svg xmlns="http://www.w3.org/2000/svg" xmlns:xlink="http://www.w3.org/1999/xlink" viewBox="0 0 320 50"><defs><style>.cls-1,.cls-10,.cls-11,.cls-12,.cls-13,.cls-14,.cls-15,.cls-16,.cls-17,.cls-18,.cls-19,.cls-2,.cls-20,.cls-21,.cls-22,.cls-23,.cls-24,.cls-25,.cls-26,.cls-27,.cls-28,.cls-29,.cls-3,.cls-30,.cls-31,.cls-32,.cls-33,.cls-34,.cls-35,.cls-36,.cls-37,.cls-38,.cls-39,.cls-4,.cls-40,.cls-41,.cls-42,.cls-43,.cls-44,.cls-45,.cls-5,.cls-6,.cls-7,.cls-8,.cls-9{fill:#fff;}.cls-2{clip-path:url(#clip-path);}.cls-3{clip-path:url(#clip-path-2);}.cls-4{clip-path:url(#clip-path-44);}.cls-5{clip-path:url(#clip-path-3);}.cls-6{clip-path:url(#clip-path-4);}.cls-7{clip-path:url(#clip-path-5);}.cls-8{clip-path:url(#clip-path-6);}.cls-9{clip-path:url(#clip-path-7);}.cls-10{clip-path:url(#clip-path-8);}.cls-11{clip-path:url(#clip-path-9);}.cls-12{clip-path:url(#clip-path-10);}.cls-13{clip-path:url(#clip-path-11);}.cls-14{clip-path:url(#clip-path-12);}.cls-15{clip-path:url(#clip-path-13);}.cls-16{clip-path:url(#clip-path-14);}.cls-17{clip-path:url(#clip-path-15);}.cls-18{clip-path:url(#clip-path-16);}.cls-19{clip-path:url(#clip-path-17);}.cls-20{clip-path:url(#clip-path-18);}.cls-21{clip-path:url(#clip-path-19);}.cls-22{clip-path:url(#clip-path-20);}.cls-23{clip-path:url(#clip-path-21);}.cls-24{clip-path:url(#clip-path-22);}.cls-25{clip-path:url(#clip-path-23);}.cls-26{clip-path:url(#clip-path-24);}.cls-27{clip-path:url(#clip-path-25);}.cls-28{clip-path:url(#clip-path-26);}.cls-29{clip-path:url(#clip-path-27);}.cls-30{clip-path:url(#clip-path-28);}.cls-31{clip-path:url(#clip-path-29);}.cls-32{clip-path:url(#clip-path-30);}.cls-33{clip-path:url(#clip-path-31);}.cls-34{clip-path:url(#clip-path-32);}.cls-35{clip-path:url(#clip-path-33);}.cls-36{clip-path:url(#clip-path-34);}.cls-37{clip-path:url(#clip-path-35);}.cls-38{clip-path:url(#clip-path-36);}.cls-39{clip-path:url(#clip-path-37);}.cls-40{clip-path:url(#clip-path-38);}.cls-41{clip-path:url(#clip-path-39);}.cls-42{clip-path:url(#clip-path-40);}.cls-43{clip-path:url(#clip-path-41);}.cls-44{clip-path:url(#clip-path-42);}.cls-45{clip-path:url(#clip-path-43);}.cls-46{clip-path:url(#clip-path-45);}</style><clipPath id="clip-path"><path class="cls-1" d="M12.34,12.46,11.89,11H9.62l-.45,1.48H7.75L9.94,6.21h1.62l2.2,6.25Zm-.77-2.59c-.41-1.34-.65-2.1-.7-2.28l-.12-.41c-.09.36-.36,1.26-.8,2.69Z"/></clipPath><clipPath id="clip-path-2"><path class="cls-4" d="M80.75,6.24h1.33L80,12.46H78.53L76.41,6.24h1.34l1.17,3.7c.06.22.13.47.2.76s.11.5.13.61a11,11,0,0,1,.32-1.37Z"/></clipPath><clipPath id="clip-path-3"><path class="cls-3" d="M87.67,12.46H84.08V6.24h3.59V7.32H85.41V8.68h2.1V9.76h-2.1v1.61h2.26Z"/></clipPath><clipPath id="clip-path-4"><path class="cls-5" d="M12.11,22.46H8.53V16.24h3.58v1.08H9.85v1.36H12v1.08H9.85v1.61h2.26Z"/></clipPath><clipPath id="clip-path-5"><path class="cls-6" d="M17.27,22.46l-1.5-4.88h0c0,1,.08,1.65.08,2v2.9H14.63V16.24h1.8L17.9,21h0l1.56-4.75h1.8v6.22H20.06V19c0-.18,0-.66.06-1.45h0l-1.6,4.88Z"/></clipPath><clipPath id="clip-path-6"><path class="cls-7" d="M27.66,22.46H24.07V16.24h3.59v1.08H25.39v1.36H27.5v1.08H25.39v1.61h2.27Z"/></clipPath><clipPath id="clip-path-7"><path class="cls-8" d="M31.5,20.07v2.39H30.18V16.24H32a3.1,3.1,0,0,1,1.88.46,1.65,1.65,0,0,1,.61,1.4,1.61,1.61,0,0,1-.31,1,2.07,2.07,0,0,1-.85.67c.93,1.4,1.55,2.3,1.83,2.71H33.68L32.2,20.07Zm0-1.07h.42a1.64,1.64,0,0,0,.93-.21.77.77,0,0,0,.29-.66.7.7,0,0,0-.3-.63,1.9,1.9,0,0,0-.94-.18h-.4Z"/></clipPath><clipPath id="clip-path-8"><path class="cls-9" d="M39.52,19H42v3.23a8.43,8.43,0,0,1-1.13.28,7.88,7.88,0,0,1-1.09.07,2.75,2.75,0,0,1-2.15-.82,3.45,3.45,0,0,1-.74-2.38A3.1,3.1,0,0,1,37.74,17a3.27,3.27,0,0,1,2.39-.84,4.57,4.57,0,0,1,1.85.38l-.44,1a3.26,3.26,0,0,0-1.42-.34,1.76,1.76,0,0,0-1.37.58,2.24,2.24,0,0,0-.52,1.54,2.45,2.45,0,0,0,.42,1.55,1.44,1.44,0,0,0,1.21.54,4.14,4.14,0,0,0,.84-.09v-1.3H39.52Z"/></clipPath><clipPath id="clip-path-9"><path class="cls-10" d="M48.27,22.46H44.69V16.24h3.58v1.08H46v1.36h2.1v1.08H46v1.61h2.26Z"/></clipPath><clipPath id="clip-path-10"><path class="cls-11" d="M56.31,22.46H54.64l-2.71-4.71h0c0,.83.08,1.42.08,1.78v2.93H50.79V16.24h1.67l2.7,4.66h0c0-.81-.07-1.38-.07-1.72V16.24h1.19Z"/></clipPath><clipPath id="clip-path-11"><path class="cls-12" d="M61.74,17.24a1.35,1.35,0,0,0-1.15.56,2.65,2.65,0,0,0-.41,1.56c0,1.39.52,2.09,1.56,2.09a4.9,4.9,0,0,0,1.59-.33v1.1a4.27,4.27,0,0,1-1.71.32,2.62,2.62,0,0,1-2.08-.82,3.49,3.49,0,0,1-.72-2.36,3.84,3.84,0,0,1,.36-1.71,2.56,2.56,0,0,1,1-1.12,3.1,3.1,0,0,1,1.55-.38,4.22,4.22,0,0,1,1.83.43l-.43,1.08a6.91,6.91,0,0,0-.7-.29A2,2,0,0,0,61.74,17.24Z"/></clipPath><clipPath id="clip-path-12"><path class="cls-2" d="M21.29,12.46H19.61L16.9,7.75h0c.06.83.08,1.42.08,1.78v2.93H15.76V6.24h1.67l2.7,4.66h0c0-.81-.06-1.38-.06-1.72V6.24h1.19Z"/></clipPath><clipPath id="clip-path-13"><path class="cls-13" d="M67.81,18.8l1.3-2.56h1.42L68.47,20v2.42H67.16V20.08l-2.07-3.84h1.43Z"/></clipPath><clipPath id="clip-path-14"><path class="cls-15" d="M76,22.46V16.24h1.32v5.13h2.53v1.09Z"/></clipPath><clipPath id="clip-path-15"><path class="cls-16" d="M82.17,22.46V16.24h1.32v6.22Z"/></clipPath><clipPath id="clip-path-16"><path class="cls-17" d="M88.64,19h2.47v3.23a8.08,8.08,0,0,1-1.13.28,7.73,7.73,0,0,1-1.08.07,2.77,2.77,0,0,1-2.16-.82A3.5,3.5,0,0,1,86,19.34,3.14,3.14,0,0,1,86.86,17a3.29,3.29,0,0,1,2.39-.84,4.54,4.54,0,0,1,1.85.38l-.44,1a3.18,3.18,0,0,0-1.41-.34,1.78,1.78,0,0,0-1.38.58,2.24,2.24,0,0,0-.51,1.54,2.51,2.51,0,0,0,.41,1.55,1.44,1.44,0,0,0,1.21.54,4,4,0,0,0,.84-.09v-1.3H88.64Z"/></clipPath><clipPath id="clip-path-17"><path class="cls-18" d="M98.91,22.46H97.6V19.77H95.13v2.69H93.81V16.24h1.32v2.43H97.6V16.24h1.31Z"/></clipPath><clipPath id="clip-path-18"><path class="cls-19" d="M104.1,22.46h-1.32V17.33h-1.69V16.24h4.7v1.09H104.1Z"/></clipPath><clipPath id="clip-path-19"><path class="cls-20" d="M10.93,32.46H9.61V27.33H7.92V26.24h4.7v1.09H10.93Z"/></clipPath><clipPath id="clip-path-20"><path class="cls-21" d="M20.45,29.34a3.36,3.36,0,0,1-.77,2.37,2.81,2.81,0,0,1-2.2.83,2.81,2.81,0,0,1-2.19-.83,3.37,3.37,0,0,1-.77-2.38A3.33,3.33,0,0,1,15.29,27a2.86,2.86,0,0,1,2.2-.82,2.84,2.84,0,0,1,2.2.82A3.43,3.43,0,0,1,20.45,29.34Zm-4.54,0a2.63,2.63,0,0,0,.39,1.57,1.39,1.39,0,0,0,1.18.53c1.06,0,1.58-.7,1.58-2.1s-.52-2.1-1.57-2.1a1.39,1.39,0,0,0-1.19.53A2.61,2.61,0,0,0,15.91,29.34Z"/></clipPath><clipPath id="clip-path-21"><path class="cls-22" d="M24.26,32.46H23V26.24h3.57v1.08H24.26v1.6h2.11V30H24.26Z"/></clipPath><clipPath id="clip-path-22"><path class="cls-23" d="M32.77,32.46,32.32,31H30.05l-.45,1.48H28.18l2.2-6.25H32l2.21,6.25ZM32,29.87c-.42-1.34-.65-2.1-.71-2.28s-.09-.31-.11-.41c-.09.36-.36,1.26-.8,2.69Z"/></clipPath><clipPath id="clip-path-23"><path class="cls-14" d="M29.24,9.29a3,3,0,0,1-.88,2.35,3.52,3.52,0,0,1-2.52.82H24.07V6.24h2a3.26,3.26,0,0,1,2.36.8A2.93,2.93,0,0,1,29.24,9.29Zm-1.37,0c0-1.34-.59-2-1.77-2h-.71v4H26C27.23,11.37,27.87,10.69,27.87,9.32Z"/></clipPath><clipPath id="clip-path-24"><path class="cls-24" d="M38.84,32.46l-1.5-4.88h0c.05,1,.08,1.65.08,2v2.9H36.2V26.24H38L39.47,31h0l1.56-4.75h1.79v6.22H41.62V29.51c0-.14,0-.3,0-.48s0-.66.06-1.45h0L40,32.46Z"/></clipPath><clipPath id="clip-path-25"><path class="cls-26" d="M45.64,32.46V26.24H47v6.22Z"/></clipPath><clipPath id="clip-path-26"><path class="cls-27" d="M49.75,32.46V26.24h1.32v5.13h2.52v1.09Z"/></clipPath><clipPath id="clip-path-27"><path class="cls-28" d="M55.89,32.46V26.24h1.32v6.22Z"/></clipPath><clipPath id="clip-path-28"><path class="cls-29" d="M63.59,32.46H60V26.24h3.59v1.08H61.32v1.36h2.11v1.08H61.32v1.61h2.27Z"/></clipPath><clipPath id="clip-path-29"><path class="cls-30" d="M69.78,30.73a1.6,1.6,0,0,1-.61,1.33,2.62,2.62,0,0,1-1.68.48,4,4,0,0,1-1.77-.37V30.94a7.49,7.49,0,0,0,1.07.4,3,3,0,0,0,.8.11,1.11,1.11,0,0,0,.66-.16.57.57,0,0,0,.24-.5.52.52,0,0,0-.11-.32,1,1,0,0,0-.3-.28c-.13-.08-.4-.22-.8-.42a4.13,4.13,0,0,1-.86-.51,2.14,2.14,0,0,1-.46-.58,1.67,1.67,0,0,1-.17-.76,1.62,1.62,0,0,1,.56-1.3,2.32,2.32,0,0,1,1.55-.47,3.54,3.54,0,0,1,.93.11,8.46,8.46,0,0,1,.92.32l-.43,1a6.43,6.43,0,0,0-.82-.29,2.87,2.87,0,0,0-.64-.08.81.81,0,0,0-.57.18.55.55,0,0,0-.21.45.54.54,0,0,0,.09.31,1,1,0,0,0,.25.25,8.34,8.34,0,0,0,.84.44,3.3,3.3,0,0,1,1.2.83A1.66,1.66,0,0,1,69.78,30.73Z"/></clipPath><clipPath id="clip-path-30"><path class="cls-31" d="M78,32.46H76.7V27.33H75V26.24h4.7v1.09H78Z"/></clipPath><clipPath id="clip-path-31"><path class="cls-32" d="M87,32.46H85.67V29.77H83.2v2.69H81.88V26.24H83.2v2.43h2.47V26.24H87Z"/></clipPath><clipPath id="clip-path-32"><path class="cls-33" d="M89.78,32.46V26.24H91.1v6.22Z"/></clipPath><clipPath id="clip-path-33"><path class="cls-34" d="M97.56,30.73A1.63,1.63,0,0,1,97,32.06a2.66,2.66,0,0,1-1.69.48,4,4,0,0,1-1.76-.37V30.94a7.49,7.49,0,0,0,1.07.4,2.94,2.94,0,0,0,.79.11,1.14,1.14,0,0,0,.67-.16.56.56,0,0,0,.23-.5.51.51,0,0,0-.1-.32,1.17,1.17,0,0,0-.3-.28q-.19-.12-.81-.42a4,4,0,0,1-.85-.51,2.14,2.14,0,0,1-.46-.58,1.67,1.67,0,0,1-.17-.76,1.62,1.62,0,0,1,.56-1.3,2.3,2.3,0,0,1,1.55-.47,3.59,3.59,0,0,1,.93.11,8.46,8.46,0,0,1,.92.32l-.43,1a6.43,6.43,0,0,0-.82-.29,2.87,2.87,0,0,0-.64-.08.86.86,0,0,0-.58.18.58.58,0,0,0-.2.45.62.62,0,0,0,.08.31,1,1,0,0,0,.26.25,8.34,8.34,0,0,0,.84.44,3.16,3.16,0,0,1,1.19.83A1.61,1.61,0,0,1,97.56,30.73Z"/></clipPath><clipPath id="clip-path-34"><path class="cls-25" d="M40.33,12.46H39V9.77H36.55v2.69H35.23V6.24h1.32V8.67H39V6.24h1.31Z"/></clipPath><clipPath id="clip-path-35"><path class="cls-35" d="M14.59,42.46h-1.5l-.84-3.27c0-.12-.09-.36-.17-.72s-.11-.61-.12-.74c0,.16-.06.4-.13.74s-.12.58-.16.73l-.84,3.26H9.33L7.75,36.24H9l.8,3.39c.14.63.24,1.17.3,1.63q0-.24.12-.75c.06-.34.12-.6.17-.79l.91-3.48h1.25l.9,3.48q.06.24.15.72c.06.32.11.59.14.82,0-.22.07-.49.13-.83s.12-.59.17-.8l.8-3.39h1.29Z"/></clipPath><clipPath id="clip-path-36"><path class="cls-37" d="M18.18,42.46V36.24H19.5v6.22Z"/></clipPath><clipPath id="clip-path-37"><path class="cls-38" d="M27.81,42.46H26.13l-2.71-4.71h0c.06.83.08,1.42.08,1.78v2.93H22.29V36.24H24l2.7,4.66h0c0-.81-.06-1.38-.06-1.72V36.24h1.19Z"/></clipPath><clipPath id="clip-path-38"><path class="cls-39" d="M33,42.46H31.68V37.33H30V36.24h4.7v1.09H33Z"/></clipPath><clipPath id="clip-path-39"><path class="cls-40" d="M40.45,42.46H36.86V36.24h3.59v1.08H38.18v1.36h2.11v1.08H38.18v1.61h2.27Z"/></clipPath><clipPath id="clip-path-40"><path class="cls-36" d="M46.71,12.46H43.12V6.24h3.59V7.32H44.45V8.68h2.1V9.76h-2.1v1.61h2.26Z"/></clipPath><clipPath id="clip-path-41"><path class="cls-42" d="M49.23,12.46V6.24h1.32v5.13h2.52v1.09Z"/></clipPath><clipPath id="clip-path-42"><path class="cls-43" d="M59.67,8.18a1.87,1.87,0,0,1-.62,1.53,2.67,2.67,0,0,1-1.79.53H56.7v2.22H55.38V6.24h2a2.65,2.65,0,0,1,1.72.48A1.77,1.77,0,0,1,59.67,8.18Zm-3,1h.43A1.43,1.43,0,0,0,58,8.92a.84.84,0,0,0,.3-.7.85.85,0,0,0-.25-.68,1.18,1.18,0,0,0-.8-.22H56.7Z"/></clipPath><clipPath id="clip-path-43"><path class="cls-44" d="M67.92,9h2.47v3.23a8.08,8.08,0,0,1-1.13.28,7.78,7.78,0,0,1-1.09.07A2.76,2.76,0,0,1,66,11.72a3.5,3.5,0,0,1-.74-2.38A3.14,3.14,0,0,1,66.14,7a3.29,3.29,0,0,1,2.39-.84,4.54,4.54,0,0,1,1.85.38l-.44,1a3.22,3.22,0,0,0-1.42-.34,1.77,1.77,0,0,0-1.37.58,2.24,2.24,0,0,0-.51,1.54,2.51,2.51,0,0,0,.41,1.55,1.44,1.44,0,0,0,1.21.54,4,4,0,0,0,.84-.09v-1.3H67.92Z"/></clipPath><clipPath id="clip-path-44"><path class="cls-45" d="M73.09,12.46V6.24h1.32v6.22Z"/></clipPath><clipPath id="clip-path-45"><path class="cls-41" d="M44.29,40.07v2.39H43V36.24h1.81a3.1,3.1,0,0,1,1.88.46,1.65,1.65,0,0,1,.61,1.4,1.67,1.67,0,0,1-.3,1,2.17,2.17,0,0,1-.86.67l1.83,2.71H46.48L45,40.07Zm0-1.07h.42a1.64,1.64,0,0,0,.93-.21.75.75,0,0,0,.3-.66.7.7,0,0,0-.31-.63,1.9,1.9,0,0,0-.94-.18h-.4Z"/></clipPath></defs><title>text3</title><g id="Layer_2" data-name="Layer 2"><g id="Layer_1-2" data-name="Layer 1"><path class="cls-1" d="M12.34,12.46,11.89,11H9.62l-.45,1.48H7.75L9.94,6.21h1.62l2.2,6.25Zm-.77-2.59c-.41-1.34-.65-2.1-.7-2.28l-.12-.41c-.09.36-.36,1.26-.8,2.69Z"/><path class="cls-1" d="M21.29,12.46H19.61L16.9,7.75h0c.06.83.08,1.42.08,1.78v2.93H15.76V6.24h1.67l2.7,4.66h0c0-.81-.06-1.38-.06-1.72V6.24h1.19Z"/><path class="cls-1" d="M29.24,9.29a3,3,0,0,1-.88,2.35,3.52,3.52,0,0,1-2.52.82H24.07V6.24h2a3.26,3.26,0,0,1,2.36.8A2.93,2.93,0,0,1,29.24,9.29Zm-1.37,0c0-1.34-.59-2-1.77-2h-.71v4H26C27.23,11.37,27.87,10.69,27.87,9.32Z"/><path class="cls-1" d="M40.33,12.46H39V9.77H36.55v2.69H35.23V6.24h1.32V8.67H39V6.24h1.31Z"/><path class="cls-1" d="M46.71,12.46H43.12V6.24h3.59V7.32H44.45V8.68h2.1V9.76h-2.1v1.61h2.26Z"/><path class="cls-1" d="M49.23,12.46V6.24h1.32v5.13h2.52v1.09Z"/><path class="cls-1" d="M59.67,8.18a1.87,1.87,0,0,1-.62,1.53,2.67,2.67,0,0,1-1.79.53H56.7v2.22H55.38V6.24h2a2.65,2.65,0,0,1,1.72.48A1.77,1.77,0,0,1,59.67,8.18Zm-3,1h.43A1.43,1.43,0,0,0,58,8.92a.84.84,0,0,0,.3-.7.85.85,0,0,0-.25-.68,1.18,1.18,0,0,0-.8-.22H56.7Z"/><path class="cls-1" d="M67.92,9h2.47v3.23a8.08,8.08,0,0,1-1.13.28,7.78,7.78,0,0,1-1.09.07A2.76,2.76,0,0,1,66,11.72a3.5,3.5,0,0,1-.74-2.38A3.14,3.14,0,0,1,66.14,7a3.29,3.29,0,0,1,2.39-.84,4.54,4.54,0,0,1,1.85.38l-.44,1a3.22,3.22,0,0,0-1.42-.34,1.77,1.77,0,0,0-1.37.58,2.24,2.24,0,0,0-.51,1.54,2.51,2.51,0,0,0,.41,1.55,1.44,1.44,0,0,0,1.21.54,4,4,0,0,0,.84-.09v-1.3H67.92Z"/><path class="cls-1" d="M73.09,12.46V6.24h1.32v6.22Z"/><path class="cls-1" d="M80.75,6.24h1.33L80,12.46H78.53L76.41,6.24h1.34l1.17,3.7c.06.22.13.47.2.76s.11.5.13.61a11,11,0,0,1,.32-1.37Z"/><path class="cls-1" d="M87.67,12.46H84.08V6.24h3.59V7.32H85.41V8.68h2.1V9.76h-2.1v1.61h2.26Z"/><path class="cls-1" d="M12.11,22.46H8.53V16.24h3.58v1.08H9.85v1.36H12v1.08H9.85v1.61h2.26Z"/><path class="cls-1" d="M17.27,22.46l-1.5-4.88h0c0,1,.08,1.65.08,2v2.9H14.63V16.24h1.8L17.9,21h0l1.56-4.75h1.8v6.22H20.06V19c0-.18,0-.66.06-1.45h0l-1.6,4.88Z"/><path class="cls-1" d="M27.66,22.46H24.07V16.24h3.59v1.08H25.39v1.36H27.5v1.08H25.39v1.61h2.27Z"/><path class="cls-1" d="M31.5,20.07v2.39H30.18V16.24H32a3.1,3.1,0,0,1,1.88.46,1.65,1.65,0,0,1,.61,1.4,1.61,1.61,0,0,1-.31,1,2.07,2.07,0,0,1-.85.67c.93,1.4,1.55,2.3,1.83,2.71H33.68L32.2,20.07Zm0-1.07h.42a1.64,1.64,0,0,0,.93-.21.77.77,0,0,0,.29-.66.7.7,0,0,0-.3-.63,1.9,1.9,0,0,0-.94-.18h-.4Z"/><path class="cls-1" d="M39.52,19H42v3.23a8.43,8.43,0,0,1-1.13.28,7.88,7.88,0,0,1-1.09.07,2.75,2.75,0,0,1-2.15-.82,3.45,3.45,0,0,1-.74-2.38A3.1,3.1,0,0,1,37.74,17a3.27,3.27,0,0,1,2.39-.84,4.57,4.57,0,0,1,1.85.38l-.44,1a3.26,3.26,0,0,0-1.42-.34,1.76,1.76,0,0,0-1.37.58,2.24,2.24,0,0,0-.52,1.54,2.45,2.45,0,0,0,.42,1.55,1.44,1.44,0,0,0,1.21.54,4.14,4.14,0,0,0,.84-.09v-1.3H39.52Z"/><path class="cls-1" d="M48.27,22.46H44.69V16.24h3.58v1.08H46v1.36h2.1v1.08H46v1.61h2.26Z"/><path class="cls-1" d="M56.31,22.46H54.64l-2.71-4.71h0c0,.83.08,1.42.08,1.78v2.93H50.79V16.24h1.67l2.7,4.66h0c0-.81-.07-1.38-.07-1.72V16.24h1.19Z"/><path class="cls-1" d="M61.74,17.24a1.35,1.35,0,0,0-1.15.56,2.65,2.65,0,0,0-.41,1.56c0,1.39.52,2.09,1.56,2.09a4.9,4.9,0,0,0,1.59-.33v1.1a4.27,4.27,0,0,1-1.71.32,2.62,2.62,0,0,1-2.08-.82,3.49,3.49,0,0,1-.72-2.36,3.84,3.84,0,0,1,.36-1.71,2.56,2.56,0,0,1,1-1.12,3.1,3.1,0,0,1,1.55-.38,4.22,4.22,0,0,1,1.83.43l-.43,1.08a6.91,6.91,0,0,0-.7-.29A2,2,0,0,0,61.74,17.24Z"/><path class="cls-1" d="M67.81,18.8l1.3-2.56h1.42L68.47,20v2.42H67.16V20.08l-2.07-3.84h1.43Z"/><path class="cls-1" d="M76,22.46V16.24h1.32v5.13h2.53v1.09Z"/><path class="cls-1" d="M82.17,22.46V16.24h1.32v6.22Z"/><path class="cls-1" d="M88.64,19h2.47v3.23a8.08,8.08,0,0,1-1.13.28,7.73,7.73,0,0,1-1.08.07,2.77,2.77,0,0,1-2.16-.82A3.5,3.5,0,0,1,86,19.34,3.14,3.14,0,0,1,86.86,17a3.29,3.29,0,0,1,2.39-.84,4.54,4.54,0,0,1,1.85.38l-.44,1a3.18,3.18,0,0,0-1.41-.34,1.78,1.78,0,0,0-1.38.58,2.24,2.24,0,0,0-.51,1.54,2.51,2.51,0,0,0,.41,1.55,1.44,1.44,0,0,0,1.21.54,4,4,0,0,0,.84-.09v-1.3H88.64Z"/><path class="cls-1" d="M98.91,22.46H97.6V19.77H95.13v2.69H93.81V16.24h1.32v2.43H97.6V16.24h1.31Z"/><path class="cls-1" d="M104.1,22.46h-1.32V17.33h-1.69V16.24h4.7v1.09H104.1Z"/><path class="cls-1" d="M10.93,32.46H9.61V27.33H7.92V26.24h4.7v1.09H10.93Z"/><path class="cls-1" d="M20.45,29.34a3.36,3.36,0,0,1-.77,2.37,2.81,2.81,0,0,1-2.2.83,2.81,2.81,0,0,1-2.19-.83,3.37,3.37,0,0,1-.77-2.38A3.33,3.33,0,0,1,15.29,27a2.86,2.86,0,0,1,2.2-.82,2.84,2.84,0,0,1,2.2.82A3.43,3.43,0,0,1,20.45,29.34Zm-4.54,0a2.63,2.63,0,0,0,.39,1.57,1.39,1.39,0,0,0,1.18.53c1.06,0,1.58-.7,1.58-2.1s-.52-2.1-1.57-2.1a1.39,1.39,0,0,0-1.19.53A2.61,2.61,0,0,0,15.91,29.34Z"/><path class="cls-1" d="M24.26,32.46H23V26.24h3.57v1.08H24.26v1.6h2.11V30H24.26Z"/><path class="cls-1" d="M32.77,32.46,32.32,31H30.05l-.45,1.48H28.18l2.2-6.25H32l2.21,6.25ZM32,29.87c-.42-1.34-.65-2.1-.71-2.28s-.09-.31-.11-.41c-.09.36-.36,1.26-.8,2.69Z"/><path class="cls-1" d="M38.84,32.46l-1.5-4.88h0c.05,1,.08,1.65.08,2v2.9H36.2V26.24H38L39.47,31h0l1.56-4.75h1.79v6.22H41.62V29.51c0-.14,0-.3,0-.48s0-.66.06-1.45h0L40,32.46Z"/><path class="cls-1" d="M45.64,32.46V26.24H47v6.22Z"/><path class="cls-1" d="M49.75,32.46V26.24h1.32v5.13h2.52v1.09Z"/><path class="cls-1" d="M55.89,32.46V26.24h1.32v6.22Z"/><path class="cls-1" d="M63.59,32.46H60V26.24h3.59v1.08H61.32v1.36h2.11v1.08H61.32v1.61h2.27Z"/><path class="cls-1" d="M69.78,30.73a1.6,1.6,0,0,1-.61,1.33,2.62,2.62,0,0,1-1.68.48,4,4,0,0,1-1.77-.37V30.94a7.49,7.49,0,0,0,1.07.4,3,3,0,0,0,.8.11,1.11,1.11,0,0,0,.66-.16.57.57,0,0,0,.24-.5.52.52,0,0,0-.11-.32,1,1,0,0,0-.3-.28c-.13-.08-.4-.22-.8-.42a4.13,4.13,0,0,1-.86-.51,2.14,2.14,0,0,1-.46-.58,1.67,1.67,0,0,1-.17-.76,1.62,1.62,0,0,1,.56-1.3,2.32,2.32,0,0,1,1.55-.47,3.54,3.54,0,0,1,.93.11,8.46,8.46,0,0,1,.92.32l-.43,1a6.43,6.43,0,0,0-.82-.29,2.87,2.87,0,0,0-.64-.08.81.81,0,0,0-.57.18.55.55,0,0,0-.21.45.54.54,0,0,0,.09.31,1,1,0,0,0,.25.25,8.34,8.34,0,0,0,.84.44,3.3,3.3,0,0,1,1.2.83A1.66,1.66,0,0,1,69.78,30.73Z"/><path class="cls-1" d="M78,32.46H76.7V27.33H75V26.24h4.7v1.09H78Z"/><path class="cls-1" d="M87,32.46H85.67V29.77H83.2v2.69H81.88V26.24H83.2v2.43h2.47V26.24H87Z"/><path class="cls-1" d="M89.78,32.46V26.24H91.1v6.22Z"/><path class="cls-1" d="M97.56,30.73A1.63,1.63,0,0,1,97,32.06a2.66,2.66,0,0,1-1.69.48,4,4,0,0,1-1.76-.37V30.94a7.49,7.49,0,0,0,1.07.4,2.94,2.94,0,0,0,.79.11,1.14,1.14,0,0,0,.67-.16.56.56,0,0,0,.23-.5.51.51,0,0,0-.1-.32,1.17,1.17,0,0,0-.3-.28q-.19-.12-.81-.42a4,4,0,0,1-.85-.51,2.14,2.14,0,0,1-.46-.58,1.67,1.67,0,0,1-.17-.76,1.62,1.62,0,0,1,.56-1.3,2.3,2.3,0,0,1,1.55-.47,3.59,3.59,0,0,1,.93.11,8.46,8.46,0,0,1,.92.32l-.43,1a6.43,6.43,0,0,0-.82-.29,2.87,2.87,0,0,0-.64-.08.86.86,0,0,0-.58.18.58.58,0,0,0-.2.45.62.62,0,0,0,.08.31,1,1,0,0,0,.26.25,8.34,8.34,0,0,0,.84.44,3.16,3.16,0,0,1,1.19.83A1.61,1.61,0,0,1,97.56,30.73Z"/><path class="cls-1" d="M14.59,42.46h-1.5l-.84-3.27c0-.12-.09-.36-.17-.72s-.11-.61-.12-.74c0,.16-.06.4-.13.74s-.12.58-.16.73l-.84,3.26H9.33L7.75,36.24H9l.8,3.39c.14.63.24,1.17.3,1.63q0-.24.12-.75c.06-.34.12-.6.17-.79l.91-3.48h1.25l.9,3.48q.06.24.15.72c.06.32.11.59.14.82,0-.22.07-.49.13-.83s.12-.59.17-.8l.8-3.39h1.29Z"/><path class="cls-1" d="M18.18,42.46V36.24H19.5v6.22Z"/><path class="cls-1" d="M27.81,42.46H26.13l-2.71-4.71h0c.06.83.08,1.42.08,1.78v2.93H22.29V36.24H24l2.7,4.66h0c0-.81-.06-1.38-.06-1.72V36.24h1.19Z"/><path class="cls-1" d="M33,42.46H31.68V37.33H30V36.24h4.7v1.09H33Z"/><path class="cls-1" d="M40.45,42.46H36.86V36.24h3.59v1.08H38.18v1.36h2.11v1.08H38.18v1.61h2.27Z"/><path class="cls-1" d="M44.29,40.07v2.39H43V36.24h1.81a3.1,3.1,0,0,1,1.88.46,1.65,1.65,0,0,1,.61,1.4,1.67,1.67,0,0,1-.3,1,2.17,2.17,0,0,1-.86.67l1.83,2.71H46.48L45,40.07Zm0-1.07h.42a1.64,1.64,0,0,0,.93-.21.75.75,0,0,0,.3-.66.7.7,0,0,0-.31-.63,1.9,1.9,0,0,0-.94-.18h-.4Z"/><g class="cls-46"><rect class="cls-1" width="320" height="50"/></g></g></g></svg>