<svg xmlns="http://www.w3.org/2000/svg" xmlns:xlink="http://www.w3.org/1999/xlink" viewBox="0 0 320 50"><defs><style>.cls-1,.cls-10,.cls-11,.cls-12,.cls-13,.cls-14,.cls-15,.cls-16,.cls-17,.cls-18,.cls-19,.cls-2,.cls-20,.cls-21,.cls-22,.cls-23,.cls-24,.cls-3,.cls-4,.cls-5,.cls-6,.cls-7,.cls-8,.cls-9{fill:#fff;}.cls-2{clip-path:url(#clip-path);}.cls-3{clip-path:url(#clip-path-2);}.cls-4{clip-path:url(#clip-path-23);}.cls-5{clip-path:url(#clip-path-3);}.cls-6{clip-path:url(#clip-path-4);}.cls-7{clip-path:url(#clip-path-5);}.cls-8{clip-path:url(#clip-path-6);}.cls-9{clip-path:url(#clip-path-7);}.cls-10{clip-path:url(#clip-path-8);}.cls-11{clip-path:url(#clip-path-9);}.cls-12{clip-path:url(#clip-path-10);}.cls-13{clip-path:url(#clip-path-11);}.cls-14{clip-path:url(#clip-path-12);}.cls-15{clip-path:url(#clip-path-13);}.cls-16{clip-path:url(#clip-path-14);}.cls-17{clip-path:url(#clip-path-15);}.cls-18{clip-path:url(#clip-path-16);}.cls-19{clip-path:url(#clip-path-17);}.cls-20{clip-path:url(#clip-path-18);}.cls-21{clip-path:url(#clip-path-19);}.cls-22{clip-path:url(#clip-path-20);}.cls-23{clip-path:url(#clip-path-21);}.cls-24{clip-path:url(#clip-path-22);}.cls-25{clip-path:url(#clip-path-24);}</style><clipPath id="clip-path"><path class="cls-1" d="M10.33,22.46,9.88,21H7.61l-.45,1.48H5.74l2.2-6.25H9.55l2.2,6.25Zm-.76-2.59c-.42-1.34-.66-2.1-.71-2.28s-.09-.31-.11-.41c-.09.36-.36,1.26-.81,2.69Z"/></clipPath><clipPath id="clip-path-2"><path class="cls-4" d="M10.2,30.73a1.63,1.63,0,0,1-.61,1.33,2.66,2.66,0,0,1-1.69.48,4,4,0,0,1-1.76-.37V30.94a7.49,7.49,0,0,0,1.07.4,2.94,2.94,0,0,0,.79.11,1.14,1.14,0,0,0,.67-.16.56.56,0,0,0,.23-.5.51.51,0,0,0-.1-.32,1.17,1.17,0,0,0-.3-.28q-.2-.12-.81-.42a4,4,0,0,1-.85-.51,2.14,2.14,0,0,1-.46-.58,1.67,1.67,0,0,1-.17-.76,1.62,1.62,0,0,1,.56-1.3,2.3,2.3,0,0,1,1.55-.47,3.59,3.59,0,0,1,.93.11,8.46,8.46,0,0,1,.92.32l-.43,1a7,7,0,0,0-.82-.29,2.87,2.87,0,0,0-.64-.08.84.84,0,0,0-.58.18.58.58,0,0,0-.2.45.62.62,0,0,0,.08.31,1,1,0,0,0,.26.25,8.34,8.34,0,0,0,.84.44,3.16,3.16,0,0,1,1.19.83A1.61,1.61,0,0,1,10.2,30.73Z"/></clipPath><clipPath id="clip-path-3"><path class="cls-3" d="M17.65,32.46H16.33V29.77H13.87v2.69H12.54V26.24h1.33v2.43h2.46V26.24h1.32Z"/></clipPath><clipPath id="clip-path-4"><path class="cls-5" d="M24,32.46H20.44V26.24H24v1.08H21.76v1.36h2.1v1.08h-2.1v1.61H24Z"/></clipPath><clipPath id="clip-path-5"><path class="cls-6" d="M26.54,32.46V26.24h1.32v5.13h2.53v1.09Z"/></clipPath><clipPath id="clip-path-6"><path class="cls-7" d="M35.09,32.46H33.77V27.33H32.08V26.24h4.7v1.09H35.09Z"/></clipPath><clipPath id="clip-path-7"><path class="cls-8" d="M42.54,32.46H39V26.24h3.58v1.08H40.28v1.36h2.1v1.08h-2.1v1.61h2.26Z"/></clipPath><clipPath id="clip-path-8"><path class="cls-9" d="M46.38,30.07v2.39H45.06V26.24h1.81a3.08,3.08,0,0,1,1.88.46,1.62,1.62,0,0,1,.61,1.4,1.67,1.67,0,0,1-.3,1,2.1,2.1,0,0,1-.86.67L50,32.46H48.57l-1.49-2.39Zm0-1.07h.43a1.62,1.62,0,0,0,.92-.21.75.75,0,0,0,.3-.66.68.68,0,0,0-.31-.63,1.88,1.88,0,0,0-.94-.18h-.4Z"/></clipPath><clipPath id="clip-path-9"><path class="cls-10" d="M52,26.24H54a3.77,3.77,0,0,1,1.93.37,1.32,1.32,0,0,1,.59,1.2,1.49,1.49,0,0,1-.26.92,1.06,1.06,0,0,1-.69.43v0a1.37,1.37,0,0,1,.85.49,1.63,1.63,0,0,1,.26,1A1.58,1.58,0,0,1,56,32a2.65,2.65,0,0,1-1.67.48H52Zm1.32,2.46h.76a1.41,1.41,0,0,0,.78-.17.62.62,0,0,0,.24-.55.56.56,0,0,0-.26-.51,1.75,1.75,0,0,0-.83-.15h-.69Zm0,1.05v1.62h.86a1.25,1.25,0,0,0,.8-.21.78.78,0,0,0,.26-.64c0-.51-.37-.77-1.11-.77Z"/></clipPath><clipPath id="clip-path-10"><path class="cls-11" d="M64.76,29.34A3.36,3.36,0,0,1,64,31.71a3.33,3.33,0,0,1-4.4,0,3.37,3.37,0,0,1-.76-2.38A3.28,3.28,0,0,1,59.61,27a2.84,2.84,0,0,1,2.2-.82A2.81,2.81,0,0,1,64,27,3.39,3.39,0,0,1,64.76,29.34Zm-4.54,0a2.56,2.56,0,0,0,.4,1.57,1.39,1.39,0,0,0,1.18.53c1.05,0,1.58-.7,1.58-2.1s-.52-2.1-1.57-2.1a1.39,1.39,0,0,0-1.19.53A2.61,2.61,0,0,0,60.22,29.34Z"/></clipPath><clipPath id="clip-path-11"><path class="cls-12" d="M72.31,32.46H70.8L69.35,30.1l-1.44,2.36H66.49l2.07-3.21-1.94-3h1.46l1.34,2.23,1.32-2.23h1.42l-2,3.08Z"/></clipPath><clipPath id="clip-path-12"><path class="cls-2" d="M20.92,20.73a1.6,1.6,0,0,1-.61,1.33,2.66,2.66,0,0,1-1.69.48,4,4,0,0,1-1.76-.37V20.94a7.49,7.49,0,0,0,1.07.4,3,3,0,0,0,.8.11,1.11,1.11,0,0,0,.66-.16.56.56,0,0,0,.23-.5.51.51,0,0,0-.1-.32,1.17,1.17,0,0,0-.3-.28c-.13-.08-.4-.22-.8-.42a3.87,3.87,0,0,1-.86-.51,2.14,2.14,0,0,1-.46-.58,1.67,1.67,0,0,1-.17-.76,1.62,1.62,0,0,1,.56-1.3A2.32,2.32,0,0,1,19,16.15a3.59,3.59,0,0,1,.93.11,8.46,8.46,0,0,1,.92.32l-.43,1a6.43,6.43,0,0,0-.82-.29,2.87,2.87,0,0,0-.64-.08.86.86,0,0,0-.58.18.58.58,0,0,0-.2.45.62.62,0,0,0,.08.31,1,1,0,0,0,.26.25,8.34,8.34,0,0,0,.84.44,3.16,3.16,0,0,1,1.19.83A1.61,1.61,0,0,1,20.92,20.73Z"/></clipPath><clipPath id="clip-path-13"><path class="cls-13" d="M82.1,28.18a1.88,1.88,0,0,1-.63,1.53,2.66,2.66,0,0,1-1.79.53h-.56v2.22H77.8V26.24h2a2.69,2.69,0,0,1,1.72.48A1.8,1.8,0,0,1,82.1,28.18Zm-3,1h.43a1.43,1.43,0,0,0,.91-.24.84.84,0,0,0,.3-.7.85.85,0,0,0-.25-.68,1.17,1.17,0,0,0-.79-.22h-.6Z"/></clipPath><clipPath id="clip-path-14"><path class="cls-15" d="M88.3,32.46,87.85,31H85.58l-.45,1.48H83.71l2.2-6.25h1.61l2.2,6.25Zm-.76-2.59c-.42-1.34-.66-2.1-.71-2.28s-.09-.31-.11-.41c-.1.36-.36,1.26-.81,2.69Z"/></clipPath><clipPath id="clip-path-15"><path class="cls-16" d="M93.05,30.07v2.39H91.73V26.24h1.81a3.1,3.1,0,0,1,1.88.46A1.62,1.62,0,0,1,96,28.1a1.67,1.67,0,0,1-.3,1,2.17,2.17,0,0,1-.86.67l1.83,2.71H95.24l-1.49-2.39Zm0-1.07h.42a1.64,1.64,0,0,0,.93-.21.75.75,0,0,0,.3-.66.7.7,0,0,0-.31-.63,1.9,1.9,0,0,0-.94-.18h-.4Z"/></clipPath><clipPath id="clip-path-16"><path class="cls-17" d="M101.11,32.46H99.79V27.33H98.1V26.24h4.7v1.09h-1.69Z"/></clipPath><clipPath id="clip-path-17"><path class="cls-14" d="M28.37,22.46H27.05V19.77H24.59v2.69H23.27V16.24h1.32v2.43h2.46V16.24h1.32Z"/></clipPath><clipPath id="clip-path-18"><path class="cls-19" d="M31.16,22.46V16.24h1.32v6.22Z"/></clipPath><clipPath id="clip-path-19"><path class="cls-20" d="M40.79,22.46H39.11L36.4,17.75h0c.06.83.09,1.42.09,1.78v2.93H35.27V16.24h1.66l2.7,4.66h0c0-.81-.06-1.38-.06-1.72V16.24h1.19Z"/></clipPath><clipPath id="clip-path-20"><path class="cls-21" d="M47.16,22.46H43.58V16.24h3.58v1.08H44.9v1.36H47v1.08H44.9v1.61h2.26Z"/></clipPath><clipPath id="clip-path-21"><path class="cls-22" d="M54.46,22.46h-1.3V16.24h3.57v1.08H54.46v1.6h2.11V20H54.46Z"/></clipPath><clipPath id="clip-path-22"><path class="cls-23" d="M64.82,19.34a3.36,3.36,0,0,1-.77,2.37,3.32,3.32,0,0,1-4.39,0,3.37,3.37,0,0,1-.77-2.38A3.33,3.33,0,0,1,59.66,17a2.87,2.87,0,0,1,2.21-.82,2.84,2.84,0,0,1,2.19.82A3.39,3.39,0,0,1,64.82,19.34Zm-4.54,0a2.63,2.63,0,0,0,.39,1.57,1.41,1.41,0,0,0,1.19.53c1,0,1.58-.7,1.58-2.1s-.53-2.1-1.57-2.1a1.37,1.37,0,0,0-1.19.53A2.54,2.54,0,0,0,60.28,19.34Z"/></clipPath><clipPath id="clip-path-23"><path class="cls-24" d="M68.65,20.07v2.39H67.33V16.24h1.81A3.08,3.08,0,0,1,71,16.7a1.62,1.62,0,0,1,.61,1.4,1.67,1.67,0,0,1-.3,1,2.1,2.1,0,0,1-.86.67l1.83,2.71H70.84l-1.49-2.39Zm0-1.07h.43a1.62,1.62,0,0,0,.92-.21.75.75,0,0,0,.3-.66A.68.68,0,0,0,70,17.5a1.88,1.88,0,0,0-.94-.18h-.4Z"/></clipPath><clipPath id="clip-path-24"><path class="cls-18" d="M106.91,28.8l1.3-2.56h1.42L107.57,30v2.42h-1.31V30.08l-2.07-3.84h1.43Z"/></clipPath></defs><title>text2</title><g id="Layer_2" data-name="Layer 2"><g id="Layer_1-2" data-name="Layer 1"><path class="cls-1" d="M10.33,22.46,9.88,21H7.61l-.45,1.48H5.74l2.2-6.25H9.55l2.2,6.25Zm-.76-2.59c-.42-1.34-.66-2.1-.71-2.28s-.09-.31-.11-.41c-.09.36-.36,1.26-.81,2.69Z"/><path class="cls-1" d="M20.92,20.73a1.6,1.6,0,0,1-.61,1.33,2.66,2.66,0,0,1-1.69.48,4,4,0,0,1-1.76-.37V20.94a7.49,7.49,0,0,0,1.07.4,3,3,0,0,0,.8.11,1.11,1.11,0,0,0,.66-.16.56.56,0,0,0,.23-.5.51.51,0,0,0-.1-.32,1.17,1.17,0,0,0-.3-.28c-.13-.08-.4-.22-.8-.42a3.87,3.87,0,0,1-.86-.51,2.14,2.14,0,0,1-.46-.58,1.67,1.67,0,0,1-.17-.76,1.62,1.62,0,0,1,.56-1.3A2.32,2.32,0,0,1,19,16.15a3.59,3.59,0,0,1,.93.11,8.46,8.46,0,0,1,.92.32l-.43,1a6.43,6.43,0,0,0-.82-.29,2.87,2.87,0,0,0-.64-.08.86.86,0,0,0-.58.18.58.58,0,0,0-.2.45.62.62,0,0,0,.08.31,1,1,0,0,0,.26.25,8.34,8.34,0,0,0,.84.44,3.16,3.16,0,0,1,1.19.83A1.61,1.61,0,0,1,20.92,20.73Z"/><path class="cls-1" d="M28.37,22.46H27.05V19.77H24.59v2.69H23.27V16.24h1.32v2.43h2.46V16.24h1.32Z"/><path class="cls-1" d="M31.16,22.46V16.24h1.32v6.22Z"/><path class="cls-1" d="M40.79,22.46H39.11L36.4,17.75h0c.06.83.09,1.42.09,1.78v2.93H35.27V16.24h1.66l2.7,4.66h0c0-.81-.06-1.38-.06-1.72V16.24h1.19Z"/><path class="cls-1" d="M47.16,22.46H43.58V16.24h3.58v1.08H44.9v1.36H47v1.08H44.9v1.61h2.26Z"/><path class="cls-1" d="M54.46,22.46h-1.3V16.24h3.57v1.08H54.46v1.6h2.11V20H54.46Z"/><path class="cls-1" d="M64.82,19.34a3.36,3.36,0,0,1-.77,2.37,3.32,3.32,0,0,1-4.39,0,3.37,3.37,0,0,1-.77-2.38A3.33,3.33,0,0,1,59.66,17a2.87,2.87,0,0,1,2.21-.82,2.84,2.84,0,0,1,2.19.82A3.39,3.39,0,0,1,64.82,19.34Zm-4.54,0a2.63,2.63,0,0,0,.39,1.57,1.41,1.41,0,0,0,1.19.53c1,0,1.58-.7,1.58-2.1s-.53-2.1-1.57-2.1a1.37,1.37,0,0,0-1.19.53A2.54,2.54,0,0,0,60.28,19.34Z"/><path class="cls-1" d="M68.65,20.07v2.39H67.33V16.24h1.81A3.08,3.08,0,0,1,71,16.7a1.62,1.62,0,0,1,.61,1.4,1.67,1.67,0,0,1-.3,1,2.1,2.1,0,0,1-.86.67l1.83,2.71H70.84l-1.49-2.39Zm0-1.07h.43a1.62,1.62,0,0,0,.92-.21.75.75,0,0,0,.3-.66A.68.68,0,0,0,70,17.5a1.88,1.88,0,0,0-.94-.18h-.4Z"/><path class="cls-1" d="M10.2,30.73a1.63,1.63,0,0,1-.61,1.33,2.66,2.66,0,0,1-1.69.48,4,4,0,0,1-1.76-.37V30.94a7.49,7.49,0,0,0,1.07.4,2.94,2.94,0,0,0,.79.11,1.14,1.14,0,0,0,.67-.16.56.56,0,0,0,.23-.5.51.51,0,0,0-.1-.32,1.17,1.17,0,0,0-.3-.28q-.2-.12-.81-.42a4,4,0,0,1-.85-.51,2.14,2.14,0,0,1-.46-.58,1.67,1.67,0,0,1-.17-.76,1.62,1.62,0,0,1,.56-1.3,2.3,2.3,0,0,1,1.55-.47,3.59,3.59,0,0,1,.93.11,8.46,8.46,0,0,1,.92.32l-.43,1a7,7,0,0,0-.82-.29,2.87,2.87,0,0,0-.64-.08.84.84,0,0,0-.58.18.58.58,0,0,0-.2.45.62.62,0,0,0,.08.31,1,1,0,0,0,.26.25,8.34,8.34,0,0,0,.84.44,3.16,3.16,0,0,1,1.19.83A1.61,1.61,0,0,1,10.2,30.73Z"/><path class="cls-1" d="M17.65,32.46H16.33V29.77H13.87v2.69H12.54V26.24h1.33v2.43h2.46V26.24h1.32Z"/><path class="cls-1" d="M24,32.46H20.44V26.24H24v1.08H21.76v1.36h2.1v1.08h-2.1v1.61H24Z"/><path class="cls-1" d="M26.54,32.46V26.24h1.32v5.13h2.53v1.09Z"/><path class="cls-1" d="M35.09,32.46H33.77V27.33H32.08V26.24h4.7v1.09H35.09Z"/><path class="cls-1" d="M42.54,32.46H39V26.24h3.58v1.08H40.28v1.36h2.1v1.08h-2.1v1.61h2.26Z"/><path class="cls-1" d="M46.38,30.07v2.39H45.06V26.24h1.81a3.08,3.08,0,0,1,1.88.46,1.62,1.62,0,0,1,.61,1.4,1.67,1.67,0,0,1-.3,1,2.1,2.1,0,0,1-.86.67L50,32.46H48.57l-1.49-2.39Zm0-1.07h.43a1.62,1.62,0,0,0,.92-.21.75.75,0,0,0,.3-.66.68.68,0,0,0-.31-.63,1.88,1.88,0,0,0-.94-.18h-.4Z"/><path class="cls-1" d="M52,26.24H54a3.77,3.77,0,0,1,1.93.37,1.32,1.32,0,0,1,.59,1.2,1.49,1.49,0,0,1-.26.92,1.06,1.06,0,0,1-.69.43v0a1.37,1.37,0,0,1,.85.49,1.63,1.63,0,0,1,.26,1A1.58,1.58,0,0,1,56,32a2.65,2.65,0,0,1-1.67.48H52Zm1.32,2.46h.76a1.41,1.41,0,0,0,.78-.17.62.62,0,0,0,.24-.55.56.56,0,0,0-.26-.51,1.75,1.75,0,0,0-.83-.15h-.69Zm0,1.05v1.62h.86a1.25,1.25,0,0,0,.8-.21.78.78,0,0,0,.26-.64c0-.51-.37-.77-1.11-.77Z"/><path class="cls-1" d="M64.76,29.34A3.36,3.36,0,0,1,64,31.71a3.33,3.33,0,0,1-4.4,0,3.37,3.37,0,0,1-.76-2.38A3.28,3.28,0,0,1,59.61,27a2.84,2.84,0,0,1,2.2-.82A2.81,2.81,0,0,1,64,27,3.39,3.39,0,0,1,64.76,29.34Zm-4.54,0a2.56,2.56,0,0,0,.4,1.57,1.39,1.39,0,0,0,1.18.53c1.05,0,1.58-.7,1.58-2.1s-.52-2.1-1.57-2.1a1.39,1.39,0,0,0-1.19.53A2.61,2.61,0,0,0,60.22,29.34Z"/><path class="cls-1" d="M72.31,32.46H70.8L69.35,30.1l-1.44,2.36H66.49l2.07-3.21-1.94-3h1.46l1.34,2.23,1.32-2.23h1.42l-2,3.08Z"/><path class="cls-1" d="M82.1,28.18a1.88,1.88,0,0,1-.63,1.53,2.66,2.66,0,0,1-1.79.53h-.56v2.22H77.8V26.24h2a2.69,2.69,0,0,1,1.72.48A1.8,1.8,0,0,1,82.1,28.18Zm-3,1h.43a1.43,1.43,0,0,0,.91-.24.84.84,0,0,0,.3-.7.85.85,0,0,0-.25-.68,1.17,1.17,0,0,0-.79-.22h-.6Z"/><path class="cls-1" d="M88.3,32.46,87.85,31H85.58l-.45,1.48H83.71l2.2-6.25h1.61l2.2,6.25Zm-.76-2.59c-.42-1.34-.66-2.1-.71-2.28s-.09-.31-.11-.41c-.1.36-.36,1.26-.81,2.69Z"/><path class="cls-1" d="M93.05,30.07v2.39H91.73V26.24h1.81a3.1,3.1,0,0,1,1.88.46A1.62,1.62,0,0,1,96,28.1a1.67,1.67,0,0,1-.3,1,2.17,2.17,0,0,1-.86.67l1.83,2.71H95.24l-1.49-2.39Zm0-1.07h.42a1.64,1.64,0,0,0,.93-.21.75.75,0,0,0,.3-.66.7.7,0,0,0-.31-.63,1.9,1.9,0,0,0-.94-.18h-.4Z"/><path class="cls-1" d="M101.11,32.46H99.79V27.33H98.1V26.24h4.7v1.09h-1.69Z"/><path class="cls-1" d="M106.91,28.8l1.3-2.56h1.42L107.57,30v2.42h-1.31V30.08l-2.07-3.84h1.43Z"/><g class="cls-25"><rect class="cls-1" width="320" height="50"/></g></g></g></svg>