<svg xmlns="http://www.w3.org/2000/svg" xmlns:xlink="http://www.w3.org/1999/xlink" viewBox="0 0 320 50"><defs><style>.cls-1,.cls-10,.cls-11,.cls-12,.cls-13,.cls-14,.cls-15,.cls-16,.cls-17,.cls-18,.cls-19,.cls-2,.cls-20,.cls-21,.cls-22,.cls-23,.cls-24,.cls-25,.cls-26,.cls-3,.cls-4,.cls-5,.cls-6,.cls-7,.cls-8,.cls-9{fill:#fff;}.cls-2{clip-path:url(#clip-path);}.cls-3{clip-path:url(#clip-path-2);}.cls-4{clip-path:url(#clip-path-25);}.cls-5{clip-path:url(#clip-path-3);}.cls-6{clip-path:url(#clip-path-4);}.cls-7{clip-path:url(#clip-path-5);}.cls-8{clip-path:url(#clip-path-6);}.cls-9{clip-path:url(#clip-path-7);}.cls-10{clip-path:url(#clip-path-8);}.cls-11{clip-path:url(#clip-path-9);}.cls-12{clip-path:url(#clip-path-10);}.cls-13{clip-path:url(#clip-path-11);}.cls-14{clip-path:url(#clip-path-12);}.cls-15{clip-path:url(#clip-path-13);}.cls-16{clip-path:url(#clip-path-14);}.cls-17{clip-path:url(#clip-path-15);}.cls-18{clip-path:url(#clip-path-16);}.cls-19{clip-path:url(#clip-path-17);}.cls-20{clip-path:url(#clip-path-18);}.cls-21{clip-path:url(#clip-path-19);}.cls-22{clip-path:url(#clip-path-20);}.cls-23{clip-path:url(#clip-path-21);}.cls-24{clip-path:url(#clip-path-22);}.cls-25{clip-path:url(#clip-path-23);}.cls-26{clip-path:url(#clip-path-24);}.cls-27{clip-path:url(#clip-path-26);}</style><clipPath id="clip-path"><path class="cls-1" d="M9.35,22.46l-1.5-4.88h0c.05,1,.08,1.65.08,2v2.9H6.71V16.23h1.8L10,21h0l1.57-4.76h1.79v6.23H12.13V19.51c0-.14,0-.3,0-.48s0-.66.06-1.45h0l-1.61,4.88Z"/></clipPath><clipPath id="clip-path-2"><path class="cls-4" d="M85,22.46H81.39V16.23H85v1.09H82.71v1.36h2.11v1.08H82.71v1.61H85Z"/></clipPath><clipPath id="clip-path-3"><path class="cls-3" d="M92.53,22.46H91L89.57,20.1l-1.45,2.36H86.71l2.07-3.21-1.94-3H88.3l1.34,2.24L91,16.23h1.42l-2,3.09Z"/></clipPath><clipPath id="clip-path-4"><path class="cls-5" d="M96.93,22.46H95.61V17.33H93.92v-1.1h4.7v1.1H96.93Z"/></clipPath><clipPath id="clip-path-5"><path class="cls-6" d="M9.07,29h2.47v3.23a8.08,8.08,0,0,1-1.13.28,7.64,7.64,0,0,1-1.08.07,2.73,2.73,0,0,1-2.15-.82,3.45,3.45,0,0,1-.75-2.38A3.11,3.11,0,0,1,7.3,27a3.27,3.27,0,0,1,2.39-.85,4.54,4.54,0,0,1,1.84.39l-.44,1a3.18,3.18,0,0,0-1.41-.34,1.73,1.73,0,0,0-1.37.58,2.19,2.19,0,0,0-.52,1.54,2.47,2.47,0,0,0,.42,1.55,1.41,1.41,0,0,0,1.2.53,4,4,0,0,0,.84-.08v-1.3H9.07Z"/></clipPath><clipPath id="clip-path-6"><path class="cls-7" d="M17.83,32.46H14.24V26.23h3.59v1.09H15.56v1.36h2.11v1.08H15.56v1.61h2.27Z"/></clipPath><clipPath id="clip-path-7"><path class="cls-8" d="M22.75,32.46H21.43V27.33H19.74v-1.1h4.7v1.1H22.75Z"/></clipPath><clipPath id="clip-path-8"><path class="cls-9" d="M32.5,32.46H31.18V27.33H29.5v-1.1h4.7v1.1H32.5Z"/></clipPath><clipPath id="clip-path-9"><path class="cls-10" d="M42,29.34a3.36,3.36,0,0,1-.76,2.37,3.33,3.33,0,0,1-4.4,0,3.37,3.37,0,0,1-.76-2.38A3.28,3.28,0,0,1,36.87,27a3.35,3.35,0,0,1,4.39,0A3.37,3.37,0,0,1,42,29.34Zm-4.54,0a2.56,2.56,0,0,0,.4,1.57,1.37,1.37,0,0,0,1.18.53c1,0,1.58-.7,1.58-2.1s-.52-2.11-1.57-2.11a1.41,1.41,0,0,0-1.19.53A2.59,2.59,0,0,0,37.48,29.34Z"/></clipPath><clipPath id="clip-path-10"><path class="cls-11" d="M46.9,29h2.47v3.23a8.43,8.43,0,0,1-1.13.28,7.88,7.88,0,0,1-1.09.07A2.75,2.75,0,0,1,45,31.72a3.45,3.45,0,0,1-.74-2.38A3.1,3.1,0,0,1,45.12,27a3.27,3.27,0,0,1,2.39-.85,4.59,4.59,0,0,1,1.85.39l-.44,1a3.26,3.26,0,0,0-1.42-.34,1.73,1.73,0,0,0-1.37.58,2.24,2.24,0,0,0-.52,1.54A2.47,2.47,0,0,0,46,30.91a1.43,1.43,0,0,0,1.21.53,4.11,4.11,0,0,0,.84-.08v-1.3H46.9Z"/></clipPath><clipPath id="clip-path-11"><path class="cls-12" d="M55.65,32.46H52.07V26.23h3.58v1.09H53.39v1.36h2.1v1.08h-2.1v1.61h2.26Z"/></clipPath><clipPath id="clip-path-12"><path class="cls-2" d="M20,22.46,19.51,21H17.24l-.45,1.48H15.37l2.19-6.25h1.62l2.2,6.25Zm-.76-2.59c-.42-1.34-.66-2.1-.71-2.28s-.09-.31-.11-.41c-.1.36-.36,1.26-.81,2.69Z"/></clipPath><clipPath id="clip-path-13"><path class="cls-13" d="M60.57,32.46H59.25V27.33H57.56v-1.1h4.7v1.1H60.57Z"/></clipPath><clipPath id="clip-path-14"><path class="cls-15" d="M69.54,32.46H68.23V29.77H65.76v2.69H64.44V26.23h1.32v2.44h2.47V26.23h1.31Z"/></clipPath><clipPath id="clip-path-15"><path class="cls-16" d="M75.92,32.46H72.33V26.23h3.59v1.09H73.65v1.36h2.11v1.08H73.65v1.61h2.27Z"/></clipPath><clipPath id="clip-path-16"><path class="cls-17" d="M79.76,30.07v2.39H78.44V26.23h1.81a3.11,3.11,0,0,1,1.88.47,1.65,1.65,0,0,1,.61,1.4,1.68,1.68,0,0,1-.31,1,2.07,2.07,0,0,1-.85.67c.93,1.4,1.54,2.3,1.83,2.71H81.94l-1.48-2.39Zm0-1.07h.42a1.64,1.64,0,0,0,.93-.21.77.77,0,0,0,.29-.66.7.7,0,0,0-.3-.63,1.9,1.9,0,0,0-.94-.18h-.4Z"/></clipPath><clipPath id="clip-path-17"><path class="cls-18" d="M85.13,31.85a.7.7,0,0,1,.19-.54.79.79,0,0,1,.56-.18.77.77,0,0,1,.54.18.73.73,0,0,1,.2.54.67.67,0,0,1-.74.72.76.76,0,0,1-.56-.19A.69.69,0,0,1,85.13,31.85Z"/></clipPath><clipPath id="clip-path-18"><path class="cls-19" d="M88.83,31.85a.7.7,0,0,1,.2-.54.76.76,0,0,1,.55-.18.78.78,0,0,1,.55.18.73.73,0,0,1,.19.54.72.72,0,0,1-.19.53.89.89,0,0,1-1.1,0A.69.69,0,0,1,88.83,31.85Z"/></clipPath><clipPath id="clip-path-19"><path class="cls-14" d="M28.39,22.46H26.9l-1.63-2.62-.56.4v2.22H23.39V16.23h1.32v2.85l.52-.73,1.68-2.12h1.47L26.21,19Z"/></clipPath><clipPath id="clip-path-20"><path class="cls-21" d="M34,22.46H30.4V16.23H34v1.09H31.72v1.36h2.11v1.08H31.72v1.61H34Z"/></clipPath><clipPath id="clip-path-21"><path class="cls-22" d="M41.92,18.8l1.3-2.57h1.42L42.58,20v2.42H41.27V20.08L39.2,16.23h1.43Z"/></clipPath><clipPath id="clip-path-22"><path class="cls-23" d="M52.3,19.34a3.36,3.36,0,0,1-.77,2.37,3.32,3.32,0,0,1-4.39,0,3.37,3.37,0,0,1-.77-2.38A3.33,3.33,0,0,1,47.14,17a3.36,3.36,0,0,1,4.4,0A3.42,3.42,0,0,1,52.3,19.34Zm-4.54,0a2.63,2.63,0,0,0,.39,1.57,1.4,1.4,0,0,0,1.18.53c1.06,0,1.58-.7,1.58-2.1s-.52-2.11-1.57-2.11a1.39,1.39,0,0,0-1.18.53A2.59,2.59,0,0,0,47.76,19.34Z"/></clipPath><clipPath id="clip-path-23"><path class="cls-24" d="M59.88,16.23v4a2.39,2.39,0,0,1-.31,1.21,2.07,2.07,0,0,1-.9.8,3.2,3.2,0,0,1-1.38.27,2.62,2.62,0,0,1-1.86-.61,2.19,2.19,0,0,1-.66-1.69v-4h1.31V20a1.62,1.62,0,0,0,.29,1.06,1.5,1.5,0,0,0,1.9,0A1.64,1.64,0,0,0,58.56,20V16.23Z"/></clipPath><clipPath id="clip-path-24"><path class="cls-25" d="M63.94,20.07v2.39H62.62V16.23h1.81a3.09,3.09,0,0,1,1.88.47,1.62,1.62,0,0,1,.61,1.4,1.67,1.67,0,0,1-.3,1,2.1,2.1,0,0,1-.86.67l1.83,2.71H66.13l-1.49-2.39Zm0-1.07h.43a1.62,1.62,0,0,0,.92-.21.75.75,0,0,0,.3-.66.68.68,0,0,0-.31-.63,1.9,1.9,0,0,0-.94-.18h-.4Z"/></clipPath><clipPath id="clip-path-25"><path class="cls-26" d="M78.6,22.46H76.93l-2.71-4.71h0c0,.83.08,1.42.08,1.78v2.93H73.08V16.23h1.67l2.7,4.67h0c0-.81-.06-1.39-.06-1.72V16.23H78.6Z"/></clipPath><clipPath id="clip-path-26"><path class="cls-20" d="M92.54,31.85a.7.7,0,0,1,.19-.54.8.8,0,0,1,.56-.18.78.78,0,0,1,.55.18.73.73,0,0,1,.19.54.69.69,0,0,1-.2.53.71.71,0,0,1-.54.19.74.74,0,0,1-.55-.19A.69.69,0,0,1,92.54,31.85Z"/></clipPath></defs><title>text1</title><g id="Layer_2" data-name="Layer 2"><g id="Layer_1-2" data-name="Layer 1"><path class="cls-1" d="M9.35,22.46l-1.5-4.88h0c.05,1,.08,1.65.08,2v2.9H6.71V16.23h1.8L10,21h0l1.57-4.76h1.79v6.23H12.13V19.51c0-.14,0-.3,0-.48s0-.66.06-1.45h0l-1.61,4.88Z"/><path class="cls-1" d="M20,22.46,19.51,21H17.24l-.45,1.48H15.37l2.19-6.25h1.62l2.2,6.25Zm-.76-2.59c-.42-1.34-.66-2.1-.71-2.28s-.09-.31-.11-.41c-.1.36-.36,1.26-.81,2.69Z"/><path class="cls-1" d="M28.39,22.46H26.9l-1.63-2.62-.56.4v2.22H23.39V16.23h1.32v2.85l.52-.73,1.68-2.12h1.47L26.21,19Z"/><path class="cls-1" d="M34,22.46H30.4V16.23H34v1.09H31.72v1.36h2.11v1.08H31.72v1.61H34Z"/><path class="cls-1" d="M41.92,18.8l1.3-2.57h1.42L42.58,20v2.42H41.27V20.08L39.2,16.23h1.43Z"/><path class="cls-1" d="M52.3,19.34a3.36,3.36,0,0,1-.77,2.37,3.32,3.32,0,0,1-4.39,0,3.37,3.37,0,0,1-.77-2.38A3.33,3.33,0,0,1,47.14,17a3.36,3.36,0,0,1,4.4,0A3.42,3.42,0,0,1,52.3,19.34Zm-4.54,0a2.63,2.63,0,0,0,.39,1.57,1.4,1.4,0,0,0,1.18.53c1.06,0,1.58-.7,1.58-2.1s-.52-2.11-1.57-2.11a1.39,1.39,0,0,0-1.18.53A2.59,2.59,0,0,0,47.76,19.34Z"/><path class="cls-1" d="M59.88,16.23v4a2.39,2.39,0,0,1-.31,1.21,2.07,2.07,0,0,1-.9.8,3.2,3.2,0,0,1-1.38.27,2.62,2.62,0,0,1-1.86-.61,2.19,2.19,0,0,1-.66-1.69v-4h1.31V20a1.62,1.62,0,0,0,.29,1.06,1.5,1.5,0,0,0,1.9,0A1.64,1.64,0,0,0,58.56,20V16.23Z"/><path class="cls-1" d="M63.94,20.07v2.39H62.62V16.23h1.81a3.09,3.09,0,0,1,1.88.47,1.62,1.62,0,0,1,.61,1.4,1.67,1.67,0,0,1-.3,1,2.1,2.1,0,0,1-.86.67l1.83,2.71H66.13l-1.49-2.39Zm0-1.07h.43a1.62,1.62,0,0,0,.92-.21.75.75,0,0,0,.3-.66.68.68,0,0,0-.31-.63,1.9,1.9,0,0,0-.94-.18h-.4Z"/><path class="cls-1" d="M78.6,22.46H76.93l-2.71-4.71h0c0,.83.08,1.42.08,1.78v2.93H73.08V16.23h1.67l2.7,4.67h0c0-.81-.06-1.39-.06-1.72V16.23H78.6Z"/><path class="cls-1" d="M85,22.46H81.39V16.23H85v1.09H82.71v1.36h2.11v1.08H82.71v1.61H85Z"/><path class="cls-1" d="M92.53,22.46H91L89.57,20.1l-1.45,2.36H86.71l2.07-3.21-1.94-3H88.3l1.34,2.24L91,16.23h1.42l-2,3.09Z"/><path class="cls-1" d="M96.93,22.46H95.61V17.33H93.92v-1.1h4.7v1.1H96.93Z"/><path class="cls-1" d="M9.07,29h2.47v3.23a8.08,8.08,0,0,1-1.13.28,7.64,7.64,0,0,1-1.08.07,2.73,2.73,0,0,1-2.15-.82,3.45,3.45,0,0,1-.75-2.38A3.11,3.11,0,0,1,7.3,27a3.27,3.27,0,0,1,2.39-.85,4.54,4.54,0,0,1,1.84.39l-.44,1a3.18,3.18,0,0,0-1.41-.34,1.73,1.73,0,0,0-1.37.58,2.19,2.19,0,0,0-.52,1.54,2.47,2.47,0,0,0,.42,1.55,1.41,1.41,0,0,0,1.2.53,4,4,0,0,0,.84-.08v-1.3H9.07Z"/><path class="cls-1" d="M17.83,32.46H14.24V26.23h3.59v1.09H15.56v1.36h2.11v1.08H15.56v1.61h2.27Z"/><path class="cls-1" d="M22.75,32.46H21.43V27.33H19.74v-1.1h4.7v1.1H22.75Z"/><path class="cls-1" d="M32.5,32.46H31.18V27.33H29.5v-1.1h4.7v1.1H32.5Z"/><path class="cls-1" d="M42,29.34a3.36,3.36,0,0,1-.76,2.37,3.33,3.33,0,0,1-4.4,0,3.37,3.37,0,0,1-.76-2.38A3.28,3.28,0,0,1,36.87,27a3.35,3.35,0,0,1,4.39,0A3.37,3.37,0,0,1,42,29.34Zm-4.54,0a2.56,2.56,0,0,0,.4,1.57,1.37,1.37,0,0,0,1.18.53c1,0,1.58-.7,1.58-2.1s-.52-2.11-1.57-2.11a1.41,1.41,0,0,0-1.19.53A2.59,2.59,0,0,0,37.48,29.34Z"/><path class="cls-1" d="M46.9,29h2.47v3.23a8.43,8.43,0,0,1-1.13.28,7.88,7.88,0,0,1-1.09.07A2.75,2.75,0,0,1,45,31.72a3.45,3.45,0,0,1-.74-2.38A3.1,3.1,0,0,1,45.12,27a3.27,3.27,0,0,1,2.39-.85,4.59,4.59,0,0,1,1.85.39l-.44,1a3.26,3.26,0,0,0-1.42-.34,1.73,1.73,0,0,0-1.37.58,2.24,2.24,0,0,0-.52,1.54A2.47,2.47,0,0,0,46,30.91a1.43,1.43,0,0,0,1.21.53,4.11,4.11,0,0,0,.84-.08v-1.3H46.9Z"/><path class="cls-1" d="M55.65,32.46H52.07V26.23h3.58v1.09H53.39v1.36h2.1v1.08h-2.1v1.61h2.26Z"/><path class="cls-1" d="M60.57,32.46H59.25V27.33H57.56v-1.1h4.7v1.1H60.57Z"/><path class="cls-1" d="M69.54,32.46H68.23V29.77H65.76v2.69H64.44V26.23h1.32v2.44h2.47V26.23h1.31Z"/><path class="cls-1" d="M75.92,32.46H72.33V26.23h3.59v1.09H73.65v1.36h2.11v1.08H73.65v1.61h2.27Z"/><path class="cls-1" d="M79.76,30.07v2.39H78.44V26.23h1.81a3.11,3.11,0,0,1,1.88.47,1.65,1.65,0,0,1,.61,1.4,1.68,1.68,0,0,1-.31,1,2.07,2.07,0,0,1-.85.67c.93,1.4,1.54,2.3,1.83,2.71H81.94l-1.48-2.39Zm0-1.07h.42a1.64,1.64,0,0,0,.93-.21.77.77,0,0,0,.29-.66.7.7,0,0,0-.3-.63,1.9,1.9,0,0,0-.94-.18h-.4Z"/><path class="cls-1" d="M85.13,31.85a.7.7,0,0,1,.19-.54.79.79,0,0,1,.56-.18.77.77,0,0,1,.54.18.73.73,0,0,1,.2.54.67.67,0,0,1-.74.72.76.76,0,0,1-.56-.19A.69.69,0,0,1,85.13,31.85Z"/><path class="cls-1" d="M88.83,31.85a.7.7,0,0,1,.2-.54.76.76,0,0,1,.55-.18.78.78,0,0,1,.55.18.73.73,0,0,1,.19.54.72.72,0,0,1-.19.53.89.89,0,0,1-1.1,0A.69.69,0,0,1,88.83,31.85Z"/><path class="cls-1" d="M92.54,31.85a.7.7,0,0,1,.19-.54.8.8,0,0,1,.56-.18.78.78,0,0,1,.55.18.73.73,0,0,1,.19.54.69.69,0,0,1-.2.53.71.71,0,0,1-.54.19.74.74,0,0,1-.55-.19A.69.69,0,0,1,92.54,31.85Z"/><g class="cls-27"><rect class="cls-1" width="320" height="50"/></g></g></g></svg>