<svg xmlns="http://www.w3.org/2000/svg" viewBox="0 0 300 600"><defs><style>.cls-1,.cls-4,.cls-5,.cls-6,.cls-7{fill:none;}.cls-2{fill:#009580;stroke-width:0.73px;}.cls-2,.cls-4,.cls-5,.cls-6,.cls-7{stroke:#f9c200;stroke-miterlimit:10;}.cls-3{fill:#fff;}.cls-4,.cls-5,.cls-6,.cls-7{stroke-linecap:round;}.cls-4,.cls-5{stroke-width:2.51px;}.cls-5{stroke-dasharray:0.38 5.02;}.cls-6,.cls-7{stroke-width:2.56px;}.cls-7{stroke-dasharray:0.38 5.12;}</style></defs><title>button_2</title><g id="Layer_2" data-name="Layer 2"><g id="Layer_1-2" data-name="Layer 1"><rect class="cls-1" width="300" height="600"/><rect class="cls-2" x="34.26" y="268.7" width="230.19" height="62.24"/><path class="cls-3" d="M49.29,299.8h7.88v10.3a21.87,21.87,0,0,1-7.06,1.12q-4.5,0-6.87-2.64T40.87,301a10,10,0,0,1,2.75-7.5,10.44,10.44,0,0,1,7.63-2.69A14.8,14.8,0,0,1,57.14,292l-1.4,3.37a10,10,0,0,0-4.52-1.08,5.61,5.61,0,0,0-4.38,1.83,7.14,7.14,0,0,0-1.64,4.93A7.92,7.92,0,0,0,46.52,306a4.6,4.6,0,0,0,3.86,1.71,13.59,13.59,0,0,0,2.67-.27V303.3H49.29Z"/><path class="cls-3" d="M72,311H60.51V291.09H72v3.45H64.72v4.36h6.73v3.45H64.72v5.12H72Z"/><path class="cls-3" d="M84.23,311H80V294.59h-5.4v-3.5h15v3.5h-5.4Z"/><path class="cls-3" d="M106.09,299.27l4.15-8.18h4.54l-6.59,12.13V311H104v-7.59l-6.59-12.27H102Z"/><path class="cls-3" d="M135.31,301c0,3.29-.81,5.82-2.45,7.58s-4,2.65-7,2.65-5.38-.88-7-2.65-2.44-4.3-2.44-7.61.81-5.83,2.45-7.57,4-2.62,7-2.62,5.39.88,7,2.64S135.31,297.69,135.31,301Zm-14.5,0a8.28,8.28,0,0,0,1.27,5,4.42,4.42,0,0,0,3.77,1.68q5,0,5-6.7t-5-6.71a4.44,4.44,0,0,0-3.79,1.69A8.27,8.27,0,0,0,120.81,301Z"/><path class="cls-3" d="M155.6,291.09v12.85a7.39,7.39,0,0,1-1,3.86,6.34,6.34,0,0,1-2.84,2.54,10.18,10.18,0,0,1-4.41.88,8.44,8.44,0,0,1-6-2,7,7,0,0,1-2.12-5.37v-12.8h4.2v12.16a5.08,5.08,0,0,0,.93,3.37,3.84,3.84,0,0,0,3.05,1.07,3.76,3.76,0,0,0,3-1.08,5.12,5.12,0,0,0,.93-3.39V291.09Z"/><path class="cls-3" d="M164.68,303.33V311h-4.22V291.09h5.79q4,0,6,1.47a5.86,5.86,0,0,1,1,7.6,6.38,6.38,0,0,1-2.73,2.14Q175,309,176.33,311h-4.67l-4.74-7.62Zm0-3.43H166a5.21,5.21,0,0,0,2.95-.66,2.37,2.37,0,0,0,1-2.09,2.18,2.18,0,0,0-1-2,6,6,0,0,0-3-.59h-1.27Z"/><path class="cls-3" d="M199.79,297.28a6.07,6.07,0,0,1-2,4.91,8.56,8.56,0,0,1-5.7,1.7h-1.8V311h-4.22V291.09h6.35a8.44,8.44,0,0,1,5.5,1.55A5.7,5.7,0,0,1,199.79,297.28Zm-9.51,3.15h1.38a4.62,4.62,0,0,0,2.91-.76,2.7,2.7,0,0,0,1-2.24,2.75,2.75,0,0,0-.81-2.19,3.82,3.82,0,0,0-2.54-.7h-1.91Z"/><path class="cls-3" d="M215.7,311l-1.44-4.73H207L205.58,311H201l7-19.95h5.15l7,19.95Zm-2.45-8.26c-1.33-4.28-2.08-6.71-2.25-7.27s-.28-1-.35-1.33q-.45,1.74-2.57,8.6Z"/><path class="cls-3" d="M231.18,294.31a4.3,4.3,0,0,0-3.69,1.78,8.31,8.31,0,0,0-1.3,5q0,6.65,5,6.65a15.78,15.78,0,0,0,5.07-1.05v3.54a14.29,14.29,0,0,1-5.47,1,8.3,8.3,0,0,1-6.63-2.63q-2.29-2.62-2.29-7.54a12.33,12.33,0,0,1,1.12-5.43,8.24,8.24,0,0,1,3.24-3.58,9.59,9.59,0,0,1,5-1.24,13.39,13.39,0,0,1,5.81,1.4l-1.36,3.42a22.47,22.47,0,0,0-2.24-.92A6.74,6.74,0,0,0,231.18,294.31Z"/><path class="cls-3" d="M256.45,311h-4.78l-5.21-8.37-1.78,1.28V311h-4.21V291.09h4.21v9.09l1.66-2.34,5.38-6.75h4.68l-6.93,8.79Z"/><line class="cls-4" x1="33.99" y1="348.99" x2="34.18" y2="348.99"/><line class="cls-5" x1="39.2" y1="348.99" x2="263.33" y2="348.99"/><line class="cls-4" x1="265.84" y1="348.99" x2="266.03" y2="348.99"/><line class="cls-6" x1="33.99" y1="251.03" x2="34.18" y2="251.03"/><line class="cls-7" x1="39.3" y1="251.03" x2="262.52" y2="251.03"/><line class="cls-6" x1="265.08" y1="251.03" x2="265.27" y2="251.03"/></g></g></svg>