<svg xmlns="http://www.w3.org/2000/svg" viewBox="0 0 102.59 38.61"><defs><style>.cls-1,.cls-3{fill:#fff;}.cls-2{fill:#009982;}.cls-2,.cls-3{fill-rule:evenodd;}.cls-4{font-size:14.5px;font-family:HelveticaNeue, Helvetica Neue;}.cls-4,.cls-7{fill:#f9c200;}.cls-5{letter-spacing:0.02em;}.cls-6{letter-spacing:0.02em;}</style></defs><title>logo</title><g id="Layer_2" data-name="Layer 2"><g id="Layer_1-2" data-name="Layer 1"><path class="cls-1" d="M30,35.76a1.67,1.67,0,0,0,.51.6,2.15,2.15,0,0,0,.75.34,3.29,3.29,0,0,0,.89.11,4,4,0,0,0,.67-.05,2.17,2.17,0,0,0,.67-.2,1.48,1.48,0,0,0,.52-.41,1.06,1.06,0,0,0,.2-.66.94.94,0,0,0-.27-.7,2.26,2.26,0,0,0-.72-.44,7.13,7.13,0,0,0-1-.31q-.57-.13-1.14-.3a11.15,11.15,0,0,1-1.16-.36,4.11,4.11,0,0,1-1-.56,2.57,2.57,0,0,1-.72-.85,2.64,2.64,0,0,1-.27-1.24,2.79,2.79,0,0,1,.34-1.42,3.26,3.26,0,0,1,.92-1,3.92,3.92,0,0,1,1.27-.6,5.85,5.85,0,0,1,1.43-.19,6.41,6.41,0,0,1,1.59.19,3.82,3.82,0,0,1,1.36.6,2.91,2.91,0,0,1,.94,1.06,3.16,3.16,0,0,1,.35,1.56H33.86a1.94,1.94,0,0,0-.2-.78,1.36,1.36,0,0,0-.46-.49,1.82,1.82,0,0,0-.64-.25,3.94,3.94,0,0,0-.8-.08,2.74,2.74,0,0,0-.56.06,1.45,1.45,0,0,0-.51.21,1.22,1.22,0,0,0-.38.37,1,1,0,0,0-.15.56,1,1,0,0,0,.12.51,1.09,1.09,0,0,0,.47.36,7.09,7.09,0,0,0,1,.32l1.61.42c.2,0,.48.11.83.21a4,4,0,0,1,1,.5,3.12,3.12,0,0,1,.9.91,2.62,2.62,0,0,1,.38,1.46,3.25,3.25,0,0,1-.28,1.36,3,3,0,0,1-.84,1.07,4.08,4.08,0,0,1-1.38.71,6.86,6.86,0,0,1-1.91.25,6.45,6.45,0,0,1-1.7-.22,4.29,4.29,0,0,1-1.45-.67,3.32,3.32,0,0,1-1-1.17,3.5,3.5,0,0,1-.36-1.7h2.26a1.94,1.94,0,0,0,.19.91"/><path class="cls-1" d="M39.41,27.77v4h0a2.48,2.48,0,0,1,1-1,2.77,2.77,0,0,1,1.21-.3,3.63,3.63,0,0,1,1.39.23,2.09,2.09,0,0,1,.86.64,2.48,2.48,0,0,1,.43,1,5.84,5.84,0,0,1,.13,1.3v4.72H42.39V34a2.77,2.77,0,0,0-.29-1.42A1.16,1.16,0,0,0,41,32.15a1.48,1.48,0,0,0-1.25.51,3,3,0,0,0-.38,1.69v4H37.3V27.77Z"/><path class="cls-1" d="M48.14,36.53a2.15,2.15,0,0,0,2.46.14,1.34,1.34,0,0,0,.57-.67H53a3.5,3.5,0,0,1-1.36,2,4,4,0,0,1-2.23.59,4.23,4.23,0,0,1-1.63-.29,3.21,3.21,0,0,1-1.23-.82,3.61,3.61,0,0,1-.78-1.28,4.68,4.68,0,0,1-.28-1.63,4.42,4.42,0,0,1,.29-1.6,3.52,3.52,0,0,1,.8-1.28,3.63,3.63,0,0,1,1.24-.86,3.92,3.92,0,0,1,1.59-.31,3.69,3.69,0,0,1,1.71.38,3.36,3.36,0,0,1,1.19,1A4,4,0,0,1,53,33.34a5.35,5.35,0,0,1,.15,1.71H47.62a2.12,2.12,0,0,0,.52,1.48m2.38-4a1.49,1.49,0,0,0-1.15-.41,1.93,1.93,0,0,0-.84.17,1.5,1.5,0,0,0-.53.42,1.55,1.55,0,0,0-.28.54,2,2,0,0,0-.1.5h3.43a2.42,2.42,0,0,0-.53-1.22"/><rect class="cls-1" x="54.25" y="27.77" width="2.11" height="10.6"/><path class="cls-1" d="M62.34,30.7v1.41H60.8v3.8a1.09,1.09,0,0,0,.17.71,1,1,0,0,0,.72.18l.34,0,.31,0v1.63a5.11,5.11,0,0,1-.59.06l-.64,0a6.76,6.76,0,0,1-.93-.07,2.26,2.26,0,0,1-.77-.26,1.4,1.4,0,0,1-.53-.55,2,2,0,0,1-.19-.94V32.11H57.41V30.7h1.28V28.4H60.8v2.3Z"/><path class="cls-1" d="M65.5,36.53a1.85,1.85,0,0,0,1.36.46,1.9,1.9,0,0,0,1.1-.32,1.26,1.26,0,0,0,.56-.67h1.86A3.52,3.52,0,0,1,69,38a4,4,0,0,1-2.22.59,4.19,4.19,0,0,1-1.63-.29,3.32,3.32,0,0,1-1.24-.82,3.93,3.93,0,0,1-.78-1.28,4.68,4.68,0,0,1-.27-1.63,4.41,4.41,0,0,1,.28-1.6,3.81,3.81,0,0,1,.8-1.28,3.73,3.73,0,0,1,1.24-.86,3.94,3.94,0,0,1,1.6-.31,3.64,3.64,0,0,1,1.7.38,3.31,3.31,0,0,1,1.2,1,4.21,4.21,0,0,1,.68,1.45,5.66,5.66,0,0,1,.14,1.71H65a2.12,2.12,0,0,0,.52,1.48m2.38-4a1.51,1.51,0,0,0-1.15-.41,1.87,1.87,0,0,0-.84.17,1.5,1.5,0,0,0-.53.42,1.58,1.58,0,0,0-.29.54,2.53,2.53,0,0,0-.09.5h3.43a2.51,2.51,0,0,0-.53-1.22"/><path class="cls-1" d="M73.55,30.7v1.42h0a2.24,2.24,0,0,1,.4-.66,2.88,2.88,0,0,1,.58-.52,2.92,2.92,0,0,1,.69-.33,2.54,2.54,0,0,1,.78-.12,1.66,1.66,0,0,1,.46.07v2l-.36-.05-.4,0a2.23,2.23,0,0,0-1,.19,1.79,1.79,0,0,0-.65.53,2.14,2.14,0,0,0-.35.78,4.79,4.79,0,0,0-.1,1v3.46H71.54V30.7Z"/><path class="cls-1" d="M82.2,27.77a6.58,6.58,0,0,1,1.38.14,2.87,2.87,0,0,1,1.07.44,2,2,0,0,1,.69.8,2.93,2.93,0,0,1,.24,1.25,2.35,2.35,0,0,1-.36,1.34,2.66,2.66,0,0,1-1.08.87,2.59,2.59,0,0,1,1.47,1,3,3,0,0,1,.48,1.7,3,3,0,0,1-.31,1.39,2.66,2.66,0,0,1-.84,1,3.66,3.66,0,0,1-1.2.55,5.41,5.41,0,0,1-1.39.18H77.21V27.77Zm-.3,4.29a1.74,1.74,0,0,0,1-.29,1.15,1.15,0,0,0,.4-1,1.22,1.22,0,0,0-.14-.61.89.89,0,0,0-.35-.37,1.41,1.41,0,0,0-.51-.18,3.05,3.05,0,0,0-.6-.06H79.54v2.48Zm.14,4.5a2.81,2.81,0,0,0,.65-.07,1.59,1.59,0,0,0,.55-.22,1.11,1.11,0,0,0,.38-.42,1.52,1.52,0,0,0,.14-.68A1.39,1.39,0,0,0,83.3,34a2,2,0,0,0-1.22-.35H79.54v2.91Z"/><path class="cls-1" d="M87.05,32.87a3.53,3.53,0,0,1,.8-1.27,3.44,3.44,0,0,1,1.25-.82,4.42,4.42,0,0,1,1.63-.29,4.52,4.52,0,0,1,1.64.29,3.36,3.36,0,0,1,1.25.82,3.55,3.55,0,0,1,.81,1.27,4.91,4.91,0,0,1,.28,1.67,4.77,4.77,0,0,1-.28,1.66,3.55,3.55,0,0,1-.81,1.27,3.47,3.47,0,0,1-1.25.81,4.52,4.52,0,0,1-1.64.28,4.42,4.42,0,0,1-1.63-.28,3.47,3.47,0,0,1-2-2.08,4.55,4.55,0,0,1-.28-1.66,4.68,4.68,0,0,1,.28-1.67M89,35.44a2.37,2.37,0,0,0,.31.79,1.58,1.58,0,0,0,.57.55,1.72,1.72,0,0,0,.89.21,1.76,1.76,0,0,0,.9-.21,1.7,1.7,0,0,0,.58-.55,2.59,2.59,0,0,0,.3-.79,4.43,4.43,0,0,0,.09-.9,4.5,4.5,0,0,0-.09-.9,2.41,2.41,0,0,0-.3-.79,1.83,1.83,0,0,0-.58-.56,1.76,1.76,0,0,0-.9-.21,1.72,1.72,0,0,0-.89.21,1.7,1.7,0,0,0-.57.56,2.21,2.21,0,0,0-.31.79,4.5,4.5,0,0,0-.09.9,4.43,4.43,0,0,0,.09.9"/><polygon class="cls-1" points="94.86 30.7 97.26 30.7 98.61 32.7 99.95 30.7 102.28 30.7 99.75 34.29 102.59 38.37 100.19 38.37 98.58 35.95 96.98 38.37 94.62 38.37 97.38 34.33 94.86 30.7"/><path class="cls-1" d="M30,35.76a1.67,1.67,0,0,0,.51.6,2.15,2.15,0,0,0,.75.34,3.29,3.29,0,0,0,.89.11,4,4,0,0,0,.67-.05,2.17,2.17,0,0,0,.67-.2,1.48,1.48,0,0,0,.52-.41,1.06,1.06,0,0,0,.2-.66.94.94,0,0,0-.27-.7,2.26,2.26,0,0,0-.72-.44,7.13,7.13,0,0,0-1-.31q-.57-.13-1.14-.3a11.15,11.15,0,0,1-1.16-.36,4.11,4.11,0,0,1-1-.56,2.57,2.57,0,0,1-.72-.85,2.64,2.64,0,0,1-.27-1.24,2.79,2.79,0,0,1,.34-1.42,3.26,3.26,0,0,1,.92-1,3.92,3.92,0,0,1,1.27-.6,5.85,5.85,0,0,1,1.43-.19,6.41,6.41,0,0,1,1.59.19,3.82,3.82,0,0,1,1.36.6,2.91,2.91,0,0,1,.94,1.06,3.16,3.16,0,0,1,.35,1.56H33.86a1.94,1.94,0,0,0-.2-.78,1.36,1.36,0,0,0-.46-.49,1.82,1.82,0,0,0-.64-.25,3.94,3.94,0,0,0-.8-.08,2.74,2.74,0,0,0-.56.06,1.45,1.45,0,0,0-.51.21,1.22,1.22,0,0,0-.38.37,1,1,0,0,0-.15.56,1,1,0,0,0,.12.51,1.09,1.09,0,0,0,.47.36,7.09,7.09,0,0,0,1,.32l1.61.42c.2,0,.48.11.83.21a4,4,0,0,1,1,.5,3.12,3.12,0,0,1,.9.91,2.62,2.62,0,0,1,.38,1.46,3.25,3.25,0,0,1-.28,1.36,3,3,0,0,1-.84,1.07,4.08,4.08,0,0,1-1.38.71,6.86,6.86,0,0,1-1.91.25,6.45,6.45,0,0,1-1.7-.22,4.29,4.29,0,0,1-1.45-.67,3.32,3.32,0,0,1-1-1.17,3.5,3.5,0,0,1-.36-1.7h2.26a1.94,1.94,0,0,0,.19.91"/><path class="cls-1" d="M39.41,27.77v4h0a2.48,2.48,0,0,1,1-1,2.77,2.77,0,0,1,1.21-.3,3.63,3.63,0,0,1,1.39.23,2.09,2.09,0,0,1,.86.64,2.48,2.48,0,0,1,.43,1,5.84,5.84,0,0,1,.13,1.3v4.72H42.39V34a2.77,2.77,0,0,0-.29-1.42A1.16,1.16,0,0,0,41,32.15a1.48,1.48,0,0,0-1.25.51,3,3,0,0,0-.38,1.69v4H37.3V27.77Z"/><path class="cls-1" d="M48.14,36.53a1.88,1.88,0,0,0,1.37.46,1.92,1.92,0,0,0,1.1-.32,1.36,1.36,0,0,0,.56-.67H53a3.5,3.5,0,0,1-1.36,2,4,4,0,0,1-2.23.59,4.23,4.23,0,0,1-1.63-.29,3.21,3.21,0,0,1-1.23-.82,3.61,3.61,0,0,1-.78-1.28,4.68,4.68,0,0,1-.28-1.63,4.42,4.42,0,0,1,.29-1.6,3.52,3.52,0,0,1,.8-1.28,3.63,3.63,0,0,1,1.24-.86,3.92,3.92,0,0,1,1.59-.31,3.69,3.69,0,0,1,1.71.38,3.36,3.36,0,0,1,1.19,1A4,4,0,0,1,53,33.34a5.35,5.35,0,0,1,.15,1.71H47.62a2.12,2.12,0,0,0,.52,1.48m2.38-4a1.49,1.49,0,0,0-1.15-.41,1.93,1.93,0,0,0-.84.17,1.5,1.5,0,0,0-.53.42,1.55,1.55,0,0,0-.28.54,2,2,0,0,0-.1.5h3.43a2.42,2.42,0,0,0-.53-1.22"/><rect class="cls-1" x="54.25" y="27.77" width="2.11" height="10.6"/><path class="cls-1" d="M62.34,30.7v1.41H60.8v3.8a1.09,1.09,0,0,0,.17.71,1,1,0,0,0,.72.18l.34,0,.31,0v1.63a5.11,5.11,0,0,1-.59.06l-.64,0a6.76,6.76,0,0,1-.93-.07,2.26,2.26,0,0,1-.77-.26,1.4,1.4,0,0,1-.53-.55,2,2,0,0,1-.19-.94V32.11H57.41V30.7h1.28V28.4H60.8v2.3Z"/><path class="cls-1" d="M65.5,36.53a1.85,1.85,0,0,0,1.36.46,1.9,1.9,0,0,0,1.1-.32,1.26,1.26,0,0,0,.56-.67h1.86A3.52,3.52,0,0,1,69,38a4,4,0,0,1-2.22.59,4.19,4.19,0,0,1-1.63-.29,3.32,3.32,0,0,1-1.24-.82,3.93,3.93,0,0,1-.78-1.28,4.68,4.68,0,0,1-.27-1.63,4.41,4.41,0,0,1,.28-1.6,3.81,3.81,0,0,1,.8-1.28,3.73,3.73,0,0,1,1.24-.86,3.94,3.94,0,0,1,1.6-.31,3.64,3.64,0,0,1,1.7.38,3.31,3.31,0,0,1,1.2,1,4.21,4.21,0,0,1,.68,1.45,5.66,5.66,0,0,1,.14,1.71H65a2.12,2.12,0,0,0,.52,1.48m2.38-4a1.51,1.51,0,0,0-1.15-.41,1.87,1.87,0,0,0-.84.17,1.5,1.5,0,0,0-.53.42,1.58,1.58,0,0,0-.29.54,2.53,2.53,0,0,0-.09.5h3.43a2.51,2.51,0,0,0-.53-1.22"/><path class="cls-1" d="M73.55,30.7v1.42h0a2.24,2.24,0,0,1,.4-.66,2.88,2.88,0,0,1,.58-.52,2.92,2.92,0,0,1,.69-.33,2.54,2.54,0,0,1,.78-.12,1.66,1.66,0,0,1,.46.07v2l-.36-.05-.4,0a2.23,2.23,0,0,0-1,.19,1.79,1.79,0,0,0-.65.53,2.14,2.14,0,0,0-.35.78,4.79,4.79,0,0,0-.1,1v3.46H71.54V30.7Z"/><path class="cls-1" d="M82.2,27.77a6.58,6.58,0,0,1,1.38.14,2.87,2.87,0,0,1,1.07.44,2,2,0,0,1,.69.8,2.93,2.93,0,0,1,.24,1.25,2.35,2.35,0,0,1-.36,1.34,2.66,2.66,0,0,1-1.08.87,2.59,2.59,0,0,1,1.47,1,3,3,0,0,1,.48,1.7,3,3,0,0,1-.31,1.39,2.66,2.66,0,0,1-.84,1,3.66,3.66,0,0,1-1.2.55,5.41,5.41,0,0,1-1.39.18H77.21V27.77Zm-.3,4.29a1.74,1.74,0,0,0,1-.29,1.15,1.15,0,0,0,.4-1,1.22,1.22,0,0,0-.14-.61.89.89,0,0,0-.35-.37,1.41,1.41,0,0,0-.51-.18,3.05,3.05,0,0,0-.6-.06H79.54v2.48Zm.14,4.5a2.81,2.81,0,0,0,.65-.07,1.59,1.59,0,0,0,.55-.22,1.11,1.11,0,0,0,.38-.42,1.52,1.52,0,0,0,.14-.68A1.36,1.36,0,0,0,83.3,34a2,2,0,0,0-1.22-.35H79.54v2.91Z"/><path class="cls-1" d="M87.05,32.87a3.53,3.53,0,0,1,.8-1.27,3.44,3.44,0,0,1,1.25-.82,4.42,4.42,0,0,1,1.63-.29,4.52,4.52,0,0,1,1.64.29,3.36,3.36,0,0,1,1.25.82,3.55,3.55,0,0,1,.81,1.27,4.91,4.91,0,0,1,.28,1.67,4.77,4.77,0,0,1-.28,1.66,3.55,3.55,0,0,1-.81,1.27,3.47,3.47,0,0,1-1.25.81,4.52,4.52,0,0,1-1.64.28,4.42,4.42,0,0,1-1.63-.28,3.47,3.47,0,0,1-2-2.08,4.55,4.55,0,0,1-.28-1.66,4.68,4.68,0,0,1,.28-1.67M89,35.44a2.37,2.37,0,0,0,.31.79,1.58,1.58,0,0,0,.57.55,1.72,1.72,0,0,0,.89.21,1.76,1.76,0,0,0,.9-.21,1.7,1.7,0,0,0,.58-.55,2.59,2.59,0,0,0,.3-.79,4.43,4.43,0,0,0,.09-.9,4.5,4.5,0,0,0-.09-.9,2.41,2.41,0,0,0-.3-.79,1.83,1.83,0,0,0-.58-.56,1.76,1.76,0,0,0-.9-.21,1.72,1.72,0,0,0-.89.21,1.7,1.7,0,0,0-.57.56,2.21,2.21,0,0,0-.31.79,4.5,4.5,0,0,0-.09.9,4.43,4.43,0,0,0,.09.9"/><polygon class="cls-1" points="94.86 30.7 97.26 30.7 98.61 32.7 99.95 30.7 102.28 30.7 99.75 34.29 102.59 38.37 100.19 38.37 98.58 35.95 96.98 38.37 94.62 38.37 97.38 34.33 94.86 30.7"/><path class="cls-2" d="M25.5,17.47a8,8,0,1,1-8-8,8,8,0,0,1,8,8"/><path class="cls-3" d="M21.61,15.06l-.3-.65a.52.52,0,0,0-.18-.21s0,0-.05-.07a1.13,1.13,0,0,0-.13-.2.33.33,0,0,0-.29-.09h-.45L20.3,15,20,15,20,14l0,0h-1a.05.05,0,0,1-.05,0,.23.23,0,0,0-.19-.09h-.76l-.09,0-.92,0a.2.2,0,0,0-.11,0l-.79,0a.18.18,0,0,0-.16.09.07.07,0,0,1-.06,0,2,2,0,0,1-.26.06c-.23,0-.46.07-.69.07h0l-.06,1-.26-.08.06-1.15h-.53a.37.37,0,0,0-.36.25.34.34,0,0,1-.13.16.24.24,0,0,0-.11.15l-.57,1.7a.28.28,0,0,0,.2.1h.29l1.19,0,5.83-.09,1.15,0,.29,0a.31.31,0,0,0,.19-.09l-.42-1"/><path class="cls-3" d="M20.5,16.9s0,0,0,0l-1,0a0,0,0,0,1,0,0l0-.44-3.8.06,0,.44s0,0,0,0h-1s0,0,0,0l0-.43-1.37,0a.35.35,0,0,1,0,.11l.12.85s0,0,0,0l.28.76h0c0,.55,0,.15,0,.22l.09.67.18,1.31,0,.16a.17.17,0,0,0,.15.16h.54a.14.14,0,0,0,.13-.09s0,0,.07,0h5.29s.06,0,.08,0l0,0s0,.06.08.06a5,5,0,0,0,.55,0c.07,0,.11,0,.13,0l.21-1.59h0c0-.09,0-.24,0-.35s0-.32.06-.46v0l.28-.88v0h0s0-.07,0-.1c0-.28.09-.58.12-.87a.19.19,0,0,1,0-.07l-1.21,0Z"/><text class="cls-4" transform="translate(35.63 25.51)"><tspan class="cls-5">S</tspan><tspan class="cls-6" x="9.64" y="0">hi</tspan><tspan x="21.45" y="0">n</tspan></text><text class="cls-4" transform="translate(65.42 25.51)">e</text><text class="cls-4" transform="translate(71.72 25.51)"> </text><text class="cls-4" transform="translate(75.58 25.51)"><tspan class="cls-6">fo</tspan><tspan x="13.14" y="0">r</tspan></text><rect class="cls-7" x="0.62" y="15.99" width="2.97" height="2.97" transform="translate(-11.74 6.6) rotate(-45)"/><rect class="cls-7" x="15.97" y="0.62" width="2.97" height="2.97" transform="translate(3.63 12.96) rotate(-45)"/><rect class="cls-7" x="31.33" y="15.99" width="2.97" height="2.97" transform="translate(-2.75 28.32) rotate(-45)"/><rect class="cls-7" x="28.67" y="4.55" width="2.07" height="2.07"/><rect class="cls-7" x="4.55" y="4.55" width="2.07" height="2.07"/><rect class="cls-7" x="15.97" y="31.36" width="2.97" height="2.97" transform="translate(-18.11 21.95) rotate(-44.98)"/><rect class="cls-7" x="4.55" y="28.94" width="2.07" height="2.07"/><path class="cls-1" d="M17,8.34V8L9.8.77V9.21l1.5,1.5A9.07,9.07,0,0,1,17,8.34"/><path class="cls-1" d="M17.94,8.34a9.12,9.12,0,0,1,5.62,2.32l1.55-1.55V.67L17.94,7.84Z"/><path class="cls-1" d="M8.32,17a9.07,9.07,0,0,1,2.37-5.67L9.2,9.82H.76L7.93,17Z"/><path class="cls-1" d="M26.59,18a9.14,9.14,0,0,1-2.34,5.64l1.54,1.53h8.44L27.05,18Z"/><path class="cls-1" d="M26.59,17h.5l7.17-7.17H25.82l-1.55,1.55A9.12,9.12,0,0,1,26.59,17"/><path class="cls-1" d="M17.94,26.61v.46l7.17,7.17V25.8l-1.53-1.53a9.12,9.12,0,0,1-5.64,2.34"/><path class="cls-1" d="M17,26.61a9.12,9.12,0,0,1-5.62-2.32L9.8,25.84v8.44L17,27.11Z"/><path class="cls-1" d="M8.32,18h-.5L.65,25.13H9.1l1.55-1.55A9.07,9.07,0,0,1,8.32,18"/></g></g></svg>