<svg id="Laag_1" data-name="Laag 1" xmlns="http://www.w3.org/2000/svg" viewBox="0 0 92.01 275.28"><defs><style>.cls-1{fill:#1d1d1b;}.cls-2{fill:#e42234;}.cls-3{fill:#fff;}</style></defs><title>tryitout_bottom</title><path class="cls-1" d="M17.74,10.66V75l-4.15.54-4.15-.27-1.32.27V10.66H.27L0,7.2.27.73H25.06V2.37l-.53.55.8,7.74Z"/><path class="cls-1" d="M59.21,74.34l-2.29.27-5.47,1.64-1.86-.82L41.74,42.09H38.39V75.43l-.53-.55-9.09.55V1.28L30.09.73H52.42v.55h2.64l2-.28V41.27l-1,.54v.28h-.53l-.53.27H51.71ZM38.39,32.16h9.09V10.66H38.39Z"/><path class="cls-1" d="M80.3,37.72V75.34l-1.59-.27-6.17.54-1.86-.82V37.72L60,2.82l.53.19L67.59.82,69.09,0l6.27,24.69L81.62,0l1.59.55L91,2.82Z"/><path class="cls-1" d="M29.71,269.08h-.27v4.28L28.65,275H5.53v-.27H3.41l-2,.27V210.32H1.12l.26-2.91v-2.73l-.26-4.29H28.21l-.53.82v.28h2ZM11,209.87v55.57h9.09V209.87Z"/><path class="cls-1" d="M63.77,275H41.18l-3.71.28-2-.28V200.67l3.62-.28,6,.28v64.86h9.09V200.39h8.38l1.24.55v67.87l.26,4Z"/><path class="cls-1" d="M84.42,210.32v64.32l-4.15.55-4.15-.28-1.32.28V210.32H67l-.27-3.46.27-6.47H91.74V202l-.53.55.8,7.74Z"/><polygon class="cls-2" points="3.63 180.43 3.51 83.34 87.73 83.26 87.84 180.35 45.74 190.85 3.63 180.43"/><path class="cls-3" d="M29.57,174.88l-3.73.29-2.7-.1V96.27l2.49.29,8.82-.29v78.9Z"/><path class="cls-3" d="M60.8,106.32v67.94l-4.88.57-4.87-.28-1.56.28V106.32H40.26L40,102.67l.31-6.83H69.41v1.73l-.63.58.94,8.17Z"/></svg>