<svg xmlns="http://www.w3.org/2000/svg" xmlns:xlink="http://www.w3.org/1999/xlink" viewBox="0 0 300 250"><defs><style>.cls-1,.cls-10,.cls-11,.cls-12,.cls-13,.cls-14,.cls-15,.cls-16,.cls-17,.cls-18,.cls-19,.cls-2,.cls-20,.cls-21,.cls-22,.cls-23,.cls-24,.cls-25,.cls-26,.cls-27,.cls-28,.cls-29,.cls-3,.cls-30,.cls-31,.cls-32,.cls-33,.cls-34,.cls-35,.cls-36,.cls-37,.cls-4,.cls-5,.cls-6,.cls-7,.cls-8,.cls-9{fill:#fff;}.cls-2{clip-path:url(#clip-path);}.cls-3{clip-path:url(#clip-path-2);}.cls-4{clip-path:url(#clip-path-36);}.cls-5{clip-path:url(#clip-path-3);}.cls-6{clip-path:url(#clip-path-4);}.cls-7{clip-path:url(#clip-path-5);}.cls-8{clip-path:url(#clip-path-6);}.cls-9{clip-path:url(#clip-path-7);}.cls-10{clip-path:url(#clip-path-8);}.cls-11{clip-path:url(#clip-path-9);}.cls-12{clip-path:url(#clip-path-10);}.cls-13{clip-path:url(#clip-path-11);}.cls-14{clip-path:url(#clip-path-12);}.cls-15{clip-path:url(#clip-path-13);}.cls-16{clip-path:url(#clip-path-14);}.cls-17{clip-path:url(#clip-path-15);}.cls-18{clip-path:url(#clip-path-16);}.cls-19{clip-path:url(#clip-path-17);}.cls-20{clip-path:url(#clip-path-18);}.cls-21{clip-path:url(#clip-path-19);}.cls-22{clip-path:url(#clip-path-20);}.cls-23{clip-path:url(#clip-path-21);}.cls-24{clip-path:url(#clip-path-22);}.cls-25{clip-path:url(#clip-path-23);}.cls-26{clip-path:url(#clip-path-24);}.cls-27{clip-path:url(#clip-path-25);}.cls-28{clip-path:url(#clip-path-26);}.cls-29{clip-path:url(#clip-path-27);}.cls-30{clip-path:url(#clip-path-28);}.cls-31{clip-path:url(#clip-path-29);}.cls-32{clip-path:url(#clip-path-30);}.cls-33{clip-path:url(#clip-path-31);}.cls-34{clip-path:url(#clip-path-32);}.cls-35{clip-path:url(#clip-path-33);}.cls-36{clip-path:url(#clip-path-34);}.cls-37{clip-path:url(#clip-path-35);}.cls-38{clip-path:url(#clip-path-37);}</style><clipPath id="clip-path"><path class="cls-1" d="M18.34,24.61v4.93H15.62V16.69h3.74a6.46,6.46,0,0,1,3.88.95,3.41,3.41,0,0,1,1.26,2.9,3.36,3.36,0,0,1-.63,2,4,4,0,0,1-1.77,1.39c1.94,2.89,3.2,4.75,3.78,5.6h-3l-3.07-4.93Zm0-2.22h.88A3.35,3.35,0,0,0,21.13,22a1.54,1.54,0,0,0,.61-1.35,1.4,1.4,0,0,0-.62-1.3,3.8,3.8,0,0,0-1.95-.39h-.83Z"/></clipPath><clipPath id="clip-path-2"><path class="cls-4" d="M163.3,24.61v4.93h-2.72V16.69h3.74a6.46,6.46,0,0,1,3.88.95,3.43,3.43,0,0,1,1.25,2.9,3.42,3.42,0,0,1-.62,2,4.15,4.15,0,0,1-1.77,1.39c1.94,2.89,3.19,4.75,3.78,5.6h-3l-3.07-4.93Zm0-2.22h.88a3.35,3.35,0,0,0,1.91-.43,1.54,1.54,0,0,0,.61-1.35,1.41,1.41,0,0,0-.63-1.3,3.78,3.78,0,0,0-1.94-.39h-.83Z"/></clipPath><clipPath id="clip-path-3"><path class="cls-3" d="M186.64,23.1a7,7,0,0,1-1.58,4.9A6.87,6.87,0,0,1,176,28a7,7,0,0,1-1.58-4.92,6.94,6.94,0,0,1,1.58-4.9,5.94,5.94,0,0,1,4.55-1.69,5.82,5.82,0,0,1,4.53,1.7A7,7,0,0,1,186.64,23.1Zm-9.38,0a5.41,5.41,0,0,0,.82,3.24,2.86,2.86,0,0,0,2.44,1.09c2.18,0,3.27-1.45,3.27-4.33s-1.09-4.35-3.25-4.35a2.88,2.88,0,0,0-2.45,1.1A5.35,5.35,0,0,0,177.26,23.1Z"/></clipPath><clipPath id="clip-path-4"><path class="cls-5" d="M204.34,29.54h-3.1l-1.74-6.75c-.07-.24-.18-.74-.33-1.49a14.78,14.78,0,0,1-.27-1.52c0,.32-.12.83-.26,1.53s-.25,1.2-.33,1.5l-1.73,6.73h-3.09l-3.28-12.85h2.68l1.64,7c.29,1.3.5,2.42.63,3.37,0-.34.11-.85.24-1.55a15.83,15.83,0,0,1,.35-1.63l1.87-7.2h2.58l1.87,7.2c.08.32.19.81.31,1.47s.22,1.23.28,1.71c.06-.46.15-1,.28-1.71s.25-1.24.35-1.66l1.64-7h2.68Z"/></clipPath><clipPath id="clip-path-5"><path class="cls-6" d="M23.48,48.54l-.93-3.06H17.87l-.93,3.06H14l4.54-12.9h3.33l4.55,12.9ZM21.9,43.19c-.86-2.77-1.34-4.33-1.45-4.7s-.19-.65-.24-.86c-.19.75-.74,2.61-1.66,5.56Z"/></clipPath><clipPath id="clip-path-6"><path class="cls-7" d="M45.34,45a3.33,3.33,0,0,1-1.25,2.74,5.45,5.45,0,0,1-3.49,1A8.15,8.15,0,0,1,37,47.94V45.41a15,15,0,0,0,2.2.82,6.87,6.87,0,0,0,1.65.23,2.34,2.34,0,0,0,1.38-.34,1.18,1.18,0,0,0,.48-1,1.11,1.11,0,0,0-.21-.67,2.47,2.47,0,0,0-.62-.57A17.54,17.54,0,0,0,40.17,43a8,8,0,0,1-1.77-1.06,4.16,4.16,0,0,1-.94-1.19,3.44,3.44,0,0,1-.35-1.58,3.32,3.32,0,0,1,1.16-2.68,4.79,4.79,0,0,1,3.19-1,7.4,7.4,0,0,1,1.91.24,13.28,13.28,0,0,1,1.91.67l-.88,2.12a13.54,13.54,0,0,0-1.7-.59,5.58,5.58,0,0,0-1.33-.17,1.73,1.73,0,0,0-1.18.36,1.26,1.26,0,0,0-.25,1.57,1.88,1.88,0,0,0,.53.52,15.9,15.9,0,0,0,1.73.9,6.84,6.84,0,0,1,2.47,1.73A3.32,3.32,0,0,1,45.34,45Z"/></clipPath><clipPath id="clip-path-7"><path class="cls-8" d="M60.72,48.54H58V43H52.91v5.55H50.19V35.69h2.72v5H58v-5h2.72Z"/></clipPath><clipPath id="clip-path-8"><path class="cls-9" d="M66.48,48.54V35.69H69.2V48.54Z"/></clipPath><clipPath id="clip-path-9"><path class="cls-10" d="M86.36,48.54H82.89L77.3,38.82h-.07c.11,1.71.16,2.94.16,3.67v6H75V35.69h3.43L84,45.31H84c-.09-1.67-.13-2.85-.13-3.54V35.69h2.45Z"/></clipPath><clipPath id="clip-path-10"><path class="cls-11" d="M99.51,48.54h-7.4V35.69h7.4v2.23H94.84v2.82h4.35V43H94.84v3.32h4.67Z"/></clipPath><clipPath id="clip-path-11"><path class="cls-12" d="M114.59,48.54h-2.68V35.69h7.36v2.23h-4.68v3.31H119v2.23h-4.36Z"/></clipPath><clipPath id="clip-path-12"><path class="cls-2" d="M37.42,29.54H30V16.69h7.4v2.23H32.75v2.82H37.1V24H32.75v3.32h4.67Z"/></clipPath><clipPath id="clip-path-13"><path class="cls-13" d="M136,42.1a7,7,0,0,1-1.58,4.9,6.87,6.87,0,0,1-9.07,0,7,7,0,0,1-1.58-4.92,6.94,6.94,0,0,1,1.58-4.9,5.94,5.94,0,0,1,4.55-1.69,5.82,5.82,0,0,1,4.53,1.7A7,7,0,0,1,136,42.1Zm-9.38,0a5.41,5.41,0,0,0,.82,3.24,2.86,2.86,0,0,0,2.44,1.09c2.18,0,3.27-1.45,3.27-4.33s-1.09-4.35-3.25-4.35a2.88,2.88,0,0,0-2.45,1.1A5.35,5.35,0,0,0,126.59,42.1Z"/></clipPath><clipPath id="clip-path-14"><path class="cls-15" d="M143.88,43.61v4.93h-2.73V35.69h3.75a6.43,6.43,0,0,1,3.87,1,3.8,3.8,0,0,1,.64,4.91,4.15,4.15,0,0,1-1.77,1.39c1.93,2.89,3.19,4.75,3.78,5.6h-3l-3.07-4.93Zm0-2.22h.88a3.37,3.37,0,0,0,1.91-.43,1.54,1.54,0,0,0,.61-1.35,1.41,1.41,0,0,0-.63-1.3,3.78,3.78,0,0,0-1.94-.39h-.83Z"/></clipPath><clipPath id="clip-path-15"><path class="cls-16" d="M23.2,64A3.3,3.3,0,0,1,22,66.71a5.42,5.42,0,0,1-3.48,1,8.09,8.09,0,0,1-3.64-.77V64.41a14.6,14.6,0,0,0,2.2.82,6.87,6.87,0,0,0,1.65.23,2.33,2.33,0,0,0,1.37-.34,1.18,1.18,0,0,0,.48-1,1.11,1.11,0,0,0-.21-.67,2.31,2.31,0,0,0-.62-.57A17,17,0,0,0,18,62a7.79,7.79,0,0,1-1.77-1.06,4,4,0,0,1-.94-1.19,3.71,3.71,0,0,1,.8-4.26,4.82,4.82,0,0,1,3.2-1,7.46,7.46,0,0,1,1.91.24,12.77,12.77,0,0,1,1.9.67l-.88,2.12a12.52,12.52,0,0,0-1.7-.59,5.56,5.56,0,0,0-1.32-.17,1.76,1.76,0,0,0-1.19.36,1.21,1.21,0,0,0-.41.94,1.19,1.19,0,0,0,.17.63,1.88,1.88,0,0,0,.53.52,14.93,14.93,0,0,0,1.73.9,6.84,6.84,0,0,1,2.47,1.73A3.37,3.37,0,0,1,23.2,64Z"/></clipPath><clipPath id="clip-path-16"><path class="cls-17" d="M38.58,67.54H35.87V62H30.78v5.55H28.05V54.69h2.73v5h5.09v-5h2.71Z"/></clipPath><clipPath id="clip-path-17"><path class="cls-18" d="M51.75,67.54H44.34V54.69h7.41v2.23H47.07v2.82h4.35V62H47.07v3.32h4.68Z"/></clipPath><clipPath id="clip-path-18"><path class="cls-19" d="M57,67.54V54.69h2.72v10.6h5.21v2.25Z"/></clipPath><clipPath id="clip-path-19"><path class="cls-20" d="M74.59,67.54H71.87V57H68.38V54.69h9.7V57H74.59Z"/></clipPath><clipPath id="clip-path-20"><path class="cls-21" d="M90,67.54h-7.4V54.69H90v2.23H85.3v2.82h4.35V62H85.3v3.32H90Z"/></clipPath><clipPath id="clip-path-21"><path class="cls-22" d="M97.9,62.61v4.93H95.18V54.69h3.74a6.46,6.46,0,0,1,3.88,1,3.41,3.41,0,0,1,1.26,2.9,3.36,3.36,0,0,1-.63,2,4.06,4.06,0,0,1-1.76,1.39c1.93,2.89,3.19,4.75,3.78,5.6h-3l-3.07-4.93Zm0-2.22h.88a3.35,3.35,0,0,0,1.91-.43,1.54,1.54,0,0,0,.62-1.35,1.41,1.41,0,0,0-.63-1.3,3.8,3.8,0,0,0-2-.39H97.9Z"/></clipPath><clipPath id="clip-path-22"><path class="cls-23" d="M109.58,54.69h4a7.69,7.69,0,0,1,4,.78,2.7,2.7,0,0,1,1.24,2.47,3.11,3.11,0,0,1-.55,1.89,2.17,2.17,0,0,1-1.43.89v.09a2.82,2.82,0,0,1,1.76,1,3.29,3.29,0,0,1,.54,2,3.25,3.25,0,0,1-1.27,2.74,5.48,5.48,0,0,1-3.45,1h-4.81Zm2.73,5.09h1.58a2.85,2.85,0,0,0,1.6-.35,1.26,1.26,0,0,0,.5-1.13,1.15,1.15,0,0,0-.54-1.06,3.52,3.52,0,0,0-1.71-.32h-1.43Zm0,2.16v3.35h1.77a2.66,2.66,0,0,0,1.66-.43,1.59,1.59,0,0,0,.54-1.32c0-1.07-.76-1.6-2.29-1.6Z"/></clipPath><clipPath id="clip-path-23"><path class="cls-14" d="M50.49,29.54l-.93-3.06H44.87l-.93,3.06H41l4.54-12.9h3.33l4.55,12.9Zm-1.58-5.35c-.87-2.77-1.35-4.33-1.46-4.7s-.18-.65-.23-.86c-.19.75-.75,2.61-1.66,5.56Z"/></clipPath><clipPath id="clip-path-24"><path class="cls-24" d="M135.86,61.1a7,7,0,0,1-1.58,4.9,6.87,6.87,0,0,1-9.07,0,7,7,0,0,1-1.59-4.92,6.9,6.9,0,0,1,1.59-4.9,5.94,5.94,0,0,1,4.55-1.69,5.85,5.85,0,0,1,4.53,1.7A7,7,0,0,1,135.86,61.1Zm-9.38,0a5.34,5.34,0,0,0,.82,3.24,2.84,2.84,0,0,0,2.44,1.09c2.18,0,3.26-1.45,3.26-4.33s-1.08-4.35-3.24-4.35a2.88,2.88,0,0,0-2.45,1.1A5.35,5.35,0,0,0,126.48,61.1Z"/></clipPath><clipPath id="clip-path-25"><path class="cls-26" d="M151.43,67.54h-3.11l-3-4.86-3,4.86h-2.91l4.26-6.63-4-6.22h3l2.77,4.62,2.72-4.62h2.93l-4,6.37Z"/></clipPath><clipPath id="clip-path-26"><path class="cls-27" d="M171.64,58.7a3.91,3.91,0,0,1-1.3,3.17,5.54,5.54,0,0,1-3.68,1.1h-1.17v4.57h-2.73V54.69h4.11a5.39,5.39,0,0,1,3.55,1A3.67,3.67,0,0,1,171.64,58.7Zm-6.15,2h.89a3,3,0,0,0,1.89-.5,1.75,1.75,0,0,0,.62-1.45,1.79,1.79,0,0,0-.52-1.41,2.43,2.43,0,0,0-1.64-.46h-1.24Z"/></clipPath><clipPath id="clip-path-27"><path class="cls-28" d="M184.45,67.54l-.93-3.06h-4.68l-.93,3.06H175l4.53-12.9h3.34l4.55,12.9Zm-1.58-5.35c-.86-2.77-1.35-4.33-1.45-4.7s-.19-.65-.24-.86c-.19.75-.74,2.61-1.66,5.56Z"/></clipPath><clipPath id="clip-path-28"><path class="cls-29" d="M194.25,62.61v4.93h-2.72V54.69h3.74a6.46,6.46,0,0,1,3.88,1,3.81,3.81,0,0,1,.63,4.91A4.15,4.15,0,0,1,198,61.94c1.94,2.89,3.2,4.75,3.78,5.6h-3l-3.07-4.93Zm0-2.22h.88A3.35,3.35,0,0,0,197,60a1.54,1.54,0,0,0,.61-1.35,1.41,1.41,0,0,0-.63-1.3,3.76,3.76,0,0,0-1.94-.39h-.83Z"/></clipPath><clipPath id="clip-path-29"><path class="cls-30" d="M210.89,67.54h-2.73V57h-3.49V54.69h9.71V57h-3.49Z"/></clipPath><clipPath id="clip-path-30"><path class="cls-31" d="M222.87,60l2.68-5.29h2.94l-4.27,7.85v5h-2.7V62.62l-4.27-7.93h3Z"/></clipPath><clipPath id="clip-path-31"><path class="cls-25" d="M68.22,23a6.32,6.32,0,0,1-1.8,4.86,7.37,7.37,0,0,1-5.22,1.69H57.56V16.69h4a6.78,6.78,0,0,1,4.88,1.66A6.11,6.11,0,0,1,68.22,23Zm-2.83.07q0-4.14-3.65-4.14H60.29v8.37h1.17Q65.39,27.29,65.39,23.06Z"/></clipPath><clipPath id="clip-path-32"><path class="cls-33" d="M77.4,22l2.68-5.29H83l-4.26,7.85v5H76.05V24.62l-4.26-7.93h2.95Z"/></clipPath><clipPath id="clip-path-33"><path class="cls-34" d="M99.31,29.54H96.59V19H93.1V16.69h9.7V19H99.31Z"/></clipPath><clipPath id="clip-path-34"><path class="cls-35" d="M119,23.1a7,7,0,0,1-1.58,4.9,6.87,6.87,0,0,1-9.07,0,7,7,0,0,1-1.58-4.92,6.89,6.89,0,0,1,1.58-4.9,5.94,5.94,0,0,1,4.55-1.69,5.82,5.82,0,0,1,4.53,1.7A7,7,0,0,1,119,23.1Zm-9.38,0a5.41,5.41,0,0,0,.82,3.24,2.86,2.86,0,0,0,2.44,1.09c2.18,0,3.26-1.45,3.26-4.33s-1.08-4.35-3.24-4.35a2.88,2.88,0,0,0-2.45,1.1A5.35,5.35,0,0,0,109.58,23.1Z"/></clipPath><clipPath id="clip-path-35"><path class="cls-36" d="M136.3,29.54h-2.73V19h-3.49V16.69h9.71V19H136.3Z"/></clipPath><clipPath id="clip-path-36"><path class="cls-37" d="M154.81,29.54H152.1V24H147v5.55h-2.73V16.69H147v5h5.09v-5h2.71Z"/></clipPath><clipPath id="clip-path-37"><path class="cls-32" d="M233.43,63.28v-.66a2.85,2.85,0,0,1,.36-1.46,4.68,4.68,0,0,1,1.32-1.33,5.69,5.69,0,0,0,1.22-1.07,1.55,1.55,0,0,0,.29-.93,1,1,0,0,0-.42-.87,2.08,2.08,0,0,0-1.18-.29,6.68,6.68,0,0,0-3,.86l-1-1.93a8.41,8.41,0,0,1,4.16-1.1,4.46,4.46,0,0,1,2.88.87,2.85,2.85,0,0,1,1.06,2.32,3,3,0,0,1-.44,1.67A6.12,6.12,0,0,1,237.05,61a4.87,4.87,0,0,0-1.06.95,1.45,1.45,0,0,0-.23.85v.53Zm-.28,3a1.44,1.44,0,0,1,.4-1.11,1.57,1.57,0,0,1,1.15-.38,1.59,1.59,0,0,1,1.13.38,1.71,1.71,0,0,1,0,2.21,1.55,1.55,0,0,1-1.12.4,1.58,1.58,0,0,1-1.14-.4A1.45,1.45,0,0,1,233.15,66.28Z"/></clipPath></defs><title>text1</title><g id="Layer_2" data-name="Layer 2"><g id="Layer_1-2" data-name="Layer 1"><path class="cls-1" d="M18.34,24.61v4.93H15.62V16.69h3.74a6.46,6.46,0,0,1,3.88.95,3.41,3.41,0,0,1,1.26,2.9,3.36,3.36,0,0,1-.63,2,4,4,0,0,1-1.77,1.39c1.94,2.89,3.2,4.75,3.78,5.6h-3l-3.07-4.93Zm0-2.22h.88A3.35,3.35,0,0,0,21.13,22a1.54,1.54,0,0,0,.61-1.35,1.4,1.4,0,0,0-.62-1.3,3.8,3.8,0,0,0-1.95-.39h-.83Z"/><path class="cls-1" d="M37.42,29.54H30V16.69h7.4v2.23H32.75v2.82H37.1V24H32.75v3.32h4.67Z"/><path class="cls-1" d="M50.49,29.54l-.93-3.06H44.87l-.93,3.06H41l4.54-12.9h3.33l4.55,12.9Zm-1.58-5.35c-.87-2.77-1.35-4.33-1.46-4.7s-.18-.65-.23-.86c-.19.75-.75,2.61-1.66,5.56Z"/><path class="cls-1" d="M68.22,23a6.32,6.32,0,0,1-1.8,4.86,7.37,7.37,0,0,1-5.22,1.69H57.56V16.69h4a6.78,6.78,0,0,1,4.88,1.66A6.11,6.11,0,0,1,68.22,23Zm-2.83.07q0-4.14-3.65-4.14H60.29v8.37h1.17Q65.39,27.29,65.39,23.06Z"/><path class="cls-1" d="M77.4,22l2.68-5.29H83l-4.26,7.85v5H76.05V24.62l-4.26-7.93h2.95Z"/><path class="cls-1" d="M99.31,29.54H96.59V19H93.1V16.69h9.7V19H99.31Z"/><path class="cls-1" d="M119,23.1a7,7,0,0,1-1.58,4.9,6.87,6.87,0,0,1-9.07,0,7,7,0,0,1-1.58-4.92,6.89,6.89,0,0,1,1.58-4.9,5.94,5.94,0,0,1,4.55-1.69,5.82,5.82,0,0,1,4.53,1.7A7,7,0,0,1,119,23.1Zm-9.38,0a5.41,5.41,0,0,0,.82,3.24,2.86,2.86,0,0,0,2.44,1.09c2.18,0,3.26-1.45,3.26-4.33s-1.08-4.35-3.24-4.35a2.88,2.88,0,0,0-2.45,1.1A5.35,5.35,0,0,0,109.58,23.1Z"/><path class="cls-1" d="M136.3,29.54h-2.73V19h-3.49V16.69h9.71V19H136.3Z"/><path class="cls-1" d="M154.81,29.54H152.1V24H147v5.55h-2.73V16.69H147v5h5.09v-5h2.71Z"/><path class="cls-1" d="M163.3,24.61v4.93h-2.72V16.69h3.74a6.46,6.46,0,0,1,3.88.95,3.43,3.43,0,0,1,1.25,2.9,3.42,3.42,0,0,1-.62,2,4.15,4.15,0,0,1-1.77,1.39c1.94,2.89,3.19,4.75,3.78,5.6h-3l-3.07-4.93Zm0-2.22h.88a3.35,3.35,0,0,0,1.91-.43,1.54,1.54,0,0,0,.61-1.35,1.41,1.41,0,0,0-.63-1.3,3.78,3.78,0,0,0-1.94-.39h-.83Z"/><path class="cls-1" d="M186.64,23.1a7,7,0,0,1-1.58,4.9A6.87,6.87,0,0,1,176,28a7,7,0,0,1-1.58-4.92,6.94,6.94,0,0,1,1.58-4.9,5.94,5.94,0,0,1,4.55-1.69,5.82,5.82,0,0,1,4.53,1.7A7,7,0,0,1,186.64,23.1Zm-9.38,0a5.41,5.41,0,0,0,.82,3.24,2.86,2.86,0,0,0,2.44,1.09c2.18,0,3.27-1.45,3.27-4.33s-1.09-4.35-3.25-4.35a2.88,2.88,0,0,0-2.45,1.1A5.35,5.35,0,0,0,177.26,23.1Z"/><path class="cls-1" d="M204.34,29.54h-3.1l-1.74-6.75c-.07-.24-.18-.74-.33-1.49a14.78,14.78,0,0,1-.27-1.52c0,.32-.12.83-.26,1.53s-.25,1.2-.33,1.5l-1.73,6.73h-3.09l-3.28-12.85h2.68l1.64,7c.29,1.3.5,2.42.63,3.37,0-.34.11-.85.24-1.55a15.83,15.83,0,0,1,.35-1.63l1.87-7.2h2.58l1.87,7.2c.08.32.19.81.31,1.47s.22,1.23.28,1.71c.06-.46.15-1,.28-1.71s.25-1.24.35-1.66l1.64-7h2.68Z"/><path class="cls-1" d="M23.48,48.54l-.93-3.06H17.87l-.93,3.06H14l4.54-12.9h3.33l4.55,12.9ZM21.9,43.19c-.86-2.77-1.34-4.33-1.45-4.7s-.19-.65-.24-.86c-.19.75-.74,2.61-1.66,5.56Z"/><path class="cls-1" d="M45.34,45a3.33,3.33,0,0,1-1.25,2.74,5.45,5.45,0,0,1-3.49,1A8.15,8.15,0,0,1,37,47.94V45.41a15,15,0,0,0,2.2.82,6.87,6.87,0,0,0,1.65.23,2.34,2.34,0,0,0,1.38-.34,1.18,1.18,0,0,0,.48-1,1.11,1.11,0,0,0-.21-.67,2.47,2.47,0,0,0-.62-.57A17.54,17.54,0,0,0,40.17,43a8,8,0,0,1-1.77-1.06,4.16,4.16,0,0,1-.94-1.19,3.44,3.44,0,0,1-.35-1.58,3.32,3.32,0,0,1,1.16-2.68,4.79,4.79,0,0,1,3.19-1,7.4,7.4,0,0,1,1.91.24,13.28,13.28,0,0,1,1.91.67l-.88,2.12a13.54,13.54,0,0,0-1.7-.59,5.58,5.58,0,0,0-1.33-.17,1.73,1.73,0,0,0-1.18.36,1.26,1.26,0,0,0-.25,1.57,1.88,1.88,0,0,0,.53.52,15.9,15.9,0,0,0,1.73.9,6.84,6.84,0,0,1,2.47,1.73A3.32,3.32,0,0,1,45.34,45Z"/><path class="cls-1" d="M60.72,48.54H58V43H52.91v5.55H50.19V35.69h2.72v5H58v-5h2.72Z"/><path class="cls-1" d="M66.48,48.54V35.69H69.2V48.54Z"/><path class="cls-1" d="M86.36,48.54H82.89L77.3,38.82h-.07c.11,1.71.16,2.94.16,3.67v6H75V35.69h3.43L84,45.31H84c-.09-1.67-.13-2.85-.13-3.54V35.69h2.45Z"/><path class="cls-1" d="M99.51,48.54h-7.4V35.69h7.4v2.23H94.84v2.82h4.35V43H94.84v3.32h4.67Z"/><path class="cls-1" d="M114.59,48.54h-2.68V35.69h7.36v2.23h-4.68v3.31H119v2.23h-4.36Z"/><path class="cls-1" d="M136,42.1a7,7,0,0,1-1.58,4.9,6.87,6.87,0,0,1-9.07,0,7,7,0,0,1-1.58-4.92,6.94,6.94,0,0,1,1.58-4.9,5.94,5.94,0,0,1,4.55-1.69,5.82,5.82,0,0,1,4.53,1.7A7,7,0,0,1,136,42.1Zm-9.38,0a5.41,5.41,0,0,0,.82,3.24,2.86,2.86,0,0,0,2.44,1.09c2.18,0,3.27-1.45,3.27-4.33s-1.09-4.35-3.25-4.35a2.88,2.88,0,0,0-2.45,1.1A5.35,5.35,0,0,0,126.59,42.1Z"/><path class="cls-1" d="M143.88,43.61v4.93h-2.73V35.69h3.75a6.43,6.43,0,0,1,3.87,1,3.8,3.8,0,0,1,.64,4.91,4.15,4.15,0,0,1-1.77,1.39c1.93,2.89,3.19,4.75,3.78,5.6h-3l-3.07-4.93Zm0-2.22h.88a3.37,3.37,0,0,0,1.91-.43,1.54,1.54,0,0,0,.61-1.35,1.41,1.41,0,0,0-.63-1.3,3.78,3.78,0,0,0-1.94-.39h-.83Z"/><path class="cls-1" d="M23.2,64A3.3,3.3,0,0,1,22,66.71a5.42,5.42,0,0,1-3.48,1,8.09,8.09,0,0,1-3.64-.77V64.41a14.6,14.6,0,0,0,2.2.82,6.87,6.87,0,0,0,1.65.23,2.33,2.33,0,0,0,1.37-.34,1.18,1.18,0,0,0,.48-1,1.11,1.11,0,0,0-.21-.67,2.31,2.31,0,0,0-.62-.57A17,17,0,0,0,18,62a7.79,7.79,0,0,1-1.77-1.06,4,4,0,0,1-.94-1.19,3.71,3.71,0,0,1,.8-4.26,4.82,4.82,0,0,1,3.2-1,7.46,7.46,0,0,1,1.91.24,12.77,12.77,0,0,1,1.9.67l-.88,2.12a12.52,12.52,0,0,0-1.7-.59,5.56,5.56,0,0,0-1.32-.17,1.76,1.76,0,0,0-1.19.36,1.21,1.21,0,0,0-.41.94,1.19,1.19,0,0,0,.17.63,1.88,1.88,0,0,0,.53.52,14.93,14.93,0,0,0,1.73.9,6.84,6.84,0,0,1,2.47,1.73A3.37,3.37,0,0,1,23.2,64Z"/><path class="cls-1" d="M38.58,67.54H35.87V62H30.78v5.55H28.05V54.69h2.73v5h5.09v-5h2.71Z"/><path class="cls-1" d="M51.75,67.54H44.34V54.69h7.41v2.23H47.07v2.82h4.35V62H47.07v3.32h4.68Z"/><path class="cls-1" d="M57,67.54V54.69h2.72v10.6h5.21v2.25Z"/><path class="cls-1" d="M74.59,67.54H71.87V57H68.38V54.69h9.7V57H74.59Z"/><path class="cls-1" d="M90,67.54h-7.4V54.69H90v2.23H85.3v2.82h4.35V62H85.3v3.32H90Z"/><path class="cls-1" d="M97.9,62.61v4.93H95.18V54.69h3.74a6.46,6.46,0,0,1,3.88,1,3.41,3.41,0,0,1,1.26,2.9,3.36,3.36,0,0,1-.63,2,4.06,4.06,0,0,1-1.76,1.39c1.93,2.89,3.19,4.75,3.78,5.6h-3l-3.07-4.93Zm0-2.22h.88a3.35,3.35,0,0,0,1.91-.43,1.54,1.54,0,0,0,.62-1.35,1.41,1.41,0,0,0-.63-1.3,3.8,3.8,0,0,0-2-.39H97.9Z"/><path class="cls-1" d="M109.58,54.69h4a7.69,7.69,0,0,1,4,.78,2.7,2.7,0,0,1,1.24,2.47,3.11,3.11,0,0,1-.55,1.89,2.17,2.17,0,0,1-1.43.89v.09a2.82,2.82,0,0,1,1.76,1,3.29,3.29,0,0,1,.54,2,3.25,3.25,0,0,1-1.27,2.74,5.48,5.48,0,0,1-3.45,1h-4.81Zm2.73,5.09h1.58a2.85,2.85,0,0,0,1.6-.35,1.26,1.26,0,0,0,.5-1.13,1.15,1.15,0,0,0-.54-1.06,3.52,3.52,0,0,0-1.71-.32h-1.43Zm0,2.16v3.35h1.77a2.66,2.66,0,0,0,1.66-.43,1.59,1.59,0,0,0,.54-1.32c0-1.07-.76-1.6-2.29-1.6Z"/><path class="cls-1" d="M135.86,61.1a7,7,0,0,1-1.58,4.9,6.87,6.87,0,0,1-9.07,0,7,7,0,0,1-1.59-4.92,6.9,6.9,0,0,1,1.59-4.9,5.94,5.94,0,0,1,4.55-1.69,5.85,5.85,0,0,1,4.53,1.7A7,7,0,0,1,135.86,61.1Zm-9.38,0a5.34,5.34,0,0,0,.82,3.24,2.84,2.84,0,0,0,2.44,1.09c2.18,0,3.26-1.45,3.26-4.33s-1.08-4.35-3.24-4.35a2.88,2.88,0,0,0-2.45,1.1A5.35,5.35,0,0,0,126.48,61.1Z"/><path class="cls-1" d="M151.43,67.54h-3.11l-3-4.86-3,4.86h-2.91l4.26-6.63-4-6.22h3l2.77,4.62,2.72-4.62h2.93l-4,6.37Z"/><path class="cls-1" d="M171.64,58.7a3.91,3.91,0,0,1-1.3,3.17,5.54,5.54,0,0,1-3.68,1.1h-1.17v4.57h-2.73V54.69h4.11a5.39,5.39,0,0,1,3.55,1A3.67,3.67,0,0,1,171.64,58.7Zm-6.15,2h.89a3,3,0,0,0,1.89-.5,1.75,1.75,0,0,0,.62-1.45,1.79,1.79,0,0,0-.52-1.41,2.43,2.43,0,0,0-1.64-.46h-1.24Z"/><path class="cls-1" d="M184.45,67.54l-.93-3.06h-4.68l-.93,3.06H175l4.53-12.9h3.34l4.55,12.9Zm-1.58-5.35c-.86-2.77-1.35-4.33-1.45-4.7s-.19-.65-.24-.86c-.19.75-.74,2.61-1.66,5.56Z"/><path class="cls-1" d="M194.25,62.61v4.93h-2.72V54.69h3.74a6.46,6.46,0,0,1,3.88,1,3.81,3.81,0,0,1,.63,4.91A4.15,4.15,0,0,1,198,61.94c1.94,2.89,3.2,4.75,3.78,5.6h-3l-3.07-4.93Zm0-2.22h.88A3.35,3.35,0,0,0,197,60a1.54,1.54,0,0,0,.61-1.35,1.41,1.41,0,0,0-.63-1.3,3.76,3.76,0,0,0-1.94-.39h-.83Z"/><path class="cls-1" d="M210.89,67.54h-2.73V57h-3.49V54.69h9.71V57h-3.49Z"/><path class="cls-1" d="M222.87,60l2.68-5.29h2.94l-4.27,7.85v5h-2.7V62.62l-4.27-7.93h3Z"/><path class="cls-1" d="M233.43,63.28v-.66a2.85,2.85,0,0,1,.36-1.46,4.68,4.68,0,0,1,1.32-1.33,5.69,5.69,0,0,0,1.22-1.07,1.55,1.55,0,0,0,.29-.93,1,1,0,0,0-.42-.87,2.08,2.08,0,0,0-1.18-.29,6.68,6.68,0,0,0-3,.86l-1-1.93a8.41,8.41,0,0,1,4.16-1.1,4.46,4.46,0,0,1,2.88.87,2.85,2.85,0,0,1,1.06,2.32,3,3,0,0,1-.44,1.67A6.12,6.12,0,0,1,237.05,61a4.87,4.87,0,0,0-1.06.95,1.45,1.45,0,0,0-.23.85v.53Zm-.28,3a1.44,1.44,0,0,1,.4-1.11,1.57,1.57,0,0,1,1.15-.38,1.59,1.59,0,0,1,1.13.38,1.71,1.71,0,0,1,0,2.21,1.55,1.55,0,0,1-1.12.4,1.58,1.58,0,0,1-1.14-.4A1.45,1.45,0,0,1,233.15,66.28Z"/><g class="cls-38"><rect class="cls-1" width="300" height="250"/></g></g></g></svg>